<?xml version="1.0" standalone="no"?>
<!DOCTYPE svg PUBLIC "-//W3C//DTD SVG 1.1//EN" "http://www.w3.org/Graphics/SVG/1.1/DTD/svg11.dtd" >
<svg xmlns="http://www.w3.org/2000/svg" xmlns:xlink="http://www.w3.org/1999/xlink" version="1.1">
<metadata></metadata>
<defs>
<font id="bubbleboddy_neue_trialbold" horiz-adv-x="1147" >
<font-face units-per-em="2048" ascent="1638" descent="-410" />
<missing-glyph horiz-adv-x="474" />
<glyph horiz-adv-x="0" />
<glyph unicode="&#xd;" horiz-adv-x="474" />
<glyph horiz-adv-x="0" />
<glyph horiz-adv-x="0" />
<glyph unicode=" "  horiz-adv-x="474" />
<glyph unicode="&#x09;" horiz-adv-x="474" />
<glyph unicode="&#xa0;" horiz-adv-x="474" />
<glyph unicode="!" horiz-adv-x="542" d="M106 -1q0 35 13 64.5t35 51t52.5 34t64.5 12.5t64.5 -12.5t53 -34t35 -51t12.5 -64.5q0 -34 -12.5 -63.5t-35 -51.5t-53 -34.5t-64.5 -12.5q-35 0 -65 12.5t-52 34.5t-35 51.5t-13 63.5zM111 437v783q0 35 12 65.5t33.5 53t51.5 35t63 12.5q34 0 64 -12.5t51.5 -35 t33.5 -53.5t12 -65v-783q0 -36 -12.5 -66t-35 -52t-51.5 -35t-62 -13t-62 13t-51 35t-34.5 52t-12.5 66z" />
<glyph unicode="&#x22;" horiz-adv-x="870" d="M74 1168q0 34 12 63.5t34 51t52 33.5t64 12q33 0 62.5 -12.5t51.5 -34t35 -50.5t13 -60l-17 -146q-5 -34 -14.5 -65t-26 -55.5t-42.5 -39t-62 -14.5q-38 0 -63.5 15t-41.5 39.5t-25 55.5t-14 64zM484 1166q0 33 12 62.5t33.5 52t50.5 35t65 12.5q33 0 62 -12.5t51.5 -34 t35.5 -50.5t13 -60l-17 -146q-4 -34 -14 -65t-27 -55.5t-42 -39t-62 -14.5q-38 0 -63.5 14t-41.5 37.5t-25 55t-15 67.5z" />
<glyph unicode="#" horiz-adv-x="1484" d="M43 438q0 34 12.5 63t34 51t50.5 34.5t63 12.5h997q33 0 62 -12.5t50.5 -34.5t34.5 -51t13 -63t-13 -63t-34.5 -50.5t-50.5 -34t-62 -12.5h-997q-34 0 -63 12.5t-50.5 34t-34 50.5t-12.5 63zM139 897q0 34 12.5 63t34 50.5t50.5 34t63 12.5h997q33 0 62.5 -12.5t51 -34 t34 -50.5t12.5 -63t-12.5 -63t-34 -51t-51 -35t-62.5 -13h-997q-34 0 -63 13t-50.5 35t-34 51t-12.5 63zM234 121q-6 31 3 63l232 1034q8 33 27.5 58.5t46 41t58 20.5t64.5 -2q33 -9 58.5 -29t41 -46.5t21 -58.5t-3.5 -64l-231 -1034q-8 -33 -28 -57t-46.5 -40t-58.5 -21 t-65 3q-33 9 -58 28.5t-40 46t-21 57.5zM706 125.5q-4 31.5 6 62.5l231 1041q9 32 29.5 56t47.5 38t58 18t64 -6q32 -9 56.5 -29.5t39 -47.5t18.5 -58.5t-7 -62.5l-229 -1040q-9 -32 -29.5 -56t-48 -38t-59 -17.5t-63.5 5.5q-33 10 -57.5 30t-38.5 46.5t-18 58z" />
<glyph unicode="$" horiz-adv-x="1056" d="M90 265q-2 26 7 53t27 48q18 23 48 37.5t71 14.5q35 0 68 -16t62 -52q24 -39 65.5 -60t91.5 -21q26 0 51.5 7t46 19t34 30.5t13.5 43.5q0 33 -24.5 58.5t-64.5 48.5t-91 44t-104 45.5t-103.5 54t-90.5 68.5t-64.5 89.5t-24.5 116.5q0 85 31 158.5t89.5 128.5t142 86 t188.5 31q53 0 112.5 -14.5t115.5 -42t103 -66.5t75 -89q8 -17 13 -34.5t5 -37.5q1 -37 -10.5 -64.5t-32 -46t-49.5 -28.5t-63 -10q-17 0 -33.5 2.5t-32.5 10t-32 20.5t-35 35q-18 20 -34 39t-33.5 34t-38 23.5t-47.5 8.5q-23 0 -44 -6.5t-38 -19t-27 -29t-10 -37.5 q0 -57 73 -95q109 -60 204 -114t165.5 -110.5t111.5 -120t41 -141.5q0 -67 -21 -122.5t-56.5 -99.5t-82 -77t-97 -55t-103 -33t-98.5 -11q-119 0 -205.5 28t-143.5 71.5t-87 96t-34 102.5zM394 1147v158q0 34 13 63.5t35 51.5t51 34.5t63 12.5q41 0 71.5 -14.5t51 -41 t31.5 -60.5t11 -72v-139zM399 -6v124l320 -8v-116q0 -34 -13 -62.5t-35 -50t-51 -34t-62 -12.5t-62 12.5t-50.5 34t-34 50t-12.5 62.5z" />
<glyph unicode="%" horiz-adv-x="1511" d="M42 1028q0 60 22 113t61 92.5t90.5 62t112.5 22.5q60 0 113 -22.5t92 -62t61.5 -92t22.5 -113.5q0 -60 -22.5 -112.5t-61.5 -91t-92 -61t-113 -22.5t-112 22.5t-91 61t-61 91t-22 112.5zM245 1028q0 -43 21.5 -66.5t60.5 -23.5q41 0 64 23.5t23 66.5q0 42 -23 66.5 t-64 24.5q-39 0 -60.5 -24.5t-21.5 -66.5zM402 116q-2 17 3 36.5t11 37.5q39 114 69 200t56 158.5t49.5 138.5t50 138t57 158.5t70.5 200.5q7 28 22.5 50.5t35.5 39.5q17 15 39 25t48 15q35 4 65 -5.5t52.5 -27t37 -42t18.5 -49.5q2 -18 -2.5 -40t-8.5 -40 q-40 -114 -70 -200t-56 -158.5t-49.5 -138t-50 -138.5t-56.5 -159t-69 -199q-16 -52 -50 -87.5t-83 -42.5q-34 -5 -66 3.5t-58 26t-43 43t-22 56.5zM874 290q0 59 22.5 112t61 92.5t90.5 62t112 22.5t113 -22.5t92.5 -62t62 -92.5t22.5 -112q0 -60 -22.5 -112.5t-62 -91.5 t-92 -61t-113.5 -22q-60 0 -112 22t-90.5 61t-61 91.5t-22.5 112.5zM1077 290q0 -43 21.5 -67t60.5 -24q41 0 64 24t23 67q0 42 -23 66.5t-64 24.5q-39 0 -60.5 -24.5t-21.5 -66.5z" />
<glyph unicode="&#x26;" horiz-adv-x="1198" d="M69.5 418q-0.5 18 0.5 36q5 90 41 162t96 124q-29 41 -46 88.5t-21 100.5q-1 36 3 70q9 69 42 128.5t83 103.5t114 69t136 25q65 0 96.5 -34.5t31.5 -98.5q0 -34 -11 -64.5t-36 -52.5q-31 -19 -59.5 -29t-50.5 -20.5t-35.5 -28t-13.5 -52.5q0 -36 22 -59t56 -23h73 l-12 -299h-61q-27 0 -50 -10t-40 -27.5t-27.5 -41t-10.5 -50.5t10.5 -51t27.5 -41t40.5 -27.5t49.5 -10.5h160v9l310 -209q-16 -66 -59.5 -93t-105.5 -27h-262q-96 0 -180 26t-149 76.5t-106.5 125t-53.5 170.5q-2 17 -2.5 35zM379 714q0 32 15.5 59.5t40 47.5t55.5 31 t64 11h113t120.5 0.5t120 0.5h113.5q32 0 59 -11t47.5 -31.5t32 -48.5t11.5 -59t-11.5 -58t-32 -47.5t-47.5 -32.5t-59 -12h-460q-33 0 -65 12t-58 32.5t-42.5 47.5t-16.5 58zM678 146v772q0 34 12 63t33.5 50.5t51 34t63.5 12.5t63 -12.5t50.5 -34t34 -51t12.5 -62.5v-772 q0 -34 -12.5 -63t-34 -51t-51 -34t-62.5 -12q-34 0 -63.5 12t-51 34t-33.5 51.5t-12 62.5z" />
<glyph unicode="'" horiz-adv-x="462" d="M69 1025v129q0 35 11 66.5t32 55.5t50.5 38.5t66.5 14.5q36 0 66 -14.5t51 -38.5t32.5 -55.5t11.5 -66.5v-129q0 -35 -11.5 -66t-32.5 -55t-51 -38.5t-66 -14.5q-37 0 -66.5 14.5t-50.5 38.5t-32 55t-11 66z" />
<glyph unicode="(" horiz-adv-x="706" d="M111 88v823q1 81 31.5 153t83 126.5t122 88.5t149.5 39q56 5 106 -12q39 -17 62 -52t23 -82q0 -34 -12 -64.5t-34 -54.5t-52 -38.5t-64 -14.5q-41 0 -67.5 -27.5t-26.5 -68.5v-816q0 -33 17.5 -56.5t47.5 -32.5q36 -2 70 -16.5t61 -38.5t43.5 -55t16.5 -68 q0 -34 -12 -61.5t-34 -47.5t-51.5 -31.5t-63.5 -11.5q-86 0 -161.5 33.5t-132.5 90t-89.5 133t-32.5 162.5z" />
<glyph unicode=")" horiz-adv-x="711" d="M24 -174q0 23 7 49.5t24.5 50t46.5 42t73 25.5q17 0 36 7.5t34.5 20.5t26 31t10.5 38v817q0 19 -8 37t-21 31t-30.5 20t-37.5 7q-33 0 -62.5 14.5t-51.5 38.5t-34.5 55t-12.5 65q0 46 23.5 80.5t61.5 53.5q52 16 106 11q80 -5 149.5 -39t122 -88.5t82.5 -126.5t32 -153 v-823q0 -86 -32.5 -162t-89 -133t-133 -90.5t-162.5 -33.5q-33 0 -61.5 11.5t-51 32.5t-35 49t-12.5 62z" />
<glyph unicode="*" horiz-adv-x="899" d="M32 790q-5 27 0 52.5t19.5 48t37.5 38.5l94 63l-78 55q-24 16 -38 39t-18.5 49t1 52.5t22.5 51.5q16 24 39 38t48.5 18.5t52 -0.5t49.5 -20l40 -28v31q0 28 10.5 51.5t28 41t41 27.5t51.5 10t51.5 -10t41.5 -27.5t28 -41t10 -51.5v-30l33 23q24 15 51 19.5t52.5 -0.5 t48.5 -20t38 -38q16 -25 21.5 -52t0.5 -53t-20 -49t-38 -39l-73 -49l91 -62q24 -16 38.5 -39t19 -49t-0.5 -52.5t-21 -51.5q-16 -24 -39.5 -38.5t-49.5 -19.5t-52.5 0t-50.5 20l-49 34v-53q0 -27 -10 -50.5t-28 -41t-41.5 -27.5t-51.5 -10t-51.5 10t-41 27.5t-28 41 t-10.5 50.5v58l-57 -39q-25 -16 -52 -20.5t-52.5 1t-48 21t-38.5 39.5t-21 51z" />
<glyph unicode="+" horiz-adv-x="944" d="M96 514q0 23 8.5 42t22 34t33 23.5t41.5 8.5h538q45 0 76 -31t31 -77q0 -22 -8.5 -41t-22.5 -34t-33.5 -23t-42.5 -8h-538q-22 0 -41.5 8t-33 23t-22 34.5t-8.5 40.5zM364 245v538q0 22 8 41.5t23 33t34.5 22t40.5 8.5q23 0 42 -8.5t34 -22t23.5 -33t8.5 -41.5v-538 q0 -45 -31 -76t-77 -31q-22 0 -41 8.5t-34 22.5t-23 33.5t-8 42.5z" />
<glyph unicode="," horiz-adv-x="509" d="M88 41q0 24 1 47.5t2 43.5q1 35 14.5 65t36 52.5t52.5 35.5t65 13q31 0 60 -11.5t52 -32.5t37.5 -51t13.5 -68q-4 -57 -28 -109t-59.5 -91.5t-77 -64t-81.5 -26.5q-34 0 -53.5 30t-27.5 78q-4 19 -5.5 42t-1.5 47z" />
<glyph unicode="-" horiz-adv-x="951" d="M105 454q0 23 8.5 42t22.5 34t33 23t41 8h539q45 0 75.5 -30.5t30.5 -76.5q0 -23 -8 -42.5t-22.5 -34.5t-34 -23t-41.5 -8h-539q-22 0 -41 8t-33 23t-22.5 34.5t-8.5 42.5z" />
<glyph unicode="." horiz-adv-x="444" d="M57 146q0 34 13 64t35 51.5t52 33.5t65 12q34 0 64 -12t52.5 -33.5t35.5 -51.5t13 -64q0 -35 -13 -64.5t-35.5 -51t-52.5 -33.5t-64 -12q-35 0 -65 12t-52 33.5t-35 51t-13 64.5z" />
<glyph unicode="/" horiz-adv-x="1086" d="M58.5 -179.5q-7.5 36.5 12.5 73.5q44 84 94 184t104.5 209.5t111.5 226.5t114.5 234.5t114.5 233.5t110 223q11 27 29.5 46.5t41.5 33.5q20 13 43.5 20.5t48.5 6.5q35 -1 63.5 -14.5t48.5 -35t30.5 -47.5t10.5 -53q0 -17 -6.5 -38.5t-12.5 -39.5q-162 -325 -321 -645 t-319 -645q-25 -50 -65 -79.5t-93 -27.5q-36 1 -71 20t-58.5 48t-31 65.5z" />
<glyph unicode="0" horiz-adv-x="3575" d="M125 166q0 6 1 12t3 12t4.5 12.5t5.5 12.5q3 5 6 9t9 9q8 8 20 15q11 7 23 10q6 2 12 3t12 1q11 0 20.5 -2.5t18.5 -5.5q8 -5 15.5 -9.5t13.5 -11.5q0 -2 -1 -2t-3 -2l-2 -2q-2 -2 -3 -2h-1h-7h-4t-4 2q-5 3 -9.5 6t-10.5 5q-5 2 -11 2h-12q-8 0 -15 -1t-15 -3 q-12 -7 -21 -17q-6 -5 -9.5 -10.5t-6.5 -13.5q-6 -12 -7 -29v-9t3 -10q2 -10 8 -18q3 -5 6 -8t6 -8q6 -6 14 -11q5 -3 9.5 -4.5t9.5 -3.5t9.5 -2h10.5h12.5t12.5 2t11 4.5l11 5.5v39h-14q-2 0 -4 1t-4 1q-2 2 -3 2t-3 3q0 2 -1 3t-1 3q-2 2 -2 6v2h51v-72q-3 -5 -6 -7t-9 -5 q-3 -2 -6 -3t-8 -1q-5 -2 -9 -3t-9 -1h-21h-12t-12 2q-11 3 -23 10q-12 6 -20 14q-9 9 -15 21q-7 10 -10 21q-2 7 -3 13.5t-1 12.5zM125 -274q0 4 1 7.5t1 6.5q2 3 2 6t2 6l6 12q4 3 8 11l129 174h-141v51h215v-25v-14q-2 -3 -3 -6t-3 -6l-145 -193q2 0 4 2q2 0 4 2h4h139 v-51h-223v17zM133 326v784h1223q0 81 30 154q32 73 84 125q54 51 125 81q71 31 150 31q87 0 156 -33q71 -34 122 -86q51 -54 82 -125t31 -147h1221v-784h-3224zM301 459h29v76h45q6 0 12 1t12 3q12 6 21 14q8 8 14 20q2 6 3 12.5t1 12.5q0 8 -1 14t-3 13q-3 5 -6 9t-8 9 t-9.5 8.5t-11.5 5.5q-12 6 -24 7h-74v-205zM330 561v74h45q3 0 6 -1t8 -3q3 0 5.5 -2t4.5 -4q4 -4 9 -13q2 -4 2 -14v-7t-2 -7q-4 -8 -9 -11q-4 -5 -10 -8q-5 -2 -8 -3t-6 -1h-45zM336 74v186h113v-22h-93v-60h74v-20h-74v-64h93v-20h-113zM385 0h186v-51h-133v-68h107v-51 h-107v-70h133v-51h-186v291zM459 459h127v26h-99v62h80v28h-80v60h99v29h-127v-205zM471 238v22h141v-22h-59v-164h-23v164h-59zM582 0h223v-51h-86v-240h-53v240h-84v51zM629 459h28v84h31l53 -72q3 -7 11 -10q2 -2 6.5 -2h9.5h18l-65 88q5 2 9 3t7 5q8 3 15 12q5 6 8 17 q2 5 2 9v8q0 8 -0.5 14t-3.5 12q-2 5 -5.5 9t-7.5 9q-9 9 -18 12q-12 6 -25 7h-73v-205zM657 571v64h45q4 0 13 -4q7 0 10 -6q3 -2 4.5 -4.5t3.5 -4.5q0 -3 1 -6.5t1 -8.5q0 -2 -1 -5t-1 -6q-2 -2 -3.5 -4.5t-4.5 -5.5q-2 -2 -10 -7q-4 -2 -13 -2h-45zM729 74v186h113v-22 h-92v-64h77v-20h-77v-80h-21zM760 -291l127 291h49l125 -291h-33q-11 0 -20 6q-5 3 -8.5 7.5t-6.5 8.5l-16 40h-131l-19 -40q0 -3 -4 -7q-2 -3 -4 -5l-4 -4q-3 -2 -5 -3t-5 -1q-3 -2 -5.5 -2h-4.5h-35zM795 496q2 -2 2 -3t2 -1q0 -2 1 -3.5t1 -3.5q4 -4 5 -6q4 -5 7 -5 q9 -10 20 -13.5t25 -3.5q8 0 14.5 0.5t14.5 3.5q11 3 20 13q12 10 17 20q6 12 6 24q0 29 -23 45q-2 2 -4 3t-4 3q-3 2 -5 2t-5 2q-2 2 -4 2t-6 3q-2 0 -11 4q-5 2 -9 3t-7 3q-5 2 -7 3t-5 3q-4 4 -6 7q-1 3 -1 11q0 6 1 11q2 2 3.5 4t4.5 4q2 0 10 4q4 2 12 2q3 0 5.5 -1 t4.5 -1q3 -2 7 -3t6 -3q8 -4 12 -4q8 0 14 6l7 4q-2 3 -5 5t-6 5t-6 5t-6 5q-3 2 -7 3t-9 4q-8 4 -17 4q-6 0 -11 -1t-11 -3t-11 -5l-10 -6q-3 -3 -6 -7t-6 -9q-6 -9 -6 -23q0 -8 1.5 -12.5t4.5 -9.5q3 -10 12 -17q7 -7 19 -10q5 -3 9.5 -5t10.5 -5q3 -2 6 -2.5t8 -1.5 q3 -2 7 -3t6 -3q3 -3 5.5 -5t4.5 -6q2 -3 3 -6t1 -8q0 -6 -4 -14q-3 -7 -10 -10q-2 -3 -5.5 -5t-7.5 -4q-5 0 -8 -1t-8 -1q-3 0 -7 1t-7 1q-8 4 -11 9l-4 2q-6 6 -16 6q-7 0 -10 -4zM868 -176h86l-39 88q-2 3 -2 5.5t-2 4.5v8q0 -4 -2 -8q0 -2 -1 -4.5t-1 -5.5zM879 145v115 h20v-115q0 -6 0.5 -10.5t3.5 -9.5q2 -6 4.5 -9.5t5.5 -9.5q5 -3 9 -5.5t10 -4.5q5 -3 9.5 -3.5t10.5 -0.5t11 0.5t10 3.5q11 4 16 10q5 5 7 9l5 10q2 5 3.5 9.5t1.5 10.5v115h20v-115q0 -16 -6 -28q-3 -8 -6 -14t-8 -11q-6 -5 -12.5 -9t-12.5 -7q-6 -2 -13 -3t-16 -1 q-8 0 -15 1t-13 3q-13 5 -25 16q-5 5 -9 11t-6 14q-4 6 -4.5 13t-0.5 15zM952 559q0 -9 1.5 -19.5t7.5 -19.5q5 -11 10.5 -18.5t11.5 -16.5q8 -6 16 -11.5t17 -8.5q19 -8 41 -8h14t14 2q6 3 12.5 5t12.5 7q10 5 23 14q3 5 7 11t7 12q5 6 7 12t5 12q2 8 2 14v13v15.5t-2 13.5 q-3 8 -5 14t-7 12q-3 5 -7 10.5t-7 10.5q-6 5 -11.5 8t-11.5 8q-6 3 -12 5.5t-13 5.5q-8 2 -14 3t-14 1q-6 0 -13.5 -1t-13.5 -3q-8 -2 -14 -5l-12 -6q-5 -5 -10.5 -8t-10.5 -8t-9 -10t-7 -11l-6 -12t-5 -14q-2 -6 -3 -13.5t-1 -15.5zM981 559q0 18 6 31q3 8 6.5 13.5 t10.5 10.5q5 6 10.5 10t13.5 7q13 6 29 6q15 0 30 -6q6 -3 12.5 -7t12.5 -10q11 -11 16 -24q6 -12 7 -31q0 -13 -7 -29q-3 -6 -7 -12t-9 -12q-6 -5 -12 -9t-13 -8q-15 -6 -30 -6t-29 6q-13 5 -24 17q-6 6 -10 12t-7 12q-6 15 -6 29zM1065 74v186h22v-166h82v-20h-104z M1073 0h187v-51h-134v-74h111v-51h-111v-115h-53v291zM1194 74v186h20v-166h82v-20h-102zM1200 459h29v172v-4q2 -2 2 -3v-1q0 -2 1 -3q0 -1 1 -2l117 -159h24v205h-28v-160q0 5 -1.5 8t-3.5 6l-100 137q-4 4 -8 7q-3 0 -6 1t-6 1h-21v-205zM1278 -145q0 9 0.5 19t3.5 20 q3 9 6 17.5t8 16.5q5 9 11 16t14 15q13 13 29 23q9 4 17 8.5t17 7.5q11 2 20.5 3t20.5 1t20.5 -1t18.5 -3q9 -3 18 -7.5l17 -8.5q9 -5 17 -11t14 -12q6 -8 11.5 -15t10.5 -16q5 -8 9 -16.5t6 -17.5q6 -18 6 -39q0 -20 -6 -39q-2 -9 -5.5 -18.5t-9.5 -18.5q-9 -15 -22 -29 q-6 -6 -14 -11.5t-17 -10.5q-8 -6 -16.5 -10t-18.5 -7q-9 -2 -18 -3t-21 -1q-15 0 -30 2.5t-27 7.5q-14 6 -26 14t-21 19q-22 22 -33 47q-6 14 -8 27.5t-2 30.5zM1329 -145q0 -9 2.5 -18.5t5.5 -18.5q10 -20 21 -31q6 -6 13.5 -10.5t17.5 -9.5q15 -6 36 -7q18 0 37 7 q7 5 15 9.5t16 10.5q6 6 10.5 14t9.5 17q6 18 7 37q0 18 -7 36q-5 9 -9.5 16t-10.5 15q-8 6 -16 10.5t-15 8.5q-16 8 -37 8q-24 0 -36 -8q-9 -4 -17 -8.5t-14 -10.5q-6 -8 -11 -14.5t-10 -16.5q-3 -9 -5.5 -18t-2.5 -18zM1386 260h11q3 0 5 -1t5 -3q2 -2 4 -3.5t2 -4.5 l62 -139q0 -2 1 -3.5t1 -3.5v-6v6q2 2 2 7q8 17 15 34.5t15 34.5q8 18 15.5 35t15.5 35q2 4 6 8q8 4 10 4h13q-11 -24 -21.5 -47.5t-19.5 -46.5q-11 -24 -20.5 -46.5t-20.5 -45.5h-21zM1386 1108q0 -71 29 -137q14 -33 32.5 -61.5t43.5 -53.5q46 -49 113 -78q65 -31 141 -30 q73 0 139 28q65 28 115 78q25 24 43.5 52t34.5 61q27 66 26 141q0 34 -4.5 64.5t-15.5 58.5q-9 27 -24 53t-34 49q-18 22 -38.5 40.5t-44.5 35.5q-25 14 -50.5 25.5t-52.5 19.5q-22 8 -44.5 11t-49.5 3q-76 0 -143 -30q-33 -14 -61 -34t-52 -44q-25 -25 -43.5 -53.5 t-32.5 -61.5q-12 -33 -19.5 -66.5t-7.5 -70.5zM1393 459h16q8 0 11 2q7 5 10 10l14 33h104l15 -33q4 -8 8 -10q2 -2 5.5 -2h6.5h16l-88 205h-28zM1423 1108q0 58 19 111q8 27 21.5 49.5t31.5 46.5h428l-420 -424q-20 24 -35 48.5t-24 51.5q-11 27 -16 56.5t-5 60.5z M1456 532l37 86q2 2 2 5q0 2 1 4t1 4q0 -10 2 -13l37 -86h-80zM1528 866h434q-24 -18 -48.5 -33.5t-51.5 -26.5q-27 -10 -56.5 -16t-60.5 -6q-32 0 -61 6t-56 16q-28 11 -52.5 26.5t-47.5 33.5zM1528 1350q22 20 46.5 35t50.5 26q54 20 120 21q31 0 60.5 -5t56.5 -16 q55 -25 98 -61h-432zM1565 901l422 426q80 -104 79 -219q0 -30 -4 -57t-14 -54q-9 -27 -22.5 -49.5t-30.5 -46.5h-430zM1583 74v186h115v-22h-92v-60h73v-20h-73v-64h92v-20h-115zM1612 0h47q8 0 16 -4t11 -9q15 -20 30.5 -42t30.5 -43q15 -22 30 -43t29 -41q6 -6 6 -13 q2 -3 2.5 -5.5t0.5 -4.5v205h53v-291h-49l-138 195q-4 4 -4 6q-2 4 -6 8q0 2 -4 6q0 2 -1 3t-1 3v-221h-53v291zM1620 459h117v26h-88v179h-29v-205zM1741 74v186h67q5 0 10.5 -1t10.5 -3q5 -3 9 -6t7 -6t6 -7.5t7 -9.5q2 -5 3 -10t1 -10t-1 -9t-3 -10q-2 -10 -9 -16 l-12 -12q-5 -2 -8 -3t-8 -3l59 -80h-12q-8 0 -11 2q-6 2 -10 8l-53 70h-31v-80h-22zM1763 174h45q8 0 13 2q3 2 5 3t5 3q2 3 3 5t3 4q2 4 3 7.5t1 8.5q0 4 -4 12q-2 3 -3 5t-3 5q-3 2 -5 3t-5 4q-4 2 -13 2h-45v-64zM1853 539q0 -6 0.5 -12t3.5 -11q1 -6 3 -10.5t4 -9.5 q3 -5 6 -9.5t8 -7.5q3 -3 7 -6t9 -6t10.5 -4.5t10.5 -3.5t10 -3t10 -1q6 0 12.5 1t11.5 3q12 3 19 8q5 3 8.5 6t8.5 6q3 3 6 7t6 10q5 7 8 20q2 5 3 10.5t1 12.5v125h-28v-125q0 -6 -1 -11.5t-3 -11.5q-3 -5 -5.5 -9t-7.5 -7q-3 -5 -7 -7.5t-8 -5.5q-7 -2 -12 -3t-12 -1 q-5 0 -10 1t-10 3q-5 3 -9 5.5t-8 7.5q-9 6 -12 16q-2 6 -3 11t-1 12v125h-29v-125zM1892 0h224v-51h-84v-240h-54v240h-86v51zM1896 104l5 2l1 2q1 0 1.5 0.5t1.5 0.5h4q8 0 12 -5q3 -5 7 -6.5t7 -3.5q5 -2 8.5 -2h8.5h6t8 2q6 0 12 6q7 3 11 11q4 10 4 14q0 9 -4 15 q-3 6 -9 10q-4 4 -12 8q-4 0 -14 4q-6 2 -11 4l-10 4q-9 3 -16 10q-3 2 -5.5 5.5t-3.5 5.5q-2 5 -3.5 10.5t-1.5 11.5q0 11 6 20q3 8 12 15q7 7 16 10q5 2 11 3t11 1q2 0 6 -1t7 -1q5 -2 8 -3t7 -3q3 -3 5.5 -4.5t4.5 -3.5l8 -8l-4 -5q-4 -4 -10 -4q-8 0 -11 2q-2 2 -3 2 t-3 3q-2 0 -2 1t-2 1t-3 1t-3 1h-5h-8t-7 -2q-3 0 -5.5 -1t-5.5 -4q-2 -3 -4 -5t-2 -5q-4 -4 -4 -10q0 -8 2 -10q2 -4 6 -8q5 -4 13 -7q3 -2 7 -3t9 -3q3 -2 5 -2t5 -2q4 0 8 -4q3 0 5.5 -1t5.5 -3q2 0 6 -4l8 -8t7 -8q1 -7 2 -12t1 -13q0 -6 -1 -11t-2 -12q-4 -5 -7 -9.5 t-8 -6.5q-7 -7 -21 -10q-5 -3 -10.5 -3.5t-11.5 -0.5q-27 0 -41 14q-2 2 -5 4.5t-5 5.5q-4 4 -5 8zM2048 496q0 -2 1 -3q0 -1 1 -1q2 -2 2 -3.5t2 -3.5q4 -4 4 -6q4 -5 8 -5q9 -10 20 -13.5t25 -3.5q8 0 14.5 0.5t11.5 3.5q15 3 24 13q11 10 16 20q3 6 3.5 12t0.5 12 q0 31 -20 45q-4 2 -9 6q-3 2 -5 2t-5 2q-4 2 -5.5 2t-4.5 3q-3 0 -5 1t-5 3q-5 2 -9.5 3t-7.5 3q-9 3 -12 6q-6 3 -6 7q-2 3 -2 11q0 6 2 11q2 2 3.5 4t4.5 4q2 0 10 4q4 2 13 2q3 0 5 -1t5 -1l12 -6q8 -4 12 -4q6 0 13 6l8 4q-2 3 -4.5 5t-5.5 5t-6.5 5t-6.5 5q-3 2 -7 3 t-9 4q-5 2 -8 3t-8 1q-6 0 -12 -1t-11 -3q-6 -2 -10.5 -5t-9.5 -6l-7 -7t-6 -9q-6 -9 -6 -23q0 -8 1.5 -12.5t3.5 -9.5q5 -11 14 -17q7 -7 16 -10q6 -3 11 -5t12 -5q3 -2 6 -2.5t8 -1.5l12 -6q3 -3 5.5 -5t4.5 -6q2 -3 3 -6t1 -8q0 -6 -4 -14q-3 -7 -10 -10q-5 -5 -14 -9 q-3 0 -7 -1t-8 -1q-5 0 -8 1t-6 1q-10 3 -12 9l-2 2q-6 6 -17 6q-8 0 -10 -4zM2054 74v186h23v-186h-23zM2120 166q0 6 1 12t3 12t3.5 12.5t4.5 12.5q4 5 7.5 9t8.5 9t9.5 8.5t9.5 6.5q10 7 21 10q7 2 13.5 3t14.5 1q6 0 12 -1t11 -3q12 -3 24 -10q12 -6 21 -15q5 -5 8 -9 t6 -9q3 -6 5.5 -12t4.5 -13q2 -6 2 -12v-12q0 -20 -6 -37q-8 -17 -20 -31q-16 -14 -31 -20q-20 -6 -37 -6q-23 0 -39 6q-17 6 -29 20q-6 6 -11.5 14t-8.5 17q-5 8 -6.5 18t-1.5 19zM2120 -229q2 0 6 4q4 0 8 4q2 0 4 1t4 1t4 0.5t4 0.5q6 0 13 -3q5 0 8 -1t6 -3q7 -7 16 -11 q5 -2 11 -3t12 -1h7t9 2q3 2 7.5 3.5t7.5 3.5q9 6 12 13q6 7 6 17q0 5 -1 8.5t-3 6.5q-3 3 -6 5.5t-6 4.5q-8 5 -17 8q-8 1 -18 8q-8 2 -15.5 4.5t-15.5 5.5t-14 7.5t-12 9.5q-10 10 -17 22q-8 13 -8 33q0 10 2.5 18.5t5.5 16.5q10 16 21 25q6 4 13 8.5t14 7.5q8 2 17 3 t17 1q6 0 12.5 -1t12.5 -3q13 -3 22 -11q6 -2 11 -6.5t10 -9.5q5 -3 8 -7t6 -9l-10 -8l-6 -4t-9 -4q-5 -2 -8 -3t-6 -1h-4h-4q-3 2 -5 3t-5 3q-2 2 -5 2t-4 2q-2 0 -3.5 1t-4.5 1q-2 2 -8 2h-6t-8 -2q-6 0 -10 -4q-3 -2 -6.5 -5t-4.5 -4q-2 -4 -2 -12t2 -10q1 -3 4 -5t7 -5 q3 -2 7 -3t9 -3t10.5 -4.5t13.5 -4.5l9 -4q9 -3 15.5 -6t14.5 -8q15 -8 23 -19q9 -9 12 -22q6 -12 6 -29q0 -11 -2.5 -19.5t-5.5 -17.5q-5 -9 -10.5 -16.5t-11.5 -14.5q-15 -11 -35 -18q-20 -6 -37 -6q-23 0 -41 6q-9 5 -17 10t-16 13q-5 5 -8 9t-6 9q-5 8 -8 17zM2140 166 q0 -5 1 -9t3 -10t3 -9.5t3 -8.5q3 -5 6.5 -8t6.5 -8q6 -6 14 -11q7 -5 18 -8q5 -2 10 -2h11h9t9 2q4 2 9 3.5t10 4.5q5 2 8 5l6 6q5 5 7 8t5 8q6 8 9 18q2 5 2 9.5v9.5q0 16 -6 29q-3 8 -7 13.5t-10 10.5q-10 10 -22 17q-6 2 -13.5 3t-15.5 1t-15.5 -1t-15.5 -3 q-12 -6 -22 -17q-5 -5 -9.5 -10.5t-7.5 -13.5q-6 -12 -6 -29zM2218 459h127v26h-100v62h79v28h-79v60h100v29h-127v-205zM2333 -262q0 3 1 6.5t1 5.5q4 8 7 10q4 6 11 7q8 4 12 4t13 -4q7 -1 10 -7q5 -3 5 -10q2 -2 3.5 -5.5t1.5 -6.5q0 -5 -5 -12q0 -5 -5 -11q-2 -2 -10 -6 q-4 -2 -13 -2q-8 0 -12 2q-8 4 -11 6q-2 3 -3.5 5t-3.5 6q0 3 -1 6t-1 6zM2345 74v186h14q13 0 17 -8l96 -135q2 -1 2 -2.5t2 -3.5v-5v154h23v-186h-21l-108 153l-3 2v2q0 2 -2 5v-162h-20zM2417 -145q0 20 6 39q2 9 5.5 17.5t8.5 16.5q5 9 11 16t12 15q8 6 14.5 11.5 t15.5 11.5l17 8.5t18 7.5q11 2 20.5 3t18.5 1t17 -0.5t16 -3.5q13 -3 31 -11q12 -5 26 -16q6 -5 12.5 -10.5t12.5 -11.5l-13 -14q-4 -3 -12 -7q-5 -2 -16 -2q-9 0 -19 6q-6 2 -12 6t-14 7q-6 2 -13.5 3t-15.5 1q-9 0 -18 -1.5t-17 -6.5q-9 -4 -16.5 -8.5t-13.5 -10.5 q-8 -8 -13 -14.5t-8 -16.5q-8 -16 -8 -36t8 -37q6 -19 21 -31q6 -6 13.5 -10.5t16.5 -9.5q15 -6 35 -7q8 0 15.5 1t13.5 3q14 3 26 13q2 2 4.5 2t4.5 2q3 1 5.5 1h4.5q8 0 16 -3q8 -4 12 -8l13 -11q-6 -6 -12.5 -11.5t-12.5 -10.5t-13 -9t-13 -8q-8 -5 -15.5 -6.5 t-15.5 -3.5q-8 -3 -16 -3.5t-17 -0.5q-14 0 -28.5 2.5t-28.5 7.5q-26 11 -47 33q-9 11 -17 22t-14 25q-12 28 -12 58zM2462 559q0 -9 1.5 -19.5t6.5 -19.5q3 -11 8.5 -18.5t11.5 -16.5q8 -6 17 -11.5t18 -8.5q16 -8 41 -8h13.5t13.5 2q8 3 14 5t12 7q5 3 10.5 6t10.5 8 q10 10 16 23q3 6 5.5 12t4.5 12l3.5 14t1.5 13q0 8 -1 15.5t-4 13.5q-2 8 -4.5 14t-5.5 12q-3 5 -7 10.5t-9 10.5t-10 8t-11 8q-6 3 -12 5.5t-14 5.5q-6 2 -13.5 3t-13.5 1q-8 0 -14.5 -1t-14.5 -3q-6 -2 -12 -5l-12 -6q-6 -5 -11 -8t-12 -8q-5 -5 -8 -10t-8 -11 q-3 -6 -5 -12t-5 -14q-2 -6 -2 -13.5v-15.5zM2488 559q0 18 6 31q3 8 7.5 13.5t9.5 10.5q6 6 12 10t12 7q8 3 15 4.5t16 1.5q16 0 29 -6q8 -3 13.5 -7t10.5 -10q6 -5 10 -10.5t7 -13.5q6 -12 6 -31q0 -13 -6 -29q-3 -6 -6.5 -12t-10.5 -12q-5 -5 -10.5 -9t-13.5 -8 q-12 -6 -29 -6q-9 0 -15.5 1.5t-15.5 4.5q-6 3 -12 7.5t-12 9.5q-5 6 -9 12l-8 12q-6 15 -6 29zM2634 74v186h114v-22h-94v-64h78v-20h-78v-80h-20zM2697 -145q0 20 6 39q3 9 6.5 17.5t8.5 16.5q5 9 10.5 16t13.5 15q13 13 29 23q9 4 17.5 8.5t17.5 7.5q11 2 20 3t21 1 q9 0 19 -1t20 -3q9 -3 17.5 -7.5t16.5 -8.5q9 -5 16 -11t15 -12q6 -8 12 -15t11 -16q5 -8 8.5 -16.5t5.5 -17.5q6 -18 6 -39q0 -20 -6 -39q-2 -9 -5.5 -18.5t-8.5 -18.5q-9 -15 -23 -29q-8 -6 -14.5 -11.5t-16.5 -10.5q-8 -6 -16.5 -10t-17.5 -7q-9 -2 -19.5 -3t-19.5 -1 q-15 0 -30 2.5t-30 7.5q-12 6 -24 14t-21 19q-22 22 -32 47q-7 14 -10 27.5t-3 30.5zM2707 459h29v172q2 -2 2 -3v-1q0 -4 2 -4q0 -4 2 -5l117 -159h23v205h-29v-160q0 5 -1 8t-3 6l-101 137q-4 4 -8 7q-2 0 -4.5 1t-7.5 1h-21v-205zM2750 -145q0 -9 2 -18.5t7 -18.5 q3 -9 8.5 -17t11.5 -14t14 -10.5t17 -9.5q15 -6 37 -7q18 0 37 7q8 5 15 9.5t15 10.5q6 6 11 14t10 17q6 18 6 37q0 18 -6 36q-5 9 -10 16t-11 15q-8 6 -15 10.5t-15 8.5q-16 8 -37 8q-24 0 -37 -8q-9 -4 -17 -8.5t-14 -10.5q-6 -8 -11.5 -14.5t-8.5 -16.5q-5 -9 -7 -18 t-2 -18zM2771 74v186h65q6 0 11 -1t10 -3q6 -3 9.5 -6t6.5 -6q9 -6 13 -17q2 -5 3 -10t1 -10v-9t-2 -10q-4 -9 -11 -16q-3 -6 -12 -12q-3 -2 -7.5 -3t-8.5 -3l61 -80h-12q-10 0 -14 2q-2 2 -4.5 3.5t-4.5 4.5l-51 70h-33v-80h-20zM2791 174h45q9 0 13 2q8 4 10 6q6 6 6 9 q2 4 3 7.5t1 8.5q0 4 -4 12q0 4 -6 10q-2 2 -10 7q-4 2 -13 2h-45v-64zM2929 166q0 6 1 12t3 12t3.5 12.5t6.5 12.5q2 5 5.5 9t7.5 9t9.5 8.5t10.5 6.5l11 5.5t11 4.5t12.5 3t12.5 1q8 0 14 -1t12 -3q11 -3 23 -10q12 -6 20 -15q5 -5 8.5 -9t6.5 -9l4 -12t4 -13 q3 -6 3.5 -12t0.5 -12q0 -9 -2 -19t-7 -18q-5 -18 -18 -31q-16 -14 -30 -20q-18 -6 -39 -6q-18 0 -37 6q-15 6 -30 20q-13 11 -19 31q-5 8 -6.5 18t-1.5 19zM2933 459h116v26h-90v179h-26v-205zM2949 166q0 -5 1 -9t1 -10q2 -6 4 -9.5t4 -8.5q3 -5 6.5 -8t6.5 -8 q6 -6 14 -11q5 -3 9 -4.5t9 -3.5t9.5 -2h9.5h10.5t9.5 2t9.5 3.5t9.5 4.5q5 2 8 5l6 6q5 5 7 8t5 8q6 8 9 18q2 5 2 9.5v9.5q0 16 -7 29q-3 8 -6.5 13.5t-9.5 10.5q-10 10 -22 17q-8 2 -15.5 3t-15.5 1q-6 0 -13.5 -1t-15.5 -3q-12 -6 -22 -17q-5 -5 -9.5 -10.5t-7.5 -13.5 q-6 -12 -6 -29zM3021 664l74 -101l1 -1q0 -1 0.5 -1.5t0.5 -1.5q2 -2 2 -3t2 -1v-5v-5v-86h28v86q0 2 1 3t1 2v2q0 1 2 3v1q0 1 2 3q0 4 5 4l71 101h-18q-10 0 -15 -5q-3 -2 -5.5 -5t-4.5 -5l-49 -65q-1 0 -2 -1v-1q0 -1 -0.5 -1.5t-0.5 -1.5l-1 -1v4v1l-2 1l-47 65 q-3 2 -5.5 5t-4.5 5q-5 2 -8.5 3.5t-8.5 1.5h-18zM3031 0h53q3 0 6.5 -1t6.5 -1q2 -2 4 -2t4 -2q3 -2 4.5 -4.5t3.5 -3.5q2 -2 3 -4t3 -5q9 -24 17.5 -45t17.5 -43q9 -24 18 -45t17 -43q2 -2 2 -6q0 -2 1 -3t1 -3v-7v-1l2 1v7q0 4 2 6v6l10 21l62 155q0 5 6 9q3 5 8 8 q2 2 5 2t5 2q2 0 4.5 1t5.5 1h54v-291h-54v213q-2 -3 -3 -6t-1 -8q-2 -5 -3 -8t-3 -6l-37 -93q-9 -24 -18 -46t-21 -46h-47l-75 185q-2 3 -3.5 6t-3.5 8q0 4 -4 12v-211h-53v291zM3160 74v186h16q4 0 9 -4q6 -3 6 -8l65 -144v-4q2 -2 2 -3v-1v4.5t2 5.5t2 5.5t1 5.5l61 131 q0 5 6 8q4 4 8 4h19v-186h-21v153h-2v-4v-2q0 -1 -1 -2h-1q-5 -11 -9 -21.5t-7 -19.5q-5 -11 -9.5 -19t-7.5 -19q-5 -8 -9 -16.5t-7 -17.5t-7 -16.5t-7 -15.5h-23q-8 17 -15 35t-16 36t-16.5 37t-15.5 37q-2 0 -2 4v4v-153h-21z" />
<glyph unicode="1" horiz-adv-x="3575" d="M125 166q0 6 1 12t3 12t4.5 12.5t5.5 12.5q3 5 6 9t9 9q8 8 20 15q11 7 23 10q6 2 12 3t12 1q11 0 20.5 -2.5t18.5 -5.5q8 -5 15.5 -9.5t13.5 -11.5q0 -2 -1 -2t-3 -2l-2 -2q-2 -2 -3 -2h-1h-7h-4t-4 2q-5 3 -9.5 6t-10.5 5q-5 2 -11 2h-12q-8 0 -15 -1t-15 -3 q-12 -7 -21 -17q-6 -5 -9.5 -10.5t-6.5 -13.5q-6 -12 -7 -29v-9t3 -10q2 -10 8 -18q3 -5 6 -8t6 -8q6 -6 14 -11q5 -3 9.5 -4.5t9.5 -3.5t9.5 -2h10.5h12.5t12.5 2t11 4.5l11 5.5v39h-14q-2 0 -4 1t-4 1q-2 2 -3 2t-3 3q0 2 -1 3t-1 3q-2 2 -2 6v2h51v-72q-3 -5 -6 -7t-9 -5 q-3 -2 -6 -3t-8 -1q-5 -2 -9 -3t-9 -1h-21h-12t-12 2q-11 3 -23 10q-12 6 -20 14q-9 9 -15 21q-7 10 -10 21q-2 7 -3 13.5t-1 12.5zM125 -274q0 4 1 7.5t1 6.5q2 3 2 6t2 6l6 12q4 3 8 11l129 174h-141v51h215v-25v-14q-2 -3 -3 -6t-3 -6l-145 -193q2 0 4 2q2 0 4 2h4h139 v-51h-223v17zM133 326v784h1223q0 81 30 154q32 73 84 125q54 51 125 81q71 31 150 31q87 0 156 -33q71 -34 122 -86q51 -54 82 -125t31 -147h1221v-784h-3224zM301 459h29v76h45q6 0 12 1t12 3q12 6 21 14q8 8 14 20q2 6 3 12.5t1 12.5q0 8 -1 14t-3 13q-3 5 -6 9t-8 9 t-9.5 8.5t-11.5 5.5q-12 6 -24 7h-74v-205zM330 561v74h45q3 0 6 -1t8 -3q3 0 5.5 -2t4.5 -4q4 -4 9 -13q2 -4 2 -14v-7t-2 -7q-4 -8 -9 -11q-4 -5 -10 -8q-5 -2 -8 -3t-6 -1h-45zM336 74v186h113v-22h-93v-60h74v-20h-74v-64h93v-20h-113zM385 0h186v-51h-133v-68h107v-51 h-107v-70h133v-51h-186v291zM459 459h127v26h-99v62h80v28h-80v60h99v29h-127v-205zM471 238v22h141v-22h-59v-164h-23v164h-59zM582 0h223v-51h-86v-240h-53v240h-84v51zM629 459h28v84h31l53 -72q3 -7 11 -10q2 -2 6.5 -2h9.5h18l-65 88q5 2 9 3t7 5q8 3 15 12q5 6 8 17 q2 5 2 9v8q0 8 -0.5 14t-3.5 12q-2 5 -5.5 9t-7.5 9q-9 9 -18 12q-12 6 -25 7h-73v-205zM657 571v64h45q4 0 13 -4q7 0 10 -6q3 -2 4.5 -4.5t3.5 -4.5q0 -3 1 -6.5t1 -8.5q0 -2 -1 -5t-1 -6q-2 -2 -3.5 -4.5t-4.5 -5.5q-2 -2 -10 -7q-4 -2 -13 -2h-45zM729 74v186h113v-22 h-92v-64h77v-20h-77v-80h-21zM760 -291l127 291h49l125 -291h-33q-11 0 -20 6q-5 3 -8.5 7.5t-6.5 8.5l-16 40h-131l-19 -40q0 -3 -4 -7q-2 -3 -4 -5l-4 -4q-3 -2 -5 -3t-5 -1q-3 -2 -5.5 -2h-4.5h-35zM795 496q2 -2 2 -3t2 -1q0 -2 1 -3.5t1 -3.5q4 -4 5 -6q4 -5 7 -5 q9 -10 20 -13.5t25 -3.5q8 0 14.5 0.5t14.5 3.5q11 3 20 13q12 10 17 20q6 12 6 24q0 29 -23 45q-2 2 -4 3t-4 3q-3 2 -5 2t-5 2q-2 2 -4 2t-6 3q-2 0 -11 4q-5 2 -9 3t-7 3q-5 2 -7 3t-5 3q-4 4 -6 7q-1 3 -1 11q0 6 1 11q2 2 3.5 4t4.5 4q2 0 10 4q4 2 12 2q3 0 5.5 -1 t4.5 -1q3 -2 7 -3t6 -3q8 -4 12 -4q8 0 14 6l7 4q-2 3 -5 5t-6 5t-6 5t-6 5q-3 2 -7 3t-9 4q-8 4 -17 4q-6 0 -11 -1t-11 -3t-11 -5l-10 -6q-3 -3 -6 -7t-6 -9q-6 -9 -6 -23q0 -8 1.5 -12.5t4.5 -9.5q3 -10 12 -17q7 -7 19 -10q5 -3 9.5 -5t10.5 -5q3 -2 6 -2.5t8 -1.5 q3 -2 7 -3t6 -3q3 -3 5.5 -5t4.5 -6q2 -3 3 -6t1 -8q0 -6 -4 -14q-3 -7 -10 -10q-2 -3 -5.5 -5t-7.5 -4q-5 0 -8 -1t-8 -1q-3 0 -7 1t-7 1q-8 4 -11 9l-4 2q-6 6 -16 6q-7 0 -10 -4zM868 -176h86l-39 88q-2 3 -2 5.5t-2 4.5v8q0 -4 -2 -8q0 -2 -1 -4.5t-1 -5.5zM879 145v115 h20v-115q0 -6 0.5 -10.5t3.5 -9.5q2 -6 4.5 -9.5t5.5 -9.5q5 -3 9 -5.5t10 -4.5q5 -3 9.5 -3.5t10.5 -0.5t11 0.5t10 3.5q11 4 16 10q5 5 7 9l5 10q2 5 3.5 9.5t1.5 10.5v115h20v-115q0 -16 -6 -28q-3 -8 -6 -14t-8 -11q-6 -5 -12.5 -9t-12.5 -7q-6 -2 -13 -3t-16 -1 q-8 0 -15 1t-13 3q-13 5 -25 16q-5 5 -9 11t-6 14q-4 6 -4.5 13t-0.5 15zM952 559q0 -9 1.5 -19.5t7.5 -19.5q5 -11 10.5 -18.5t11.5 -16.5q8 -6 16 -11.5t17 -8.5q19 -8 41 -8h14t14 2q6 3 12.5 5t12.5 7q10 5 23 14q3 5 7 11t7 12q5 6 7 12t5 12q2 8 2 14v13v15.5t-2 13.5 q-3 8 -5 14t-7 12q-3 5 -7 10.5t-7 10.5q-6 5 -11.5 8t-11.5 8q-6 3 -12 5.5t-13 5.5q-8 2 -14 3t-14 1q-6 0 -13.5 -1t-13.5 -3q-8 -2 -14 -5l-12 -6q-5 -5 -10.5 -8t-10.5 -8t-9 -10t-7 -11l-6 -12t-5 -14q-2 -6 -3 -13.5t-1 -15.5zM981 559q0 18 6 31q3 8 6.5 13.5 t10.5 10.5q5 6 10.5 10t13.5 7q13 6 29 6q15 0 30 -6q6 -3 12.5 -7t12.5 -10q11 -11 16 -24q6 -12 7 -31q0 -13 -7 -29q-3 -6 -7 -12t-9 -12q-6 -5 -12 -9t-13 -8q-15 -6 -30 -6t-29 6q-13 5 -24 17q-6 6 -10 12t-7 12q-6 15 -6 29zM1065 74v186h22v-166h82v-20h-104z M1073 0h187v-51h-134v-74h111v-51h-111v-115h-53v291zM1194 74v186h20v-166h82v-20h-102zM1200 459h29v172v-4q2 -2 2 -3v-1q0 -2 1 -3q0 -1 1 -2l117 -159h24v205h-28v-160q0 5 -1.5 8t-3.5 6l-100 137q-4 4 -8 7q-3 0 -6 1t-6 1h-21v-205zM1278 -145q0 9 0.5 19t3.5 20 q3 9 6 17.5t8 16.5q5 9 11 16t14 15q13 13 29 23q9 4 17 8.5t17 7.5q11 2 20.5 3t20.5 1t20.5 -1t18.5 -3q9 -3 18 -7.5l17 -8.5q9 -5 17 -11t14 -12q6 -8 11.5 -15t10.5 -16q5 -8 9 -16.5t6 -17.5q6 -18 6 -39q0 -20 -6 -39q-2 -9 -5.5 -18.5t-9.5 -18.5q-9 -15 -22 -29 q-6 -6 -14 -11.5t-17 -10.5q-8 -6 -16.5 -10t-18.5 -7q-9 -2 -18 -3t-21 -1q-15 0 -30 2.5t-27 7.5q-14 6 -26 14t-21 19q-22 22 -33 47q-6 14 -8 27.5t-2 30.5zM1329 -145q0 -9 2.5 -18.5t5.5 -18.5q10 -20 21 -31q6 -6 13.5 -10.5t17.5 -9.5q15 -6 36 -7q18 0 37 7 q7 5 15 9.5t16 10.5q6 6 10.5 14t9.5 17q6 18 7 37q0 18 -7 36q-5 9 -9.5 16t-10.5 15q-8 6 -16 10.5t-15 8.5q-16 8 -37 8q-24 0 -36 -8q-9 -4 -17 -8.5t-14 -10.5q-6 -8 -11 -14.5t-10 -16.5q-3 -9 -5.5 -18t-2.5 -18zM1386 260h11q3 0 5 -1t5 -3q2 -2 4 -3.5t2 -4.5 l62 -139q0 -2 1 -3.5t1 -3.5v-6v6q2 2 2 7q8 17 15 34.5t15 34.5q8 18 15.5 35t15.5 35q2 4 6 8q8 4 10 4h13q-11 -24 -21.5 -47.5t-19.5 -46.5q-11 -24 -20.5 -46.5t-20.5 -45.5h-21zM1386 1108q0 -71 29 -137q14 -33 32.5 -61.5t43.5 -53.5q46 -49 113 -78q65 -31 141 -30 q73 0 139 28q65 28 115 78q25 24 43.5 52t34.5 61q27 66 26 141q0 34 -4.5 64.5t-15.5 58.5q-9 27 -24 53t-34 49q-18 22 -38.5 40.5t-44.5 35.5q-25 14 -50.5 25.5t-52.5 19.5q-22 8 -44.5 11t-49.5 3q-76 0 -143 -30q-33 -14 -61 -34t-52 -44q-25 -25 -43.5 -53.5 t-32.5 -61.5q-12 -33 -19.5 -66.5t-7.5 -70.5zM1393 459h16q8 0 11 2q7 5 10 10l14 33h104l15 -33q4 -8 8 -10q2 -2 5.5 -2h6.5h16l-88 205h-28zM1423 1108q0 58 19 111q8 27 21.5 49.5t31.5 46.5h428l-420 -424q-20 24 -35 48.5t-24 51.5q-11 27 -16 56.5t-5 60.5z M1456 532l37 86q2 2 2 5q0 2 1 4t1 4q0 -10 2 -13l37 -86h-80zM1528 866h434q-24 -18 -48.5 -33.5t-51.5 -26.5q-27 -10 -56.5 -16t-60.5 -6q-32 0 -61 6t-56 16q-28 11 -52.5 26.5t-47.5 33.5zM1528 1350q22 20 46.5 35t50.5 26q54 20 120 21q31 0 60.5 -5t56.5 -16 q55 -25 98 -61h-432zM1565 901l422 426q80 -104 79 -219q0 -30 -4 -57t-14 -54q-9 -27 -22.5 -49.5t-30.5 -46.5h-430zM1583 74v186h115v-22h-92v-60h73v-20h-73v-64h92v-20h-115zM1612 0h47q8 0 16 -4t11 -9q15 -20 30.5 -42t30.5 -43q15 -22 30 -43t29 -41q6 -6 6 -13 q2 -3 2.5 -5.5t0.5 -4.5v205h53v-291h-49l-138 195q-4 4 -4 6q-2 4 -6 8q0 2 -4 6q0 2 -1 3t-1 3v-221h-53v291zM1620 459h117v26h-88v179h-29v-205zM1741 74v186h67q5 0 10.5 -1t10.5 -3q5 -3 9 -6t7 -6t6 -7.5t7 -9.5q2 -5 3 -10t1 -10t-1 -9t-3 -10q-2 -10 -9 -16 l-12 -12q-5 -2 -8 -3t-8 -3l59 -80h-12q-8 0 -11 2q-6 2 -10 8l-53 70h-31v-80h-22zM1763 174h45q8 0 13 2q3 2 5 3t5 3q2 3 3 5t3 4q2 4 3 7.5t1 8.5q0 4 -4 12q-2 3 -3 5t-3 5q-3 2 -5 3t-5 4q-4 2 -13 2h-45v-64zM1853 539q0 -6 0.5 -12t3.5 -11q1 -6 3 -10.5t4 -9.5 q3 -5 6 -9.5t8 -7.5q3 -3 7 -6t9 -6t10.5 -4.5t10.5 -3.5t10 -3t10 -1q6 0 12.5 1t11.5 3q12 3 19 8q5 3 8.5 6t8.5 6q3 3 6 7t6 10q5 7 8 20q2 5 3 10.5t1 12.5v125h-28v-125q0 -6 -1 -11.5t-3 -11.5q-3 -5 -5.5 -9t-7.5 -7q-3 -5 -7 -7.5t-8 -5.5q-7 -2 -12 -3t-12 -1 q-5 0 -10 1t-10 3q-5 3 -9 5.5t-8 7.5q-9 6 -12 16q-2 6 -3 11t-1 12v125h-29v-125zM1892 0h224v-51h-84v-240h-54v240h-86v51zM1896 104l5 2l1 2q1 0 1.5 0.5t1.5 0.5h4q8 0 12 -5q3 -5 7 -6.5t7 -3.5q5 -2 8.5 -2h8.5h6t8 2q6 0 12 6q7 3 11 11q4 10 4 14q0 9 -4 15 q-3 6 -9 10q-4 4 -12 8q-4 0 -14 4q-6 2 -11 4l-10 4q-9 3 -16 10q-3 2 -5.5 5.5t-3.5 5.5q-2 5 -3.5 10.5t-1.5 11.5q0 11 6 20q3 8 12 15q7 7 16 10q5 2 11 3t11 1q2 0 6 -1t7 -1q5 -2 8 -3t7 -3q3 -3 5.5 -4.5t4.5 -3.5l8 -8l-4 -5q-4 -4 -10 -4q-8 0 -11 2q-2 2 -3 2 t-3 3q-2 0 -2 1t-2 1t-3 1t-3 1h-5h-8t-7 -2q-3 0 -5.5 -1t-5.5 -4q-2 -3 -4 -5t-2 -5q-4 -4 -4 -10q0 -8 2 -10q2 -4 6 -8q5 -4 13 -7q3 -2 7 -3t9 -3q3 -2 5 -2t5 -2q4 0 8 -4q3 0 5.5 -1t5.5 -3q2 0 6 -4l8 -8t7 -8q1 -7 2 -12t1 -13q0 -6 -1 -11t-2 -12q-4 -5 -7 -9.5 t-8 -6.5q-7 -7 -21 -10q-5 -3 -10.5 -3.5t-11.5 -0.5q-27 0 -41 14q-2 2 -5 4.5t-5 5.5q-4 4 -5 8zM2048 496q0 -2 1 -3q0 -1 1 -1q2 -2 2 -3.5t2 -3.5q4 -4 4 -6q4 -5 8 -5q9 -10 20 -13.5t25 -3.5q8 0 14.5 0.5t11.5 3.5q15 3 24 13q11 10 16 20q3 6 3.5 12t0.5 12 q0 31 -20 45q-4 2 -9 6q-3 2 -5 2t-5 2q-4 2 -5.5 2t-4.5 3q-3 0 -5 1t-5 3q-5 2 -9.5 3t-7.5 3q-9 3 -12 6q-6 3 -6 7q-2 3 -2 11q0 6 2 11q2 2 3.5 4t4.5 4q2 0 10 4q4 2 13 2q3 0 5 -1t5 -1l12 -6q8 -4 12 -4q6 0 13 6l8 4q-2 3 -4.5 5t-5.5 5t-6.5 5t-6.5 5q-3 2 -7 3 t-9 4q-5 2 -8 3t-8 1q-6 0 -12 -1t-11 -3q-6 -2 -10.5 -5t-9.5 -6l-7 -7t-6 -9q-6 -9 -6 -23q0 -8 1.5 -12.5t3.5 -9.5q5 -11 14 -17q7 -7 16 -10q6 -3 11 -5t12 -5q3 -2 6 -2.5t8 -1.5l12 -6q3 -3 5.5 -5t4.5 -6q2 -3 3 -6t1 -8q0 -6 -4 -14q-3 -7 -10 -10q-5 -5 -14 -9 q-3 0 -7 -1t-8 -1q-5 0 -8 1t-6 1q-10 3 -12 9l-2 2q-6 6 -17 6q-8 0 -10 -4zM2054 74v186h23v-186h-23zM2120 166q0 6 1 12t3 12t3.5 12.5t4.5 12.5q4 5 7.5 9t8.5 9t9.5 8.5t9.5 6.5q10 7 21 10q7 2 13.5 3t14.5 1q6 0 12 -1t11 -3q12 -3 24 -10q12 -6 21 -15q5 -5 8 -9 t6 -9q3 -6 5.5 -12t4.5 -13q2 -6 2 -12v-12q0 -20 -6 -37q-8 -17 -20 -31q-16 -14 -31 -20q-20 -6 -37 -6q-23 0 -39 6q-17 6 -29 20q-6 6 -11.5 14t-8.5 17q-5 8 -6.5 18t-1.5 19zM2120 -229q2 0 6 4q4 0 8 4q2 0 4 1t4 1t4 0.5t4 0.5q6 0 13 -3q5 0 8 -1t6 -3q7 -7 16 -11 q5 -2 11 -3t12 -1h7t9 2q3 2 7.5 3.5t7.5 3.5q9 6 12 13q6 7 6 17q0 5 -1 8.5t-3 6.5q-3 3 -6 5.5t-6 4.5q-8 5 -17 8q-8 1 -18 8q-8 2 -15.5 4.5t-15.5 5.5t-14 7.5t-12 9.5q-10 10 -17 22q-8 13 -8 33q0 10 2.5 18.5t5.5 16.5q10 16 21 25q6 4 13 8.5t14 7.5q8 2 17 3 t17 1q6 0 12.5 -1t12.5 -3q13 -3 22 -11q6 -2 11 -6.5t10 -9.5q5 -3 8 -7t6 -9l-10 -8l-6 -4t-9 -4q-5 -2 -8 -3t-6 -1h-4h-4q-3 2 -5 3t-5 3q-2 2 -5 2t-4 2q-2 0 -3.5 1t-4.5 1q-2 2 -8 2h-6t-8 -2q-6 0 -10 -4q-3 -2 -6.5 -5t-4.5 -4q-2 -4 -2 -12t2 -10q1 -3 4 -5t7 -5 q3 -2 7 -3t9 -3t10.5 -4.5t13.5 -4.5l9 -4q9 -3 15.5 -6t14.5 -8q15 -8 23 -19q9 -9 12 -22q6 -12 6 -29q0 -11 -2.5 -19.5t-5.5 -17.5q-5 -9 -10.5 -16.5t-11.5 -14.5q-15 -11 -35 -18q-20 -6 -37 -6q-23 0 -41 6q-9 5 -17 10t-16 13q-5 5 -8 9t-6 9q-5 8 -8 17zM2140 166 q0 -5 1 -9t3 -10t3 -9.5t3 -8.5q3 -5 6.5 -8t6.5 -8q6 -6 14 -11q7 -5 18 -8q5 -2 10 -2h11h9t9 2q4 2 9 3.5t10 4.5q5 2 8 5l6 6q5 5 7 8t5 8q6 8 9 18q2 5 2 9.5v9.5q0 16 -6 29q-3 8 -7 13.5t-10 10.5q-10 10 -22 17q-6 2 -13.5 3t-15.5 1t-15.5 -1t-15.5 -3 q-12 -6 -22 -17q-5 -5 -9.5 -10.5t-7.5 -13.5q-6 -12 -6 -29zM2218 459h127v26h-100v62h79v28h-79v60h100v29h-127v-205zM2333 -262q0 3 1 6.5t1 5.5q4 8 7 10q4 6 11 7q8 4 12 4t13 -4q7 -1 10 -7q5 -3 5 -10q2 -2 3.5 -5.5t1.5 -6.5q0 -5 -5 -12q0 -5 -5 -11q-2 -2 -10 -6 q-4 -2 -13 -2q-8 0 -12 2q-8 4 -11 6q-2 3 -3.5 5t-3.5 6q0 3 -1 6t-1 6zM2345 74v186h14q13 0 17 -8l96 -135q2 -1 2 -2.5t2 -3.5v-5v154h23v-186h-21l-108 153l-3 2v2q0 2 -2 5v-162h-20zM2417 -145q0 20 6 39q2 9 5.5 17.5t8.5 16.5q5 9 11 16t12 15q8 6 14.5 11.5 t15.5 11.5l17 8.5t18 7.5q11 2 20.5 3t18.5 1t17 -0.5t16 -3.5q13 -3 31 -11q12 -5 26 -16q6 -5 12.5 -10.5t12.5 -11.5l-13 -14q-4 -3 -12 -7q-5 -2 -16 -2q-9 0 -19 6q-6 2 -12 6t-14 7q-6 2 -13.5 3t-15.5 1q-9 0 -18 -1.5t-17 -6.5q-9 -4 -16.5 -8.5t-13.5 -10.5 q-8 -8 -13 -14.5t-8 -16.5q-8 -16 -8 -36t8 -37q6 -19 21 -31q6 -6 13.5 -10.5t16.5 -9.5q15 -6 35 -7q8 0 15.5 1t13.5 3q14 3 26 13q2 2 4.5 2t4.5 2q3 1 5.5 1h4.5q8 0 16 -3q8 -4 12 -8l13 -11q-6 -6 -12.5 -11.5t-12.5 -10.5t-13 -9t-13 -8q-8 -5 -15.5 -6.5 t-15.5 -3.5q-8 -3 -16 -3.5t-17 -0.5q-14 0 -28.5 2.5t-28.5 7.5q-26 11 -47 33q-9 11 -17 22t-14 25q-12 28 -12 58zM2462 559q0 -9 1.5 -19.5t6.5 -19.5q3 -11 8.5 -18.5t11.5 -16.5q8 -6 17 -11.5t18 -8.5q16 -8 41 -8h13.5t13.5 2q8 3 14 5t12 7q5 3 10.5 6t10.5 8 q10 10 16 23q3 6 5.5 12t4.5 12l3.5 14t1.5 13q0 8 -1 15.5t-4 13.5q-2 8 -4.5 14t-5.5 12q-3 5 -7 10.5t-9 10.5t-10 8t-11 8q-6 3 -12 5.5t-14 5.5q-6 2 -13.5 3t-13.5 1q-8 0 -14.5 -1t-14.5 -3q-6 -2 -12 -5l-12 -6q-6 -5 -11 -8t-12 -8q-5 -5 -8 -10t-8 -11 q-3 -6 -5 -12t-5 -14q-2 -6 -2 -13.5v-15.5zM2488 559q0 18 6 31q3 8 7.5 13.5t9.5 10.5q6 6 12 10t12 7q8 3 15 4.5t16 1.5q16 0 29 -6q8 -3 13.5 -7t10.5 -10q6 -5 10 -10.5t7 -13.5q6 -12 6 -31q0 -13 -6 -29q-3 -6 -6.5 -12t-10.5 -12q-5 -5 -10.5 -9t-13.5 -8 q-12 -6 -29 -6q-9 0 -15.5 1.5t-15.5 4.5q-6 3 -12 7.5t-12 9.5q-5 6 -9 12l-8 12q-6 15 -6 29zM2634 74v186h114v-22h-94v-64h78v-20h-78v-80h-20zM2697 -145q0 20 6 39q3 9 6.5 17.5t8.5 16.5q5 9 10.5 16t13.5 15q13 13 29 23q9 4 17.5 8.5t17.5 7.5q11 2 20 3t21 1 q9 0 19 -1t20 -3q9 -3 17.5 -7.5t16.5 -8.5q9 -5 16 -11t15 -12q6 -8 12 -15t11 -16q5 -8 8.5 -16.5t5.5 -17.5q6 -18 6 -39q0 -20 -6 -39q-2 -9 -5.5 -18.5t-8.5 -18.5q-9 -15 -23 -29q-8 -6 -14.5 -11.5t-16.5 -10.5q-8 -6 -16.5 -10t-17.5 -7q-9 -2 -19.5 -3t-19.5 -1 q-15 0 -30 2.5t-30 7.5q-12 6 -24 14t-21 19q-22 22 -32 47q-7 14 -10 27.5t-3 30.5zM2707 459h29v172q2 -2 2 -3v-1q0 -4 2 -4q0 -4 2 -5l117 -159h23v205h-29v-160q0 5 -1 8t-3 6l-101 137q-4 4 -8 7q-2 0 -4.5 1t-7.5 1h-21v-205zM2750 -145q0 -9 2 -18.5t7 -18.5 q3 -9 8.5 -17t11.5 -14t14 -10.5t17 -9.5q15 -6 37 -7q18 0 37 7q8 5 15 9.5t15 10.5q6 6 11 14t10 17q6 18 6 37q0 18 -6 36q-5 9 -10 16t-11 15q-8 6 -15 10.5t-15 8.5q-16 8 -37 8q-24 0 -37 -8q-9 -4 -17 -8.5t-14 -10.5q-6 -8 -11.5 -14.5t-8.5 -16.5q-5 -9 -7 -18 t-2 -18zM2771 74v186h65q6 0 11 -1t10 -3q6 -3 9.5 -6t6.5 -6q9 -6 13 -17q2 -5 3 -10t1 -10v-9t-2 -10q-4 -9 -11 -16q-3 -6 -12 -12q-3 -2 -7.5 -3t-8.5 -3l61 -80h-12q-10 0 -14 2q-2 2 -4.5 3.5t-4.5 4.5l-51 70h-33v-80h-20zM2791 174h45q9 0 13 2q8 4 10 6q6 6 6 9 q2 4 3 7.5t1 8.5q0 4 -4 12q0 4 -6 10q-2 2 -10 7q-4 2 -13 2h-45v-64zM2929 166q0 6 1 12t3 12t3.5 12.5t6.5 12.5q2 5 5.5 9t7.5 9t9.5 8.5t10.5 6.5l11 5.5t11 4.5t12.5 3t12.5 1q8 0 14 -1t12 -3q11 -3 23 -10q12 -6 20 -15q5 -5 8.5 -9t6.5 -9l4 -12t4 -13 q3 -6 3.5 -12t0.5 -12q0 -9 -2 -19t-7 -18q-5 -18 -18 -31q-16 -14 -30 -20q-18 -6 -39 -6q-18 0 -37 6q-15 6 -30 20q-13 11 -19 31q-5 8 -6.5 18t-1.5 19zM2933 459h116v26h-90v179h-26v-205zM2949 166q0 -5 1 -9t1 -10q2 -6 4 -9.5t4 -8.5q3 -5 6.5 -8t6.5 -8 q6 -6 14 -11q5 -3 9 -4.5t9 -3.5t9.5 -2h9.5h10.5t9.5 2t9.5 3.5t9.5 4.5q5 2 8 5l6 6q5 5 7 8t5 8q6 8 9 18q2 5 2 9.5v9.5q0 16 -7 29q-3 8 -6.5 13.5t-9.5 10.5q-10 10 -22 17q-8 2 -15.5 3t-15.5 1q-6 0 -13.5 -1t-15.5 -3q-12 -6 -22 -17q-5 -5 -9.5 -10.5t-7.5 -13.5 q-6 -12 -6 -29zM3021 664l74 -101l1 -1q0 -1 0.5 -1.5t0.5 -1.5q2 -2 2 -3t2 -1v-5v-5v-86h28v86q0 2 1 3t1 2v2q0 1 2 3v1q0 1 2 3q0 4 5 4l71 101h-18q-10 0 -15 -5q-3 -2 -5.5 -5t-4.5 -5l-49 -65q-1 0 -2 -1v-1q0 -1 -0.5 -1.5t-0.5 -1.5l-1 -1v4v1l-2 1l-47 65 q-3 2 -5.5 5t-4.5 5q-5 2 -8.5 3.5t-8.5 1.5h-18zM3031 0h53q3 0 6.5 -1t6.5 -1q2 -2 4 -2t4 -2q3 -2 4.5 -4.5t3.5 -3.5q2 -2 3 -4t3 -5q9 -24 17.5 -45t17.5 -43q9 -24 18 -45t17 -43q2 -2 2 -6q0 -2 1 -3t1 -3v-7v-1l2 1v7q0 4 2 6v6l10 21l62 155q0 5 6 9q3 5 8 8 q2 2 5 2t5 2q2 0 4.5 1t5.5 1h54v-291h-54v213q-2 -3 -3 -6t-1 -8q-2 -5 -3 -8t-3 -6l-37 -93q-9 -24 -18 -46t-21 -46h-47l-75 185q-2 3 -3.5 6t-3.5 8q0 4 -4 12v-211h-53v291zM3160 74v186h16q4 0 9 -4q6 -3 6 -8l65 -144v-4q2 -2 2 -3v-1v4.5t2 5.5t2 5.5t1 5.5l61 131 q0 5 6 8q4 4 8 4h19v-186h-21v153h-2v-4v-2q0 -1 -1 -2h-1q-5 -11 -9 -21.5t-7 -19.5q-5 -11 -9.5 -19t-7.5 -19q-5 -8 -9 -16.5t-7 -17.5t-7 -16.5t-7 -15.5h-23q-8 17 -15 35t-16 36t-16.5 37t-15.5 37q-2 0 -2 4v4v-153h-21z" />
<glyph unicode="2" horiz-adv-x="3575" d="M125 166q0 6 1 12t3 12t4.5 12.5t5.5 12.5q3 5 6 9t9 9q8 8 20 15q11 7 23 10q6 2 12 3t12 1q11 0 20.5 -2.5t18.5 -5.5q8 -5 15.5 -9.5t13.5 -11.5q0 -2 -1 -2t-3 -2l-2 -2q-2 -2 -3 -2h-1h-7h-4t-4 2q-5 3 -9.5 6t-10.5 5q-5 2 -11 2h-12q-8 0 -15 -1t-15 -3 q-12 -7 -21 -17q-6 -5 -9.5 -10.5t-6.5 -13.5q-6 -12 -7 -29v-9t3 -10q2 -10 8 -18q3 -5 6 -8t6 -8q6 -6 14 -11q5 -3 9.5 -4.5t9.5 -3.5t9.5 -2h10.5h12.5t12.5 2t11 4.5l11 5.5v39h-14q-2 0 -4 1t-4 1q-2 2 -3 2t-3 3q0 2 -1 3t-1 3q-2 2 -2 6v2h51v-72q-3 -5 -6 -7t-9 -5 q-3 -2 -6 -3t-8 -1q-5 -2 -9 -3t-9 -1h-21h-12t-12 2q-11 3 -23 10q-12 6 -20 14q-9 9 -15 21q-7 10 -10 21q-2 7 -3 13.5t-1 12.5zM125 -274q0 4 1 7.5t1 6.5q2 3 2 6t2 6l6 12q4 3 8 11l129 174h-141v51h215v-25v-14q-2 -3 -3 -6t-3 -6l-145 -193q2 0 4 2q2 0 4 2h4h139 v-51h-223v17zM133 326v784h1223q0 81 30 154q32 73 84 125q54 51 125 81q71 31 150 31q87 0 156 -33q71 -34 122 -86q51 -54 82 -125t31 -147h1221v-784h-3224zM301 459h29v76h45q6 0 12 1t12 3q12 6 21 14q8 8 14 20q2 6 3 12.5t1 12.5q0 8 -1 14t-3 13q-3 5 -6 9t-8 9 t-9.5 8.5t-11.5 5.5q-12 6 -24 7h-74v-205zM330 561v74h45q3 0 6 -1t8 -3q3 0 5.5 -2t4.5 -4q4 -4 9 -13q2 -4 2 -14v-7t-2 -7q-4 -8 -9 -11q-4 -5 -10 -8q-5 -2 -8 -3t-6 -1h-45zM336 74v186h113v-22h-93v-60h74v-20h-74v-64h93v-20h-113zM385 0h186v-51h-133v-68h107v-51 h-107v-70h133v-51h-186v291zM459 459h127v26h-99v62h80v28h-80v60h99v29h-127v-205zM471 238v22h141v-22h-59v-164h-23v164h-59zM582 0h223v-51h-86v-240h-53v240h-84v51zM629 459h28v84h31l53 -72q3 -7 11 -10q2 -2 6.5 -2h9.5h18l-65 88q5 2 9 3t7 5q8 3 15 12q5 6 8 17 q2 5 2 9v8q0 8 -0.5 14t-3.5 12q-2 5 -5.5 9t-7.5 9q-9 9 -18 12q-12 6 -25 7h-73v-205zM657 571v64h45q4 0 13 -4q7 0 10 -6q3 -2 4.5 -4.5t3.5 -4.5q0 -3 1 -6.5t1 -8.5q0 -2 -1 -5t-1 -6q-2 -2 -3.5 -4.5t-4.5 -5.5q-2 -2 -10 -7q-4 -2 -13 -2h-45zM729 74v186h113v-22 h-92v-64h77v-20h-77v-80h-21zM760 -291l127 291h49l125 -291h-33q-11 0 -20 6q-5 3 -8.5 7.5t-6.5 8.5l-16 40h-131l-19 -40q0 -3 -4 -7q-2 -3 -4 -5l-4 -4q-3 -2 -5 -3t-5 -1q-3 -2 -5.5 -2h-4.5h-35zM795 496q2 -2 2 -3t2 -1q0 -2 1 -3.5t1 -3.5q4 -4 5 -6q4 -5 7 -5 q9 -10 20 -13.5t25 -3.5q8 0 14.5 0.5t14.5 3.5q11 3 20 13q12 10 17 20q6 12 6 24q0 29 -23 45q-2 2 -4 3t-4 3q-3 2 -5 2t-5 2q-2 2 -4 2t-6 3q-2 0 -11 4q-5 2 -9 3t-7 3q-5 2 -7 3t-5 3q-4 4 -6 7q-1 3 -1 11q0 6 1 11q2 2 3.5 4t4.5 4q2 0 10 4q4 2 12 2q3 0 5.5 -1 t4.5 -1q3 -2 7 -3t6 -3q8 -4 12 -4q8 0 14 6l7 4q-2 3 -5 5t-6 5t-6 5t-6 5q-3 2 -7 3t-9 4q-8 4 -17 4q-6 0 -11 -1t-11 -3t-11 -5l-10 -6q-3 -3 -6 -7t-6 -9q-6 -9 -6 -23q0 -8 1.5 -12.5t4.5 -9.5q3 -10 12 -17q7 -7 19 -10q5 -3 9.5 -5t10.5 -5q3 -2 6 -2.5t8 -1.5 q3 -2 7 -3t6 -3q3 -3 5.5 -5t4.5 -6q2 -3 3 -6t1 -8q0 -6 -4 -14q-3 -7 -10 -10q-2 -3 -5.5 -5t-7.5 -4q-5 0 -8 -1t-8 -1q-3 0 -7 1t-7 1q-8 4 -11 9l-4 2q-6 6 -16 6q-7 0 -10 -4zM868 -176h86l-39 88q-2 3 -2 5.5t-2 4.5v8q0 -4 -2 -8q0 -2 -1 -4.5t-1 -5.5zM879 145v115 h20v-115q0 -6 0.5 -10.5t3.5 -9.5q2 -6 4.5 -9.5t5.5 -9.5q5 -3 9 -5.5t10 -4.5q5 -3 9.5 -3.5t10.5 -0.5t11 0.5t10 3.5q11 4 16 10q5 5 7 9l5 10q2 5 3.5 9.5t1.5 10.5v115h20v-115q0 -16 -6 -28q-3 -8 -6 -14t-8 -11q-6 -5 -12.5 -9t-12.5 -7q-6 -2 -13 -3t-16 -1 q-8 0 -15 1t-13 3q-13 5 -25 16q-5 5 -9 11t-6 14q-4 6 -4.5 13t-0.5 15zM952 559q0 -9 1.5 -19.5t7.5 -19.5q5 -11 10.5 -18.5t11.5 -16.5q8 -6 16 -11.5t17 -8.5q19 -8 41 -8h14t14 2q6 3 12.5 5t12.5 7q10 5 23 14q3 5 7 11t7 12q5 6 7 12t5 12q2 8 2 14v13v15.5t-2 13.5 q-3 8 -5 14t-7 12q-3 5 -7 10.5t-7 10.5q-6 5 -11.5 8t-11.5 8q-6 3 -12 5.5t-13 5.5q-8 2 -14 3t-14 1q-6 0 -13.5 -1t-13.5 -3q-8 -2 -14 -5l-12 -6q-5 -5 -10.5 -8t-10.5 -8t-9 -10t-7 -11l-6 -12t-5 -14q-2 -6 -3 -13.5t-1 -15.5zM981 559q0 18 6 31q3 8 6.5 13.5 t10.5 10.5q5 6 10.5 10t13.5 7q13 6 29 6q15 0 30 -6q6 -3 12.5 -7t12.5 -10q11 -11 16 -24q6 -12 7 -31q0 -13 -7 -29q-3 -6 -7 -12t-9 -12q-6 -5 -12 -9t-13 -8q-15 -6 -30 -6t-29 6q-13 5 -24 17q-6 6 -10 12t-7 12q-6 15 -6 29zM1065 74v186h22v-166h82v-20h-104z M1073 0h187v-51h-134v-74h111v-51h-111v-115h-53v291zM1194 74v186h20v-166h82v-20h-102zM1200 459h29v172v-4q2 -2 2 -3v-1q0 -2 1 -3q0 -1 1 -2l117 -159h24v205h-28v-160q0 5 -1.5 8t-3.5 6l-100 137q-4 4 -8 7q-3 0 -6 1t-6 1h-21v-205zM1278 -145q0 9 0.5 19t3.5 20 q3 9 6 17.5t8 16.5q5 9 11 16t14 15q13 13 29 23q9 4 17 8.5t17 7.5q11 2 20.5 3t20.5 1t20.5 -1t18.5 -3q9 -3 18 -7.5l17 -8.5q9 -5 17 -11t14 -12q6 -8 11.5 -15t10.5 -16q5 -8 9 -16.5t6 -17.5q6 -18 6 -39q0 -20 -6 -39q-2 -9 -5.5 -18.5t-9.5 -18.5q-9 -15 -22 -29 q-6 -6 -14 -11.5t-17 -10.5q-8 -6 -16.5 -10t-18.5 -7q-9 -2 -18 -3t-21 -1q-15 0 -30 2.5t-27 7.5q-14 6 -26 14t-21 19q-22 22 -33 47q-6 14 -8 27.5t-2 30.5zM1329 -145q0 -9 2.5 -18.5t5.5 -18.5q10 -20 21 -31q6 -6 13.5 -10.5t17.5 -9.5q15 -6 36 -7q18 0 37 7 q7 5 15 9.5t16 10.5q6 6 10.5 14t9.5 17q6 18 7 37q0 18 -7 36q-5 9 -9.5 16t-10.5 15q-8 6 -16 10.5t-15 8.5q-16 8 -37 8q-24 0 -36 -8q-9 -4 -17 -8.5t-14 -10.5q-6 -8 -11 -14.5t-10 -16.5q-3 -9 -5.5 -18t-2.5 -18zM1386 260h11q3 0 5 -1t5 -3q2 -2 4 -3.5t2 -4.5 l62 -139q0 -2 1 -3.5t1 -3.5v-6v6q2 2 2 7q8 17 15 34.5t15 34.5q8 18 15.5 35t15.5 35q2 4 6 8q8 4 10 4h13q-11 -24 -21.5 -47.5t-19.5 -46.5q-11 -24 -20.5 -46.5t-20.5 -45.5h-21zM1386 1108q0 -71 29 -137q14 -33 32.5 -61.5t43.5 -53.5q46 -49 113 -78q65 -31 141 -30 q73 0 139 28q65 28 115 78q25 24 43.5 52t34.5 61q27 66 26 141q0 34 -4.5 64.5t-15.5 58.5q-9 27 -24 53t-34 49q-18 22 -38.5 40.5t-44.5 35.5q-25 14 -50.5 25.5t-52.5 19.5q-22 8 -44.5 11t-49.5 3q-76 0 -143 -30q-33 -14 -61 -34t-52 -44q-25 -25 -43.5 -53.5 t-32.5 -61.5q-12 -33 -19.5 -66.5t-7.5 -70.5zM1393 459h16q8 0 11 2q7 5 10 10l14 33h104l15 -33q4 -8 8 -10q2 -2 5.5 -2h6.5h16l-88 205h-28zM1423 1108q0 58 19 111q8 27 21.5 49.5t31.5 46.5h428l-420 -424q-20 24 -35 48.5t-24 51.5q-11 27 -16 56.5t-5 60.5z M1456 532l37 86q2 2 2 5q0 2 1 4t1 4q0 -10 2 -13l37 -86h-80zM1528 866h434q-24 -18 -48.5 -33.5t-51.5 -26.5q-27 -10 -56.5 -16t-60.5 -6q-32 0 -61 6t-56 16q-28 11 -52.5 26.5t-47.5 33.5zM1528 1350q22 20 46.5 35t50.5 26q54 20 120 21q31 0 60.5 -5t56.5 -16 q55 -25 98 -61h-432zM1565 901l422 426q80 -104 79 -219q0 -30 -4 -57t-14 -54q-9 -27 -22.5 -49.5t-30.5 -46.5h-430zM1583 74v186h115v-22h-92v-60h73v-20h-73v-64h92v-20h-115zM1612 0h47q8 0 16 -4t11 -9q15 -20 30.5 -42t30.5 -43q15 -22 30 -43t29 -41q6 -6 6 -13 q2 -3 2.5 -5.5t0.5 -4.5v205h53v-291h-49l-138 195q-4 4 -4 6q-2 4 -6 8q0 2 -4 6q0 2 -1 3t-1 3v-221h-53v291zM1620 459h117v26h-88v179h-29v-205zM1741 74v186h67q5 0 10.5 -1t10.5 -3q5 -3 9 -6t7 -6t6 -7.5t7 -9.5q2 -5 3 -10t1 -10t-1 -9t-3 -10q-2 -10 -9 -16 l-12 -12q-5 -2 -8 -3t-8 -3l59 -80h-12q-8 0 -11 2q-6 2 -10 8l-53 70h-31v-80h-22zM1763 174h45q8 0 13 2q3 2 5 3t5 3q2 3 3 5t3 4q2 4 3 7.5t1 8.5q0 4 -4 12q-2 3 -3 5t-3 5q-3 2 -5 3t-5 4q-4 2 -13 2h-45v-64zM1853 539q0 -6 0.5 -12t3.5 -11q1 -6 3 -10.5t4 -9.5 q3 -5 6 -9.5t8 -7.5q3 -3 7 -6t9 -6t10.5 -4.5t10.5 -3.5t10 -3t10 -1q6 0 12.5 1t11.5 3q12 3 19 8q5 3 8.5 6t8.5 6q3 3 6 7t6 10q5 7 8 20q2 5 3 10.5t1 12.5v125h-28v-125q0 -6 -1 -11.5t-3 -11.5q-3 -5 -5.5 -9t-7.5 -7q-3 -5 -7 -7.5t-8 -5.5q-7 -2 -12 -3t-12 -1 q-5 0 -10 1t-10 3q-5 3 -9 5.5t-8 7.5q-9 6 -12 16q-2 6 -3 11t-1 12v125h-29v-125zM1892 0h224v-51h-84v-240h-54v240h-86v51zM1896 104l5 2l1 2q1 0 1.5 0.5t1.5 0.5h4q8 0 12 -5q3 -5 7 -6.5t7 -3.5q5 -2 8.5 -2h8.5h6t8 2q6 0 12 6q7 3 11 11q4 10 4 14q0 9 -4 15 q-3 6 -9 10q-4 4 -12 8q-4 0 -14 4q-6 2 -11 4l-10 4q-9 3 -16 10q-3 2 -5.5 5.5t-3.5 5.5q-2 5 -3.5 10.5t-1.5 11.5q0 11 6 20q3 8 12 15q7 7 16 10q5 2 11 3t11 1q2 0 6 -1t7 -1q5 -2 8 -3t7 -3q3 -3 5.5 -4.5t4.5 -3.5l8 -8l-4 -5q-4 -4 -10 -4q-8 0 -11 2q-2 2 -3 2 t-3 3q-2 0 -2 1t-2 1t-3 1t-3 1h-5h-8t-7 -2q-3 0 -5.5 -1t-5.5 -4q-2 -3 -4 -5t-2 -5q-4 -4 -4 -10q0 -8 2 -10q2 -4 6 -8q5 -4 13 -7q3 -2 7 -3t9 -3q3 -2 5 -2t5 -2q4 0 8 -4q3 0 5.5 -1t5.5 -3q2 0 6 -4l8 -8t7 -8q1 -7 2 -12t1 -13q0 -6 -1 -11t-2 -12q-4 -5 -7 -9.5 t-8 -6.5q-7 -7 -21 -10q-5 -3 -10.5 -3.5t-11.5 -0.5q-27 0 -41 14q-2 2 -5 4.5t-5 5.5q-4 4 -5 8zM2048 496q0 -2 1 -3q0 -1 1 -1q2 -2 2 -3.5t2 -3.5q4 -4 4 -6q4 -5 8 -5q9 -10 20 -13.5t25 -3.5q8 0 14.5 0.5t11.5 3.5q15 3 24 13q11 10 16 20q3 6 3.5 12t0.5 12 q0 31 -20 45q-4 2 -9 6q-3 2 -5 2t-5 2q-4 2 -5.5 2t-4.5 3q-3 0 -5 1t-5 3q-5 2 -9.5 3t-7.5 3q-9 3 -12 6q-6 3 -6 7q-2 3 -2 11q0 6 2 11q2 2 3.5 4t4.5 4q2 0 10 4q4 2 13 2q3 0 5 -1t5 -1l12 -6q8 -4 12 -4q6 0 13 6l8 4q-2 3 -4.5 5t-5.5 5t-6.5 5t-6.5 5q-3 2 -7 3 t-9 4q-5 2 -8 3t-8 1q-6 0 -12 -1t-11 -3q-6 -2 -10.5 -5t-9.5 -6l-7 -7t-6 -9q-6 -9 -6 -23q0 -8 1.5 -12.5t3.5 -9.5q5 -11 14 -17q7 -7 16 -10q6 -3 11 -5t12 -5q3 -2 6 -2.5t8 -1.5l12 -6q3 -3 5.5 -5t4.5 -6q2 -3 3 -6t1 -8q0 -6 -4 -14q-3 -7 -10 -10q-5 -5 -14 -9 q-3 0 -7 -1t-8 -1q-5 0 -8 1t-6 1q-10 3 -12 9l-2 2q-6 6 -17 6q-8 0 -10 -4zM2054 74v186h23v-186h-23zM2120 166q0 6 1 12t3 12t3.5 12.5t4.5 12.5q4 5 7.5 9t8.5 9t9.5 8.5t9.5 6.5q10 7 21 10q7 2 13.5 3t14.5 1q6 0 12 -1t11 -3q12 -3 24 -10q12 -6 21 -15q5 -5 8 -9 t6 -9q3 -6 5.5 -12t4.5 -13q2 -6 2 -12v-12q0 -20 -6 -37q-8 -17 -20 -31q-16 -14 -31 -20q-20 -6 -37 -6q-23 0 -39 6q-17 6 -29 20q-6 6 -11.5 14t-8.5 17q-5 8 -6.5 18t-1.5 19zM2120 -229q2 0 6 4q4 0 8 4q2 0 4 1t4 1t4 0.5t4 0.5q6 0 13 -3q5 0 8 -1t6 -3q7 -7 16 -11 q5 -2 11 -3t12 -1h7t9 2q3 2 7.5 3.5t7.5 3.5q9 6 12 13q6 7 6 17q0 5 -1 8.5t-3 6.5q-3 3 -6 5.5t-6 4.5q-8 5 -17 8q-8 1 -18 8q-8 2 -15.5 4.5t-15.5 5.5t-14 7.5t-12 9.5q-10 10 -17 22q-8 13 -8 33q0 10 2.5 18.5t5.5 16.5q10 16 21 25q6 4 13 8.5t14 7.5q8 2 17 3 t17 1q6 0 12.5 -1t12.5 -3q13 -3 22 -11q6 -2 11 -6.5t10 -9.5q5 -3 8 -7t6 -9l-10 -8l-6 -4t-9 -4q-5 -2 -8 -3t-6 -1h-4h-4q-3 2 -5 3t-5 3q-2 2 -5 2t-4 2q-2 0 -3.5 1t-4.5 1q-2 2 -8 2h-6t-8 -2q-6 0 -10 -4q-3 -2 -6.5 -5t-4.5 -4q-2 -4 -2 -12t2 -10q1 -3 4 -5t7 -5 q3 -2 7 -3t9 -3t10.5 -4.5t13.5 -4.5l9 -4q9 -3 15.5 -6t14.5 -8q15 -8 23 -19q9 -9 12 -22q6 -12 6 -29q0 -11 -2.5 -19.5t-5.5 -17.5q-5 -9 -10.5 -16.5t-11.5 -14.5q-15 -11 -35 -18q-20 -6 -37 -6q-23 0 -41 6q-9 5 -17 10t-16 13q-5 5 -8 9t-6 9q-5 8 -8 17zM2140 166 q0 -5 1 -9t3 -10t3 -9.5t3 -8.5q3 -5 6.5 -8t6.5 -8q6 -6 14 -11q7 -5 18 -8q5 -2 10 -2h11h9t9 2q4 2 9 3.5t10 4.5q5 2 8 5l6 6q5 5 7 8t5 8q6 8 9 18q2 5 2 9.5v9.5q0 16 -6 29q-3 8 -7 13.5t-10 10.5q-10 10 -22 17q-6 2 -13.5 3t-15.5 1t-15.5 -1t-15.5 -3 q-12 -6 -22 -17q-5 -5 -9.5 -10.5t-7.5 -13.5q-6 -12 -6 -29zM2218 459h127v26h-100v62h79v28h-79v60h100v29h-127v-205zM2333 -262q0 3 1 6.5t1 5.5q4 8 7 10q4 6 11 7q8 4 12 4t13 -4q7 -1 10 -7q5 -3 5 -10q2 -2 3.5 -5.5t1.5 -6.5q0 -5 -5 -12q0 -5 -5 -11q-2 -2 -10 -6 q-4 -2 -13 -2q-8 0 -12 2q-8 4 -11 6q-2 3 -3.5 5t-3.5 6q0 3 -1 6t-1 6zM2345 74v186h14q13 0 17 -8l96 -135q2 -1 2 -2.5t2 -3.5v-5v154h23v-186h-21l-108 153l-3 2v2q0 2 -2 5v-162h-20zM2417 -145q0 20 6 39q2 9 5.5 17.5t8.5 16.5q5 9 11 16t12 15q8 6 14.5 11.5 t15.5 11.5l17 8.5t18 7.5q11 2 20.5 3t18.5 1t17 -0.5t16 -3.5q13 -3 31 -11q12 -5 26 -16q6 -5 12.5 -10.5t12.5 -11.5l-13 -14q-4 -3 -12 -7q-5 -2 -16 -2q-9 0 -19 6q-6 2 -12 6t-14 7q-6 2 -13.5 3t-15.5 1q-9 0 -18 -1.5t-17 -6.5q-9 -4 -16.5 -8.5t-13.5 -10.5 q-8 -8 -13 -14.5t-8 -16.5q-8 -16 -8 -36t8 -37q6 -19 21 -31q6 -6 13.5 -10.5t16.5 -9.5q15 -6 35 -7q8 0 15.5 1t13.5 3q14 3 26 13q2 2 4.5 2t4.5 2q3 1 5.5 1h4.5q8 0 16 -3q8 -4 12 -8l13 -11q-6 -6 -12.5 -11.5t-12.5 -10.5t-13 -9t-13 -8q-8 -5 -15.5 -6.5 t-15.5 -3.5q-8 -3 -16 -3.5t-17 -0.5q-14 0 -28.5 2.5t-28.5 7.5q-26 11 -47 33q-9 11 -17 22t-14 25q-12 28 -12 58zM2462 559q0 -9 1.5 -19.5t6.5 -19.5q3 -11 8.5 -18.5t11.5 -16.5q8 -6 17 -11.5t18 -8.5q16 -8 41 -8h13.5t13.5 2q8 3 14 5t12 7q5 3 10.5 6t10.5 8 q10 10 16 23q3 6 5.5 12t4.5 12l3.5 14t1.5 13q0 8 -1 15.5t-4 13.5q-2 8 -4.5 14t-5.5 12q-3 5 -7 10.5t-9 10.5t-10 8t-11 8q-6 3 -12 5.5t-14 5.5q-6 2 -13.5 3t-13.5 1q-8 0 -14.5 -1t-14.5 -3q-6 -2 -12 -5l-12 -6q-6 -5 -11 -8t-12 -8q-5 -5 -8 -10t-8 -11 q-3 -6 -5 -12t-5 -14q-2 -6 -2 -13.5v-15.5zM2488 559q0 18 6 31q3 8 7.5 13.5t9.5 10.5q6 6 12 10t12 7q8 3 15 4.5t16 1.5q16 0 29 -6q8 -3 13.5 -7t10.5 -10q6 -5 10 -10.5t7 -13.5q6 -12 6 -31q0 -13 -6 -29q-3 -6 -6.5 -12t-10.5 -12q-5 -5 -10.5 -9t-13.5 -8 q-12 -6 -29 -6q-9 0 -15.5 1.5t-15.5 4.5q-6 3 -12 7.5t-12 9.5q-5 6 -9 12l-8 12q-6 15 -6 29zM2634 74v186h114v-22h-94v-64h78v-20h-78v-80h-20zM2697 -145q0 20 6 39q3 9 6.5 17.5t8.5 16.5q5 9 10.5 16t13.5 15q13 13 29 23q9 4 17.5 8.5t17.5 7.5q11 2 20 3t21 1 q9 0 19 -1t20 -3q9 -3 17.5 -7.5t16.5 -8.5q9 -5 16 -11t15 -12q6 -8 12 -15t11 -16q5 -8 8.5 -16.5t5.5 -17.5q6 -18 6 -39q0 -20 -6 -39q-2 -9 -5.5 -18.5t-8.5 -18.5q-9 -15 -23 -29q-8 -6 -14.5 -11.5t-16.5 -10.5q-8 -6 -16.5 -10t-17.5 -7q-9 -2 -19.5 -3t-19.5 -1 q-15 0 -30 2.5t-30 7.5q-12 6 -24 14t-21 19q-22 22 -32 47q-7 14 -10 27.5t-3 30.5zM2707 459h29v172q2 -2 2 -3v-1q0 -4 2 -4q0 -4 2 -5l117 -159h23v205h-29v-160q0 5 -1 8t-3 6l-101 137q-4 4 -8 7q-2 0 -4.5 1t-7.5 1h-21v-205zM2750 -145q0 -9 2 -18.5t7 -18.5 q3 -9 8.5 -17t11.5 -14t14 -10.5t17 -9.5q15 -6 37 -7q18 0 37 7q8 5 15 9.5t15 10.5q6 6 11 14t10 17q6 18 6 37q0 18 -6 36q-5 9 -10 16t-11 15q-8 6 -15 10.5t-15 8.5q-16 8 -37 8q-24 0 -37 -8q-9 -4 -17 -8.5t-14 -10.5q-6 -8 -11.5 -14.5t-8.5 -16.5q-5 -9 -7 -18 t-2 -18zM2771 74v186h65q6 0 11 -1t10 -3q6 -3 9.5 -6t6.5 -6q9 -6 13 -17q2 -5 3 -10t1 -10v-9t-2 -10q-4 -9 -11 -16q-3 -6 -12 -12q-3 -2 -7.5 -3t-8.5 -3l61 -80h-12q-10 0 -14 2q-2 2 -4.5 3.5t-4.5 4.5l-51 70h-33v-80h-20zM2791 174h45q9 0 13 2q8 4 10 6q6 6 6 9 q2 4 3 7.5t1 8.5q0 4 -4 12q0 4 -6 10q-2 2 -10 7q-4 2 -13 2h-45v-64zM2929 166q0 6 1 12t3 12t3.5 12.5t6.5 12.5q2 5 5.5 9t7.5 9t9.5 8.5t10.5 6.5l11 5.5t11 4.5t12.5 3t12.5 1q8 0 14 -1t12 -3q11 -3 23 -10q12 -6 20 -15q5 -5 8.5 -9t6.5 -9l4 -12t4 -13 q3 -6 3.5 -12t0.5 -12q0 -9 -2 -19t-7 -18q-5 -18 -18 -31q-16 -14 -30 -20q-18 -6 -39 -6q-18 0 -37 6q-15 6 -30 20q-13 11 -19 31q-5 8 -6.5 18t-1.5 19zM2933 459h116v26h-90v179h-26v-205zM2949 166q0 -5 1 -9t1 -10q2 -6 4 -9.5t4 -8.5q3 -5 6.5 -8t6.5 -8 q6 -6 14 -11q5 -3 9 -4.5t9 -3.5t9.5 -2h9.5h10.5t9.5 2t9.5 3.5t9.5 4.5q5 2 8 5l6 6q5 5 7 8t5 8q6 8 9 18q2 5 2 9.5v9.5q0 16 -7 29q-3 8 -6.5 13.5t-9.5 10.5q-10 10 -22 17q-8 2 -15.5 3t-15.5 1q-6 0 -13.5 -1t-15.5 -3q-12 -6 -22 -17q-5 -5 -9.5 -10.5t-7.5 -13.5 q-6 -12 -6 -29zM3021 664l74 -101l1 -1q0 -1 0.5 -1.5t0.5 -1.5q2 -2 2 -3t2 -1v-5v-5v-86h28v86q0 2 1 3t1 2v2q0 1 2 3v1q0 1 2 3q0 4 5 4l71 101h-18q-10 0 -15 -5q-3 -2 -5.5 -5t-4.5 -5l-49 -65q-1 0 -2 -1v-1q0 -1 -0.5 -1.5t-0.5 -1.5l-1 -1v4v1l-2 1l-47 65 q-3 2 -5.5 5t-4.5 5q-5 2 -8.5 3.5t-8.5 1.5h-18zM3031 0h53q3 0 6.5 -1t6.5 -1q2 -2 4 -2t4 -2q3 -2 4.5 -4.5t3.5 -3.5q2 -2 3 -4t3 -5q9 -24 17.5 -45t17.5 -43q9 -24 18 -45t17 -43q2 -2 2 -6q0 -2 1 -3t1 -3v-7v-1l2 1v7q0 4 2 6v6l10 21l62 155q0 5 6 9q3 5 8 8 q2 2 5 2t5 2q2 0 4.5 1t5.5 1h54v-291h-54v213q-2 -3 -3 -6t-1 -8q-2 -5 -3 -8t-3 -6l-37 -93q-9 -24 -18 -46t-21 -46h-47l-75 185q-2 3 -3.5 6t-3.5 8q0 4 -4 12v-211h-53v291zM3160 74v186h16q4 0 9 -4q6 -3 6 -8l65 -144v-4q2 -2 2 -3v-1v4.5t2 5.5t2 5.5t1 5.5l61 131 q0 5 6 8q4 4 8 4h19v-186h-21v153h-2v-4v-2q0 -1 -1 -2h-1q-5 -11 -9 -21.5t-7 -19.5q-5 -11 -9.5 -19t-7.5 -19q-5 -8 -9 -16.5t-7 -17.5t-7 -16.5t-7 -15.5h-23q-8 17 -15 35t-16 36t-16.5 37t-15.5 37q-2 0 -2 4v4v-153h-21z" />
<glyph unicode="3" horiz-adv-x="3575" d="M125 166q0 6 1 12t3 12t4.5 12.5t5.5 12.5q3 5 6 9t9 9q8 8 20 15q11 7 23 10q6 2 12 3t12 1q11 0 20.5 -2.5t18.5 -5.5q8 -5 15.5 -9.5t13.5 -11.5q0 -2 -1 -2t-3 -2l-2 -2q-2 -2 -3 -2h-1h-7h-4t-4 2q-5 3 -9.5 6t-10.5 5q-5 2 -11 2h-12q-8 0 -15 -1t-15 -3 q-12 -7 -21 -17q-6 -5 -9.5 -10.5t-6.5 -13.5q-6 -12 -7 -29v-9t3 -10q2 -10 8 -18q3 -5 6 -8t6 -8q6 -6 14 -11q5 -3 9.5 -4.5t9.5 -3.5t9.5 -2h10.5h12.5t12.5 2t11 4.5l11 5.5v39h-14q-2 0 -4 1t-4 1q-2 2 -3 2t-3 3q0 2 -1 3t-1 3q-2 2 -2 6v2h51v-72q-3 -5 -6 -7t-9 -5 q-3 -2 -6 -3t-8 -1q-5 -2 -9 -3t-9 -1h-21h-12t-12 2q-11 3 -23 10q-12 6 -20 14q-9 9 -15 21q-7 10 -10 21q-2 7 -3 13.5t-1 12.5zM125 -274q0 4 1 7.5t1 6.5q2 3 2 6t2 6l6 12q4 3 8 11l129 174h-141v51h215v-25v-14q-2 -3 -3 -6t-3 -6l-145 -193q2 0 4 2q2 0 4 2h4h139 v-51h-223v17zM133 326v784h1223q0 81 30 154q32 73 84 125q54 51 125 81q71 31 150 31q87 0 156 -33q71 -34 122 -86q51 -54 82 -125t31 -147h1221v-784h-3224zM301 459h29v76h45q6 0 12 1t12 3q12 6 21 14q8 8 14 20q2 6 3 12.5t1 12.5q0 8 -1 14t-3 13q-3 5 -6 9t-8 9 t-9.5 8.5t-11.5 5.5q-12 6 -24 7h-74v-205zM330 561v74h45q3 0 6 -1t8 -3q3 0 5.5 -2t4.5 -4q4 -4 9 -13q2 -4 2 -14v-7t-2 -7q-4 -8 -9 -11q-4 -5 -10 -8q-5 -2 -8 -3t-6 -1h-45zM336 74v186h113v-22h-93v-60h74v-20h-74v-64h93v-20h-113zM385 0h186v-51h-133v-68h107v-51 h-107v-70h133v-51h-186v291zM459 459h127v26h-99v62h80v28h-80v60h99v29h-127v-205zM471 238v22h141v-22h-59v-164h-23v164h-59zM582 0h223v-51h-86v-240h-53v240h-84v51zM629 459h28v84h31l53 -72q3 -7 11 -10q2 -2 6.5 -2h9.5h18l-65 88q5 2 9 3t7 5q8 3 15 12q5 6 8 17 q2 5 2 9v8q0 8 -0.5 14t-3.5 12q-2 5 -5.5 9t-7.5 9q-9 9 -18 12q-12 6 -25 7h-73v-205zM657 571v64h45q4 0 13 -4q7 0 10 -6q3 -2 4.5 -4.5t3.5 -4.5q0 -3 1 -6.5t1 -8.5q0 -2 -1 -5t-1 -6q-2 -2 -3.5 -4.5t-4.5 -5.5q-2 -2 -10 -7q-4 -2 -13 -2h-45zM729 74v186h113v-22 h-92v-64h77v-20h-77v-80h-21zM760 -291l127 291h49l125 -291h-33q-11 0 -20 6q-5 3 -8.5 7.5t-6.5 8.5l-16 40h-131l-19 -40q0 -3 -4 -7q-2 -3 -4 -5l-4 -4q-3 -2 -5 -3t-5 -1q-3 -2 -5.5 -2h-4.5h-35zM795 496q2 -2 2 -3t2 -1q0 -2 1 -3.5t1 -3.5q4 -4 5 -6q4 -5 7 -5 q9 -10 20 -13.5t25 -3.5q8 0 14.5 0.5t14.5 3.5q11 3 20 13q12 10 17 20q6 12 6 24q0 29 -23 45q-2 2 -4 3t-4 3q-3 2 -5 2t-5 2q-2 2 -4 2t-6 3q-2 0 -11 4q-5 2 -9 3t-7 3q-5 2 -7 3t-5 3q-4 4 -6 7q-1 3 -1 11q0 6 1 11q2 2 3.5 4t4.5 4q2 0 10 4q4 2 12 2q3 0 5.5 -1 t4.5 -1q3 -2 7 -3t6 -3q8 -4 12 -4q8 0 14 6l7 4q-2 3 -5 5t-6 5t-6 5t-6 5q-3 2 -7 3t-9 4q-8 4 -17 4q-6 0 -11 -1t-11 -3t-11 -5l-10 -6q-3 -3 -6 -7t-6 -9q-6 -9 -6 -23q0 -8 1.5 -12.5t4.5 -9.5q3 -10 12 -17q7 -7 19 -10q5 -3 9.5 -5t10.5 -5q3 -2 6 -2.5t8 -1.5 q3 -2 7 -3t6 -3q3 -3 5.5 -5t4.5 -6q2 -3 3 -6t1 -8q0 -6 -4 -14q-3 -7 -10 -10q-2 -3 -5.5 -5t-7.5 -4q-5 0 -8 -1t-8 -1q-3 0 -7 1t-7 1q-8 4 -11 9l-4 2q-6 6 -16 6q-7 0 -10 -4zM868 -176h86l-39 88q-2 3 -2 5.5t-2 4.5v8q0 -4 -2 -8q0 -2 -1 -4.5t-1 -5.5zM879 145v115 h20v-115q0 -6 0.5 -10.5t3.5 -9.5q2 -6 4.5 -9.5t5.5 -9.5q5 -3 9 -5.5t10 -4.5q5 -3 9.5 -3.5t10.5 -0.5t11 0.5t10 3.5q11 4 16 10q5 5 7 9l5 10q2 5 3.5 9.5t1.5 10.5v115h20v-115q0 -16 -6 -28q-3 -8 -6 -14t-8 -11q-6 -5 -12.5 -9t-12.5 -7q-6 -2 -13 -3t-16 -1 q-8 0 -15 1t-13 3q-13 5 -25 16q-5 5 -9 11t-6 14q-4 6 -4.5 13t-0.5 15zM952 559q0 -9 1.5 -19.5t7.5 -19.5q5 -11 10.5 -18.5t11.5 -16.5q8 -6 16 -11.5t17 -8.5q19 -8 41 -8h14t14 2q6 3 12.5 5t12.5 7q10 5 23 14q3 5 7 11t7 12q5 6 7 12t5 12q2 8 2 14v13v15.5t-2 13.5 q-3 8 -5 14t-7 12q-3 5 -7 10.5t-7 10.5q-6 5 -11.5 8t-11.5 8q-6 3 -12 5.5t-13 5.5q-8 2 -14 3t-14 1q-6 0 -13.5 -1t-13.5 -3q-8 -2 -14 -5l-12 -6q-5 -5 -10.5 -8t-10.5 -8t-9 -10t-7 -11l-6 -12t-5 -14q-2 -6 -3 -13.5t-1 -15.5zM981 559q0 18 6 31q3 8 6.5 13.5 t10.5 10.5q5 6 10.5 10t13.5 7q13 6 29 6q15 0 30 -6q6 -3 12.5 -7t12.5 -10q11 -11 16 -24q6 -12 7 -31q0 -13 -7 -29q-3 -6 -7 -12t-9 -12q-6 -5 -12 -9t-13 -8q-15 -6 -30 -6t-29 6q-13 5 -24 17q-6 6 -10 12t-7 12q-6 15 -6 29zM1065 74v186h22v-166h82v-20h-104z M1073 0h187v-51h-134v-74h111v-51h-111v-115h-53v291zM1194 74v186h20v-166h82v-20h-102zM1200 459h29v172v-4q2 -2 2 -3v-1q0 -2 1 -3q0 -1 1 -2l117 -159h24v205h-28v-160q0 5 -1.5 8t-3.5 6l-100 137q-4 4 -8 7q-3 0 -6 1t-6 1h-21v-205zM1278 -145q0 9 0.5 19t3.5 20 q3 9 6 17.5t8 16.5q5 9 11 16t14 15q13 13 29 23q9 4 17 8.5t17 7.5q11 2 20.5 3t20.5 1t20.5 -1t18.5 -3q9 -3 18 -7.5l17 -8.5q9 -5 17 -11t14 -12q6 -8 11.5 -15t10.5 -16q5 -8 9 -16.5t6 -17.5q6 -18 6 -39q0 -20 -6 -39q-2 -9 -5.5 -18.5t-9.5 -18.5q-9 -15 -22 -29 q-6 -6 -14 -11.5t-17 -10.5q-8 -6 -16.5 -10t-18.5 -7q-9 -2 -18 -3t-21 -1q-15 0 -30 2.5t-27 7.5q-14 6 -26 14t-21 19q-22 22 -33 47q-6 14 -8 27.5t-2 30.5zM1329 -145q0 -9 2.5 -18.5t5.5 -18.5q10 -20 21 -31q6 -6 13.5 -10.5t17.5 -9.5q15 -6 36 -7q18 0 37 7 q7 5 15 9.5t16 10.5q6 6 10.5 14t9.5 17q6 18 7 37q0 18 -7 36q-5 9 -9.5 16t-10.5 15q-8 6 -16 10.5t-15 8.5q-16 8 -37 8q-24 0 -36 -8q-9 -4 -17 -8.5t-14 -10.5q-6 -8 -11 -14.5t-10 -16.5q-3 -9 -5.5 -18t-2.5 -18zM1386 260h11q3 0 5 -1t5 -3q2 -2 4 -3.5t2 -4.5 l62 -139q0 -2 1 -3.5t1 -3.5v-6v6q2 2 2 7q8 17 15 34.5t15 34.5q8 18 15.5 35t15.5 35q2 4 6 8q8 4 10 4h13q-11 -24 -21.5 -47.5t-19.5 -46.5q-11 -24 -20.5 -46.5t-20.5 -45.5h-21zM1386 1108q0 -71 29 -137q14 -33 32.5 -61.5t43.5 -53.5q46 -49 113 -78q65 -31 141 -30 q73 0 139 28q65 28 115 78q25 24 43.5 52t34.5 61q27 66 26 141q0 34 -4.5 64.5t-15.5 58.5q-9 27 -24 53t-34 49q-18 22 -38.5 40.5t-44.5 35.5q-25 14 -50.5 25.5t-52.5 19.5q-22 8 -44.5 11t-49.5 3q-76 0 -143 -30q-33 -14 -61 -34t-52 -44q-25 -25 -43.5 -53.5 t-32.5 -61.5q-12 -33 -19.5 -66.5t-7.5 -70.5zM1393 459h16q8 0 11 2q7 5 10 10l14 33h104l15 -33q4 -8 8 -10q2 -2 5.5 -2h6.5h16l-88 205h-28zM1423 1108q0 58 19 111q8 27 21.5 49.5t31.5 46.5h428l-420 -424q-20 24 -35 48.5t-24 51.5q-11 27 -16 56.5t-5 60.5z M1456 532l37 86q2 2 2 5q0 2 1 4t1 4q0 -10 2 -13l37 -86h-80zM1528 866h434q-24 -18 -48.5 -33.5t-51.5 -26.5q-27 -10 -56.5 -16t-60.5 -6q-32 0 -61 6t-56 16q-28 11 -52.5 26.5t-47.5 33.5zM1528 1350q22 20 46.5 35t50.5 26q54 20 120 21q31 0 60.5 -5t56.5 -16 q55 -25 98 -61h-432zM1565 901l422 426q80 -104 79 -219q0 -30 -4 -57t-14 -54q-9 -27 -22.5 -49.5t-30.5 -46.5h-430zM1583 74v186h115v-22h-92v-60h73v-20h-73v-64h92v-20h-115zM1612 0h47q8 0 16 -4t11 -9q15 -20 30.5 -42t30.5 -43q15 -22 30 -43t29 -41q6 -6 6 -13 q2 -3 2.5 -5.5t0.5 -4.5v205h53v-291h-49l-138 195q-4 4 -4 6q-2 4 -6 8q0 2 -4 6q0 2 -1 3t-1 3v-221h-53v291zM1620 459h117v26h-88v179h-29v-205zM1741 74v186h67q5 0 10.5 -1t10.5 -3q5 -3 9 -6t7 -6t6 -7.5t7 -9.5q2 -5 3 -10t1 -10t-1 -9t-3 -10q-2 -10 -9 -16 l-12 -12q-5 -2 -8 -3t-8 -3l59 -80h-12q-8 0 -11 2q-6 2 -10 8l-53 70h-31v-80h-22zM1763 174h45q8 0 13 2q3 2 5 3t5 3q2 3 3 5t3 4q2 4 3 7.5t1 8.5q0 4 -4 12q-2 3 -3 5t-3 5q-3 2 -5 3t-5 4q-4 2 -13 2h-45v-64zM1853 539q0 -6 0.5 -12t3.5 -11q1 -6 3 -10.5t4 -9.5 q3 -5 6 -9.5t8 -7.5q3 -3 7 -6t9 -6t10.5 -4.5t10.5 -3.5t10 -3t10 -1q6 0 12.5 1t11.5 3q12 3 19 8q5 3 8.5 6t8.5 6q3 3 6 7t6 10q5 7 8 20q2 5 3 10.5t1 12.5v125h-28v-125q0 -6 -1 -11.5t-3 -11.5q-3 -5 -5.5 -9t-7.5 -7q-3 -5 -7 -7.5t-8 -5.5q-7 -2 -12 -3t-12 -1 q-5 0 -10 1t-10 3q-5 3 -9 5.5t-8 7.5q-9 6 -12 16q-2 6 -3 11t-1 12v125h-29v-125zM1892 0h224v-51h-84v-240h-54v240h-86v51zM1896 104l5 2l1 2q1 0 1.5 0.5t1.5 0.5h4q8 0 12 -5q3 -5 7 -6.5t7 -3.5q5 -2 8.5 -2h8.5h6t8 2q6 0 12 6q7 3 11 11q4 10 4 14q0 9 -4 15 q-3 6 -9 10q-4 4 -12 8q-4 0 -14 4q-6 2 -11 4l-10 4q-9 3 -16 10q-3 2 -5.5 5.5t-3.5 5.5q-2 5 -3.5 10.5t-1.5 11.5q0 11 6 20q3 8 12 15q7 7 16 10q5 2 11 3t11 1q2 0 6 -1t7 -1q5 -2 8 -3t7 -3q3 -3 5.5 -4.5t4.5 -3.5l8 -8l-4 -5q-4 -4 -10 -4q-8 0 -11 2q-2 2 -3 2 t-3 3q-2 0 -2 1t-2 1t-3 1t-3 1h-5h-8t-7 -2q-3 0 -5.5 -1t-5.5 -4q-2 -3 -4 -5t-2 -5q-4 -4 -4 -10q0 -8 2 -10q2 -4 6 -8q5 -4 13 -7q3 -2 7 -3t9 -3q3 -2 5 -2t5 -2q4 0 8 -4q3 0 5.5 -1t5.5 -3q2 0 6 -4l8 -8t7 -8q1 -7 2 -12t1 -13q0 -6 -1 -11t-2 -12q-4 -5 -7 -9.5 t-8 -6.5q-7 -7 -21 -10q-5 -3 -10.5 -3.5t-11.5 -0.5q-27 0 -41 14q-2 2 -5 4.5t-5 5.5q-4 4 -5 8zM2048 496q0 -2 1 -3q0 -1 1 -1q2 -2 2 -3.5t2 -3.5q4 -4 4 -6q4 -5 8 -5q9 -10 20 -13.5t25 -3.5q8 0 14.5 0.5t11.5 3.5q15 3 24 13q11 10 16 20q3 6 3.5 12t0.5 12 q0 31 -20 45q-4 2 -9 6q-3 2 -5 2t-5 2q-4 2 -5.5 2t-4.5 3q-3 0 -5 1t-5 3q-5 2 -9.5 3t-7.5 3q-9 3 -12 6q-6 3 -6 7q-2 3 -2 11q0 6 2 11q2 2 3.5 4t4.5 4q2 0 10 4q4 2 13 2q3 0 5 -1t5 -1l12 -6q8 -4 12 -4q6 0 13 6l8 4q-2 3 -4.5 5t-5.5 5t-6.5 5t-6.5 5q-3 2 -7 3 t-9 4q-5 2 -8 3t-8 1q-6 0 -12 -1t-11 -3q-6 -2 -10.5 -5t-9.5 -6l-7 -7t-6 -9q-6 -9 -6 -23q0 -8 1.5 -12.5t3.5 -9.5q5 -11 14 -17q7 -7 16 -10q6 -3 11 -5t12 -5q3 -2 6 -2.5t8 -1.5l12 -6q3 -3 5.5 -5t4.5 -6q2 -3 3 -6t1 -8q0 -6 -4 -14q-3 -7 -10 -10q-5 -5 -14 -9 q-3 0 -7 -1t-8 -1q-5 0 -8 1t-6 1q-10 3 -12 9l-2 2q-6 6 -17 6q-8 0 -10 -4zM2054 74v186h23v-186h-23zM2120 166q0 6 1 12t3 12t3.5 12.5t4.5 12.5q4 5 7.5 9t8.5 9t9.5 8.5t9.5 6.5q10 7 21 10q7 2 13.5 3t14.5 1q6 0 12 -1t11 -3q12 -3 24 -10q12 -6 21 -15q5 -5 8 -9 t6 -9q3 -6 5.5 -12t4.5 -13q2 -6 2 -12v-12q0 -20 -6 -37q-8 -17 -20 -31q-16 -14 -31 -20q-20 -6 -37 -6q-23 0 -39 6q-17 6 -29 20q-6 6 -11.5 14t-8.5 17q-5 8 -6.5 18t-1.5 19zM2120 -229q2 0 6 4q4 0 8 4q2 0 4 1t4 1t4 0.5t4 0.5q6 0 13 -3q5 0 8 -1t6 -3q7 -7 16 -11 q5 -2 11 -3t12 -1h7t9 2q3 2 7.5 3.5t7.5 3.5q9 6 12 13q6 7 6 17q0 5 -1 8.5t-3 6.5q-3 3 -6 5.5t-6 4.5q-8 5 -17 8q-8 1 -18 8q-8 2 -15.5 4.5t-15.5 5.5t-14 7.5t-12 9.5q-10 10 -17 22q-8 13 -8 33q0 10 2.5 18.5t5.5 16.5q10 16 21 25q6 4 13 8.5t14 7.5q8 2 17 3 t17 1q6 0 12.5 -1t12.5 -3q13 -3 22 -11q6 -2 11 -6.5t10 -9.5q5 -3 8 -7t6 -9l-10 -8l-6 -4t-9 -4q-5 -2 -8 -3t-6 -1h-4h-4q-3 2 -5 3t-5 3q-2 2 -5 2t-4 2q-2 0 -3.5 1t-4.5 1q-2 2 -8 2h-6t-8 -2q-6 0 -10 -4q-3 -2 -6.5 -5t-4.5 -4q-2 -4 -2 -12t2 -10q1 -3 4 -5t7 -5 q3 -2 7 -3t9 -3t10.5 -4.5t13.5 -4.5l9 -4q9 -3 15.5 -6t14.5 -8q15 -8 23 -19q9 -9 12 -22q6 -12 6 -29q0 -11 -2.5 -19.5t-5.5 -17.5q-5 -9 -10.5 -16.5t-11.5 -14.5q-15 -11 -35 -18q-20 -6 -37 -6q-23 0 -41 6q-9 5 -17 10t-16 13q-5 5 -8 9t-6 9q-5 8 -8 17zM2140 166 q0 -5 1 -9t3 -10t3 -9.5t3 -8.5q3 -5 6.5 -8t6.5 -8q6 -6 14 -11q7 -5 18 -8q5 -2 10 -2h11h9t9 2q4 2 9 3.5t10 4.5q5 2 8 5l6 6q5 5 7 8t5 8q6 8 9 18q2 5 2 9.5v9.5q0 16 -6 29q-3 8 -7 13.5t-10 10.5q-10 10 -22 17q-6 2 -13.5 3t-15.5 1t-15.5 -1t-15.5 -3 q-12 -6 -22 -17q-5 -5 -9.5 -10.5t-7.5 -13.5q-6 -12 -6 -29zM2218 459h127v26h-100v62h79v28h-79v60h100v29h-127v-205zM2333 -262q0 3 1 6.5t1 5.5q4 8 7 10q4 6 11 7q8 4 12 4t13 -4q7 -1 10 -7q5 -3 5 -10q2 -2 3.5 -5.5t1.5 -6.5q0 -5 -5 -12q0 -5 -5 -11q-2 -2 -10 -6 q-4 -2 -13 -2q-8 0 -12 2q-8 4 -11 6q-2 3 -3.5 5t-3.5 6q0 3 -1 6t-1 6zM2345 74v186h14q13 0 17 -8l96 -135q2 -1 2 -2.5t2 -3.5v-5v154h23v-186h-21l-108 153l-3 2v2q0 2 -2 5v-162h-20zM2417 -145q0 20 6 39q2 9 5.5 17.5t8.5 16.5q5 9 11 16t12 15q8 6 14.5 11.5 t15.5 11.5l17 8.5t18 7.5q11 2 20.5 3t18.5 1t17 -0.5t16 -3.5q13 -3 31 -11q12 -5 26 -16q6 -5 12.5 -10.5t12.5 -11.5l-13 -14q-4 -3 -12 -7q-5 -2 -16 -2q-9 0 -19 6q-6 2 -12 6t-14 7q-6 2 -13.5 3t-15.5 1q-9 0 -18 -1.5t-17 -6.5q-9 -4 -16.5 -8.5t-13.5 -10.5 q-8 -8 -13 -14.5t-8 -16.5q-8 -16 -8 -36t8 -37q6 -19 21 -31q6 -6 13.5 -10.5t16.5 -9.5q15 -6 35 -7q8 0 15.5 1t13.5 3q14 3 26 13q2 2 4.5 2t4.5 2q3 1 5.5 1h4.5q8 0 16 -3q8 -4 12 -8l13 -11q-6 -6 -12.5 -11.5t-12.5 -10.5t-13 -9t-13 -8q-8 -5 -15.5 -6.5 t-15.5 -3.5q-8 -3 -16 -3.5t-17 -0.5q-14 0 -28.5 2.5t-28.5 7.5q-26 11 -47 33q-9 11 -17 22t-14 25q-12 28 -12 58zM2462 559q0 -9 1.5 -19.5t6.5 -19.5q3 -11 8.5 -18.5t11.5 -16.5q8 -6 17 -11.5t18 -8.5q16 -8 41 -8h13.5t13.5 2q8 3 14 5t12 7q5 3 10.5 6t10.5 8 q10 10 16 23q3 6 5.5 12t4.5 12l3.5 14t1.5 13q0 8 -1 15.5t-4 13.5q-2 8 -4.5 14t-5.5 12q-3 5 -7 10.5t-9 10.5t-10 8t-11 8q-6 3 -12 5.5t-14 5.5q-6 2 -13.5 3t-13.5 1q-8 0 -14.5 -1t-14.5 -3q-6 -2 -12 -5l-12 -6q-6 -5 -11 -8t-12 -8q-5 -5 -8 -10t-8 -11 q-3 -6 -5 -12t-5 -14q-2 -6 -2 -13.5v-15.5zM2488 559q0 18 6 31q3 8 7.5 13.5t9.5 10.5q6 6 12 10t12 7q8 3 15 4.5t16 1.5q16 0 29 -6q8 -3 13.5 -7t10.5 -10q6 -5 10 -10.5t7 -13.5q6 -12 6 -31q0 -13 -6 -29q-3 -6 -6.5 -12t-10.5 -12q-5 -5 -10.5 -9t-13.5 -8 q-12 -6 -29 -6q-9 0 -15.5 1.5t-15.5 4.5q-6 3 -12 7.5t-12 9.5q-5 6 -9 12l-8 12q-6 15 -6 29zM2634 74v186h114v-22h-94v-64h78v-20h-78v-80h-20zM2697 -145q0 20 6 39q3 9 6.5 17.5t8.5 16.5q5 9 10.5 16t13.5 15q13 13 29 23q9 4 17.5 8.5t17.5 7.5q11 2 20 3t21 1 q9 0 19 -1t20 -3q9 -3 17.5 -7.5t16.5 -8.5q9 -5 16 -11t15 -12q6 -8 12 -15t11 -16q5 -8 8.5 -16.5t5.5 -17.5q6 -18 6 -39q0 -20 -6 -39q-2 -9 -5.5 -18.5t-8.5 -18.5q-9 -15 -23 -29q-8 -6 -14.5 -11.5t-16.5 -10.5q-8 -6 -16.5 -10t-17.5 -7q-9 -2 -19.5 -3t-19.5 -1 q-15 0 -30 2.5t-30 7.5q-12 6 -24 14t-21 19q-22 22 -32 47q-7 14 -10 27.5t-3 30.5zM2707 459h29v172q2 -2 2 -3v-1q0 -4 2 -4q0 -4 2 -5l117 -159h23v205h-29v-160q0 5 -1 8t-3 6l-101 137q-4 4 -8 7q-2 0 -4.5 1t-7.5 1h-21v-205zM2750 -145q0 -9 2 -18.5t7 -18.5 q3 -9 8.5 -17t11.5 -14t14 -10.5t17 -9.5q15 -6 37 -7q18 0 37 7q8 5 15 9.5t15 10.5q6 6 11 14t10 17q6 18 6 37q0 18 -6 36q-5 9 -10 16t-11 15q-8 6 -15 10.5t-15 8.5q-16 8 -37 8q-24 0 -37 -8q-9 -4 -17 -8.5t-14 -10.5q-6 -8 -11.5 -14.5t-8.5 -16.5q-5 -9 -7 -18 t-2 -18zM2771 74v186h65q6 0 11 -1t10 -3q6 -3 9.5 -6t6.5 -6q9 -6 13 -17q2 -5 3 -10t1 -10v-9t-2 -10q-4 -9 -11 -16q-3 -6 -12 -12q-3 -2 -7.5 -3t-8.5 -3l61 -80h-12q-10 0 -14 2q-2 2 -4.5 3.5t-4.5 4.5l-51 70h-33v-80h-20zM2791 174h45q9 0 13 2q8 4 10 6q6 6 6 9 q2 4 3 7.5t1 8.5q0 4 -4 12q0 4 -6 10q-2 2 -10 7q-4 2 -13 2h-45v-64zM2929 166q0 6 1 12t3 12t3.5 12.5t6.5 12.5q2 5 5.5 9t7.5 9t9.5 8.5t10.5 6.5l11 5.5t11 4.5t12.5 3t12.5 1q8 0 14 -1t12 -3q11 -3 23 -10q12 -6 20 -15q5 -5 8.5 -9t6.5 -9l4 -12t4 -13 q3 -6 3.5 -12t0.5 -12q0 -9 -2 -19t-7 -18q-5 -18 -18 -31q-16 -14 -30 -20q-18 -6 -39 -6q-18 0 -37 6q-15 6 -30 20q-13 11 -19 31q-5 8 -6.5 18t-1.5 19zM2933 459h116v26h-90v179h-26v-205zM2949 166q0 -5 1 -9t1 -10q2 -6 4 -9.5t4 -8.5q3 -5 6.5 -8t6.5 -8 q6 -6 14 -11q5 -3 9 -4.5t9 -3.5t9.5 -2h9.5h10.5t9.5 2t9.5 3.5t9.5 4.5q5 2 8 5l6 6q5 5 7 8t5 8q6 8 9 18q2 5 2 9.5v9.5q0 16 -7 29q-3 8 -6.5 13.5t-9.5 10.5q-10 10 -22 17q-8 2 -15.5 3t-15.5 1q-6 0 -13.5 -1t-15.5 -3q-12 -6 -22 -17q-5 -5 -9.5 -10.5t-7.5 -13.5 q-6 -12 -6 -29zM3021 664l74 -101l1 -1q0 -1 0.5 -1.5t0.5 -1.5q2 -2 2 -3t2 -1v-5v-5v-86h28v86q0 2 1 3t1 2v2q0 1 2 3v1q0 1 2 3q0 4 5 4l71 101h-18q-10 0 -15 -5q-3 -2 -5.5 -5t-4.5 -5l-49 -65q-1 0 -2 -1v-1q0 -1 -0.5 -1.5t-0.5 -1.5l-1 -1v4v1l-2 1l-47 65 q-3 2 -5.5 5t-4.5 5q-5 2 -8.5 3.5t-8.5 1.5h-18zM3031 0h53q3 0 6.5 -1t6.5 -1q2 -2 4 -2t4 -2q3 -2 4.5 -4.5t3.5 -3.5q2 -2 3 -4t3 -5q9 -24 17.5 -45t17.5 -43q9 -24 18 -45t17 -43q2 -2 2 -6q0 -2 1 -3t1 -3v-7v-1l2 1v7q0 4 2 6v6l10 21l62 155q0 5 6 9q3 5 8 8 q2 2 5 2t5 2q2 0 4.5 1t5.5 1h54v-291h-54v213q-2 -3 -3 -6t-1 -8q-2 -5 -3 -8t-3 -6l-37 -93q-9 -24 -18 -46t-21 -46h-47l-75 185q-2 3 -3.5 6t-3.5 8q0 4 -4 12v-211h-53v291zM3160 74v186h16q4 0 9 -4q6 -3 6 -8l65 -144v-4q2 -2 2 -3v-1v4.5t2 5.5t2 5.5t1 5.5l61 131 q0 5 6 8q4 4 8 4h19v-186h-21v153h-2v-4v-2q0 -1 -1 -2h-1q-5 -11 -9 -21.5t-7 -19.5q-5 -11 -9.5 -19t-7.5 -19q-5 -8 -9 -16.5t-7 -17.5t-7 -16.5t-7 -15.5h-23q-8 17 -15 35t-16 36t-16.5 37t-15.5 37q-2 0 -2 4v4v-153h-21z" />
<glyph unicode="4" horiz-adv-x="3575" d="M125 166q0 6 1 12t3 12t4.5 12.5t5.5 12.5q3 5 6 9t9 9q8 8 20 15q11 7 23 10q6 2 12 3t12 1q11 0 20.5 -2.5t18.5 -5.5q8 -5 15.5 -9.5t13.5 -11.5q0 -2 -1 -2t-3 -2l-2 -2q-2 -2 -3 -2h-1h-7h-4t-4 2q-5 3 -9.5 6t-10.5 5q-5 2 -11 2h-12q-8 0 -15 -1t-15 -3 q-12 -7 -21 -17q-6 -5 -9.5 -10.5t-6.5 -13.5q-6 -12 -7 -29v-9t3 -10q2 -10 8 -18q3 -5 6 -8t6 -8q6 -6 14 -11q5 -3 9.5 -4.5t9.5 -3.5t9.5 -2h10.5h12.5t12.5 2t11 4.5l11 5.5v39h-14q-2 0 -4 1t-4 1q-2 2 -3 2t-3 3q0 2 -1 3t-1 3q-2 2 -2 6v2h51v-72q-3 -5 -6 -7t-9 -5 q-3 -2 -6 -3t-8 -1q-5 -2 -9 -3t-9 -1h-21h-12t-12 2q-11 3 -23 10q-12 6 -20 14q-9 9 -15 21q-7 10 -10 21q-2 7 -3 13.5t-1 12.5zM125 -274q0 4 1 7.5t1 6.5q2 3 2 6t2 6l6 12q4 3 8 11l129 174h-141v51h215v-25v-14q-2 -3 -3 -6t-3 -6l-145 -193q2 0 4 2q2 0 4 2h4h139 v-51h-223v17zM133 326v784h1223q0 81 30 154q32 73 84 125q54 51 125 81q71 31 150 31q87 0 156 -33q71 -34 122 -86q51 -54 82 -125t31 -147h1221v-784h-3224zM301 459h29v76h45q6 0 12 1t12 3q12 6 21 14q8 8 14 20q2 6 3 12.5t1 12.5q0 8 -1 14t-3 13q-3 5 -6 9t-8 9 t-9.5 8.5t-11.5 5.5q-12 6 -24 7h-74v-205zM330 561v74h45q3 0 6 -1t8 -3q3 0 5.5 -2t4.5 -4q4 -4 9 -13q2 -4 2 -14v-7t-2 -7q-4 -8 -9 -11q-4 -5 -10 -8q-5 -2 -8 -3t-6 -1h-45zM336 74v186h113v-22h-93v-60h74v-20h-74v-64h93v-20h-113zM385 0h186v-51h-133v-68h107v-51 h-107v-70h133v-51h-186v291zM459 459h127v26h-99v62h80v28h-80v60h99v29h-127v-205zM471 238v22h141v-22h-59v-164h-23v164h-59zM582 0h223v-51h-86v-240h-53v240h-84v51zM629 459h28v84h31l53 -72q3 -7 11 -10q2 -2 6.5 -2h9.5h18l-65 88q5 2 9 3t7 5q8 3 15 12q5 6 8 17 q2 5 2 9v8q0 8 -0.5 14t-3.5 12q-2 5 -5.5 9t-7.5 9q-9 9 -18 12q-12 6 -25 7h-73v-205zM657 571v64h45q4 0 13 -4q7 0 10 -6q3 -2 4.5 -4.5t3.5 -4.5q0 -3 1 -6.5t1 -8.5q0 -2 -1 -5t-1 -6q-2 -2 -3.5 -4.5t-4.5 -5.5q-2 -2 -10 -7q-4 -2 -13 -2h-45zM729 74v186h113v-22 h-92v-64h77v-20h-77v-80h-21zM760 -291l127 291h49l125 -291h-33q-11 0 -20 6q-5 3 -8.5 7.5t-6.5 8.5l-16 40h-131l-19 -40q0 -3 -4 -7q-2 -3 -4 -5l-4 -4q-3 -2 -5 -3t-5 -1q-3 -2 -5.5 -2h-4.5h-35zM795 496q2 -2 2 -3t2 -1q0 -2 1 -3.5t1 -3.5q4 -4 5 -6q4 -5 7 -5 q9 -10 20 -13.5t25 -3.5q8 0 14.5 0.5t14.5 3.5q11 3 20 13q12 10 17 20q6 12 6 24q0 29 -23 45q-2 2 -4 3t-4 3q-3 2 -5 2t-5 2q-2 2 -4 2t-6 3q-2 0 -11 4q-5 2 -9 3t-7 3q-5 2 -7 3t-5 3q-4 4 -6 7q-1 3 -1 11q0 6 1 11q2 2 3.5 4t4.5 4q2 0 10 4q4 2 12 2q3 0 5.5 -1 t4.5 -1q3 -2 7 -3t6 -3q8 -4 12 -4q8 0 14 6l7 4q-2 3 -5 5t-6 5t-6 5t-6 5q-3 2 -7 3t-9 4q-8 4 -17 4q-6 0 -11 -1t-11 -3t-11 -5l-10 -6q-3 -3 -6 -7t-6 -9q-6 -9 -6 -23q0 -8 1.5 -12.5t4.5 -9.5q3 -10 12 -17q7 -7 19 -10q5 -3 9.5 -5t10.5 -5q3 -2 6 -2.5t8 -1.5 q3 -2 7 -3t6 -3q3 -3 5.5 -5t4.5 -6q2 -3 3 -6t1 -8q0 -6 -4 -14q-3 -7 -10 -10q-2 -3 -5.5 -5t-7.5 -4q-5 0 -8 -1t-8 -1q-3 0 -7 1t-7 1q-8 4 -11 9l-4 2q-6 6 -16 6q-7 0 -10 -4zM868 -176h86l-39 88q-2 3 -2 5.5t-2 4.5v8q0 -4 -2 -8q0 -2 -1 -4.5t-1 -5.5zM879 145v115 h20v-115q0 -6 0.5 -10.5t3.5 -9.5q2 -6 4.5 -9.5t5.5 -9.5q5 -3 9 -5.5t10 -4.5q5 -3 9.5 -3.5t10.5 -0.5t11 0.5t10 3.5q11 4 16 10q5 5 7 9l5 10q2 5 3.5 9.5t1.5 10.5v115h20v-115q0 -16 -6 -28q-3 -8 -6 -14t-8 -11q-6 -5 -12.5 -9t-12.5 -7q-6 -2 -13 -3t-16 -1 q-8 0 -15 1t-13 3q-13 5 -25 16q-5 5 -9 11t-6 14q-4 6 -4.5 13t-0.5 15zM952 559q0 -9 1.5 -19.5t7.5 -19.5q5 -11 10.5 -18.5t11.5 -16.5q8 -6 16 -11.5t17 -8.5q19 -8 41 -8h14t14 2q6 3 12.5 5t12.5 7q10 5 23 14q3 5 7 11t7 12q5 6 7 12t5 12q2 8 2 14v13v15.5t-2 13.5 q-3 8 -5 14t-7 12q-3 5 -7 10.5t-7 10.5q-6 5 -11.5 8t-11.5 8q-6 3 -12 5.5t-13 5.5q-8 2 -14 3t-14 1q-6 0 -13.5 -1t-13.5 -3q-8 -2 -14 -5l-12 -6q-5 -5 -10.5 -8t-10.5 -8t-9 -10t-7 -11l-6 -12t-5 -14q-2 -6 -3 -13.5t-1 -15.5zM981 559q0 18 6 31q3 8 6.5 13.5 t10.5 10.5q5 6 10.5 10t13.5 7q13 6 29 6q15 0 30 -6q6 -3 12.5 -7t12.5 -10q11 -11 16 -24q6 -12 7 -31q0 -13 -7 -29q-3 -6 -7 -12t-9 -12q-6 -5 -12 -9t-13 -8q-15 -6 -30 -6t-29 6q-13 5 -24 17q-6 6 -10 12t-7 12q-6 15 -6 29zM1065 74v186h22v-166h82v-20h-104z M1073 0h187v-51h-134v-74h111v-51h-111v-115h-53v291zM1194 74v186h20v-166h82v-20h-102zM1200 459h29v172v-4q2 -2 2 -3v-1q0 -2 1 -3q0 -1 1 -2l117 -159h24v205h-28v-160q0 5 -1.5 8t-3.5 6l-100 137q-4 4 -8 7q-3 0 -6 1t-6 1h-21v-205zM1278 -145q0 9 0.5 19t3.5 20 q3 9 6 17.5t8 16.5q5 9 11 16t14 15q13 13 29 23q9 4 17 8.5t17 7.5q11 2 20.5 3t20.5 1t20.5 -1t18.5 -3q9 -3 18 -7.5l17 -8.5q9 -5 17 -11t14 -12q6 -8 11.5 -15t10.5 -16q5 -8 9 -16.5t6 -17.5q6 -18 6 -39q0 -20 -6 -39q-2 -9 -5.5 -18.5t-9.5 -18.5q-9 -15 -22 -29 q-6 -6 -14 -11.5t-17 -10.5q-8 -6 -16.5 -10t-18.5 -7q-9 -2 -18 -3t-21 -1q-15 0 -30 2.5t-27 7.5q-14 6 -26 14t-21 19q-22 22 -33 47q-6 14 -8 27.5t-2 30.5zM1329 -145q0 -9 2.5 -18.5t5.5 -18.5q10 -20 21 -31q6 -6 13.5 -10.5t17.5 -9.5q15 -6 36 -7q18 0 37 7 q7 5 15 9.5t16 10.5q6 6 10.5 14t9.5 17q6 18 7 37q0 18 -7 36q-5 9 -9.5 16t-10.5 15q-8 6 -16 10.5t-15 8.5q-16 8 -37 8q-24 0 -36 -8q-9 -4 -17 -8.5t-14 -10.5q-6 -8 -11 -14.5t-10 -16.5q-3 -9 -5.5 -18t-2.5 -18zM1386 260h11q3 0 5 -1t5 -3q2 -2 4 -3.5t2 -4.5 l62 -139q0 -2 1 -3.5t1 -3.5v-6v6q2 2 2 7q8 17 15 34.5t15 34.5q8 18 15.5 35t15.5 35q2 4 6 8q8 4 10 4h13q-11 -24 -21.5 -47.5t-19.5 -46.5q-11 -24 -20.5 -46.5t-20.5 -45.5h-21zM1386 1108q0 -71 29 -137q14 -33 32.5 -61.5t43.5 -53.5q46 -49 113 -78q65 -31 141 -30 q73 0 139 28q65 28 115 78q25 24 43.5 52t34.5 61q27 66 26 141q0 34 -4.5 64.5t-15.5 58.5q-9 27 -24 53t-34 49q-18 22 -38.5 40.5t-44.5 35.5q-25 14 -50.5 25.5t-52.5 19.5q-22 8 -44.5 11t-49.5 3q-76 0 -143 -30q-33 -14 -61 -34t-52 -44q-25 -25 -43.5 -53.5 t-32.5 -61.5q-12 -33 -19.5 -66.5t-7.5 -70.5zM1393 459h16q8 0 11 2q7 5 10 10l14 33h104l15 -33q4 -8 8 -10q2 -2 5.5 -2h6.5h16l-88 205h-28zM1423 1108q0 58 19 111q8 27 21.5 49.5t31.5 46.5h428l-420 -424q-20 24 -35 48.5t-24 51.5q-11 27 -16 56.5t-5 60.5z M1456 532l37 86q2 2 2 5q0 2 1 4t1 4q0 -10 2 -13l37 -86h-80zM1528 866h434q-24 -18 -48.5 -33.5t-51.5 -26.5q-27 -10 -56.5 -16t-60.5 -6q-32 0 -61 6t-56 16q-28 11 -52.5 26.5t-47.5 33.5zM1528 1350q22 20 46.5 35t50.5 26q54 20 120 21q31 0 60.5 -5t56.5 -16 q55 -25 98 -61h-432zM1565 901l422 426q80 -104 79 -219q0 -30 -4 -57t-14 -54q-9 -27 -22.5 -49.5t-30.5 -46.5h-430zM1583 74v186h115v-22h-92v-60h73v-20h-73v-64h92v-20h-115zM1612 0h47q8 0 16 -4t11 -9q15 -20 30.5 -42t30.5 -43q15 -22 30 -43t29 -41q6 -6 6 -13 q2 -3 2.5 -5.5t0.5 -4.5v205h53v-291h-49l-138 195q-4 4 -4 6q-2 4 -6 8q0 2 -4 6q0 2 -1 3t-1 3v-221h-53v291zM1620 459h117v26h-88v179h-29v-205zM1741 74v186h67q5 0 10.5 -1t10.5 -3q5 -3 9 -6t7 -6t6 -7.5t7 -9.5q2 -5 3 -10t1 -10t-1 -9t-3 -10q-2 -10 -9 -16 l-12 -12q-5 -2 -8 -3t-8 -3l59 -80h-12q-8 0 -11 2q-6 2 -10 8l-53 70h-31v-80h-22zM1763 174h45q8 0 13 2q3 2 5 3t5 3q2 3 3 5t3 4q2 4 3 7.5t1 8.5q0 4 -4 12q-2 3 -3 5t-3 5q-3 2 -5 3t-5 4q-4 2 -13 2h-45v-64zM1853 539q0 -6 0.5 -12t3.5 -11q1 -6 3 -10.5t4 -9.5 q3 -5 6 -9.5t8 -7.5q3 -3 7 -6t9 -6t10.5 -4.5t10.5 -3.5t10 -3t10 -1q6 0 12.5 1t11.5 3q12 3 19 8q5 3 8.5 6t8.5 6q3 3 6 7t6 10q5 7 8 20q2 5 3 10.5t1 12.5v125h-28v-125q0 -6 -1 -11.5t-3 -11.5q-3 -5 -5.5 -9t-7.5 -7q-3 -5 -7 -7.5t-8 -5.5q-7 -2 -12 -3t-12 -1 q-5 0 -10 1t-10 3q-5 3 -9 5.5t-8 7.5q-9 6 -12 16q-2 6 -3 11t-1 12v125h-29v-125zM1892 0h224v-51h-84v-240h-54v240h-86v51zM1896 104l5 2l1 2q1 0 1.5 0.5t1.5 0.5h4q8 0 12 -5q3 -5 7 -6.5t7 -3.5q5 -2 8.5 -2h8.5h6t8 2q6 0 12 6q7 3 11 11q4 10 4 14q0 9 -4 15 q-3 6 -9 10q-4 4 -12 8q-4 0 -14 4q-6 2 -11 4l-10 4q-9 3 -16 10q-3 2 -5.5 5.5t-3.5 5.5q-2 5 -3.5 10.5t-1.5 11.5q0 11 6 20q3 8 12 15q7 7 16 10q5 2 11 3t11 1q2 0 6 -1t7 -1q5 -2 8 -3t7 -3q3 -3 5.5 -4.5t4.5 -3.5l8 -8l-4 -5q-4 -4 -10 -4q-8 0 -11 2q-2 2 -3 2 t-3 3q-2 0 -2 1t-2 1t-3 1t-3 1h-5h-8t-7 -2q-3 0 -5.5 -1t-5.5 -4q-2 -3 -4 -5t-2 -5q-4 -4 -4 -10q0 -8 2 -10q2 -4 6 -8q5 -4 13 -7q3 -2 7 -3t9 -3q3 -2 5 -2t5 -2q4 0 8 -4q3 0 5.5 -1t5.5 -3q2 0 6 -4l8 -8t7 -8q1 -7 2 -12t1 -13q0 -6 -1 -11t-2 -12q-4 -5 -7 -9.5 t-8 -6.5q-7 -7 -21 -10q-5 -3 -10.5 -3.5t-11.5 -0.5q-27 0 -41 14q-2 2 -5 4.5t-5 5.5q-4 4 -5 8zM2048 496q0 -2 1 -3q0 -1 1 -1q2 -2 2 -3.5t2 -3.5q4 -4 4 -6q4 -5 8 -5q9 -10 20 -13.5t25 -3.5q8 0 14.5 0.5t11.5 3.5q15 3 24 13q11 10 16 20q3 6 3.5 12t0.5 12 q0 31 -20 45q-4 2 -9 6q-3 2 -5 2t-5 2q-4 2 -5.5 2t-4.5 3q-3 0 -5 1t-5 3q-5 2 -9.5 3t-7.5 3q-9 3 -12 6q-6 3 -6 7q-2 3 -2 11q0 6 2 11q2 2 3.5 4t4.5 4q2 0 10 4q4 2 13 2q3 0 5 -1t5 -1l12 -6q8 -4 12 -4q6 0 13 6l8 4q-2 3 -4.5 5t-5.5 5t-6.5 5t-6.5 5q-3 2 -7 3 t-9 4q-5 2 -8 3t-8 1q-6 0 -12 -1t-11 -3q-6 -2 -10.5 -5t-9.5 -6l-7 -7t-6 -9q-6 -9 -6 -23q0 -8 1.5 -12.5t3.5 -9.5q5 -11 14 -17q7 -7 16 -10q6 -3 11 -5t12 -5q3 -2 6 -2.5t8 -1.5l12 -6q3 -3 5.5 -5t4.5 -6q2 -3 3 -6t1 -8q0 -6 -4 -14q-3 -7 -10 -10q-5 -5 -14 -9 q-3 0 -7 -1t-8 -1q-5 0 -8 1t-6 1q-10 3 -12 9l-2 2q-6 6 -17 6q-8 0 -10 -4zM2054 74v186h23v-186h-23zM2120 166q0 6 1 12t3 12t3.5 12.5t4.5 12.5q4 5 7.5 9t8.5 9t9.5 8.5t9.5 6.5q10 7 21 10q7 2 13.5 3t14.5 1q6 0 12 -1t11 -3q12 -3 24 -10q12 -6 21 -15q5 -5 8 -9 t6 -9q3 -6 5.5 -12t4.5 -13q2 -6 2 -12v-12q0 -20 -6 -37q-8 -17 -20 -31q-16 -14 -31 -20q-20 -6 -37 -6q-23 0 -39 6q-17 6 -29 20q-6 6 -11.5 14t-8.5 17q-5 8 -6.5 18t-1.5 19zM2120 -229q2 0 6 4q4 0 8 4q2 0 4 1t4 1t4 0.5t4 0.5q6 0 13 -3q5 0 8 -1t6 -3q7 -7 16 -11 q5 -2 11 -3t12 -1h7t9 2q3 2 7.5 3.5t7.5 3.5q9 6 12 13q6 7 6 17q0 5 -1 8.5t-3 6.5q-3 3 -6 5.5t-6 4.5q-8 5 -17 8q-8 1 -18 8q-8 2 -15.5 4.5t-15.5 5.5t-14 7.5t-12 9.5q-10 10 -17 22q-8 13 -8 33q0 10 2.5 18.5t5.5 16.5q10 16 21 25q6 4 13 8.5t14 7.5q8 2 17 3 t17 1q6 0 12.5 -1t12.5 -3q13 -3 22 -11q6 -2 11 -6.5t10 -9.5q5 -3 8 -7t6 -9l-10 -8l-6 -4t-9 -4q-5 -2 -8 -3t-6 -1h-4h-4q-3 2 -5 3t-5 3q-2 2 -5 2t-4 2q-2 0 -3.5 1t-4.5 1q-2 2 -8 2h-6t-8 -2q-6 0 -10 -4q-3 -2 -6.5 -5t-4.5 -4q-2 -4 -2 -12t2 -10q1 -3 4 -5t7 -5 q3 -2 7 -3t9 -3t10.5 -4.5t13.5 -4.5l9 -4q9 -3 15.5 -6t14.5 -8q15 -8 23 -19q9 -9 12 -22q6 -12 6 -29q0 -11 -2.5 -19.5t-5.5 -17.5q-5 -9 -10.5 -16.5t-11.5 -14.5q-15 -11 -35 -18q-20 -6 -37 -6q-23 0 -41 6q-9 5 -17 10t-16 13q-5 5 -8 9t-6 9q-5 8 -8 17zM2140 166 q0 -5 1 -9t3 -10t3 -9.5t3 -8.5q3 -5 6.5 -8t6.5 -8q6 -6 14 -11q7 -5 18 -8q5 -2 10 -2h11h9t9 2q4 2 9 3.5t10 4.5q5 2 8 5l6 6q5 5 7 8t5 8q6 8 9 18q2 5 2 9.5v9.5q0 16 -6 29q-3 8 -7 13.5t-10 10.5q-10 10 -22 17q-6 2 -13.5 3t-15.5 1t-15.5 -1t-15.5 -3 q-12 -6 -22 -17q-5 -5 -9.5 -10.5t-7.5 -13.5q-6 -12 -6 -29zM2218 459h127v26h-100v62h79v28h-79v60h100v29h-127v-205zM2333 -262q0 3 1 6.5t1 5.5q4 8 7 10q4 6 11 7q8 4 12 4t13 -4q7 -1 10 -7q5 -3 5 -10q2 -2 3.5 -5.5t1.5 -6.5q0 -5 -5 -12q0 -5 -5 -11q-2 -2 -10 -6 q-4 -2 -13 -2q-8 0 -12 2q-8 4 -11 6q-2 3 -3.5 5t-3.5 6q0 3 -1 6t-1 6zM2345 74v186h14q13 0 17 -8l96 -135q2 -1 2 -2.5t2 -3.5v-5v154h23v-186h-21l-108 153l-3 2v2q0 2 -2 5v-162h-20zM2417 -145q0 20 6 39q2 9 5.5 17.5t8.5 16.5q5 9 11 16t12 15q8 6 14.5 11.5 t15.5 11.5l17 8.5t18 7.5q11 2 20.5 3t18.5 1t17 -0.5t16 -3.5q13 -3 31 -11q12 -5 26 -16q6 -5 12.5 -10.5t12.5 -11.5l-13 -14q-4 -3 -12 -7q-5 -2 -16 -2q-9 0 -19 6q-6 2 -12 6t-14 7q-6 2 -13.5 3t-15.5 1q-9 0 -18 -1.5t-17 -6.5q-9 -4 -16.5 -8.5t-13.5 -10.5 q-8 -8 -13 -14.5t-8 -16.5q-8 -16 -8 -36t8 -37q6 -19 21 -31q6 -6 13.5 -10.5t16.5 -9.5q15 -6 35 -7q8 0 15.5 1t13.5 3q14 3 26 13q2 2 4.5 2t4.5 2q3 1 5.5 1h4.5q8 0 16 -3q8 -4 12 -8l13 -11q-6 -6 -12.5 -11.5t-12.5 -10.5t-13 -9t-13 -8q-8 -5 -15.5 -6.5 t-15.5 -3.5q-8 -3 -16 -3.5t-17 -0.5q-14 0 -28.5 2.5t-28.5 7.5q-26 11 -47 33q-9 11 -17 22t-14 25q-12 28 -12 58zM2462 559q0 -9 1.5 -19.5t6.5 -19.5q3 -11 8.5 -18.5t11.5 -16.5q8 -6 17 -11.5t18 -8.5q16 -8 41 -8h13.5t13.5 2q8 3 14 5t12 7q5 3 10.5 6t10.5 8 q10 10 16 23q3 6 5.5 12t4.5 12l3.5 14t1.5 13q0 8 -1 15.5t-4 13.5q-2 8 -4.5 14t-5.5 12q-3 5 -7 10.5t-9 10.5t-10 8t-11 8q-6 3 -12 5.5t-14 5.5q-6 2 -13.5 3t-13.5 1q-8 0 -14.5 -1t-14.5 -3q-6 -2 -12 -5l-12 -6q-6 -5 -11 -8t-12 -8q-5 -5 -8 -10t-8 -11 q-3 -6 -5 -12t-5 -14q-2 -6 -2 -13.5v-15.5zM2488 559q0 18 6 31q3 8 7.5 13.5t9.5 10.5q6 6 12 10t12 7q8 3 15 4.5t16 1.5q16 0 29 -6q8 -3 13.5 -7t10.5 -10q6 -5 10 -10.5t7 -13.5q6 -12 6 -31q0 -13 -6 -29q-3 -6 -6.5 -12t-10.5 -12q-5 -5 -10.5 -9t-13.5 -8 q-12 -6 -29 -6q-9 0 -15.5 1.5t-15.5 4.5q-6 3 -12 7.5t-12 9.5q-5 6 -9 12l-8 12q-6 15 -6 29zM2634 74v186h114v-22h-94v-64h78v-20h-78v-80h-20zM2697 -145q0 20 6 39q3 9 6.5 17.5t8.5 16.5q5 9 10.5 16t13.5 15q13 13 29 23q9 4 17.5 8.5t17.5 7.5q11 2 20 3t21 1 q9 0 19 -1t20 -3q9 -3 17.5 -7.5t16.5 -8.5q9 -5 16 -11t15 -12q6 -8 12 -15t11 -16q5 -8 8.5 -16.5t5.5 -17.5q6 -18 6 -39q0 -20 -6 -39q-2 -9 -5.5 -18.5t-8.5 -18.5q-9 -15 -23 -29q-8 -6 -14.5 -11.5t-16.5 -10.5q-8 -6 -16.5 -10t-17.5 -7q-9 -2 -19.5 -3t-19.5 -1 q-15 0 -30 2.5t-30 7.5q-12 6 -24 14t-21 19q-22 22 -32 47q-7 14 -10 27.5t-3 30.5zM2707 459h29v172q2 -2 2 -3v-1q0 -4 2 -4q0 -4 2 -5l117 -159h23v205h-29v-160q0 5 -1 8t-3 6l-101 137q-4 4 -8 7q-2 0 -4.5 1t-7.5 1h-21v-205zM2750 -145q0 -9 2 -18.5t7 -18.5 q3 -9 8.5 -17t11.5 -14t14 -10.5t17 -9.5q15 -6 37 -7q18 0 37 7q8 5 15 9.5t15 10.5q6 6 11 14t10 17q6 18 6 37q0 18 -6 36q-5 9 -10 16t-11 15q-8 6 -15 10.5t-15 8.5q-16 8 -37 8q-24 0 -37 -8q-9 -4 -17 -8.5t-14 -10.5q-6 -8 -11.5 -14.5t-8.5 -16.5q-5 -9 -7 -18 t-2 -18zM2771 74v186h65q6 0 11 -1t10 -3q6 -3 9.5 -6t6.5 -6q9 -6 13 -17q2 -5 3 -10t1 -10v-9t-2 -10q-4 -9 -11 -16q-3 -6 -12 -12q-3 -2 -7.5 -3t-8.5 -3l61 -80h-12q-10 0 -14 2q-2 2 -4.5 3.5t-4.5 4.5l-51 70h-33v-80h-20zM2791 174h45q9 0 13 2q8 4 10 6q6 6 6 9 q2 4 3 7.5t1 8.5q0 4 -4 12q0 4 -6 10q-2 2 -10 7q-4 2 -13 2h-45v-64zM2929 166q0 6 1 12t3 12t3.5 12.5t6.5 12.5q2 5 5.5 9t7.5 9t9.5 8.5t10.5 6.5l11 5.5t11 4.5t12.5 3t12.5 1q8 0 14 -1t12 -3q11 -3 23 -10q12 -6 20 -15q5 -5 8.5 -9t6.5 -9l4 -12t4 -13 q3 -6 3.5 -12t0.5 -12q0 -9 -2 -19t-7 -18q-5 -18 -18 -31q-16 -14 -30 -20q-18 -6 -39 -6q-18 0 -37 6q-15 6 -30 20q-13 11 -19 31q-5 8 -6.5 18t-1.5 19zM2933 459h116v26h-90v179h-26v-205zM2949 166q0 -5 1 -9t1 -10q2 -6 4 -9.5t4 -8.5q3 -5 6.5 -8t6.5 -8 q6 -6 14 -11q5 -3 9 -4.5t9 -3.5t9.5 -2h9.5h10.5t9.5 2t9.5 3.5t9.5 4.5q5 2 8 5l6 6q5 5 7 8t5 8q6 8 9 18q2 5 2 9.5v9.5q0 16 -7 29q-3 8 -6.5 13.5t-9.5 10.5q-10 10 -22 17q-8 2 -15.5 3t-15.5 1q-6 0 -13.5 -1t-15.5 -3q-12 -6 -22 -17q-5 -5 -9.5 -10.5t-7.5 -13.5 q-6 -12 -6 -29zM3021 664l74 -101l1 -1q0 -1 0.5 -1.5t0.5 -1.5q2 -2 2 -3t2 -1v-5v-5v-86h28v86q0 2 1 3t1 2v2q0 1 2 3v1q0 1 2 3q0 4 5 4l71 101h-18q-10 0 -15 -5q-3 -2 -5.5 -5t-4.5 -5l-49 -65q-1 0 -2 -1v-1q0 -1 -0.5 -1.5t-0.5 -1.5l-1 -1v4v1l-2 1l-47 65 q-3 2 -5.5 5t-4.5 5q-5 2 -8.5 3.5t-8.5 1.5h-18zM3031 0h53q3 0 6.5 -1t6.5 -1q2 -2 4 -2t4 -2q3 -2 4.5 -4.5t3.5 -3.5q2 -2 3 -4t3 -5q9 -24 17.5 -45t17.5 -43q9 -24 18 -45t17 -43q2 -2 2 -6q0 -2 1 -3t1 -3v-7v-1l2 1v7q0 4 2 6v6l10 21l62 155q0 5 6 9q3 5 8 8 q2 2 5 2t5 2q2 0 4.5 1t5.5 1h54v-291h-54v213q-2 -3 -3 -6t-1 -8q-2 -5 -3 -8t-3 -6l-37 -93q-9 -24 -18 -46t-21 -46h-47l-75 185q-2 3 -3.5 6t-3.5 8q0 4 -4 12v-211h-53v291zM3160 74v186h16q4 0 9 -4q6 -3 6 -8l65 -144v-4q2 -2 2 -3v-1v4.5t2 5.5t2 5.5t1 5.5l61 131 q0 5 6 8q4 4 8 4h19v-186h-21v153h-2v-4v-2q0 -1 -1 -2h-1q-5 -11 -9 -21.5t-7 -19.5q-5 -11 -9.5 -19t-7.5 -19q-5 -8 -9 -16.5t-7 -17.5t-7 -16.5t-7 -15.5h-23q-8 17 -15 35t-16 36t-16.5 37t-15.5 37q-2 0 -2 4v4v-153h-21z" />
<glyph unicode="5" horiz-adv-x="3575" d="M125 166q0 6 1 12t3 12t4.5 12.5t5.5 12.5q3 5 6 9t9 9q8 8 20 15q11 7 23 10q6 2 12 3t12 1q11 0 20.5 -2.5t18.5 -5.5q8 -5 15.5 -9.5t13.5 -11.5q0 -2 -1 -2t-3 -2l-2 -2q-2 -2 -3 -2h-1h-7h-4t-4 2q-5 3 -9.5 6t-10.5 5q-5 2 -11 2h-12q-8 0 -15 -1t-15 -3 q-12 -7 -21 -17q-6 -5 -9.5 -10.5t-6.5 -13.5q-6 -12 -7 -29v-9t3 -10q2 -10 8 -18q3 -5 6 -8t6 -8q6 -6 14 -11q5 -3 9.5 -4.5t9.5 -3.5t9.5 -2h10.5h12.5t12.5 2t11 4.5l11 5.5v39h-14q-2 0 -4 1t-4 1q-2 2 -3 2t-3 3q0 2 -1 3t-1 3q-2 2 -2 6v2h51v-72q-3 -5 -6 -7t-9 -5 q-3 -2 -6 -3t-8 -1q-5 -2 -9 -3t-9 -1h-21h-12t-12 2q-11 3 -23 10q-12 6 -20 14q-9 9 -15 21q-7 10 -10 21q-2 7 -3 13.5t-1 12.5zM125 -274q0 4 1 7.5t1 6.5q2 3 2 6t2 6l6 12q4 3 8 11l129 174h-141v51h215v-25v-14q-2 -3 -3 -6t-3 -6l-145 -193q2 0 4 2q2 0 4 2h4h139 v-51h-223v17zM133 326v784h1223q0 81 30 154q32 73 84 125q54 51 125 81q71 31 150 31q87 0 156 -33q71 -34 122 -86q51 -54 82 -125t31 -147h1221v-784h-3224zM301 459h29v76h45q6 0 12 1t12 3q12 6 21 14q8 8 14 20q2 6 3 12.5t1 12.5q0 8 -1 14t-3 13q-3 5 -6 9t-8 9 t-9.5 8.5t-11.5 5.5q-12 6 -24 7h-74v-205zM330 561v74h45q3 0 6 -1t8 -3q3 0 5.5 -2t4.5 -4q4 -4 9 -13q2 -4 2 -14v-7t-2 -7q-4 -8 -9 -11q-4 -5 -10 -8q-5 -2 -8 -3t-6 -1h-45zM336 74v186h113v-22h-93v-60h74v-20h-74v-64h93v-20h-113zM385 0h186v-51h-133v-68h107v-51 h-107v-70h133v-51h-186v291zM459 459h127v26h-99v62h80v28h-80v60h99v29h-127v-205zM471 238v22h141v-22h-59v-164h-23v164h-59zM582 0h223v-51h-86v-240h-53v240h-84v51zM629 459h28v84h31l53 -72q3 -7 11 -10q2 -2 6.5 -2h9.5h18l-65 88q5 2 9 3t7 5q8 3 15 12q5 6 8 17 q2 5 2 9v8q0 8 -0.5 14t-3.5 12q-2 5 -5.5 9t-7.5 9q-9 9 -18 12q-12 6 -25 7h-73v-205zM657 571v64h45q4 0 13 -4q7 0 10 -6q3 -2 4.5 -4.5t3.5 -4.5q0 -3 1 -6.5t1 -8.5q0 -2 -1 -5t-1 -6q-2 -2 -3.5 -4.5t-4.5 -5.5q-2 -2 -10 -7q-4 -2 -13 -2h-45zM729 74v186h113v-22 h-92v-64h77v-20h-77v-80h-21zM760 -291l127 291h49l125 -291h-33q-11 0 -20 6q-5 3 -8.5 7.5t-6.5 8.5l-16 40h-131l-19 -40q0 -3 -4 -7q-2 -3 -4 -5l-4 -4q-3 -2 -5 -3t-5 -1q-3 -2 -5.5 -2h-4.5h-35zM795 496q2 -2 2 -3t2 -1q0 -2 1 -3.5t1 -3.5q4 -4 5 -6q4 -5 7 -5 q9 -10 20 -13.5t25 -3.5q8 0 14.5 0.5t14.5 3.5q11 3 20 13q12 10 17 20q6 12 6 24q0 29 -23 45q-2 2 -4 3t-4 3q-3 2 -5 2t-5 2q-2 2 -4 2t-6 3q-2 0 -11 4q-5 2 -9 3t-7 3q-5 2 -7 3t-5 3q-4 4 -6 7q-1 3 -1 11q0 6 1 11q2 2 3.5 4t4.5 4q2 0 10 4q4 2 12 2q3 0 5.5 -1 t4.5 -1q3 -2 7 -3t6 -3q8 -4 12 -4q8 0 14 6l7 4q-2 3 -5 5t-6 5t-6 5t-6 5q-3 2 -7 3t-9 4q-8 4 -17 4q-6 0 -11 -1t-11 -3t-11 -5l-10 -6q-3 -3 -6 -7t-6 -9q-6 -9 -6 -23q0 -8 1.5 -12.5t4.5 -9.5q3 -10 12 -17q7 -7 19 -10q5 -3 9.5 -5t10.5 -5q3 -2 6 -2.5t8 -1.5 q3 -2 7 -3t6 -3q3 -3 5.5 -5t4.5 -6q2 -3 3 -6t1 -8q0 -6 -4 -14q-3 -7 -10 -10q-2 -3 -5.5 -5t-7.5 -4q-5 0 -8 -1t-8 -1q-3 0 -7 1t-7 1q-8 4 -11 9l-4 2q-6 6 -16 6q-7 0 -10 -4zM868 -176h86l-39 88q-2 3 -2 5.5t-2 4.5v8q0 -4 -2 -8q0 -2 -1 -4.5t-1 -5.5zM879 145v115 h20v-115q0 -6 0.5 -10.5t3.5 -9.5q2 -6 4.5 -9.5t5.5 -9.5q5 -3 9 -5.5t10 -4.5q5 -3 9.5 -3.5t10.5 -0.5t11 0.5t10 3.5q11 4 16 10q5 5 7 9l5 10q2 5 3.5 9.5t1.5 10.5v115h20v-115q0 -16 -6 -28q-3 -8 -6 -14t-8 -11q-6 -5 -12.5 -9t-12.5 -7q-6 -2 -13 -3t-16 -1 q-8 0 -15 1t-13 3q-13 5 -25 16q-5 5 -9 11t-6 14q-4 6 -4.5 13t-0.5 15zM952 559q0 -9 1.5 -19.5t7.5 -19.5q5 -11 10.5 -18.5t11.5 -16.5q8 -6 16 -11.5t17 -8.5q19 -8 41 -8h14t14 2q6 3 12.5 5t12.5 7q10 5 23 14q3 5 7 11t7 12q5 6 7 12t5 12q2 8 2 14v13v15.5t-2 13.5 q-3 8 -5 14t-7 12q-3 5 -7 10.5t-7 10.5q-6 5 -11.5 8t-11.5 8q-6 3 -12 5.5t-13 5.5q-8 2 -14 3t-14 1q-6 0 -13.5 -1t-13.5 -3q-8 -2 -14 -5l-12 -6q-5 -5 -10.5 -8t-10.5 -8t-9 -10t-7 -11l-6 -12t-5 -14q-2 -6 -3 -13.5t-1 -15.5zM981 559q0 18 6 31q3 8 6.5 13.5 t10.5 10.5q5 6 10.5 10t13.5 7q13 6 29 6q15 0 30 -6q6 -3 12.5 -7t12.5 -10q11 -11 16 -24q6 -12 7 -31q0 -13 -7 -29q-3 -6 -7 -12t-9 -12q-6 -5 -12 -9t-13 -8q-15 -6 -30 -6t-29 6q-13 5 -24 17q-6 6 -10 12t-7 12q-6 15 -6 29zM1065 74v186h22v-166h82v-20h-104z M1073 0h187v-51h-134v-74h111v-51h-111v-115h-53v291zM1194 74v186h20v-166h82v-20h-102zM1200 459h29v172v-4q2 -2 2 -3v-1q0 -2 1 -3q0 -1 1 -2l117 -159h24v205h-28v-160q0 5 -1.5 8t-3.5 6l-100 137q-4 4 -8 7q-3 0 -6 1t-6 1h-21v-205zM1278 -145q0 9 0.5 19t3.5 20 q3 9 6 17.5t8 16.5q5 9 11 16t14 15q13 13 29 23q9 4 17 8.5t17 7.5q11 2 20.5 3t20.5 1t20.5 -1t18.5 -3q9 -3 18 -7.5l17 -8.5q9 -5 17 -11t14 -12q6 -8 11.5 -15t10.5 -16q5 -8 9 -16.5t6 -17.5q6 -18 6 -39q0 -20 -6 -39q-2 -9 -5.5 -18.5t-9.5 -18.5q-9 -15 -22 -29 q-6 -6 -14 -11.5t-17 -10.5q-8 -6 -16.5 -10t-18.5 -7q-9 -2 -18 -3t-21 -1q-15 0 -30 2.5t-27 7.5q-14 6 -26 14t-21 19q-22 22 -33 47q-6 14 -8 27.5t-2 30.5zM1329 -145q0 -9 2.5 -18.5t5.5 -18.5q10 -20 21 -31q6 -6 13.5 -10.5t17.5 -9.5q15 -6 36 -7q18 0 37 7 q7 5 15 9.5t16 10.5q6 6 10.5 14t9.5 17q6 18 7 37q0 18 -7 36q-5 9 -9.5 16t-10.5 15q-8 6 -16 10.5t-15 8.5q-16 8 -37 8q-24 0 -36 -8q-9 -4 -17 -8.5t-14 -10.5q-6 -8 -11 -14.5t-10 -16.5q-3 -9 -5.5 -18t-2.5 -18zM1386 260h11q3 0 5 -1t5 -3q2 -2 4 -3.5t2 -4.5 l62 -139q0 -2 1 -3.5t1 -3.5v-6v6q2 2 2 7q8 17 15 34.5t15 34.5q8 18 15.5 35t15.5 35q2 4 6 8q8 4 10 4h13q-11 -24 -21.5 -47.5t-19.5 -46.5q-11 -24 -20.5 -46.5t-20.5 -45.5h-21zM1386 1108q0 -71 29 -137q14 -33 32.5 -61.5t43.5 -53.5q46 -49 113 -78q65 -31 141 -30 q73 0 139 28q65 28 115 78q25 24 43.5 52t34.5 61q27 66 26 141q0 34 -4.5 64.5t-15.5 58.5q-9 27 -24 53t-34 49q-18 22 -38.5 40.5t-44.5 35.5q-25 14 -50.5 25.5t-52.5 19.5q-22 8 -44.5 11t-49.5 3q-76 0 -143 -30q-33 -14 -61 -34t-52 -44q-25 -25 -43.5 -53.5 t-32.5 -61.5q-12 -33 -19.5 -66.5t-7.5 -70.5zM1393 459h16q8 0 11 2q7 5 10 10l14 33h104l15 -33q4 -8 8 -10q2 -2 5.5 -2h6.5h16l-88 205h-28zM1423 1108q0 58 19 111q8 27 21.5 49.5t31.5 46.5h428l-420 -424q-20 24 -35 48.5t-24 51.5q-11 27 -16 56.5t-5 60.5z M1456 532l37 86q2 2 2 5q0 2 1 4t1 4q0 -10 2 -13l37 -86h-80zM1528 866h434q-24 -18 -48.5 -33.5t-51.5 -26.5q-27 -10 -56.5 -16t-60.5 -6q-32 0 -61 6t-56 16q-28 11 -52.5 26.5t-47.5 33.5zM1528 1350q22 20 46.5 35t50.5 26q54 20 120 21q31 0 60.5 -5t56.5 -16 q55 -25 98 -61h-432zM1565 901l422 426q80 -104 79 -219q0 -30 -4 -57t-14 -54q-9 -27 -22.5 -49.5t-30.5 -46.5h-430zM1583 74v186h115v-22h-92v-60h73v-20h-73v-64h92v-20h-115zM1612 0h47q8 0 16 -4t11 -9q15 -20 30.5 -42t30.5 -43q15 -22 30 -43t29 -41q6 -6 6 -13 q2 -3 2.5 -5.5t0.5 -4.5v205h53v-291h-49l-138 195q-4 4 -4 6q-2 4 -6 8q0 2 -4 6q0 2 -1 3t-1 3v-221h-53v291zM1620 459h117v26h-88v179h-29v-205zM1741 74v186h67q5 0 10.5 -1t10.5 -3q5 -3 9 -6t7 -6t6 -7.5t7 -9.5q2 -5 3 -10t1 -10t-1 -9t-3 -10q-2 -10 -9 -16 l-12 -12q-5 -2 -8 -3t-8 -3l59 -80h-12q-8 0 -11 2q-6 2 -10 8l-53 70h-31v-80h-22zM1763 174h45q8 0 13 2q3 2 5 3t5 3q2 3 3 5t3 4q2 4 3 7.5t1 8.5q0 4 -4 12q-2 3 -3 5t-3 5q-3 2 -5 3t-5 4q-4 2 -13 2h-45v-64zM1853 539q0 -6 0.5 -12t3.5 -11q1 -6 3 -10.5t4 -9.5 q3 -5 6 -9.5t8 -7.5q3 -3 7 -6t9 -6t10.5 -4.5t10.5 -3.5t10 -3t10 -1q6 0 12.5 1t11.5 3q12 3 19 8q5 3 8.5 6t8.5 6q3 3 6 7t6 10q5 7 8 20q2 5 3 10.5t1 12.5v125h-28v-125q0 -6 -1 -11.5t-3 -11.5q-3 -5 -5.5 -9t-7.5 -7q-3 -5 -7 -7.5t-8 -5.5q-7 -2 -12 -3t-12 -1 q-5 0 -10 1t-10 3q-5 3 -9 5.5t-8 7.5q-9 6 -12 16q-2 6 -3 11t-1 12v125h-29v-125zM1892 0h224v-51h-84v-240h-54v240h-86v51zM1896 104l5 2l1 2q1 0 1.5 0.5t1.5 0.5h4q8 0 12 -5q3 -5 7 -6.5t7 -3.5q5 -2 8.5 -2h8.5h6t8 2q6 0 12 6q7 3 11 11q4 10 4 14q0 9 -4 15 q-3 6 -9 10q-4 4 -12 8q-4 0 -14 4q-6 2 -11 4l-10 4q-9 3 -16 10q-3 2 -5.5 5.5t-3.5 5.5q-2 5 -3.5 10.5t-1.5 11.5q0 11 6 20q3 8 12 15q7 7 16 10q5 2 11 3t11 1q2 0 6 -1t7 -1q5 -2 8 -3t7 -3q3 -3 5.5 -4.5t4.5 -3.5l8 -8l-4 -5q-4 -4 -10 -4q-8 0 -11 2q-2 2 -3 2 t-3 3q-2 0 -2 1t-2 1t-3 1t-3 1h-5h-8t-7 -2q-3 0 -5.5 -1t-5.5 -4q-2 -3 -4 -5t-2 -5q-4 -4 -4 -10q0 -8 2 -10q2 -4 6 -8q5 -4 13 -7q3 -2 7 -3t9 -3q3 -2 5 -2t5 -2q4 0 8 -4q3 0 5.5 -1t5.5 -3q2 0 6 -4l8 -8t7 -8q1 -7 2 -12t1 -13q0 -6 -1 -11t-2 -12q-4 -5 -7 -9.5 t-8 -6.5q-7 -7 -21 -10q-5 -3 -10.5 -3.5t-11.5 -0.5q-27 0 -41 14q-2 2 -5 4.5t-5 5.5q-4 4 -5 8zM2048 496q0 -2 1 -3q0 -1 1 -1q2 -2 2 -3.5t2 -3.5q4 -4 4 -6q4 -5 8 -5q9 -10 20 -13.5t25 -3.5q8 0 14.5 0.5t11.5 3.5q15 3 24 13q11 10 16 20q3 6 3.5 12t0.5 12 q0 31 -20 45q-4 2 -9 6q-3 2 -5 2t-5 2q-4 2 -5.5 2t-4.5 3q-3 0 -5 1t-5 3q-5 2 -9.5 3t-7.5 3q-9 3 -12 6q-6 3 -6 7q-2 3 -2 11q0 6 2 11q2 2 3.5 4t4.5 4q2 0 10 4q4 2 13 2q3 0 5 -1t5 -1l12 -6q8 -4 12 -4q6 0 13 6l8 4q-2 3 -4.5 5t-5.5 5t-6.5 5t-6.5 5q-3 2 -7 3 t-9 4q-5 2 -8 3t-8 1q-6 0 -12 -1t-11 -3q-6 -2 -10.5 -5t-9.5 -6l-7 -7t-6 -9q-6 -9 -6 -23q0 -8 1.5 -12.5t3.5 -9.5q5 -11 14 -17q7 -7 16 -10q6 -3 11 -5t12 -5q3 -2 6 -2.5t8 -1.5l12 -6q3 -3 5.5 -5t4.5 -6q2 -3 3 -6t1 -8q0 -6 -4 -14q-3 -7 -10 -10q-5 -5 -14 -9 q-3 0 -7 -1t-8 -1q-5 0 -8 1t-6 1q-10 3 -12 9l-2 2q-6 6 -17 6q-8 0 -10 -4zM2054 74v186h23v-186h-23zM2120 166q0 6 1 12t3 12t3.5 12.5t4.5 12.5q4 5 7.5 9t8.5 9t9.5 8.5t9.5 6.5q10 7 21 10q7 2 13.5 3t14.5 1q6 0 12 -1t11 -3q12 -3 24 -10q12 -6 21 -15q5 -5 8 -9 t6 -9q3 -6 5.5 -12t4.5 -13q2 -6 2 -12v-12q0 -20 -6 -37q-8 -17 -20 -31q-16 -14 -31 -20q-20 -6 -37 -6q-23 0 -39 6q-17 6 -29 20q-6 6 -11.5 14t-8.5 17q-5 8 -6.5 18t-1.5 19zM2120 -229q2 0 6 4q4 0 8 4q2 0 4 1t4 1t4 0.5t4 0.5q6 0 13 -3q5 0 8 -1t6 -3q7 -7 16 -11 q5 -2 11 -3t12 -1h7t9 2q3 2 7.5 3.5t7.5 3.5q9 6 12 13q6 7 6 17q0 5 -1 8.5t-3 6.5q-3 3 -6 5.5t-6 4.5q-8 5 -17 8q-8 1 -18 8q-8 2 -15.5 4.5t-15.5 5.5t-14 7.5t-12 9.5q-10 10 -17 22q-8 13 -8 33q0 10 2.5 18.5t5.5 16.5q10 16 21 25q6 4 13 8.5t14 7.5q8 2 17 3 t17 1q6 0 12.5 -1t12.5 -3q13 -3 22 -11q6 -2 11 -6.5t10 -9.5q5 -3 8 -7t6 -9l-10 -8l-6 -4t-9 -4q-5 -2 -8 -3t-6 -1h-4h-4q-3 2 -5 3t-5 3q-2 2 -5 2t-4 2q-2 0 -3.5 1t-4.5 1q-2 2 -8 2h-6t-8 -2q-6 0 -10 -4q-3 -2 -6.5 -5t-4.5 -4q-2 -4 -2 -12t2 -10q1 -3 4 -5t7 -5 q3 -2 7 -3t9 -3t10.5 -4.5t13.5 -4.5l9 -4q9 -3 15.5 -6t14.5 -8q15 -8 23 -19q9 -9 12 -22q6 -12 6 -29q0 -11 -2.5 -19.5t-5.5 -17.5q-5 -9 -10.5 -16.5t-11.5 -14.5q-15 -11 -35 -18q-20 -6 -37 -6q-23 0 -41 6q-9 5 -17 10t-16 13q-5 5 -8 9t-6 9q-5 8 -8 17zM2140 166 q0 -5 1 -9t3 -10t3 -9.5t3 -8.5q3 -5 6.5 -8t6.5 -8q6 -6 14 -11q7 -5 18 -8q5 -2 10 -2h11h9t9 2q4 2 9 3.5t10 4.5q5 2 8 5l6 6q5 5 7 8t5 8q6 8 9 18q2 5 2 9.5v9.5q0 16 -6 29q-3 8 -7 13.5t-10 10.5q-10 10 -22 17q-6 2 -13.5 3t-15.5 1t-15.5 -1t-15.5 -3 q-12 -6 -22 -17q-5 -5 -9.5 -10.5t-7.5 -13.5q-6 -12 -6 -29zM2218 459h127v26h-100v62h79v28h-79v60h100v29h-127v-205zM2333 -262q0 3 1 6.5t1 5.5q4 8 7 10q4 6 11 7q8 4 12 4t13 -4q7 -1 10 -7q5 -3 5 -10q2 -2 3.5 -5.5t1.5 -6.5q0 -5 -5 -12q0 -5 -5 -11q-2 -2 -10 -6 q-4 -2 -13 -2q-8 0 -12 2q-8 4 -11 6q-2 3 -3.5 5t-3.5 6q0 3 -1 6t-1 6zM2345 74v186h14q13 0 17 -8l96 -135q2 -1 2 -2.5t2 -3.5v-5v154h23v-186h-21l-108 153l-3 2v2q0 2 -2 5v-162h-20zM2417 -145q0 20 6 39q2 9 5.5 17.5t8.5 16.5q5 9 11 16t12 15q8 6 14.5 11.5 t15.5 11.5l17 8.5t18 7.5q11 2 20.5 3t18.5 1t17 -0.5t16 -3.5q13 -3 31 -11q12 -5 26 -16q6 -5 12.5 -10.5t12.5 -11.5l-13 -14q-4 -3 -12 -7q-5 -2 -16 -2q-9 0 -19 6q-6 2 -12 6t-14 7q-6 2 -13.5 3t-15.5 1q-9 0 -18 -1.5t-17 -6.5q-9 -4 -16.5 -8.5t-13.5 -10.5 q-8 -8 -13 -14.5t-8 -16.5q-8 -16 -8 -36t8 -37q6 -19 21 -31q6 -6 13.5 -10.5t16.5 -9.5q15 -6 35 -7q8 0 15.5 1t13.5 3q14 3 26 13q2 2 4.5 2t4.5 2q3 1 5.5 1h4.5q8 0 16 -3q8 -4 12 -8l13 -11q-6 -6 -12.5 -11.5t-12.5 -10.5t-13 -9t-13 -8q-8 -5 -15.5 -6.5 t-15.5 -3.5q-8 -3 -16 -3.5t-17 -0.5q-14 0 -28.5 2.5t-28.5 7.5q-26 11 -47 33q-9 11 -17 22t-14 25q-12 28 -12 58zM2462 559q0 -9 1.5 -19.5t6.5 -19.5q3 -11 8.5 -18.5t11.5 -16.5q8 -6 17 -11.5t18 -8.5q16 -8 41 -8h13.5t13.5 2q8 3 14 5t12 7q5 3 10.5 6t10.5 8 q10 10 16 23q3 6 5.5 12t4.5 12l3.5 14t1.5 13q0 8 -1 15.5t-4 13.5q-2 8 -4.5 14t-5.5 12q-3 5 -7 10.5t-9 10.5t-10 8t-11 8q-6 3 -12 5.5t-14 5.5q-6 2 -13.5 3t-13.5 1q-8 0 -14.5 -1t-14.5 -3q-6 -2 -12 -5l-12 -6q-6 -5 -11 -8t-12 -8q-5 -5 -8 -10t-8 -11 q-3 -6 -5 -12t-5 -14q-2 -6 -2 -13.5v-15.5zM2488 559q0 18 6 31q3 8 7.5 13.5t9.5 10.5q6 6 12 10t12 7q8 3 15 4.5t16 1.5q16 0 29 -6q8 -3 13.5 -7t10.5 -10q6 -5 10 -10.5t7 -13.5q6 -12 6 -31q0 -13 -6 -29q-3 -6 -6.5 -12t-10.5 -12q-5 -5 -10.5 -9t-13.5 -8 q-12 -6 -29 -6q-9 0 -15.5 1.5t-15.5 4.5q-6 3 -12 7.5t-12 9.5q-5 6 -9 12l-8 12q-6 15 -6 29zM2634 74v186h114v-22h-94v-64h78v-20h-78v-80h-20zM2697 -145q0 20 6 39q3 9 6.5 17.5t8.5 16.5q5 9 10.5 16t13.5 15q13 13 29 23q9 4 17.5 8.5t17.5 7.5q11 2 20 3t21 1 q9 0 19 -1t20 -3q9 -3 17.5 -7.5t16.5 -8.5q9 -5 16 -11t15 -12q6 -8 12 -15t11 -16q5 -8 8.5 -16.5t5.5 -17.5q6 -18 6 -39q0 -20 -6 -39q-2 -9 -5.5 -18.5t-8.5 -18.5q-9 -15 -23 -29q-8 -6 -14.5 -11.5t-16.5 -10.5q-8 -6 -16.5 -10t-17.5 -7q-9 -2 -19.5 -3t-19.5 -1 q-15 0 -30 2.5t-30 7.5q-12 6 -24 14t-21 19q-22 22 -32 47q-7 14 -10 27.5t-3 30.5zM2707 459h29v172q2 -2 2 -3v-1q0 -4 2 -4q0 -4 2 -5l117 -159h23v205h-29v-160q0 5 -1 8t-3 6l-101 137q-4 4 -8 7q-2 0 -4.5 1t-7.5 1h-21v-205zM2750 -145q0 -9 2 -18.5t7 -18.5 q3 -9 8.5 -17t11.5 -14t14 -10.5t17 -9.5q15 -6 37 -7q18 0 37 7q8 5 15 9.5t15 10.5q6 6 11 14t10 17q6 18 6 37q0 18 -6 36q-5 9 -10 16t-11 15q-8 6 -15 10.5t-15 8.5q-16 8 -37 8q-24 0 -37 -8q-9 -4 -17 -8.5t-14 -10.5q-6 -8 -11.5 -14.5t-8.5 -16.5q-5 -9 -7 -18 t-2 -18zM2771 74v186h65q6 0 11 -1t10 -3q6 -3 9.5 -6t6.5 -6q9 -6 13 -17q2 -5 3 -10t1 -10v-9t-2 -10q-4 -9 -11 -16q-3 -6 -12 -12q-3 -2 -7.5 -3t-8.5 -3l61 -80h-12q-10 0 -14 2q-2 2 -4.5 3.5t-4.5 4.5l-51 70h-33v-80h-20zM2791 174h45q9 0 13 2q8 4 10 6q6 6 6 9 q2 4 3 7.5t1 8.5q0 4 -4 12q0 4 -6 10q-2 2 -10 7q-4 2 -13 2h-45v-64zM2929 166q0 6 1 12t3 12t3.5 12.5t6.5 12.5q2 5 5.5 9t7.5 9t9.5 8.5t10.5 6.5l11 5.5t11 4.5t12.5 3t12.5 1q8 0 14 -1t12 -3q11 -3 23 -10q12 -6 20 -15q5 -5 8.5 -9t6.5 -9l4 -12t4 -13 q3 -6 3.5 -12t0.5 -12q0 -9 -2 -19t-7 -18q-5 -18 -18 -31q-16 -14 -30 -20q-18 -6 -39 -6q-18 0 -37 6q-15 6 -30 20q-13 11 -19 31q-5 8 -6.5 18t-1.5 19zM2933 459h116v26h-90v179h-26v-205zM2949 166q0 -5 1 -9t1 -10q2 -6 4 -9.5t4 -8.5q3 -5 6.5 -8t6.5 -8 q6 -6 14 -11q5 -3 9 -4.5t9 -3.5t9.5 -2h9.5h10.5t9.5 2t9.5 3.5t9.5 4.5q5 2 8 5l6 6q5 5 7 8t5 8q6 8 9 18q2 5 2 9.5v9.5q0 16 -7 29q-3 8 -6.5 13.5t-9.5 10.5q-10 10 -22 17q-8 2 -15.5 3t-15.5 1q-6 0 -13.5 -1t-15.5 -3q-12 -6 -22 -17q-5 -5 -9.5 -10.5t-7.5 -13.5 q-6 -12 -6 -29zM3021 664l74 -101l1 -1q0 -1 0.5 -1.5t0.5 -1.5q2 -2 2 -3t2 -1v-5v-5v-86h28v86q0 2 1 3t1 2v2q0 1 2 3v1q0 1 2 3q0 4 5 4l71 101h-18q-10 0 -15 -5q-3 -2 -5.5 -5t-4.5 -5l-49 -65q-1 0 -2 -1v-1q0 -1 -0.5 -1.5t-0.5 -1.5l-1 -1v4v1l-2 1l-47 65 q-3 2 -5.5 5t-4.5 5q-5 2 -8.5 3.5t-8.5 1.5h-18zM3031 0h53q3 0 6.5 -1t6.5 -1q2 -2 4 -2t4 -2q3 -2 4.5 -4.5t3.5 -3.5q2 -2 3 -4t3 -5q9 -24 17.5 -45t17.5 -43q9 -24 18 -45t17 -43q2 -2 2 -6q0 -2 1 -3t1 -3v-7v-1l2 1v7q0 4 2 6v6l10 21l62 155q0 5 6 9q3 5 8 8 q2 2 5 2t5 2q2 0 4.5 1t5.5 1h54v-291h-54v213q-2 -3 -3 -6t-1 -8q-2 -5 -3 -8t-3 -6l-37 -93q-9 -24 -18 -46t-21 -46h-47l-75 185q-2 3 -3.5 6t-3.5 8q0 4 -4 12v-211h-53v291zM3160 74v186h16q4 0 9 -4q6 -3 6 -8l65 -144v-4q2 -2 2 -3v-1v4.5t2 5.5t2 5.5t1 5.5l61 131 q0 5 6 8q4 4 8 4h19v-186h-21v153h-2v-4v-2q0 -1 -1 -2h-1q-5 -11 -9 -21.5t-7 -19.5q-5 -11 -9.5 -19t-7.5 -19q-5 -8 -9 -16.5t-7 -17.5t-7 -16.5t-7 -15.5h-23q-8 17 -15 35t-16 36t-16.5 37t-15.5 37q-2 0 -2 4v4v-153h-21z" />
<glyph unicode="6" horiz-adv-x="3575" d="M125 166q0 6 1 12t3 12t4.5 12.5t5.5 12.5q3 5 6 9t9 9q8 8 20 15q11 7 23 10q6 2 12 3t12 1q11 0 20.5 -2.5t18.5 -5.5q8 -5 15.5 -9.5t13.5 -11.5q0 -2 -1 -2t-3 -2l-2 -2q-2 -2 -3 -2h-1h-7h-4t-4 2q-5 3 -9.5 6t-10.5 5q-5 2 -11 2h-12q-8 0 -15 -1t-15 -3 q-12 -7 -21 -17q-6 -5 -9.5 -10.5t-6.5 -13.5q-6 -12 -7 -29v-9t3 -10q2 -10 8 -18q3 -5 6 -8t6 -8q6 -6 14 -11q5 -3 9.5 -4.5t9.5 -3.5t9.5 -2h10.5h12.5t12.5 2t11 4.5l11 5.5v39h-14q-2 0 -4 1t-4 1q-2 2 -3 2t-3 3q0 2 -1 3t-1 3q-2 2 -2 6v2h51v-72q-3 -5 -6 -7t-9 -5 q-3 -2 -6 -3t-8 -1q-5 -2 -9 -3t-9 -1h-21h-12t-12 2q-11 3 -23 10q-12 6 -20 14q-9 9 -15 21q-7 10 -10 21q-2 7 -3 13.5t-1 12.5zM125 -274q0 4 1 7.5t1 6.5q2 3 2 6t2 6l6 12q4 3 8 11l129 174h-141v51h215v-25v-14q-2 -3 -3 -6t-3 -6l-145 -193q2 0 4 2q2 0 4 2h4h139 v-51h-223v17zM133 326v784h1223q0 81 30 154q32 73 84 125q54 51 125 81q71 31 150 31q87 0 156 -33q71 -34 122 -86q51 -54 82 -125t31 -147h1221v-784h-3224zM301 459h29v76h45q6 0 12 1t12 3q12 6 21 14q8 8 14 20q2 6 3 12.5t1 12.5q0 8 -1 14t-3 13q-3 5 -6 9t-8 9 t-9.5 8.5t-11.5 5.5q-12 6 -24 7h-74v-205zM330 561v74h45q3 0 6 -1t8 -3q3 0 5.5 -2t4.5 -4q4 -4 9 -13q2 -4 2 -14v-7t-2 -7q-4 -8 -9 -11q-4 -5 -10 -8q-5 -2 -8 -3t-6 -1h-45zM336 74v186h113v-22h-93v-60h74v-20h-74v-64h93v-20h-113zM385 0h186v-51h-133v-68h107v-51 h-107v-70h133v-51h-186v291zM459 459h127v26h-99v62h80v28h-80v60h99v29h-127v-205zM471 238v22h141v-22h-59v-164h-23v164h-59zM582 0h223v-51h-86v-240h-53v240h-84v51zM629 459h28v84h31l53 -72q3 -7 11 -10q2 -2 6.5 -2h9.5h18l-65 88q5 2 9 3t7 5q8 3 15 12q5 6 8 17 q2 5 2 9v8q0 8 -0.5 14t-3.5 12q-2 5 -5.5 9t-7.5 9q-9 9 -18 12q-12 6 -25 7h-73v-205zM657 571v64h45q4 0 13 -4q7 0 10 -6q3 -2 4.5 -4.5t3.5 -4.5q0 -3 1 -6.5t1 -8.5q0 -2 -1 -5t-1 -6q-2 -2 -3.5 -4.5t-4.5 -5.5q-2 -2 -10 -7q-4 -2 -13 -2h-45zM729 74v186h113v-22 h-92v-64h77v-20h-77v-80h-21zM760 -291l127 291h49l125 -291h-33q-11 0 -20 6q-5 3 -8.5 7.5t-6.5 8.5l-16 40h-131l-19 -40q0 -3 -4 -7q-2 -3 -4 -5l-4 -4q-3 -2 -5 -3t-5 -1q-3 -2 -5.5 -2h-4.5h-35zM795 496q2 -2 2 -3t2 -1q0 -2 1 -3.5t1 -3.5q4 -4 5 -6q4 -5 7 -5 q9 -10 20 -13.5t25 -3.5q8 0 14.5 0.5t14.5 3.5q11 3 20 13q12 10 17 20q6 12 6 24q0 29 -23 45q-2 2 -4 3t-4 3q-3 2 -5 2t-5 2q-2 2 -4 2t-6 3q-2 0 -11 4q-5 2 -9 3t-7 3q-5 2 -7 3t-5 3q-4 4 -6 7q-1 3 -1 11q0 6 1 11q2 2 3.5 4t4.5 4q2 0 10 4q4 2 12 2q3 0 5.5 -1 t4.5 -1q3 -2 7 -3t6 -3q8 -4 12 -4q8 0 14 6l7 4q-2 3 -5 5t-6 5t-6 5t-6 5q-3 2 -7 3t-9 4q-8 4 -17 4q-6 0 -11 -1t-11 -3t-11 -5l-10 -6q-3 -3 -6 -7t-6 -9q-6 -9 -6 -23q0 -8 1.5 -12.5t4.5 -9.5q3 -10 12 -17q7 -7 19 -10q5 -3 9.5 -5t10.5 -5q3 -2 6 -2.5t8 -1.5 q3 -2 7 -3t6 -3q3 -3 5.5 -5t4.5 -6q2 -3 3 -6t1 -8q0 -6 -4 -14q-3 -7 -10 -10q-2 -3 -5.5 -5t-7.5 -4q-5 0 -8 -1t-8 -1q-3 0 -7 1t-7 1q-8 4 -11 9l-4 2q-6 6 -16 6q-7 0 -10 -4zM868 -176h86l-39 88q-2 3 -2 5.5t-2 4.5v8q0 -4 -2 -8q0 -2 -1 -4.5t-1 -5.5zM879 145v115 h20v-115q0 -6 0.5 -10.5t3.5 -9.5q2 -6 4.5 -9.5t5.5 -9.5q5 -3 9 -5.5t10 -4.5q5 -3 9.5 -3.5t10.5 -0.5t11 0.5t10 3.5q11 4 16 10q5 5 7 9l5 10q2 5 3.5 9.5t1.5 10.5v115h20v-115q0 -16 -6 -28q-3 -8 -6 -14t-8 -11q-6 -5 -12.5 -9t-12.5 -7q-6 -2 -13 -3t-16 -1 q-8 0 -15 1t-13 3q-13 5 -25 16q-5 5 -9 11t-6 14q-4 6 -4.5 13t-0.5 15zM952 559q0 -9 1.5 -19.5t7.5 -19.5q5 -11 10.5 -18.5t11.5 -16.5q8 -6 16 -11.5t17 -8.5q19 -8 41 -8h14t14 2q6 3 12.5 5t12.5 7q10 5 23 14q3 5 7 11t7 12q5 6 7 12t5 12q2 8 2 14v13v15.5t-2 13.5 q-3 8 -5 14t-7 12q-3 5 -7 10.5t-7 10.5q-6 5 -11.5 8t-11.5 8q-6 3 -12 5.5t-13 5.5q-8 2 -14 3t-14 1q-6 0 -13.5 -1t-13.5 -3q-8 -2 -14 -5l-12 -6q-5 -5 -10.5 -8t-10.5 -8t-9 -10t-7 -11l-6 -12t-5 -14q-2 -6 -3 -13.5t-1 -15.5zM981 559q0 18 6 31q3 8 6.5 13.5 t10.5 10.5q5 6 10.5 10t13.5 7q13 6 29 6q15 0 30 -6q6 -3 12.5 -7t12.5 -10q11 -11 16 -24q6 -12 7 -31q0 -13 -7 -29q-3 -6 -7 -12t-9 -12q-6 -5 -12 -9t-13 -8q-15 -6 -30 -6t-29 6q-13 5 -24 17q-6 6 -10 12t-7 12q-6 15 -6 29zM1065 74v186h22v-166h82v-20h-104z M1073 0h187v-51h-134v-74h111v-51h-111v-115h-53v291zM1194 74v186h20v-166h82v-20h-102zM1200 459h29v172v-4q2 -2 2 -3v-1q0 -2 1 -3q0 -1 1 -2l117 -159h24v205h-28v-160q0 5 -1.5 8t-3.5 6l-100 137q-4 4 -8 7q-3 0 -6 1t-6 1h-21v-205zM1278 -145q0 9 0.5 19t3.5 20 q3 9 6 17.5t8 16.5q5 9 11 16t14 15q13 13 29 23q9 4 17 8.5t17 7.5q11 2 20.5 3t20.5 1t20.5 -1t18.5 -3q9 -3 18 -7.5l17 -8.5q9 -5 17 -11t14 -12q6 -8 11.5 -15t10.5 -16q5 -8 9 -16.5t6 -17.5q6 -18 6 -39q0 -20 -6 -39q-2 -9 -5.5 -18.5t-9.5 -18.5q-9 -15 -22 -29 q-6 -6 -14 -11.5t-17 -10.5q-8 -6 -16.5 -10t-18.5 -7q-9 -2 -18 -3t-21 -1q-15 0 -30 2.5t-27 7.5q-14 6 -26 14t-21 19q-22 22 -33 47q-6 14 -8 27.5t-2 30.5zM1329 -145q0 -9 2.5 -18.5t5.5 -18.5q10 -20 21 -31q6 -6 13.5 -10.5t17.5 -9.5q15 -6 36 -7q18 0 37 7 q7 5 15 9.5t16 10.5q6 6 10.5 14t9.5 17q6 18 7 37q0 18 -7 36q-5 9 -9.5 16t-10.5 15q-8 6 -16 10.5t-15 8.5q-16 8 -37 8q-24 0 -36 -8q-9 -4 -17 -8.5t-14 -10.5q-6 -8 -11 -14.5t-10 -16.5q-3 -9 -5.5 -18t-2.5 -18zM1386 260h11q3 0 5 -1t5 -3q2 -2 4 -3.5t2 -4.5 l62 -139q0 -2 1 -3.5t1 -3.5v-6v6q2 2 2 7q8 17 15 34.5t15 34.5q8 18 15.5 35t15.5 35q2 4 6 8q8 4 10 4h13q-11 -24 -21.5 -47.5t-19.5 -46.5q-11 -24 -20.5 -46.5t-20.5 -45.5h-21zM1386 1108q0 -71 29 -137q14 -33 32.5 -61.5t43.5 -53.5q46 -49 113 -78q65 -31 141 -30 q73 0 139 28q65 28 115 78q25 24 43.5 52t34.5 61q27 66 26 141q0 34 -4.5 64.5t-15.5 58.5q-9 27 -24 53t-34 49q-18 22 -38.5 40.5t-44.5 35.5q-25 14 -50.5 25.5t-52.5 19.5q-22 8 -44.5 11t-49.5 3q-76 0 -143 -30q-33 -14 -61 -34t-52 -44q-25 -25 -43.5 -53.5 t-32.5 -61.5q-12 -33 -19.5 -66.5t-7.5 -70.5zM1393 459h16q8 0 11 2q7 5 10 10l14 33h104l15 -33q4 -8 8 -10q2 -2 5.5 -2h6.5h16l-88 205h-28zM1423 1108q0 58 19 111q8 27 21.5 49.5t31.5 46.5h428l-420 -424q-20 24 -35 48.5t-24 51.5q-11 27 -16 56.5t-5 60.5z M1456 532l37 86q2 2 2 5q0 2 1 4t1 4q0 -10 2 -13l37 -86h-80zM1528 866h434q-24 -18 -48.5 -33.5t-51.5 -26.5q-27 -10 -56.5 -16t-60.5 -6q-32 0 -61 6t-56 16q-28 11 -52.5 26.5t-47.5 33.5zM1528 1350q22 20 46.5 35t50.5 26q54 20 120 21q31 0 60.5 -5t56.5 -16 q55 -25 98 -61h-432zM1565 901l422 426q80 -104 79 -219q0 -30 -4 -57t-14 -54q-9 -27 -22.5 -49.5t-30.5 -46.5h-430zM1583 74v186h115v-22h-92v-60h73v-20h-73v-64h92v-20h-115zM1612 0h47q8 0 16 -4t11 -9q15 -20 30.5 -42t30.5 -43q15 -22 30 -43t29 -41q6 -6 6 -13 q2 -3 2.5 -5.5t0.5 -4.5v205h53v-291h-49l-138 195q-4 4 -4 6q-2 4 -6 8q0 2 -4 6q0 2 -1 3t-1 3v-221h-53v291zM1620 459h117v26h-88v179h-29v-205zM1741 74v186h67q5 0 10.5 -1t10.5 -3q5 -3 9 -6t7 -6t6 -7.5t7 -9.5q2 -5 3 -10t1 -10t-1 -9t-3 -10q-2 -10 -9 -16 l-12 -12q-5 -2 -8 -3t-8 -3l59 -80h-12q-8 0 -11 2q-6 2 -10 8l-53 70h-31v-80h-22zM1763 174h45q8 0 13 2q3 2 5 3t5 3q2 3 3 5t3 4q2 4 3 7.5t1 8.5q0 4 -4 12q-2 3 -3 5t-3 5q-3 2 -5 3t-5 4q-4 2 -13 2h-45v-64zM1853 539q0 -6 0.5 -12t3.5 -11q1 -6 3 -10.5t4 -9.5 q3 -5 6 -9.5t8 -7.5q3 -3 7 -6t9 -6t10.5 -4.5t10.5 -3.5t10 -3t10 -1q6 0 12.5 1t11.5 3q12 3 19 8q5 3 8.5 6t8.5 6q3 3 6 7t6 10q5 7 8 20q2 5 3 10.5t1 12.5v125h-28v-125q0 -6 -1 -11.5t-3 -11.5q-3 -5 -5.5 -9t-7.5 -7q-3 -5 -7 -7.5t-8 -5.5q-7 -2 -12 -3t-12 -1 q-5 0 -10 1t-10 3q-5 3 -9 5.5t-8 7.5q-9 6 -12 16q-2 6 -3 11t-1 12v125h-29v-125zM1892 0h224v-51h-84v-240h-54v240h-86v51zM1896 104l5 2l1 2q1 0 1.5 0.5t1.5 0.5h4q8 0 12 -5q3 -5 7 -6.5t7 -3.5q5 -2 8.5 -2h8.5h6t8 2q6 0 12 6q7 3 11 11q4 10 4 14q0 9 -4 15 q-3 6 -9 10q-4 4 -12 8q-4 0 -14 4q-6 2 -11 4l-10 4q-9 3 -16 10q-3 2 -5.5 5.5t-3.5 5.5q-2 5 -3.5 10.5t-1.5 11.5q0 11 6 20q3 8 12 15q7 7 16 10q5 2 11 3t11 1q2 0 6 -1t7 -1q5 -2 8 -3t7 -3q3 -3 5.5 -4.5t4.5 -3.5l8 -8l-4 -5q-4 -4 -10 -4q-8 0 -11 2q-2 2 -3 2 t-3 3q-2 0 -2 1t-2 1t-3 1t-3 1h-5h-8t-7 -2q-3 0 -5.5 -1t-5.5 -4q-2 -3 -4 -5t-2 -5q-4 -4 -4 -10q0 -8 2 -10q2 -4 6 -8q5 -4 13 -7q3 -2 7 -3t9 -3q3 -2 5 -2t5 -2q4 0 8 -4q3 0 5.5 -1t5.5 -3q2 0 6 -4l8 -8t7 -8q1 -7 2 -12t1 -13q0 -6 -1 -11t-2 -12q-4 -5 -7 -9.5 t-8 -6.5q-7 -7 -21 -10q-5 -3 -10.5 -3.5t-11.5 -0.5q-27 0 -41 14q-2 2 -5 4.5t-5 5.5q-4 4 -5 8zM2048 496q0 -2 1 -3q0 -1 1 -1q2 -2 2 -3.5t2 -3.5q4 -4 4 -6q4 -5 8 -5q9 -10 20 -13.5t25 -3.5q8 0 14.5 0.5t11.5 3.5q15 3 24 13q11 10 16 20q3 6 3.5 12t0.5 12 q0 31 -20 45q-4 2 -9 6q-3 2 -5 2t-5 2q-4 2 -5.5 2t-4.5 3q-3 0 -5 1t-5 3q-5 2 -9.5 3t-7.5 3q-9 3 -12 6q-6 3 -6 7q-2 3 -2 11q0 6 2 11q2 2 3.5 4t4.5 4q2 0 10 4q4 2 13 2q3 0 5 -1t5 -1l12 -6q8 -4 12 -4q6 0 13 6l8 4q-2 3 -4.5 5t-5.5 5t-6.5 5t-6.5 5q-3 2 -7 3 t-9 4q-5 2 -8 3t-8 1q-6 0 -12 -1t-11 -3q-6 -2 -10.5 -5t-9.5 -6l-7 -7t-6 -9q-6 -9 -6 -23q0 -8 1.5 -12.5t3.5 -9.5q5 -11 14 -17q7 -7 16 -10q6 -3 11 -5t12 -5q3 -2 6 -2.5t8 -1.5l12 -6q3 -3 5.5 -5t4.5 -6q2 -3 3 -6t1 -8q0 -6 -4 -14q-3 -7 -10 -10q-5 -5 -14 -9 q-3 0 -7 -1t-8 -1q-5 0 -8 1t-6 1q-10 3 -12 9l-2 2q-6 6 -17 6q-8 0 -10 -4zM2054 74v186h23v-186h-23zM2120 166q0 6 1 12t3 12t3.5 12.5t4.5 12.5q4 5 7.5 9t8.5 9t9.5 8.5t9.5 6.5q10 7 21 10q7 2 13.5 3t14.5 1q6 0 12 -1t11 -3q12 -3 24 -10q12 -6 21 -15q5 -5 8 -9 t6 -9q3 -6 5.5 -12t4.5 -13q2 -6 2 -12v-12q0 -20 -6 -37q-8 -17 -20 -31q-16 -14 -31 -20q-20 -6 -37 -6q-23 0 -39 6q-17 6 -29 20q-6 6 -11.5 14t-8.5 17q-5 8 -6.5 18t-1.5 19zM2120 -229q2 0 6 4q4 0 8 4q2 0 4 1t4 1t4 0.5t4 0.5q6 0 13 -3q5 0 8 -1t6 -3q7 -7 16 -11 q5 -2 11 -3t12 -1h7t9 2q3 2 7.5 3.5t7.5 3.5q9 6 12 13q6 7 6 17q0 5 -1 8.5t-3 6.5q-3 3 -6 5.5t-6 4.5q-8 5 -17 8q-8 1 -18 8q-8 2 -15.5 4.5t-15.5 5.5t-14 7.5t-12 9.5q-10 10 -17 22q-8 13 -8 33q0 10 2.5 18.5t5.5 16.5q10 16 21 25q6 4 13 8.5t14 7.5q8 2 17 3 t17 1q6 0 12.5 -1t12.5 -3q13 -3 22 -11q6 -2 11 -6.5t10 -9.5q5 -3 8 -7t6 -9l-10 -8l-6 -4t-9 -4q-5 -2 -8 -3t-6 -1h-4h-4q-3 2 -5 3t-5 3q-2 2 -5 2t-4 2q-2 0 -3.5 1t-4.5 1q-2 2 -8 2h-6t-8 -2q-6 0 -10 -4q-3 -2 -6.5 -5t-4.5 -4q-2 -4 -2 -12t2 -10q1 -3 4 -5t7 -5 q3 -2 7 -3t9 -3t10.5 -4.5t13.5 -4.5l9 -4q9 -3 15.5 -6t14.5 -8q15 -8 23 -19q9 -9 12 -22q6 -12 6 -29q0 -11 -2.5 -19.5t-5.5 -17.5q-5 -9 -10.5 -16.5t-11.5 -14.5q-15 -11 -35 -18q-20 -6 -37 -6q-23 0 -41 6q-9 5 -17 10t-16 13q-5 5 -8 9t-6 9q-5 8 -8 17zM2140 166 q0 -5 1 -9t3 -10t3 -9.5t3 -8.5q3 -5 6.5 -8t6.5 -8q6 -6 14 -11q7 -5 18 -8q5 -2 10 -2h11h9t9 2q4 2 9 3.5t10 4.5q5 2 8 5l6 6q5 5 7 8t5 8q6 8 9 18q2 5 2 9.5v9.5q0 16 -6 29q-3 8 -7 13.5t-10 10.5q-10 10 -22 17q-6 2 -13.5 3t-15.5 1t-15.5 -1t-15.5 -3 q-12 -6 -22 -17q-5 -5 -9.5 -10.5t-7.5 -13.5q-6 -12 -6 -29zM2218 459h127v26h-100v62h79v28h-79v60h100v29h-127v-205zM2333 -262q0 3 1 6.5t1 5.5q4 8 7 10q4 6 11 7q8 4 12 4t13 -4q7 -1 10 -7q5 -3 5 -10q2 -2 3.5 -5.5t1.5 -6.5q0 -5 -5 -12q0 -5 -5 -11q-2 -2 -10 -6 q-4 -2 -13 -2q-8 0 -12 2q-8 4 -11 6q-2 3 -3.5 5t-3.5 6q0 3 -1 6t-1 6zM2345 74v186h14q13 0 17 -8l96 -135q2 -1 2 -2.5t2 -3.5v-5v154h23v-186h-21l-108 153l-3 2v2q0 2 -2 5v-162h-20zM2417 -145q0 20 6 39q2 9 5.5 17.5t8.5 16.5q5 9 11 16t12 15q8 6 14.5 11.5 t15.5 11.5l17 8.5t18 7.5q11 2 20.5 3t18.5 1t17 -0.5t16 -3.5q13 -3 31 -11q12 -5 26 -16q6 -5 12.5 -10.5t12.5 -11.5l-13 -14q-4 -3 -12 -7q-5 -2 -16 -2q-9 0 -19 6q-6 2 -12 6t-14 7q-6 2 -13.5 3t-15.5 1q-9 0 -18 -1.5t-17 -6.5q-9 -4 -16.5 -8.5t-13.5 -10.5 q-8 -8 -13 -14.5t-8 -16.5q-8 -16 -8 -36t8 -37q6 -19 21 -31q6 -6 13.5 -10.5t16.5 -9.5q15 -6 35 -7q8 0 15.5 1t13.5 3q14 3 26 13q2 2 4.5 2t4.5 2q3 1 5.5 1h4.5q8 0 16 -3q8 -4 12 -8l13 -11q-6 -6 -12.5 -11.5t-12.5 -10.5t-13 -9t-13 -8q-8 -5 -15.5 -6.5 t-15.5 -3.5q-8 -3 -16 -3.5t-17 -0.5q-14 0 -28.5 2.5t-28.5 7.5q-26 11 -47 33q-9 11 -17 22t-14 25q-12 28 -12 58zM2462 559q0 -9 1.5 -19.5t6.5 -19.5q3 -11 8.5 -18.5t11.5 -16.5q8 -6 17 -11.5t18 -8.5q16 -8 41 -8h13.5t13.5 2q8 3 14 5t12 7q5 3 10.5 6t10.5 8 q10 10 16 23q3 6 5.5 12t4.5 12l3.5 14t1.5 13q0 8 -1 15.5t-4 13.5q-2 8 -4.5 14t-5.5 12q-3 5 -7 10.5t-9 10.5t-10 8t-11 8q-6 3 -12 5.5t-14 5.5q-6 2 -13.5 3t-13.5 1q-8 0 -14.5 -1t-14.5 -3q-6 -2 -12 -5l-12 -6q-6 -5 -11 -8t-12 -8q-5 -5 -8 -10t-8 -11 q-3 -6 -5 -12t-5 -14q-2 -6 -2 -13.5v-15.5zM2488 559q0 18 6 31q3 8 7.5 13.5t9.5 10.5q6 6 12 10t12 7q8 3 15 4.5t16 1.5q16 0 29 -6q8 -3 13.5 -7t10.5 -10q6 -5 10 -10.5t7 -13.5q6 -12 6 -31q0 -13 -6 -29q-3 -6 -6.5 -12t-10.5 -12q-5 -5 -10.5 -9t-13.5 -8 q-12 -6 -29 -6q-9 0 -15.5 1.5t-15.5 4.5q-6 3 -12 7.5t-12 9.5q-5 6 -9 12l-8 12q-6 15 -6 29zM2634 74v186h114v-22h-94v-64h78v-20h-78v-80h-20zM2697 -145q0 20 6 39q3 9 6.5 17.5t8.5 16.5q5 9 10.5 16t13.5 15q13 13 29 23q9 4 17.5 8.5t17.5 7.5q11 2 20 3t21 1 q9 0 19 -1t20 -3q9 -3 17.5 -7.5t16.5 -8.5q9 -5 16 -11t15 -12q6 -8 12 -15t11 -16q5 -8 8.5 -16.5t5.5 -17.5q6 -18 6 -39q0 -20 -6 -39q-2 -9 -5.5 -18.5t-8.5 -18.5q-9 -15 -23 -29q-8 -6 -14.5 -11.5t-16.5 -10.5q-8 -6 -16.5 -10t-17.5 -7q-9 -2 -19.5 -3t-19.5 -1 q-15 0 -30 2.5t-30 7.5q-12 6 -24 14t-21 19q-22 22 -32 47q-7 14 -10 27.5t-3 30.5zM2707 459h29v172q2 -2 2 -3v-1q0 -4 2 -4q0 -4 2 -5l117 -159h23v205h-29v-160q0 5 -1 8t-3 6l-101 137q-4 4 -8 7q-2 0 -4.5 1t-7.5 1h-21v-205zM2750 -145q0 -9 2 -18.5t7 -18.5 q3 -9 8.5 -17t11.5 -14t14 -10.5t17 -9.5q15 -6 37 -7q18 0 37 7q8 5 15 9.5t15 10.5q6 6 11 14t10 17q6 18 6 37q0 18 -6 36q-5 9 -10 16t-11 15q-8 6 -15 10.5t-15 8.5q-16 8 -37 8q-24 0 -37 -8q-9 -4 -17 -8.5t-14 -10.5q-6 -8 -11.5 -14.5t-8.5 -16.5q-5 -9 -7 -18 t-2 -18zM2771 74v186h65q6 0 11 -1t10 -3q6 -3 9.5 -6t6.5 -6q9 -6 13 -17q2 -5 3 -10t1 -10v-9t-2 -10q-4 -9 -11 -16q-3 -6 -12 -12q-3 -2 -7.5 -3t-8.5 -3l61 -80h-12q-10 0 -14 2q-2 2 -4.5 3.5t-4.5 4.5l-51 70h-33v-80h-20zM2791 174h45q9 0 13 2q8 4 10 6q6 6 6 9 q2 4 3 7.5t1 8.5q0 4 -4 12q0 4 -6 10q-2 2 -10 7q-4 2 -13 2h-45v-64zM2929 166q0 6 1 12t3 12t3.5 12.5t6.5 12.5q2 5 5.5 9t7.5 9t9.5 8.5t10.5 6.5l11 5.5t11 4.5t12.5 3t12.5 1q8 0 14 -1t12 -3q11 -3 23 -10q12 -6 20 -15q5 -5 8.5 -9t6.5 -9l4 -12t4 -13 q3 -6 3.5 -12t0.5 -12q0 -9 -2 -19t-7 -18q-5 -18 -18 -31q-16 -14 -30 -20q-18 -6 -39 -6q-18 0 -37 6q-15 6 -30 20q-13 11 -19 31q-5 8 -6.5 18t-1.5 19zM2933 459h116v26h-90v179h-26v-205zM2949 166q0 -5 1 -9t1 -10q2 -6 4 -9.5t4 -8.5q3 -5 6.5 -8t6.5 -8 q6 -6 14 -11q5 -3 9 -4.5t9 -3.5t9.5 -2h9.5h10.5t9.5 2t9.5 3.5t9.5 4.5q5 2 8 5l6 6q5 5 7 8t5 8q6 8 9 18q2 5 2 9.5v9.5q0 16 -7 29q-3 8 -6.5 13.5t-9.5 10.5q-10 10 -22 17q-8 2 -15.5 3t-15.5 1q-6 0 -13.5 -1t-15.5 -3q-12 -6 -22 -17q-5 -5 -9.5 -10.5t-7.5 -13.5 q-6 -12 -6 -29zM3021 664l74 -101l1 -1q0 -1 0.5 -1.5t0.5 -1.5q2 -2 2 -3t2 -1v-5v-5v-86h28v86q0 2 1 3t1 2v2q0 1 2 3v1q0 1 2 3q0 4 5 4l71 101h-18q-10 0 -15 -5q-3 -2 -5.5 -5t-4.5 -5l-49 -65q-1 0 -2 -1v-1q0 -1 -0.5 -1.5t-0.5 -1.5l-1 -1v4v1l-2 1l-47 65 q-3 2 -5.5 5t-4.5 5q-5 2 -8.5 3.5t-8.5 1.5h-18zM3031 0h53q3 0 6.5 -1t6.5 -1q2 -2 4 -2t4 -2q3 -2 4.5 -4.5t3.5 -3.5q2 -2 3 -4t3 -5q9 -24 17.5 -45t17.5 -43q9 -24 18 -45t17 -43q2 -2 2 -6q0 -2 1 -3t1 -3v-7v-1l2 1v7q0 4 2 6v6l10 21l62 155q0 5 6 9q3 5 8 8 q2 2 5 2t5 2q2 0 4.5 1t5.5 1h54v-291h-54v213q-2 -3 -3 -6t-1 -8q-2 -5 -3 -8t-3 -6l-37 -93q-9 -24 -18 -46t-21 -46h-47l-75 185q-2 3 -3.5 6t-3.5 8q0 4 -4 12v-211h-53v291zM3160 74v186h16q4 0 9 -4q6 -3 6 -8l65 -144v-4q2 -2 2 -3v-1v4.5t2 5.5t2 5.5t1 5.5l61 131 q0 5 6 8q4 4 8 4h19v-186h-21v153h-2v-4v-2q0 -1 -1 -2h-1q-5 -11 -9 -21.5t-7 -19.5q-5 -11 -9.5 -19t-7.5 -19q-5 -8 -9 -16.5t-7 -17.5t-7 -16.5t-7 -15.5h-23q-8 17 -15 35t-16 36t-16.5 37t-15.5 37q-2 0 -2 4v4v-153h-21z" />
<glyph unicode="7" horiz-adv-x="3575" d="M125 166q0 6 1 12t3 12t4.5 12.5t5.5 12.5q3 5 6 9t9 9q8 8 20 15q11 7 23 10q6 2 12 3t12 1q11 0 20.5 -2.5t18.5 -5.5q8 -5 15.5 -9.5t13.5 -11.5q0 -2 -1 -2t-3 -2l-2 -2q-2 -2 -3 -2h-1h-7h-4t-4 2q-5 3 -9.5 6t-10.5 5q-5 2 -11 2h-12q-8 0 -15 -1t-15 -3 q-12 -7 -21 -17q-6 -5 -9.5 -10.5t-6.5 -13.5q-6 -12 -7 -29v-9t3 -10q2 -10 8 -18q3 -5 6 -8t6 -8q6 -6 14 -11q5 -3 9.5 -4.5t9.5 -3.5t9.5 -2h10.5h12.5t12.5 2t11 4.5l11 5.5v39h-14q-2 0 -4 1t-4 1q-2 2 -3 2t-3 3q0 2 -1 3t-1 3q-2 2 -2 6v2h51v-72q-3 -5 -6 -7t-9 -5 q-3 -2 -6 -3t-8 -1q-5 -2 -9 -3t-9 -1h-21h-12t-12 2q-11 3 -23 10q-12 6 -20 14q-9 9 -15 21q-7 10 -10 21q-2 7 -3 13.5t-1 12.5zM125 -274q0 4 1 7.5t1 6.5q2 3 2 6t2 6l6 12q4 3 8 11l129 174h-141v51h215v-25v-14q-2 -3 -3 -6t-3 -6l-145 -193q2 0 4 2q2 0 4 2h4h139 v-51h-223v17zM133 326v784h1223q0 81 30 154q32 73 84 125q54 51 125 81q71 31 150 31q87 0 156 -33q71 -34 122 -86q51 -54 82 -125t31 -147h1221v-784h-3224zM301 459h29v76h45q6 0 12 1t12 3q12 6 21 14q8 8 14 20q2 6 3 12.5t1 12.5q0 8 -1 14t-3 13q-3 5 -6 9t-8 9 t-9.5 8.5t-11.5 5.5q-12 6 -24 7h-74v-205zM330 561v74h45q3 0 6 -1t8 -3q3 0 5.5 -2t4.5 -4q4 -4 9 -13q2 -4 2 -14v-7t-2 -7q-4 -8 -9 -11q-4 -5 -10 -8q-5 -2 -8 -3t-6 -1h-45zM336 74v186h113v-22h-93v-60h74v-20h-74v-64h93v-20h-113zM385 0h186v-51h-133v-68h107v-51 h-107v-70h133v-51h-186v291zM459 459h127v26h-99v62h80v28h-80v60h99v29h-127v-205zM471 238v22h141v-22h-59v-164h-23v164h-59zM582 0h223v-51h-86v-240h-53v240h-84v51zM629 459h28v84h31l53 -72q3 -7 11 -10q2 -2 6.5 -2h9.5h18l-65 88q5 2 9 3t7 5q8 3 15 12q5 6 8 17 q2 5 2 9v8q0 8 -0.5 14t-3.5 12q-2 5 -5.5 9t-7.5 9q-9 9 -18 12q-12 6 -25 7h-73v-205zM657 571v64h45q4 0 13 -4q7 0 10 -6q3 -2 4.5 -4.5t3.5 -4.5q0 -3 1 -6.5t1 -8.5q0 -2 -1 -5t-1 -6q-2 -2 -3.5 -4.5t-4.5 -5.5q-2 -2 -10 -7q-4 -2 -13 -2h-45zM729 74v186h113v-22 h-92v-64h77v-20h-77v-80h-21zM760 -291l127 291h49l125 -291h-33q-11 0 -20 6q-5 3 -8.5 7.5t-6.5 8.5l-16 40h-131l-19 -40q0 -3 -4 -7q-2 -3 -4 -5l-4 -4q-3 -2 -5 -3t-5 -1q-3 -2 -5.5 -2h-4.5h-35zM795 496q2 -2 2 -3t2 -1q0 -2 1 -3.5t1 -3.5q4 -4 5 -6q4 -5 7 -5 q9 -10 20 -13.5t25 -3.5q8 0 14.5 0.5t14.5 3.5q11 3 20 13q12 10 17 20q6 12 6 24q0 29 -23 45q-2 2 -4 3t-4 3q-3 2 -5 2t-5 2q-2 2 -4 2t-6 3q-2 0 -11 4q-5 2 -9 3t-7 3q-5 2 -7 3t-5 3q-4 4 -6 7q-1 3 -1 11q0 6 1 11q2 2 3.5 4t4.5 4q2 0 10 4q4 2 12 2q3 0 5.5 -1 t4.5 -1q3 -2 7 -3t6 -3q8 -4 12 -4q8 0 14 6l7 4q-2 3 -5 5t-6 5t-6 5t-6 5q-3 2 -7 3t-9 4q-8 4 -17 4q-6 0 -11 -1t-11 -3t-11 -5l-10 -6q-3 -3 -6 -7t-6 -9q-6 -9 -6 -23q0 -8 1.5 -12.5t4.5 -9.5q3 -10 12 -17q7 -7 19 -10q5 -3 9.5 -5t10.5 -5q3 -2 6 -2.5t8 -1.5 q3 -2 7 -3t6 -3q3 -3 5.5 -5t4.5 -6q2 -3 3 -6t1 -8q0 -6 -4 -14q-3 -7 -10 -10q-2 -3 -5.5 -5t-7.5 -4q-5 0 -8 -1t-8 -1q-3 0 -7 1t-7 1q-8 4 -11 9l-4 2q-6 6 -16 6q-7 0 -10 -4zM868 -176h86l-39 88q-2 3 -2 5.5t-2 4.5v8q0 -4 -2 -8q0 -2 -1 -4.5t-1 -5.5zM879 145v115 h20v-115q0 -6 0.5 -10.5t3.5 -9.5q2 -6 4.5 -9.5t5.5 -9.5q5 -3 9 -5.5t10 -4.5q5 -3 9.5 -3.5t10.5 -0.5t11 0.5t10 3.5q11 4 16 10q5 5 7 9l5 10q2 5 3.5 9.5t1.5 10.5v115h20v-115q0 -16 -6 -28q-3 -8 -6 -14t-8 -11q-6 -5 -12.5 -9t-12.5 -7q-6 -2 -13 -3t-16 -1 q-8 0 -15 1t-13 3q-13 5 -25 16q-5 5 -9 11t-6 14q-4 6 -4.5 13t-0.5 15zM952 559q0 -9 1.5 -19.5t7.5 -19.5q5 -11 10.5 -18.5t11.5 -16.5q8 -6 16 -11.5t17 -8.5q19 -8 41 -8h14t14 2q6 3 12.5 5t12.5 7q10 5 23 14q3 5 7 11t7 12q5 6 7 12t5 12q2 8 2 14v13v15.5t-2 13.5 q-3 8 -5 14t-7 12q-3 5 -7 10.5t-7 10.5q-6 5 -11.5 8t-11.5 8q-6 3 -12 5.5t-13 5.5q-8 2 -14 3t-14 1q-6 0 -13.5 -1t-13.5 -3q-8 -2 -14 -5l-12 -6q-5 -5 -10.5 -8t-10.5 -8t-9 -10t-7 -11l-6 -12t-5 -14q-2 -6 -3 -13.5t-1 -15.5zM981 559q0 18 6 31q3 8 6.5 13.5 t10.5 10.5q5 6 10.5 10t13.5 7q13 6 29 6q15 0 30 -6q6 -3 12.5 -7t12.5 -10q11 -11 16 -24q6 -12 7 -31q0 -13 -7 -29q-3 -6 -7 -12t-9 -12q-6 -5 -12 -9t-13 -8q-15 -6 -30 -6t-29 6q-13 5 -24 17q-6 6 -10 12t-7 12q-6 15 -6 29zM1065 74v186h22v-166h82v-20h-104z M1073 0h187v-51h-134v-74h111v-51h-111v-115h-53v291zM1194 74v186h20v-166h82v-20h-102zM1200 459h29v172v-4q2 -2 2 -3v-1q0 -2 1 -3q0 -1 1 -2l117 -159h24v205h-28v-160q0 5 -1.5 8t-3.5 6l-100 137q-4 4 -8 7q-3 0 -6 1t-6 1h-21v-205zM1278 -145q0 9 0.5 19t3.5 20 q3 9 6 17.5t8 16.5q5 9 11 16t14 15q13 13 29 23q9 4 17 8.5t17 7.5q11 2 20.5 3t20.5 1t20.5 -1t18.5 -3q9 -3 18 -7.5l17 -8.5q9 -5 17 -11t14 -12q6 -8 11.5 -15t10.5 -16q5 -8 9 -16.5t6 -17.5q6 -18 6 -39q0 -20 -6 -39q-2 -9 -5.5 -18.5t-9.5 -18.5q-9 -15 -22 -29 q-6 -6 -14 -11.5t-17 -10.5q-8 -6 -16.5 -10t-18.5 -7q-9 -2 -18 -3t-21 -1q-15 0 -30 2.5t-27 7.5q-14 6 -26 14t-21 19q-22 22 -33 47q-6 14 -8 27.5t-2 30.5zM1329 -145q0 -9 2.5 -18.5t5.5 -18.5q10 -20 21 -31q6 -6 13.5 -10.5t17.5 -9.5q15 -6 36 -7q18 0 37 7 q7 5 15 9.5t16 10.5q6 6 10.5 14t9.5 17q6 18 7 37q0 18 -7 36q-5 9 -9.5 16t-10.5 15q-8 6 -16 10.5t-15 8.5q-16 8 -37 8q-24 0 -36 -8q-9 -4 -17 -8.5t-14 -10.5q-6 -8 -11 -14.5t-10 -16.5q-3 -9 -5.5 -18t-2.5 -18zM1386 260h11q3 0 5 -1t5 -3q2 -2 4 -3.5t2 -4.5 l62 -139q0 -2 1 -3.5t1 -3.5v-6v6q2 2 2 7q8 17 15 34.5t15 34.5q8 18 15.5 35t15.5 35q2 4 6 8q8 4 10 4h13q-11 -24 -21.5 -47.5t-19.5 -46.5q-11 -24 -20.5 -46.5t-20.5 -45.5h-21zM1386 1108q0 -71 29 -137q14 -33 32.5 -61.5t43.5 -53.5q46 -49 113 -78q65 -31 141 -30 q73 0 139 28q65 28 115 78q25 24 43.5 52t34.5 61q27 66 26 141q0 34 -4.5 64.5t-15.5 58.5q-9 27 -24 53t-34 49q-18 22 -38.5 40.5t-44.5 35.5q-25 14 -50.5 25.5t-52.5 19.5q-22 8 -44.5 11t-49.5 3q-76 0 -143 -30q-33 -14 -61 -34t-52 -44q-25 -25 -43.5 -53.5 t-32.5 -61.5q-12 -33 -19.5 -66.5t-7.5 -70.5zM1393 459h16q8 0 11 2q7 5 10 10l14 33h104l15 -33q4 -8 8 -10q2 -2 5.5 -2h6.5h16l-88 205h-28zM1423 1108q0 58 19 111q8 27 21.5 49.5t31.5 46.5h428l-420 -424q-20 24 -35 48.5t-24 51.5q-11 27 -16 56.5t-5 60.5z M1456 532l37 86q2 2 2 5q0 2 1 4t1 4q0 -10 2 -13l37 -86h-80zM1528 866h434q-24 -18 -48.5 -33.5t-51.5 -26.5q-27 -10 -56.5 -16t-60.5 -6q-32 0 -61 6t-56 16q-28 11 -52.5 26.5t-47.5 33.5zM1528 1350q22 20 46.5 35t50.5 26q54 20 120 21q31 0 60.5 -5t56.5 -16 q55 -25 98 -61h-432zM1565 901l422 426q80 -104 79 -219q0 -30 -4 -57t-14 -54q-9 -27 -22.5 -49.5t-30.5 -46.5h-430zM1583 74v186h115v-22h-92v-60h73v-20h-73v-64h92v-20h-115zM1612 0h47q8 0 16 -4t11 -9q15 -20 30.5 -42t30.5 -43q15 -22 30 -43t29 -41q6 -6 6 -13 q2 -3 2.5 -5.5t0.5 -4.5v205h53v-291h-49l-138 195q-4 4 -4 6q-2 4 -6 8q0 2 -4 6q0 2 -1 3t-1 3v-221h-53v291zM1620 459h117v26h-88v179h-29v-205zM1741 74v186h67q5 0 10.5 -1t10.5 -3q5 -3 9 -6t7 -6t6 -7.5t7 -9.5q2 -5 3 -10t1 -10t-1 -9t-3 -10q-2 -10 -9 -16 l-12 -12q-5 -2 -8 -3t-8 -3l59 -80h-12q-8 0 -11 2q-6 2 -10 8l-53 70h-31v-80h-22zM1763 174h45q8 0 13 2q3 2 5 3t5 3q2 3 3 5t3 4q2 4 3 7.5t1 8.5q0 4 -4 12q-2 3 -3 5t-3 5q-3 2 -5 3t-5 4q-4 2 -13 2h-45v-64zM1853 539q0 -6 0.5 -12t3.5 -11q1 -6 3 -10.5t4 -9.5 q3 -5 6 -9.5t8 -7.5q3 -3 7 -6t9 -6t10.5 -4.5t10.5 -3.5t10 -3t10 -1q6 0 12.5 1t11.5 3q12 3 19 8q5 3 8.5 6t8.5 6q3 3 6 7t6 10q5 7 8 20q2 5 3 10.5t1 12.5v125h-28v-125q0 -6 -1 -11.5t-3 -11.5q-3 -5 -5.5 -9t-7.5 -7q-3 -5 -7 -7.5t-8 -5.5q-7 -2 -12 -3t-12 -1 q-5 0 -10 1t-10 3q-5 3 -9 5.5t-8 7.5q-9 6 -12 16q-2 6 -3 11t-1 12v125h-29v-125zM1892 0h224v-51h-84v-240h-54v240h-86v51zM1896 104l5 2l1 2q1 0 1.5 0.5t1.5 0.5h4q8 0 12 -5q3 -5 7 -6.5t7 -3.5q5 -2 8.5 -2h8.5h6t8 2q6 0 12 6q7 3 11 11q4 10 4 14q0 9 -4 15 q-3 6 -9 10q-4 4 -12 8q-4 0 -14 4q-6 2 -11 4l-10 4q-9 3 -16 10q-3 2 -5.5 5.5t-3.5 5.5q-2 5 -3.5 10.5t-1.5 11.5q0 11 6 20q3 8 12 15q7 7 16 10q5 2 11 3t11 1q2 0 6 -1t7 -1q5 -2 8 -3t7 -3q3 -3 5.5 -4.5t4.5 -3.5l8 -8l-4 -5q-4 -4 -10 -4q-8 0 -11 2q-2 2 -3 2 t-3 3q-2 0 -2 1t-2 1t-3 1t-3 1h-5h-8t-7 -2q-3 0 -5.5 -1t-5.5 -4q-2 -3 -4 -5t-2 -5q-4 -4 -4 -10q0 -8 2 -10q2 -4 6 -8q5 -4 13 -7q3 -2 7 -3t9 -3q3 -2 5 -2t5 -2q4 0 8 -4q3 0 5.5 -1t5.5 -3q2 0 6 -4l8 -8t7 -8q1 -7 2 -12t1 -13q0 -6 -1 -11t-2 -12q-4 -5 -7 -9.5 t-8 -6.5q-7 -7 -21 -10q-5 -3 -10.5 -3.5t-11.5 -0.5q-27 0 -41 14q-2 2 -5 4.5t-5 5.5q-4 4 -5 8zM2048 496q0 -2 1 -3q0 -1 1 -1q2 -2 2 -3.5t2 -3.5q4 -4 4 -6q4 -5 8 -5q9 -10 20 -13.5t25 -3.5q8 0 14.5 0.5t11.5 3.5q15 3 24 13q11 10 16 20q3 6 3.5 12t0.5 12 q0 31 -20 45q-4 2 -9 6q-3 2 -5 2t-5 2q-4 2 -5.5 2t-4.5 3q-3 0 -5 1t-5 3q-5 2 -9.5 3t-7.5 3q-9 3 -12 6q-6 3 -6 7q-2 3 -2 11q0 6 2 11q2 2 3.5 4t4.5 4q2 0 10 4q4 2 13 2q3 0 5 -1t5 -1l12 -6q8 -4 12 -4q6 0 13 6l8 4q-2 3 -4.5 5t-5.5 5t-6.5 5t-6.5 5q-3 2 -7 3 t-9 4q-5 2 -8 3t-8 1q-6 0 -12 -1t-11 -3q-6 -2 -10.5 -5t-9.5 -6l-7 -7t-6 -9q-6 -9 -6 -23q0 -8 1.5 -12.5t3.5 -9.5q5 -11 14 -17q7 -7 16 -10q6 -3 11 -5t12 -5q3 -2 6 -2.5t8 -1.5l12 -6q3 -3 5.5 -5t4.5 -6q2 -3 3 -6t1 -8q0 -6 -4 -14q-3 -7 -10 -10q-5 -5 -14 -9 q-3 0 -7 -1t-8 -1q-5 0 -8 1t-6 1q-10 3 -12 9l-2 2q-6 6 -17 6q-8 0 -10 -4zM2054 74v186h23v-186h-23zM2120 166q0 6 1 12t3 12t3.5 12.5t4.5 12.5q4 5 7.5 9t8.5 9t9.5 8.5t9.5 6.5q10 7 21 10q7 2 13.5 3t14.5 1q6 0 12 -1t11 -3q12 -3 24 -10q12 -6 21 -15q5 -5 8 -9 t6 -9q3 -6 5.5 -12t4.5 -13q2 -6 2 -12v-12q0 -20 -6 -37q-8 -17 -20 -31q-16 -14 -31 -20q-20 -6 -37 -6q-23 0 -39 6q-17 6 -29 20q-6 6 -11.5 14t-8.5 17q-5 8 -6.5 18t-1.5 19zM2120 -229q2 0 6 4q4 0 8 4q2 0 4 1t4 1t4 0.5t4 0.5q6 0 13 -3q5 0 8 -1t6 -3q7 -7 16 -11 q5 -2 11 -3t12 -1h7t9 2q3 2 7.5 3.5t7.5 3.5q9 6 12 13q6 7 6 17q0 5 -1 8.5t-3 6.5q-3 3 -6 5.5t-6 4.5q-8 5 -17 8q-8 1 -18 8q-8 2 -15.5 4.5t-15.5 5.5t-14 7.5t-12 9.5q-10 10 -17 22q-8 13 -8 33q0 10 2.5 18.5t5.5 16.5q10 16 21 25q6 4 13 8.5t14 7.5q8 2 17 3 t17 1q6 0 12.5 -1t12.5 -3q13 -3 22 -11q6 -2 11 -6.5t10 -9.5q5 -3 8 -7t6 -9l-10 -8l-6 -4t-9 -4q-5 -2 -8 -3t-6 -1h-4h-4q-3 2 -5 3t-5 3q-2 2 -5 2t-4 2q-2 0 -3.5 1t-4.5 1q-2 2 -8 2h-6t-8 -2q-6 0 -10 -4q-3 -2 -6.5 -5t-4.5 -4q-2 -4 -2 -12t2 -10q1 -3 4 -5t7 -5 q3 -2 7 -3t9 -3t10.5 -4.5t13.5 -4.5l9 -4q9 -3 15.5 -6t14.5 -8q15 -8 23 -19q9 -9 12 -22q6 -12 6 -29q0 -11 -2.5 -19.5t-5.5 -17.5q-5 -9 -10.5 -16.5t-11.5 -14.5q-15 -11 -35 -18q-20 -6 -37 -6q-23 0 -41 6q-9 5 -17 10t-16 13q-5 5 -8 9t-6 9q-5 8 -8 17zM2140 166 q0 -5 1 -9t3 -10t3 -9.5t3 -8.5q3 -5 6.5 -8t6.5 -8q6 -6 14 -11q7 -5 18 -8q5 -2 10 -2h11h9t9 2q4 2 9 3.5t10 4.5q5 2 8 5l6 6q5 5 7 8t5 8q6 8 9 18q2 5 2 9.5v9.5q0 16 -6 29q-3 8 -7 13.5t-10 10.5q-10 10 -22 17q-6 2 -13.5 3t-15.5 1t-15.5 -1t-15.5 -3 q-12 -6 -22 -17q-5 -5 -9.5 -10.5t-7.5 -13.5q-6 -12 -6 -29zM2218 459h127v26h-100v62h79v28h-79v60h100v29h-127v-205zM2333 -262q0 3 1 6.5t1 5.5q4 8 7 10q4 6 11 7q8 4 12 4t13 -4q7 -1 10 -7q5 -3 5 -10q2 -2 3.5 -5.5t1.5 -6.5q0 -5 -5 -12q0 -5 -5 -11q-2 -2 -10 -6 q-4 -2 -13 -2q-8 0 -12 2q-8 4 -11 6q-2 3 -3.5 5t-3.5 6q0 3 -1 6t-1 6zM2345 74v186h14q13 0 17 -8l96 -135q2 -1 2 -2.5t2 -3.5v-5v154h23v-186h-21l-108 153l-3 2v2q0 2 -2 5v-162h-20zM2417 -145q0 20 6 39q2 9 5.5 17.5t8.5 16.5q5 9 11 16t12 15q8 6 14.5 11.5 t15.5 11.5l17 8.5t18 7.5q11 2 20.5 3t18.5 1t17 -0.5t16 -3.5q13 -3 31 -11q12 -5 26 -16q6 -5 12.5 -10.5t12.5 -11.5l-13 -14q-4 -3 -12 -7q-5 -2 -16 -2q-9 0 -19 6q-6 2 -12 6t-14 7q-6 2 -13.5 3t-15.5 1q-9 0 -18 -1.5t-17 -6.5q-9 -4 -16.5 -8.5t-13.5 -10.5 q-8 -8 -13 -14.5t-8 -16.5q-8 -16 -8 -36t8 -37q6 -19 21 -31q6 -6 13.5 -10.5t16.5 -9.5q15 -6 35 -7q8 0 15.5 1t13.5 3q14 3 26 13q2 2 4.5 2t4.5 2q3 1 5.5 1h4.5q8 0 16 -3q8 -4 12 -8l13 -11q-6 -6 -12.5 -11.5t-12.5 -10.5t-13 -9t-13 -8q-8 -5 -15.5 -6.5 t-15.5 -3.5q-8 -3 -16 -3.5t-17 -0.5q-14 0 -28.5 2.5t-28.5 7.5q-26 11 -47 33q-9 11 -17 22t-14 25q-12 28 -12 58zM2462 559q0 -9 1.5 -19.5t6.5 -19.5q3 -11 8.5 -18.5t11.5 -16.5q8 -6 17 -11.5t18 -8.5q16 -8 41 -8h13.5t13.5 2q8 3 14 5t12 7q5 3 10.5 6t10.5 8 q10 10 16 23q3 6 5.5 12t4.5 12l3.5 14t1.5 13q0 8 -1 15.5t-4 13.5q-2 8 -4.5 14t-5.5 12q-3 5 -7 10.5t-9 10.5t-10 8t-11 8q-6 3 -12 5.5t-14 5.5q-6 2 -13.5 3t-13.5 1q-8 0 -14.5 -1t-14.5 -3q-6 -2 -12 -5l-12 -6q-6 -5 -11 -8t-12 -8q-5 -5 -8 -10t-8 -11 q-3 -6 -5 -12t-5 -14q-2 -6 -2 -13.5v-15.5zM2488 559q0 18 6 31q3 8 7.5 13.5t9.5 10.5q6 6 12 10t12 7q8 3 15 4.5t16 1.5q16 0 29 -6q8 -3 13.5 -7t10.5 -10q6 -5 10 -10.5t7 -13.5q6 -12 6 -31q0 -13 -6 -29q-3 -6 -6.5 -12t-10.5 -12q-5 -5 -10.5 -9t-13.5 -8 q-12 -6 -29 -6q-9 0 -15.5 1.5t-15.5 4.5q-6 3 -12 7.5t-12 9.5q-5 6 -9 12l-8 12q-6 15 -6 29zM2634 74v186h114v-22h-94v-64h78v-20h-78v-80h-20zM2697 -145q0 20 6 39q3 9 6.5 17.5t8.5 16.5q5 9 10.5 16t13.5 15q13 13 29 23q9 4 17.5 8.5t17.5 7.5q11 2 20 3t21 1 q9 0 19 -1t20 -3q9 -3 17.5 -7.5t16.5 -8.5q9 -5 16 -11t15 -12q6 -8 12 -15t11 -16q5 -8 8.5 -16.5t5.5 -17.5q6 -18 6 -39q0 -20 -6 -39q-2 -9 -5.5 -18.5t-8.5 -18.5q-9 -15 -23 -29q-8 -6 -14.5 -11.5t-16.5 -10.5q-8 -6 -16.5 -10t-17.5 -7q-9 -2 -19.5 -3t-19.5 -1 q-15 0 -30 2.5t-30 7.5q-12 6 -24 14t-21 19q-22 22 -32 47q-7 14 -10 27.5t-3 30.5zM2707 459h29v172q2 -2 2 -3v-1q0 -4 2 -4q0 -4 2 -5l117 -159h23v205h-29v-160q0 5 -1 8t-3 6l-101 137q-4 4 -8 7q-2 0 -4.5 1t-7.5 1h-21v-205zM2750 -145q0 -9 2 -18.5t7 -18.5 q3 -9 8.5 -17t11.5 -14t14 -10.5t17 -9.5q15 -6 37 -7q18 0 37 7q8 5 15 9.5t15 10.5q6 6 11 14t10 17q6 18 6 37q0 18 -6 36q-5 9 -10 16t-11 15q-8 6 -15 10.5t-15 8.5q-16 8 -37 8q-24 0 -37 -8q-9 -4 -17 -8.5t-14 -10.5q-6 -8 -11.5 -14.5t-8.5 -16.5q-5 -9 -7 -18 t-2 -18zM2771 74v186h65q6 0 11 -1t10 -3q6 -3 9.5 -6t6.5 -6q9 -6 13 -17q2 -5 3 -10t1 -10v-9t-2 -10q-4 -9 -11 -16q-3 -6 -12 -12q-3 -2 -7.5 -3t-8.5 -3l61 -80h-12q-10 0 -14 2q-2 2 -4.5 3.5t-4.5 4.5l-51 70h-33v-80h-20zM2791 174h45q9 0 13 2q8 4 10 6q6 6 6 9 q2 4 3 7.5t1 8.5q0 4 -4 12q0 4 -6 10q-2 2 -10 7q-4 2 -13 2h-45v-64zM2929 166q0 6 1 12t3 12t3.5 12.5t6.5 12.5q2 5 5.5 9t7.5 9t9.5 8.5t10.5 6.5l11 5.5t11 4.5t12.5 3t12.5 1q8 0 14 -1t12 -3q11 -3 23 -10q12 -6 20 -15q5 -5 8.5 -9t6.5 -9l4 -12t4 -13 q3 -6 3.5 -12t0.5 -12q0 -9 -2 -19t-7 -18q-5 -18 -18 -31q-16 -14 -30 -20q-18 -6 -39 -6q-18 0 -37 6q-15 6 -30 20q-13 11 -19 31q-5 8 -6.5 18t-1.5 19zM2933 459h116v26h-90v179h-26v-205zM2949 166q0 -5 1 -9t1 -10q2 -6 4 -9.5t4 -8.5q3 -5 6.5 -8t6.5 -8 q6 -6 14 -11q5 -3 9 -4.5t9 -3.5t9.5 -2h9.5h10.5t9.5 2t9.5 3.5t9.5 4.5q5 2 8 5l6 6q5 5 7 8t5 8q6 8 9 18q2 5 2 9.5v9.5q0 16 -7 29q-3 8 -6.5 13.5t-9.5 10.5q-10 10 -22 17q-8 2 -15.5 3t-15.5 1q-6 0 -13.5 -1t-15.5 -3q-12 -6 -22 -17q-5 -5 -9.5 -10.5t-7.5 -13.5 q-6 -12 -6 -29zM3021 664l74 -101l1 -1q0 -1 0.5 -1.5t0.5 -1.5q2 -2 2 -3t2 -1v-5v-5v-86h28v86q0 2 1 3t1 2v2q0 1 2 3v1q0 1 2 3q0 4 5 4l71 101h-18q-10 0 -15 -5q-3 -2 -5.5 -5t-4.5 -5l-49 -65q-1 0 -2 -1v-1q0 -1 -0.5 -1.5t-0.5 -1.5l-1 -1v4v1l-2 1l-47 65 q-3 2 -5.5 5t-4.5 5q-5 2 -8.5 3.5t-8.5 1.5h-18zM3031 0h53q3 0 6.5 -1t6.5 -1q2 -2 4 -2t4 -2q3 -2 4.5 -4.5t3.5 -3.5q2 -2 3 -4t3 -5q9 -24 17.5 -45t17.5 -43q9 -24 18 -45t17 -43q2 -2 2 -6q0 -2 1 -3t1 -3v-7v-1l2 1v7q0 4 2 6v6l10 21l62 155q0 5 6 9q3 5 8 8 q2 2 5 2t5 2q2 0 4.5 1t5.5 1h54v-291h-54v213q-2 -3 -3 -6t-1 -8q-2 -5 -3 -8t-3 -6l-37 -93q-9 -24 -18 -46t-21 -46h-47l-75 185q-2 3 -3.5 6t-3.5 8q0 4 -4 12v-211h-53v291zM3160 74v186h16q4 0 9 -4q6 -3 6 -8l65 -144v-4q2 -2 2 -3v-1v4.5t2 5.5t2 5.5t1 5.5l61 131 q0 5 6 8q4 4 8 4h19v-186h-21v153h-2v-4v-2q0 -1 -1 -2h-1q-5 -11 -9 -21.5t-7 -19.5q-5 -11 -9.5 -19t-7.5 -19q-5 -8 -9 -16.5t-7 -17.5t-7 -16.5t-7 -15.5h-23q-8 17 -15 35t-16 36t-16.5 37t-15.5 37q-2 0 -2 4v4v-153h-21z" />
<glyph unicode="8" horiz-adv-x="3575" d="M125 166q0 6 1 12t3 12t4.5 12.5t5.5 12.5q3 5 6 9t9 9q8 8 20 15q11 7 23 10q6 2 12 3t12 1q11 0 20.5 -2.5t18.5 -5.5q8 -5 15.5 -9.5t13.5 -11.5q0 -2 -1 -2t-3 -2l-2 -2q-2 -2 -3 -2h-1h-7h-4t-4 2q-5 3 -9.5 6t-10.5 5q-5 2 -11 2h-12q-8 0 -15 -1t-15 -3 q-12 -7 -21 -17q-6 -5 -9.5 -10.5t-6.5 -13.5q-6 -12 -7 -29v-9t3 -10q2 -10 8 -18q3 -5 6 -8t6 -8q6 -6 14 -11q5 -3 9.5 -4.5t9.5 -3.5t9.5 -2h10.5h12.5t12.5 2t11 4.5l11 5.5v39h-14q-2 0 -4 1t-4 1q-2 2 -3 2t-3 3q0 2 -1 3t-1 3q-2 2 -2 6v2h51v-72q-3 -5 -6 -7t-9 -5 q-3 -2 -6 -3t-8 -1q-5 -2 -9 -3t-9 -1h-21h-12t-12 2q-11 3 -23 10q-12 6 -20 14q-9 9 -15 21q-7 10 -10 21q-2 7 -3 13.5t-1 12.5zM125 -274q0 4 1 7.5t1 6.5q2 3 2 6t2 6l6 12q4 3 8 11l129 174h-141v51h215v-25v-14q-2 -3 -3 -6t-3 -6l-145 -193q2 0 4 2q2 0 4 2h4h139 v-51h-223v17zM133 326v784h1223q0 81 30 154q32 73 84 125q54 51 125 81q71 31 150 31q87 0 156 -33q71 -34 122 -86q51 -54 82 -125t31 -147h1221v-784h-3224zM301 459h29v76h45q6 0 12 1t12 3q12 6 21 14q8 8 14 20q2 6 3 12.5t1 12.5q0 8 -1 14t-3 13q-3 5 -6 9t-8 9 t-9.5 8.5t-11.5 5.5q-12 6 -24 7h-74v-205zM330 561v74h45q3 0 6 -1t8 -3q3 0 5.5 -2t4.5 -4q4 -4 9 -13q2 -4 2 -14v-7t-2 -7q-4 -8 -9 -11q-4 -5 -10 -8q-5 -2 -8 -3t-6 -1h-45zM336 74v186h113v-22h-93v-60h74v-20h-74v-64h93v-20h-113zM385 0h186v-51h-133v-68h107v-51 h-107v-70h133v-51h-186v291zM459 459h127v26h-99v62h80v28h-80v60h99v29h-127v-205zM471 238v22h141v-22h-59v-164h-23v164h-59zM582 0h223v-51h-86v-240h-53v240h-84v51zM629 459h28v84h31l53 -72q3 -7 11 -10q2 -2 6.5 -2h9.5h18l-65 88q5 2 9 3t7 5q8 3 15 12q5 6 8 17 q2 5 2 9v8q0 8 -0.5 14t-3.5 12q-2 5 -5.5 9t-7.5 9q-9 9 -18 12q-12 6 -25 7h-73v-205zM657 571v64h45q4 0 13 -4q7 0 10 -6q3 -2 4.5 -4.5t3.5 -4.5q0 -3 1 -6.5t1 -8.5q0 -2 -1 -5t-1 -6q-2 -2 -3.5 -4.5t-4.5 -5.5q-2 -2 -10 -7q-4 -2 -13 -2h-45zM729 74v186h113v-22 h-92v-64h77v-20h-77v-80h-21zM760 -291l127 291h49l125 -291h-33q-11 0 -20 6q-5 3 -8.5 7.5t-6.5 8.5l-16 40h-131l-19 -40q0 -3 -4 -7q-2 -3 -4 -5l-4 -4q-3 -2 -5 -3t-5 -1q-3 -2 -5.5 -2h-4.5h-35zM795 496q2 -2 2 -3t2 -1q0 -2 1 -3.5t1 -3.5q4 -4 5 -6q4 -5 7 -5 q9 -10 20 -13.5t25 -3.5q8 0 14.5 0.5t14.5 3.5q11 3 20 13q12 10 17 20q6 12 6 24q0 29 -23 45q-2 2 -4 3t-4 3q-3 2 -5 2t-5 2q-2 2 -4 2t-6 3q-2 0 -11 4q-5 2 -9 3t-7 3q-5 2 -7 3t-5 3q-4 4 -6 7q-1 3 -1 11q0 6 1 11q2 2 3.5 4t4.5 4q2 0 10 4q4 2 12 2q3 0 5.5 -1 t4.5 -1q3 -2 7 -3t6 -3q8 -4 12 -4q8 0 14 6l7 4q-2 3 -5 5t-6 5t-6 5t-6 5q-3 2 -7 3t-9 4q-8 4 -17 4q-6 0 -11 -1t-11 -3t-11 -5l-10 -6q-3 -3 -6 -7t-6 -9q-6 -9 -6 -23q0 -8 1.5 -12.5t4.5 -9.5q3 -10 12 -17q7 -7 19 -10q5 -3 9.5 -5t10.5 -5q3 -2 6 -2.5t8 -1.5 q3 -2 7 -3t6 -3q3 -3 5.5 -5t4.5 -6q2 -3 3 -6t1 -8q0 -6 -4 -14q-3 -7 -10 -10q-2 -3 -5.5 -5t-7.5 -4q-5 0 -8 -1t-8 -1q-3 0 -7 1t-7 1q-8 4 -11 9l-4 2q-6 6 -16 6q-7 0 -10 -4zM868 -176h86l-39 88q-2 3 -2 5.5t-2 4.5v8q0 -4 -2 -8q0 -2 -1 -4.5t-1 -5.5zM879 145v115 h20v-115q0 -6 0.5 -10.5t3.5 -9.5q2 -6 4.5 -9.5t5.5 -9.5q5 -3 9 -5.5t10 -4.5q5 -3 9.5 -3.5t10.5 -0.5t11 0.5t10 3.5q11 4 16 10q5 5 7 9l5 10q2 5 3.5 9.5t1.5 10.5v115h20v-115q0 -16 -6 -28q-3 -8 -6 -14t-8 -11q-6 -5 -12.5 -9t-12.5 -7q-6 -2 -13 -3t-16 -1 q-8 0 -15 1t-13 3q-13 5 -25 16q-5 5 -9 11t-6 14q-4 6 -4.5 13t-0.5 15zM952 559q0 -9 1.5 -19.5t7.5 -19.5q5 -11 10.5 -18.5t11.5 -16.5q8 -6 16 -11.5t17 -8.5q19 -8 41 -8h14t14 2q6 3 12.5 5t12.5 7q10 5 23 14q3 5 7 11t7 12q5 6 7 12t5 12q2 8 2 14v13v15.5t-2 13.5 q-3 8 -5 14t-7 12q-3 5 -7 10.5t-7 10.5q-6 5 -11.5 8t-11.5 8q-6 3 -12 5.5t-13 5.5q-8 2 -14 3t-14 1q-6 0 -13.5 -1t-13.5 -3q-8 -2 -14 -5l-12 -6q-5 -5 -10.5 -8t-10.5 -8t-9 -10t-7 -11l-6 -12t-5 -14q-2 -6 -3 -13.5t-1 -15.5zM981 559q0 18 6 31q3 8 6.5 13.5 t10.5 10.5q5 6 10.5 10t13.5 7q13 6 29 6q15 0 30 -6q6 -3 12.5 -7t12.5 -10q11 -11 16 -24q6 -12 7 -31q0 -13 -7 -29q-3 -6 -7 -12t-9 -12q-6 -5 -12 -9t-13 -8q-15 -6 -30 -6t-29 6q-13 5 -24 17q-6 6 -10 12t-7 12q-6 15 -6 29zM1065 74v186h22v-166h82v-20h-104z M1073 0h187v-51h-134v-74h111v-51h-111v-115h-53v291zM1194 74v186h20v-166h82v-20h-102zM1200 459h29v172v-4q2 -2 2 -3v-1q0 -2 1 -3q0 -1 1 -2l117 -159h24v205h-28v-160q0 5 -1.5 8t-3.5 6l-100 137q-4 4 -8 7q-3 0 -6 1t-6 1h-21v-205zM1278 -145q0 9 0.5 19t3.5 20 q3 9 6 17.5t8 16.5q5 9 11 16t14 15q13 13 29 23q9 4 17 8.5t17 7.5q11 2 20.5 3t20.5 1t20.5 -1t18.5 -3q9 -3 18 -7.5l17 -8.5q9 -5 17 -11t14 -12q6 -8 11.5 -15t10.5 -16q5 -8 9 -16.5t6 -17.5q6 -18 6 -39q0 -20 -6 -39q-2 -9 -5.5 -18.5t-9.5 -18.5q-9 -15 -22 -29 q-6 -6 -14 -11.5t-17 -10.5q-8 -6 -16.5 -10t-18.5 -7q-9 -2 -18 -3t-21 -1q-15 0 -30 2.5t-27 7.5q-14 6 -26 14t-21 19q-22 22 -33 47q-6 14 -8 27.5t-2 30.5zM1329 -145q0 -9 2.5 -18.5t5.5 -18.5q10 -20 21 -31q6 -6 13.5 -10.5t17.5 -9.5q15 -6 36 -7q18 0 37 7 q7 5 15 9.5t16 10.5q6 6 10.5 14t9.5 17q6 18 7 37q0 18 -7 36q-5 9 -9.5 16t-10.5 15q-8 6 -16 10.5t-15 8.5q-16 8 -37 8q-24 0 -36 -8q-9 -4 -17 -8.5t-14 -10.5q-6 -8 -11 -14.5t-10 -16.5q-3 -9 -5.5 -18t-2.5 -18zM1386 260h11q3 0 5 -1t5 -3q2 -2 4 -3.5t2 -4.5 l62 -139q0 -2 1 -3.5t1 -3.5v-6v6q2 2 2 7q8 17 15 34.5t15 34.5q8 18 15.5 35t15.5 35q2 4 6 8q8 4 10 4h13q-11 -24 -21.5 -47.5t-19.5 -46.5q-11 -24 -20.5 -46.5t-20.5 -45.5h-21zM1386 1108q0 -71 29 -137q14 -33 32.5 -61.5t43.5 -53.5q46 -49 113 -78q65 -31 141 -30 q73 0 139 28q65 28 115 78q25 24 43.5 52t34.5 61q27 66 26 141q0 34 -4.5 64.5t-15.5 58.5q-9 27 -24 53t-34 49q-18 22 -38.5 40.5t-44.5 35.5q-25 14 -50.5 25.5t-52.5 19.5q-22 8 -44.5 11t-49.5 3q-76 0 -143 -30q-33 -14 -61 -34t-52 -44q-25 -25 -43.5 -53.5 t-32.5 -61.5q-12 -33 -19.5 -66.5t-7.5 -70.5zM1393 459h16q8 0 11 2q7 5 10 10l14 33h104l15 -33q4 -8 8 -10q2 -2 5.5 -2h6.5h16l-88 205h-28zM1423 1108q0 58 19 111q8 27 21.5 49.5t31.5 46.5h428l-420 -424q-20 24 -35 48.5t-24 51.5q-11 27 -16 56.5t-5 60.5z M1456 532l37 86q2 2 2 5q0 2 1 4t1 4q0 -10 2 -13l37 -86h-80zM1528 866h434q-24 -18 -48.5 -33.5t-51.5 -26.5q-27 -10 -56.5 -16t-60.5 -6q-32 0 -61 6t-56 16q-28 11 -52.5 26.5t-47.5 33.5zM1528 1350q22 20 46.5 35t50.5 26q54 20 120 21q31 0 60.5 -5t56.5 -16 q55 -25 98 -61h-432zM1565 901l422 426q80 -104 79 -219q0 -30 -4 -57t-14 -54q-9 -27 -22.5 -49.5t-30.5 -46.5h-430zM1583 74v186h115v-22h-92v-60h73v-20h-73v-64h92v-20h-115zM1612 0h47q8 0 16 -4t11 -9q15 -20 30.5 -42t30.5 -43q15 -22 30 -43t29 -41q6 -6 6 -13 q2 -3 2.5 -5.5t0.5 -4.5v205h53v-291h-49l-138 195q-4 4 -4 6q-2 4 -6 8q0 2 -4 6q0 2 -1 3t-1 3v-221h-53v291zM1620 459h117v26h-88v179h-29v-205zM1741 74v186h67q5 0 10.5 -1t10.5 -3q5 -3 9 -6t7 -6t6 -7.5t7 -9.5q2 -5 3 -10t1 -10t-1 -9t-3 -10q-2 -10 -9 -16 l-12 -12q-5 -2 -8 -3t-8 -3l59 -80h-12q-8 0 -11 2q-6 2 -10 8l-53 70h-31v-80h-22zM1763 174h45q8 0 13 2q3 2 5 3t5 3q2 3 3 5t3 4q2 4 3 7.5t1 8.5q0 4 -4 12q-2 3 -3 5t-3 5q-3 2 -5 3t-5 4q-4 2 -13 2h-45v-64zM1853 539q0 -6 0.5 -12t3.5 -11q1 -6 3 -10.5t4 -9.5 q3 -5 6 -9.5t8 -7.5q3 -3 7 -6t9 -6t10.5 -4.5t10.5 -3.5t10 -3t10 -1q6 0 12.5 1t11.5 3q12 3 19 8q5 3 8.5 6t8.5 6q3 3 6 7t6 10q5 7 8 20q2 5 3 10.5t1 12.5v125h-28v-125q0 -6 -1 -11.5t-3 -11.5q-3 -5 -5.5 -9t-7.5 -7q-3 -5 -7 -7.5t-8 -5.5q-7 -2 -12 -3t-12 -1 q-5 0 -10 1t-10 3q-5 3 -9 5.5t-8 7.5q-9 6 -12 16q-2 6 -3 11t-1 12v125h-29v-125zM1892 0h224v-51h-84v-240h-54v240h-86v51zM1896 104l5 2l1 2q1 0 1.5 0.5t1.5 0.5h4q8 0 12 -5q3 -5 7 -6.5t7 -3.5q5 -2 8.5 -2h8.5h6t8 2q6 0 12 6q7 3 11 11q4 10 4 14q0 9 -4 15 q-3 6 -9 10q-4 4 -12 8q-4 0 -14 4q-6 2 -11 4l-10 4q-9 3 -16 10q-3 2 -5.5 5.5t-3.5 5.5q-2 5 -3.5 10.5t-1.5 11.5q0 11 6 20q3 8 12 15q7 7 16 10q5 2 11 3t11 1q2 0 6 -1t7 -1q5 -2 8 -3t7 -3q3 -3 5.5 -4.5t4.5 -3.5l8 -8l-4 -5q-4 -4 -10 -4q-8 0 -11 2q-2 2 -3 2 t-3 3q-2 0 -2 1t-2 1t-3 1t-3 1h-5h-8t-7 -2q-3 0 -5.5 -1t-5.5 -4q-2 -3 -4 -5t-2 -5q-4 -4 -4 -10q0 -8 2 -10q2 -4 6 -8q5 -4 13 -7q3 -2 7 -3t9 -3q3 -2 5 -2t5 -2q4 0 8 -4q3 0 5.5 -1t5.5 -3q2 0 6 -4l8 -8t7 -8q1 -7 2 -12t1 -13q0 -6 -1 -11t-2 -12q-4 -5 -7 -9.5 t-8 -6.5q-7 -7 -21 -10q-5 -3 -10.5 -3.5t-11.5 -0.5q-27 0 -41 14q-2 2 -5 4.5t-5 5.5q-4 4 -5 8zM2048 496q0 -2 1 -3q0 -1 1 -1q2 -2 2 -3.5t2 -3.5q4 -4 4 -6q4 -5 8 -5q9 -10 20 -13.5t25 -3.5q8 0 14.5 0.5t11.5 3.5q15 3 24 13q11 10 16 20q3 6 3.5 12t0.5 12 q0 31 -20 45q-4 2 -9 6q-3 2 -5 2t-5 2q-4 2 -5.5 2t-4.5 3q-3 0 -5 1t-5 3q-5 2 -9.5 3t-7.5 3q-9 3 -12 6q-6 3 -6 7q-2 3 -2 11q0 6 2 11q2 2 3.5 4t4.5 4q2 0 10 4q4 2 13 2q3 0 5 -1t5 -1l12 -6q8 -4 12 -4q6 0 13 6l8 4q-2 3 -4.5 5t-5.5 5t-6.5 5t-6.5 5q-3 2 -7 3 t-9 4q-5 2 -8 3t-8 1q-6 0 -12 -1t-11 -3q-6 -2 -10.5 -5t-9.5 -6l-7 -7t-6 -9q-6 -9 -6 -23q0 -8 1.5 -12.5t3.5 -9.5q5 -11 14 -17q7 -7 16 -10q6 -3 11 -5t12 -5q3 -2 6 -2.5t8 -1.5l12 -6q3 -3 5.5 -5t4.5 -6q2 -3 3 -6t1 -8q0 -6 -4 -14q-3 -7 -10 -10q-5 -5 -14 -9 q-3 0 -7 -1t-8 -1q-5 0 -8 1t-6 1q-10 3 -12 9l-2 2q-6 6 -17 6q-8 0 -10 -4zM2054 74v186h23v-186h-23zM2120 166q0 6 1 12t3 12t3.5 12.5t4.5 12.5q4 5 7.5 9t8.5 9t9.5 8.5t9.5 6.5q10 7 21 10q7 2 13.5 3t14.5 1q6 0 12 -1t11 -3q12 -3 24 -10q12 -6 21 -15q5 -5 8 -9 t6 -9q3 -6 5.5 -12t4.5 -13q2 -6 2 -12v-12q0 -20 -6 -37q-8 -17 -20 -31q-16 -14 -31 -20q-20 -6 -37 -6q-23 0 -39 6q-17 6 -29 20q-6 6 -11.5 14t-8.5 17q-5 8 -6.5 18t-1.5 19zM2120 -229q2 0 6 4q4 0 8 4q2 0 4 1t4 1t4 0.5t4 0.5q6 0 13 -3q5 0 8 -1t6 -3q7 -7 16 -11 q5 -2 11 -3t12 -1h7t9 2q3 2 7.5 3.5t7.5 3.5q9 6 12 13q6 7 6 17q0 5 -1 8.5t-3 6.5q-3 3 -6 5.5t-6 4.5q-8 5 -17 8q-8 1 -18 8q-8 2 -15.5 4.5t-15.5 5.5t-14 7.5t-12 9.5q-10 10 -17 22q-8 13 -8 33q0 10 2.5 18.5t5.5 16.5q10 16 21 25q6 4 13 8.5t14 7.5q8 2 17 3 t17 1q6 0 12.5 -1t12.5 -3q13 -3 22 -11q6 -2 11 -6.5t10 -9.5q5 -3 8 -7t6 -9l-10 -8l-6 -4t-9 -4q-5 -2 -8 -3t-6 -1h-4h-4q-3 2 -5 3t-5 3q-2 2 -5 2t-4 2q-2 0 -3.5 1t-4.5 1q-2 2 -8 2h-6t-8 -2q-6 0 -10 -4q-3 -2 -6.5 -5t-4.5 -4q-2 -4 -2 -12t2 -10q1 -3 4 -5t7 -5 q3 -2 7 -3t9 -3t10.5 -4.5t13.5 -4.5l9 -4q9 -3 15.5 -6t14.5 -8q15 -8 23 -19q9 -9 12 -22q6 -12 6 -29q0 -11 -2.5 -19.5t-5.5 -17.5q-5 -9 -10.5 -16.5t-11.5 -14.5q-15 -11 -35 -18q-20 -6 -37 -6q-23 0 -41 6q-9 5 -17 10t-16 13q-5 5 -8 9t-6 9q-5 8 -8 17zM2140 166 q0 -5 1 -9t3 -10t3 -9.5t3 -8.5q3 -5 6.5 -8t6.5 -8q6 -6 14 -11q7 -5 18 -8q5 -2 10 -2h11h9t9 2q4 2 9 3.5t10 4.5q5 2 8 5l6 6q5 5 7 8t5 8q6 8 9 18q2 5 2 9.5v9.5q0 16 -6 29q-3 8 -7 13.5t-10 10.5q-10 10 -22 17q-6 2 -13.5 3t-15.5 1t-15.5 -1t-15.5 -3 q-12 -6 -22 -17q-5 -5 -9.5 -10.5t-7.5 -13.5q-6 -12 -6 -29zM2218 459h127v26h-100v62h79v28h-79v60h100v29h-127v-205zM2333 -262q0 3 1 6.5t1 5.5q4 8 7 10q4 6 11 7q8 4 12 4t13 -4q7 -1 10 -7q5 -3 5 -10q2 -2 3.5 -5.5t1.5 -6.5q0 -5 -5 -12q0 -5 -5 -11q-2 -2 -10 -6 q-4 -2 -13 -2q-8 0 -12 2q-8 4 -11 6q-2 3 -3.5 5t-3.5 6q0 3 -1 6t-1 6zM2345 74v186h14q13 0 17 -8l96 -135q2 -1 2 -2.5t2 -3.5v-5v154h23v-186h-21l-108 153l-3 2v2q0 2 -2 5v-162h-20zM2417 -145q0 20 6 39q2 9 5.5 17.5t8.5 16.5q5 9 11 16t12 15q8 6 14.5 11.5 t15.5 11.5l17 8.5t18 7.5q11 2 20.5 3t18.5 1t17 -0.5t16 -3.5q13 -3 31 -11q12 -5 26 -16q6 -5 12.5 -10.5t12.5 -11.5l-13 -14q-4 -3 -12 -7q-5 -2 -16 -2q-9 0 -19 6q-6 2 -12 6t-14 7q-6 2 -13.5 3t-15.5 1q-9 0 -18 -1.5t-17 -6.5q-9 -4 -16.5 -8.5t-13.5 -10.5 q-8 -8 -13 -14.5t-8 -16.5q-8 -16 -8 -36t8 -37q6 -19 21 -31q6 -6 13.5 -10.5t16.5 -9.5q15 -6 35 -7q8 0 15.5 1t13.5 3q14 3 26 13q2 2 4.5 2t4.5 2q3 1 5.5 1h4.5q8 0 16 -3q8 -4 12 -8l13 -11q-6 -6 -12.5 -11.5t-12.5 -10.5t-13 -9t-13 -8q-8 -5 -15.5 -6.5 t-15.5 -3.5q-8 -3 -16 -3.5t-17 -0.5q-14 0 -28.5 2.5t-28.5 7.5q-26 11 -47 33q-9 11 -17 22t-14 25q-12 28 -12 58zM2462 559q0 -9 1.5 -19.5t6.5 -19.5q3 -11 8.5 -18.5t11.5 -16.5q8 -6 17 -11.5t18 -8.5q16 -8 41 -8h13.5t13.5 2q8 3 14 5t12 7q5 3 10.5 6t10.5 8 q10 10 16 23q3 6 5.5 12t4.5 12l3.5 14t1.5 13q0 8 -1 15.5t-4 13.5q-2 8 -4.5 14t-5.5 12q-3 5 -7 10.5t-9 10.5t-10 8t-11 8q-6 3 -12 5.5t-14 5.5q-6 2 -13.5 3t-13.5 1q-8 0 -14.5 -1t-14.5 -3q-6 -2 -12 -5l-12 -6q-6 -5 -11 -8t-12 -8q-5 -5 -8 -10t-8 -11 q-3 -6 -5 -12t-5 -14q-2 -6 -2 -13.5v-15.5zM2488 559q0 18 6 31q3 8 7.5 13.5t9.5 10.5q6 6 12 10t12 7q8 3 15 4.5t16 1.5q16 0 29 -6q8 -3 13.5 -7t10.5 -10q6 -5 10 -10.5t7 -13.5q6 -12 6 -31q0 -13 -6 -29q-3 -6 -6.5 -12t-10.5 -12q-5 -5 -10.5 -9t-13.5 -8 q-12 -6 -29 -6q-9 0 -15.5 1.5t-15.5 4.5q-6 3 -12 7.5t-12 9.5q-5 6 -9 12l-8 12q-6 15 -6 29zM2634 74v186h114v-22h-94v-64h78v-20h-78v-80h-20zM2697 -145q0 20 6 39q3 9 6.5 17.5t8.5 16.5q5 9 10.5 16t13.5 15q13 13 29 23q9 4 17.5 8.5t17.5 7.5q11 2 20 3t21 1 q9 0 19 -1t20 -3q9 -3 17.5 -7.5t16.5 -8.5q9 -5 16 -11t15 -12q6 -8 12 -15t11 -16q5 -8 8.5 -16.5t5.5 -17.5q6 -18 6 -39q0 -20 -6 -39q-2 -9 -5.5 -18.5t-8.5 -18.5q-9 -15 -23 -29q-8 -6 -14.5 -11.5t-16.5 -10.5q-8 -6 -16.5 -10t-17.5 -7q-9 -2 -19.5 -3t-19.5 -1 q-15 0 -30 2.5t-30 7.5q-12 6 -24 14t-21 19q-22 22 -32 47q-7 14 -10 27.5t-3 30.5zM2707 459h29v172q2 -2 2 -3v-1q0 -4 2 -4q0 -4 2 -5l117 -159h23v205h-29v-160q0 5 -1 8t-3 6l-101 137q-4 4 -8 7q-2 0 -4.5 1t-7.5 1h-21v-205zM2750 -145q0 -9 2 -18.5t7 -18.5 q3 -9 8.5 -17t11.5 -14t14 -10.5t17 -9.5q15 -6 37 -7q18 0 37 7q8 5 15 9.5t15 10.5q6 6 11 14t10 17q6 18 6 37q0 18 -6 36q-5 9 -10 16t-11 15q-8 6 -15 10.5t-15 8.5q-16 8 -37 8q-24 0 -37 -8q-9 -4 -17 -8.5t-14 -10.5q-6 -8 -11.5 -14.5t-8.5 -16.5q-5 -9 -7 -18 t-2 -18zM2771 74v186h65q6 0 11 -1t10 -3q6 -3 9.5 -6t6.5 -6q9 -6 13 -17q2 -5 3 -10t1 -10v-9t-2 -10q-4 -9 -11 -16q-3 -6 -12 -12q-3 -2 -7.5 -3t-8.5 -3l61 -80h-12q-10 0 -14 2q-2 2 -4.5 3.5t-4.5 4.5l-51 70h-33v-80h-20zM2791 174h45q9 0 13 2q8 4 10 6q6 6 6 9 q2 4 3 7.5t1 8.5q0 4 -4 12q0 4 -6 10q-2 2 -10 7q-4 2 -13 2h-45v-64zM2929 166q0 6 1 12t3 12t3.5 12.5t6.5 12.5q2 5 5.5 9t7.5 9t9.5 8.5t10.5 6.5l11 5.5t11 4.5t12.5 3t12.5 1q8 0 14 -1t12 -3q11 -3 23 -10q12 -6 20 -15q5 -5 8.5 -9t6.5 -9l4 -12t4 -13 q3 -6 3.5 -12t0.5 -12q0 -9 -2 -19t-7 -18q-5 -18 -18 -31q-16 -14 -30 -20q-18 -6 -39 -6q-18 0 -37 6q-15 6 -30 20q-13 11 -19 31q-5 8 -6.5 18t-1.5 19zM2933 459h116v26h-90v179h-26v-205zM2949 166q0 -5 1 -9t1 -10q2 -6 4 -9.5t4 -8.5q3 -5 6.5 -8t6.5 -8 q6 -6 14 -11q5 -3 9 -4.5t9 -3.5t9.5 -2h9.5h10.5t9.5 2t9.5 3.5t9.5 4.5q5 2 8 5l6 6q5 5 7 8t5 8q6 8 9 18q2 5 2 9.5v9.5q0 16 -7 29q-3 8 -6.5 13.5t-9.5 10.5q-10 10 -22 17q-8 2 -15.5 3t-15.5 1q-6 0 -13.5 -1t-15.5 -3q-12 -6 -22 -17q-5 -5 -9.5 -10.5t-7.5 -13.5 q-6 -12 -6 -29zM3021 664l74 -101l1 -1q0 -1 0.5 -1.5t0.5 -1.5q2 -2 2 -3t2 -1v-5v-5v-86h28v86q0 2 1 3t1 2v2q0 1 2 3v1q0 1 2 3q0 4 5 4l71 101h-18q-10 0 -15 -5q-3 -2 -5.5 -5t-4.5 -5l-49 -65q-1 0 -2 -1v-1q0 -1 -0.5 -1.5t-0.5 -1.5l-1 -1v4v1l-2 1l-47 65 q-3 2 -5.5 5t-4.5 5q-5 2 -8.5 3.5t-8.5 1.5h-18zM3031 0h53q3 0 6.5 -1t6.5 -1q2 -2 4 -2t4 -2q3 -2 4.5 -4.5t3.5 -3.5q2 -2 3 -4t3 -5q9 -24 17.5 -45t17.5 -43q9 -24 18 -45t17 -43q2 -2 2 -6q0 -2 1 -3t1 -3v-7v-1l2 1v7q0 4 2 6v6l10 21l62 155q0 5 6 9q3 5 8 8 q2 2 5 2t5 2q2 0 4.5 1t5.5 1h54v-291h-54v213q-2 -3 -3 -6t-1 -8q-2 -5 -3 -8t-3 -6l-37 -93q-9 -24 -18 -46t-21 -46h-47l-75 185q-2 3 -3.5 6t-3.5 8q0 4 -4 12v-211h-53v291zM3160 74v186h16q4 0 9 -4q6 -3 6 -8l65 -144v-4q2 -2 2 -3v-1v4.5t2 5.5t2 5.5t1 5.5l61 131 q0 5 6 8q4 4 8 4h19v-186h-21v153h-2v-4v-2q0 -1 -1 -2h-1q-5 -11 -9 -21.5t-7 -19.5q-5 -11 -9.5 -19t-7.5 -19q-5 -8 -9 -16.5t-7 -17.5t-7 -16.5t-7 -15.5h-23q-8 17 -15 35t-16 36t-16.5 37t-15.5 37q-2 0 -2 4v4v-153h-21z" />
<glyph unicode="9" horiz-adv-x="3575" d="M125 166q0 6 1 12t3 12t4.5 12.5t5.5 12.5q3 5 6 9t9 9q8 8 20 15q11 7 23 10q6 2 12 3t12 1q11 0 20.5 -2.5t18.5 -5.5q8 -5 15.5 -9.5t13.5 -11.5q0 -2 -1 -2t-3 -2l-2 -2q-2 -2 -3 -2h-1h-7h-4t-4 2q-5 3 -9.5 6t-10.5 5q-5 2 -11 2h-12q-8 0 -15 -1t-15 -3 q-12 -7 -21 -17q-6 -5 -9.5 -10.5t-6.5 -13.5q-6 -12 -7 -29v-9t3 -10q2 -10 8 -18q3 -5 6 -8t6 -8q6 -6 14 -11q5 -3 9.5 -4.5t9.5 -3.5t9.5 -2h10.5h12.5t12.5 2t11 4.5l11 5.5v39h-14q-2 0 -4 1t-4 1q-2 2 -3 2t-3 3q0 2 -1 3t-1 3q-2 2 -2 6v2h51v-72q-3 -5 -6 -7t-9 -5 q-3 -2 -6 -3t-8 -1q-5 -2 -9 -3t-9 -1h-21h-12t-12 2q-11 3 -23 10q-12 6 -20 14q-9 9 -15 21q-7 10 -10 21q-2 7 -3 13.5t-1 12.5zM125 -274q0 4 1 7.5t1 6.5q2 3 2 6t2 6l6 12q4 3 8 11l129 174h-141v51h215v-25v-14q-2 -3 -3 -6t-3 -6l-145 -193q2 0 4 2q2 0 4 2h4h139 v-51h-223v17zM133 326v784h1223q0 81 30 154q32 73 84 125q54 51 125 81q71 31 150 31q87 0 156 -33q71 -34 122 -86q51 -54 82 -125t31 -147h1221v-784h-3224zM301 459h29v76h45q6 0 12 1t12 3q12 6 21 14q8 8 14 20q2 6 3 12.5t1 12.5q0 8 -1 14t-3 13q-3 5 -6 9t-8 9 t-9.5 8.5t-11.5 5.5q-12 6 -24 7h-74v-205zM330 561v74h45q3 0 6 -1t8 -3q3 0 5.5 -2t4.5 -4q4 -4 9 -13q2 -4 2 -14v-7t-2 -7q-4 -8 -9 -11q-4 -5 -10 -8q-5 -2 -8 -3t-6 -1h-45zM336 74v186h113v-22h-93v-60h74v-20h-74v-64h93v-20h-113zM385 0h186v-51h-133v-68h107v-51 h-107v-70h133v-51h-186v291zM459 459h127v26h-99v62h80v28h-80v60h99v29h-127v-205zM471 238v22h141v-22h-59v-164h-23v164h-59zM582 0h223v-51h-86v-240h-53v240h-84v51zM629 459h28v84h31l53 -72q3 -7 11 -10q2 -2 6.5 -2h9.5h18l-65 88q5 2 9 3t7 5q8 3 15 12q5 6 8 17 q2 5 2 9v8q0 8 -0.5 14t-3.5 12q-2 5 -5.5 9t-7.5 9q-9 9 -18 12q-12 6 -25 7h-73v-205zM657 571v64h45q4 0 13 -4q7 0 10 -6q3 -2 4.5 -4.5t3.5 -4.5q0 -3 1 -6.5t1 -8.5q0 -2 -1 -5t-1 -6q-2 -2 -3.5 -4.5t-4.5 -5.5q-2 -2 -10 -7q-4 -2 -13 -2h-45zM729 74v186h113v-22 h-92v-64h77v-20h-77v-80h-21zM760 -291l127 291h49l125 -291h-33q-11 0 -20 6q-5 3 -8.5 7.5t-6.5 8.5l-16 40h-131l-19 -40q0 -3 -4 -7q-2 -3 -4 -5l-4 -4q-3 -2 -5 -3t-5 -1q-3 -2 -5.5 -2h-4.5h-35zM795 496q2 -2 2 -3t2 -1q0 -2 1 -3.5t1 -3.5q4 -4 5 -6q4 -5 7 -5 q9 -10 20 -13.5t25 -3.5q8 0 14.5 0.5t14.5 3.5q11 3 20 13q12 10 17 20q6 12 6 24q0 29 -23 45q-2 2 -4 3t-4 3q-3 2 -5 2t-5 2q-2 2 -4 2t-6 3q-2 0 -11 4q-5 2 -9 3t-7 3q-5 2 -7 3t-5 3q-4 4 -6 7q-1 3 -1 11q0 6 1 11q2 2 3.5 4t4.5 4q2 0 10 4q4 2 12 2q3 0 5.5 -1 t4.5 -1q3 -2 7 -3t6 -3q8 -4 12 -4q8 0 14 6l7 4q-2 3 -5 5t-6 5t-6 5t-6 5q-3 2 -7 3t-9 4q-8 4 -17 4q-6 0 -11 -1t-11 -3t-11 -5l-10 -6q-3 -3 -6 -7t-6 -9q-6 -9 -6 -23q0 -8 1.5 -12.5t4.5 -9.5q3 -10 12 -17q7 -7 19 -10q5 -3 9.5 -5t10.5 -5q3 -2 6 -2.5t8 -1.5 q3 -2 7 -3t6 -3q3 -3 5.5 -5t4.5 -6q2 -3 3 -6t1 -8q0 -6 -4 -14q-3 -7 -10 -10q-2 -3 -5.5 -5t-7.5 -4q-5 0 -8 -1t-8 -1q-3 0 -7 1t-7 1q-8 4 -11 9l-4 2q-6 6 -16 6q-7 0 -10 -4zM868 -176h86l-39 88q-2 3 -2 5.5t-2 4.5v8q0 -4 -2 -8q0 -2 -1 -4.5t-1 -5.5zM879 145v115 h20v-115q0 -6 0.5 -10.5t3.5 -9.5q2 -6 4.5 -9.5t5.5 -9.5q5 -3 9 -5.5t10 -4.5q5 -3 9.5 -3.5t10.5 -0.5t11 0.5t10 3.5q11 4 16 10q5 5 7 9l5 10q2 5 3.5 9.5t1.5 10.5v115h20v-115q0 -16 -6 -28q-3 -8 -6 -14t-8 -11q-6 -5 -12.5 -9t-12.5 -7q-6 -2 -13 -3t-16 -1 q-8 0 -15 1t-13 3q-13 5 -25 16q-5 5 -9 11t-6 14q-4 6 -4.5 13t-0.5 15zM952 559q0 -9 1.5 -19.5t7.5 -19.5q5 -11 10.5 -18.5t11.5 -16.5q8 -6 16 -11.5t17 -8.5q19 -8 41 -8h14t14 2q6 3 12.5 5t12.5 7q10 5 23 14q3 5 7 11t7 12q5 6 7 12t5 12q2 8 2 14v13v15.5t-2 13.5 q-3 8 -5 14t-7 12q-3 5 -7 10.5t-7 10.5q-6 5 -11.5 8t-11.5 8q-6 3 -12 5.5t-13 5.5q-8 2 -14 3t-14 1q-6 0 -13.5 -1t-13.5 -3q-8 -2 -14 -5l-12 -6q-5 -5 -10.5 -8t-10.5 -8t-9 -10t-7 -11l-6 -12t-5 -14q-2 -6 -3 -13.5t-1 -15.5zM981 559q0 18 6 31q3 8 6.5 13.5 t10.5 10.5q5 6 10.5 10t13.5 7q13 6 29 6q15 0 30 -6q6 -3 12.5 -7t12.5 -10q11 -11 16 -24q6 -12 7 -31q0 -13 -7 -29q-3 -6 -7 -12t-9 -12q-6 -5 -12 -9t-13 -8q-15 -6 -30 -6t-29 6q-13 5 -24 17q-6 6 -10 12t-7 12q-6 15 -6 29zM1065 74v186h22v-166h82v-20h-104z M1073 0h187v-51h-134v-74h111v-51h-111v-115h-53v291zM1194 74v186h20v-166h82v-20h-102zM1200 459h29v172v-4q2 -2 2 -3v-1q0 -2 1 -3q0 -1 1 -2l117 -159h24v205h-28v-160q0 5 -1.5 8t-3.5 6l-100 137q-4 4 -8 7q-3 0 -6 1t-6 1h-21v-205zM1278 -145q0 9 0.5 19t3.5 20 q3 9 6 17.5t8 16.5q5 9 11 16t14 15q13 13 29 23q9 4 17 8.5t17 7.5q11 2 20.5 3t20.5 1t20.5 -1t18.5 -3q9 -3 18 -7.5l17 -8.5q9 -5 17 -11t14 -12q6 -8 11.5 -15t10.5 -16q5 -8 9 -16.5t6 -17.5q6 -18 6 -39q0 -20 -6 -39q-2 -9 -5.5 -18.5t-9.5 -18.5q-9 -15 -22 -29 q-6 -6 -14 -11.5t-17 -10.5q-8 -6 -16.5 -10t-18.5 -7q-9 -2 -18 -3t-21 -1q-15 0 -30 2.5t-27 7.5q-14 6 -26 14t-21 19q-22 22 -33 47q-6 14 -8 27.5t-2 30.5zM1329 -145q0 -9 2.5 -18.5t5.5 -18.5q10 -20 21 -31q6 -6 13.5 -10.5t17.5 -9.5q15 -6 36 -7q18 0 37 7 q7 5 15 9.5t16 10.5q6 6 10.5 14t9.5 17q6 18 7 37q0 18 -7 36q-5 9 -9.5 16t-10.5 15q-8 6 -16 10.5t-15 8.5q-16 8 -37 8q-24 0 -36 -8q-9 -4 -17 -8.5t-14 -10.5q-6 -8 -11 -14.5t-10 -16.5q-3 -9 -5.5 -18t-2.5 -18zM1386 260h11q3 0 5 -1t5 -3q2 -2 4 -3.5t2 -4.5 l62 -139q0 -2 1 -3.5t1 -3.5v-6v6q2 2 2 7q8 17 15 34.5t15 34.5q8 18 15.5 35t15.5 35q2 4 6 8q8 4 10 4h13q-11 -24 -21.5 -47.5t-19.5 -46.5q-11 -24 -20.5 -46.5t-20.5 -45.5h-21zM1386 1108q0 -71 29 -137q14 -33 32.5 -61.5t43.5 -53.5q46 -49 113 -78q65 -31 141 -30 q73 0 139 28q65 28 115 78q25 24 43.5 52t34.5 61q27 66 26 141q0 34 -4.5 64.5t-15.5 58.5q-9 27 -24 53t-34 49q-18 22 -38.5 40.5t-44.5 35.5q-25 14 -50.5 25.5t-52.5 19.5q-22 8 -44.5 11t-49.5 3q-76 0 -143 -30q-33 -14 -61 -34t-52 -44q-25 -25 -43.5 -53.5 t-32.5 -61.5q-12 -33 -19.5 -66.5t-7.5 -70.5zM1393 459h16q8 0 11 2q7 5 10 10l14 33h104l15 -33q4 -8 8 -10q2 -2 5.5 -2h6.5h16l-88 205h-28zM1423 1108q0 58 19 111q8 27 21.5 49.5t31.5 46.5h428l-420 -424q-20 24 -35 48.5t-24 51.5q-11 27 -16 56.5t-5 60.5z M1456 532l37 86q2 2 2 5q0 2 1 4t1 4q0 -10 2 -13l37 -86h-80zM1528 866h434q-24 -18 -48.5 -33.5t-51.5 -26.5q-27 -10 -56.5 -16t-60.5 -6q-32 0 -61 6t-56 16q-28 11 -52.5 26.5t-47.5 33.5zM1528 1350q22 20 46.5 35t50.5 26q54 20 120 21q31 0 60.5 -5t56.5 -16 q55 -25 98 -61h-432zM1565 901l422 426q80 -104 79 -219q0 -30 -4 -57t-14 -54q-9 -27 -22.5 -49.5t-30.5 -46.5h-430zM1583 74v186h115v-22h-92v-60h73v-20h-73v-64h92v-20h-115zM1612 0h47q8 0 16 -4t11 -9q15 -20 30.5 -42t30.5 -43q15 -22 30 -43t29 -41q6 -6 6 -13 q2 -3 2.5 -5.5t0.5 -4.5v205h53v-291h-49l-138 195q-4 4 -4 6q-2 4 -6 8q0 2 -4 6q0 2 -1 3t-1 3v-221h-53v291zM1620 459h117v26h-88v179h-29v-205zM1741 74v186h67q5 0 10.5 -1t10.5 -3q5 -3 9 -6t7 -6t6 -7.5t7 -9.5q2 -5 3 -10t1 -10t-1 -9t-3 -10q-2 -10 -9 -16 l-12 -12q-5 -2 -8 -3t-8 -3l59 -80h-12q-8 0 -11 2q-6 2 -10 8l-53 70h-31v-80h-22zM1763 174h45q8 0 13 2q3 2 5 3t5 3q2 3 3 5t3 4q2 4 3 7.5t1 8.5q0 4 -4 12q-2 3 -3 5t-3 5q-3 2 -5 3t-5 4q-4 2 -13 2h-45v-64zM1853 539q0 -6 0.5 -12t3.5 -11q1 -6 3 -10.5t4 -9.5 q3 -5 6 -9.5t8 -7.5q3 -3 7 -6t9 -6t10.5 -4.5t10.5 -3.5t10 -3t10 -1q6 0 12.5 1t11.5 3q12 3 19 8q5 3 8.5 6t8.5 6q3 3 6 7t6 10q5 7 8 20q2 5 3 10.5t1 12.5v125h-28v-125q0 -6 -1 -11.5t-3 -11.5q-3 -5 -5.5 -9t-7.5 -7q-3 -5 -7 -7.5t-8 -5.5q-7 -2 -12 -3t-12 -1 q-5 0 -10 1t-10 3q-5 3 -9 5.5t-8 7.5q-9 6 -12 16q-2 6 -3 11t-1 12v125h-29v-125zM1892 0h224v-51h-84v-240h-54v240h-86v51zM1896 104l5 2l1 2q1 0 1.5 0.5t1.5 0.5h4q8 0 12 -5q3 -5 7 -6.5t7 -3.5q5 -2 8.5 -2h8.5h6t8 2q6 0 12 6q7 3 11 11q4 10 4 14q0 9 -4 15 q-3 6 -9 10q-4 4 -12 8q-4 0 -14 4q-6 2 -11 4l-10 4q-9 3 -16 10q-3 2 -5.5 5.5t-3.5 5.5q-2 5 -3.5 10.5t-1.5 11.5q0 11 6 20q3 8 12 15q7 7 16 10q5 2 11 3t11 1q2 0 6 -1t7 -1q5 -2 8 -3t7 -3q3 -3 5.5 -4.5t4.5 -3.5l8 -8l-4 -5q-4 -4 -10 -4q-8 0 -11 2q-2 2 -3 2 t-3 3q-2 0 -2 1t-2 1t-3 1t-3 1h-5h-8t-7 -2q-3 0 -5.5 -1t-5.5 -4q-2 -3 -4 -5t-2 -5q-4 -4 -4 -10q0 -8 2 -10q2 -4 6 -8q5 -4 13 -7q3 -2 7 -3t9 -3q3 -2 5 -2t5 -2q4 0 8 -4q3 0 5.5 -1t5.5 -3q2 0 6 -4l8 -8t7 -8q1 -7 2 -12t1 -13q0 -6 -1 -11t-2 -12q-4 -5 -7 -9.5 t-8 -6.5q-7 -7 -21 -10q-5 -3 -10.5 -3.5t-11.5 -0.5q-27 0 -41 14q-2 2 -5 4.5t-5 5.5q-4 4 -5 8zM2048 496q0 -2 1 -3q0 -1 1 -1q2 -2 2 -3.5t2 -3.5q4 -4 4 -6q4 -5 8 -5q9 -10 20 -13.5t25 -3.5q8 0 14.5 0.5t11.5 3.5q15 3 24 13q11 10 16 20q3 6 3.5 12t0.5 12 q0 31 -20 45q-4 2 -9 6q-3 2 -5 2t-5 2q-4 2 -5.5 2t-4.5 3q-3 0 -5 1t-5 3q-5 2 -9.5 3t-7.5 3q-9 3 -12 6q-6 3 -6 7q-2 3 -2 11q0 6 2 11q2 2 3.5 4t4.5 4q2 0 10 4q4 2 13 2q3 0 5 -1t5 -1l12 -6q8 -4 12 -4q6 0 13 6l8 4q-2 3 -4.5 5t-5.5 5t-6.5 5t-6.5 5q-3 2 -7 3 t-9 4q-5 2 -8 3t-8 1q-6 0 -12 -1t-11 -3q-6 -2 -10.5 -5t-9.5 -6l-7 -7t-6 -9q-6 -9 -6 -23q0 -8 1.5 -12.5t3.5 -9.5q5 -11 14 -17q7 -7 16 -10q6 -3 11 -5t12 -5q3 -2 6 -2.5t8 -1.5l12 -6q3 -3 5.5 -5t4.5 -6q2 -3 3 -6t1 -8q0 -6 -4 -14q-3 -7 -10 -10q-5 -5 -14 -9 q-3 0 -7 -1t-8 -1q-5 0 -8 1t-6 1q-10 3 -12 9l-2 2q-6 6 -17 6q-8 0 -10 -4zM2054 74v186h23v-186h-23zM2120 166q0 6 1 12t3 12t3.5 12.5t4.5 12.5q4 5 7.5 9t8.5 9t9.5 8.5t9.5 6.5q10 7 21 10q7 2 13.5 3t14.5 1q6 0 12 -1t11 -3q12 -3 24 -10q12 -6 21 -15q5 -5 8 -9 t6 -9q3 -6 5.5 -12t4.5 -13q2 -6 2 -12v-12q0 -20 -6 -37q-8 -17 -20 -31q-16 -14 -31 -20q-20 -6 -37 -6q-23 0 -39 6q-17 6 -29 20q-6 6 -11.5 14t-8.5 17q-5 8 -6.5 18t-1.5 19zM2120 -229q2 0 6 4q4 0 8 4q2 0 4 1t4 1t4 0.5t4 0.5q6 0 13 -3q5 0 8 -1t6 -3q7 -7 16 -11 q5 -2 11 -3t12 -1h7t9 2q3 2 7.5 3.5t7.5 3.5q9 6 12 13q6 7 6 17q0 5 -1 8.5t-3 6.5q-3 3 -6 5.5t-6 4.5q-8 5 -17 8q-8 1 -18 8q-8 2 -15.5 4.5t-15.5 5.5t-14 7.5t-12 9.5q-10 10 -17 22q-8 13 -8 33q0 10 2.5 18.5t5.5 16.5q10 16 21 25q6 4 13 8.5t14 7.5q8 2 17 3 t17 1q6 0 12.5 -1t12.5 -3q13 -3 22 -11q6 -2 11 -6.5t10 -9.5q5 -3 8 -7t6 -9l-10 -8l-6 -4t-9 -4q-5 -2 -8 -3t-6 -1h-4h-4q-3 2 -5 3t-5 3q-2 2 -5 2t-4 2q-2 0 -3.5 1t-4.5 1q-2 2 -8 2h-6t-8 -2q-6 0 -10 -4q-3 -2 -6.5 -5t-4.5 -4q-2 -4 -2 -12t2 -10q1 -3 4 -5t7 -5 q3 -2 7 -3t9 -3t10.5 -4.5t13.5 -4.5l9 -4q9 -3 15.5 -6t14.5 -8q15 -8 23 -19q9 -9 12 -22q6 -12 6 -29q0 -11 -2.5 -19.5t-5.5 -17.5q-5 -9 -10.5 -16.5t-11.5 -14.5q-15 -11 -35 -18q-20 -6 -37 -6q-23 0 -41 6q-9 5 -17 10t-16 13q-5 5 -8 9t-6 9q-5 8 -8 17zM2140 166 q0 -5 1 -9t3 -10t3 -9.5t3 -8.5q3 -5 6.5 -8t6.5 -8q6 -6 14 -11q7 -5 18 -8q5 -2 10 -2h11h9t9 2q4 2 9 3.5t10 4.5q5 2 8 5l6 6q5 5 7 8t5 8q6 8 9 18q2 5 2 9.5v9.5q0 16 -6 29q-3 8 -7 13.5t-10 10.5q-10 10 -22 17q-6 2 -13.5 3t-15.5 1t-15.5 -1t-15.5 -3 q-12 -6 -22 -17q-5 -5 -9.5 -10.5t-7.5 -13.5q-6 -12 -6 -29zM2218 459h127v26h-100v62h79v28h-79v60h100v29h-127v-205zM2333 -262q0 3 1 6.5t1 5.5q4 8 7 10q4 6 11 7q8 4 12 4t13 -4q7 -1 10 -7q5 -3 5 -10q2 -2 3.5 -5.5t1.5 -6.5q0 -5 -5 -12q0 -5 -5 -11q-2 -2 -10 -6 q-4 -2 -13 -2q-8 0 -12 2q-8 4 -11 6q-2 3 -3.5 5t-3.5 6q0 3 -1 6t-1 6zM2345 74v186h14q13 0 17 -8l96 -135q2 -1 2 -2.5t2 -3.5v-5v154h23v-186h-21l-108 153l-3 2v2q0 2 -2 5v-162h-20zM2417 -145q0 20 6 39q2 9 5.5 17.5t8.5 16.5q5 9 11 16t12 15q8 6 14.5 11.5 t15.5 11.5l17 8.5t18 7.5q11 2 20.5 3t18.5 1t17 -0.5t16 -3.5q13 -3 31 -11q12 -5 26 -16q6 -5 12.5 -10.5t12.5 -11.5l-13 -14q-4 -3 -12 -7q-5 -2 -16 -2q-9 0 -19 6q-6 2 -12 6t-14 7q-6 2 -13.5 3t-15.5 1q-9 0 -18 -1.5t-17 -6.5q-9 -4 -16.5 -8.5t-13.5 -10.5 q-8 -8 -13 -14.5t-8 -16.5q-8 -16 -8 -36t8 -37q6 -19 21 -31q6 -6 13.5 -10.5t16.5 -9.5q15 -6 35 -7q8 0 15.5 1t13.5 3q14 3 26 13q2 2 4.5 2t4.5 2q3 1 5.5 1h4.5q8 0 16 -3q8 -4 12 -8l13 -11q-6 -6 -12.5 -11.5t-12.5 -10.5t-13 -9t-13 -8q-8 -5 -15.5 -6.5 t-15.5 -3.5q-8 -3 -16 -3.5t-17 -0.5q-14 0 -28.5 2.5t-28.5 7.5q-26 11 -47 33q-9 11 -17 22t-14 25q-12 28 -12 58zM2462 559q0 -9 1.5 -19.5t6.5 -19.5q3 -11 8.5 -18.5t11.5 -16.5q8 -6 17 -11.5t18 -8.5q16 -8 41 -8h13.5t13.5 2q8 3 14 5t12 7q5 3 10.5 6t10.5 8 q10 10 16 23q3 6 5.5 12t4.5 12l3.5 14t1.5 13q0 8 -1 15.5t-4 13.5q-2 8 -4.5 14t-5.5 12q-3 5 -7 10.5t-9 10.5t-10 8t-11 8q-6 3 -12 5.5t-14 5.5q-6 2 -13.5 3t-13.5 1q-8 0 -14.5 -1t-14.5 -3q-6 -2 -12 -5l-12 -6q-6 -5 -11 -8t-12 -8q-5 -5 -8 -10t-8 -11 q-3 -6 -5 -12t-5 -14q-2 -6 -2 -13.5v-15.5zM2488 559q0 18 6 31q3 8 7.5 13.5t9.5 10.5q6 6 12 10t12 7q8 3 15 4.5t16 1.5q16 0 29 -6q8 -3 13.5 -7t10.5 -10q6 -5 10 -10.5t7 -13.5q6 -12 6 -31q0 -13 -6 -29q-3 -6 -6.5 -12t-10.5 -12q-5 -5 -10.5 -9t-13.5 -8 q-12 -6 -29 -6q-9 0 -15.5 1.5t-15.5 4.5q-6 3 -12 7.5t-12 9.5q-5 6 -9 12l-8 12q-6 15 -6 29zM2634 74v186h114v-22h-94v-64h78v-20h-78v-80h-20zM2697 -145q0 20 6 39q3 9 6.5 17.5t8.5 16.5q5 9 10.5 16t13.5 15q13 13 29 23q9 4 17.5 8.5t17.5 7.5q11 2 20 3t21 1 q9 0 19 -1t20 -3q9 -3 17.5 -7.5t16.5 -8.5q9 -5 16 -11t15 -12q6 -8 12 -15t11 -16q5 -8 8.5 -16.5t5.5 -17.5q6 -18 6 -39q0 -20 -6 -39q-2 -9 -5.5 -18.5t-8.5 -18.5q-9 -15 -23 -29q-8 -6 -14.5 -11.5t-16.5 -10.5q-8 -6 -16.5 -10t-17.5 -7q-9 -2 -19.5 -3t-19.5 -1 q-15 0 -30 2.5t-30 7.5q-12 6 -24 14t-21 19q-22 22 -32 47q-7 14 -10 27.5t-3 30.5zM2707 459h29v172q2 -2 2 -3v-1q0 -4 2 -4q0 -4 2 -5l117 -159h23v205h-29v-160q0 5 -1 8t-3 6l-101 137q-4 4 -8 7q-2 0 -4.5 1t-7.5 1h-21v-205zM2750 -145q0 -9 2 -18.5t7 -18.5 q3 -9 8.5 -17t11.5 -14t14 -10.5t17 -9.5q15 -6 37 -7q18 0 37 7q8 5 15 9.5t15 10.5q6 6 11 14t10 17q6 18 6 37q0 18 -6 36q-5 9 -10 16t-11 15q-8 6 -15 10.5t-15 8.5q-16 8 -37 8q-24 0 -37 -8q-9 -4 -17 -8.5t-14 -10.5q-6 -8 -11.5 -14.5t-8.5 -16.5q-5 -9 -7 -18 t-2 -18zM2771 74v186h65q6 0 11 -1t10 -3q6 -3 9.5 -6t6.5 -6q9 -6 13 -17q2 -5 3 -10t1 -10v-9t-2 -10q-4 -9 -11 -16q-3 -6 -12 -12q-3 -2 -7.5 -3t-8.5 -3l61 -80h-12q-10 0 -14 2q-2 2 -4.5 3.5t-4.5 4.5l-51 70h-33v-80h-20zM2791 174h45q9 0 13 2q8 4 10 6q6 6 6 9 q2 4 3 7.5t1 8.5q0 4 -4 12q0 4 -6 10q-2 2 -10 7q-4 2 -13 2h-45v-64zM2929 166q0 6 1 12t3 12t3.5 12.5t6.5 12.5q2 5 5.5 9t7.5 9t9.5 8.5t10.5 6.5l11 5.5t11 4.5t12.5 3t12.5 1q8 0 14 -1t12 -3q11 -3 23 -10q12 -6 20 -15q5 -5 8.5 -9t6.5 -9l4 -12t4 -13 q3 -6 3.5 -12t0.5 -12q0 -9 -2 -19t-7 -18q-5 -18 -18 -31q-16 -14 -30 -20q-18 -6 -39 -6q-18 0 -37 6q-15 6 -30 20q-13 11 -19 31q-5 8 -6.5 18t-1.5 19zM2933 459h116v26h-90v179h-26v-205zM2949 166q0 -5 1 -9t1 -10q2 -6 4 -9.5t4 -8.5q3 -5 6.5 -8t6.5 -8 q6 -6 14 -11q5 -3 9 -4.5t9 -3.5t9.5 -2h9.5h10.5t9.5 2t9.5 3.5t9.5 4.5q5 2 8 5l6 6q5 5 7 8t5 8q6 8 9 18q2 5 2 9.5v9.5q0 16 -7 29q-3 8 -6.5 13.5t-9.5 10.5q-10 10 -22 17q-8 2 -15.5 3t-15.5 1q-6 0 -13.5 -1t-15.5 -3q-12 -6 -22 -17q-5 -5 -9.5 -10.5t-7.5 -13.5 q-6 -12 -6 -29zM3021 664l74 -101l1 -1q0 -1 0.5 -1.5t0.5 -1.5q2 -2 2 -3t2 -1v-5v-5v-86h28v86q0 2 1 3t1 2v2q0 1 2 3v1q0 1 2 3q0 4 5 4l71 101h-18q-10 0 -15 -5q-3 -2 -5.5 -5t-4.5 -5l-49 -65q-1 0 -2 -1v-1q0 -1 -0.5 -1.5t-0.5 -1.5l-1 -1v4v1l-2 1l-47 65 q-3 2 -5.5 5t-4.5 5q-5 2 -8.5 3.5t-8.5 1.5h-18zM3031 0h53q3 0 6.5 -1t6.5 -1q2 -2 4 -2t4 -2q3 -2 4.5 -4.5t3.5 -3.5q2 -2 3 -4t3 -5q9 -24 17.5 -45t17.5 -43q9 -24 18 -45t17 -43q2 -2 2 -6q0 -2 1 -3t1 -3v-7v-1l2 1v7q0 4 2 6v6l10 21l62 155q0 5 6 9q3 5 8 8 q2 2 5 2t5 2q2 0 4.5 1t5.5 1h54v-291h-54v213q-2 -3 -3 -6t-1 -8q-2 -5 -3 -8t-3 -6l-37 -93q-9 -24 -18 -46t-21 -46h-47l-75 185q-2 3 -3.5 6t-3.5 8q0 4 -4 12v-211h-53v291zM3160 74v186h16q4 0 9 -4q6 -3 6 -8l65 -144v-4q2 -2 2 -3v-1v4.5t2 5.5t2 5.5t1 5.5l61 131 q0 5 6 8q4 4 8 4h19v-186h-21v153h-2v-4v-2q0 -1 -1 -2h-1q-5 -11 -9 -21.5t-7 -19.5q-5 -11 -9.5 -19t-7.5 -19q-5 -8 -9 -16.5t-7 -17.5t-7 -16.5t-7 -15.5h-23q-8 17 -15 35t-16 36t-16.5 37t-15.5 37q-2 0 -2 4v4v-153h-21z" />
<glyph unicode=":" horiz-adv-x="455" d="M62 150q0 34 13 64t35.5 52.5t53 35t63.5 12.5q34 0 64.5 -12.5t53 -35t35.5 -53t13 -63.5q0 -34 -13 -64.5t-35.5 -53t-53 -35t-64.5 -12.5t-64 12.5t-52.5 35t-35.5 53t-13 64.5zM62 841q0 34 13 64t35.5 52.5t53 35.5t63.5 13q34 0 64.5 -13t53 -35.5t35.5 -53 t13 -63.5q0 -34 -13 -64.5t-35.5 -53t-53 -35t-64.5 -12.5t-64 12.5t-52.5 35t-35.5 53t-13 64.5z" />
<glyph unicode=";" horiz-adv-x="457" d="M57 41.5q0 24.5 1 48t2 43.5q1 35 14.5 64.5t36 52t53 35.5t64.5 13q4 0 8 -2q32 -1 60 -13.5t49.5 -34t34 -50.5t11.5 -63q-3 -58 -27 -110t-59.5 -91t-77.5 -63.5t-82 -26.5q-34 0 -53 30t-27 78q-4 19 -6 42t-2 47.5zM62 844q0 34 13 63.5t35 51.5t52.5 34.5 t64.5 12.5t64.5 -12.5t53 -34.5t35 -51.5t12.5 -63.5q0 -35 -12.5 -64.5t-35 -51t-53 -34t-64.5 -12.5q-35 0 -65 12.5t-52 34t-35 51t-13 64.5z" />
<glyph unicode="&#x3c;" horiz-adv-x="753" d="M58 588q0 34 17 67t42 57l274 272q30 30 63.5 51t72.5 26q31 1 62 -11.5t54.5 -35.5t37 -53.5t12.5 -66.5q-3 -35 -20.5 -68.5t-45.5 -58.5l-216 -180l211 -174q29 -25 46.5 -59.5t19.5 -67.5q1 -29 -6.5 -52.5t-22.5 -44.5q-22 -31 -55 -48.5t-69 -19.5q-11 -1 -22.5 -1 t-24.5 3q-12 3 -25 10t-26.5 17t-26.5 20.5t-23 22.5l-271 270q-27 26 -42.5 59t-15.5 66z" />
<glyph unicode="=" horiz-adv-x="949" d="M75 362q0 36 12.5 66t35.5 51t55.5 32.5t70.5 11.5h451q37 0 69 -11.5t55 -33t36 -51.5t13 -65t-13 -64.5t-36 -51t-55 -33t-69 -11.5h-451q-38 0 -70.5 11.5t-55.5 32.5t-35.5 51t-12.5 65zM75 774q0 36 12.5 65t35.5 50t55.5 33t70.5 12h451q37 0 69 -12t55 -33.5 t36 -50.5t13 -64q0 -36 -13 -65t-36 -50.5t-55 -33.5t-69 -12h-451q-38 0 -70.5 11.5t-55.5 32.5t-35.5 50.5t-12.5 66.5z" />
<glyph unicode="&#x3e;" horiz-adv-x="752" d="M61 894q-1 24 8 49q7 26 22 47.5t35.5 37t46.5 24.5t52 9q39 -5 74.5 -26t65.5 -51l273 -272q25 -27 40 -57.5t17 -66.5q0 -34 -15 -67t-42 -58l-269 -270q-23 -20 -50 -41t-55 -29q-48 -11 -94 6.5t-74 60.5q-31 41 -30 96q2 35 20 68.5t47 58.5l211 174l-217 180 q-29 25 -46.5 58t-19.5 69z" />
<glyph unicode="?" horiz-adv-x="1114" d="M98.5 950.5q-5.5 34.5 10.5 75.5q23 68 65 125.5t102 99.5t135.5 65.5t166.5 23.5q92 0 175 -35t146.5 -95.5t100.5 -141t37 -171.5q0 -47 -8 -88t-28 -80t-52.5 -79t-81.5 -84q-30 -26 -64 -45.5t-66 -42.5t-58 -53.5t-37 -76.5q-6 -24 -19.5 -40t-28.5 -26t-31 -14 t-28 -4q-23 0 -48 6t-46 22t-35 42.5t-14 67.5q0 45 7.5 78t24.5 61t47 56.5t76 64.5q24 18 54 38.5t56.5 45.5t45 56t18.5 68t-13.5 67t-35.5 51t-50.5 31.5t-59.5 10.5q-36 0 -62 -9t-45.5 -24.5t-33.5 -35t-26 -40.5q-11 -27 -29.5 -46.5t-41.5 -32t-48.5 -16.5t-50.5 0 q-30 5 -57.5 22t-45.5 42.5t-23.5 60zM361 37q0 34 13 64t35.5 52.5t53 36t63.5 13.5q34 0 64.5 -13.5t53 -36t35 -52.5t12.5 -64t-12.5 -64t-35 -52.5t-53 -35.5t-64.5 -13t-64 13t-52.5 35.5t-35.5 52.5t-13 64z" />
<glyph unicode="@" horiz-adv-x="14030" d="M144 72v1097q0 34 12.5 63.5t34 51.5t51 34t63.5 12q33 0 62 -12t51 -34t35 -51.5t13 -63.5v-661l-39 -246l-66 -162q-17 -57 -49 -86.5t-79 -29.5q-45 0 -67 22.5t-22 65.5zM229 495q0 105 37 197.5t100 162.5t146 110.5t175 40.5q105 0 193.5 -40.5t152 -110.5 t98.5 -162.5t35 -197.5t-35 -198.5t-98.5 -162.5t-151.5 -109.5t-194 -40.5q-104 0 -189 40.5t-144.5 109.5t-92 162.5t-32.5 198.5zM466 495q0 -40 15 -76.5t40 -63.5t59.5 -43t74.5 -16t75 16t60.5 43t40 63.5t14.5 76.5t-14.5 76t-40 62.5t-60.5 42.5t-75 16t-74.5 -16 t-59.5 -42.5t-40 -62.5t-15 -76zM1242 496q0 -105 32.5 -198.5t91.5 -162.5t144 -109.5t190 -40.5q40 0 86 8t95 26.5t99 48t96 73.5l-131 356q0 -40 -16 -76t-43.5 -63.5t-63.5 -44t-76 -16.5t-73.5 16t-57.5 43t-37.5 63.5t-13.5 76.5v351q0 33 -13 61.5t-35.5 50 t-51.5 34.5t-63 13t-62.5 -13t-50 -35t-34 -50.5t-12.5 -60.5v-351zM1945 291l38 -3l65 -187q20 -61 51.5 -88.5t77.5 -27.5q88 0 88 88v773q0 34 -12 63t-33.5 50.5t-51 34t-64.5 12.5q-33 0 -62 -12.5t-50.5 -34t-34 -50.5t-12.5 -63v-555zM2361 72v1097q0 34 12.5 63.5 t34 51.5t51 34t63.5 12q33 0 62 -12t51 -34t35 -51.5t13 -63.5v-661l-39 -246l-66 -162q-17 -57 -49 -86.5t-79 -29.5q-45 0 -67 22.5t-22 65.5zM2446 495q0 105 37 197.5t100 162.5t146 110.5t175 40.5q105 0 193.5 -40.5t152 -110.5t98.5 -162.5t35 -197.5t-35 -198.5 t-98.5 -162.5t-151.5 -109.5t-194 -40.5q-104 0 -189 40.5t-144.5 109.5t-92 162.5t-32.5 198.5zM2683 495q0 -40 15 -76.5t40 -63.5t59.5 -43t74.5 -16t75 16t60.5 43t40 63.5t14.5 76.5t-14.5 76t-40 62.5t-60.5 42.5t-75 16t-74.5 -16t-59.5 -42.5t-40 -62.5t-15 -76z M3450 72v1097q0 34 12 63.5t33.5 51.5t51.5 34t64 12q33 0 62 -12t51 -34t34.5 -51.5t12.5 -63.5v-661l-39 -246l-65 -162q-17 -57 -49.5 -86.5t-78.5 -29.5q-45 0 -67 22.5t-22 65.5zM3535 495q0 105 37 197.5t100 162.5t145.5 110.5t175.5 40.5q105 0 193 -40.5 t151.5 -110.5t99 -162.5t35.5 -197.5t-35.5 -198.5t-99 -162.5t-151.5 -109.5t-193 -40.5q-104 0 -189.5 40.5t-145 109.5t-91.5 162.5t-32 198.5zM3771 495q0 -40 15 -76.5t40 -63.5t60 -43t75 -16t74.5 16t60.5 43t40 63.5t14 76.5t-14 76t-40 62.5t-60.5 42.5t-74.5 16 t-75 -16t-60 -42.5t-40 -62.5t-15 -76zM4537 145q0 -34 12.5 -63t34 -51t51 -34t63.5 -12q33 0 62 12t51 34t35 51.5t13 62.5v1019q0 34 -13 63t-35 50.5t-51 34.5t-62 13q-34 0 -63.5 -13t-51 -34.5t-34 -50.5t-12.5 -63v-1019zM4922 495q0 -105 40.5 -198.5t110.5 -162.5 t163 -109t197 -40q59 0 123 11t116 34t85.5 59.5t32.5 85.5q0 45 -25 74t-60 42.5t-73.5 12.5t-66.5 -14q-29 -20 -61.5 -32t-68.5 -12t-67.5 13.5t-56 36.5t-41 52.5t-19.5 60.5h550q35 0 62 4.5t45.5 16.5t27.5 33t9 54q0 105 -40 195t-108.5 155t-161 102t-198.5 37 q-105 0 -198.5 -39.5t-164 -108t-111.5 -162t-41 -201.5zM5247 596q5 33 22.5 61t43.5 48.5t58 32t66 11.5q32 0 64 -11.5t57.5 -32t43 -48.5t20.5 -61h-375zM6013 72v1097q0 34 12.5 63.5t34 51.5t51 34t63.5 12q33 0 62 -12t51 -34t34.5 -51.5t12.5 -63.5v-661l-38 -246 l-66 -162q-17 -57 -49.5 -86.5t-78.5 -29.5q-45 0 -67 22.5t-22 65.5zM6098 495q0 105 37 197.5t100 162.5t145.5 110.5t175.5 40.5q105 0 193 -40.5t151.5 -110.5t99 -162.5t35.5 -197.5t-35.5 -198.5t-99 -162.5t-151.5 -109.5t-193 -40.5q-104 0 -189.5 40.5t-145 109.5 t-91.5 162.5t-32 198.5zM6334 495q0 -40 15 -76.5t40 -63.5t60 -43t75 -16t74.5 16t60.5 43t40 63.5t14 76.5t-14 76t-40 62.5t-60.5 42.5t-74.5 16t-75 -16t-60 -42.5t-40 -62.5t-15 -76zM7090 496q0 -105 40.5 -198.5t110 -162.5t163 -109.5t197.5 -40.5q105 0 198.5 40.5 t162.5 109.5t109.5 162t40.5 199q0 104 -40.5 197t-109.5 162.5t-162 110t-199 40.5q-104 0 -197.5 -40.5t-163 -110t-110 -162.5t-40.5 -197zM7413 496q0 40 14 75.5t40 62t60 42.5t74 16t74.5 -16t60 -42.5t40 -62t14.5 -75.5t-14.5 -76.5t-40 -63.5t-60 -43t-74.5 -16 t-74 16t-60 43t-40 63.5t-14 76.5zM8170 495q0 -105 35.5 -198.5t99 -162.5t151.5 -109.5t194 -40.5q105 0 187 40.5t139 109.5t86.5 162.5t29.5 198.5t-39.5 197.5t-102.5 162.5t-141.5 110.5t-158.5 40.5q-105 0 -193.5 -40.5t-152 -110.5t-99 -162.5t-35.5 -197.5z M8493 495q0 40 14.5 76t40 62.5t60 42.5t73.5 16q40 0 75 -16t60 -42.5t40 -62.5t15 -76t-15 -76.5t-40 -63.5t-60 -43t-75 -16t-74 16t-59.5 43t-40 63.5t-14.5 76.5zM8871 264l39 -2l65 -162q18 -57 50.5 -86.5t78.5 -29.5q44 0 66 22.5t22 65.5v1097q0 34 -12 63.5 t-33.5 51.5t-51.5 34t-63 12t-62 -12t-51 -34t-35 -51.5t-13 -63.5v-905zM9247 495q0 -105 35 -198.5t98.5 -162.5t151.5 -109.5t194 -40.5q105 0 187 40.5t139 109.5t86.5 162.5t29.5 198.5t-39.5 197.5t-102 162.5t-141.5 110.5t-159 40.5q-105 0 -193.5 -40.5 t-152 -110.5t-98.5 -162.5t-35 -197.5zM9569 495q0 40 14.5 76t40 62.5t60 42.5t74.5 16t74.5 -16t59.5 -42.5t40 -62.5t15 -76t-15 -76.5t-40 -63.5t-59.5 -43t-74.5 -16t-74.5 16t-60 43t-40 63.5t-14.5 76.5zM9947 264l39 -2l66 -162q18 -57 50.5 -86.5t78.5 -29.5 q44 0 66 22.5t22 65.5v1097q0 34 -12.5 63.5t-34 51.5t-51 34t-63.5 12q-33 0 -62 -12t-51 -34t-35 -51.5t-13 -63.5v-905zM10348 843.5q-2 33.5 7.5 62.5t30 52.5t51.5 37.5t64.5 16.5t63.5 -8t54 -32.5t37 -56l193 -525q91 241 137.5 373t58.5 159q13 30 36.5 51t53 31.5 t62 8.5t65.5 -18q16 -8 36.5 -25.5t35 -45t16.5 -64.5t-19 -83l-407 -884q-45 -98 -135 -150t-207 -54q-82 0 -130 43t-48 115q0 51 25.5 76.5t62 38t75.5 19.5t66 22l51 106q-1 1 -14.5 30.5t-36.5 76.5t-52 107t-58 122q-71 146 -159 332q-14 32 -16 65.5zM11397 25 q0 -10 6.5 -17.5t18.5 -7.5q11 0 17.5 7t6.5 18v364v23v113q0 45 -12 60t-25 15q-12 0 -12 -12v-563zM11446 296q0 50 22 96.5t58.5 82.5t84 57t98.5 21t95 -20t75.5 -55t49.5 -81t18 -98v-273q0 -11 6.5 -18.5t18.5 -7.5q14 0 19.5 9.5t5.5 16.5v274q0 61 -22 115.5 t-60.5 95t-91 64t-114.5 23.5q-51 0 -95 -16t-78.5 -40t-58 -51.5t-31.5 -50.5v-144zM12031 299q0 -61 23.5 -116t64.5 -95.5t96 -64t116 -23.5q37 0 75 9.5t68 23.5t49.5 30t19.5 29q0 9 -5 16t-12 9.5t-14.5 1t-12.5 -6.5q-33 -33 -77.5 -49.5t-90.5 -16.5q-49 0 -92.5 18 t-77 49t-54 73t-24.5 90h511q16 0 24 1.5t11 4.5t3 7.5v11.5q0 63 -22 118t-61.5 95t-92.5 63t-115 23t-118.5 -21t-99 -60.5t-67.5 -95t-25 -124.5zM12085 324q5 48 26.5 90t56 73t79 49t94.5 18t92.5 -18t74.5 -49t51 -73t23 -90h-497zM12668 300q0 -61 21.5 -116 t60 -95.5t91 -64t114.5 -23.5q50 0 94.5 16.5t78.5 40t58 51t32 51.5v143q0 -50 -22 -96.5t-58.5 -82t-84 -56.5t-98.5 -21t-95 20t-75.5 54.5t-49.5 81t-18 98.5v272q0 11 -6.5 19t-18.5 8q-14 0 -19 -9.5t-5 -17.5v-273zM13218 75q0 -24 3.5 -38t9 -22.5t12 -11.5t12.5 -3 q12 0 12 12v562q0 11 -6.5 18.5t-18.5 7.5q-10 0 -17 -7t-7 -19v-363v-23v-113zM13314 299q0 -61 23.5 -116t64.5 -95.5t96 -64t116 -23.5q37 0 75 9.5t68 23.5t49.5 30t19.5 29q0 9 -5 16t-12.5 9.5t-15 1t-12.5 -6.5q-33 -33 -77 -49.5t-90 -16.5q-49 0 -92.5 18t-77 49 t-54 73t-24.5 90h511q16 0 24 1.5t11 4.5t3 7.5v11.5q0 63 -22 118t-61.5 95t-92.5 63t-115 23t-118.5 -21t-99 -60.5t-67.5 -95t-25 -124.5zM13367 324q5 48 27 90t56.5 73t79 49t94.5 18t92.5 -18t74.5 -49t51 -73t23 -90h-498z" />
<glyph unicode="A" horiz-adv-x="1221" d="M39 176q5 17 10.5 33t12.5 34l370 914q6 17 9 35.5t8 36.5q4 17 12 32.5t25 27t44.5 19t70.5 7.5q31 0 55.5 -11.5t44 -31t35 -44t27.5 -50.5l395 -975q5 -14 7.5 -29.5t3.5 -30.5q0 -33 -13 -62.5t-40 -51.5q-30 -30 -68 -39q-20 -5 -39 -5l-35 4q-38 8 -70 33.5 t-48 67.5l-49 121h-410l-50 -121q-23 -52 -63 -80q-37 -26 -84 -26h-7q-38 0 -70 16t-53 43q-22 27 -30 61q-5 19 -4 39q0 16 3 33zM461 459h283l-141 364z" />
<glyph unicode="B" horiz-adv-x="1251" d="M126 1248q0 14 4 26.5t15 21.5t30 14t48 5h515q68 0 130.5 -19.5t114 -56t89 -88.5t54.5 -119q8 -32 12 -66q3 -23 3 -47q0 -12 -1 -24q-2 -41 -14.5 -74.5t-27.5 -58t-28.5 -39t-19.5 -17.5q9 -4 32.5 -22t48 -50.5t44.5 -78.5t23 -105q1 -18 1 -35q0 -49 -10 -93 q-15 -77 -56 -139.5t-98.5 -106.5t-128 -67.5t-147.5 -23.5h-457q-40 0 -70 14t-50 37.5t-30.5 54t-10.5 63.5v986q0 11 -2 21t-4 22l-1 9q-8 30 -8 56zM134 1192q0 -2 0.5 -4.5t0.5 -4.5zM457 280h283q26 0 52 9t46.5 27t33.5 44t13 60q0 35 -12.5 61.5t-33 44.5t-46 27 t-53.5 9h-283v-282zM457 809h273q22 0 42 9t34.5 24.5t23.5 36t9 44.5q0 25 -9.5 45t-24.5 35.5t-35 23.5t-42 8h-271v-226z" />
<glyph unicode="C" horiz-adv-x="1323" d="M62 649q0 91 24 175.5t67.5 159t104 135t134.5 104t159 67.5t177 24q75 0 138.5 -11.5t120 -36.5t108 -64t100.5 -94q22 -25 33.5 -53t12.5 -61q2 -27 -10 -57.5t-37 -54.5q-18 -17 -43 -29.5t-52.5 -14.5t-58 7t-61.5 35q-24 22 -49.5 42.5t-55.5 37t-66 26t-80 9.5 q-72 0 -134.5 -28t-109 -75.5t-73.5 -111t-27 -134.5t27 -134t74 -111t109.5 -75.5t133.5 -27.5q50 0 89 13t72 33.5t63.5 46t65.5 51.5q20 12 44.5 18.5t50 6t49.5 -9t43 -27.5q53 -45 53 -115q0 -31 -10.5 -60t-36.5 -54q-48 -57 -99.5 -98.5t-110 -67.5t-126 -38.5 t-147.5 -12.5q-138 0 -259 52t-211.5 142.5t-143 211.5t-52.5 259z" />
<glyph unicode="D" horiz-adv-x="1342" d="M126 1248q0 14 4.5 26.5t16.5 21.5t32.5 14t51.5 5h383q91 0 175.5 -24t159 -67.5t135 -104.5t104 -135t67.5 -159t24 -176t-24 -176t-67.5 -158.5t-104 -134.5t-135 -104.5t-158.5 -67t-176 -23.5h-313q-30 0 -56 9.5t-47 26.5t-34.5 40t-19.5 51q-4 15 -4 33v998 q-1 27 -7.5 54t-6.5 51zM461 301h153q70 2 132.5 28.5t109.5 73t74.5 108.5t27.5 138q0 80 -27.5 146t-74.5 113.5t-109.5 75t-132.5 29.5h-153v-712z" />
<glyph unicode="E" horiz-adv-x="1180" d="M126 1247q0 15 4 27.5t16 21.5t31.5 14t49.5 5h736q52 0 86.5 -22.5t52.5 -56.5q19 -35 19 -77q1 -38 -17 -71q-18 -34 -52.5 -56.5t-87.5 -22.5h-503v-212h374q37 0 68.5 -18t52.5 -46q20 -29 26 -65q1 -10 2 -19q0 -27 -11 -54q-17 -44 -53.5 -68.5t-84.5 -24.5h-374 v-196h500q35 0 65 -11.5t52.5 -32.5t35 -51t12.5 -66q0 -35 -12.5 -64t-35 -50.5t-53 -33.5t-63.5 -12h-653q-37 0 -68 12.5t-53 35t-34.5 54t-12.5 68.5v985q-2 27 -8.5 54.5t-6.5 52.5z" />
<glyph unicode="F" horiz-adv-x="1154" d="M126 1247q0 15 4 27.5t16 21.5t31.5 14t49.5 5h725q24 0 51.5 -7.5t51 -24t39.5 -44t17 -68.5q1 -31 -9 -60.5t-30 -52t-50 -36t-70 -13.5h-491v-236h344q33 0 62 -10.5t50.5 -30t34.5 -48.5t13 -63q0 -35 -13 -64.5t-34.5 -51t-50.5 -33.5t-62 -12h-344v-312 q0 -34 -12 -63.5t-33.5 -51.5t-50.5 -35t-64 -13t-64 13t-50.5 35t-33.5 52t-12 63v992q-2 27 -8.5 54.5t-6.5 52.5z" />
<glyph unicode="G" horiz-adv-x="1377" d="M62 649q0 137 52.5 258t143 211.5t211.5 143t259 52.5q79 0 145.5 -14t124.5 -41.5t109.5 -68.5t100.5 -95q22 -26 34 -53.5t12 -60.5q0 -46 -23.5 -82.5t-62.5 -54.5q-33 -17 -72 -20h-8q-35 0 -67 19q-39 26 -69 53t-62 49.5t-70 36.5t-92 14q-72 0 -134.5 -28 t-109 -75.5t-73.5 -111.5t-27 -135q0 -77 27 -141.5t74 -111.5t110.5 -73t137.5 -26q31 0 64.5 10.5t64.5 30.5t55 47.5t35 60.5q51 36 95 44q18 3 34 3q23 0 42 -6q32 -12 50.5 -38t20.5 -58v-7q0 -28 -15 -57q-17 -33 -56 -59q-23 -43 -58.5 -92t-84.5 -91t-113 -69.5 t-143 -27.5q-92 0 -176.5 23.5t-158.5 67t-133.5 104.5t-102.5 134.5t-67 158t-24 176.5zM717 489q0 23 9.5 46t28.5 41.5t46 30t61 11.5h307q27 0 49.5 -7.5t39 -24.5t25.5 -45t9 -69v-360q0 -53 -34.5 -88.5t-93.5 -35.5q-60 0 -91 37.5t-31 99.5v242h-27h-167 q-30 0 -53.5 11t-41 29t-27 40t-9.5 42z" />
<glyph unicode="H" horiz-adv-x="1393" d="M126 1248q0 14 4 26.5t16 21.5t32 14t51 5q47 0 89 -7.5t74 -25t50.5 -49t18.5 -79.5v-363h495v352q-1 27 -7 54t-6 51q0 14 4.5 26.5t16 21.5t32 14t52.5 5q43 0 84.5 -6.5t73.5 -24t52 -49t20 -81.5v-1006q0 -34 -12.5 -64t-34 -52t-51 -34.5t-63.5 -12.5q-35 0 -64 13 t-50.5 35t-34 52t-12.5 63v322h-495v-322q0 -34 -12 -63.5t-33.5 -51.5t-50.5 -35t-64 -13q-36 0 -65 13t-50.5 35t-33.5 52t-12 63v995q-1 27 -7.5 54t-6.5 51z" />
<glyph unicode="I" horiz-adv-x="587" d="M126 1247q0 15 4.5 27.5t16.5 21.5t32.5 13.5t51.5 4.5q46 0 86.5 -7t71.5 -24.5t50 -49t22 -81.5v-1005q0 -33 -12 -62.5t-33.5 -52t-50.5 -35t-64 -12.5q-36 0 -65 13t-50.5 35.5t-33.5 52t-12 61.5v996q-1 27 -7.5 53.5t-6.5 50.5z" />
<glyph unicode="J" horiz-adv-x="575" d="M-123 -178q0 34 12.5 63t34.5 50.5t51.5 34t63.5 12.5q52 1 77 44.5t25 110.5l-1 1011q0 15 -2 28t-4.5 24t-4.5 22.5t-2 24.5q0 14 4.5 26.5t16 21.5t32 14t51.5 5q45 0 87 -7t74.5 -25.5t51.5 -52.5t19 -87v-974q0 -114 -28.5 -207.5t-83.5 -160t-134 -103t-179 -36.5 q-34 0 -63 12.5t-51 34.5t-34.5 51t-12.5 63z" />
<glyph unicode="K" horiz-adv-x="1263" d="M126 1258q0 14 4.5 26.5t16.5 21.5t32 14t52 5q43 0 84 -5.5t73.5 -24t52.5 -52.5t20 -90l1 -305l475 422q35 32 77 40q15 3 31 3q27 0 53 -9q13 -4 28 -11.5t27.5 -17t23.5 -22.5t16 -28q10 -27 13 -54t-2.5 -53t-19.5 -49t-36 -42l-315 -252l351 -539q29 -43 29 -82.5 t-20 -81.5q-18 -37 -54.5 -62.5t-88.5 -25.5q-42 0 -78.5 20.5t-63.5 66.5l-316 519l-133 -110l2 -323q0 -36 -12 -68t-33 -55t-50.5 -36t-64.5 -13q-36 0 -65.5 13t-50.5 36t-33 54.5t-12 68.5v996q-1 27 -7.5 54.5t-6.5 50.5z" />
<glyph unicode="L" horiz-adv-x="1127" d="M126 1263q0 15 4.5 27.5t16.5 21t32.5 13t51.5 4.5q46 0 87.5 -7t73.5 -26t50.5 -52.5t18.5 -86.5v-835h453q32 0 61.5 -12.5t51.5 -34t35 -51t13 -63.5t-11 -63.5t-31.5 -51t-48.5 -34t-59 -12.5h-622q-35 1 -64.5 15t-51.5 36.5t-34.5 53t-12.5 66.5v987 q-1 27 -7.5 53.5t-6.5 51.5z" />
<glyph unicode="M" horiz-adv-x="1555" d="M109 1247q0 15 4 27.5t15.5 21.5t32.5 14t54 5q41 0 68.5 -1t48.5 -6.5t38.5 -17t37.5 -32.5l377 -441q112 126 180.5 208t107.5 131t54.5 72t20.5 32q7 11 16.5 21t24.5 18t37 12t56 4q46 0 76.5 -13.5t48.5 -35.5t27 -50.5t12 -59t2.5 -60.5t-0.5 -56v-895 q0 -34 -12 -63t-33.5 -50.5t-50.5 -34t-64 -12.5q-24 0 -51.5 9t-51 28t-39.5 49.5t-16 73.5v680l-219 -280q-32 -38 -60.5 -63t-60.5 -25q-17 0 -31.5 5.5t-28 16.5t-28.5 27.5t-34 38.5l-226 281q0 -111 0.5 -203.5t0.5 -174t0.5 -156t0.5 -147.5q0 -34 -12 -63 t-33.5 -50.5t-51 -34t-62.5 -12.5q-34 0 -64 12.5t-51.5 34t-33.5 51t-12 62.5q0 117 0.5 243t0.5 254.5v255t-1 245.5q0 27 -7.5 52t-7.5 52z" />
<glyph unicode="N" horiz-adv-x="1429" d="M126 1248q0 14 4.5 26.5t16.5 21.5t32.5 13.5t51.5 4.5q37 0 64.5 -2t50.5 -9.5t43.5 -21t43.5 -38.5l551 -654l-2 548q0 30 -7 57.5t-7 52.5q0 18 4.5 31t19 21t41.5 11.5t72 3.5q42 0 78 -6t62.5 -23.5t42 -49.5t15.5 -82v-991q0 -36 -11 -68t-31.5 -56.5t-50 -38.5 t-66.5 -14q-36 0 -69 16t-57 45l-559 663v-138t-0.5 -144t-0.5 -144.5v-137.5q0 -35 -12 -64t-33 -50.5t-49.5 -33.5t-62.5 -12q-35 0 -64 12t-50.5 33.5t-34 51t-12.5 62.5v999q-1 27 -7.5 53t-6.5 52z" />
<glyph unicode="O" horiz-adv-x="1456" d="M62 649q0 137 52.5 258t143 211.5t211.5 143t259 52.5q91 0 175.5 -24t159 -67t134.5 -104t104 -135t68 -159t24 -176t-24 -176t-68 -158.5t-104 -134.5t-134.5 -104.5t-159 -67t-175.5 -23.5q-138 0 -259 52t-211.5 142t-143 211.5t-52.5 258.5zM384 646q0 -70 27 -133 t73.5 -111t109 -76t134.5 -28q71 0 133.5 28t109 76.5t73.5 112.5t27 134q0 71 -27 134t-73.5 110.5t-109 75t-133.5 27.5q-72 0 -134.5 -28t-109 -75.5t-73.5 -111.5t-27 -135z" />
<glyph unicode="P" horiz-adv-x="1204" d="M126 1258q0 15 4.5 27.5t16.5 21.5t32.5 13.5t51.5 4.5h400q105 0 200.5 -38.5t168 -105.5t115.5 -158t43 -196q0 -104 -43 -192.5t-115.5 -153t-168 -101t-200.5 -36.5h-170v-199q0 -34 -12.5 -63t-34 -51t-50.5 -34t-63 -12t-63.5 12t-51 34t-34 51.5t-12.5 62.5v1009 q-1 27 -7.5 54t-6.5 50zM455 620h176q44 0 83 14t68 40t45.5 63t16.5 81t-16.5 84t-45.5 70t-68 48t-83 18h-176v-418z" />
<glyph unicode="Q" horiz-adv-x="1456" d="M62 649q0 137 52.5 258t143 211.5t211.5 143t259 52.5q91 0 175.5 -24t159 -67t134.5 -104t104 -135t68 -159t24 -176q0 -118 -38.5 -222.5t-106 -189t-160.5 -144t-201 -85.5l-14 -169q-8 -73 -42 -113t-100 -40q-35 0 -60 11t-43 31.5t-28 48.5t-14 62l-16 167 q-110 26 -202.5 85.5t-160.5 144.5t-106.5 190t-38.5 223zM392 649q0 -71 25.5 -134.5t71 -112t106.5 -76.5t133 -28q71 0 132.5 28t107 76.5t71 112.5t25.5 134q0 71 -25.5 134t-71 110.5t-107 75t-132.5 27.5t-132 -27.5t-106.5 -75t-71.5 -110.5t-26 -134z" />
<glyph unicode="R" horiz-adv-x="1206" d="M126 1258q0 15 4.5 27.5t16.5 21.5t32.5 13.5t51.5 4.5h400q105 0 200.5 -38.5t168 -105.5t115.5 -158t43 -196q0 -104 -43 -192.5t-115.5 -153t-168 -101t-200.5 -36.5h-170v-199q0 -34 -12.5 -63t-34 -51t-50.5 -34t-63 -12t-63.5 12t-51 34t-34 51.5t-12.5 62.5v1009 q-1 27 -7.5 54t-6.5 50zM455 620h176q44 0 83 14t68 40t45.5 63t16.5 81t-16.5 84t-45.5 70t-68 48t-83 18h-176v-418zM614 440l263 119l253 -320q22 -25 30.5 -54.5t5 -59.5t-18 -57.5t-41.5 -48.5q-27 -20 -56.5 -28t-58.5 -4.5t-56 18t-47 40.5z" />
<glyph unicode="S" horiz-adv-x="1057" d="M43 281q-1 31 7.5 59t26.5 48.5t44 32.5t60 12q35 0 70 -17.5t74 -49.5q14 -17 36 -32t47.5 -26t52.5 -17t52 -6q26 0 52 6t46.5 18t33.5 29.5t13 42.5q0 26 -25 47.5t-65.5 42.5t-92.5 43.5t-107 49.5t-107 60.5t-92.5 78.5t-65.5 101t-25 129q0 85 32 155t92 120 t145 78t191 28q43 0 91 -10.5t95 -28.5t90 -44t76 -57.5t52.5 -68.5t19.5 -77q0 -37 -12 -62t-32.5 -40.5t-48.5 -22t-62 -6.5q-17 0 -33.5 1.5t-33 7t-34.5 17t-39 29.5q-42 40 -78 63.5t-77 23.5q-22 0 -44.5 -5.5t-40.5 -16t-30 -27t-12 -37.5q0 -30 26.5 -54.5 t69.5 -48.5t99 -49t113.5 -54t113 -64t98.5 -79.5t69.5 -99t26.5 -124.5q0 -100 -46 -174.5t-117.5 -124t-157.5 -74t-167 -24.5q-119 0 -205.5 28t-143 71.5t-86.5 96t-35 102.5z" />
<glyph unicode="T" horiz-adv-x="1204" d="M32 1154q0 34 12 63t34 50.5t52 34.5t64 13h815q34 0 63.5 -12.5t52 -34t35 -51t12.5 -63.5t-12.5 -63t-34.5 -51t-52 -34.5t-63 -12.5h-245l-4 -848q0 -34 -12 -63t-33 -51t-49.5 -34t-62.5 -12q-35 0 -64 12.5t-49.5 34t-32.5 51t-12 62.5l-3 848h-249q-34 0 -64 12.5 t-51.5 34t-34 50.5t-12.5 64z" />
<glyph unicode="U" horiz-adv-x="1306" d="M50 1247q0 15 4.5 27.5t16.5 21.5t32.5 13.5t52.5 4.5q45 0 86 -6t71.5 -24.5t50 -52t21.5 -87.5v-623q0 -49 19 -93t54 -77.5t84.5 -52t110.5 -18.5q55 0 104.5 18.5t86 52t58 77.5t21.5 93l-2 622q-1 27 -7.5 53.5t-6.5 50.5q0 15 4.5 27.5t16.5 21.5t32 13.5t52 4.5 q42 0 83.5 -6t74 -24t52.5 -51.5t20 -88.5l1 -621q-1 -77 -23 -148.5t-61 -134.5t-92.5 -114.5t-118.5 -88.5t-140 -57.5t-155 -20.5q-123 0 -230 44t-186.5 120.5t-125.5 179.5t-46 220l1 620q-2 27 -9 53.5t-7 50.5z" />
<glyph unicode="V" horiz-adv-x="1187" d="M44 1219q12 28 34.5 50.5t53.5 35.5q32 12 63.5 12t60 -12t51 -34.5t35.5 -52.5l359 -989l41 -23q12 -31 12 -61v-3q0 -32 -13 -61t-35.5 -51.5t-53.5 -34.5t-61 -12q-1 1 -3 1q-32 0 -59 11.5t-49.5 34t-36.5 54.5l-399 1012q-12 31 -12 61q0 33 12 62zM433 145 q0 31 12 61l41 23l360 989q10 32 32.5 53.5t51 33.5t61.5 12t65 -12q31 -12 53.5 -35t34.5 -51t12 -60v-3q0 -31 -12 -60l-400 -1012q-13 -32 -35.5 -54.5t-50.5 -34t-60 -11.5q-1 0 -3 -1q-31 0 -60 12q-31 12 -53 35q-24 22 -36 51q-14 31 -13 64z" />
<glyph unicode="W" horiz-adv-x="1766" d="M44 1219q12 28 34.5 50.5t53.5 35.5q32 12 64 12t61 -12t51.5 -34t33.5 -53l344 -989l56 -23q12 -31 12 -61v-3q0 -32 -13 -61t-35.5 -51.5t-53.5 -34.5t-61 -12q-1 1 -3 1q-32 0 -59 11.5t-49.5 34t-36.5 54.5l-399 1012q-12 31 -12 61q0 33 12 62zM433 145q0 31 12 61 l58 23l247 692q9 28 28 47t44 29.5t53.5 10.5t55.5 -11q28 -11 42.5 -30.5t20 -44t1.5 -52.5t-14 -55l-237 -731q-13 -32 -35.5 -54.5t-50.5 -34t-60 -11.5q-1 0 -3 -1q-31 0 -60 12q-31 12 -53 35q-24 22 -36 51q-14 31 -13 64zM762.5 870.5q-3.5 27.5 1.5 52t20.5 44.5 t41.5 31q27 10 55 10.5t53 -10t44.5 -30t30.5 -46.5l255 -693l57 -23q11 -30 11 -59q0 -34 -13 -66q-12 -29 -34.5 -51.5t-53.5 -34.5t-61 -12q0 1 -2 1q-32 0 -60 11.5t-50.5 34t-35.5 54.5l-245 732q-11 27 -14.5 54.5zM1012 147q0 30 12 59l56 23l344 989q14 39 46 63 t71 29q22 6 46 5t47 -10q31 -12 53.5 -35t34.5 -51q12 -29 12 -61q0 -1 1 -2q0 -31 -13 -60l-399 -1012q-13 -32 -35.5 -54.5t-51 -34t-60.5 -11.5q-1 0 -2 -1q-30 0 -61 12t-53.5 34.5t-34.5 51.5q-13 32 -13 66z" />
<glyph unicode="X" horiz-adv-x="1378" d="M45 144.5q0 30.5 12.5 59.5t35.5 54l505 526q24 25 36.5 21.5t23 -22t22.5 -46t36 -51.5q25 -24 36 -52t9.5 -56.5t-15 -56t-37.5 -52.5l-390 -437q-22 -25 -50.5 -37t-60 -12t-61.5 12t-54 36q-25 24 -36.5 53.5t-11.5 60zM50 1152q0 31 12 60.5t35 53.5q25 25 55 37 t61 12t60 -12.5t52 -36.5l388 -431q51 -51 51 -116q0 -59 -47 -107q-24 -24 -35 -48.5t-21 -41t-21.5 -17.5t-36.5 23l-506 510q-24 24 -35.5 53.5t-11.5 60.5zM597 722.5q0 30.5 12.5 59.5t36.5 53l395 431q23 25 52 36.5t60 11.5t60.5 -12.5t54.5 -35.5q24 -24 35.5 -53.5 t11.5 -60.5t-12 -60.5t-35 -53.5l-512 -515q-25 -25 -36 -22.5t-20.5 19t-20.5 42t-34 48.5q-25 24 -36.5 53t-11.5 59.5zM599 574q-2 29 9.5 57t35.5 52q23 24 35.5 50.5t23.5 44t24 20t37 -22.5l501 -517q23 -24 34.5 -53.5t11.5 -60t-12 -60t-35 -53.5q-24 -24 -54 -36 t-61.5 -12t-60.5 12t-51 37l-384 432q-25 25 -38.5 53t-15.5 57z" />
<glyph unicode="Y" horiz-adv-x="1265" d="M23 1152.5q0 30.5 11 59t36 53.5q24 25 54.5 37.5t61.5 13t60 -12.5t50 -38l357 -452q25 -25 37.5 -53t14.5 -57t-9 -57.5t-36 -51.5q-24 -24 -37.5 -52t-25 -47.5t-25.5 -23t-38 21.5l-465 545q-23 26 -34.5 55t-11.5 59.5zM473 144v511q0 33 12.5 62t34 51t51 34.5 t63.5 12.5t63 -12.5t50.5 -34.5t34.5 -51t13 -62v-511q0 -34 -13 -63t-34.5 -51t-50.5 -34t-63 -12t-63.5 12t-51 34t-34 51.5t-12.5 62.5zM563.5 703q1.5 29 15 57t37.5 53l357 452q20 26 49 38.5t60.5 12t62.5 -13.5t55 -37t35 -52.5t10.5 -59.5t-11.5 -60.5t-34 -54.5 l-469 -546q-25 -25 -38.5 -21t-24.5 23t-23.5 47t-35.5 53q-25 24 -36 52t-9.5 57z" />
<glyph unicode="Z" horiz-adv-x="1230" d="M66 171q10 53 46 103q135 176 280 360t281 361l-424 -1q-34 0 -63 12.5t-51 34t-34.5 50.5t-12.5 63q0 33 12.5 62t34 51t51 35t64.5 13h730q34 0 63.5 -13t51.5 -35t35 -51t13 -62q-1 -35 -21.5 -75.5t-45.5 -72.5l-548 -705h484q80 0 123.5 -42.5t43.5 -113.5 q0 -34 -13 -63t-35.5 -51t-51.5 -34t-61 -12h-791q-46 0 -85 23t-58 64q-20 34 -20 72q0 13 2 27z" />
<glyph unicode="[" horiz-adv-x="684" d="M112 -163v1329q0 31 12.5 57t34.5 45.5t51.5 30.5t61.5 11h234q33 0 62 -11.5t51 -31.5t35 -48t13 -62q0 -33 -13 -63.5t-34.5 -53.5t-50.5 -37t-63 -14l-73 1v-1010l73 1q34 0 63 -14t50.5 -37.5t34.5 -53.5t13 -64q0 -33 -13 -61.5t-34.5 -48.5t-50.5 -31.5t-63 -11.5 h-234q-37 0 -66.5 14.5t-50.5 39t-32 56.5t-11 68z" />
<glyph unicode="\" horiz-adv-x="1098" d="M57 1179q8 50 44 85q25 26 55 37t60.5 11t57.5 -10.5t47 -28.5q14 -13 25.5 -32t20.5 -37q51 -99 112 -217.5t124 -243.5t125.5 -248t117 -232.5t99 -198.5t72.5 -143q28 -48 20 -99.5t-47 -86.5q-29 -27 -65.5 -38t-73 -7t-68 24.5t-50.5 57.5q-82 166 -166 333.5 t-168 334t-165 329t-158 315.5q-13 27 -18.5 48.5t-0.5 46.5z" />
<glyph unicode="]" horiz-adv-x="683" d="M2 -188q0 34 13 64.5t34.5 53.5t50.5 37t63 14l73 -1v1010l-73 -1q-34 0 -63 14t-50.5 37t-34.5 53.5t-13 63.5q0 34 13 62t34.5 48t50.5 31.5t63 11.5h233q35 0 64.5 -13.5t51.5 -36.5t33.5 -53t11.5 -64v-1306q-2 -36 -13.5 -68t-31.5 -56.5t-49.5 -39t-66.5 -14.5 h-233q-32 0 -61 11.5t-51 31.5t-35.5 48.5t-13.5 61.5z" />
<glyph unicode="^" horiz-adv-x="1114" d="M126 887q3 36 22.5 68t45.5 59l247 249q23 24 53.5 38.5t63.5 14.5q32 0 62 -15t54 -38l246 -249q27 -27 47 -61t20 -70q0 -38 -18 -70t-49 -52q-37 -26 -85 -26q-33 3 -64.5 19t-54.5 41l-160 190l-156 -190q-24 -25 -55.5 -41t-63.5 -19q-12 0 -24.5 1t-24.5 5 q-24 7 -43.5 21.5t-34 33.5t-22 42.5t-6.5 48.5z" />
<glyph unicode="_" horiz-adv-x="1196" d="M126 130q0 37 15 66.5t40 50.5t57 32.5t68 11.5h584q35 0 67 -12t57 -33t40.5 -50.5t15.5 -65.5q0 -37 -15.5 -66.5t-40.5 -50.5t-57 -32.5t-67 -11.5h-584q-36 0 -68 11.5t-57 32.5t-40 50.5t-15 66.5z" />
<glyph unicode="`" horiz-adv-x="420" d="M56 1266q-7 28 0 55t24 48t42 33.5t53 12.5q34 0 72.5 -22.5t71.5 -53.5t55 -64.5t22 -54.5q1 -11 0.5 -21.5t-3.5 -19.5q-12 -36 -46 -55q-28 -17 -60 -15q-28 0 -65.5 16t-72 39.5t-61 50.5t-32.5 51z" />
<glyph unicode="a" horiz-adv-x="1213" d="M66 495q0 105 40 197.5t110 162.5t163 110.5t198 40.5t185.5 -40.5t134 -110.5t81.5 -162.5t28 -197.5t-28 -198.5t-81.5 -162.5t-134 -109.5t-185.5 -40.5q-104 0 -197.5 40.5t-163.5 109.5t-110 162t-40 199zM388 495q0 -40 14.5 -76.5t40 -63.5t60 -43t74.5 -16t74 16 t59.5 43t40 63.5t14.5 76.5t-14.5 76t-40 62.5t-60 42.5t-73.5 16q-40 0 -74.5 -16t-60 -42.5t-40 -62.5t-14.5 -76zM766 264v230q0 34 13 63t35 51t51 34t62 12q34 0 63.5 -12t51 -34t33.5 -51.5t12 -62.5v-415q0 -46 -23 -70.5t-69 -24.5t-76 27t-49 71l-65 180zM766 480 v246l39 3l65 161q18 57 50.5 87t78.5 30q88 0 88 -88v-439q0 -34 -12 -63t-33.5 -51t-51 -34.5t-63.5 -12.5q-33 0 -62 12.5t-51 34.5t-35 51t-13 63z" />
<glyph unicode="b" horiz-adv-x="1210" d="M126 72v1097q0 34 12.5 63.5t34 51.5t51 34t63.5 12q33 0 62 -12t51 -34t34.5 -51.5t12.5 -63.5v-661l-38 -246l-66 -162q-17 -57 -49.5 -86.5t-78.5 -29.5q-45 0 -67 22.5t-22 65.5zM211 495q0 105 37 197.5t100 162.5t146 110.5t175 40.5q105 0 193 -40.5t151.5 -110.5 t99 -162.5t35.5 -197.5t-35.5 -198.5t-99 -162.5t-151.5 -109.5t-193 -40.5q-104 0 -189.5 40.5t-145 109.5t-91.5 162.5t-32 198.5zM447 495q0 -40 15 -76.5t40 -63.5t60 -43t75 -16t74.5 16t60.5 43t40 63.5t14 76.5t-14 76t-40 62.5t-60.5 42.5t-74.5 16t-75 -16 t-60 -42.5t-40 -62.5t-15 -76z" />
<glyph unicode="c" horiz-adv-x="1063" d="M62 495q0 105 40.5 197.5t110 162.5t162 110.5t197.5 40.5q55 0 109 -11t103.5 -31t90.5 -47.5t71 -60.5q25 -27 39 -56t14 -59q0 -31 -11.5 -58.5t-32 -47.5t-49.5 -30.5t-63 -7.5q-25 6 -49 16t-47.5 21t-47.5 22t-50 19q-31 7 -62 7q-16 0 -31 -2q-47 -5 -85 -27 t-62 -61.5t-24 -96.5q0 -55 22.5 -95t59.5 -63t85 -29q16 -2 31 -1q32 0 66 7q36 7 69 24t61 38q31 16 71 18q5 0 11 1q34 0 65 -15q34 -17 54 -50.5t20 -79.5q0 -51 -32 -99t-89 -85t-135 -59.5t-172 -22.5q-105 0 -197.5 40.5t-162 109.5t-110 162t-40.5 199z" />
<glyph unicode="d" horiz-adv-x="1210" d="M62 495q0 105 35.5 197.5t99 162.5t151.5 110.5t194 40.5q80 0 158.5 -40.5t141.5 -110.5t102.5 -162.5t39.5 -197.5t-29.5 -198.5t-86.5 -162.5t-139 -109.5t-187 -40.5t-193.5 40.5t-152 109.5t-99 162t-35.5 199zM385 495q0 -40 14.5 -76.5t40 -63.5t60 -43t73.5 -16 q40 0 75 16t60 43t40 63.5t15 76.5t-15 76t-40 62.5t-60 42.5t-75 16t-74 -16t-59.5 -42.5t-40 -62.5t-14.5 -76zM763 264v905q0 34 12.5 63.5t35 51.5t51.5 34t62 12q34 0 63.5 -12t51 -34t33.5 -51.5t12 -63.5v-1097q0 -43 -22 -65.5t-66 -22.5q-46 0 -78 29.5t-51 86.5 l-65 162z" />
<glyph unicode="e" d="M62 495q0 109 41 202t111.5 161.5t164 108t199.5 39.5q105 0 197.5 -37t161.5 -102t108.5 -154.5t39.5 -195.5q0 -33 -9 -54t-27.5 -33t-45.5 -16.5t-62 -4.5h-550q3 -31 19.5 -60.5t41 -52.5t56.5 -36.5t67 -13.5q36 0 69 11.5t62 32.5q28 13 66 14h5q35 0 68 -12 q35 -14 60 -43t25 -77q0 -46 -32 -82q-34 -36 -86 -59.5t-116 -34.5t-123 -11q-104 0 -197 40t-163 109t-110.5 162t-40.5 199zM387 596h375q-3 33 -20.5 61t-43 48.5t-57 32t-63.5 11.5q-34 0 -66.5 -11.5t-58.5 -32t-43.5 -48.5t-22.5 -61z" />
<glyph unicode="f" horiz-adv-x="860" d="M45 762q0 31 11.5 57.5t30.5 45.5t45.5 30t56.5 11h456q30 0 56 -11t46 -30t31.5 -45.5t11.5 -57.5q0 -30 -11.5 -56t-31.5 -46t-46 -31.5t-56 -11.5h-456q-31 0 -57 11.5t-45 31.5t-30.5 46t-11.5 56zM231 145v728q0 112 29.5 204t84 158.5t133.5 102.5t178 36 q34 0 63.5 -12t51 -34t34 -51.5t12.5 -63.5q0 -46 -23 -82.5t-62 -56.5q-33 -11 -64.5 -19t-56.5 -24t-41 -46.5t-17 -85.5v-754q0 -33 -12.5 -61.5t-34.5 -51t-51 -35t-63 -12.5t-63.5 13t-51 35t-34 51.5t-12.5 60.5z" />
<glyph unicode="g" horiz-adv-x="1213" d="M66 495q0 105 34.5 197.5t97 162.5t149.5 110.5t192 40.5q50 0 97.5 -11.5t91 -31t80.5 -44.5t65 -53q10 62 43.5 100.5t76.5 38.5q25 0 43 -11.5t29.5 -30t16.5 -42.5t5 -50v-780q0 -134 -40.5 -229.5t-107 -157t-149.5 -91t-167 -29.5q-140 0 -219.5 44t-79.5 135 q0 28 10.5 51t29 39.5t42.5 25t51 7.5q18 -2 35 -5t35.5 -6.5t40 -6t49.5 -2.5q43 1 76.5 18.5t55 48.5t31.5 74q7 29 7 62q0 16 -2 34q-10 -23 -33.5 -44t-56.5 -38t-73 -27t-83 -10q-104 0 -191.5 40.5t-150 109.5t-97 162t-34.5 199zM388 495q0 -40 13.5 -76.5 t37.5 -63.5t57 -43t73 -16t76 16t62.5 43t42 63.5t15.5 76.5t-16 75.5t-42.5 62.5t-62 43t-75.5 16t-73 -16t-57 -42.5t-37.5 -62.5t-13.5 -76z" />
<glyph unicode="h" horiz-adv-x="1242" d="M111 145v1019q0 34 12 63t33.5 50.5t51.5 34.5t63 13t62 -13t51.5 -34.5t35 -50.5t12.5 -63v-1019q0 -34 -12.5 -63t-35 -51t-51.5 -34t-62 -12q-34 0 -63.5 12t-51 34t-33.5 51.5t-12 62.5zM419 855q9 27 34 54.5t60.5 49.5t78 36.5t87.5 14.5q104 0 188 -40.5 t143.5 -109.5t91.5 -162t32 -198v-292l-321 54v238q0 40 -14 75.5t-38 62.5t-57.5 42.5t-73.5 15.5q-41 0 -77 -18t-63 -47.5t-42.5 -67.5t-15.5 -77zM813 168v132l321 -13v-141q0 -33 -12.5 -62t-34 -51t-51 -35t-63.5 -13q-40 0 -70 15t-49.5 40.5t-30 58.5t-10.5 69z" />
<glyph unicode="i" horiz-adv-x="541" d="M102 1279q0 34 13 63.5t35 51.5t52 34.5t65 12.5q34 0 64 -12.5t53 -34.5t35.5 -51.5t12.5 -63.5q0 -35 -12.5 -64.5t-35.5 -51t-53 -34t-64 -12.5q-35 0 -65 12.5t-52 34t-35 51t-13 64.5zM111 145v702q0 34 12 63t33.5 50.5t51 34.5t62.5 13q34 0 63 -13t51 -34.5 t34.5 -50.5t12.5 -63v-702q0 -34 -12.5 -63t-34.5 -51t-51 -34t-63 -12t-63 12t-50.5 34t-33.5 51.5t-12 62.5z" />
<glyph unicode="j" horiz-adv-x="542" d="M-153 -226q0 46 23.5 83t61.5 56q33 12 65 20t57 23.5t41 45.5t16 86v753q0 34 12 63.5t33.5 52t51.5 36t63 13.5q34 0 64 -13.5t51.5 -36t33.5 -53t12 -62.5v-727q0 -112 -28.5 -204t-83.5 -158t-133.5 -102.5t-178.5 -36.5q-34 0 -63 12.5t-50.5 34t-34.5 51t-13 63.5z M106 1277q0 34 13 63.5t35 51.5t52.5 34.5t64.5 12.5t64.5 -12.5t53 -34.5t35.5 -51.5t13 -63.5q0 -35 -13 -64.5t-35.5 -51t-53 -34t-64.5 -12.5q-35 0 -65 12.5t-52 34t-35 51t-13 64.5z" />
<glyph unicode="k" horiz-adv-x="1155" d="M111 145v1019q0 34 12 63t33.5 50.5t51.5 34.5t63 13t62 -13t51.5 -34.5t35 -50.5t12.5 -63v-1019q0 -34 -12.5 -63t-35 -51t-51.5 -34t-62 -12q-34 0 -63.5 12t-51 34t-33.5 51.5t-12 62.5zM432 275v387l376 283q25 18 52.5 33t57.5 26q13 2 26 2l52 -9q30 -11 55 -33.5 t38 -54.5q5 -14 8.5 -30t3.5 -32q-2 -39 -25.5 -75t-56.5 -59l-165 -126l221 -343q32 -36 36 -80q1 -8 1 -17q0 -35 -14 -65q-17 -38 -52 -65.5t-82 -28.5q-6 -1 -13 -1q-31 1 -60 17q-35 20 -60 49l-225 354q-35 -27 -61 -46.5l-46 -34.5t-36 -26.5t-31 -24.5z" />
<glyph unicode="l" horiz-adv-x="542" d="M111 145v1019q0 34 12 63t33.5 50.5t51.5 34.5t63 13t62 -13t51.5 -34.5t35 -50.5t12.5 -63v-1019q0 -34 -12.5 -63t-35 -51t-51.5 -34t-62 -12q-34 0 -63.5 12t-51 34t-33.5 51.5t-12 62.5z" />
<glyph unicode="m" horiz-adv-x="1698" d="M111 145v773q0 88 89 88q46 0 78 -30t50 -87l65 -171l39 -3v-570q0 -34 -12.5 -63t-35 -51t-51.5 -34t-62 -12q-34 0 -63.5 12t-51 34t-33.5 51.5t-12 62.5zM278 841q15 23 46 51.5t73.5 54t93.5 42.5t106 17q109 0 186.5 -38t128.5 -104.5t75 -157t24 -195.5v-368 q0 -32 -12.5 -60.5t-34 -50.5t-50 -34.5t-62.5 -12.5t-63 12.5t-51 34t-35 51t-13 61.5v366q0 80 -28.5 129.5t-94.5 49.5q-32 0 -57 -13t-42 -37.5t-26.5 -57.5t-9.5 -72zM858 846q15 23 46 51t72.5 52t92.5 40.5t107 16.5q108 0 186 -40.5t128 -110t74 -162.5t24 -197 v-353q0 -32 -12 -60.5t-33 -50.5t-50.5 -34.5t-62.5 -12.5q-34 0 -63.5 12.5t-51.5 34t-34.5 51t-12.5 61.5v366q0 80 -28.5 129.5t-93.5 49.5q-32 0 -57 -13t-42.5 -37.5t-26.5 -57.5t-9 -72z" />
<glyph unicode="n" horiz-adv-x="1244" d="M111 145v773q0 88 89 88q46 0 76.5 -27.5t51.5 -89.5l65 -187l39 -3v-554q0 -34 -12.5 -63t-35 -51t-51.5 -34t-62 -12q-34 0 -63.5 12t-51 34t-33.5 51.5t-12 62.5zM301 848q46 44 95.5 74t98.5 48.5t95.5 27t86.5 8.5q105 0 189.5 -40.5t144 -110t91.5 -162.5t32 -197 v-352q0 -32 -12.5 -61t-33.5 -51t-50 -34.5t-63 -12.5t-63 12.5t-51 34t-35 51t-13 61.5v351q0 40 -14 76t-38 62.5t-57.5 42.5t-73.5 16t-76 -16.5t-63 -43.5t-43 -62.5t-16 -75.5z" />
<glyph unicode="o" d="M62 496q0 104 40.5 197t110.5 162.5t163 110t197 40.5q105 0 198.5 -40.5t163 -110t109.5 -162.5t40 -197q0 -105 -40 -198.5t-109.5 -162.5t-162.5 -109.5t-199 -40.5q-104 0 -197 40.5t-163 109.5t-110.5 162.5t-40.5 198.5zM385 496q0 -40 14.5 -76.5t40 -63.5t60 -43 t73.5 -16q40 0 74.5 16t60 43t40 63.5t14.5 76.5t-14.5 75.5t-40 62t-60 42.5t-74.5 16t-74 -16t-59.5 -42.5t-40 -62t-14.5 -75.5z" />
<glyph unicode="p" horiz-adv-x="1195" d="M111 -179v1097q0 88 89 88q46 0 78 -30t50 -87l65 -161l39 -3v-904q0 -35 -12.5 -64t-35 -50.5t-51.5 -34t-62 -12.5q-34 0 -63.5 12.5t-51 34t-33.5 50.5t-12 64zM200 496q0 104 31.5 197t90.5 162.5t143 110t188 40.5q105 0 193.5 -40.5t152 -110t99 -162.5t35.5 -197 q0 -105 -35.5 -198.5t-99 -162.5t-151.5 -109.5t-194 -40.5q-86 0 -168 40.5t-145.5 109.5t-101.5 162.5t-38 198.5zM433 496q0 -40 14.5 -76.5t40 -63.5t60 -43t74.5 -16t74.5 16t60 43t40 63.5t14.5 76.5t-14.5 75.5t-40 62t-60 42.5t-74.5 16t-74.5 -16t-60 -42.5 t-40 -62t-14.5 -75.5z" />
<glyph unicode="q" horiz-adv-x="1195" d="M62 496q0 104 35.5 197t99 162.5t151.5 110t194 40.5q105 0 187 -40.5t139 -110t86.5 -162.5t29.5 -197q0 -105 -35.5 -198.5t-95.5 -162.5t-140.5 -109.5t-170.5 -40.5q-105 0 -193.5 40.5t-152 109.5t-99 162t-35.5 199zM385 496q0 -40 14.5 -76.5t40 -63.5t60 -43 t73.5 -16q40 0 74.5 16t60 43t40 63.5t14.5 76.5t-14.5 75.5t-40 62t-60 42.5t-74.5 16t-74 -16t-59.5 -42.5t-40 -62t-14.5 -75.5zM763 -179v904l39 3l65 161q18 57 50.5 87t78.5 30q88 0 88 -88v-1097q0 -35 -12 -64t-33.5 -50.5t-51.5 -34t-63 -12.5t-62 12.5t-51.5 34 t-35 50.5t-12.5 64z" />
<glyph unicode="r" horiz-adv-x="912" d="M111 145v773q0 88 89 88q46 0 76.5 -27.5t51.5 -89.5l65 -187l39 -3v-554q0 -34 -12.5 -63t-35 -51t-51.5 -34t-62 -12q-34 0 -63.5 12t-51 34t-33.5 51.5t-12 62.5zM312 862q25 25 55 48.5t66 42.5t76 32t84 17h10q39 0 81 -6q48 -8 89 -28t68 -53.5t27 -84.5 q0 -34 -15 -63t-39 -48q-25 -19 -54 -27.5t-69 -8.5q-37 1 -75 7q-13 2 -26 1q-26 0 -51 -7q-49 -17 -75.5 -65t-31.5 -111z" />
<glyph unicode="s" horiz-adv-x="1039" d="M63 266q-1 29 10 54.5t30 44t44.5 28t54.5 5.5q31 -3 63 -21.5t67 -42t73.5 -46t83.5 -33.5q26 -4 55 -6t54 2.5t40.5 18t15.5 40.5q0 20 -25 37.5t-66 33.5t-92 33.5t-103.5 39t-100.5 49t-82 64t-50 83.5q-9 26 -9 56q0 25 6 53q9 44 35.5 89.5t73.5 82.5t116.5 60.5 t164.5 23.5q78 0 149.5 -14.5t128.5 -42.5t94 -70t45 -98q1 -7 1 -13q0 -29 -12 -51q-14 -27 -35.5 -44t-48 -24t-50.5 -4q-24 4 -48 16t-48.5 26.5t-51 28t-54.5 21.5q-29 7 -54.5 8t-45.5 -5.5t-31.5 -19.5t-11.5 -35t48.5 -45.5t128.5 -48.5q33 -11 71.5 -24t77.5 -30.5 t75.5 -41t64.5 -56t45 -75t17 -98.5q0 -79 -39.5 -133.5t-104 -90t-147.5 -51t-170 -15.5q-46 0 -96.5 8.5t-100 25t-94.5 40.5t-80 55t-56.5 69.5t-25.5 82.5z" />
<glyph unicode="t" horiz-adv-x="815" d="M32 840q0 34 11.5 62.5t32.5 49.5t50 33t62 12h441q33 0 61.5 -12t49.5 -33t33 -50t12 -62q0 -32 -12 -60t-33 -49.5t-49.5 -34t-61.5 -12.5h-441q-34 0 -62.5 12.5t-49.5 34t-32.5 49.5t-11.5 60zM246 145v1019q0 34 12 63t33.5 50.5t51 34.5t64.5 13q33 0 62 -13 t50.5 -34.5t34 -50.5t12.5 -63v-1019q0 -34 -12.5 -63t-34 -51t-51 -34t-61.5 -12q-35 0 -64.5 12t-51 34t-33.5 51.5t-12 62.5z" />
<glyph unicode="u" horiz-adv-x="1244" d="M111 496v351q0 32 12 60.5t33.5 50.5t50.5 35t62 13q34 0 63 -13t52 -34.5t35.5 -50t12.5 -61.5v-351q0 -40 14 -76.5t38 -63.5t57 -43t73 -16t76 16.5t63.5 44t43.5 63.5t16 76l131 -356q-46 -44 -95.5 -73.5t-99 -48t-95.5 -26.5t-86 -8q-104 0 -189 40.5t-144.5 109.5 t-91.5 162t-32 199zM813 291v555q0 34 13 63t34.5 50.5t50.5 34t62 12.5q35 0 64 -12.5t50.5 -34t34 -50.5t12.5 -63v-773q0 -88 -88 -88q-46 0 -77.5 27.5t-52.5 88.5l-64 187z" />
<glyph unicode="v" horiz-adv-x="1067" d="M33 837.5q-2 31.5 7 61t29.5 54t50.5 38.5q31 15 62.5 17.5t60.5 -7.5t53.5 -30.5t39.5 -49.5l196 -481l197 479q12 31 36.5 51.5t54 30.5t62 8t62.5 -18q31 -13 52 -36.5t31 -52.5t8.5 -61t-15.5 -62l-337 -704q-25 -49 -69 -72q-36 -19 -76 -19q-9 0 -17 1 q-42 1 -77.5 24.5t-57.5 64.5l-336 701q-15 31 -17 62.5z" />
<glyph unicode="w" horiz-adv-x="1693" d="M34 854q1 44 22.5 80.5t64.5 56.5q31 15 62.5 17.5t60 -7t53.5 -30t40 -50.5l181 -466l181 464q13 35 44.5 56.5t68.5 30.5q27 6 53.5 3t50.5 -14.5t44 -30.5t33 -43l172 -466l191 464q12 31 35.5 51t53.5 30t62.5 8t63.5 -17q41 -18 64.5 -54.5t25.5 -79.5 q2 -18 -6.5 -50.5t-22.5 -60.5l-323 -671q-17 -35 -44 -56t-61 -30q-26 -7 -55 -5t-56 12.5t-48.5 30t-31.5 47.5l-168 447l-165 -417q-12 -30 -31 -52.5t-42 -38t-49 -23t-51 -5.5q-43 2 -79 24t-56 65l-307 669q-12 28 -20.5 56t-10.5 55z" />
<glyph unicode="x" horiz-adv-x="1091" d="M32 849.5q0 31.5 11.5 59t32.5 47.5q22 19 50 34t60 16h3q30 0 62 -14q34 -15 67 -53q12 -13 26 -29q11 -13 25.5 -29t28.5 -30l146 -153l248 263q11 12 34 25t52 18t63 -4t68 -41q20 -19 33.5 -45.5t15.5 -56.5t-8.5 -61t-36.5 -59q-4 -5 -18 -17.5t-32 -29t-38 -34.5 t-35 -31l-140 -129l145 -136q15 -14 34 -31.5t36.5 -33t30.5 -27.5t16 -15q38 -37 45 -73q3 -18 3 -33q0 -17 -4 -33q-8 -30 -22 -51.5t-18 -26.5q-15 -17 -40 -31q-26 -15 -56 -19q-10 -2 -20 -1q-21 0 -44 6q-34 9 -65 40q-5 4 -19 19t-31 33t-35.5 37.5t-31.5 34.5 l-130 134l-132 -138q-15 -16 -31 -34.5t-30.5 -34t-26 -27.5t-15.5 -16q-17 -19 -43.5 -34t-57.5 -19q-9 -1 -19 -1q-21 1 -45 7q-34 10 -66 39q-17 16 -30 43q-14 27 -16 59v11q0 26 10 53q12 32 43 60l16.5 16.5t29 27.5t35 32.5t35.5 32.5l139 129l-154 142 q-16 14 -33.5 29.5t-31.5 29.5l-34 32q-29 28 -42 59t-13 62.5z" />
<glyph unicode="y" horiz-adv-x="1090" d="M51 843.5q-2 33.5 7.5 62.5t30 52.5t50.5 37.5q31 14 65 16q7 1 13 1q27 0 51 -9q30 -10 54 -32t36 -56l194 -525q91 241 137 373t59 159q13 30 36.5 51t52.5 31.5t62 8.5t66 -18q16 -8 36.5 -25.5t35 -45t16.5 -64.5v-6q0 -35 -20 -77l-406 -884q-45 -98 -135.5 -150 t-206.5 -54q-82 0 -130.5 43t-48.5 115q0 51 26 76.5t62 38t75 19.5t67 22l51 106q-1 1 -15 30.5t-37 76.5t-51.5 107t-58.5 122q-71 146 -158 332q-14 32 -16 65.5z" />
<glyph unicode="z" horiz-adv-x="1132" d="M55 189.5q3 28.5 15.5 55t35.5 47.5l449 405l-284 -1q-35 0 -66 9t-54.5 26t-37.5 43t-14 60t12.5 61.5t35 48t52 31.5t65.5 11h575q34 0 63.5 -12.5t51.5 -34t34.5 -51t12.5 -62.5q0 -35 -18 -71.5t-67 -83.5l-381 -381h341q79 0 126.5 -35t47.5 -107q0 -34 -13 -62 t-35.5 -48t-51.5 -30.5t-61 -10.5h-671q-47 0 -85.5 23t-57.5 64q-12 22 -17.5 49.5t-2.5 56z" />
<glyph unicode="{" horiz-adv-x="745" d="M50 502q0 24 9.5 38.5t23 24t29.5 17.5t30 18.5t23 27.5t9 45v100l322 -234v-376v-149q2 -15 17 -15h30q32 0 61 -14t51.5 -37t35 -53.5t12.5 -64.5q0 -38 -14.5 -66.5t-39 -47.5t-57.5 -29t-69 -10q-3 0 -15.5 0.5t-15.5 0.5q-69 3 -127 31.5t-100.5 74t-66.5 104 t-24 122.5v325q0 22 -9 35.5t-23 23t-30 18.5t-29.5 20.5t-23 27.5t-9.5 42zM174 711v281q0 65 24 123.5t66.5 103.5t100.5 73t127 32q3 0 15.5 0.5t15.5 0.5q36 0 69 -9.5t57.5 -29t39 -48.5t14.5 -67q0 -34 -12.5 -64t-35 -53.5t-52 -37.5t-60.5 -14h-30q-17 0 -17 -14 v-503z" />
<glyph unicode="|" horiz-adv-x="542" d="M111 -137v1311q0 33 12 62t33 51t50 34.5t63 12.5t63.5 -12.5t51.5 -34.5t34 -52t12 -63v-1309q0 -34 -12 -63t-34.5 -50.5t-51.5 -34t-63 -12.5q-35 0 -64 12.5t-50 34t-32.5 50.5t-11.5 63z" />
<glyph unicode="}" horiz-adv-x="745" d="M42 -170q0 34 13 64.5t35.5 53.5t51 37t61.5 14h29q15 0 18 15v149v376l321 234v-100q0 -28 9.5 -45t23 -27.5t29.5 -18.5t30 -17.5t23 -24.5t9 -38q0 -26 -9 -42t-23 -27.5t-30 -20.5t-29.5 -18.5t-23 -23.5t-9.5 -35v-325q0 -65 -24 -123t-66.5 -103.5t-100 -73.5 t-126.5 -32q-3 0 -16 -0.5t-16 -0.5q-36 0 -68.5 10t-57 29t-39.5 47.5t-15 66.5zM42 1171q0 38 15 67t39.5 48.5t57 29t68.5 9.5q3 0 16 -0.5t16 -0.5q69 -4 126.5 -32t100 -73t66.5 -103.5t24 -123.5v-281l-321 -226v503q0 14 -18 14h-29q-33 0 -61.5 14t-51 37.5 t-35.5 54t-13 63.5z" />
<glyph unicode="~" horiz-adv-x="1382" d="M74 466q0 83 32.5 151.5t88.5 117t129.5 76t156.5 27.5q58 0 113.5 -19.5t104.5 -54t88 -80.5t66 -99q11 -17 28.5 -28t46.5 -11q34 0 57 20.5t31 56.5q5 34 19.5 65.5t36 56t50 39.5t63.5 15q43 0 74.5 -21.5t46.5 -57.5q14 -45 11 -94q-3 -78 -36 -142t-86.5 -110 t-124 -71t-147.5 -25q-63 0 -120.5 18t-106 51t-88.5 78t-69 99q-13 20 -31 31.5t-43 11.5q-33 0 -54.5 -22t-31.5 -55q-9 -33 -23.5 -64t-35.5 -55t-49 -39t-63 -15q-32 0 -56.5 11.5t-42 31.5t-26.5 47t-9 59z" />
<glyph unicode="&#xa1;" horiz-adv-x="443" d="M66 1054q0 -35 13 -64.5t35 -51t52.5 -34t64.5 -12.5t64.5 12.5t53 34t35 51t12.5 64.5q0 34 -12.5 63.5t-35 51.5t-53 34.5t-64.5 12.5q-35 0 -65 -12.5t-52 -34.5t-35 -51.5t-13 -63.5zM71 -167q0 -35 12 -65.5t33.5 -53t51.5 -35t63 -12.5q34 0 64 12.5t51.5 35 t33.5 53.5t12 65v783q0 36 -12.5 66t-35 52t-51.5 35t-62 13t-62 -13t-51 -35t-34.5 -52t-12.5 -66v-783z" />
<glyph unicode="&#xa2;" horiz-adv-x="1063" d="M22 495q0 105 40 197.5t109.5 162.5t162 110.5t197.5 40.5q55 0 109 -11t103.5 -31t90.5 -47.5t71 -60.5q25 -27 39 -56t14 -59q0 -31 -11.5 -58.5t-32 -47.5t-49.5 -30.5t-63 -7.5q-25 6 -49 16t-47.5 21t-47.5 22t-50 19q-46 10 -93 5t-85 -27t-62 -61.5t-24 -96.5 q0 -55 22.5 -95t59.5 -63t84.5 -28.5t97.5 5.5q36 7 69 24t61 38q32 16 71.5 18.5t75.5 -14.5q34 -17 54 -50.5t20 -79.5q0 -51 -32 -99t-89 -85t-135 -59.5t-172 -22.5q-105 0 -197.5 40.5t-162 109.5t-109.5 162t-40 199zM394 103h290v-247q0 -30 -12 -56t-31.5 -45.5 t-46.5 -30.5t-56 -11q-31 0 -57 11t-45 30.5t-30.5 45.5t-11.5 56v247zM394 905v228q0 31 10.5 58.5t29 48.5t45 33t59.5 12q29 0 54.5 -10.5t45.5 -30t32 -45t12 -54.5q1 -38 1.5 -75t0.5 -75v-159z" />
<glyph unicode="&#xa3;" horiz-adv-x="1079" d="M-62 670q0 31 11 57t30 45.5t45 30.5t57 11h456q30 0 55.5 -11t45.5 -30.5t31.5 -46t11.5 -56.5t-11.5 -56t-31.5 -46t-46 -32t-55 -12h-456q-31 0 -57 12t-45 32t-30 46t-11 56zM106 154v633l322 71v-554h422q35 0 66 -11.5t54 -33t36.5 -51.5t13.5 -65t-11.5 -64.5 t-32.5 -51t-50 -33t-64 -11.5h-593q-35 2 -64.5 15t-51.5 35.5t-34.5 53.5t-12.5 67zM106 713v141q0 112 29.5 204t84 158t133.5 102.5t177 36.5q34 0 63.5 -12.5t51 -34.5t34 -51t12.5 -63q0 -46 -23 -83t-62 -56q-33 -11 -64 -19.5t-56.5 -24.5t-41.5 -46t-16 -85v-216z " />
<glyph unicode="&#xa4;" horiz-adv-x="1189" d="M246 442q6 34 37 65l130 128l184 -189l-127 -128q-30 -30 -63.5 -36t-65 5t-56 35t-35 55t-4.5 65zM250.5 945.5q-7.5 31.5 0 62.5t30 56.5t59.5 36.5q33 11 67.5 3.5t61.5 -34.5l120 -120l-185 -186l-120 122q-2 2 -2 4q-24 24 -31.5 55.5zM269 688q0 81 31.5 153 t84.5 126t125 85t154 31q81 0 153 -31t125 -85t84.5 -126t31.5 -153t-31.5 -152.5t-84.5 -125.5t-125.5 -85t-152.5 -31q-82 0 -154 31t-125 85t-84.5 125.5t-31.5 152.5zM536 688q0 -28 9.5 -52t27 -42.5t41 -29t50.5 -10.5q28 0 50.5 10.5t40 29t27.5 42.5t10 52t-10 52.5 t-27.5 43t-40.5 29t-50 10.5t-50.5 -10.5t-41 -29t-27 -43t-9.5 -52.5zM713 931l137 136q1 2 2 2t2 1q24 23 56.5 31t64.5 1t57.5 -29.5t36.5 -60.5q11 -34 3.5 -69.5t-34.5 -61.5l-139 -139zM727 439l186 187l122 -121q2 -2 2 -4q23 -25 31 -56.5t0.5 -63t-30 -57 t-60.5 -36.5q-33 -11 -68.5 -3t-61.5 34z" />
<glyph unicode="&#xa5;" horiz-adv-x="1341" d="M39 1136.5q0 30.5 11.5 60t36.5 53.5q24 24 53.5 35.5t60 11.5t60 -11.5t52.5 -35.5l390 -398q25 -25 37.5 -54t12.5 -59.5t-12.5 -60t-37.5 -53.5q-24 -24 -37.5 -52t-25 -47t-25.5 -23t-38 20l-491 500q-24 24 -35.5 53.5t-11.5 60zM293 319q0 46 30 77t75 31h567 q45 0 75.5 -30.5t30.5 -77.5q0 -23 -8 -42t-22.5 -34t-34 -23t-41.5 -8h-567q-45 0 -75 31t-30 76zM293 615q0 45 30 76t75 31h566q45 0 75.5 -31t30.5 -76q0 -23 -8 -42t-22.5 -34t-34 -23t-41.5 -8h-566q-45 0 -75 31t-30 76zM517 130v557q0 33 12.5 62t34 50.5t50.5 34.5 t63 13t63 -13t50.5 -34.5t34.5 -50.5t13 -62v-557q0 -34 -13 -63t-34.5 -51t-50.5 -34.5t-63 -12.5t-63 12.5t-50.5 34.5t-34 51t-12.5 63zM602 738.5q0 30.5 12.5 59.5t36.5 54l390 398q24 24 53 35.5t60 11.5t60.5 -11.5t54.5 -35.5q24 -24 35.5 -53.5t11.5 -60t-12 -60 t-35 -53.5l-495 -500q-25 -25 -38.5 -20.5t-24.5 23.5t-23.5 47t-35.5 52q-25 25 -37.5 54t-12.5 59.5z" />
<glyph unicode="&#xa6;" horiz-adv-x="539" d="M110 -166v459q0 34 12.5 63t34 50.5t50.5 34.5t62 13t62 -13t51 -35.5t35 -51.5t13 -61v-459q0 -35 -13.5 -64.5t-35.5 -51t-51 -34t-61 -12.5q-34 0 -63 12.5t-50.5 34t-33.5 51t-12 64.5zM110 702v462q0 37 13 67.5t35 52t50.5 33t60.5 11.5q31 0 60 -12t51 -33.5 t36 -52t14 -66.5v-462q0 -36 -13 -65.5t-35.5 -51t-51.5 -33t-61 -11.5q-33 0 -62 11.5t-50.5 32.5t-34 51t-12.5 66z" />
<glyph unicode="&#xa7;" horiz-adv-x="1039" d="M62 267q-1 28 9.5 52.5t28 43.5t41.5 30t52 11q34 1 64.5 -17.5t64.5 -44t74 -50t92 -34.5q26 -4 55 -6.5t54 1.5t40.5 17.5t15.5 40.5q0 16 -25.5 31t-67 30.5t-93 33t-105 39.5t-102 50.5t-83.5 66.5t-51 86t-3 110q9 44 36 90t75.5 83.5t119 61.5t165.5 24 q56 0 108.5 -7.5t98.5 -21.5q41 -13 78 -41.5t63.5 -64.5t40.5 -74.5t9.5 -70.5t-30.5 -53.5t-78 -24.5q-16 1 -18.5 13t-5.5 28t-16 33t-52 28q-29 7 -51.5 13.5t-42 11.5t-36 7t-32.5 1q-68 -3 -100 -30.5t-32 -60.5q0 -14 7 -26.5t27.5 -25t59 -23.5t99.5 -19 q35 -5 75.5 -15.5t80.5 -29t77 -45t65 -62t45 -80.5t17 -101q0 -79 -39.5 -133.5t-104 -90t-147.5 -51t-170 -15.5q-68 0 -145 19t-144 55t-113 88.5t-51 118.5zM137 1180q9 44 36 88.5t75 80t118.5 58.5t165.5 23q79 0 150.5 -14.5t127.5 -42.5t93 -70t48 -99 q2 -36 -10 -62.5t-32 -44.5t-43.5 -27t-45.5 -10q-24 -3 -48 9t-51 30t-56.5 36t-62.5 27q-28 7 -54 8t-47 -4t-33.5 -17t-12.5 -32q0 -23 48 -46.5t134 -49.5q33 -10 72 -22.5t78 -30t75.5 -41t64.5 -56t45 -75.5t17 -99q0 -79 -39.5 -133.5t-104 -89.5t-147.5 -50.5 t-170 -15.5q-27 0 -50.5 6.5t-47 16.5t-49 23t-53.5 24q-71 28 -112 65.5t-46 75.5t29.5 72.5t116.5 57.5q10 -5 22 -20t28.5 -33t39.5 -36t57 -29q38 -9 83 -13.5t84.5 2t66 25t28.5 53.5q1 29 -26 51.5t-72.5 42t-103 38t-116.5 40t-113 49t-93.5 64t-58 85t-5.5 112.5z " />
<glyph unicode="&#xa8;" horiz-adv-x="899" d="M39 1469q0 28 10.5 53t29 43.5t43 29.5t53.5 11q28 0 52.5 -11t43.5 -29.5t29.5 -43.5t10.5 -53q0 -29 -10.5 -53t-29.5 -42.5t-43.5 -29.5t-52.5 -11q-29 0 -53.5 11t-43 29.5t-29 42.5t-10.5 53zM408 1469q0 28 10.5 53t29 43.5t43 29.5t52.5 11q29 0 53.5 -11 t42.5 -29.5t29 -43.5t11 -53q0 -29 -11 -53t-29 -42.5t-43 -29.5t-53 -11t-52.5 11t-43 29.5t-29 42.5t-10.5 53z" />
<glyph unicode="&#xa9;" horiz-adv-x="1449" d="M41 649q0 137 55 258t148.5 211.5t217 143t260.5 52.5q91 0 177 -24t161.5 -67t138.5 -104t108 -135t70 -159t25 -176t-25 -176t-70 -158.5t-108 -134.5t-138.5 -104.5t-161.5 -67t-177 -23.5t-177 23.5t-162 67t-139 104.5t-108 134.5t-70 158t-25 176.5zM248 646 q0 -90 39 -172t104.5 -144t151.5 -98.5t179 -36.5t178.5 36.5t151 99t104.5 145t39 174.5q0 91 -39 173t-104.5 143.5t-151 97.5t-178.5 36t-179 -36.5t-151.5 -99t-104.5 -144.5t-39 -174zM356 649q0 76 29 142.5t78.5 116t116.5 78.5t143 29q81 0 142.5 -25t117.5 -87 q22 -24 22 -60q1 -12 -5 -29.5t-19 -31.5q-22 -17 -53 -22.5t-64 20.5q-28 28 -60.5 47.5t-81.5 19.5q-41 0 -76.5 -16t-61.5 -43t-41 -63t-15 -77q0 -38 15.5 -73t41.5 -62t61.5 -43t75.5 -16q29 0 50.5 7t40 18t36 25.5t37.5 30.5q20 12 49.5 13t52.5 -18q27 -27 27 -62 q0 -14 -5.5 -31t-18.5 -31q-55 -61 -118 -89t-150 -28q-76 0 -143 28.5t-116.5 77.5t-78.5 114.5t-29 139.5z" />
</font>
</defs>
</svg>
