<?xml version="1.0" encoding="utf-8"?>
<!-- Generator: Adobe Illustrator 24.3.0, SVG Export Plug-In . SVG Version: 6.00 Build 0)  -->
<svg version="1.1" id="Слой_1" xmlns="http://www.w3.org/2000/svg" xmlns:xlink="http://www.w3.org/1999/xlink" x="0px" y="0px"
	 viewBox="0 0 45.89 37.18" style="enable-background:new 0 0 45.89 37.18;" xml:space="preserve">
<style type="text/css">
	.st0{clip-path:url(#SVGID_2_);fill:#FFFFFF;}
	.st1{clip-path:url(#SVGID_2_);fill:#2593D2;}
</style>
<g>
	<defs>
		<rect id="SVGID_1_" x="-8.54" y="-33.33" width="63.8" height="112.64"/>
	</defs>
	<clipPath id="SVGID_2_">
		<use xlink:href="#SVGID_1_"  style="overflow:visible;"/>
	</clipPath>
	<path class="st0" d="M23.38-24.38c-3.66,0-7.32,0-10.98,0c-1.3,0-1.8-0.59-1.79-2.03c0.02-1.4,0.48-1.91,1.77-1.91
		c7.32,0,14.64,0,21.97,0c1.31,0,1.76,0.49,1.78,1.89c0.02,1.45-0.48,2.04-1.77,2.05C30.7-24.38,27.04-24.38,23.38-24.38"/>
	<path class="st0" d="M23.33,71.19c-2.88-0.01-5.25-2.41-5.21-5.27c0.04-2.89,2.42-5.19,5.33-5.15c2.85,0.04,5.16,2.36,5.15,5.21
		C28.6,68.86,26.23,71.21,23.33,71.19"/>
	<path class="st1" d="M7.9,37.18h30.12c4.32,0,7.81-3.5,7.81-7.81v-16.3v-2.6c0-4.31-3.5-7.81-7.81-7.81H17.72V0.45
		c0-0.21-0.17-0.37-0.37-0.37h-2.27c-0.2,0-0.37,0.17-0.37,0.37v2.19h-1.72V0.45c0-0.21-0.17-0.37-0.37-0.37H6.63
		c-0.2,0-0.37,0.17-0.37,0.37v2.37c-3.53,0.75-6.17,3.88-6.17,7.64v2.6v16.3C0.09,33.68,3.59,37.18,7.9,37.18 M10.33,23.08H9.42
		c-1.75,0-3.16-1.42-3.16-3.16c0-1.75,1.42-3.17,3.16-3.17h0.91c-0.25,1.01-0.39,2.07-0.39,3.17S10.08,22.06,10.33,23.08
		 M22.96,31.81c-6.57,0-11.9-5.33-11.9-11.9c0-6.57,5.33-11.9,11.9-11.9c6.57,0,11.9,5.33,11.9,11.9
		C34.86,26.48,29.54,31.81,22.96,31.81 M3.07,10.46c0-2.67,2.17-4.84,4.84-4.84h30.12c2.67,0,4.84,2.17,4.84,4.84v2.6h-8.83
		c-2.3-3.7-6.39-6.17-11.07-6.17c-4.68,0-8.77,2.47-11.07,6.17H3.07V10.46z"/>
	<path class="st1" d="M22.96,10.66c-5.11,0-9.25,4.14-9.25,9.26c0,5.11,4.14,9.25,9.25,9.25s9.25-4.14,9.25-9.25
		C32.22,14.8,28.07,10.66,22.96,10.66"/>
</g>
</svg>
