<?xml version="1.0" encoding="utf-8"?>
<!-- Generator: Adobe Illustrator 24.3.0, SVG Export Plug-In . SVG Version: 6.00 Build 0)  -->
<svg version="1.1" id="Слой_1" xmlns="http://www.w3.org/2000/svg" xmlns:xlink="http://www.w3.org/1999/xlink" x="0px" y="0px"
	 viewBox="0 0 45.42 45.41" style="enable-background:new 0 0 45.42 45.41;" xml:space="preserve">
<style type="text/css">
	.st0{clip-path:url(#SVGID_2_);fill:#FFFFFF;}
	.st1{clip-path:url(#SVGID_2_);fill:#2593D2;}
</style>
<g>
	<defs>
		<rect id="SVGID_1_" x="-9.67" y="-30.65" width="63.8" height="112.64"/>
	</defs>
	<clipPath id="SVGID_2_">
		<use xlink:href="#SVGID_1_"  style="overflow:visible;"/>
	</clipPath>
	<path class="st0" d="M22.2,73.87c-2.88-0.01-5.25-2.41-5.21-5.27c0.04-2.89,2.42-5.18,5.33-5.15c2.85,0.04,5.16,2.36,5.15,5.21
		C27.47,71.54,25.09,73.89,22.2,73.87"/>
	<path class="st1" d="M21.49,0h1.83c0.09,0.01,0.18,0.03,0.27,0.04c2.32,0.12,4.58,0.59,6.75,1.44c4.89,1.91,8.67,5.14,11.34,9.65
		c1.62,2.74,2.58,5.7,2.92,8.87c0.05,0.45,0.09,0.91,0.13,1.36v2.01c-0.01,0.08-0.03,0.15-0.04,0.22c-0.06,0.63-0.1,1.26-0.19,1.88
		c-0.57,4.09-2.14,7.76-4.77,10.93c-4.81,5.78-11.01,8.57-18.55,8.28c-2.37-0.09-4.66-0.59-6.85-1.46
		c-5.19-2.05-9.1-5.55-11.74-10.46c-1.34-2.5-2.15-5.18-2.45-8.01C0.08,24.28,0.04,23.82,0,23.36v-2.01
		c0.01-0.08,0.03-0.16,0.04-0.24c0.11-2.06,0.49-4.07,1.18-6.01c1.99-5.57,5.59-9.76,10.8-12.54c2.66-1.42,5.51-2.23,8.51-2.47
		C20.86,0.06,21.17,0.03,21.49,0 M10.98,22.15h10.45v-7.12c-3.18-0.08-6.29-0.54-9.35-1.46C11.34,16.4,10.99,19.24,10.98,22.15
		 M33.63,22.16c-0.01-2.91-0.36-5.76-1.1-8.57c-3.04,0.91-6.12,1.36-9.24,1.44v7.13H33.63z M42.88,22.16
		c-0.08-4.26-1.33-8.11-3.73-11.56c-0.82,0.46-1.6,0.92-2.4,1.33s-1.64,0.74-2.48,1.12c0.8,2.97,1.18,6.01,1.2,9.11H42.88z
		 M5.58,10.57c-2.43,3.5-3.68,7.35-3.75,11.59h7.23c0.13-1.55,0.23-3.09,0.39-4.62c0.17-1.54,0.5-3.05,0.9-4.56
		C8.68,12.34,7.09,11.56,5.58,10.57 M12.58,32.88c0.15,0.4,0.28,0.79,0.43,1.17c0.84,2.16,1.91,4.19,3.49,5.91
		c0.98,1.07,2.09,1.95,3.46,2.46c0.47,0.18,0.97,0.28,1.47,0.43V31.52C18.42,31.6,15.48,32.01,12.58,32.88 M21.43,13.19V1.88
		c-0.39,0.1-0.76,0.17-1.12,0.29c-1.52,0.49-2.75,1.43-3.82,2.6c-1.52,1.66-2.57,3.6-3.39,5.68c-0.18,0.46-0.34,0.92-0.52,1.39
		C15.48,12.7,18.42,13.11,21.43,13.19 M32.03,32.85c-2.88-0.84-5.78-1.25-8.75-1.33v11.27c0.05-0.01,0.09-0.01,0.12-0.01
		c1.49-0.27,2.75-0.98,3.86-1.99C29.65,38.63,30.99,35.85,32.03,32.85 M23.29,1.92v11.25c1.7,0.15,7.53-0.74,8.72-1.33
		c-0.01-0.03-0.01-0.07-0.03-0.1c-0.58-1.72-1.31-3.38-2.3-4.92c-0.96-1.5-2.11-2.84-3.63-3.82C25.21,2.45,24.3,2.08,23.29,1.92
		 M21.43,24.01H11.01c0.1,2.42,0.44,4.79,1.06,7.14c1.54-0.46,3.07-0.81,4.63-1.05c1.56-0.24,3.13-0.37,4.72-0.42V24.01z
		 M33.59,24.02H23.28v5.67c3.15,0.08,6.23,0.53,9.26,1.43C33.15,28.78,33.48,26.42,33.59,24.02 M35.43,24.01
		c-0.11,2.61-0.5,5.16-1.16,7.65c0.84,0.37,1.68,0.71,2.48,1.12c0.81,0.41,1.59,0.88,2.41,1.33c2.11-3.02,3.33-6.38,3.65-10.1H35.43
		z M1.91,24.01c0.32,3.72,1.55,7.08,3.65,10.1c0.8-0.44,1.56-0.9,2.35-1.3c0.79-0.4,1.61-0.74,2.44-1.11
		c-0.69-2.5-1.06-5.07-1.18-7.69H1.91z M33.73,11.29c1.52-0.56,2.95-1.24,4.31-2.13c-2.51-2.93-5.55-5.03-9.2-6.24
		C31.18,5.29,32.65,8.16,33.73,11.29 M38.03,35.56c-0.73-0.59-3.69-2.04-4.3-2.11c-1.07,3.1-2.55,5.97-4.88,8.34
		C32.49,40.58,35.53,38.48,38.03,35.56 M10.88,11.26c0.53-1.55,1.16-3.02,1.96-4.42c0.8-1.41,1.74-2.7,2.88-3.87
		c-3.59,1.22-6.59,3.3-9.06,6.19C7.99,10.03,9.39,10.7,10.88,11.26 M6.68,35.55c1.23,1.45,2.6,2.69,4.13,3.75
		c1.45,1,4.25,2.38,4.94,2.45c-2.34-2.34-3.79-5.2-4.87-8.29C9.4,34.01,8,34.68,6.68,35.55"/>
</g>
</svg>
