<?xml version="1.0" encoding="utf-8"?>
<!-- Generator: Adobe Illustrator 24.3.0, SVG Export Plug-In . SVG Version: 6.00 Build 0)  -->
<svg version="1.1" id="Слой_1" xmlns="http://www.w3.org/2000/svg" xmlns:xlink="http://www.w3.org/1999/xlink" x="0px" y="0px"
	 viewBox="0 0 43.75 43.25" style="enable-background:new 0 0 43.75 43.25;" xml:space="preserve">
<style type="text/css">
	.st0{clip-path:url(#SVGID_2_);fill:#FFFFFF;}
	.st1{clip-path:url(#SVGID_2_);fill:#2593D2;}
</style>
<g>
	<defs>
		<rect id="SVGID_1_" x="-10" y="-30.39" width="63.8" height="112.64"/>
	</defs>
	<clipPath id="SVGID_2_">
		<use xlink:href="#SVGID_1_"  style="overflow:visible;"/>
	</clipPath>
	<path class="st0" d="M21.87,74.13c-2.88-0.01-5.25-2.41-5.21-5.27c0.04-2.89,2.42-5.18,5.33-5.15c2.86,0.04,5.16,2.36,5.16,5.21
		C27.14,71.8,24.76,74.14,21.87,74.13"/>
	<path class="st1" d="M43.71,5.85v30.96c-0.01,0.04-0.03,0.08-0.03,0.11c-0.01,0.31-0.06,0.62-0.13,0.92
		c-0.32,1.41-1.02,2.6-2.1,3.56c-0.86,0.76-1.85,1.27-2.97,1.52c-0.35,0.08-0.7,0.14-1.05,0.14c-1.88,0-3.77,0-5.65,0
		c-8.41,0-16.82,0-25.23,0c-0.11,0-0.22-0.01-0.34-0.02c-0.35-0.03-0.7-0.09-1.04-0.19c-1.76-0.49-3.12-1.52-4.06-3.09
		c-0.55-0.92-0.85-1.92-0.9-2.99c0-0.08-0.03-0.16-0.05-0.24V6.13c0.01-0.08,0.04-0.17,0.05-0.26c0.02-0.37,0.07-0.73,0.15-1.1
		c0.46-2.06,1.91-3.81,3.85-4.65c0.74-0.32,1.52-0.5,2.32-0.55c0.04,0,0.08-0.02,0.11-0.03h30.59c0.04,0.01,0.08,0.02,0.12,0.03
		c0.21,0.02,0.42,0.04,0.63,0.07c0.67,0.09,1.31,0.28,1.92,0.58c1.5,0.73,2.6,1.87,3.27,3.4C43.47,4.3,43.65,5,43.69,5.74
		C43.69,5.78,43.7,5.81,43.71,5.85 M24.89,17.6v-0.4c0-0.91,0-1.81,0-2.72c0-0.2-0.01-0.39-0.06-0.58c-0.05-0.2-0.18-0.33-0.38-0.37
		c-0.12-0.02-0.24-0.04-0.35-0.04c-1.33,0-2.67,0-4.01,0c-0.41,0-0.83,0-1.24,0c-0.1,0-0.2,0.02-0.29,0.05
		c-0.23,0.08-0.36,0.24-0.37,0.49c-0.01,0.12,0.01,0.23,0.07,0.34c0.06,0.1,0.12,0.21,0.19,0.3c0.09,0.12,0.19,0.23,0.28,0.35
		c0.37,0.46,0.58,0.98,0.65,1.57c0.03,0.23,0.03,0.46,0.03,0.69c0,1.45,0,2.89,0,4.34c0,0.19,0,0.39-0.01,0.59
		c-0.01,0.15-0.02,0.3-0.08,0.45c-0.06,0.14-0.16,0.22-0.32,0.22c-0.11,0-0.21-0.01-0.31-0.05c-0.09-0.05-0.19-0.09-0.28-0.15
		c-0.27-0.18-0.51-0.41-0.73-0.65c-0.37-0.41-0.71-0.85-1.02-1.3c-0.88-1.29-1.6-2.67-2.22-4.09c-0.31-0.71-0.58-1.43-0.83-2.15
		c-0.06-0.18-0.15-0.36-0.26-0.51c-0.16-0.23-0.38-0.38-0.66-0.42c-0.15-0.03-0.31-0.04-0.46-0.04c-1.1,0-2.19,0-3.29,0
		c-0.03,0-0.05,0-0.08,0c-0.48,0.03-0.79,0.38-0.78,0.8c0,0.17,0.03,0.35,0.06,0.52c0.08,0.45,0.21,0.9,0.35,1.33
		c0.33,1.03,0.76,2.02,1.23,2.99c1.02,2.06,2.25,3.99,3.65,5.82c0.91,1.19,1.97,2.24,3.18,3.12c0.87,0.64,1.81,1.16,2.82,1.55
		c0.95,0.36,1.94,0.58,2.96,0.61c0.52,0.02,1.04,0,1.55-0.08c0.22-0.03,0.44-0.09,0.64-0.2c0.23-0.13,0.39-0.32,0.43-0.58
		c0.02-0.13,0.03-0.26,0.03-0.39c0-0.87,0-1.73,0-2.6c0-0.1,0-0.21,0.01-0.32c0.01-0.16,0.05-0.32,0.13-0.47
		c0.09-0.15,0.22-0.25,0.39-0.29c0.15-0.03,0.3-0.01,0.45,0.02c0.3,0.06,0.57,0.19,0.83,0.35c0.44,0.27,0.85,0.59,1.23,0.93
		c0.83,0.75,1.61,1.55,2.35,2.38c0.2,0.22,0.4,0.44,0.61,0.65c0.13,0.13,0.28,0.25,0.43,0.35c0.27,0.18,0.57,0.24,0.89,0.24
		c1.19,0,2.38,0,3.57,0c0.07,0,0.14-0.01,0.21-0.02c0.28-0.04,0.46-0.19,0.54-0.46c0.06-0.21,0.06-0.42,0.01-0.63
		c-0.08-0.32-0.23-0.61-0.39-0.89c-0.29-0.49-0.64-0.94-0.99-1.39c-0.54-0.67-1.14-1.29-1.69-1.94c-0.39-0.46-0.83-0.88-1.25-1.32
		c-0.2-0.22-0.4-0.44-0.6-0.66c-0.22-0.26-0.25-0.54-0.09-0.84c0.08-0.14,0.16-0.28,0.25-0.41c0.19-0.29,0.4-0.57,0.59-0.86
		c0.85-1.25,1.68-2.51,2.44-3.83c0.33-0.57,0.64-1.15,0.89-1.75c0.1-0.25,0.2-0.51,0.22-0.78c0.03-0.37-0.13-0.66-0.5-0.74
		c-0.11-0.03-0.23-0.04-0.34-0.04c-1.07,0-2.13,0-3.2,0c-0.13,0-0.25,0.01-0.38,0.02c-0.27,0.04-0.52,0.15-0.69,0.38
		c-0.09,0.12-0.17,0.25-0.24,0.39c-0.21,0.41-0.42,0.83-0.63,1.24c-0.62,1.16-1.29,2.28-2.06,3.36c-0.47,0.67-0.98,1.31-1.55,1.89
		c-0.15,0.16-0.33,0.3-0.5,0.44c-0.14,0.11-0.31,0.18-0.49,0.21c-0.22,0.03-0.37-0.05-0.45-0.26c-0.01-0.04-0.03-0.08-0.04-0.12
		c-0.03-0.17-0.04-0.34-0.04-0.51C24.89,19.66,24.89,18.63,24.89,17.6"/>
	<path class="st0" d="M24.89,17.6c0,1.03,0,2.05,0,3.08c0,0.17,0.01,0.34,0.04,0.51c0.01,0.04,0.02,0.08,0.04,0.12
		c0.08,0.21,0.23,0.3,0.45,0.26c0.18-0.03,0.35-0.1,0.49-0.21c0.17-0.14,0.34-0.28,0.5-0.44c0.57-0.58,1.08-1.22,1.55-1.89
		c0.76-1.07,1.44-2.2,2.06-3.36c0.22-0.41,0.42-0.83,0.63-1.24c0.07-0.13,0.15-0.27,0.24-0.39c0.17-0.23,0.41-0.34,0.69-0.38
		c0.12-0.02,0.25-0.02,0.38-0.02c1.07,0,2.13,0,3.2,0c0.11,0,0.23,0.01,0.34,0.04c0.37,0.09,0.53,0.38,0.51,0.74
		c-0.02,0.28-0.11,0.53-0.22,0.78c-0.25,0.61-0.56,1.19-0.89,1.75c-0.76,1.31-1.58,2.58-2.44,3.83c-0.2,0.29-0.4,0.57-0.59,0.86
		c-0.09,0.13-0.17,0.27-0.24,0.41c-0.16,0.3-0.13,0.58,0.09,0.84c0.19,0.23,0.39,0.44,0.6,0.66c0.42,0.44,0.85,0.86,1.25,1.32
		c0.56,0.66,1.16,1.27,1.69,1.94c0.36,0.45,0.7,0.9,0.99,1.39c0.16,0.28,0.31,0.57,0.39,0.89c0.05,0.21,0.06,0.42-0.01,0.63
		c-0.08,0.27-0.26,0.43-0.54,0.46c-0.07,0.01-0.14,0.02-0.21,0.02c-1.19,0-2.38,0-3.57,0c-0.32,0-0.62-0.05-0.89-0.24
		c-0.15-0.1-0.3-0.22-0.43-0.35c-0.21-0.21-0.41-0.43-0.61-0.65c-0.74-0.84-1.52-1.64-2.35-2.38c-0.38-0.35-0.78-0.67-1.23-0.93
		c-0.26-0.15-0.53-0.29-0.83-0.35c-0.15-0.03-0.3-0.05-0.45-0.02c-0.18,0.03-0.3,0.13-0.39,0.29c-0.08,0.15-0.12,0.3-0.13,0.47
		c-0.01,0.1-0.01,0.21-0.01,0.32c0,0.87,0,1.74,0,2.6c0,0.13-0.01,0.26-0.03,0.39c-0.04,0.26-0.2,0.46-0.43,0.58
		c-0.2,0.11-0.42,0.16-0.64,0.2c-0.51,0.08-1.03,0.1-1.55,0.08c-1.02-0.03-2-0.25-2.95-0.61c-1.01-0.38-1.95-0.91-2.83-1.55
		c-1.21-0.88-2.27-1.93-3.18-3.12c-1.4-1.83-2.63-3.75-3.65-5.82c-0.48-0.97-0.9-1.96-1.23-2.99c-0.14-0.44-0.27-0.88-0.35-1.33
		c-0.03-0.17-0.05-0.34-0.06-0.52c-0.01-0.42,0.3-0.77,0.78-0.8c0.02,0,0.05,0,0.08,0c1.1,0,2.19,0,3.29,0
		c0.16,0,0.31,0.02,0.47,0.04c0.28,0.05,0.5,0.19,0.66,0.42c0.11,0.16,0.19,0.33,0.26,0.51c0.25,0.73,0.52,1.45,0.83,2.15
		c0.62,1.43,1.34,2.8,2.22,4.09c0.31,0.46,0.64,0.9,1.02,1.3c0.22,0.24,0.45,0.47,0.73,0.65c0.09,0.06,0.18,0.11,0.27,0.15
		c0.1,0.05,0.2,0.06,0.31,0.05c0.16-0.01,0.26-0.08,0.32-0.22c0.06-0.14,0.08-0.29,0.08-0.45c0.01-0.2,0.01-0.39,0.01-0.59
		c0-1.45,0-2.9,0-4.34c0-0.23-0.01-0.47-0.03-0.69c-0.07-0.58-0.28-1.11-0.65-1.57c-0.09-0.12-0.19-0.23-0.28-0.35
		c-0.07-0.1-0.13-0.2-0.19-0.3c-0.06-0.1-0.08-0.22-0.07-0.34c0.02-0.24,0.15-0.41,0.37-0.49c0.09-0.03,0.19-0.05,0.29-0.05
		c0.41,0,0.83,0,1.24,0c1.33,0,2.67,0,4.01,0c0.12,0,0.24,0.01,0.35,0.04c0.2,0.04,0.33,0.17,0.38,0.37
		c0.05,0.19,0.06,0.39,0.06,0.58c0,0.91,0,1.81,0,2.72C24.89,17.33,24.89,17.47,24.89,17.6"/>
</g>
</svg>
