<?xml version="1.0" encoding="utf-8"?>
<!-- Generator: Adobe Illustrator 24.3.0, SVG Export Plug-In . SVG Version: 6.00 Build 0)  -->
<svg version="1.1" id="Слой_1" xmlns="http://www.w3.org/2000/svg" xmlns:xlink="http://www.w3.org/1999/xlink" x="0px" y="0px"
	 viewBox="0 0 54.32 52.92" style="enable-background:new 0 0 54.32 52.92;" xml:space="preserve">
<style type="text/css">
	.st0{fill:none;stroke:#2593D2;stroke-width:2.5;stroke-linecap:round;stroke-linejoin:round;stroke-miterlimit:10;}
	.st1{fill:#FFFFFF;}
	.st2{fill:#2593D2;}
</style>
<g>
	<rect x="1.32" y="1.41" class="st0" width="51.69" height="50.23"/>
	<rect x="15.04" y="-7.13" class="st1" width="24.25" height="67.5"/>
	
		<rect x="14.98" y="-2.86" transform="matrix(-1.836970e-16 1 -1 -1.836970e-16 53.9889 -0.208)" class="st1" width="24.25" height="59.5"/>
	<path class="st2" d="M46.31,12.97v27.32c-0.01,0.03-0.02,0.07-0.02,0.1c-0.01,0.28-0.06,0.55-0.12,0.82
		c-0.28,1.25-0.9,2.3-1.86,3.15c-0.76,0.67-1.63,1.12-2.62,1.34c-0.31,0.07-0.62,0.12-0.93,0.13c-1.66,0-3.32,0-4.98,0
		c-7.42,0-14.84,0-22.26,0c-0.1,0-0.2-0.01-0.3-0.02c-0.31-0.02-0.62-0.08-0.91-0.16c-1.56-0.43-2.75-1.34-3.58-2.73
		c-0.48-0.81-0.75-1.69-0.8-2.64c0-0.07-0.03-0.14-0.04-0.21V13.22C7.9,13.15,7.92,13.07,7.93,13c0.02-0.33,0.06-0.65,0.14-0.97
		c0.41-1.82,1.69-3.36,3.4-4.1c0.66-0.28,1.34-0.44,2.05-0.48c0.03,0,0.07-0.01,0.1-0.02H40.6c0.03,0.01,0.07,0.02,0.1,0.02
		c0.18,0.02,0.37,0.03,0.55,0.06c0.59,0.08,1.16,0.25,1.69,0.51c1.33,0.65,2.29,1.65,2.88,3c0.26,0.59,0.42,1.21,0.45,1.86
		C46.29,12.9,46.3,12.94,46.31,12.97"/>
	<path class="st1" d="M26.67,31.15c0.02,0.01,0.04,0.04,0.06,0.04c0.73,0,1.45,0,2.21,0v-2.28h2.3v2.27h6.89V26.6h2.3v-2.29h2.3
		v4.58h-2.28v4.59h2.27v2.3h-2.27v2.29h2.27v2.3h-2.28v2.3h-2.29v-2.29h2.27v-2.3H40c-1.33,0-2.65,0-3.98,0
		c-0.06,0-0.12-0.01-0.18-0.01l0.01,0.01V33.5h-4.58v2.29h2.29v2.29l0.01-0.01h-2.32v-2.29h-2.3l0.01,0.01c0-0.76,0-1.52,0-2.29
		h2.29v-2.29h-2.28v2.3c-0.77,0-1.53-0.01-2.3-0.01l0.01,0.01C26.66,32.72,26.67,31.93,26.67,31.15L26.67,31.15z M38.15,35.78h2.27
		v-2.27h-2.27V35.78z"/>
	<path class="st1" d="M10.59,31.2h11.46v11.46H10.59V31.2z M12.89,40.36h6.86v-6.86h-6.86V40.36z"/>
	<path class="st1" d="M10.58,10.53h11.46v11.46H10.58V10.53z M19.74,12.83h-6.85v6.86h6.85V12.83z"/>
	<path class="st1" d="M42.72,21.99H31.26V10.53h11.46V21.99z M40.42,12.84h-6.86v6.86h6.86V12.84z"/>
	<path class="st1" d="M35.84,38.07v4.6h-9.18v-2.28h-2.29V33.5h2.29l-0.01-0.01v2.29h2.29l-0.01-0.01v2.3h-2.27v2.28h6.88
		c0-0.08,0-0.15,0-0.22c0-0.69,0.01-1.39,0.01-2.08l-0.01,0.01C34.32,38.08,35.08,38.08,35.84,38.07L35.84,38.07z"/>
	<path class="st1" d="M26.64,24.33c-0.57-0.01-1.14-0.01-1.71-0.02c-0.18,0-0.36,0-0.56,0v-4.6h2.27v-2.29h-2.27v-6.89h4.56v2.28
		h-2.27v2.3h2.26v6.9h-2.28c0,0.7,0,1.38,0,2.06C26.66,24.16,26.64,24.24,26.64,24.33L26.64,24.33z"/>
	<path class="st1" d="M26.67,31.14c-0.05,0.02-0.1,0.05-0.15,0.05c-0.69,0-1.37,0-2.06,0c-0.03,0-0.05-0.01-0.1-0.02V28.9h-6.89
		v-2.29h-2.28l0.01,0.01c-0.01-0.13-0.02-0.27-0.02-0.4c0-0.62,0-1.25,0-1.89h4.59v2.28h6.89l-0.01-0.01c0,0.96,0.01,1.91,0.01,2.87
		C26.66,30.02,26.67,30.59,26.67,31.14C26.67,31.15,26.67,31.14,26.67,31.14"/>
	<polygon class="st1" points="31.26,24.31 35.83,24.31 35.83,28.88 33.56,28.88 33.56,26.61 31.26,26.61 	"/>
	<path class="st1" d="M15.19,26.61c-0.01,0.48-0.01,0.96-0.02,1.45c0,0.27,0,0.54,0,0.83h-2.3V26.6h-2.29v-2.29h2.29v2.3
		L15.19,26.61L15.19,26.61z"/>
	<path class="st1" d="M26.64,24.33c0.02-0.01,0.05-0.02,0.08-0.02c0.73,0,1.47,0,2.22,0v2.29h-2.29l0.01,0
		C26.65,25.84,26.65,25.08,26.64,24.33L26.64,24.33z"/>
	<rect x="15.19" y="35.8" class="st1" width="2.26" height="2.27"/>
	<rect x="15.18" y="15.13" class="st1" width="2.27" height="2.27"/>
	<rect x="35.85" y="15.13" class="st1" width="2.27" height="2.27"/>
</g>
</svg>
