<?xml version="1.0" standalone="no"?>
<!DOCTYPE svg PUBLIC "-//W3C//DTD SVG 1.1//EN" "http://www.w3.org/Graphics/SVG/1.1/DTD/svg11.dtd" >
<svg xmlns="http://www.w3.org/2000/svg" xmlns:xlink="http://www.w3.org/1999/xlink" version="1.1">
<metadata></metadata>
<defs>
<font id="bubbleboddy_neuelight" horiz-adv-x="1239" >
<font-face units-per-em="2048" ascent="1638" descent="-410" />
<missing-glyph horiz-adv-x="464" />
<glyph horiz-adv-x="0" />
<glyph unicode="&#xd;" horiz-adv-x="464" />
<glyph unicode=" "  horiz-adv-x="464" />
<glyph unicode="&#x09;" horiz-adv-x="464" />
<glyph unicode="&#xa0;" horiz-adv-x="464" />
<glyph unicode="!" horiz-adv-x="400" d="M105 39q0 40 28 66t68 26q39 0 66 -26t27 -66q0 -39 -27 -66t-66 -27q-40 0 -68 27q-28 26 -28 66zM120 385v838q0 49 22.5 75t58.5 26t58.5 -26t22.5 -75v-838q0 -49 -24 -71.5t-57 -22.5t-57 22.5t-24 71.5z" />
<glyph unicode="&#x22;" horiz-adv-x="551" d="M74 1194q0 20 3.5 41.5t12.5 39.5q9 17 24.5 27.5t40.5 10.5q24 0 39.5 -11t24.5 -28t13.5 -38.5t4.5 -40.5l-7 -106l-4 -44t-10 -39q-8 -18 -22.5 -29.5t-38.5 -11.5q-26 0 -40.5 11.5t-21.5 30.5q-7 17 -9.5 39t-3.5 43zM319 1193q0 20 4 41.5t13 39.5q8 17 23.5 28 t40.5 11q24 0 40 -11t25 -28t13 -38.5t4 -40.5l-6 -106l-4 -44t-10 -39q-8 -18 -22.5 -29.5t-39.5 -11.5q-26 0 -40 11t-21 29q-7 17 -9.5 39.5t-4.5 44.5z" />
<glyph unicode="#" horiz-adv-x="1379" d="M27 439q0 34 22 57.5t54 23.5h272l64 290h-239q-33 0 -55 24.5t-22 57.5t22 56.5t55 23.5h276l64 285q8 32 36 49t61 9q15 -4 28.5 -14t21.5 -22q8 -13 11.5 -28.5t-0.5 -30.5l-55 -248h227l66 292q4 15 13.5 27t23.5 19q13 6 29 8t32 -2q15 -4 27.5 -14t20.5 -22 q16 -28 9 -58l-57 -250h232q32 0 54 -23.5t22 -56.5t-22.5 -57.5t-53.5 -24.5h-268l-64 -290h235q32 0 54.5 -23.5t22.5 -57.5q0 -32 -22.5 -56.5t-54.5 -24.5h-271l-70 -309q-8 -32 -37 -46t-61 -6q-33 8 -49 35.5t-8 58.5l60 267h-227l-69 -305q-4 -15 -14 -26.5 t-24 -19.5q-29 -16 -60 -10q-16 4 -29 13.5t-21 23.5q-18 27 -10 57l59 267h-235q-33 0 -54.5 25t-21.5 56zM542 520h227l66 290h-229z" />
<glyph unicode="$" horiz-adv-x="1002" d="M53.5 288q9.5 21 28.5 35q17 12 41 12q18 0 35 -9.5t29 -28.5q13 -30 39 -58t62 -50t80 -35t96 -13q50 0 100.5 14t93.5 41t69.5 65.5t26.5 87.5q0 52 -29.5 90t-76.5 68t-107 54t-124 49q-65 25 -125 54t-107 68t-76 91.5t-29 122.5q0 75 31.5 138.5t87.5 109.5 q85 73 205 91v67q0 16 7 30t18 25q23 23 56 23q37 0 60 -25.5t23 -61.5v-59q76 -14 140 -48q49 -27 88 -61.5t69 -77.5q5 -8 9 -17t4 -18q1 -43 -23 -63q-11 -10 -25 -14.5t-27 -5.5q-24 -2 -38.5 7t-35.5 32q-30 32 -57 56.5t-57 41.5t-63.5 25.5t-76.5 8.5t-84.5 -13 t-75.5 -36q-34 -25 -54.5 -59.5t-20.5 -77.5q0 -32 12.5 -58t34.5 -48q22 -23 50 -40t59 -32q28 -13 57 -25.5t59 -26.5q61 -27 119 -54.5t111 -59.5q53 -33 93 -71t64 -86q24 -49 24 -107q0 -83 -38 -150t-101 -116q-46 -36 -100 -59t-116 -34v-86q0 -32 -24.5 -54.5 t-56.5 -22.5q-16 0 -30.5 6t-25.5 17q-11 10 -17.5 24.5t-6.5 29.5v81q-67 8 -121 27.5t-97 47.5q-53 35 -87 78t-48 89q-10 33 -0.5 54z" />
<glyph unicode="%" horiz-adv-x="1291" d="M44 1025q0 59 22 111t60 91t89 60.5t110 21.5t110.5 -21.5t90.5 -60.5t60.5 -91t21.5 -111q0 -58 -21.5 -109.5t-60.5 -89.5t-90.5 -60t-110.5 -22q-58 0 -109.5 22t-89.5 60t-60 89.5t-22 109.5zM166 1025q0 -71 45 -116q43 -45 114 -45q35 0 64.5 12t50.5 33 q22 22 34 51t12 65q0 35 -12 65t-34 52t-51.5 34t-63.5 12q-35 0 -64.5 -12.5t-49.5 -33.5q-22 -22 -33.5 -52t-11.5 -65zM339 72q0 8 3 19t8 24l9 24l9 22q56 153 107 284.5t102 259.5q49 128 100 259.5t108 282.5q5 17 17.5 29t26.5 17q15 12 40 13q35 -2 54 -24t22 -49 q0 -17 -11 -43q-5 -12 -9.5 -24.5t-8.5 -21.5q-57 -152 -108 -284t-101 -260q-50 -129 -101 -260.5t-108 -283.5q-17 -55 -68 -60q-40 -3 -64 20.5t-27 55.5zM678 286q0 58 22 109.5t60 90.5t89 61t109 22q59 0 111 -22t91 -61t60.5 -90.5t21.5 -109.5q0 -59 -21.5 -110.5 t-60.5 -89.5t-90.5 -60t-111.5 -22q-58 0 -109 22t-89 60t-60 89.5t-22 110.5zM800 286q0 -36 11.5 -66t33.5 -51q43 -45 113 -45q35 0 65 11.5t51 33.5q22 22 34 51.5t12 65.5q0 35 -12 64.5t-34 51.5t-51.5 34.5t-64.5 12.5t-64 -12.5t-49 -34.5q-22 -23 -33.5 -52 t-11.5 -64z" />
<glyph unicode="&#x26;" horiz-adv-x="1094" d="M59 380q-2 37 3 73q12 92 63 162.5t126 113.5q-46 36 -75.5 84t-40.5 110q-4 33 -3 67q3 65 30 121.5t72 99.5t103.5 68t124.5 25q19 0 36.5 -3t30.5 -11t21 -22.5t8 -35.5q0 -24 -11.5 -42t-31.5 -25q-47 -6 -88.5 -18.5t-72.5 -35.5q-32 -23 -50 -56.5t-18 -82.5 q0 -77 51 -126q24 -25 56 -39t69 -14h79h15h72.5t73.5 1h30v202q0 34 22.5 57.5t58.5 23.5q34 0 57.5 -23.5t23.5 -57.5v-202h81q33 0 55 -21.5t22 -55.5q0 -32 -22 -54.5t-55 -22.5h-81v-561q0 -36 -27 -61q-6 -6 -10 -9q-15 -10 -36 -12t-50 -2h-295q-86 0 -159.5 27.5 t-130.5 79.5q-56 52 -89.5 122t-37.5 156zM220 397q0 -50 19 -94t52 -77q33 -34 77 -52.5t94 -18.5h270v485h-270q-50 0 -94 -19.5t-77 -52.5t-52 -77t-19 -94z" />
<glyph unicode="'" horiz-adv-x="320" d="M75 1090v100q0 22 3 43.5t12 40.5q9 17 25 28.5t41 11.5t40 -11.5t24 -28.5q9 -18 13 -40.5t4 -43.5v-100q0 -22 -4 -43.5t-13 -38.5q-9 -18 -24.5 -29.5t-39.5 -11.5q-25 0 -41 11t-25 30q-9 17 -12 38.5t-3 43.5z" />
<glyph unicode="(" horiz-adv-x="590" d="M119 85v817q0 71 24 134t66 114t97 86.5t123 50.5q28 7 58.5 9.5t60.5 -0.5q24 -5 39.5 -25t15.5 -46q0 -35 -23 -59q-11 -11 -26.5 -18t-34.5 -7q-50 0 -93 -19.5t-76 -52.5q-33 -34 -51 -77.5t-18 -92.5v-814q0 -37 10.5 -71t31.5 -63q20 -29 47 -52t60 -36 q13 -4 27 -7t29 -8q31 -7 56.5 -17t43.5 -28q17 -17 17 -43q0 -34 -23.5 -55.5t-57.5 -21.5q-83 0 -156 31t-128 86t-87 128t-32 157z" />
<glyph unicode=")" horiz-adv-x="612" d="M9 -239q0 29 19 54q9 11 24 19t35 10q49 0 93.5 19.5t78.5 52.5t54 77t20 93v814q0 49 -19.5 92.5t-52.5 76.5t-76 52.5t-92 19.5q-17 0 -32.5 7t-26.5 18q-25 25 -25 60q0 27 16 46t40 25q30 3 60 0.5t58 -9.5q66 -15 122.5 -50.5t98.5 -86.5t66 -114.5t24 -134.5v-816 q0 -84 -32 -157t-87 -129q-55 -55 -128.5 -86t-156.5 -31q-33 0 -57 22t-24 56z" />
<glyph unicode="*" horiz-adv-x="863" d="M27 720q4 29 28 44l229 148l-211 140q-12 8 -19.5 20t-9.5 27q-5 30 11 53q17 26 46 32t53 -9l195 -128v217q0 28 20.5 47.5t50.5 19.5q28 0 49 -20t21 -47v-216l192 124q25 14 53.5 8t45.5 -31q15 -27 11 -54q-2 -14 -9.5 -26.5t-19.5 -19.5l-210 -137l225 -147 q24 -16 29.5 -45t-10.5 -54q-8 -12 -20.5 -20t-25.5 -11q-13 -4 -27 -2.5t-27 9.5l-207 135v-236q0 -28 -21.5 -47.5t-48.5 -19.5q-30 0 -50.5 19.5t-20.5 47.5v238l-212 -138q-26 -15 -54.5 -7.5t-44.5 32.5q-15 25 -11 54z" />
<glyph unicode="+" horiz-adv-x="887" d="M96 470q0 26 17.5 44t41.5 18h226v218q0 25 19.5 42t43.5 17q26 0 44.5 -17.5t18.5 -41.5v-218h223q25 0 42.5 -18t17.5 -44q0 -25 -17.5 -44t-42.5 -19h-223v-233q0 -25 -18.5 -42t-44.5 -17q-25 0 -44 17.5t-19 41.5v233h-226q-24 0 -41.5 19t-17.5 44z" />
<glyph unicode="," horiz-adv-x="310" d="M52 -67q-2 14 2 46.5t12 65.5q6 42 33 75q12 14 29.5 23t39.5 9q37 0 63.5 -26t22.5 -72q-11 -47 -30.5 -81.5t-41.5 -58.5t-43 -35.5t-36 -12.5q-18 0 -33.5 16.5t-17.5 50.5z" />
<glyph unicode="-" horiz-adv-x="914" d="M123 453q0 27 17 45t42 18h576q25 0 42 -18.5t17 -44.5q0 -25 -17.5 -44t-41.5 -19h-576q-25 0 -42 19t-17 44z" />
<glyph unicode="." horiz-adv-x="293" d="M53 87q0 39 26.5 66t66.5 27q19 0 37 -7t31 -19q12 -13 19.5 -30.5t7.5 -36.5q0 -40 -28 -66t-67 -26q-40 0 -66.5 26t-26.5 66z" />
<glyph unicode="/" horiz-adv-x="822" d="M68 5q11 22 33 70.5t53 117.5l66 152q36 86 75.5 178t82.5 192l83 192q20 48 39 94t39 90q19 44 36 84t33 78q14 33 48 43q16 11 41 9q17 -2 30.5 -10.5t23.5 -19.5q8 -11 12 -25t4 -27q0 -8 -3.5 -19.5t-8.5 -23.5q-13 -27 -20 -45q-130 -299 -258 -593.5t-257 -593.5 q-12 -28 -35 -41q-12 -7 -26.5 -10t-30.5 1q-19 4 -34 15.5t-23 28.5q-17 33 -3 63z" />
<glyph unicode="0" horiz-adv-x="1117" d="M57 496q0 102 39.5 193t108.5 160t159 108t194 39t195 -39t159 -108t107.5 -160t39.5 -193q0 -104 -39.5 -195t-107.5 -159q-69 -69 -159 -108t-195 -39q-104 0 -194.5 39.5t-158.5 107.5q-69 68 -108.5 159t-39.5 195zM224 496q0 -72 25 -134.5t72 -108.5 q46 -47 106 -74t131 -27t132 27t107 74q46 46 71 108.5t25 134.5q0 71 -25 133t-71 109q-46 46 -107 73.5t-132 27.5t-131 -27.5t-106 -73.5q-46 -47 -71.5 -109t-25.5 -133z" />
<glyph unicode="1" horiz-adv-x="423" d="M14 783q0 30 27 57l98 101q14 14 29.5 28.5t33.5 21.5q26 8 52 2t40 -30t14 -61v-631v-195q0 -34 -23.5 -57.5t-57.5 -23.5q-36 0 -58.5 23.5t-22.5 57.5v383v313q-3 -2 -6.5 -5.5l-7.5 -7.5q-8 -9 -17.5 -17.5t-20.5 -13.5q-10 -6 -21 -6q-25 0 -42 20q-16 19 -17 41z " />
<glyph unicode="2" horiz-adv-x="1039" d="M74 72q0 23 17.5 55t47.5 69t71 76.5t90 78.5q56 46 117.5 86t123.5 74q68 37 111.5 63t70.5 49t37 43.5t10 47.5q0 41 -26 69.5t-65 45.5t-82 24.5t-77 4.5q-47 -3 -93.5 -16.5t-85.5 -33.5t-63.5 -48t-25.5 -60q-7 -22 -25 -34t-39 -13q-20 -1 -38.5 8.5t-26.5 30.5 q-7 24 -5 49.5t10 50.5q17 41 54 78t90 66t121 45t146 16q112 0 188 -23.5t124 -62.5t68.5 -86.5t20.5 -93.5q-2 -61 -28.5 -105t-72.5 -80q-23 -18 -48.5 -35t-55.5 -34q-29 -16 -65 -36.5t-75 -45t-79 -52.5t-77 -58q-74 -61 -132 -132h533q28 0 51 -0.5t41 -9.5 q17 -8 26 -23.5t9 -44.5q0 -44 -32 -62t-84 -18h-667q-18 0 -37.5 4t-35.5 13t-26.5 24t-10.5 36z" />
<glyph unicode="3" horiz-adv-x="956" d="M50 916q0 37 24 60t73 23h196h462q24 0 45.5 -13.5t31.5 -35.5q13 -31 0.5 -60t-37.5 -47l-351 -246q87 -5 161 -41t129 -94q55 -59 86 -136t31 -167q0 -105 -35 -191t-98 -147t-148 -95t-188 -34q-40 0 -83.5 8t-86.5 22t-81 33.5t-66 41.5q-29 22 -46 46t-17 48 q0 27 16.5 47.5t40.5 25.5q12 3 27.5 1t26.5 -9q26 -20 55 -39.5t62 -35.5q33 -15 70 -25t80 -10q71 0 128.5 22.5t98.5 64.5t63 100t22 130q0 71 -24 129t-67 100t-103 64.5t-133 22.5q-14 0 -28 -1t-26 -3q-28 -5 -48 -5q-30 0 -51 17t-21 44q0 20 21.5 46t55.5 55 q35 28 78 57t86 56t80.5 51t62.5 42h-253h-61h-50q-29 -1 -56.5 -1h-54.5q-43 0 -71.5 20t-28.5 59z" />
<glyph unicode="4" horiz-adv-x="995" d="M44 96l261 842q4 15 14.5 27t23.5 19q28 13 60 5q32 -9 49.5 -37t8.5 -60l-229 -736h380v59v42v36v26v13q-1 34 20.5 55.5t54.5 21.5t54.5 -21.5t21.5 -55.5v-117v-59h117q32 0 54 -23.5t22 -56.5q0 -32 -22.5 -56.5t-53.5 -24.5h-115l3 -212q0 -33 -24 -54.5t-57 -21.5 t-57 21.5t-23 54.5l4 212h-490q-23 0 -43 15q-22 14 -32 37.5t-2 48.5z" />
<glyph unicode="5" horiz-adv-x="983" d="M69 941q0 23 14 37.5t47 14.5h450h184q32 0 53.5 -23t21.5 -55q0 -31 -21.5 -54.5t-53.5 -23.5h-287h-243v-231q55 2 107 2.5t108 0.5q102 0 188 -32t149 -90t99 -139.5t36 -183.5q0 -104 -35 -190.5t-96 -147.5q-62 -62 -148.5 -97t-190.5 -35q-124 0 -214.5 41.5 t-136.5 108.5q-15 27 -10 50t24 38q18 15 45 16q11 0 24 -4.5t21 -10.5q82 -73 221 -78q72 -5 132.5 14t107.5 59q46 40 71.5 99.5t25.5 136.5q0 74 -26.5 132.5t-75.5 99.5q-48 40 -112 60.5t-138 16.5q-24 -2 -46.5 -5t-46.5 -6q-46 -6 -95 -6q-25 0 -51 1.5t-47 9.5 q-23 8 -37 22.5t-14 40.5q0 52 -0.5 103t-1.5 103t-1.5 103t-0.5 102z" />
<glyph unicode="6" horiz-adv-x="1083" d="M40 496q0 62 16.5 121.5t40.5 111.5l91 191q13 28 26.5 55t28.5 56q27 55 48 100t35 73q6 11 10 21q2 4 3 7q6 14 17 30t26 27q14 11 33 13.5t42 -8.5t32.5 -27t10.5 -36q0 -20 -7 -42t-17 -41l-100 -208q49 24 101.5 35.5t113.5 9.5q93 -7 175.5 -48.5t143.5 -107.5 t96 -151.5t35 -181.5q0 -104 -39 -195t-107 -159q-69 -69 -159.5 -108t-194.5 -39t-195 39.5t-159 107.5q-69 68 -108 158.5t-39 195.5zM207 496q0 -72 25 -134.5t71 -108.5q46 -47 106.5 -74t131.5 -27t131.5 27t106.5 74q46 46 71.5 108.5t25.5 134.5q0 71 -25.5 133 t-71.5 109q-46 46 -107 73.5t-131 27.5q-71 0 -131.5 -27.5t-106.5 -73.5q-46 -47 -71 -109t-25 -133z" />
<glyph unicode="7" horiz-adv-x="1013" d="M63 915q0 33 22.5 56.5t54.5 23.5h728q8 2 16 0q32 0 54.5 -23.5t22.5 -56.5q0 -14 -6 -28.5t-15 -25.5l-706 -1134q-17 -28 -49 -34q-33 -8 -59 9q-30 17 -38 48.5t8 59.5l638 1025h-594q-33 0 -55 24.5t-22 55.5z" />
<glyph unicode="8" horiz-adv-x="1035" d="M47 464q0 69 20.5 132.5t57.5 118.5q37 54 87 94.5t109 63.5q-72 65 -72 168q0 55 21 104.5t58 86.5q36 37 84.5 58.5t104.5 21.5q55 0 104.5 -21.5t86.5 -58.5t58 -86t21 -105q0 -52 -20.5 -95t-52.5 -74q58 -25 108 -65.5t87 -93.5q36 -53 57 -117t21 -132 q0 -98 -37 -182t-101 -149q-65 -65 -150.5 -101.5t-181.5 -36.5q-98 0 -182.5 37t-149.5 101q-65 65 -101.5 149t-36.5 182zM210 464q0 -65 23.5 -120.5t65.5 -97.5t98 -66t120 -24q65 0 120.5 24t97.5 66t65.5 97.5t23.5 120.5q0 62 -23 117.5t-65 98.5t-98 67t-121 26 q-65 0 -120.5 -23.5t-97.5 -66.5t-65.5 -98.5t-23.5 -120.5zM398 1044q0 -50 32 -85t87 -35q53 0 87 33q16 16 25.5 38.5t9.5 48.5t-9 48.5t-26 40.5q-16 17 -38.5 25.5t-48.5 8.5q-52 0 -84 -34q-16 -17 -25.5 -40t-9.5 -49z" />
<glyph unicode="9" horiz-adv-x="1103" d="M49 494q0 104 39.5 194.5t108.5 159.5q68 68 158 107t195 39q104 0 195 -39.5t159 -106.5q68 -69 107.5 -159.5t39.5 -194.5q0 -65 -17 -125.5t-42 -112.5l-250 -519q-15 -38 -53 -44q-10 -2 -15 -2q-7 0 -17 2q-20 3 -34 14t-22 29q-14 24 -11 48q28 70 60 133 q32 62 66 131q-49 -24 -101.5 -35.5t-113.5 -8.5q-95 7 -176.5 48.5t-143.5 107.5q-61 66 -96.5 151.5t-35.5 182.5zM216 494q0 -72 25 -134.5t71 -108.5q46 -47 106.5 -73.5t131.5 -26.5t131.5 26.5t106.5 73.5q46 46 71.5 108.5t25.5 134.5t-25 134t-72 109 q-46 46 -106.5 73.5t-131.5 27.5t-131.5 -27.5t-106.5 -73.5q-46 -47 -71 -109.5t-25 -133.5z" />
<glyph unicode=":" horiz-adv-x="311" d="M61 88q0 40 28 68q27 27 66 26q19 0 36.5 -7t30.5 -19q12 -13 20 -30.5t8 -37.5q0 -19 -8 -36t-20 -29q-28 -28 -67 -28t-66.5 27t-27.5 66zM61 900q0 40 28 68q27 27 66 26q19 0 36.5 -7t30.5 -19q12 -13 20 -30.5t8 -37.5q0 -19 -8 -36t-20 -29q-28 -28 -67 -28 t-66.5 27t-27.5 66z" />
<glyph unicode=";" horiz-adv-x="328" d="M49.5 -47.5q0.5 12.5 2.5 28.5q2 15 5 32t6 33q7 43 33.5 75t69.5 32q6 -1 21 -6q31 -5 50.5 -30t14.5 -63q-10 -47 -29.5 -81.5t-42.5 -58.5t-44 -35.5t-35 -12.5q-18 0 -33.5 16.5t-17.5 50.5q-1 7 -0.5 19.5zM69 901q0 39 26.5 66t66.5 27q19 0 36.5 -7t30.5 -19 q12 -13 19.5 -30t7.5 -37q0 -40 -27.5 -66t-66.5 -26q-40 0 -66.5 26t-26.5 66z" />
<glyph unicode="&#x3c;" horiz-adv-x="648" d="M57 585q0 28 20 50.5t40 42.5l245 246q7 7 14.5 14t15.5 15q15 16 32 31.5t35 29.5q17 12 34.5 17t35.5 -1q17 -7 31 -20t22 -31q7 -18 3 -34t-13 -31q-9 -14 -20 -27t-24 -25l-23 -22l-278 -254l261 -237q12 -11 25 -23.5t25 -25.5q11 -13 19.5 -27t12.5 -26 q2 -12 -0.5 -22.5t-7.5 -20.5q-7 -15 -20 -26t-28 -16q-29 -18 -64 6q-36 25 -69 60l-30 31l-236 237q-20 20 -39 43t-19 46z" />
<glyph unicode="=" horiz-adv-x="939" d="M78 429q0 46 30.5 63.5t89.5 17.5h544q58 0 88 -18.5t30 -62.5t-29.5 -62.5t-88.5 -18.5h-544q-58 0 -89 18.5t-31 62.5zM78 730q0 46 30.5 63.5t89.5 17.5h544q58 0 88 -18.5t30 -62.5t-29.5 -62.5t-88.5 -18.5h-544q-58 0 -89 17t-31 64z" />
<glyph unicode="&#x3e;" horiz-adv-x="645" d="M66 941q-2 12 1 26q5 33 31 51t58 14q33 -14 67.5 -47t64.5 -61l246 -246q5 -5 9.5 -10t9.5 -11l18 -22t15 -24t6 -26q0 -23 -18.5 -46t-38.5 -43l-236 -237l-25 -26q-14 -14 -29.5 -29t-31.5 -27q-18 -12 -32 -18q-30 -9 -57 2.5t-36 42.5q-10 20 -9 43q3 13 12 26.5 t22 26.5q11 13 24 25.5t25 23.5l261 237l-279 254q-24 20 -47.5 46t-30.5 55z" />
<glyph unicode="?" horiz-adv-x="996" d="M85.5 988.5q-3.5 15.5 1.5 32.5q7 49 41 101.5t89 96.5t128 72.5t163 28.5q77 0 148.5 -29t127.5 -84q56 -54 90.5 -129.5t34.5 -165.5q0 -101 -54 -181t-157 -154l-67 -49q-31 -22 -54 -46t-38 -57q-8 -16 -14 -36.5t-10 -45.5q-3 -18 -10.5 -30.5t-17.5 -19.5 q-9 -7 -18.5 -10t-16.5 -3q-11 0 -24.5 3.5t-25.5 12.5q-11 9 -18 24t-7 40q0 61 13.5 103.5t40.5 75.5t63.5 62t84.5 63q34 24 64.5 50.5t53.5 57.5q24 30 38 62.5t14 67.5q0 62 -21.5 111t-57.5 82t-81 49t-91 16q-87 0 -147 -38.5t-97 -99.5q-11 -20 -21.5 -37t-21.5 -30 q-12 -12 -27 -18.5t-33 -4.5q-15 1 -29 8.5t-24 20.5q-9 12 -12.5 27.5zM352 50q0 40 28 68q12 12 29 19.5t36 7.5t37 -7.5t31 -19.5q12 -13 19.5 -30.5t7.5 -37.5q0 -39 -27 -65q-28 -28 -68 -28q-39 0 -66 27t-27 66z" />
<glyph unicode="@" horiz-adv-x="1518" d="M63 524q0 96 25 184.5t71 164.5q46 77 108.5 140t140.5 109q77 46 165.5 71t184.5 25t184 -25t165 -71t140 -109t109 -140t70.5 -164.5t24.5 -184.5q0 -49 -5 -103t-16 -108q-12 -53 -32 -101t-49 -85q-30 -37 -71 -58.5t-94 -21.5q-55 0 -89 23.5t-54 62.5 q-22 46 -27 106q-51 -52 -118.5 -81.5t-145.5 -29.5q-80 0 -151 30.5t-123 84.5q-53 52 -84 122.5t-31 150.5t31 150t84 124q52 53 123 83.5t151 30.5t148.5 -30.5t119.5 -83.5q8 -8 15 -17.5t16 -18.5q11 17 26.5 27t36.5 10q9 0 14.5 -8t8.5 -20q2 -13 2.5 -28.5 t0.5 -31.5l-1 -273l-1 -94q-1 -89 9 -124t38 -35q39 0 63 34t38 86t19 112t5 115q0 77 -19.5 147t-55.5 132q-36 61 -86 111.5t-112 86.5q-61 36 -130.5 56t-146.5 20q-115 0 -215.5 -43.5t-174.5 -119.5q-75 -76 -118 -176.5t-43 -215.5t43 -214t118 -175t175 -120t215 -44 q35 0 64.5 6.5t53.5 14.5q11 4 21.5 7t18.5 7q17 6 29 6q35 0 47 -18.5t12 -38.5q0 -33 -23 -56t-58 -37q-36 -15 -80 -22.5t-85 -7.5q-145 0 -271 54t-221 149t-149 220.5t-54 270.5zM513 515q0 -49 19 -91t52 -75t74.5 -51.5t91.5 -18.5q49 0 91 18.5t75 51.5t51.5 75.5 t18.5 91.5t-18.5 91.5t-51.5 75.5t-75 51.5t-91 18.5t-91.5 -18.5t-74.5 -51.5q-33 -33 -52 -76t-19 -92z" />
<glyph unicode="A" horiz-adv-x="1136" d="M35 54.5q-3 18.5 3 40.5q5 16 11 32t12 33l25 64l394 996q1 5 1.5 9.5t0.5 9.5q0 7 2 17q1 16 18 31q14 12 59 12q22 0 37.5 -10t28.5 -27q12 -17 21 -38.5t18 -40.5l426 -1078q2 -8 4 -17t3 -18q0 -22 -12.5 -39.5t-34.5 -25.5q-19 -11 -38 -11l-28 6q-16 6 -30 19.5 t-21 33.5l-96 249h-547l-101 -250q-16 -39 -40 -51.5t-52 -7.5q-33 2 -52 30q-9 13 -12 31.5zM335 439h462l-232 590z" />
<glyph unicode="B" horiz-adv-x="1157" d="M124 1267q0 14 12 23q11 9 47 9h513q66 0 124.5 -22.5t104.5 -62.5t73.5 -94.5t33.5 -119.5q1 -14 1 -28q0 -42 -9 -88q-6 -30 -19 -56t-28 -47q-15 -22 -33 -38t-35 -26q28 -12 57 -34.5t55 -52.5q26 -31 45.5 -69.5t28.5 -84.5q5 -29 7 -58t0 -59q-5 -80 -38 -145.5 t-87 -114.5t-124.5 -76.5t-147.5 -27.5h-490q-49 0 -65 27t-16 79v1105q0 13 -4 25l-1 3v2q-2 8 -3.5 15t-1.5 16zM294 146h403q52 0 96.5 19t78.5 52t54 78t20 97t-20 97.5t-54 78.5t-78.5 51.5t-95.5 18.5h-404v-492zM294 776h401q38 0 72.5 15t59.5 40q25 26 40 60.5 t15 73.5t-15 73t-41 60q-26 25 -60 39.5t-72 14.5h-400v-376z" />
<glyph unicode="C" horiz-adv-x="1287" d="M61 645q0 90 23.5 172t66.5 156t102 132.5t132 101.5t156 66t173 23q68 0 129 -10t120 -34q58 -25 111.5 -63t107.5 -94q11 -12 17 -28t6 -37q0 -33 -28 -55q-20 -17 -50 -19h-4q-28 0 -55 25q-77 80 -167.5 117.5t-186.5 37.5q-102 0 -191 -38.5t-156 -106.5 q-68 -68 -106 -156.5t-38 -190.5t38.5 -190.5t106.5 -156.5t155.5 -106t190.5 -38q59 0 112.5 13t100.5 37q46 24 88 56.5t80 72.5q17 13 40.5 16.5t44.5 -8.5q19 -8 32 -25.5t13 -39.5q0 -35 -27 -61q-52 -58 -103.5 -99t-109.5 -68q-58 -28 -124 -41t-147 -13 q-136 0 -254 50.5t-207 140.5q-90 89 -141 207t-51 254z" />
<glyph unicode="D" horiz-adv-x="1249" d="M124 1267q0 14 12 23t50 9h348q90 0 172 -23t156 -66q148 -87 236 -235q43 -74 66 -156.5t23 -172.5t-23 -172.5t-66 -156.5t-102.5 -132t-133.5 -101t-156 -66t-172 -23h-322q-30 0 -51.5 18.5t-27.5 45.5q-1 4 -1.5 8t-0.5 9v1139q0 12 -3 26q-4 12 -4 26zM293 155h241 q101 1 190 39t157 105t106 155t38 192q0 105 -38.5 195.5t-105.5 157.5q-68 68 -157 106.5t-190 39.5h-241v-990z" />
<glyph unicode="E" horiz-adv-x="1088" d="M124 1265q0 15 10 24.5t41 9.5h789q43 0 64.5 -24t21.5 -53q0 -30 -20.5 -54.5t-63.5 -24.5h-672v-419h540q37 0 63 -27q11 -12 16 -29.5t-1 -37.5q-5 -27 -26 -43t-50 -16h-542v-414h662q19 0 37 -5t31 -15t21 -24.5t8 -36.5q0 -39 -28.5 -60t-65.5 -21h-720 q-55 0 -80.5 28.5t-25.5 80.5v1100q-1 7 -2 15t-3 16q-4 13 -4 30z" />
<glyph unicode="F" horiz-adv-x="1077" d="M124 1265q0 15 10 24.5t41 9.5h777q10 0 23.5 -3.5t25.5 -11.5t21 -22.5t9 -35.5q0 -36 -23 -60q-24 -24 -56 -23h-658v-447h518q13 0 27.5 -4.5t25.5 -13.5q11 -10 19 -24.5t8 -33.5t-7 -34.5t-19 -26.5q-26 -23 -54 -22h-518v-453q0 -16 -5 -32t-16 -28 q-10 -13 -25 -21t-34 -8q-39 0 -60 27.5t-21 61.5v1120q-1 7 -2 15t-3 16q-4 13 -4 30z" />
<glyph unicode="G" horiz-adv-x="1333" d="M61 646q0 135 51 253t141 208q89 89 207 140t254 51q81 0 147 -14t124 -42q58 -29 110 -71t105 -98q24 -27 24 -56q0 -27 -16.5 -47.5t-40.5 -26.5q-17 -5 -36 -3t-35 15q-44 41 -85.5 74.5t-87.5 57.5t-97 37.5t-112 13.5q-102 0 -191 -38.5t-156 -106.5 q-68 -68 -106 -156.5t-38 -191.5q0 -104 37 -193.5t102 -156.5q65 -68 152.5 -105t190.5 -37q68 0 130.5 29t113.5 77q39 36 68 79.5t46 90.5h-243q-35 0 -55 21.5t-22 45.5q-1 12 4 25.5t15 23.5t25 16.5t34 6.5h366q30 -2 47.5 -20t17.5 -56v-427q0 -30 -19.5 -49.5 t-49.5 -19.5q-32 0 -50 20.5t-18 52.5v180q-11 -19 -28 -41q-30 -41 -69.5 -79t-88.5 -68q-49 -31 -106 -48.5t-122 -17.5q-136 0 -251.5 50.5t-202.5 140.5q-87 89 -136.5 206.5t-49.5 253.5z" />
<glyph unicode="H" horiz-adv-x="1297" d="M124 1267q0 14 10 23q9 9 47 9q58 0 85 -21t27 -59v-501h722v497q0 12 -3 26q-4 12 -4 26t12 23t50 9q23 0 42.5 -4t33.5 -13q31 -21 31 -63v-1133q0 -39 -22.5 -65t-58.5 -26q-39 0 -60 27.5t-21 63.5v471h-722v-472q0 -34 -20 -62t-61 -28t-61 28t-20 62v1130 q0 12 -3 26q-4 12 -4 26z" />
<glyph unicode="I" horiz-adv-x="416" d="M124 1265q0 15 12 24t50 9q46 0 75.5 -17.5t31.5 -63.5v-1135q0 -15 -5 -31t-16 -28q-10 -12 -25.5 -20t-34.5 -8q-20 0 -35.5 8.5t-25.5 22.5q-10 12 -15 27.5t-5 28.5v1131q0 13 -3 27q-4 11 -4 25z" />
<glyph unicode="J" horiz-adv-x="410" d="M-126 -243q0 34 24 57.5t60 23.5q43 1 76 19.5t55 50.5q22 31 33 73.5t11 91.5l-2 1123q0 17 -1 27t-3 16t-3 11.5t-1 14.5q0 13 11 24q11 9 49 9q56 0 84 -25t28 -89v-1020q0 -102 -17 -190.5t-57 -154.5q-40 -67 -105 -105t-161 -38q-34 0 -57.5 23.5t-23.5 57.5z" />
<glyph unicode="K" horiz-adv-x="1211" d="M124 1269q0 14 12 23q12 10 50 10q52 0 79.5 -26t27.5 -90v-519l707 598q26 22 46.5 28t39.5 1q20 -2 41 -16.5t24 -38.5q3 -11 3 -22q0 -43 -44 -77l-405 -331l430 -672q10 -17 16 -29t8 -21q2 -10 0 -20.5t-5 -22.5q-6 -22 -26 -37t-49 -15q-26 0 -46 13t-44 52 l-408 653l-289 -240l1 -359q0 -52 -19 -84t-62 -32q-46 0 -63.5 31t-17.5 84v1108q0 13 -3 26q-4 11 -4 25z" />
<glyph unicode="L" horiz-adv-x="1105" d="M124 1270q0 15 12 24t50 10q53 0 80 -26t27 -91v-1025h674q13 0 27.5 -5t26.5 -16q11 -10 19 -25t8 -34q0 -39 -25 -60.5t-54 -21.5h-730q-49 1 -78.5 31.5t-29.5 80.5v1107q0 13 -3 26q-4 11 -4 25z" />
<glyph unicode="M" horiz-adv-x="1480" d="M118 1265q0 7 2 13.5t9 11.5q12 9 53 9q18 0 32 -1t26 -4q11 -3 19 -9t17 -16l470 -594l174 220q74 93 123 156.5t79 103.5q14 19 26.5 35t20.5 28l25 32q7 9 11.5 15.5t11.5 13.5q11 12 32 18q5 1 13 1.5t16 0.5q32 0 49.5 -12.5t25.5 -39.5t9 -64.5t1 -89.5v-1017 q0 -34 -20.5 -57.5t-59.5 -23.5q-31 0 -54 20q-11 10 -18.5 25t-7.5 36v955l-381 -489q-14 -17 -32.5 -32.5t-41.5 -15.5q-26 0 -42.5 14t-33.5 34l-384 492v-241v-125.5t1 -124.5v-244v-223q0 -34 -22.5 -57.5t-58.5 -23.5q-34 0 -57.5 23t-23.5 58v171v190v202v203v194 q-1 47 -1 91v86q0 16 -4 26q-4 9 -4 26z" />
<glyph unicode="N" horiz-adv-x="1395" d="M124 1267q0 14 12 23q13 8 50 8q38 0 60 -11.5t45 -35.5l819 -960v920q0 18 -4 28q-4 9 -4 26q0 8 2 14.5t10 10.5q8 5 23 6q7 1 16.5 1.5t23.5 0.5q49 0 71.5 -22t22.5 -61v-1134q0 -35 -21.5 -60.5t-58.5 -25.5q-26 0 -48.5 18t-37.5 35l-813 947v-919q0 -35 -23 -58 t-57 -23q-36 0 -58.5 23.5t-22.5 55.5v1139q0 15 -3 26q-4 9 -4 28z" />
<glyph unicode="O" horiz-adv-x="1427" d="M61 646q0 135 51 253t141 208q89 89 207 140t254 51q135 0 252 -51t208 -140q89 -90 140 -208t51 -253q0 -136 -51 -253.5t-140 -206.5q-90 -90 -207.5 -140.5t-252.5 -50.5q-136 0 -254 50.5t-207 140.5q-90 89 -141 206.5t-51 253.5zM223 645q0 -102 38 -190t106 -156 t156 -106.5t191 -38.5q102 0 190 38.5t156 106.5t105.5 156.5t37.5 190.5t-38 191t-105 156q-68 68 -156 106.5t-190 38.5t-191 -38.5t-156 -106.5q-68 -68 -106 -157t-38 -191z" />
<glyph unicode="P" horiz-adv-x="1087" d="M124 1270q0 15 12 24t50 10h348q108 0 202 -37.5t166 -105.5q71 -68 113 -158.5t42 -198.5t-42 -195t-113 -151q-72 -65 -166.5 -99t-201.5 -34h-241v-249q0 -34 -23.5 -57.5t-57.5 -23.5t-57.5 23.5t-23.5 57.5v1143q0 13 -3 26q-4 12 -4 25zM291 471h243 q75 0 140.5 23.5t116.5 66.5q49 43 77.5 104t28.5 136t-28.5 139.5t-77.5 111.5q-50 47 -116.5 74t-140.5 27h-243v-682z" />
<glyph unicode="Q" horiz-adv-x="1427" d="M61 646q0 135 51 253t141 208q89 89 207 140t254 51q135 0 252 -51t208 -140q89 -90 140 -208t51 -253q0 -126 -44 -235.5t-121 -195.5q-78 -87 -182 -142t-224 -69l-8 -194q-3 -36 -20 -56t-51 -20q-36 0 -53.5 20.5t-19.5 55.5l-8 193q-121 14 -225.5 69t-181.5 142 q-78 86 -122 196t-44 236zM226 646q0 -102 38 -190.5t105 -156.5t154.5 -106.5t190.5 -38.5q102 0 190 38.5t155 106.5t104.5 156.5t37.5 190.5t-38 191t-104 156q-67 68 -155 106.5t-190 38.5t-190.5 -38.5t-154.5 -106.5q-67 -68 -105 -156.5t-38 -190.5z" />
<glyph unicode="R" horiz-adv-x="1104" d="M124 1270q0 15 12 24t50 10h348q108 0 202 -37.5t166 -105.5q71 -68 113 -159t42 -198q0 -108 -42 -195t-113 -151q-28 -25 -56 -43l190 -296q18 -25 15 -57t-32 -53q-29 -20 -60 -14t-52 34l-198 321q-42 -12 -85.5 -18.5t-89.5 -6.5h-241v-249q0 -34 -23.5 -57.5 t-57.5 -23.5t-57.5 23.5t-23.5 57.5v1143q0 13 -3 26q-4 12 -4 25zM291 471h243q75 0 140.5 23.5t116.5 66.5q49 43 77.5 104t28.5 136t-28.5 139.5t-77.5 111.5q-50 47 -116.5 74t-140.5 27h-243v-682z" />
<glyph unicode="S" horiz-adv-x="1003" d="M60 274q1 18 9 33q7 14 21 23.5t37 9.5q19 0 36 -10.5t34 -27.5q14 -29 41 -57t65 -49q37 -23 82.5 -36.5t97.5 -13.5q50 0 101.5 14t94.5 41t69 65t26 87t-28 86t-76 68q-48 30 -108 55.5t-124 51.5q-63 27 -122.5 57.5t-107.5 71.5q-48 40 -77 93t-29 123 q0 75 32.5 137t87.5 107t128 69t156 24q74 0 144.5 -22.5t126.5 -58.5t90.5 -76.5t34.5 -76.5q0 -22 -6 -35.5t-17 -21.5t-25 -11.5t-27 -3.5q-23 -2 -38.5 6.5t-36.5 28.5q-30 32 -58 55.5t-59 39.5q-31 15 -64.5 23t-73.5 8q-41 0 -83 -13t-76 -36q-35 -24 -57 -58 t-22 -77q0 -46 28.5 -81.5t78.5 -64.5q24 -14 51 -27.5t58 -26.5q61 -26 126 -53t126 -59t109.5 -72.5t77.5 -95.5q29 -53 29 -126q0 -83 -38 -150t-102 -116q-65 -49 -147.5 -75t-172.5 -26t-160.5 21.5t-122.5 57.5t-86.5 78.5t-50.5 88.5q-4 16 -3 34z" />
<glyph unicode="T" horiz-adv-x="1117" d="M31 1219q0 32 24 56t63 24h877q39 0 64.5 -20.5t25.5 -59.5q0 -37 -24.5 -59t-63.5 -22h-357l-1 -1062q-1 -34 -22.5 -57.5t-57.5 -23.5t-58 23t-22 58l-1 1062h-360q-37 0 -62 22t-25 59z" />
<glyph unicode="U" horiz-adv-x="1303" d="M98 1265q0 15 13 24q12 9 50 9q23 0 41.5 -5t33.5 -17q31 -26 31 -86v-686q0 -75 27 -139.5t77 -113.5q49 -49 120 -76.5t163 -27.5q87 0 158 28t123 77t80 113.5t28 138.5l-1 709q0 13 -3 27q-4 11 -4 25q0 15 13 24q12 9 50 9q24 0 43 -5t34 -17q14 -12 21.5 -33.5 t7.5 -54.5l1 -682q-1 -109 -40.5 -202.5t-111.5 -164.5q-73 -71 -174 -111.5t-225 -40.5q-126 0 -226.5 40.5t-172.5 110.5q-72 71 -110.5 165t-38.5 203v707q-1 7 -1.5 13.5t-2.5 13.5q-4 11 -4 25z" />
<glyph unicode="V" horiz-adv-x="1080" d="M37 1194q-11 32 1.5 61.5t45.5 41.5q31 12 61 -0.5t42 -44.5l353 -971l352 971q12 32 42 44q16 6 31 7q15 0 31 -6q33 -12 46 -41.5t1 -61.5l-427 -1147q-10 -25 -30.5 -38.5t-45.5 -12.5q-26 -1 -46.5 13t-30.5 38z" />
<glyph unicode="W" horiz-adv-x="1677" d="M37 1194q-11 32 1.5 61.5t45.5 41.5q31 12 61.5 -0.5t41.5 -44.5l353 -985l227 635q10 30 38.5 41.5t56.5 0.5q4 -1 10 -5q22 -10 33 -37l232 -635l352 985q10 26 39 31q11 12 29 16.5t36 -2.5q33 -12 46 -42t1 -61l-427 -1147q-10 -25 -30.5 -38.5t-45.5 -12.5 q-26 -1 -46.5 13t-30.5 38l-223 632l-221 -632q-10 -25 -30.5 -38.5t-45.5 -12.5q-26 -1 -46.5 13t-30.5 38z" />
<glyph unicode="X" horiz-adv-x="1345" d="M44 73q0 32 24 57l494 520l-490 512q-23 23 -23 58q0 33 25 57q24 23 55 23h3q33 -1 55 -25l481 -514l483 514q23 24 56 24.5t58 -22.5q24 -24 24.5 -57.5t-22.5 -57.5l-495 -515l492 -517q24 -24 23 -56q0 -34 -24 -59q-25 -23 -57 -23h-2q-34 1 -55 25l-482 519 l-484 -519q-22 -24 -55.5 -24.5t-57.5 22.5q-26 24 -26 58z" />
<glyph unicode="Y" horiz-adv-x="1213" d="M28.5 1220q-0.5 32 23.5 56q12 12 27.5 17.5t32.5 5.5q15 0 29.5 -6t24.5 -18l443 -560l444 560q10 12 24.5 18t30.5 6q15 0 30.5 -5.5t27.5 -17.5q24 -23 24 -55t-22 -59l-477 -582v-504q0 -34 -23.5 -57.5t-57.5 -23.5q-35 0 -58 23.5t-23 57.5v498l-478 588 q-22 26 -22.5 58z" />
<glyph unicode="Z" horiz-adv-x="1169" d="M67 51q-8 29 3.5 57.5t34.5 60.5q44 58 90 117t95 122q49 61 96.5 123t96.5 124q98 126 194.5 249t186.5 238l-686 -2q-37 0 -60 23.5t-23 55.5q0 31 22 55q11 11 26.5 18t35.5 7h831q22 0 37.5 -7t26.5 -18q23 -22 23 -55q0 -13 -10 -32t-23 -39t-28.5 -40.5 t-27.5 -35.5l-714 -919h745q38 0 60.5 -21t22.5 -56q0 -18 -7 -32.5t-18 -26.5q-26 -23 -57 -22h-887q-30 0 -54.5 11.5t-31.5 44.5z" />
<glyph unicode="[" horiz-adv-x="476" d="M121 -165v1388q0 33 24 54t57 21h186q33 0 57 -22t24 -56q0 -16 -6 -32t-18 -27q-23 -25 -57 -24l-105 3v-1296l105 3q35 0 57 -24q11 -12 17.5 -28t6.5 -32q0 -33 -24 -55t-57 -22h-186q-27 0 -43 14t-24 37q-9 22 -11.5 48t-2.5 50z" />
<glyph unicode="\" horiz-adv-x="835" d="M62 1196q-16 32 0 60q6 22 24 35q27 20 57 18q14 -2 27.5 -9t23.5 -16q6 -6 11 -17t11 -23q2 -6 5 -12t5 -11q2 -6 4 -11.5t4 -10.5q43 -96 89.5 -198.5t95.5 -207.5t95.5 -209.5t92.5 -204.5t87 -193t76 -174q13 -25 8 -52.5t-26 -43.5q-35 -25 -73 -16q-18 4 -34.5 17 t-27.5 36q-68 151 -138.5 308.5t-141.5 318.5q-36 80 -71 158t-69 157q-35 78 -68.5 152.5t-66.5 148.5z" />
<glyph unicode="]" horiz-adv-x="473" d="M2 -237q0 16 6 32.5t18 27.5q25 25 57 24l104 -3v1296l-104 -3q-33 0 -57 24t-24 59t23.5 56.5t57.5 21.5h185q26 0 42.5 -13.5t24.5 -35.5t11 -47.5t3 -49.5v-1317q0 -25 -2.5 -51t-10.5 -47q-9 -23 -25 -37t-43 -14h-185q-16 0 -30.5 6t-25.5 16q-25 21 -25 55z" />
<glyph unicode="^" horiz-adv-x="1019" d="M125 933q4 14 15 29.5t24 30.5q13 14 27 28t26 27l209 209q16 17 37.5 35t48.5 18q20 0 41.5 -16.5t41.5 -36.5l209 -209q13 -13 29 -28.5t30 -33.5q14 -17 23.5 -34t9.5 -31q0 -24 -13.5 -42t-36.5 -25q-23 -8 -38 -7q-26 8 -50 29t-43 42l-205 224l-205 -224 q-19 -20 -43 -41.5t-50 -29.5q-30 -5 -53 11q-26 17 -32 45q-4 11 -2 30z" />
<glyph unicode="_" horiz-adv-x="1078" d="M124 71q0 26 13.5 41.5t33.5 24.5q20 8 44.5 11.5t47.5 3.5h552q23 0 48 -3.5t45 -11.5q20 -9 33 -24.5t13 -41.5q0 -27 -12.5 -43t-33.5 -24q-20 -8 -45 -11t-48 -3h-552q-24 0 -48 3t-44 11t-33.5 24t-13.5 43z" />
<glyph unicode="`" horiz-adv-x="292" d="M34 1248q-5 35 15 59t57 24q19 0 46 -20t52 -44q11 -13 22 -25.5t19 -23.5q15 -23 17 -33q2 -7 3.5 -15t-0.5 -14q-5 -34 -34 -41q-18 -7 -36 -3q-10 1 -36 16.5t-53 36.5q-28 22 -49 45t-23 38z" />
<glyph unicode="a" horiz-adv-x="1189" d="M65 494q0 104 39 194.5t108 159.5q69 68 159 107t194 39t188 -39.5t145 -106.5q8 -8 15.5 -17.5t13.5 -18.5l12 60q6 69 30.5 95t53.5 26q43 0 43 -43v-505v-390q0 -30 -15.5 -46t-40.5 -16q-29 0 -47 17t-24 46l-14 116q-6 -8 -13 -16l-14 -16q-61 -69 -144.5 -108 t-188.5 -39q-104 0 -194 39.5t-159 107.5t-108 158.5t-39 195.5zM229 494q0 -71 26 -134t72 -110t107 -75t131 -28q71 0 132 28t107 75t71.5 110t25.5 134q0 72 -25.5 134.5t-71.5 109.5t-107 74.5t-132 27.5t-131.5 -27.5t-106.5 -74.5t-72 -110t-26 -134z" />
<glyph unicode="b" horiz-adv-x="1186" d="M124 36v1196q0 34 22.5 57.5t58.5 23.5q33 0 57 -23.5t24 -57.5v-403l16 19q63 68 148.5 107t184.5 39q104 0 193 -39t156 -107q67 -69 104 -159.5t37 -194.5t-37 -195t-104 -159q-67 -69 -156 -108t-193 -39t-190 39.5t-147 107.5q-20 22 -34 41l-13 -67 q-3 -35 -11 -57.5t-20 -37.5q-23 -27 -53 -26q-43 0 -43 43zM286 494q0 -71 26.5 -134t72.5 -110t107.5 -75t132.5 -28t131.5 28t106.5 75t72 110t26 134q0 72 -26 134.5t-72 109.5t-107 74.5t-131 27.5q-71 0 -132.5 -27.5t-107.5 -74.5t-72.5 -110t-26.5 -134z" />
<glyph unicode="c" horiz-adv-x="1000" d="M61 494q0 104 39.5 194.5t108.5 159.5q68 68 158.5 107t194.5 39q47 0 96 -7.5t95 -22.5q46 -16 86 -41t70 -58q26 -26 26 -58q0 -19 -8.5 -35t-23.5 -27q-14 -10 -32.5 -12.5t-36.5 5.5q-52 38 -114 64t-132 32q-11 1 -21 1q-61 0 -117 -20q-66 -23 -114 -70 q-50 -46 -80 -110t-30 -141q0 -74 28.5 -138t77.5 -110t114 -71q56 -22 121 -22q10 0 21 1q62 2 121.5 26t105.5 67q14 9 33 12t37 -3q23 -5 38 -25t15 -47q0 -32 -32 -65.5t-84 -61.5q-53 -29 -120.5 -46.5t-139.5 -17.5q-104 0 -195 39.5t-158 107.5q-69 68 -108.5 158.5 t-39.5 195.5z" />
<glyph unicode="d" horiz-adv-x="1186" d="M61 494q0 104 38 194.5t105 159.5q67 68 155 107t193 39q95 0 178.5 -39.5t148.5 -106.5q6 -6 11.5 -13t10.5 -13v410q0 34 24 57.5t57 23.5q36 0 58.5 -23.5t23.5 -57.5v-1196q0 -43 -44 -43q-31 0 -53 26q-11 14 -19.5 37t-11.5 58l-13 70q-8 -11 -17 -22l-18 -22 q-61 -69 -146.5 -108t-189.5 -39t-193 39.5t-155 107.5q-67 68 -105 158.5t-38 195.5zM226 494q0 -71 26 -134t72 -110t107 -75t131 -28q71 0 133 28t108 75t72 110t26 134q0 72 -26 134.5t-72 109.5t-108 74.5t-133 27.5t-131.5 -27.5t-106.5 -74.5t-72 -110t-26 -134z" />
<glyph unicode="e" horiz-adv-x="1126" d="M61 494q0 114 41.5 206t112.5 158q71 67 163 102.5t196 35.5t193.5 -37t156.5 -104t104 -156.5t37 -194.5q0 -18 -3 -30.5t-12 -19.5t-27 -10.5t-48 -3.5h-747q5 -65 33 -119.5t74 -97.5t103.5 -67t124.5 -24q62 0 121.5 22t106.5 65q15 10 36.5 12.5t40.5 -5.5 q18 -8 32 -24.5t14 -41.5q0 -31 -31.5 -60t-83.5 -53t-114 -38t-123 -14q-104 0 -194 39.5t-159 106.5q-69 68 -108.5 158t-39.5 195zM228 555h673q-5 65 -32 120t-70 97q-44 42 -101.5 65t-123.5 23q-68 0 -126.5 -23t-104.5 -65q-47 -42 -77 -97t-38 -120z" />
<glyph unicode="f" horiz-adv-x="693" d="M40 794q0 33 22 53.5t54 20.5h114q1 98 19.5 182t58.5 145q40 63 104 98.5t157 35.5q34 0 57.5 -23.5t23.5 -57.5q0 -27 -15.5 -47t-42.5 -26q-87 -8 -142 -67.5t-58 -171.5v-68h152q32 0 54 -21t22 -53t-22.5 -54t-53.5 -22h-152v-642q0 -31 -22.5 -56t-58.5 -25 q-39 0 -60 27q-20 24 -21 54v642h-114q-32 0 -54 22t-22 54z" />
<glyph unicode="g" horiz-adv-x="1189" d="M62 494q0 104 35 194.5t100 159.5q65 68 150.5 107t190.5 39q72 0 136.5 -21.5t117.5 -53.5q52 -33 90 -72t56 -74q5 113 21 166q17 54 59 54q16 0 25.5 -12.5t14.5 -32.5q5 -19 5.5 -41.5t0.5 -41.5v-783q0 -112 -35.5 -199t-96.5 -148t-142 -93.5t-175 -32.5 q-39 0 -82.5 5.5t-78.5 18.5q-37 13 -61 33.5t-24 49.5q0 34 26 55q12 8 28 11t33 1l73 -15q29 -7 62 -7h15q87 3 148 31t98 83q36 55 50 137q9 56 9 128q0 33 -2 68q-15 -43 -51 -81.5t-85 -68.5q-50 -30 -110.5 -47.5t-124.5 -17.5q-104 0 -190.5 39.5t-150.5 107.5 q-65 68 -100 158.5t-35 195.5zM229 494q0 -71 22.5 -134t65.5 -110t101 -75t130 -28q71 0 134 28t113 75q49 47 76.5 110t27.5 134t-28.5 132.5t-77.5 109.5t-113 76t-132 28q-72 0 -130 -27.5t-101 -74.5t-65.5 -109.5t-22.5 -134.5z" />
<glyph unicode="h" d="M119 76v1145q0 34 22.5 57.5t58.5 23.5q33 0 57 -24t24 -57v-461q14 33 45.5 72.5t77.5 74.5q49 38 114 63.5t141 25.5q101 0 185.5 -39t145.5 -107t95.5 -158.5t34.5 -194.5v-298v-119q0 -33 -21.5 -59t-59.5 -26q-20 0 -35 8t-25 22q-10 13 -15 29.5t-5 32.5v163v246 q0 71 -24 133.5t-67 109.5t-102 74.5t-130 27.5q-74 0 -137.5 -32.5t-112.5 -84.5q-49 -53 -77 -120t-28 -136v-392q0 -34 -24.5 -57.5t-56.5 -23.5q-36 0 -58.5 23.5t-22.5 57.5z" />
<glyph unicode="i" horiz-adv-x="399" d="M103 1248q0 39 27.5 66t66.5 27q19 0 36.5 -7t30.5 -19q12 -13 20 -30t8 -37t-8 -37t-20 -29q-28 -26 -67 -26t-66.5 26t-27.5 66zM119 76v839q0 34 22.5 57.5t58.5 23.5q33 0 57 -23.5t24 -57.5v-839q0 -34 -24.5 -57.5t-56.5 -23.5q-36 0 -58.5 23.5t-22.5 57.5z" />
<glyph unicode="j" horiz-adv-x="400" d="M-139 -279q0 27 15.5 47t42.5 27q89 8 143 67.5t58 171.5v867q0 37 21 66t60 29q19 0 34.5 -8t25.5 -21t15.5 -30.5t5.5 -35.5v-790q0 -101 -18.5 -186.5t-58.5 -148.5q-41 -63 -105.5 -99t-157.5 -36q-33 0 -57 22.5t-24 57.5zM108 1247q0 39 26.5 66.5t66.5 27.5 q19 0 36.5 -7t30.5 -19q12 -13 19.5 -30.5t7.5 -37.5q0 -39 -27.5 -65.5t-66.5 -26.5q-40 0 -66.5 26.5t-26.5 65.5z" />
<glyph unicode="k" horiz-adv-x="1113" d="M119 76v1145q0 34 22.5 57.5t58.5 23.5q33 0 57 -24t24 -57v-748l542 426q31 24 64.5 49t66.5 46q11 5 25 9.5t29 2.5q20 -4 37 -19.5t21 -39.5q3 -17 1 -30t-10 -25q-8 -13 -20 -25.5t-26 -23.5l-26 -20l-245 -192l310 -506q13 -17 16 -36.5t-2 -37.5q-6 -18 -20.5 -32 t-35.5 -18q-14 -6 -27 -4t-25 9q-11 6 -19.5 15t-14.5 17l-308 499q-46 -36 -89.5 -70.5t-84.5 -66.5q-41 -33 -81 -64t-78 -63v-197q0 -34 -24.5 -57.5t-56.5 -23.5q-36 0 -58.5 23.5t-22.5 57.5z" />
<glyph unicode="l" horiz-adv-x="399" d="M119 76v1145q0 34 22.5 57.5t58.5 23.5q33 0 57 -24t24 -57v-1145q0 -34 -24.5 -57.5t-56.5 -23.5q-36 0 -58.5 23.5t-22.5 57.5z" />
<glyph unicode="m" horiz-adv-x="1687" d="M119 76v877q0 43 43 43q32 0 53 -25q11 -14 20 -37.5t11 -57.5l7 -45q24 37 59 71q42 39 100 65.5t135 26.5q112 0 185 -37.5t116 -105.5q15 -23 25 -48q14 27 35 54t49 52q40 36 98 60.5t136 24.5q112 0 184.5 -39t115.5 -107t60.5 -159t17.5 -193v-421q0 -29 -21 -52 q-10 -12 -25.5 -20t-34.5 -8q-35 0 -58 23.5t-23 58.5v434q0 69 -9.5 129t-35.5 104t-69.5 70t-111.5 26q-65 0 -113.5 -26.5t-80.5 -72.5q-27 -39 -42.5 -89t-19.5 -106q1 -11 1 -22.5v-22.5v-426q0 -29 -22 -53q-10 -11 -25.5 -19t-33.5 -8q-35 0 -58 23.5t-23 58.5v434 q0 69 -10 129t-35 104q-26 44 -70 70t-111 26q-65 0 -113.5 -26.5t-80.5 -72.5t-47.5 -106t-15.5 -127v-432q0 -34 -24.5 -57.5t-56.5 -23.5q-36 0 -58.5 23.5t-22.5 57.5z" />
<glyph unicode="n" d="M119 76v877q0 43 43 43q14 0 27.5 -5t25.5 -19q25 -30 31 -96l9 -82q26 35 62 68t82 60q55 33 118.5 52.5t133.5 19.5q104 0 190 -39t148 -107t96.5 -159t34.5 -193v-419q0 -30 -21 -54q-10 -12 -25 -20t-34 -8q-35 0 -58 23.5t-23 58.5v417q0 72 -24 134.5t-67 109.5 t-102 74.5t-130 27.5t-134.5 -28.5t-112.5 -77.5t-78.5 -112t-29.5 -132v-414q0 -34 -24.5 -57.5t-56.5 -23.5q-36 0 -58.5 23.5t-22.5 57.5z" />
<glyph unicode="o" horiz-adv-x="1125" d="M61 496q0 102 39.5 193t108.5 160t159 108t194 39t195 -39t159 -108t107.5 -160t39.5 -193q0 -104 -39.5 -195t-107.5 -159q-69 -69 -159 -108t-195 -39q-104 0 -194 39.5t-159 107.5t-108.5 159t-39.5 195zM226 496q0 -72 26 -135t72 -110t107 -74t131 -27q71 0 132 27 t107 74t71.5 110t25.5 135q0 71 -25.5 133.5t-71.5 109.5t-107 74.5t-132 27.5t-131.5 -27.5t-106.5 -74.5t-72 -109.5t-26 -133.5z" />
<glyph unicode="p" horiz-adv-x="1181" d="M119 -243v1196q0 43 43 43q32 0 53 -25q11 -14 19.5 -37.5t11.5 -57.5l13 -69q17 24 34 42q62 69 147 108t190 39q104 0 193 -39t156 -108t104 -160t37 -193q0 -104 -37 -195t-104 -159q-67 -69 -156 -108t-193 -39q-98 0 -182 39.5t-149 107.5l-18 21v-406 q0 -35 -24.5 -58t-56.5 -23q-36 0 -58.5 23t-22.5 58zM284 496q0 -72 25.5 -135t71.5 -110t107 -74t132 -27t131.5 27t106.5 74t71.5 110t25.5 135q0 71 -25.5 133.5t-71.5 109.5t-107 74.5t-131 27.5q-71 0 -132 -27.5t-107 -74.5t-71.5 -110t-25.5 -133z" />
<glyph unicode="q" horiz-adv-x="1181" d="M61 496q0 102 38 193t105 160t155 108t193 39q104 0 189 -39t147 -108q17 -20 35 -44l13 71q6 69 30.5 94.5t53.5 25.5q43 0 43 -43v-1196q0 -35 -22.5 -58t-58.5 -23q-33 0 -57 23t-24 58v408q-9 -12 -19 -23q-62 -69 -146.5 -108t-183.5 -39q-104 0 -193 39.5 t-155 107.5q-67 68 -105 158.5t-38 195.5zM226 496q0 -72 26 -135t72 -110t107 -74t131 -27q71 0 132 27t107 74t71.5 110t25.5 135q0 71 -25.5 133.5t-71.5 109.5t-107 74.5t-132 27.5t-131.5 -27.5t-106.5 -74.5t-72 -110t-26 -133z" />
<glyph unicode="r" horiz-adv-x="830" d="M119 76v877q0 43 43 43q14 0 27.5 -5t25.5 -19q25 -30 31 -96l8 -76q15 23 38 47.5t53 48.5q37 30 85 55t105 36q27 4 64 4q5 -1 9 -1q43 0 83 -9q40 -10 68 -30.5t28 -55.5q0 -24 -14 -40.5t-34 -24.5q-10 -3 -20 -3q-9 0 -20 1t-25 3q-15 2 -41 3.5t-56 1.5 q-32 -1 -70 -13t-77 -39q-81 -56 -122 -149q-19 -47 -27 -101v-458q0 -34 -24.5 -57.5t-56.5 -23.5q-36 0 -58.5 23.5t-22.5 57.5z" />
<glyph unicode="s" horiz-adv-x="1005" d="M63 255q-3 19 4 36t19 27q12 9 29 11t35 -10q15 -7 41 -36t66.5 -59.5t97.5 -57.5q57 -26 135 -31h15q49 -1 95 5q52 6 93 26q40 17 63.5 47t23.5 74q0 34 -28.5 59t-75.5 45q-24 10 -50.5 20t-56.5 19q-60 18 -122 38t-120 45t-103.5 57.5t-70.5 76.5q-23 38 -23 83v12 q4 52 27 99q23 46 68 81.5t116 58.5q69 23 170 23q61 0 119 -11t109 -32q51 -23 91.5 -58t65.5 -82q8 -22 2 -40.5t-20 -29.5q-15 -11 -35.5 -14t-38.5 6q-10 6 -21.5 14t-22.5 17q-25 18 -55.5 36t-70.5 33q-40 13 -95 16q-15 1 -30 1q-94 0 -152 -28q-67 -32 -67 -104 q0 -40 60 -79t198 -79q71 -20 141.5 -42.5t127.5 -55.5t92 -80t35 -118q0 -77 -38.5 -130t-100.5 -86q-62 -34 -142 -48.5t-163 -14.5q-71 0 -142 17t-133 50q-61 33 -104.5 80.5t-57.5 112.5z" />
<glyph unicode="t" horiz-adv-x="656" d="M31 886q0 35 23 57.5t57 22.5h136v255q0 34 22.5 57.5t58.5 23.5q34 0 57.5 -24t23.5 -57v-255h142q33 0 56.5 -22.5t23.5 -57.5q0 -33 -23 -56q-11 -11 -26 -17t-31 -6h-142v-731q0 -34 -24 -57.5t-57 -23.5q-36 0 -58.5 23.5t-22.5 57.5v731h-136q-34 0 -57 23t-23 56z " />
<glyph unicode="u" d="M119 496v418q0 29 21 56q10 11 25 18.5t34 7.5q35 0 58.5 -24t23.5 -58v-417q0 -71 24 -134t67 -110t101.5 -74.5t129.5 -27.5t135 28.5t113 77.5t78.5 111.5t29.5 131.5v415q0 34 23.5 57.5t56.5 23.5q36 0 58.5 -23.5t22.5 -57.5v-877q0 -43 -43 -43q-31 0 -52 25 q-12 14 -20.5 37t-11.5 59l-9 81q-26 -34 -62 -67.5t-82 -59.5q-55 -33 -119.5 -53.5t-132.5 -20.5q-104 0 -190 39.5t-147 106.5q-62 68 -97 158.5t-35 195.5z" />
<glyph unicode="v" horiz-adv-x="964" d="M35.5 943q9.5 31 42.5 45q31 14 61.5 2.5t45.5 -42.5l295 -707l298 709q6 15 18.5 26t26.5 17q13 4 26 4q19 0 37 -9q30 -12 43 -43q11 -29 -2 -61l-369 -843q-11 -23 -31 -35t-41 -11q-26 -4 -47 9t-33 37l-366 840q-14 31 -4.5 62z" />
<glyph unicode="w" horiz-adv-x="1655" d="M35 907q-4 25 6.5 47.5t37.5 33.5q31 14 61 2.5t46 -42.5l290 -701l278 703q8 20 26 32t39 14q26 2 48.5 -10t35.5 -36l274 -703l293 703q13 32 45 42q14 4 27 4l37 -8q25 -11 36 -32.5t8 -46.5q0 -4 -4 -16q-5 -14 -12.5 -32t-15.5 -39q-8 -23 -15 -36l-328 -745 q-9 -19 -23 -30t-29 -14.5t-31.5 -1.5t-29.5 8q-26 12 -37 39l-271 691l-238 -604q-10 -26 -21.5 -49t-25.5 -41t-29 -30t-32 -14q-26 -4 -47 8t-33 38l-319 743q-14 31 -26 62t-21 61z" />
<glyph unicode="x" horiz-adv-x="1079" d="M32 912q0 4 -1 9q0 29 21 50q10 10 24.5 17t32.5 7q17 -1 35.5 -10.5t39.5 -32.5l8.5 -8.5l9.5 -9.5l20 -21q5 -6 12 -12.5t14 -13.5l291 -292l373 377q6 6 18 13t27 10q15 2 33 -2t34 -20q20 -19 24 -51q1 -5 0 -9q0 -26 -21 -49q-11 -13 -28 -30.5t-37 -35.5 q-19 -19 -40 -37l-37 -34l-245 -231l247 -235q8 -8 16.5 -16t20.5 -19q20 -19 40.5 -38.5t37.5 -35.5l25 -25q15 -14 19 -30t1 -30q-3 -15 -9.5 -27t-11.5 -18q-20 -26 -54 -26q-15 -1 -30 3.5t-28 15.5q-7 7 -15 15.5t-16 17.5l-17.5 17.5t-18.5 19.5l-18.5 18.5 t-17.5 18.5l-34 34l-238 236l-239 -238l-17 -17t-17 -18q-9 -10 -18 -19.5t-18 -17.5q-9 -9 -17 -18t-16 -17l-27 -27t-25 -17q-13 -6 -28.5 -7.5t-31.5 3.5t-28 16.5t-18 24.5q-14 28 -5 58q5 14 16.5 26.5t29.5 30.5q8 8 17 16.5t20 17.5q10 9 19.5 18.5t20.5 19.5l36 34 l244 233l-248 237q-8 8 -17.5 17t-19.5 19q-22 20 -41 38t-32 31l-13 12q-30 30 -34 64z" />
<glyph unicode="y" horiz-adv-x="976" d="M40 941q4 34 42 51q17 8 35 8q16 0 31 -6q35 -12 53 -58l288 -710q33 82 63.5 155.5t56.5 138.5q27 66 49.5 121.5t41.5 102.5t34 83t25 63l22 56q6 13 16.5 25t24.5 20t31.5 9t38.5 -8q11 -5 22 -14.5t18 -24.5q6 -14 6.5 -31.5t-8.5 -37.5l-409 -946 q-23 -53 -46.5 -96.5t-56.5 -75.5q-34 -33 -81.5 -52t-118.5 -22h-4q-34 0 -62 18t-28 61q0 23 11.5 35t31.5 20q10 4 21 7t23 6q25 6 50 16.5t48 27.5q23 16 40 48l55 130l-15 36q-15 36 -40 92l-122 279q-39 89 -83 189.5t-94 213.5q-11 28 -11 55q0 7 1 15z" />
<glyph unicode="z" horiz-adv-x="1086" d="M63 67q-3 14 -3 27q0 19 6 38q12 32 49 67l640 629l-548 -2q-40 0 -67 18t-27 54q0 32 23.5 55t69.5 23h675q22 0 38 -7t27 -19q23 -22 23 -55q0 -13 -3 -26t-14 -28q-10 -16 -29.5 -39t-52.5 -57l-576 -585h632q38 0 62 -18t24 -54q0 -37 -26.5 -57.5t-56.5 -20.5h-779 q-30 0 -54.5 12t-32.5 45z" />
<glyph unicode="{" horiz-adv-x="494" d="M41 503q0 27 15.5 37t34.5 17q18 7 33.5 18.5t15.5 41.5v119v429q0 25 10 50.5t28 47.5q18 20 46 34t64 16h68q22 0 43.5 -3t39.5 -12q17 -8 28.5 -24t11.5 -40q0 -20 -8 -35.5t-20 -24.5q-27 -20 -59 -21h-85q-5 0 -5 -6v-591v-690q0 -7 5 -7h85q31 -1 59 -20 q12 -10 20 -25.5t8 -35.5q0 -25 -11 -40.5t-29 -23.5q-18 -9 -39.5 -11.5t-43.5 -2.5h-68q-36 1 -63.5 15t-46.5 35q-18 22 -28 47.5t-10 49.5v543q0 26 -15 36.5t-34 18.5t-34.5 19t-15.5 39z" />
<glyph unicode="|" horiz-adv-x="400" d="M119 -202v1435q0 33 23 57t57 24q38 0 59.5 -26t21.5 -59v-1430q0 -34 -24 -57.5t-57 -23.5q-43 0 -61.5 24t-18.5 56z" />
<glyph unicode="}" horiz-adv-x="494" d="M15 -222q0 20 8.5 35.5t20.5 25.5q26 19 57 20h85q6 0 7 7v690v591q0 6 -7 6h-85q-14 0 -29.5 5t-27.5 16q-12 9 -20.5 24t-8.5 36q0 25 11.5 40.5t29.5 23.5q17 8 39 11.5t43 3.5h68q37 -2 64.5 -16t45.5 -34q18 -22 28 -47.5t10 -50.5v-519v-29q0 -31 15.5 -42 t33.5 -18t34 -17.5t16 -36.5q0 -18 -7.5 -29t-18.5 -17q-5 -4 -11 -7t-13 -5q-12 -5 -23 -11.5t-19 -15.5q-7 -10 -7 -28v-543q0 -25 -9.5 -50t-28.5 -47q-18 -22 -45.5 -35.5t-64.5 -14.5h-68q-22 0 -43 2.5t-39 11.5q-18 8 -29.5 23.5t-11.5 40.5z" />
<glyph unicode="~" horiz-adv-x="1305" d="M70 473q0 72 26.5 136t72.5 113t108 76.5t136 27.5q75 0 127.5 -23.5t92.5 -60.5t72 -80q33 -45 65 -84q24 -25 56 -40t81 -15q65 0 107.5 39t59.5 98q3 11 6 24t6 27q5 27 15 49.5t25 38.5q15 15 41 15q27 0 45 -15.5t23 -38.5q1 -11 1.5 -22.5t0.5 -22.5t-1.5 -22.5 t-3.5 -22.5q-9 -61 -38.5 -113t-72.5 -91q-44 -39 -99 -61t-117 -22q-75 0 -128 23t-96 60q-42 35 -77 79q-34 43 -63 75t-60 48q-31 15 -73 15q-65 0 -108.5 -39t-62.5 -97q-4 -11 -7.5 -24t-6.5 -26q-6 -27 -15.5 -49.5t-25.5 -36.5t-41 -15q-33 0 -52 22t-19 55z" />
<glyph unicode="&#xa1;" horiz-adv-x="286" d="M61 1002q0 39 28 67q13 12 30 19.5t38 7.5q39 0 66 -27.5t27 -66.5q0 -40 -27 -66t-66 -26q-40 0 -68 26.5t-28 65.5zM76 -181v837q0 49 24 72t57 23t57 -22.5t24 -72.5v-837q0 -49 -22.5 -75.5t-58.5 -26.5t-58.5 26.5t-22.5 75.5z" />
<glyph unicode="&#xa2;" horiz-adv-x="1000" d="M20 494q0 104 39.5 194.5t108.5 159.5q56 56 128 93t155 48v143q0 17 3.5 34.5t11.5 31.5t23 22.5t36 8.5q27 0 48 -17.5t24 -43.5q2 -14 3 -29t1 -30v-120q59 -8 111 -25q46 -16 86.5 -41t69.5 -58q26 -26 26 -58q0 -19 -8.5 -35t-23.5 -27q-14 -10 -32.5 -12.5 t-36.5 5.5q-52 38 -114 64t-132 32q-72 4 -137.5 -19t-114.5 -70q-50 -46 -80 -110t-30 -141q0 -74 28.5 -138t77.5 -110t114 -71t142 -21q62 2 121.5 26t105.5 67q14 9 33.5 12t36.5 -3q23 -5 38 -25t15 -47q0 -32 -31.5 -65.5t-84.5 -61.5q-39 -20 -84.5 -35t-95.5 -23 v-179q0 -30 -23 -51t-53 -21q-31 0 -52.5 21t-21.5 51v178q-83 11 -155 48t-128 94q-69 68 -108.5 158.5t-39.5 195.5z" />
<glyph unicode="&#xa3;" horiz-adv-x="1027" d="M-18 658q0 33 22 54.5t53 21.5h63v129q0 101 18.5 187t59.5 149t105 98.5t157 35.5q33 0 57 -23.5t24 -57.5q0 -27 -16 -46.5t-43 -26.5q-89 -8 -142.5 -67.5t-57.5 -171.5v-206h203q31 0 53.5 -21.5t22.5 -54.5q0 -31 -22.5 -53t-53.5 -22h-203v-427h577q49 0 79 -19 t30 -62q0 -44 -27.5 -62.5t-74.5 -18.5h-639q-49 2 -78 32t-29 79v478h-63q-32 0 -53.5 22.5t-21.5 52.5z" />
<glyph unicode="&#xa4;" horiz-adv-x="1252" d="M308 686q0 52 14.5 99.5t41.5 87.5l-24 24q-6 6 -6 13q-17 24 -9 54q6 30 36 42q18 11 41 9t38 -18l24 -23q41 27 88.5 41.5t99.5 14.5q51 0 98 -14t87 -40l22 22q6 6 12 8q10 8 24.5 10.5t29.5 -0.5q14 -4 25.5 -13.5t17.5 -24.5q11 -18 9.5 -41.5t-18.5 -38.5l-21 -21 q27 -42 42 -90.5t15 -100.5t-14.5 -99t-41.5 -88l22 -22q6 -6 7 -12q16 -22 9 -52q-3 -14 -12.5 -26t-24.5 -18q-18 -11 -41 -9.5t-39 18.5l-21 21q-40 -27 -87 -41.5t-100 -14.5q-52 0 -100 15.5t-90 41.5l-22 -21q-24 -24 -51 -19.5t-45 23.5q-19 18 -23.5 46t19.5 51 l22 23q-27 40 -40.5 86t-13.5 97zM455 686q0 -43 15 -79t42 -64t62 -44t78 -16q41 0 77 16t63 44t42 64t15 79q0 41 -15.5 78.5t-41.5 64.5q-27 28 -63 44.5t-77 16.5q-43 0 -78 -16.5t-62 -44.5t-42 -65t-15 -78z" />
<glyph unicode="&#xa5;" horiz-adv-x="1216" d="M52 1214q0 33 25 58q25 24 57.5 22.5t55.5 -24.5l439 -459l438 459q23 24 56 25t58 -23q24 -24 24 -57.5t-23 -57.5l-399 -416h170q25 0 42.5 -18t17.5 -44q0 -25 -17.5 -44.5t-42.5 -19.5h-242v-137h244q25 0 42.5 -18.5t17.5 -44.5q0 -25 -17.5 -44t-42.5 -19h-244 v-281q0 -34 -23.5 -57.5t-57.5 -23.5q-36 0 -58.5 23.5t-22.5 57.5v281h-250q-25 0 -42 19t-17 44q0 27 17 45t42 18h250v137h-250q-25 0 -42 19.5t-17 44.5q0 26 17 44t42 18h173l-397 416q-23 23 -23 57z" />
<glyph unicode="&#xa6;" horiz-adv-x="397" d="M119 -231v605q0 37 24 59q25 23 56 23q37 0 59 -26t22 -56v-605q0 -22 -8 -38t-20 -25q-12 -10 -26.5 -15t-26.5 -5q-32 0 -56 21.5t-24 61.5zM119 626v594q0 27 8 44.5t20 28.5t26.5 15.5t25.5 4.5t25 -4t26 -16q12 -11 21 -29t9 -44v-594q0 -24 -8 -40t-19 -26 q-12 -10 -26.5 -14.5t-27.5 -4.5q-31 0 -54 19q-27 20 -26 66z" />
<glyph unicode="&#xa7;" horiz-adv-x="1005" d="M60 258q-2 16 3 30.5t14 25.5q18 22 46 24q15 1 29.5 -12.5t32.5 -33.5t42.5 -45.5t60.5 -46.5q36 -23 84 -39t115 -18q58 -2 110.5 4.5t92.5 23.5t63.5 46t23.5 73q0 33 -29 57t-78 44q-25 10 -52.5 19.5t-58.5 18.5q-62 17 -125.5 37.5t-125.5 45.5q-61 24 -107 57 t-73 78t-23 97t28 101q23 46 65.5 83.5t106.5 63.5q-41 18 -76 42q-49 33 -77 78t-24 108q3 46 27.5 90.5t73.5 80.5t122 58t172 22q131 0 228 -43t162 -139q6 -17 3 -32.5t-11 -26.5q-9 -11 -20.5 -18.5t-20.5 -9.5q-18 -8 -44 9.5t-63 42.5q-38 25 -89 48t-118 26 q-53 2 -100.5 -5.5t-82.5 -25.5q-36 -17 -56.5 -42t-20.5 -57q0 -20 13.5 -39.5t45.5 -40.5q32 -20 83 -40t128 -40q71 -19 143 -40t131 -54q58 -33 94 -80.5t36 -118.5q0 -77 -38.5 -130t-101.5 -86q-14 -8 -28.5 -14t-30.5 -12q11 -5 22.5 -11t22.5 -12q58 -34 94.5 -83 t36.5 -119q0 -77 -38.5 -130.5t-100.5 -86.5q-62 -34 -142 -48.5t-163 -14.5q-65 0 -136.5 17t-134.5 51q-62 33 -107.5 80.5t-58.5 111.5zM261 733q0 -22 12 -42t42 -41q8 -5 19 -11t23 -11q22 -6 45.5 -13t47.5 -12q13 -3 24 -5t23 -3q58 -3 114 1.5t100 19.5t73 42t34 70 q4 43 -24 72.5t-77 53.5q-5 3 -11.5 5.5t-12.5 4.5q-10 3 -20.5 6t-22.5 8q-37 10 -68.5 16t-64.5 5q-56 0 -103 -14.5t-81 -38.5t-53 -53t-19 -60zM283 655.5q-1 -0.5 1 -1.5q1 0 1.5 0.5t1.5 0.5q-3 1 -4 0.5z" />
<glyph unicode="&#xa8;" horiz-adv-x="656" d="M56 1398q0 36 24 60.5t60 24.5q35 0 60 -24.5t25 -60.5t-25 -60t-60 -24q-36 0 -60 24t-24 60zM371 1398q0 36 24 60.5t59 24.5q36 0 60.5 -24.5t24.5 -60.5t-25 -60t-60 -24t-59 24t-24 60z" />
<glyph unicode="&#xa9;" horiz-adv-x="1417" d="M50 646q0 90 23.5 173t67.5 156q43 73 103 132t134 102t156.5 66t173.5 23q90 0 173 -23t156 -66q74 -43 133.5 -102t103.5 -132q43 -73 66.5 -156t23.5 -173q0 -136 -51.5 -253.5t-142.5 -206.5q-90 -90 -208.5 -140.5t-253.5 -50.5q-136 0 -254.5 50.5t-208.5 140.5 q-90 89 -142.5 206.5t-52.5 253.5zM163 645q0 -112 43.5 -208t118.5 -170q74 -74 172.5 -116t210.5 -42t210 42.5t173 115.5q74 74 117 171.5t43 208.5q0 112 -43.5 208.5t-116.5 170.5q-75 74 -173.5 115.5t-209.5 41.5q-112 0 -211 -42t-172 -116q-75 -74 -118.5 -171 t-43.5 -209zM294 646q0 87 32 162.5t89 131.5q56 55 131 88t162 33q86 0 158.5 -27.5t140.5 -100.5q13 -13 13 -36q0 -9 -4.5 -21t-14.5 -20q-14 -11 -35.5 -11.5t-36.5 13.5q-49 52 -105.5 75t-117.5 23q-65 0 -120.5 -24t-97.5 -67t-66 -98.5t-24 -120.5t24 -119.5 t66 -97.5t97.5 -67t120.5 -24q77 0 134.5 30.5t104.5 81.5q9 8 28 11t35 -7q25 -15 24 -43q0 -19 -14 -37q-34 -36 -67 -62t-70 -44q-37 -17 -79 -25.5t-94 -8.5q-87 0 -162 32.5t-131 88.5q-56 55 -88.5 130t-32.5 161z" />
<glyph unicode="&#xaa;" horiz-adv-x="1143" d="M76 488q0 104 39.5 195t107.5 160q69 68 159 107t195 39q104 0 187.5 -39.5t144.5 -106.5q8 -8 15.5 -17.5t13.5 -18.5l12 60q6 69 30.5 95t53.5 26q43 0 43 -43v-505v-390q0 -30 -15 -46t-41 -16q-29 0 -47 17t-24 46l-14 116q-6 -8 -13 -16l-14 -16 q-61 -69 -144.5 -108t-187.5 -39t-194.5 39.5t-159.5 107.5t-108 158.5t-39 194.5zM241 488q0 -71 25.5 -133.5t71.5 -109.5t107 -75t132 -28t131.5 28t106.5 75t71.5 110t25.5 133q0 72 -25.5 135t-71.5 110t-107 74.5t-131 27.5q-71 0 -132 -27.5t-107 -74.5t-71.5 -110 t-25.5 -135z" />
<glyph unicode="&#xab;" horiz-adv-x="1137" d="M31 493q0 14 6 27.5t15 25.5t21 23l21 23l338 338q14 13 37 28t47 22q25 6 48.5 2t39.5 -28q12 -15 10.5 -34t-10.5 -37t-23.5 -35.5t-28.5 -30.5l-352 -321l363 -337q19 -17 31 -40t13 -46q0 -24 -11.5 -43t-37.5 -28q-13 -9 -29 -6t-31 12q-15 8 -29 20.5t-25 21.5 l-350 347q-24 22 -43.5 47t-19.5 49zM465 493q0 29 21 53t42 46l338 338q13 13 36 28t47 22q25 6 48.5 2t39.5 -28q12 -15 11 -34t-11 -37q-9 -18 -23.5 -35.5t-28.5 -30.5l-352 -321l364 -337q19 -17 30.5 -40t12.5 -46q0 -24 -11 -43t-37 -28q-14 -9 -30 -6t-31 12 q-15 8 -29 20.5t-23 21.5l-351 347q-24 22 -43.5 47t-19.5 49z" />
<glyph unicode="&#xad;" horiz-adv-x="925" d="M54 618q0 38 29.5 59.5t88.5 21.5h579q55 0 83 -24q24 -23 24 -57q0 -32 -24.5 -56t-82.5 -24h-579q-58 0 -88 22t-30 58z" />
<glyph unicode="&#xae;" horiz-adv-x="1446" d="M50 646q0 90 23.5 173t67.5 156q43 73 103 132t134 102t156.5 66t173.5 23q90 0 173 -23t156 -66q74 -43 133.5 -102t103.5 -132q43 -73 66.5 -156t23.5 -173q0 -136 -51.5 -253.5t-142.5 -206.5q-90 -90 -208.5 -140.5t-253.5 -50.5q-136 0 -254.5 50.5t-208.5 140.5 q-90 89 -142.5 206.5t-52.5 253.5zM178 645q0 -109 42 -203.5t115 -165.5q73 -72 168.5 -113t204.5 -41q72 0 138.5 19t126.5 54q58 34 106.5 82t83.5 106t54.5 124t19.5 140q0 72 -19.5 138.5t-54.5 124.5t-83.5 106t-106.5 82q-59 34 -126.5 52.5t-138.5 18.5 q-109 0 -204.5 -41.5t-168.5 -111.5q-73 -72 -115 -167t-42 -204zM556 423v486v28q0 34 13 51q8 9 22 9q33 0 49 -38q16 -37 16 -122q22 50 71 92t111 59q53 8 91 -4q12 -2 26 -5.5t26 -9.5q11 -7 19 -17.5t8 -25.5q0 -18 -12 -30.5t-26 -16.5q-15 -2 -22.5 -2.5t-13.5 -0.5 q-8 0 -13 1h-24q-14 0 -28 -0.5t-32 -5.5q-33 -9 -62.5 -34t-50.5 -62q-22 -37 -34 -84t-12 -100v-86q-1 -22 -1 -43.5v-42.5q0 -25 -1 -52.5t-6 -51.5q-6 -25 -18.5 -40.5t-35.5 -15.5q-24 0 -36.5 17t-17.5 41q-5 25 -5.5 53.5t-0.5 52.5z" />
<glyph unicode="&#xaf;" horiz-adv-x="944" d="M123 447q0 27 17 45.5t42 18.5h576q25 0 42 -18.5t17 -45.5q0 -25 -17.5 -43.5t-41.5 -18.5h-576q-25 0 -42 19t-17 43z" />
<glyph unicode="&#xb0;" horiz-adv-x="514" d="M92 1037q0 32 12.5 60t32.5 50q20 20 48.5 32.5t60.5 12.5t60 -12.5t49 -32.5q22 -22 34 -50t12 -60t-12 -60t-34 -48q-22 -22 -49.5 -34t-59.5 -12t-60 12t-49 34q-20 20 -32.5 48t-12.5 60zM183 1037q0 -28 18.5 -46.5t45.5 -18.5t44.5 19t17.5 46t-18 46.5t-44 19.5 q-27 0 -45.5 -19.5t-18.5 -46.5z" />
<glyph unicode="&#xb1;" horiz-adv-x="919" d="M123 63q0 27 17.5 45.5t41.5 18.5h576q25 0 42 -18.5t17 -45.5q0 -25 -17.5 -44t-41.5 -19h-576q-25 0 -42 19.5t-17 43.5zM123 620q0 27 17.5 45t41.5 18h226v217q0 24 19 41t44 17q27 0 45.5 -17t18.5 -41v-217h223q25 0 42 -18.5t17 -44.5q0 -25 -17.5 -44t-41.5 -19 h-223v-232q0 -25 -18.5 -42.5t-45.5 -17.5q-25 0 -44 17.5t-19 42.5v232h-226q-25 0 -42 19t-17 44z" />
<glyph unicode="&#xb2;" horiz-adv-x="632" d="M68.5 519.5q-0.5 11.5 2.5 27.5q7 28 34 56.5t64 56.5q18 14 37.5 27.5t40.5 28.5q41 28 75 53t58 47q23 22 22 40q0 16 -12 27t-31 17t-41 8t-40 -1q-15 -2 -31.5 -7.5t-28.5 -13.5q-13 -8 -22 -18.5t-9 -22.5q-4 -17 -18.5 -28t-32.5 -9q-10 1 -21.5 9.5t-16.5 18.5 q-6 11 -5.5 30t4.5 32q8 23 26.5 43.5t46.5 35.5q27 15 60.5 24t72.5 9q56 0 97.5 -12t69.5 -32t41.5 -46.5t13.5 -53.5q-1 -28 -22 -55.5t-51 -53.5q-16 -13 -33.5 -26t-34.5 -25q-37 -26 -68 -48t-55 -41q-24 -18 -27 -30h238q31 0 51 -11.5t20 -41.5q0 -23 -16.5 -37 t-42.5 -14h-334q-30 0 -47.5 4.5t-25.5 12.5t-8.5 19.5z" />
<glyph unicode="&#xb3;" horiz-adv-x="408" d="M14 971q0 16 12.5 30.5t32.5 14.5h62l186 -1q11 0 21 -7t16 -16q6 -10 6.5 -20.5t-6.5 -19.5l-23 -23q-4 -5 -10 -10t-13 -10l-69 -49q-17 -12 -16 -13q62 -8 102 -55q18 -24 29.5 -54t11.5 -64q0 -43 -13.5 -77t-38.5 -58q-26 -25 -60 -38.5t-75 -13.5q-24 0 -50.5 7 t-48.5 18q-23 11 -38 25.5t-15 29.5q-1 17 14 33t29 18q4 1 12.5 -0.5t13.5 -3.5q17 -13 37.5 -24.5t47.5 -11.5q44 0 70 26t26 72q0 43 -27 70t-73 27q-13 0 -19 -1q-10 -2 -15 -2q-15 0 -26.5 4.5t-19.5 11.5q-8 6 -11.5 14.5t-3.5 14.5q0 22 13 37.5t32 29.5 q9 6 18.5 11.5t20.5 10.5q20 11 32 21h-78h-50q-19 0 -32.5 13t-13.5 33z" />
<glyph unicode="&#xb4;" horiz-adv-x="693" d="M30 1156q-3 12 2 29q1 8 18.5 32t41.5 50q24 25 50 44.5t46 19.5q37 0 57.5 -24t15.5 -59q-2 -15 -23.5 -38t-48.5 -45q-28 -22 -53 -37t-36 -16q-18 -4 -37 3q-29 7 -33 41z" />
<glyph unicode="&#xb5;" horiz-adv-x="1229" d="M119 -223v1145q0 34 22.5 57t58.5 23q33 0 57 -23.5t24 -56.5v-415q0 -71 29.5 -133t78.5 -111t112.5 -77t134.5 -28t130 27t102 74t67 110t24 135v276v121q0 18 5 36.5t14 33.5q9 14 24.5 22.5t36.5 8.5q19 0 35 -8t26 -20q20 -27 20 -66v-155v-251q0 -104 -34 -194.5 t-97 -157.5q-62 -68 -147.5 -107.5t-190.5 -39.5q-71 0 -132.5 21.5t-110.5 53.5q-49 31 -81.5 67t-45.5 68v-436q0 -34 -24.5 -57.5t-56.5 -23.5q-36 0 -58.5 23.5t-22.5 57.5z" />
<glyph unicode="&#xb6;" horiz-adv-x="1234" d="M60 929q0 80 31 147.5t84 117.5q53 49 123.5 77.5t150.5 28.5h226h410q38 0 64.5 -21.5t26.5 -58.5t-25 -59t-64 -22h-37l-1 -1063q0 -34 -21.5 -57.5t-57.5 -23.5t-58 23t-22 58l-1 1063h-173v-752v-316q0 -32 -24 -54t-57 -22t-56.5 22t-23.5 54v501h-106 q-80 0 -150.5 26.5t-123.5 73.5t-84 112t-31 145z" />
<glyph unicode="&#xb7;" horiz-adv-x="280" d="M45 595q0 40 28 68q27 27 65 26q19 0 37 -7t31 -19q12 -13 19.5 -31t7.5 -37t-7.5 -36t-19.5 -30q-13 -12 -30.5 -19t-37.5 -7q-39 0 -66 26.5t-27 65.5z" />
<glyph unicode="&#xb8;" horiz-adv-x="466" d="M-2.5 -270.5q1.5 13.5 8.5 24.5q13 24 46 24q24 0 34.5 -14t18.5 -31t18 -31.5t34 -14.5q23 0 40 13.5t16 41.5q0 18 -9 29.5t-22 20.5q-7 4 -13.5 7.5t-14.5 7.5q-15 7 -28.5 17t-22.5 24q-9 13 -9 36l-1 144h25h16t18 1h33h24v-26v-38v-18t1 -16q0 -15 2 -21t13 -11 q43 -19 74 -63q30 -46 29 -112q-6 -63 -52 -106q-22 -20 -50 -32t-61 -13q-32 -2 -60.5 8t-50.5 29q-23 18 -37 42t-18 52q-3 12 -1.5 25.5z" />
<glyph unicode="&#xb9;" horiz-adv-x="333" d="M55 866q2 12 14.5 28t19.5 24l49 51q7 7 15 13.5t17 10.5q6 2 14 4.5t15 1.5q18 -2 32 -13.5t14 -37.5v-407q0 -5 -2 -12.5t-7 -15.5t-15.5 -13.5t-25.5 -5.5q-25 0 -39 17q-13 14 -14 31v153v150q-8 -6 -17 -16q-10 -10 -23 -10q-29 0 -39 16t-8 31z" />
<glyph unicode="&#xba;" horiz-adv-x="908" d="M51 81q0 36 27 58.5t64 22.5h629q36 0 60.5 -23t24.5 -58t-22.5 -58t-62.5 -23h-629q-35 0 -61 22q-13 10 -21.5 24.5t-8.5 34.5zM55 674q0 83 31 155t86 127t127.5 86t155.5 31t156 -30.5t127 -86.5q54 -55 85 -127t31 -155t-30.5 -155.5t-85.5 -127.5q-54 -55 -127 -86 t-156 -31t-155.5 31t-127.5 86t-86 127.5t-31 155.5zM207 675q0 -52 19.5 -98.5t53.5 -79.5q34 -35 78 -54.5t97 -19.5q52 0 97 19.5t79 54.5q34 34 53 80t19 98t-19 97.5t-53 79.5t-79 53.5t-97 19.5t-97 -19.5t-78 -53.5q-34 -34 -53.5 -79.5t-19.5 -97.5z" />
<glyph unicode="&#xbb;" horiz-adv-x="1137" d="M74.5 920q-1.5 19 10.5 34q16 24 39.5 28t48.5 -2q25 -7 47.5 -22t36.5 -28l338 -338l21 -23q24 -24 36 -49q6 -13 6 -27q0 -24 -20 -49t-43 -47l-350 -347q-10 -9 -24 -21.5t-30 -20.5q-15 -9 -31 -12t-29 6q-27 9 -38 28t-10 43q0 24 11 46t32 40l363 337l-352 321 q-14 13 -28.5 30t-23.5 36q-9 18 -10.5 37zM507.5 920q-1.5 19 10.5 34q16 24 40.5 28t48.5 -2q25 -7 47 -22t36 -28l338 -338l22 -23q24 -24 35 -49q6 -13 7 -27q0 -24 -20 -49t-44 -47l-350 -347q-10 -9 -24 -21.5t-29 -20.5q-15 -9 -31.5 -12t-29.5 6q-26 9 -37.5 28 t-10.5 43q0 24 11.5 46t31.5 40l364 337l-353 321q-14 13 -28.5 30t-23.5 36q-9 18 -10.5 37z" />
<glyph unicode="&#xbf;" horiz-adv-x="1060" d="M147 86q0 101 54.5 181t156.5 155l68 48q31 22 54 47t39 57q14 31 23 81q3 18 10.5 30.5t16.5 20.5q9 7 19 10t17 3q11 0 24.5 -3.5t24.5 -13.5q11 -9 18.5 -24t7.5 -40q0 -61 -13.5 -103t-39.5 -75q-27 -33 -64.5 -62t-84.5 -63q-34 -24 -64.5 -51t-54.5 -57 q-24 -31 -37.5 -63.5t-13.5 -67.5q0 -62 22 -110t58 -81t80.5 -50t90.5 -17q87 0 147 38.5t97 99.5q11 20 21.5 37.5t22.5 29.5q11 12 26 19t33 5q15 -1 29 -9t23 -20t13 -27.5t-1 -33.5q-7 -49 -40.5 -101t-88.5 -96t-128.5 -73t-163.5 -29q-77 0 -148.5 30t-128.5 84 q-56 54 -90.5 129t-34.5 165zM517 948q0 39 28 67q27 27 66 26q39 0 66.5 -27t27.5 -66q0 -40 -27 -66q-13 -13 -30 -21t-37 -8q-19 0 -36.5 7.5t-29.5 21.5q-28 26 -28 66z" />
<glyph unicode="&#xc0;" horiz-adv-x="1136" d="M35 54.5q-3 18.5 3 40.5q5 16 11 32t12 33l25 64l394 996q1 5 1.5 9.5t0.5 9.5q0 7 2 17q1 16 18 31q14 12 59 12q22 0 37.5 -10t28.5 -27q12 -17 21 -38.5t18 -40.5l426 -1078q2 -8 4 -17t3 -18q0 -22 -12.5 -39.5t-34.5 -25.5q-33 -19 -66 -5q-16 6 -30 19.5t-21 33.5 l-96 249h-547l-101 -250q-16 -39 -40 -51.5t-52 -7.5q-33 2 -52 30q-9 13 -12 31.5zM335 439h462l-232 590zM368 1543q-5 35 15 59t57 24q19 0 46 -20t52 -44q11 -13 21.5 -25.5t19.5 -24.5q15 -23 17 -32q2 -7 3.5 -15t-0.5 -14q-5 -34 -34 -41q-18 -7 -37 -3 q-10 1 -35.5 16.5t-52.5 36.5q-28 22 -49 45t-23 38z" />
<glyph unicode="&#xc1;" horiz-adv-x="1136" d="M35 54.5q-3 18.5 3 40.5q5 16 11 32t12 33l25 64l394 996q1 5 1.5 9.5t0.5 9.5q0 7 2 17q1 16 18 31q14 12 59 12q22 0 37.5 -10t28.5 -27q12 -17 21 -38.5t18 -40.5l426 -1078q2 -8 4 -17t3 -18q0 -22 -12.5 -39.5t-34.5 -25.5q-33 -19 -66 -5q-16 6 -30 19.5t-21 33.5 l-96 249h-547l-101 -250q-16 -39 -40 -51.5t-52 -7.5q-33 2 -52 30q-9 13 -12 31.5zM335 439h462l-232 590zM507 1451q-3 12 2 29q1 8 18.5 32t41.5 50q24 25 50.5 44.5t46.5 19.5q37 0 57 -24t15 -59q-2 -15 -23.5 -38t-47.5 -45q-28 -22 -53.5 -37t-35.5 -16q-18 -4 -37 3 q-29 7 -34 41z" />
<glyph unicode="&#xc2;" horiz-adv-x="1136" d="M35 54.5q-3 18.5 3 40.5q5 16 11 32t12 33l25 64l394 996q1 5 1.5 9.5t0.5 9.5q0 7 2 17q1 16 18 31q14 12 59 12q22 0 37.5 -10t28.5 -27q12 -17 21 -38.5t18 -40.5l426 -1078q2 -8 4 -17t3 -18q0 -22 -12.5 -39.5t-34.5 -25.5q-33 -19 -66 -5q-16 6 -30 19.5t-21 33.5 l-96 249h-547l-101 -250q-16 -39 -40 -51.5t-52 -7.5q-33 2 -52 30q-9 13 -12 31.5zM325.5 1414.5q-1.5 16.5 4.5 31.5t18 29.5t24 26.5l145 140q17 18 40.5 20t41.5 -12l171 -167q23 -23 28 -50t-16 -49q-23 -23 -52 -15t-57 38l-112 112l-109 -111q-30 -30 -58.5 -38.5 t-52.5 14.5q-14 14 -15.5 30.5zM335 439h462l-232 590z" />
<glyph unicode="&#xc3;" horiz-adv-x="1136" d="M35 54.5q-3 18.5 3 40.5q5 16 11 32t12 33l25 64l394 996q1 5 1.5 9.5t0.5 9.5q0 7 2 17q1 16 18 31q14 12 59 12q22 0 37.5 -10t28.5 -27q12 -17 21 -38.5t18 -40.5l426 -1078q2 -8 4 -17t3 -18q0 -22 -12.5 -39.5t-34.5 -25.5q-33 -19 -66 -5q-16 6 -30 19.5t-21 33.5 l-96 249h-547l-101 -250q-16 -39 -40 -51.5t-52 -7.5q-33 2 -52 30q-9 13 -12 31.5zM298 1519q2 7 4.5 13.5t5.5 11.5q26 47 66 71q17 12 41 18q20 6 43 6q34 0 57 -8.5t39 -20.5q16 -13 29 -29q12 -15 24.5 -28t27.5 -21q14 -9 36 -9q12 0 21.5 5t20.5 13q5 4 10 9t11 12 q11 10 29 23q10 10 28 10q17 0 30 -10t18 -29q4 -18 -10 -44q-26 -50 -66 -78t-98 -28q-30 0 -50.5 8.5t-35.5 22.5q-15 11 -29 27q-12 15 -25.5 28t-28.5 22q-16 8 -37 9q-27 0 -42 -10.5t-26 -24.5t-21.5 -26t-25.5 -13q-9 -2 -22.5 2t-19.5 15q-13 23 -4 53zM335 439h462 l-232 590z" />
<glyph unicode="&#xc4;" horiz-adv-x="1136" d="M35 54.5q-3 18.5 3 40.5q5 16 11 32t12 33l25 64l394 996q1 5 1.5 9.5t0.5 9.5q0 7 2 17q1 16 18 31q14 12 59 12q22 0 37.5 -10t28.5 -27q12 -17 21 -38.5t18 -40.5l426 -1078q2 -8 4 -17t3 -18q0 -22 -12.5 -39.5t-34.5 -25.5q-33 -19 -66 -5q-16 6 -30 19.5t-21 33.5 l-96 249h-547l-101 -250q-16 -39 -40 -51.5t-52 -7.5q-33 2 -52 30q-9 13 -12 31.5zM323 1481q0 36 24 60.5t60 24.5q35 0 60 -24.5t25 -60.5t-25.5 -60t-59.5 -24q-36 0 -60 24t-24 60zM335 439h462l-232 590zM637 1481q0 36 24 60.5t59 24.5q36 0 60.5 -24.5t24.5 -60.5 t-24.5 -60t-60.5 -24q-35 0 -59 24t-24 60z" />
<glyph unicode="&#xc5;" horiz-adv-x="1136" d="M35 54.5q-3 18.5 3 40.5q5 16 11 32t12 33l25 64l394 996q1 5 1.5 9.5t0.5 9.5q0 7 2 17q1 16 18 31q14 12 59 12q22 0 37.5 -10t28.5 -27q12 -17 21 -38.5t18 -40.5l426 -1078q2 -8 4 -17t3 -18q0 -22 -12.5 -39.5t-34.5 -25.5q-33 -19 -66 -5q-16 6 -30 19.5t-21 33.5 l-96 249h-547l-101 -250q-16 -39 -40 -51.5t-52 -7.5q-33 2 -52 30q-9 13 -12 31.5zM335 439h462l-232 590zM412 1566q0 32 12 60t33 49q20 20 48.5 32.5t59.5 12.5q32 0 60 -12t50 -33q22 -22 34 -50t12 -59q0 -32 -12.5 -60t-33.5 -49q-22 -22 -50 -34t-60 -12t-60 12.5 t-48 33.5q-20 20 -32.5 48.5t-12.5 60.5zM503 1566q0 -28 18.5 -47t44.5 -19q27 0 45 19t18 47q0 27 -18 46t-45 19t-45 -19t-18 -46z" />
<glyph unicode="&#xc6;" horiz-adv-x="1671" d="M14.5 70.5q2.5 17.5 15.5 42.5q2 4 4.5 8t4.5 9l15 28q5 8 11.5 20t14.5 28l44 81q13 26 29.5 56.5t36.5 68.5l97 178q56 105 130.5 243.5t172.5 320.5q7 13 12.5 26t10.5 26q10 27 23.5 48.5t33.5 35.5q19 14 49 15h601q25 0 46.5 -4.5t39.5 -10.5q29 -10 41 -33.5 t7 -47.5q-5 -25 -25.5 -43t-56.5 -18h-549q1 -4 2 -7.5t2 -7.5l3 -16l94 -385h347h100q39 0 64 -26q11 -12 16 -30t0 -38q-6 -28 -27 -43t-51 -15h-113h-297l101 -418h470q37 0 66 -19t29 -62t-30 -62t-70 -19h-513q-29 0 -47.5 9t-31.5 31q-13 20 -24 54.5t-23 84.5l-5 23 q-2 10 -5 20.5t-6 22.5q-3 14 -6.5 29.5t-8.5 32.5h-551q-43 -78 -70.5 -126t-44.5 -78q-18 -31 -27 -44q-9 -15 -17 -27t-20 -21q-29 -22 -59 -15q-16 1 -31 12q-6 4 -13 12t-10 21q-4 12 -1.5 29.5zM373 444h457l-142 584z" />
<glyph unicode="&#xc7;" horiz-adv-x="1287" d="M61 645q0 90 23.5 172t66.5 156t102 132.5t132 101.5t156 66t173 23q68 0 129 -10t120 -34q58 -25 111.5 -63t107.5 -94q11 -12 17 -28t6 -33q2 -36 -28 -59q-20 -17 -50 -19t-59 25q-77 80 -167.5 117.5t-186.5 37.5q-102 0 -191 -38.5t-156 -106.5q-68 -68 -106 -156.5 t-38 -190.5t38.5 -190.5t106.5 -156.5t155.5 -106t190.5 -38q59 0 112.5 13t100.5 37q46 24 88 56.5t80 72.5q17 13 41 16.5t44 -8.5q19 -8 32 -25.5t13 -39.5q0 -35 -27 -61q-52 -58 -103.5 -99t-109.5 -68q-95 -46 -217 -52v-22v-18t1 -15q0 -15 2 -21.5t13 -11.5 q43 -19 74 -63q30 -46 29 -112q-6 -63 -51 -106q-22 -20 -50.5 -32t-61.5 -13q-32 -2 -60.5 8.5t-50.5 28.5q-23 18 -37 42.5t-18 51.5q-3 12 -1.5 25.5t8.5 24.5q13 24 46 24q24 0 34.5 -14t19.5 -31q8 -17 17.5 -31.5t33.5 -14.5q23 0 40 13.5t16 41.5q0 18 -9 29.5 t-22 20.5q-7 4 -13.5 8t-14.5 8q-15 7 -28.5 16.5t-21.5 24.5q-9 13 -10 35l-1 104q-118 11 -219 59.5t-180 128.5q-90 89 -141 207t-51 254z" />
<glyph unicode="&#xc8;" horiz-adv-x="1088" d="M124 1265q0 15 10 24.5t41 9.5h789q43 0 64.5 -24t21.5 -53q0 -30 -20.5 -54.5t-63.5 -24.5h-672v-419h540q37 0 63 -27q11 -12 16 -29.5t-1 -37.5q-5 -27 -26 -43t-50 -16h-542v-414h662q19 0 37 -5t31 -15t21 -24.5t8 -36.5q0 -39 -28.5 -60t-65.5 -21h-720 q-55 0 -80.5 28.5t-25.5 80.5v1100q-1 7 -2 15t-3 16q-4 13 -4 30zM372 1562q-5 35 15 59t57 24q19 0 46 -20t52 -45q11 -13 21.5 -25.5t19.5 -23.5q15 -23 17 -33q2 -7 3.5 -14.5t-0.5 -14.5q-5 -34 -34 -41q-18 -7 -37 -3q-10 1 -35.5 16.5t-52.5 37.5q-28 22 -49 44.5 t-23 38.5z" />
<glyph unicode="&#xc9;" horiz-adv-x="1088" d="M124 1265q0 15 10 24.5t41 9.5h789q43 0 64.5 -24t21.5 -53q0 -30 -20.5 -54.5t-63.5 -24.5h-672v-419h540q37 0 63 -27q11 -12 16 -29.5t-1 -37.5q-5 -27 -26 -43t-50 -16h-542v-414h662q19 0 37 -5t31 -15t21 -24.5t8 -36.5q0 -39 -28.5 -60t-65.5 -21h-720 q-55 0 -80.5 28.5t-25.5 80.5v1100q-1 7 -2 15t-3 16q-4 13 -4 30zM475 1469q-3 12 2 29q1 8 18.5 32t42.5 50q24 25 50 45t46 20q37 0 57.5 -24.5t15.5 -58.5q-2 -15 -23.5 -38.5t-48.5 -44.5q-28 -22 -53.5 -37.5t-35.5 -16.5q-18 -4 -37 3q-29 7 -34 41z" />
<glyph unicode="&#xca;" horiz-adv-x="1088" d="M124 1265q0 15 10 24.5t41 9.5h789q43 0 64.5 -24t21.5 -53q0 -30 -20.5 -54.5t-63.5 -24.5h-672v-419h540q37 0 63 -27q11 -12 16 -29.5t-1 -37.5q-5 -27 -26 -43t-50 -16h-542v-414h662q19 0 37 -5t31 -15t21 -24.5t8 -36.5q0 -39 -28.5 -60t-65.5 -21h-720 q-55 0 -80.5 28.5t-25.5 80.5v1100q-1 7 -2 15t-3 16q-4 13 -4 30zM324.5 1468q-1.5 16 4.5 31t18 29.5t24 26.5l145 141q17 18 40.5 19.5t41.5 -12.5l171 -167q23 -23 28 -50t-16 -48q-23 -23 -52 -15t-57 37l-112 112l-109 -111q-30 -30 -58.5 -38.5t-52.5 15.5 q-14 14 -15.5 30z" />
<glyph unicode="&#xcb;" horiz-adv-x="1088" d="M124 1265q0 15 10 24.5t41 9.5h789q43 0 64.5 -24t21.5 -53q0 -30 -20.5 -54.5t-63.5 -24.5h-672v-419h540q37 0 63 -27q11 -12 16 -29.5t-1 -37.5q-5 -27 -26 -43t-50 -16h-542v-414h662q19 0 37 -5t31 -15t21 -24.5t8 -36.5q0 -39 -28.5 -60t-65.5 -21h-720 q-55 0 -80.5 28.5t-25.5 80.5v1100q-1 7 -2 15t-3 16q-4 13 -4 30zM328 1512q0 36 24 60.5t60 24.5q35 0 60 -24.5t25 -60.5t-25.5 -60t-59.5 -24q-36 0 -60 24t-24 60zM642 1512q0 36 24 60.5t59 24.5q36 0 60.5 -24.5t24.5 -60.5t-24.5 -60t-60.5 -24q-35 0 -59 24t-24 60 z" />
<glyph unicode="&#xcc;" horiz-adv-x="416" d="M27 1572q-5 35 15 59t57 24q19 0 46 -20t52 -45q11 -13 21.5 -25.5t19.5 -23.5q15 -23 17 -33q2 -7 3.5 -14.5t-0.5 -13.5q-5 -34 -34 -41q-18 -7 -37 -3q-10 1 -35.5 16t-52.5 37q-28 22 -49 44.5t-23 38.5zM124 1265q0 15 12 24t50 9q46 0 75.5 -17.5t31.5 -63.5v-1135 q0 -15 -5 -31t-16 -28q-10 -12 -25.5 -20t-34.5 -8q-20 0 -35.5 8.5t-25.5 22.5q-10 12 -15 27.5t-5 28.5v1131q0 13 -3 27q-4 11 -4 25z" />
<glyph unicode="&#xcd;" horiz-adv-x="416" d="M124 1265q0 15 12 24t50 9q46 0 75.5 -17.5t31.5 -63.5v-1135q0 -15 -5 -31t-16 -28q-10 -12 -25.5 -20t-34.5 -8q-20 0 -35.5 8.5t-25.5 22.5q-10 12 -15 27.5t-5 28.5v1131q0 13 -3 27q-4 11 -4 25zM143 1475q-3 12 2 28q1 8 18.5 32.5t42.5 49.5q24 25 50 45t46 20 q37 0 57.5 -24t15.5 -59q-2 -15 -23.5 -38.5t-48.5 -44.5q-28 -22 -53.5 -37t-35.5 -16q-18 -4 -37 3q-29 7 -34 41z" />
<glyph unicode="&#xce;" horiz-adv-x="416" d="M-36 1465q-2 16 4 31t18 29.5t24 26.5l146 141q17 18 40 19.5t42 -12.5l171 -167q23 -23 27.5 -50t-15.5 -48q-23 -23 -52 -15.5t-58 37.5l-111 112l-110 -111q-30 -30 -58.5 -38.5t-51.5 15.5q-14 14 -16 30zM124 1265q0 15 12 24t50 9q46 0 75.5 -17.5t31.5 -63.5 v-1135q0 -15 -5 -31t-16 -28q-10 -12 -25.5 -20t-34.5 -8q-20 0 -35.5 8.5t-25.5 22.5q-10 12 -15 27.5t-5 28.5v1131q0 13 -3 27q-4 11 -4 25z" />
<glyph unicode="&#xcf;" horiz-adv-x="416" d="M-46 1524q0 36 24 60.5t60 24.5q35 0 60 -24.5t25 -60.5t-25 -60t-60 -24q-36 0 -60 24t-24 60zM124 1265q0 15 12 24t50 9q46 0 75.5 -17.5t31.5 -63.5v-1135q0 -15 -5 -31t-16 -28q-10 -12 -25.5 -20t-34.5 -8q-20 0 -35.5 8.5t-25.5 22.5q-10 12 -15 27.5t-5 28.5 v1131q0 13 -3 27q-4 11 -4 25zM268 1524q0 36 24 60.5t59 24.5q36 0 60.5 -24.5t24.5 -60.5t-24.5 -60t-60.5 -24q-35 0 -59 24t-24 60z" />
<glyph unicode="&#xd0;" horiz-adv-x="1249" d="M124 710q0 35 23.5 58t57.5 23l100 -6l-3 284q-1 25 -2 49.5t-3 48.5q-2 25 -3 49.5t-1 50.5q0 14 12 23t50 9h162q96 0 184.5 -21t166.5 -60q79 -40 143.5 -97t111.5 -131q46 -74 72 -159.5t26 -184.5q0 -90 -23 -172.5t-66 -156.5t-102.5 -132t-133.5 -101t-156.5 -66 t-172.5 -23h-186q-27 0 -47.5 16t-26.5 39q-3 40 -4.5 81t-0.5 84l3 418l-100 -4q-34 0 -57.5 22.5t-23.5 58.5zM458 785l96 6q34 0 57.5 -23t23.5 -58t-23.5 -58t-57.5 -23l-92 4v-478h46h23t23 1q102 0 194 37t161 104q70 67 110 155.5t40 193.5q0 92 -32.5 173.5 t-87.5 146.5q-56 65 -132.5 108t-163.5 58q-24 4 -46.5 5.5t-45.5 1.5q-47 -1 -93 0v-354z" />
<glyph unicode="&#xd1;" horiz-adv-x="1395" d="M124 1267q0 14 12 23q13 8 50 8q38 0 60 -11.5t45 -35.5l819 -960v920q0 18 -4 28q-4 9 -4 26q0 8 2 14.5t10 10.5q8 5 23 6q7 1 16.5 1.5t23.5 0.5q49 0 71.5 -22t22.5 -61v-1134q0 -35 -21.5 -60.5t-58.5 -25.5q-26 0 -48.5 18t-37.5 35l-813 947v-919q0 -35 -23 -58 t-57 -23q-36 0 -58.5 23.5t-22.5 55.5v1139q0 15 -3 26q-4 9 -4 28zM416 1534q2 7 4.5 13.5t5.5 12.5q26 47 66 70q17 12 40 19q20 6 43 6q34 0 57 -9t40 -21q16 -13 28 -29q12 -15 24.5 -28t28.5 -21q14 -9 35 -9q12 0 22 5t20 13q5 4 10.5 9.5l11.5 11.5q11 11 29 24 q10 10 27 10t30 -10.5t18 -28.5q4 -18 -9 -44q-26 -50 -66 -78.5t-99 -28.5q-30 0 -50 9t-36 22q-15 11 -28 28q-12 15 -25.5 28t-29.5 22q-16 8 -36 8q-27 0 -42 -10t-26 -25q-11 -14 -21.5 -26t-25.5 -13q-9 -2 -22.5 2t-19.5 16q-13 23 -4 52z" />
<glyph unicode="&#xd2;" horiz-adv-x="1427" d="M61 646q0 135 51 253t141 208q89 89 207 140t254 51q135 0 252 -51t208 -140q89 -90 140 -208t51 -253q0 -136 -51 -253.5t-140 -206.5q-90 -90 -207.5 -140.5t-252.5 -50.5q-136 0 -254 50.5t-207 140.5q-90 89 -141 206.5t-51 253.5zM223 645q0 -102 38 -190t106 -156 t156 -106.5t191 -38.5q102 0 190 38.5t156 106.5t105.5 156.5t37.5 190.5t-38 191t-105 156q-68 68 -156 106.5t-190 38.5t-191 -38.5t-156 -106.5q-68 -68 -106 -157t-38 -191zM527 1571q-5 35 15.5 59t57.5 24q19 0 46 -20t51 -45q11 -13 22 -25.5t19 -23.5q15 -23 18 -33 q2 -7 3.5 -14.5t-0.5 -13.5q-5 -34 -34 -41q-18 -7 -37 -3q-10 1 -35.5 16t-52.5 37q-28 22 -49.5 44.5t-23.5 38.5z" />
<glyph unicode="&#xd3;" horiz-adv-x="1427" d="M61 646q0 135 51 253t141 208q89 89 207 140t254 51q135 0 252 -51t208 -140q89 -90 140 -208t51 -253q0 -136 -51 -253.5t-140 -206.5q-90 -90 -207.5 -140.5t-252.5 -50.5q-136 0 -254 50.5t-207 140.5q-90 89 -141 206.5t-51 253.5zM223 645q0 -102 38 -190t106 -156 t156 -106.5t191 -38.5q102 0 190 38.5t156 106.5t105.5 156.5t37.5 190.5t-38 191t-105 156q-68 68 -156 106.5t-190 38.5t-191 -38.5t-156 -106.5q-68 -68 -106 -157t-38 -191zM659 1460q-3 12 3 29q1 8 18 32t42 50q24 25 50 44.5t46 19.5q37 0 57.5 -24t15.5 -59 q-2 -15 -23.5 -38t-48.5 -45q-28 -22 -53.5 -37t-35.5 -16q-18 -4 -37 3q-29 7 -34 41z" />
<glyph unicode="&#xd4;" horiz-adv-x="1427" d="M61 646q0 135 51 253t141 208q89 89 207 140t254 51q135 0 252 -51t208 -140q89 -90 140 -208t51 -253q0 -136 -51 -253.5t-140 -206.5q-90 -90 -207.5 -140.5t-252.5 -50.5q-136 0 -254 50.5t-207 140.5q-90 89 -141 206.5t-51 253.5zM223 645q0 -102 38 -190t106 -156 t156 -106.5t191 -38.5q102 0 190 38.5t156 106.5t105.5 156.5t37.5 190.5t-38 191t-105 156q-68 68 -156 106.5t-190 38.5t-191 -38.5t-156 -106.5q-68 -68 -106 -157t-38 -191zM465.5 1445q-1.5 16 4.5 32q6 15 18 29.5t24 26.5l145 140q17 18 40.5 20t41.5 -13l171 -167 q23 -23 28 -49.5t-15 -48.5q-23 -23 -52 -15t-58 38l-112 111l-109 -110q-30 -30 -58.5 -38.5t-52.5 14.5q-14 14 -15.5 30z" />
<glyph unicode="&#xd5;" horiz-adv-x="1427" d="M61 646q0 135 51 253t141 208q89 89 207 140t254 51q135 0 252 -51t208 -140q89 -90 140 -208t51 -253q0 -136 -51 -253.5t-140 -206.5q-90 -90 -207.5 -140.5t-252.5 -50.5q-136 0 -254 50.5t-207 140.5q-90 89 -141 206.5t-51 253.5zM223 645q0 -102 38 -190t106 -156 t156 -106.5t191 -38.5q102 0 190 38.5t156 106.5t105.5 156.5t37.5 190.5t-38 191t-105 156q-68 68 -156 106.5t-190 38.5t-191 -38.5t-156 -106.5q-68 -68 -106 -157t-38 -191zM440 1533q2 7 4.5 13.5t6.5 12.5q26 47 65 70q17 12 41 19q20 6 43 6q34 0 57 -9t39 -21 q16 -13 29 -29q12 -15 24.5 -28t27.5 -21q14 -9 36 -9q12 0 22 5t20 13q5 4 10 9.5t12 11.5q10 10 28 23q10 10 28 11q17 0 30 -10.5t18 -28.5q4 -18 -9 -44q-26 -50 -66.5 -78.5t-98.5 -28.5q-30 0 -50.5 9t-35.5 22q-15 11 -29 28q-12 15 -25.5 28t-28.5 22q-16 8 -37 8 q-27 0 -41.5 -10t-25.5 -25q-11 -14 -21.5 -26t-26.5 -13q-9 -2 -22 2t-20 16q-13 23 -4 52z" />
<glyph unicode="&#xd6;" horiz-adv-x="1427" d="M61 646q0 135 51 253t141 208q89 89 207 140t254 51q135 0 252 -51t208 -140q89 -90 140 -208t51 -253q0 -136 -51 -253.5t-140 -206.5q-90 -90 -207.5 -140.5t-252.5 -50.5q-136 0 -254 50.5t-207 140.5q-90 89 -141 206.5t-51 253.5zM223 645q0 -102 38 -190t106 -156 t156 -106.5t191 -38.5q102 0 190 38.5t156 106.5t105.5 156.5t37.5 190.5t-38 191t-105 156q-68 68 -156 106.5t-190 38.5t-191 -38.5t-156 -106.5q-68 -68 -106 -157t-38 -191zM450 1507q0 36 24 60.5t60 24.5q35 0 59.5 -24.5t24.5 -60.5t-25 -60t-59 -24q-36 0 -60 24 t-24 60zM764 1507q0 36 24 60.5t59 24.5q36 0 60.5 -24.5t24.5 -60.5t-24.5 -60t-60.5 -24q-35 0 -59 24t-24 60z" />
<glyph unicode="&#xd7;" horiz-adv-x="903" d="M199.5 326.5q-1.5 25.5 15.5 44.5l164 164l-160 159q-17 17 -15.5 43t18.5 43q18 18 44 19.5t43 -16.5l160 -158l153 152q17 17 42.5 16t43.5 -19t19.5 -43.5t-15.5 -43.5l-154 -152l158 -158q17 -17 16 -43t-18 -44q-17 -17 -43.5 -19t-43.5 16l-158 157l-165 -163 q-17 -17 -42.5 -16.5t-43.5 19.5q-17 17 -18.5 42.5z" />
<glyph unicode="&#xd8;" horiz-adv-x="1427" d="M61 645q0 90 23.5 172t66.5 156t102 132.5t132 101.5t156 66t173 23q67 0 128 -12.5t120 -36.5l72 126q13 24 32 38t47 14q16 0 32 -6t27 -17t16 -26.5t2 -32.5q-2 -8 -13 -30q-13 -26 -28.5 -55t-29.5 -53q-7 -12 -10 -19t-4 -9l-5 -9q38 -27 74 -63q89 -90 140 -207.5 t51 -252.5q0 -90 -23 -173t-66 -156t-102 -132t-133 -102t-155.5 -66t-171.5 -23q-122 0 -230 42l-69 -121q-14 -26 -33.5 -43t-47.5 -16q-34 0 -59 22.5t-25 52.5q0 7 1.5 16t8.5 23l81 141q-24 17 -46 35.5t-42 38.5q-90 89 -141 207t-51 254zM223 644q0 -102 38 -190.5 t106 -156.5t156 -106t191 -38q102 0 190 38t156 106t105.5 157t37.5 191t-38 191t-105 156q-68 68 -156 106t-190 38t-191 -38.5t-156 -106.5q-68 -68 -106 -156.5t-38 -190.5z" />
<glyph unicode="&#xd9;" horiz-adv-x="1303" d="M98 1265q0 15 13 24q12 9 50 9q23 0 41.5 -5t33.5 -17q31 -26 31 -86v-686q0 -75 27 -139.5t77 -113.5q49 -49 120 -76.5t163 -27.5q87 0 158 28t123 77t80 113.5t28 138.5l-1 709q0 13 -3 27q-4 11 -4 25q0 15 13 24q12 9 50 9q24 0 43 -5t34 -17q14 -12 21.5 -33.5 t7.5 -54.5l1 -682q-1 -109 -40.5 -202.5t-111.5 -164.5q-73 -71 -174 -111.5t-225 -40.5q-126 0 -226.5 40.5t-172.5 110.5q-72 71 -110.5 165t-38.5 203v707q-1 7 -1.5 13.5t-2.5 13.5q-4 11 -4 25zM441 1562q-5 35 15.5 59t57.5 24q19 0 46 -20t51 -45q11 -13 22 -25.5 t19 -23.5q15 -23 18 -33q2 -7 3.5 -14.5t-0.5 -14.5q-5 -34 -34 -41q-18 -7 -37 -3q-10 1 -35.5 16.5t-52.5 37.5q-28 22 -49.5 44.5t-23.5 38.5z" />
<glyph unicode="&#xda;" horiz-adv-x="1303" d="M98 1265q0 15 13 24q12 9 50 9q23 0 41.5 -5t33.5 -17q31 -26 31 -86v-686q0 -75 27 -139.5t77 -113.5q49 -49 120 -76.5t163 -27.5q87 0 158 28t123 77t80 113.5t28 138.5l-1 709q0 13 -3 27q-4 11 -4 25q0 15 13 24q12 9 50 9q24 0 43 -5t34 -17q14 -12 21.5 -33.5 t7.5 -54.5l1 -682q-1 -109 -40.5 -202.5t-111.5 -164.5q-73 -71 -174 -111.5t-225 -40.5q-126 0 -226.5 40.5t-172.5 110.5q-72 71 -110.5 165t-38.5 203v707q-1 7 -1.5 13.5t-2.5 13.5q-4 11 -4 25zM565 1467q-3 12 2 29q1 8 18.5 32t42.5 50q24 25 50 44.5t46 19.5 q37 0 57.5 -24t15.5 -58q-2 -15 -23.5 -38.5t-48.5 -44.5q-28 -22 -53.5 -37.5t-35.5 -16.5q-18 -4 -37 3q-29 7 -34 41z" />
<glyph unicode="&#xdb;" horiz-adv-x="1303" d="M98 1265q0 15 13 24q12 9 50 9q23 0 41.5 -5t33.5 -17q31 -26 31 -86v-686q0 -75 27 -139.5t77 -113.5q49 -49 120 -76.5t163 -27.5q87 0 158 28t123 77t80 113.5t28 138.5l-1 709q0 13 -3 27q-4 11 -4 25q0 15 13 24q12 9 50 9q24 0 43 -5t34 -17q14 -12 21.5 -33.5 t7.5 -54.5l1 -682q-1 -109 -40.5 -202.5t-111.5 -164.5q-73 -71 -174 -111.5t-225 -40.5q-126 0 -226.5 40.5t-172.5 110.5q-72 71 -110.5 165t-38.5 203v707q-1 7 -1.5 13.5t-2.5 13.5q-4 11 -4 25zM410.5 1450q-1.5 16 4.5 32q6 15 18 29.5t24 26.5l145 140q17 18 40.5 20 t41.5 -12l171 -167q23 -23 28 -50t-16 -49q-23 -23 -52 -15t-57 38l-112 111l-109 -110q-30 -30 -58.5 -38.5t-52.5 14.5q-14 14 -15.5 30z" />
<glyph unicode="&#xdc;" horiz-adv-x="1303" d="M98 1265q0 15 13 24q12 9 50 9q23 0 41.5 -5t33.5 -17q31 -26 31 -86v-686q0 -75 27 -139.5t77 -113.5q49 -49 120 -76.5t163 -27.5q87 0 158 28t123 77t80 113.5t28 138.5l-1 709q0 13 -3 27q-4 11 -4 25q0 15 13 24q12 9 50 9q24 0 43 -5t34 -17q14 -12 21.5 -33.5 t7.5 -54.5l1 -682q-1 -109 -40.5 -202.5t-111.5 -164.5q-73 -71 -174 -111.5t-225 -40.5q-126 0 -226.5 40.5t-172.5 110.5q-72 71 -110.5 165t-38.5 203v707q-1 7 -1.5 13.5t-2.5 13.5q-4 11 -4 25zM385 1528q0 36 24 60.5t60 24.5q35 0 60 -24.5t25 -60.5t-25 -60t-60 -24 q-36 0 -60 24t-24 60zM699 1528q0 36 24.5 60.5t58.5 24.5q36 0 60.5 -24.5t24.5 -60.5t-24.5 -60t-60.5 -24q-35 0 -59 24t-24 60z" />
<glyph unicode="&#xdd;" horiz-adv-x="1212" d="M28.5 1220q-0.5 32 23.5 56q12 12 27.5 17.5t32.5 5.5q15 0 29.5 -6t24.5 -18l443 -560l444 560q10 12 24.5 18t30.5 6q15 0 30.5 -5.5t27.5 -17.5q24 -23 24 -55t-22 -59l-477 -582v-504q0 -34 -23.5 -57.5t-57.5 -23.5q-35 0 -58 23.5t-23 57.5v498l-478 588 q-22 26 -22.5 58zM546 1470q-3 12 2 29q1 8 18.5 32t41.5 50q24 25 50 45t47 20q37 0 57 -24.5t15 -58.5q-2 -15 -23.5 -38.5t-47.5 -44.5q-28 -22 -53.5 -37.5t-36.5 -16.5q-18 -3 -36 4q-29 7 -34 40z" />
<glyph unicode="&#xde;" horiz-adv-x="1072" d="M124 1265q0 15 12 24t50 9q46 0 75.5 -17.5t31.5 -63.5v-80h194q108 0 202.5 -37t166.5 -103q71 -66 113 -155t42 -197t-42 -192t-113 -146q-72 -61 -166.5 -93.5t-202.5 -32.5h-194v-61q0 -53 -18.5 -89t-62.5 -36q-23 0 -38 9.5t-24 27.5q-10 17 -14.5 39t-4.5 49v1093 q0 13 -3 27q-4 11 -4 25zM293 328l194 1q75 0 141 21t116 61q49 40 78 97t29 134q0 75 -28.5 137.5t-78.5 108.5t-116 71.5t-141 25.5l-194 1v-658z" />
<glyph unicode="&#xdf;" horiz-adv-x="1035" d="M98 86v822q0 36 6.5 79.5t23.5 88.5t46 86t75 74t108 52.5t148 19.5q71 0 140.5 -24t125.5 -67t92 -101.5t41 -129.5q2 -43 -7.5 -90.5t-42.5 -99.5t-79 -82q44 -20 81.5 -54t64.5 -77t42 -94t15 -103q0 -83 -28.5 -154t-81.5 -123q-52 -53 -123 -83.5t-155 -30.5 q-49 0 -80.5 16.5t-31.5 62.5q0 18 7 29t18 17t24.5 9.5t27.5 6.5q52 6 102 27t88 54q39 33 61.5 77.5t22.5 97.5q0 52 -20.5 97t-54.5 77q-35 33 -80.5 51t-94.5 18t-75 14t-26 54q0 24 13.5 42.5t33.5 23.5q44 3 86.5 14.5t75.5 33.5q33 23 53 58t20 86q0 39 -22 74 t-56 62t-74.5 42.5t-78.5 15.5q-53 0 -102.5 -14.5t-86.5 -44.5q-38 -31 -60.5 -79t-21.5 -119v-202.5t1 -202.5v-407q0 -16 -4.5 -32.5t-13.5 -28.5q-10 -13 -25 -21.5t-37 -8.5t-36.5 8t-24.5 22q-10 12 -15 28.5t-5 32.5z" />
<glyph unicode="&#xe0;" horiz-adv-x="1189" d="M65 494q0 104 39 194.5t108 159.5q69 68 159 107t194 39t188 -39.5t145 -106.5q8 -8 15.5 -17.5t13.5 -18.5l12 60q6 69 30.5 95t53.5 26q43 0 43 -43v-505v-390q0 -30 -15.5 -46t-40.5 -16q-29 0 -47 17t-24 46l-14 116q-6 -8 -13 -16l-14 -16q-61 -69 -144.5 -108 t-188.5 -39q-104 0 -194 39.5t-159 107.5t-108 158.5t-39 195.5zM229 494q0 -71 26 -134t72 -110t107 -75t131 -28q71 0 132 28t107 75t71.5 110t25.5 134q0 72 -25.5 134.5t-71.5 109.5t-107 74.5t-132 27.5t-131.5 -27.5t-106.5 -74.5t-72 -110t-26 -134zM395 1268 q-5 35 15.5 59t57.5 24q19 0 46 -20t51 -45q11 -13 22 -25.5t19 -23.5q15 -23 18 -33q2 -7 3.5 -14.5t-0.5 -13.5q-5 -34 -34 -41q-18 -7 -37 -3q-10 1 -35.5 16t-52.5 37q-28 22 -49.5 44.5t-23.5 38.5z" />
<glyph unicode="&#xe1;" horiz-adv-x="1189" d="M65 494q0 104 39 194.5t108 159.5q69 68 159 107t194 39t188 -39.5t145 -106.5q8 -8 15.5 -17.5t13.5 -18.5l12 60q6 69 30.5 95t53.5 26q43 0 43 -43v-505v-390q0 -30 -15.5 -46t-40.5 -16q-29 0 -47 17t-24 46l-14 116q-6 -8 -13 -16l-14 -16q-61 -69 -144.5 -108 t-188.5 -39q-104 0 -194 39.5t-159 107.5t-108 158.5t-39 195.5zM229 494q0 -71 26 -134t72 -110t107 -75t131 -28q71 0 132 28t107 75t71.5 110t25.5 134q0 72 -25.5 134.5t-71.5 109.5t-107 74.5t-132 27.5t-131.5 -27.5t-106.5 -74.5t-72 -110t-26 -134zM537 1168 q-3 12 2 29q1 8 18 32t42 50q24 25 50 44.5t46 19.5q37 0 57.5 -24t15.5 -58q-2 -15 -23.5 -38.5t-48.5 -44.5q-28 -22 -53.5 -37.5t-35.5 -16.5q-19 -4 -37 3q-29 7 -33 41z" />
<glyph unicode="&#xe2;" horiz-adv-x="1189" d="M65 494q0 104 39 194.5t108 159.5q69 68 159 107t194 39t188 -39.5t145 -106.5q8 -8 15.5 -17.5t13.5 -18.5l12 60q6 69 30.5 95t53.5 26q43 0 43 -43v-505v-390q0 -30 -15.5 -46t-40.5 -16q-29 0 -47 17t-24 46l-14 116q-6 -8 -13 -16l-14 -16q-61 -69 -144.5 -108 t-188.5 -39q-104 0 -194 39.5t-159 107.5t-108 158.5t-39 195.5zM229 494q0 -71 26 -134t72 -110t107 -75t131 -28q71 0 132 28t107 75t71.5 110t25.5 134q0 72 -25.5 134.5t-71.5 109.5t-107 74.5t-132 27.5t-131.5 -27.5t-106.5 -74.5t-72 -110t-26 -134zM345.5 1156 q-1.5 16 4.5 32q6 15 18 29.5t24 26.5l146 140q17 18 40 20t42 -12l171 -167q23 -23 27.5 -50t-15.5 -49q-23 -23 -52 -15t-58 38l-111 112l-110 -111q-30 -30 -58.5 -38.5t-52.5 14.5q-14 14 -15.5 30z" />
<glyph unicode="&#xe3;" horiz-adv-x="1189" d="M65 494q0 104 39 194.5t108 159.5q69 68 159 107t194 39t188 -39.5t145 -106.5q8 -8 15.5 -17.5t13.5 -18.5l12 60q6 69 30.5 95t53.5 26q43 0 43 -43v-505v-390q0 -30 -15.5 -46t-40.5 -16q-29 0 -47 17t-24 46l-14 116q-6 -8 -13 -16l-14 -16q-61 -69 -144.5 -108 t-188.5 -39q-104 0 -194 39.5t-159 107.5t-108 158.5t-39 195.5zM229 494q0 -71 26 -134t72 -110t107 -75t131 -28q71 0 132 28t107 75t71.5 110t25.5 134q0 72 -25.5 134.5t-71.5 109.5t-107 74.5t-132 27.5t-131.5 -27.5t-106.5 -74.5t-72 -110t-26 -134zM315 1233 q2 7 5 13.5t6 11.5q26 47 65 71q17 12 41 19q20 6 43 6q34 0 57 -9t39 -21q16 -13 29 -29q12 -15 24.5 -28t27.5 -21q14 -9 36 -9q12 0 22 5t20 13q5 4 10 9.5t12 11.5q10 10 28 23q10 10 28 11q17 0 30 -10.5t18 -28.5q4 -18 -9 -44q-26 -50 -66.5 -78.5t-98.5 -28.5 q-30 0 -50.5 9t-35.5 22q-15 11 -29 28q-12 15 -25.5 28t-28.5 22q-16 8 -37 8q-27 0 -41.5 -10t-25.5 -25q-11 -14 -22 -26t-26 -13q-9 -2 -22 2t-20 16q-13 23 -4 52z" />
<glyph unicode="&#xe4;" horiz-adv-x="1189" d="M65 494q0 104 39 194.5t108 159.5q69 68 159 107t194 39t188 -39.5t145 -106.5q8 -8 15.5 -17.5t13.5 -18.5l12 60q6 69 30.5 95t53.5 26q43 0 43 -43v-505v-390q0 -30 -15.5 -46t-40.5 -16q-29 0 -47 17t-24 46l-14 116q-6 -8 -13 -16l-14 -16q-61 -69 -144.5 -108 t-188.5 -39q-104 0 -194 39.5t-159 107.5t-108 158.5t-39 195.5zM229 494q0 -71 26 -134t72 -110t107 -75t131 -28q71 0 132 28t107 75t71.5 110t25.5 134q0 72 -25.5 134.5t-71.5 109.5t-107 74.5t-132 27.5t-131.5 -27.5t-106.5 -74.5t-72 -110t-26 -134zM332 1223 q0 36 24 60.5t60 24.5q35 0 60 -25t25 -60q0 -36 -25 -60t-60 -24q-36 0 -60 24t-24 60zM646 1223q0 36 24 60.5t59 24.5q36 0 60.5 -25t24.5 -60q0 -36 -24.5 -60t-60.5 -24q-35 0 -59 24t-24 60z" />
<glyph unicode="&#xe5;" horiz-adv-x="1189" d="M65 494q0 104 39 194.5t108 159.5q69 68 159 107t194 39t188 -39.5t145 -106.5q8 -8 15.5 -17.5t13.5 -18.5l12 60q6 69 30.5 95t53.5 26q43 0 43 -43v-505v-390q0 -30 -15.5 -46t-40.5 -16q-29 0 -47 17t-24 46l-14 116q-6 -8 -13 -16l-14 -16q-61 -69 -144.5 -108 t-188.5 -39q-104 0 -194 39.5t-159 107.5t-108 158.5t-39 195.5zM229 494q0 -71 26 -134t72 -110t107 -75t131 -28q71 0 132 28t107 75t71.5 110t25.5 134q0 72 -25.5 134.5t-71.5 109.5t-107 74.5t-132 27.5t-131.5 -27.5t-106.5 -74.5t-72 -110t-26 -134zM440 1270 q0 32 12.5 60t32.5 49q20 20 48.5 32.5t60.5 12.5t60 -12t49 -33q22 -22 34.5 -49.5t12.5 -59.5t-12.5 -60t-34.5 -49q-22 -22 -49.5 -34t-59.5 -12t-60 12.5t-49 33.5q-20 20 -32.5 48.5t-12.5 60.5zM531 1270q0 -28 18.5 -47t45.5 -19t44.5 19t17.5 47q0 27 -17.5 46 t-44.5 19t-45.5 -19.5t-18.5 -45.5z" />
<glyph unicode="&#xe6;" horiz-adv-x="1952" d="M53 494q0 104 39.5 194.5t108.5 159.5q69 68 159 107t194 39t187.5 -39.5t145.5 -106.5q8 -8 15 -17.5t13 -18.5l13 60q6 69 30.5 95t53.5 26q43 0 43 -43v-121q7 7 13.5 14.5t14.5 14.5q71 67 163 102.5t197 35.5q104 0 193 -37t156 -104t104 -156.5t37 -194.5 q0 -18 -3 -30.5t-12 -19.5t-27 -10.5t-48 -3.5h-746q5 -65 32.5 -119.5t73.5 -97.5t103.5 -67t125.5 -24q62 0 121.5 22t105.5 65q15 10 36.5 12.5t41.5 -5.5q18 -8 32 -24.5t14 -41.5q0 -31 -32 -60t-84 -53t-113.5 -38t-122.5 -14q-104 0 -194.5 39.5t-159.5 106.5 q-6 5 -11.5 11.5t-10.5 12.5v-110q0 -30 -15.5 -46t-41.5 -16q-29 0 -46.5 17t-23.5 46l-15 116q-6 -8 -12.5 -16t-13.5 -16q-61 -69 -145 -108t-188 -39t-194.5 39.5t-158.5 107.5q-69 68 -108.5 158.5t-39.5 195.5zM218 494q0 -71 25.5 -134t71.5 -110t107 -75t132 -28 t132 28t107 75t71.5 110t25.5 134q0 72 -25.5 134.5t-71.5 109.5t-107 74.5t-132 27.5t-132 -27.5t-107 -74.5t-71.5 -110t-25.5 -134zM1097 555h672q-5 65 -32 120t-70 97q-44 42 -101.5 65t-122.5 23q-68 0 -127 -23t-105 -65q-47 -42 -77 -97t-37 -120z" />
<glyph unicode="&#xe7;" horiz-adv-x="1000" d="M61 494q0 104 39.5 194.5t108.5 159.5q68 68 158.5 107t194.5 39q47 0 96 -7.5t95 -22.5q46 -16 86.5 -41t69.5 -58q26 -26 26 -58q0 -19 -8.5 -35t-23.5 -27q-14 -10 -32.5 -12.5t-36.5 5.5q-52 38 -114 64t-132 32q-72 4 -137.5 -19t-114.5 -70q-50 -46 -80 -110 t-30 -141q0 -74 28.5 -138t77.5 -110t114 -71t142 -21q62 2 121.5 26t105.5 67q14 9 33.5 12t36.5 -3q23 -5 38 -25t15 -47q0 -32 -32 -65.5t-84 -61.5q-46 -25 -103 -41.5t-119 -21.5v-1v-18.5t1 -15.5q0 -15 2 -21.5t13 -11.5q43 -19 74 -62q30 -46 29 -113 q-6 -63 -51 -105q-22 -20 -50.5 -32t-61.5 -13q-32 -2 -60.5 8t-50.5 29q-23 18 -37 42t-18 52q-3 12 -1.5 25.5t8.5 24.5q13 24 46 23q24 0 34.5 -13.5t19.5 -31.5q8 -17 17.5 -31.5t33.5 -14.5q23 0 40 14t16 42q0 18 -9 29.5t-22 20.5q-7 4 -13.5 7.5t-14.5 7.5 q-15 7 -28.5 17t-21.5 24q-9 13 -10 36l-1 87q-80 12 -150 49t-125 92q-69 68 -108.5 158.5t-39.5 195.5z" />
<glyph unicode="&#xe8;" horiz-adv-x="1126" d="M61 494q0 114 41.5 206t112.5 158q71 67 163 102.5t196 35.5t193.5 -37t156.5 -104t104 -156.5t37 -194.5q0 -18 -3 -30.5t-12 -19.5t-27 -10.5t-48 -3.5h-747q5 -65 33 -119.5t74 -97.5t103.5 -67t124.5 -24q62 0 121.5 22t106.5 65q15 10 36.5 12.5t40.5 -5.5 q18 -8 32 -24.5t14 -41.5q0 -31 -31.5 -60t-83.5 -53t-114 -38t-123 -14q-104 0 -194 39.5t-159 106.5q-69 68 -108.5 158t-39.5 195zM228 555h673q-5 65 -32 120t-70 97q-44 42 -101.5 65t-123.5 23q-68 0 -126.5 -23t-104.5 -65q-47 -42 -77 -97t-38 -120zM370 1254 q-5 35 15 59t57 24q19 0 46 -20t52 -44q11 -13 21.5 -25.5t19.5 -23.5q15 -23 17 -33q2 -7 3.5 -15t-0.5 -14q-5 -34 -34 -41q-18 -7 -37 -3q-10 1 -35.5 16.5t-52.5 36.5q-28 22 -49 45t-23 38z" />
<glyph unicode="&#xe9;" horiz-adv-x="1126" d="M61 494q0 114 41.5 206t112.5 158q71 67 163 102.5t196 35.5t193.5 -37t156.5 -104t104 -156.5t37 -194.5q0 -18 -3 -30.5t-12 -19.5t-27 -10.5t-48 -3.5h-747q5 -65 33 -119.5t74 -97.5t103.5 -67t124.5 -24q62 0 121.5 22t106.5 65q15 10 36.5 12.5t40.5 -5.5 q18 -8 32 -24.5t14 -41.5q0 -31 -31.5 -60t-83.5 -53t-114 -38t-123 -14q-104 0 -194 39.5t-159 106.5q-69 68 -108.5 158t-39.5 195zM228 555h673q-5 65 -32 120t-70 97q-44 42 -101.5 65t-123.5 23q-68 0 -126.5 -23t-104.5 -65q-47 -42 -77 -97t-38 -120zM529 1176 q-3 12 2 28q1 8 18.5 32.5t42.5 49.5q24 25 50 45t46 20q37 0 57.5 -24t15.5 -59q-2 -15 -23.5 -38.5t-48.5 -44.5q-28 -22 -53.5 -37t-35.5 -16q-18 -4 -37 3q-29 7 -34 41z" />
<glyph unicode="&#xea;" horiz-adv-x="1126" d="M61 494q0 114 41.5 206t112.5 158q71 67 163 102.5t196 35.5t193.5 -37t156.5 -104t104 -156.5t37 -194.5q0 -18 -3 -30.5t-12 -19.5t-27 -10.5t-48 -3.5h-747q5 -65 33 -119.5t74 -97.5t103.5 -67t124.5 -24q62 0 121.5 22t106.5 65q15 10 36.5 12.5t40.5 -5.5 q18 -8 32 -24.5t14 -41.5q0 -31 -31.5 -60t-83.5 -53t-114 -38t-123 -14q-104 0 -194 39.5t-159 106.5q-69 68 -108.5 158t-39.5 195zM228 555h673q-5 65 -32 120t-70 97q-44 42 -101.5 65t-123.5 23q-68 0 -126.5 -23t-104.5 -65q-47 -42 -77 -97t-38 -120zM334.5 1128 q-1.5 16 4.5 31t18 29.5t24 26.5l145 141q17 18 40.5 19.5t41.5 -12.5l171 -167q23 -23 28 -50t-15 -48q-23 -23 -52 -15t-58 37l-112 112l-109 -111q-30 -30 -58.5 -38.5t-52.5 15.5q-14 14 -15.5 30z" />
<glyph unicode="&#xeb;" horiz-adv-x="1126" d="M61 494q0 114 41.5 206t112.5 158q71 67 163 102.5t196 35.5t193.5 -37t156.5 -104t104 -156.5t37 -194.5q0 -18 -3 -30.5t-12 -19.5t-27 -10.5t-48 -3.5h-747q5 -65 33 -119.5t74 -97.5t103.5 -67t124.5 -24q62 0 121.5 22t106.5 65q15 10 36.5 12.5t40.5 -5.5 q18 -8 32 -24.5t14 -41.5q0 -31 -31.5 -60t-83.5 -53t-114 -38t-123 -14q-104 0 -194 39.5t-159 106.5q-69 68 -108.5 158t-39.5 195zM228 555h673q-5 65 -32 120t-70 97q-44 42 -101.5 65t-123.5 23q-68 0 -126.5 -23t-104.5 -65q-47 -42 -77 -97t-38 -120zM315 1200 q0 36 24.5 60.5t59.5 24.5t60 -24.5t25 -60.5t-25 -60t-60 -24q-36 0 -60 24t-24 60zM630 1200q0 36 24 60.5t59 24.5q36 0 60.5 -24.5t24.5 -60.5t-24.5 -60t-60.5 -24q-35 0 -59 24t-24 60z" />
<glyph unicode="&#xec;" horiz-adv-x="399" d="M19 1257q-5 35 15.5 59t57.5 24q19 0 46 -20t51 -44q11 -13 22 -25.5t19 -23.5q15 -23 18 -33q2 -7 3.5 -15t-0.5 -14q-5 -34 -34 -41q-18 -7 -37 -3q-10 1 -35.5 16.5t-52.5 37.5q-28 22 -49 44.5t-24 37.5zM119 76v839q0 34 22.5 57.5t58.5 23.5q33 0 57 -23.5 t24 -57.5v-839q0 -34 -24.5 -57.5t-56.5 -23.5q-36 0 -58.5 23.5t-22.5 57.5z" />
<glyph unicode="&#xed;" horiz-adv-x="399" d="M119 75v839q0 34 22.5 57.5t58.5 23.5q33 0 57 -23.5t24 -57.5v-839q0 -34 -24.5 -57.5t-56.5 -23.5q-36 0 -58.5 23.5t-22.5 57.5zM172 1174q-3 12 2 28q1 8 18.5 32t41.5 50q24 25 50.5 45t46.5 20q37 0 57.5 -24.5t14.5 -58.5q-2 -15 -23.5 -38.5t-47.5 -44.5 q-28 -22 -53.5 -37.5t-35.5 -16.5q-18 -4 -37 4q-29 7 -34 41z" />
<glyph unicode="&#xee;" horiz-adv-x="399" d="M-34 1139q-2 16 4 31t18 30t24 27l146 140q17 18 40 20t42 -13l171 -167q23 -23 27.5 -50t-15.5 -48q-23 -23 -52 -15t-58 38l-111 111l-110 -110q-30 -30 -58.5 -39t-51.5 15q-14 14 -16 30zM119 76v839q0 34 22.5 57.5t58.5 23.5q33 0 57 -23.5t24 -57.5v-839 q0 -34 -24.5 -57.5t-56.5 -23.5q-36 0 -58.5 23.5t-22.5 57.5z" />
<glyph unicode="&#xef;" horiz-adv-x="399" d="M-44 1223q0 36 24 60.5t60 24.5q35 0 60 -25t25 -60q0 -36 -25 -60t-60 -24q-36 0 -60 24t-24 60zM119 76v839q0 34 22.5 57.5t58.5 23.5q33 0 57 -23.5t24 -57.5v-839q0 -34 -24.5 -57.5t-56.5 -23.5q-36 0 -58.5 23.5t-22.5 57.5zM270 1223q0 36 24 60.5t59 24.5 q36 0 60.5 -25t24.5 -60q0 -36 -24.5 -60t-60.5 -24q-35 0 -59 24t-24 60z" />
<glyph unicode="&#xf0;" horiz-adv-x="1094" d="M49 424q-11 95 14 183t78 161t130 122.5t172 67.5q116 18 221 -17q-10 16 -22 33.5t-26 38.5q-10 14 -19.5 29.5t-19.5 30.5l-130 -81q-20 -11 -44 -3t-36 29q-12 22 -6.5 46.5t25.5 35.5l124 78q-12 19 -22.5 36t-19.5 32q-2 12 -1 22.5t7 21.5q6 15 19 27t33 17 q8 3 17 3q10 0 15 -1q34 -3 54 -40l26 -39l141 89q20 11 44.5 3.5t37.5 -28.5q12 -22 6 -47t-26 -36l-136 -85l254 -394q31 -46 54 -105.5t30 -121.5q11 -101 -17.5 -193.5t-89.5 -166.5t-147 -122.5t-188 -59.5q-104 -11 -198 17.5t-170 87.5t-124.5 143.5t-59.5 185.5z M220 433q9 -71 43 -127.5t84 -95.5q49 -39 112 -57t132 -9t124.5 43t93.5 86t54.5 116t6.5 134q-9 69 -42.5 126.5t-83.5 96.5t-113 57t-131 9q-69 -9 -125 -43t-93 -86q-38 -52 -54.5 -116.5t-7.5 -133.5z" />
<glyph unicode="&#xf1;" d="M119 76v877q0 43 43 43q14 0 27.5 -5t25.5 -19q25 -30 31 -96l9 -82q26 35 62 68t82 60q55 33 118.5 52.5t133.5 19.5q104 0 190 -39t148 -107t96.5 -159t34.5 -193v-419q0 -30 -21 -54q-10 -12 -25 -20t-34 -8q-35 0 -58 23.5t-23 58.5v417q0 72 -24 134.5t-67 109.5 t-102 74.5t-130 27.5t-134.5 -28.5t-112.5 -77.5t-78.5 -112t-29.5 -132v-414q0 -34 -24.5 -57.5t-56.5 -23.5q-36 0 -58.5 23.5t-22.5 57.5zM366 1266q2 7 4.5 13.5t5.5 11.5q26 47 65 71q17 12 41 18q20 6 43 6q34 0 57 -8.5t40 -20.5q16 -13 28 -29q12 -15 24.5 -28 t27.5 -21q14 -9 36 -9q12 0 22 5t20 13q5 4 10.5 9.5l11.5 11.5q10 10 28 23q10 10 28 10q17 0 30 -10t18 -28q4 -18 -9 -44q-26 -50 -66 -78.5t-99 -28.5q-30 0 -50 8.5t-36 22.5q-15 11 -29 27q-12 15 -25 28t-29 23q-16 8 -37 8q-27 0 -41.5 -10.5t-25.5 -24.5t-21.5 -26 t-25.5 -13q-9 -2 -22.5 2t-19.5 15q-13 23 -4 53z" />
<glyph unicode="&#xf2;" horiz-adv-x="1125" d="M61 496q0 102 39.5 193t108.5 160t159 108t194 39t195 -39t159 -108t107.5 -160t39.5 -193q0 -104 -39.5 -195t-107.5 -159q-69 -69 -159 -108t-195 -39q-104 0 -194 39.5t-159 107.5t-108.5 159t-39.5 195zM226 496q0 -72 26 -135t72 -110t107 -74t131 -27q71 0 132 27 t107 74t71.5 110t25.5 135q0 71 -25.5 133.5t-71.5 109.5t-107 74.5t-132 27.5t-131.5 -27.5t-106.5 -74.5t-72 -109.5t-26 -133.5zM378 1256q-5 35 15.5 59t57.5 24q19 0 45.5 -20t51.5 -44q11 -13 22 -25.5t19 -23.5q15 -23 17 -33q2 -7 3.5 -15t-0.5 -14q-5 -34 -34 -41 q-18 -7 -36 -3q-10 1 -36 16.5t-52 37.5q-28 22 -49.5 44.5t-23.5 37.5z" />
<glyph unicode="&#xf3;" horiz-adv-x="1125" d="M61 496q0 102 39.5 193t108.5 160t159 108t194 39t195 -39t159 -108t107.5 -160t39.5 -193q0 -104 -39.5 -195t-107.5 -159q-69 -69 -159 -108t-195 -39q-104 0 -194 39.5t-159 107.5t-108.5 159t-39.5 195zM226 496q0 -72 26 -135t72 -110t107 -74t131 -27q71 0 132 27 t107 74t71.5 110t25.5 135q0 71 -25.5 133.5t-71.5 109.5t-107 74.5t-132 27.5t-131.5 -27.5t-106.5 -74.5t-72 -109.5t-26 -133.5zM529 1158q-3 12 2 29q1 8 18.5 32t42.5 50q24 25 50 44.5t46 19.5q37 0 57.5 -24t15.5 -59q-2 -15 -23.5 -38t-48.5 -45q-28 -22 -53.5 -37 t-35.5 -16q-18 -4 -37 3q-29 7 -34 41z" />
<glyph unicode="&#xf4;" horiz-adv-x="1125" d="M61 496q0 102 39.5 193t108.5 160t159 108t194 39t195 -39t159 -108t107.5 -160t39.5 -193q0 -104 -39.5 -195t-107.5 -159q-69 -69 -159 -108t-195 -39q-104 0 -194 39.5t-159 107.5t-108.5 159t-39.5 195zM226 496q0 -72 26 -135t72 -110t107 -74t131 -27q71 0 132 27 t107 74t71.5 110t25.5 135q0 71 -25.5 133.5t-71.5 109.5t-107 74.5t-132 27.5t-131.5 -27.5t-106.5 -74.5t-72 -109.5t-26 -133.5zM325.5 1129q-1.5 16 4.5 31t18 30t24 27l145 140q17 18 40.5 19.5t41.5 -12.5l171 -167q23 -23 28 -50t-16 -48q-23 -23 -52 -15t-57 37 l-112 112l-109 -111q-30 -30 -58.5 -38.5t-52.5 15.5q-14 14 -15.5 30z" />
<glyph unicode="&#xf5;" horiz-adv-x="1125" d="M61 496q0 102 39.5 193t108.5 160t159 108t194 39t195 -39t159 -108t107.5 -160t39.5 -193q0 -104 -39.5 -195t-107.5 -159q-69 -69 -159 -108t-195 -39q-104 0 -194 39.5t-159 107.5t-108.5 159t-39.5 195zM226 496q0 -72 26 -135t72 -110t107 -74t131 -27q71 0 132 27 t107 74t71.5 110t25.5 135q0 71 -25.5 133.5t-71.5 109.5t-107 74.5t-132 27.5t-131.5 -27.5t-106.5 -74.5t-72 -109.5t-26 -133.5zM317 1235q2 7 5 13.5t6 12.5q26 47 65 70q17 12 41 19q20 6 43 6q34 0 57 -9t39 -21q16 -13 29 -29q12 -15 24.5 -28t27.5 -21q14 -9 36 -9 q12 0 22 5t20 13q5 4 10.5 9.5l11.5 11.5q10 11 28 24q10 10 28 10q17 0 30 -10.5t18 -28.5q4 -18 -9 -44q-26 -50 -66.5 -78.5t-98.5 -28.5q-30 0 -50.5 9t-35.5 22q-15 11 -29 28q-12 15 -25.5 28t-28.5 22q-16 8 -37 8q-27 0 -41.5 -10t-25.5 -25q-11 -14 -21.5 -26 t-25.5 -13q-9 -2 -22.5 2t-19.5 16q-13 23 -5 52z" />
<glyph unicode="&#xf6;" horiz-adv-x="1125" d="M61 496q0 102 39.5 193t108.5 160t159 108t194 39t195 -39t159 -108t107.5 -160t39.5 -193q0 -104 -39.5 -195t-107.5 -159q-69 -69 -159 -108t-195 -39q-104 0 -194 39.5t-159 107.5t-108.5 159t-39.5 195zM226 496q0 -72 26 -135t72 -110t107 -74t131 -27q71 0 132 27 t107 74t71.5 110t25.5 135q0 71 -25.5 133.5t-71.5 109.5t-107 74.5t-132 27.5t-131.5 -27.5t-106.5 -74.5t-72 -109.5t-26 -133.5zM319 1205q0 36 24.5 60.5t59.5 24.5t60 -24.5t25 -60.5t-25 -60t-60 -24q-36 0 -60 24t-24 60zM634 1205q0 36 24 60.5t59 24.5 q36 0 60.5 -24.5t24.5 -60.5t-24.5 -60t-60.5 -24q-35 0 -59 24t-24 60z" />
<glyph unicode="&#xf7;" horiz-adv-x="858" d="M93 653q0 27 18 46t44 19h560q27 0 44 -19t17 -46q0 -26 -17.5 -45t-43.5 -19h-560q-26 0 -44 19.5t-18 44.5zM346 306q0 36 24.5 60.5t60.5 24.5q35 0 62 -24q25 -27 24 -61q0 -36 -25 -61t-61 -25q-37 0 -60 26q-25 24 -25 60zM346 1020q0 35 24.5 60.5t60.5 25.5 q35 0 60.5 -25.5t25.5 -60.5q0 -36 -25.5 -60.5t-60.5 -24.5q-36 0 -60.5 24.5t-24.5 60.5z" />
<glyph unicode="&#xf8;" horiz-adv-x="1124" d="M65 539q9 102 56.5 189t121.5 150q74 61 168 92t196 22q60 -8 116 -30l20 36q11 22 25.5 45t31.5 44q15 20 30 33t30 19t39.5 -0.5t40.5 -29.5t13 -46l-3 -12q-1 -4 -3.5 -10t-6.5 -14q-7 -16 -25 -49q-8 -16 -20 -39t-29 -52q50 -37 89 -84.5t65 -104.5 q26 -56 36.5 -118.5t4.5 -129.5q-9 -104 -57 -191t-121 -148q-74 -61 -168 -92.5t-197 -22.5q-34 4 -63 11t-53 19l-27 -51q-5 -10 -11.5 -19.5t-12.5 -21.5q-12 -22 -26 -40t-29 -29q-16 -11 -35.5 -9.5t-35.5 9.5q-32 16 -41 48q-4 15 -3 32q1 2 2 5.5t3 8.5q2 4 5.5 10.5 t8.5 15.5q8 17 22.5 43.5t37.5 69.5q-50 37 -88.5 85t-65.5 106q-27 57 -37 119.5t-4 130.5zM229 530q-8 -71 11 -135.5t59 -116.5t98 -86t128 -41q71 -8 135 11.5t114 62.5t82.5 102.5t40.5 130.5q7 71 -12 135.5t-59 117.5q-40 52 -97 85t-128 42q-71 7 -135 -13t-114 -62 t-83 -102t-40 -131z" />
<glyph unicode="&#xf9;" d="M119 496v418q0 29 21 56q10 11 25 18.5t34 7.5q35 0 58.5 -24t23.5 -58v-417q0 -71 24 -134t67 -110t101.5 -74.5t129.5 -27.5t135 28.5t113 77.5t78.5 111.5t29.5 131.5v415q0 34 23.5 57.5t56.5 23.5q36 0 58.5 -23.5t22.5 -57.5v-877q0 -43 -43 -43q-31 0 -52 25 q-12 14 -20.5 37t-11.5 59l-9 81q-26 -34 -62 -67.5t-82 -59.5q-55 -33 -119.5 -53.5t-132.5 -20.5q-104 0 -190 39.5t-147 106.5q-62 68 -97 158.5t-35 195.5zM457 1255q-5 35 15.5 59t56.5 24q19 0 46 -20t52 -44q11 -13 21.5 -25.5t19.5 -23.5q15 -23 17 -33 q2 -7 3.5 -15t-0.5 -14q-5 -34 -34 -41q-18 -7 -37 -3q-10 1 -35.5 16t-52.5 37q-28 22 -49 45t-23 38z" />
<glyph unicode="&#xfa;" d="M119 496v418q0 29 21 56q10 11 25 18.5t34 7.5q35 0 58.5 -24t23.5 -58v-417q0 -71 24 -134t67 -110t101.5 -74.5t129.5 -27.5t135 28.5t113 77.5t78.5 111.5t29.5 131.5v415q0 34 23.5 57.5t56.5 23.5q36 0 58.5 -23.5t22.5 -57.5v-877q0 -43 -43 -43q-31 0 -52 25 q-12 14 -20.5 37t-11.5 59l-9 81q-26 -34 -62 -67.5t-82 -59.5q-55 -33 -119.5 -53.5t-132.5 -20.5q-104 0 -190 39.5t-147 106.5q-62 68 -97 158.5t-35 195.5zM556 1153q-3 12 2 29q1 8 18.5 32t41.5 50q24 25 50 44.5t47 19.5q37 0 57.5 -24t14.5 -59q-2 -15 -23.5 -38 t-47.5 -45q-28 -22 -53.5 -37t-35.5 -16q-19 -4 -37 3q-29 7 -34 41z" />
<glyph unicode="&#xfb;" d="M119 496v418q0 29 21 56q10 11 25 18.5t34 7.5q35 0 58.5 -24t23.5 -58v-417q0 -71 24 -134t67 -110t101.5 -74.5t129.5 -27.5t135 28.5t113 77.5t78.5 111.5t29.5 131.5v415q0 34 23.5 57.5t56.5 23.5q36 0 58.5 -23.5t22.5 -57.5v-877q0 -43 -43 -43q-31 0 -52 25 q-12 14 -20.5 37t-11.5 59l-9 81q-26 -34 -62 -67.5t-82 -59.5q-55 -33 -119.5 -53.5t-132.5 -20.5q-104 0 -190 39.5t-147 106.5q-62 68 -97 158.5t-35 195.5zM375.5 1164q-1.5 16 4.5 31t18 29.5t24 26.5l145 141q17 18 40.5 19.5t41.5 -12.5l171 -167q23 -23 28 -50 t-15 -48q-23 -23 -52 -15.5t-58 37.5l-112 112l-109 -111q-30 -30 -58.5 -38.5t-52.5 15.5q-14 14 -15.5 30z" />
<glyph unicode="&#xfc;" d="M119 496v418q0 29 21 56q10 11 25 18.5t34 7.5q35 0 58.5 -24t23.5 -58v-417q0 -71 24 -134t67 -110t101.5 -74.5t129.5 -27.5t135 28.5t113 77.5t78.5 111.5t29.5 131.5v415q0 34 23.5 57.5t56.5 23.5q36 0 58.5 -23.5t22.5 -57.5v-877q0 -43 -43 -43q-31 0 -52 25 q-12 14 -20.5 37t-11.5 59l-9 81q-26 -34 -62 -67.5t-82 -59.5q-55 -33 -119.5 -53.5t-132.5 -20.5q-104 0 -190 39.5t-147 106.5q-62 68 -97 158.5t-35 195.5zM365 1205q0 36 24 60.5t60 24.5q35 0 60 -24.5t25 -60.5t-25 -60t-60 -24q-36 0 -60 24t-24 60zM679 1205 q0 36 24 60.5t59 24.5q36 0 60.5 -24.5t24.5 -60.5t-24.5 -60t-60.5 -24q-35 0 -59 24t-24 60z" />
<glyph unicode="&#xfd;" horiz-adv-x="976" d="M40 941q4 34 42 51q32 14 66.5 2t52.5 -58l288 -710q33 82 63.5 155.5t56.5 138.5q27 66 49.5 121.5t41.5 102.5t34 83t25 63l22 56q6 13 16.5 25t24.5 20t31.5 9t38.5 -8q11 -5 22 -14.5t18 -24.5q6 -14 6.5 -31.5t-8.5 -37.5l-409 -946q-23 -53 -46.5 -96.5 t-56.5 -75.5q-34 -33 -81.5 -52t-118.5 -22q-37 -1 -65.5 17.5t-28.5 61.5q0 23 11.5 35t31.5 20q10 4 21 7t23 6q25 6 50 16.5t48 27.5q23 16 40 48l55 130l-15 36q-15 36 -40 92l-122 279q-39 89 -83 189.5t-94 213.5q-14 36 -10 70zM429 1110q-3 12 2 29q1 8 18.5 32 t42.5 50q24 25 50 44.5t46 19.5q37 0 57.5 -24t14.5 -59q-2 -15 -23.5 -38t-47.5 -45q-28 -22 -53.5 -37t-35.5 -16q-18 -4 -37 3q-29 7 -34 41z" />
<glyph unicode="&#xfe;" horiz-adv-x="1186" d="M127 -89v1207q0 29 2 62.5t10 62.5t24 48.5t44 19.5q27 0 42.5 -18t24.5 -45q8 -28 11 -59.5t3 -58.5v-348q12 32 45.5 69.5t82.5 69.5t109.5 52.5t127.5 20.5q104 0 190.5 -39.5t150.5 -106.5q65 -69 99.5 -159.5t34.5 -194.5t-34.5 -195t-99.5 -159 q-65 -69 -150.5 -108t-190.5 -39q-61 0 -118.5 17t-106.5 44q-49 28 -85.5 65t-54.5 77v-305q0 -27 -2.5 -56.5t-11.5 -55.5q-8 -27 -23.5 -44t-43.5 -17t-44 19.5t-24 48.5t-10 62.5t-2 62.5zM292 494q0 -71 27.5 -134t76.5 -110t112.5 -75t134.5 -28q72 0 129.5 28 t100.5 75t66 110t23 134q0 72 -23 134.5t-66 109.5t-100.5 74.5t-129.5 27.5q-69 0 -131.5 -28t-112.5 -76q-49 -48 -78 -110t-29 -132z" />
<glyph unicode="&#xff;" horiz-adv-x="976" d="M40 941q4 34 42 51q32 14 66.5 2t52.5 -58l288 -710q33 82 63.5 155.5t56.5 138.5q27 66 49.5 121.5t41.5 102.5t34 83t25 63l22 56q6 13 16.5 25t24.5 20t31.5 9t38.5 -8q11 -5 22 -14.5t18 -24.5q6 -14 6.5 -31.5t-8.5 -37.5l-409 -946q-23 -53 -46.5 -96.5 t-56.5 -75.5q-34 -33 -81.5 -52t-118.5 -22q-37 -1 -65.5 17.5t-28.5 61.5q0 23 11.5 35t31.5 20q10 4 21 7t23 6q25 6 50 16.5t48 27.5q23 16 40 48l55 130l-15 36q-15 36 -40 92l-122 279q-39 89 -83 189.5t-94 213.5q-14 36 -10 70zM256 1147q0 36 24 60.5t60 24.5 q35 0 60 -24.5t25 -60.5t-25 -60t-60 -24q-36 0 -60 24t-24 60zM570 1147q0 36 24 60.5t59 24.5q36 0 60.5 -24.5t24.5 -60.5t-24.5 -60t-60.5 -24q-35 0 -59 24t-24 60z" />
<glyph unicode="&#x100;" horiz-adv-x="1136" d="M35 54.5q-3 18.5 3 40.5q5 16 11 32t12 33l25 64l394 996q1 5 1.5 9.5t0.5 9.5q0 7 2 17q1 16 18 31q14 12 59 12q22 0 37.5 -10t28.5 -27q12 -17 21 -38.5t18 -40.5l426 -1078q2 -8 4 -17t3 -18q0 -22 -12.5 -39.5t-34.5 -25.5q-33 -19 -66 -5q-16 6 -30 19.5t-21 33.5 l-96 249h-547l-101 -250q-16 -39 -40 -51.5t-52 -7.5q-33 2 -52 30q-9 13 -12 31.5zM208 1465q0 27 17 45.5t42 18.5h576q25 0 42 -18.5t17 -45.5q0 -25 -17.5 -43.5t-41.5 -18.5h-576q-25 0 -42 19t-17 43zM335 439h462l-232 590z" />
<glyph unicode="&#x101;" horiz-adv-x="1189" d="M65 494q0 104 39 194.5t108 159.5q69 68 159 107t194 39t188 -39.5t145 -106.5q8 -8 15.5 -17.5t13.5 -18.5l12 60q6 69 30.5 95t53.5 26q43 0 43 -43v-505v-390q0 -30 -15.5 -46t-40.5 -16q-29 0 -47 17t-24 46l-14 116q-6 -8 -13 -16l-14 -16q-61 -69 -144.5 -108 t-188.5 -39q-104 0 -194 39.5t-159 107.5t-108 158.5t-39 195.5zM229 494q0 -71 26 -134t72 -110t107 -75t131 -28q71 0 132 28t107 75t71.5 110t25.5 134q0 72 -25.5 134.5t-71.5 109.5t-107 74.5t-132 27.5t-131.5 -27.5t-106.5 -74.5t-72 -110t-26 -134zM236 1175 q0 27 17 45t42 18h575q25 0 42.5 -18.5t17.5 -44.5q0 -25 -17.5 -44t-42.5 -19h-575q-25 0 -42 19t-17 44z" />
<glyph unicode="&#x102;" horiz-adv-x="1136" d="M35 54.5q-3 18.5 3 40.5q5 16 11 32t12 33l25 64l394 996q1 5 1.5 9.5t0.5 9.5q0 7 2 17q1 16 18 31q14 12 59 12q22 0 37.5 -10t28.5 -27q12 -17 21 -38.5t18 -40.5l426 -1078q2 -8 4 -17t3 -18q0 -22 -12.5 -39.5t-34.5 -25.5q-33 -19 -66 -5q-16 6 -30 19.5t-21 33.5 l-96 249h-547l-101 -250q-16 -39 -40 -51.5t-52 -7.5q-33 2 -52 30q-9 13 -12 31.5zM335 439h462l-232 590zM364 1602q0 27 17 45.5t44 18.5q20 0 30 -9.5t16 -25.5l9 -32q4 -17 12.5 -32.5t24.5 -24.5q14 -10 45 -10q30 0 46.5 9.5t25.5 25.5q7 14 12 32q4 17 10 32.5 t16 25.5q9 9 29 9q27 0 44.5 -18.5t17.5 -44.5q0 -40 -16.5 -74.5t-44.5 -60.5t-64 -40t-76 -14q-41 0 -76.5 14.5t-62.5 39.5q-28 26 -43.5 60.5t-15.5 73.5z" />
<glyph unicode="&#x103;" horiz-adv-x="1189" d="M65 494q0 104 39 194.5t108 159.5q69 68 159 107t194 39t188 -39.5t145 -106.5q8 -8 15.5 -17.5t13.5 -18.5l12 60q6 69 30.5 95t53.5 26q43 0 43 -43v-505v-390q0 -30 -15.5 -46t-40.5 -16q-29 0 -47 17t-24 46l-14 116q-6 -8 -13 -16l-14 -16q-61 -69 -144.5 -108 t-188.5 -39q-104 0 -194 39.5t-159 107.5t-108 158.5t-39 195.5zM229 494q0 -71 26 -134t72 -110t107 -75t131 -28q71 0 132 28t107 75t71.5 110t25.5 134q0 72 -25.5 134.5t-71.5 109.5t-107 74.5t-132 27.5t-131.5 -27.5t-106.5 -74.5t-72 -110t-26 -134zM391 1317 q0 27 17.5 45.5t44.5 18.5q20 0 30 -9.5t16 -24.5l9 -32q4 -17 12 -32.5t25 -25.5q14 -10 45 -10q30 0 46 10t26 25q7 14 12 33q4 17 9.5 32t15.5 25q9 9 30 9q27 0 44.5 -18t17.5 -45q0 -40 -16.5 -74.5t-44.5 -59.5q-28 -26 -64 -40.5t-76 -14.5q-41 0 -76.5 14.5 t-62.5 40.5q-28 26 -44 60t-16 73z" />
<glyph unicode="&#x104;" horiz-adv-x="1136" d="M35 54.5q-3 18.5 3 40.5q5 16 11 32t12 33l25 64l394 996q1 5 1.5 9.5t0.5 9.5q0 7 2 17q1 16 18 31q14 12 59 12q22 0 37.5 -10t28.5 -27q12 -17 21 -38.5t18 -40.5l426 -1078q2 -8 4 -17t3 -18q0 -28 -19 -46q-2 -4 -10 -13l-55 -51q-8 -7 -15.5 -13t-14.5 -12 q-13 -11 -23.5 -21.5t-15.5 -22.5t-5 -24q0 -18 12 -32.5t33 -14.5q15 0 24 7.5t14 17.5q2 5 4 10.5t4 12.5q4 12 10 22.5t16 17.5t27 7q20 0 36.5 -14t16.5 -36q0 -32 -12.5 -60t-32.5 -49q-44 -44 -109 -44q-70 0 -112 44q-45 43 -45 109q0 28 11.5 53t33.5 50 q14 16 32 32.5t39 35.5q-5 9 -8 17l-96 249h-547l-101 -250q-16 -39 -40 -51.5t-52 -7.5q-33 2 -52 30q-9 13 -12 31.5zM335 439h462l-232 590z" />
<glyph unicode="&#x105;" horiz-adv-x="1189" d="M65 494q0 104 39 194.5t108 159.5q69 68 159 107t194 39t188 -39.5t145 -106.5q8 -8 15.5 -17.5t13.5 -18.5l12 60q6 69 30.5 95t53.5 26q43 0 43 -43v-505v-390q0 -9 -1 -13q3 -27 -19 -48l-59 -53q-8 -8 -15.5 -15t-15.5 -12q-14 -12 -24.5 -23.5t-16.5 -22.5 q-6 -12 -6 -27q0 -19 12.5 -34t35.5 -15q16 0 25 7.5t14 19.5q2 5 5 10.5t5 12.5q4 13 10 24t17 19q11 7 29 7q22 0 38.5 -14.5t16.5 -38.5q0 -34 -12.5 -63.5t-34.5 -50.5q-23 -23 -52.5 -35.5t-63.5 -12.5q-36 0 -66 12.5t-51 35.5q-23 22 -36 51t-13 63q0 30 12.5 56 t36.5 54q19 23 45 46t59 52q-1 2 -1 4.5t-1 4.5l-14 116q-6 -8 -13 -16l-14 -16q-61 -69 -144.5 -108t-188.5 -39q-104 0 -194 39.5t-159 107.5t-108 158.5t-39 195.5zM229 494q0 -71 26 -134t72 -110t107 -75t131 -28q71 0 132 28t107 75t71.5 110t25.5 134 q0 72 -25.5 134.5t-71.5 109.5t-107 74.5t-132 27.5t-131.5 -27.5t-106.5 -74.5t-72 -110t-26 -134z" />
<glyph unicode="&#x106;" horiz-adv-x="1287" d="M61 645q0 90 23.5 172t66.5 156t102 132.5t132 101.5t156 66t173 23q68 0 129 -10t120 -34q58 -25 111.5 -63t107.5 -94q11 -12 17 -28t6 -33q2 -36 -28 -59q-20 -17 -50 -19t-59 25q-77 80 -167.5 117.5t-186.5 37.5q-102 0 -191 -38.5t-156 -106.5q-68 -68 -106 -156.5 t-38 -190.5t38.5 -190.5t106.5 -156.5t155.5 -106t190.5 -38q59 0 112.5 13t100.5 37q46 24 88 56.5t80 72.5q17 13 40.5 16.5t44.5 -8.5q19 -8 32 -25.5t13 -39.5q0 -35 -27 -61q-52 -58 -103.5 -99t-109.5 -68q-58 -28 -124 -41t-147 -13q-136 0 -254 50.5t-207 140.5 q-90 89 -141 207t-51 254zM646 1460q-3 12 2 29q1 8 18.5 32t42.5 50q24 25 50 44.5t46 19.5q37 0 57.5 -24t15.5 -59q-2 -15 -23.5 -38t-48.5 -45q-28 -22 -53.5 -37t-35.5 -16q-18 -4 -37 3q-29 7 -34 41z" />
<glyph unicode="&#x107;" horiz-adv-x="1000" d="M61 494q0 104 39.5 194.5t108.5 159.5q68 68 158.5 107t194.5 39q47 0 96 -7.5t95 -22.5q46 -16 86 -41t70 -58q26 -26 26 -58q0 -19 -8.5 -35t-23.5 -27q-14 -10 -32.5 -12.5t-36.5 5.5q-52 38 -114 64t-132 32q-72 4 -137.5 -19t-114.5 -70q-50 -46 -80 -110t-30 -141 q0 -74 28.5 -138t77.5 -110t114 -71t142 -21q62 2 121.5 26t105.5 67q14 9 33 12t37 -3q23 -5 38 -25t15 -47q0 -32 -32 -65.5t-84 -61.5q-53 -29 -120.5 -46.5t-139.5 -17.5q-104 0 -195 39.5t-158 107.5q-69 68 -108.5 158.5t-39.5 195.5zM499 1180q-3 12 2 28 q1 8 18.5 32.5t41.5 49.5t50 45t46 20q37 0 57.5 -24t15.5 -59q-2 -15 -23.5 -38.5t-48.5 -44.5q-28 -22 -53 -37t-36 -16q-18 -4 -37 3q-29 7 -33 41z" />
<glyph unicode="&#x108;" horiz-adv-x="1287" d="M61 645q0 90 23.5 172t66.5 156t102 132.5t132 101.5t156 66t173 23q68 0 129 -10t120 -34q58 -25 111.5 -63t107.5 -94q11 -12 17 -28t6 -33q2 -36 -28 -59q-20 -17 -50 -19t-59 25q-77 80 -167.5 117.5t-186.5 37.5q-102 0 -191 -38.5t-156 -106.5q-68 -68 -106 -156.5 t-38 -190.5t38.5 -190.5t106.5 -156.5t155.5 -106t190.5 -38q59 0 112.5 13t100.5 37q46 24 88 56.5t80 72.5q17 13 40.5 16.5t44.5 -8.5q19 -8 32 -25.5t13 -39.5q0 -35 -27 -61q-52 -58 -103.5 -99t-109.5 -68q-58 -28 -124 -41t-147 -13q-136 0 -254 50.5t-207 140.5 q-90 89 -141 207t-51 254zM469.5 1435q-1.5 16 4.5 31t18 30t24 27l146 140q17 18 40 19.5t41 -12.5l171 -167q23 -23 28 -50t-15 -48q-23 -23 -52 -15t-58 37l-111 112l-110 -111q-30 -30 -58.5 -38.5t-52.5 15.5q-14 14 -15.5 30z" />
<glyph unicode="&#x109;" horiz-adv-x="1000" d="M61 494q0 104 39.5 194.5t108.5 159.5q68 68 158.5 107t194.5 39q47 0 96 -7.5t95 -22.5q46 -16 86 -41t70 -58q26 -26 26 -58q0 -19 -8.5 -35t-23.5 -27q-14 -10 -32.5 -12.5t-36.5 5.5q-52 38 -114 64t-132 32q-72 4 -137.5 -19t-114.5 -70q-50 -46 -80 -110t-30 -141 q0 -74 28.5 -138t77.5 -110t114 -71t142 -21q62 2 121.5 26t105.5 67q14 9 33 12t37 -3q23 -5 38 -25t15 -47q0 -32 -32 -65.5t-84 -61.5q-53 -29 -120.5 -46.5t-139.5 -17.5q-104 0 -195 39.5t-158 107.5q-69 68 -108.5 158.5t-39.5 195.5zM318 1124q-2 16 5 31 q6 15 18 29.5t24 26.5l145 141q17 18 40 19.5t42 -12.5l171 -167q23 -23 28 -50t-16 -48q-23 -23 -52 -15.5t-57 37.5l-112 112l-110 -111q-30 -30 -58.5 -38.5t-51.5 15.5q-14 14 -16 30z" />
<glyph unicode="&#x10a;" horiz-adv-x="1287" d="M61 645q0 90 23.5 172t66.5 156t102 132.5t132 101.5t156 66t173 23q68 0 129 -10t120 -34q58 -25 111.5 -63t107.5 -94q11 -12 17 -28t6 -33q2 -36 -28 -59q-20 -17 -50 -19t-59 25q-77 80 -167.5 117.5t-186.5 37.5q-102 0 -191 -38.5t-156 -106.5q-68 -68 -106 -156.5 t-38 -190.5t38.5 -190.5t106.5 -156.5t155.5 -106t190.5 -38q59 0 112.5 13t100.5 37q46 24 88 56.5t80 72.5q17 13 40.5 16.5t44.5 -8.5q19 -8 32 -25.5t13 -39.5q0 -35 -27 -61q-52 -58 -103.5 -99t-109.5 -68q-58 -28 -124 -41t-147 -13q-136 0 -254 50.5t-207 140.5 q-90 89 -141 207t-51 254zM608 1500q0 39 27 66.5t66 27.5q19 0 37 -7t31 -19q12 -13 19.5 -30.5t7.5 -37.5q0 -39 -28 -65.5t-67 -26.5q-40 0 -66.5 26.5t-26.5 65.5z" />
<glyph unicode="&#x10b;" horiz-adv-x="1000" d="M61 494q0 104 39.5 194.5t108.5 159.5q68 68 158.5 107t194.5 39q47 0 96 -7.5t95 -22.5q46 -16 86 -41t70 -58q26 -26 26 -58q0 -19 -8.5 -35t-23.5 -27q-14 -10 -32.5 -12.5t-36.5 5.5q-52 38 -114 64t-132 32q-72 4 -137.5 -19t-114.5 -70q-50 -46 -80 -110t-30 -141 q0 -74 28.5 -138t77.5 -110t114 -71t142 -21q62 2 121.5 26t105.5 67q14 9 33 12t37 -3q23 -5 38 -25t15 -47q0 -32 -32 -65.5t-84 -61.5q-53 -29 -120.5 -46.5t-139.5 -17.5q-104 0 -195 39.5t-158 107.5q-69 68 -108.5 158.5t-39.5 195.5zM460 1215q0 39 26.5 67t66.5 28 q19 0 36.5 -7.5t31.5 -19.5q12 -13 19 -30.5t7 -37.5q0 -39 -27.5 -65.5t-66.5 -26.5q-40 0 -66.5 26.5t-26.5 65.5z" />
<glyph unicode="&#x10c;" horiz-adv-x="1287" d="M61 645q0 90 23.5 172t66.5 156t102 132.5t132 101.5t156 66t173 23q68 0 129 -10t120 -34q58 -25 111.5 -63t107.5 -94q11 -12 17 -28t6 -33q2 -36 -28 -59q-20 -17 -50 -19t-59 25q-77 80 -167.5 117.5t-186.5 37.5q-102 0 -191 -38.5t-156 -106.5q-68 -68 -106 -156.5 t-38 -190.5t38.5 -190.5t106.5 -156.5t155.5 -106t190.5 -38q59 0 112.5 13t100.5 37q46 24 88 56.5t80 72.5q17 13 40.5 16.5t44.5 -8.5q19 -8 32 -25.5t13 -39.5q0 -35 -27 -61q-52 -58 -103.5 -99t-109.5 -68q-58 -28 -124 -41t-147 -13q-136 0 -254 50.5t-207 140.5 q-90 89 -141 207t-51 254zM464.5 1655q1.5 16 15.5 31q24 24 53 15t58 -39l110 -111l111 112q29 30 58 37.5t52 -14.5q20 -22 15 -49t-27 -50l-172 -167q-18 -14 -41 -12.5t-41 19.5l-145 141q-11 12 -23 26.5t-18 29.5q-7 15 -5.5 31z" />
<glyph unicode="&#x10d;" horiz-adv-x="1000" d="M61 494q0 104 39.5 194.5t108.5 159.5q68 68 158.5 107t194.5 39q47 0 96 -7.5t95 -22.5q46 -16 86 -41t70 -58q26 -26 26 -58q0 -19 -8.5 -35t-23.5 -27q-14 -10 -32.5 -12.5t-36.5 5.5q-52 38 -114 64t-132 32q-72 4 -137.5 -19t-114.5 -70q-50 -46 -80 -110t-30 -141 q0 -74 28.5 -138t77.5 -110t114 -71t142 -21q62 2 121.5 26t105.5 67q14 9 33 12t37 -3q23 -5 38 -25t15 -47q0 -32 -32 -65.5t-84 -61.5q-53 -29 -120.5 -46.5t-139.5 -17.5q-104 0 -195 39.5t-158 107.5q-69 68 -108.5 158.5t-39.5 195.5zM316 1329.5q1 16.5 16 30.5 q24 24 53 15t57 -39l111 -110l111 111q29 30 58 37.5t51 -14.5q20 -22 15 -49t-26 -49l-172 -167q-18 -14 -41 -12.5t-41 19.5l-146 140q-11 12 -22.5 26.5t-17.5 29.5q-7 15 -6 31.5z" />
<glyph unicode="&#x10e;" horiz-adv-x="1249" d="M124 1267q0 14 12 23t50 9h348q90 0 172 -23t156 -66q148 -87 236 -235q43 -74 66 -156.5t23 -172.5t-23 -172.5t-66 -156.5t-102.5 -132t-133.5 -101t-156 -66t-172 -23h-322q-30 0 -51.5 18.5t-27.5 45.5q-1 4 -1.5 8t-0.5 9v1139q0 12 -3 26q-4 12 -4 26zM218.5 1660 q1.5 16 15.5 31q24 24 53 15t58 -39l111 -111l110 112q29 30 58 37.5t52 -14.5q20 -22 15 -49t-26 -50l-172 -167q-18 -14 -41 -12t-41 20l-146 140q-11 12 -23 26.5t-18 29.5q-7 15 -5.5 31zM293 155h241q101 1 190 39t157 105t106 155t38 192q0 105 -38.5 195.5 t-105.5 157.5q-68 68 -157 106.5t-190 39.5h-241v-990z" />
<glyph unicode="&#x10f;" horiz-adv-x="1186" d="M61 494q0 104 38 194.5t105 159.5q67 68 155 107t193 39q95 0 178.5 -39.5t148.5 -106.5q6 -6 11.5 -13t10.5 -13v410q0 34 24 57.5t57 23.5q36 0 58.5 -23.5t22.5 -57.5v-1196q0 -43 -43 -43q-31 0 -53 26q-11 14 -19.5 37t-11.5 58l-13 70q-8 -11 -17 -22l-18 -22 q-61 -69 -146.5 -108t-189.5 -39t-193 39.5t-155 107.5q-67 68 -105 158.5t-38 195.5zM226 494q0 -71 26 -134t72 -110t107 -75t131 -28q71 0 133 28t108 75t72 110t26 134q0 72 -26 134.5t-72 109.5t-108 74.5t-133 27.5t-131.5 -27.5t-106.5 -74.5t-72 -110t-26 -134z M293.5 1347q1.5 16 15.5 30q24 24 53 15t58 -38l110 -111l111 112q29 30 58 37.5t52 -15.5q20 -22 15 -48.5t-27 -49.5l-172 -167q-18 -14 -40.5 -12.5t-41.5 19.5l-145 141q-11 12 -23 26t-18 30q-7 15 -5.5 31z" />
<glyph unicode="&#x110;" horiz-adv-x="1283" d="M6 656q0 27 17.5 45.5t42.5 18.5h100v495q0 12 -3 26q-4 12 -4 26t12 23t50 9h347q90 0 172.5 -23t156.5 -66q149 -87 236 -235q43 -74 66 -156.5t23 -172.5t-23 -172.5t-66 -156.5t-102.5 -132t-133.5 -101t-156.5 -66t-172.5 -23h-321q-30 0 -51.5 18.5t-27.5 45.5 q-1 4 -1.5 8t-0.5 9v518h-100q-25 0 -42.5 19t-17.5 43zM328 155h240q101 1 190 39t157 105t106.5 155t38.5 192q0 105 -38.5 195.5t-106.5 157.5q-68 68 -156.5 106.5t-190.5 39.5h-240v-425h313q25 0 42 -18.5t17 -45.5q0 -25 -17 -43.5t-42 -18.5h-313v-439z" />
<glyph unicode="&#x111;" horiz-adv-x="1186" d="M61 494q0 104 38 194.5t105 159.5q67 68 155 107t193 39q95 0 178.5 -39.5t148.5 -106.5q6 -6 11.5 -13t10.5 -13v231h-206q-25 0 -42 19t-17 43q0 27 17.5 45.5t41.5 18.5h206v53q0 34 24 57.5t57 23.5q36 0 58.5 -23.5t22.5 -57.5v-53h208q25 0 42 -18.5t17 -45.5 q0 -25 -17.5 -43.5t-41.5 -18.5h-208v-1017q0 -43 -43 -43q-31 0 -53 26q-11 14 -19.5 37t-11.5 58l-13 70q-8 -11 -17 -22l-18 -22q-61 -69 -146.5 -108t-189.5 -39t-193 39.5t-155 107.5q-67 68 -105 158.5t-38 195.5zM226 494q0 -71 26 -134t72 -110t107 -75t131 -28 q71 0 133 28t108 75t72 110t26 134q0 72 -26 134.5t-72 109.5t-108 74.5t-133 27.5t-131.5 -27.5t-106.5 -74.5t-72 -110t-26 -134z" />
<glyph unicode="&#x112;" horiz-adv-x="1088" d="M124 1265q0 15 10 24.5t41 9.5h789q43 0 64.5 -24t21.5 -53q0 -30 -20.5 -54.5t-63.5 -24.5h-672v-419h540q37 0 63 -27q11 -12 16 -29.5t-1 -37.5q-5 -27 -26 -43t-50 -16h-542v-414h662q19 0 37 -5t31 -15t21 -24.5t8 -36.5q0 -39 -28.5 -60t-65.5 -21h-720 q-55 0 -80.5 28.5t-25.5 80.5v1100q-1 7 -2 15t-3 16q-4 13 -4 30zM211 1456q0 27 17 45.5t42 18.5h576q25 0 42 -18.5t17 -45.5q0 -25 -17.5 -43.5t-41.5 -18.5h-576q-25 0 -42 19t-17 43z" />
<glyph unicode="&#x113;" horiz-adv-x="1126" d="M61 494q0 114 41.5 206t112.5 158q71 67 163 102.5t196 35.5t193.5 -37t156.5 -104t104 -156.5t37 -194.5q0 -18 -3 -30.5t-12 -19.5t-27 -10.5t-48 -3.5h-747q5 -65 33 -119.5t74 -97.5t103.5 -67t124.5 -24q62 0 121.5 22t106.5 65q15 10 36.5 12.5t40.5 -5.5 q18 -8 32 -24.5t14 -41.5q0 -31 -31.5 -60t-83.5 -53t-114 -38t-123 -14q-104 0 -194 39.5t-159 106.5q-69 68 -108.5 158t-39.5 195zM217 1142q0 27 17 45t42 18h576q25 0 42 -18.5t17 -44.5q0 -25 -17 -44t-42 -19h-576q-25 0 -42 19t-17 44zM228 555h673q-5 65 -32 120 t-70 97q-44 42 -101.5 65t-123.5 23q-68 0 -126.5 -23t-104.5 -65q-47 -42 -77 -97t-38 -120z" />
<glyph unicode="&#x114;" horiz-adv-x="1088" d="M124 1265q0 15 10 24.5t41 9.5h789q43 0 64.5 -24t21.5 -53q0 -30 -20.5 -54.5t-63.5 -24.5h-672v-419h540q37 0 63 -27q11 -12 16 -29.5t-1 -37.5q-5 -27 -26 -43t-50 -16h-542v-414h662q19 0 37 -5t31 -15t21 -24.5t8 -36.5q0 -39 -28.5 -60t-65.5 -21h-720 q-55 0 -80.5 28.5t-25.5 80.5v1100q-1 7 -2 15t-3 16q-4 13 -4 30zM358 1620q0 27 17.5 45.5t44.5 18.5q20 0 30 -9.5t16 -24.5l9 -32q4 -17 12.5 -32.5t24.5 -24.5q14 -10 45 -11q30 0 46.5 10t25.5 25q7 14 12 33q4 17 9.5 32t16.5 25q9 9 29 9q27 0 44.5 -18t17.5 -45 q0 -40 -16.5 -74.5t-44.5 -59.5q-28 -26 -64 -40t-76 -14q-41 0 -77 14t-62 40q-28 26 -44 60t-16 73z" />
<glyph unicode="&#x115;" horiz-adv-x="1126" d="M61 494q0 114 41.5 206t112.5 158q71 67 163 102.5t196 35.5t193.5 -37t156.5 -104t104 -156.5t37 -194.5q0 -18 -3 -30.5t-12 -19.5t-27 -10.5t-48 -3.5h-747q5 -65 33 -119.5t74 -97.5t103.5 -67t124.5 -24q62 0 121.5 22t106.5 65q15 10 36.5 12.5t40.5 -5.5 q18 -8 32 -24.5t14 -41.5q0 -31 -31.5 -60t-83.5 -53t-114 -38t-123 -14q-104 0 -194 39.5t-159 106.5q-69 68 -108.5 158t-39.5 195zM228 555h673q-5 65 -32 120t-70 97q-44 42 -101.5 65t-123.5 23q-68 0 -126.5 -23t-104.5 -65q-47 -42 -77 -97t-38 -120zM395 1309 q0 27 17.5 45.5t44.5 18.5q20 0 30 -9.5t16 -25.5l9 -31q4 -17 12 -33t25 -25q14 -10 45 -10q30 0 46 9.5t26 25.5q7 14 12 33q4 17 9.5 32t15.5 25q9 9 30 9q27 0 44.5 -18.5t17.5 -44.5q0 -40 -16.5 -74.5t-44.5 -59.5q-28 -26 -64 -40.5t-76 -14.5q-41 0 -77 14.5 t-62 40.5q-28 26 -44 60t-16 73z" />
<glyph unicode="&#x116;" horiz-adv-x="1088" d="M124 1265q0 15 10 24.5t41 9.5h789q43 0 64.5 -24t21.5 -53q0 -30 -20.5 -54.5t-63.5 -24.5h-672v-419h540q37 0 63 -27q11 -12 16 -29.5t-1 -37.5q-5 -27 -26 -43t-50 -16h-542v-414h662q19 0 37 -5t31 -15t21 -24.5t8 -36.5q0 -39 -28.5 -60t-65.5 -21h-720 q-55 0 -80.5 28.5t-25.5 80.5v1100q-1 7 -2 15t-3 16q-4 13 -4 30zM481 1527q0 39 27 66.5t66 27.5q19 0 37 -7t31 -20q12 -13 19.5 -30.5t7.5 -36.5q0 -39 -28 -65.5t-67 -26.5q-40 0 -66.5 26.5t-26.5 65.5z" />
<glyph unicode="&#x117;" horiz-adv-x="1126" d="M61 494q0 114 41.5 206t112.5 158q71 67 163 102.5t196 35.5t193.5 -37t156.5 -104t104 -156.5t37 -194.5q0 -18 -3 -30.5t-12 -19.5t-27 -10.5t-48 -3.5h-747q5 -65 33 -119.5t74 -97.5t103.5 -67t124.5 -24q62 0 121.5 22t106.5 65q15 10 36.5 12.5t40.5 -5.5 q18 -8 32 -24.5t14 -41.5q0 -31 -31.5 -60t-83.5 -53t-114 -38t-123 -14q-104 0 -194 39.5t-159 106.5q-69 68 -108.5 158t-39.5 195zM228 555h673q-5 65 -32 120t-70 97q-44 42 -101.5 65t-123.5 23q-68 0 -126.5 -23t-104.5 -65q-47 -42 -77 -97t-38 -120zM494 1209 q0 39 26.5 67t66.5 28q19 0 36.5 -7.5t30.5 -19.5q12 -13 19.5 -30.5t7.5 -37.5q0 -39 -27.5 -65.5t-66.5 -26.5q-40 0 -66.5 26.5t-26.5 65.5z" />
<glyph unicode="&#x118;" horiz-adv-x="1088" d="M124 1265q0 15 10 24.5t41 9.5h789q43 0 64.5 -24t21.5 -53q0 -30 -20.5 -54.5t-63.5 -24.5h-672v-419h540q37 0 63 -27q11 -12 16 -29.5t-1 -37.5q-5 -27 -26 -43t-50 -16h-542v-414h662q19 0 37 -5t31 -15t21 -25t8 -36q0 -34 -21.5 -54t-51.5 -25l-47 -43 q-8 -8 -16 -15t-15 -12q-14 -12 -25 -23.5t-16 -22.5q-6 -12 -6 -26q0 -19 12.5 -34.5t35.5 -15.5q16 0 25 8t14 19q2 5 4.5 10.5t4.5 13.5q4 13 10.5 23.5t17.5 19.5q11 7 29 7q22 0 38.5 -15t16.5 -38q0 -34 -13 -64t-34 -51q-23 -23 -52.5 -35t-63.5 -12q-36 0 -66 12 t-52 35q-23 22 -35.5 51.5t-12.5 63.5q0 30 12.5 55.5t35.5 53.5q7 8 15 16.5t17 16.5h-575q-55 0 -80.5 28.5t-25.5 80.5v1100q-1 7 -2 15t-3 16q-4 13 -4 30z" />
<glyph unicode="&#x119;" horiz-adv-x="1126" d="M61 494q0 114 41.5 206t112.5 158q71 67 163 102.5t196 35.5t193.5 -37t156.5 -104t104 -156.5t37 -194.5q0 -18 -3 -30.5t-12 -19.5t-27 -10.5t-48 -3.5h-747q5 -65 33 -119.5t74 -97.5t103.5 -67t124.5 -24q62 0 121.5 22t106.5 65q15 10 36.5 12.5t40.5 -5.5 q18 -8 32 -24.5t14 -41.5q0 -12 -6 -27q-1 -3 -5 -9q-15 -24 -48 -46l-21 -20q-8 -8 -16 -14.5t-15 -11.5q-14 -12 -25 -23.5t-16 -22.5q-6 -12 -6 -27q0 -19 12 -34t36 -15q16 0 25 7.5t14 19.5q2 5 4.5 10.5t4.5 12.5q4 13 10 24t18 19q10 7 28 7q22 0 39 -14.5t17 -38.5 q0 -34 -13 -63.5t-35 -51.5q-23 -23 -52 -35t-63 -12q-36 0 -66 12.5t-52 34.5q-23 22 -35.5 51.5t-12.5 63.5q0 24 7 44q-40 -6 -80 -6q-104 0 -194 39.5t-159 106.5q-69 68 -108.5 158t-39.5 195zM228 555h673q-5 65 -32 120t-70 97q-44 42 -101.5 65t-123.5 23 q-68 0 -126.5 -23t-104.5 -65q-47 -42 -77 -97t-38 -120z" />
<glyph unicode="&#x11a;" horiz-adv-x="1088" d="M124 1265q0 15 10 24.5t41 9.5h789q43 0 64.5 -24t21.5 -53q0 -30 -20.5 -54.5t-63.5 -24.5h-672v-419h540q37 0 63 -27q11 -12 16 -29.5t-1 -37.5q-5 -27 -26 -43t-50 -16h-542v-414h662q19 0 37 -5t31 -15t21 -24.5t8 -36.5q0 -39 -28.5 -60t-65.5 -21h-720 q-55 0 -80.5 28.5t-25.5 80.5v1100q-1 7 -2 15t-3 16q-4 13 -4 30zM345.5 1661q1.5 16 15.5 31q24 24 53 15t58 -39l111 -110l110 111q29 30 58 37.5t52 -14.5q20 -22 15 -49t-26 -50l-172 -167q-18 -14 -41 -12t-41 20l-146 140q-11 12 -23 26.5t-18 29.5q-7 15 -5.5 31z " />
<glyph unicode="&#x11b;" horiz-adv-x="1126" d="M61 494q0 114 41.5 206t112.5 158q71 67 163 102.5t196 35.5t193.5 -37t156.5 -104t104 -156.5t37 -194.5q0 -18 -3 -30.5t-12 -19.5t-27 -10.5t-48 -3.5h-747q5 -65 33 -119.5t74 -97.5t103.5 -67t124.5 -24q62 0 121.5 22t106.5 65q15 10 36.5 12.5t40.5 -5.5 q18 -8 32 -24.5t14 -41.5q0 -31 -31.5 -60t-83.5 -53t-114 -38t-123 -14q-104 0 -194 39.5t-159 106.5q-69 68 -108.5 158t-39.5 195zM228 555h673q-5 65 -32 120t-70 97q-44 42 -101.5 65t-123.5 23q-68 0 -126.5 -23t-104.5 -65q-47 -42 -77 -97t-38 -120zM332.5 1338 q1.5 16 15.5 30q24 24 53 15t58 -38l110 -111l111 112q29 30 58 37.5t52 -15.5q20 -22 15 -49t-27 -49l-172 -167q-18 -14 -41 -12.5t-41 19.5l-145 140q-11 12 -23 26.5t-18 30.5q-7 15 -5.5 31z" />
<glyph unicode="&#x11c;" horiz-adv-x="1333" d="M61 646q0 135 51 253t141 208q89 89 207 140t254 51q81 0 147 -14t124 -42q58 -29 110 -71t105 -98q24 -27 24 -56q0 -27 -16.5 -47.5t-40.5 -26.5q-17 -5 -36 -3t-35 15q-44 41 -85.5 74.5t-87.5 57.5t-97 37.5t-112 13.5q-102 0 -191 -38.5t-156 -106.5 q-68 -68 -106 -156.5t-38 -191.5q0 -104 37 -193.5t102 -156.5q65 -68 152.5 -105t190.5 -37q68 0 130.5 29t113.5 77q39 36 68 79.5t46 90.5h-243q-35 0 -55 21.5t-22 45.5q-1 12 4 25.5t15 23.5t25 16.5t34 6.5h366q30 -2 47.5 -20t17.5 -56v-427q0 -30 -19.5 -49.5 t-49.5 -19.5q-32 0 -50 20.5t-18 52.5v180q-11 -19 -28 -41q-30 -41 -69.5 -79t-88.5 -68q-49 -31 -106 -48.5t-122 -17.5q-136 0 -251.5 50.5t-202.5 140.5q-87 89 -136.5 206.5t-49.5 253.5zM464.5 1444q-1.5 16 4.5 32q6 15 18 29.5t24 26.5l145 140q17 18 40.5 20 t41.5 -13l171 -167q23 -23 28 -49.5t-15 -48.5q-23 -23 -52 -15t-58 38l-112 111l-109 -110q-30 -30 -58.5 -38.5t-52.5 14.5q-14 14 -15.5 30z" />
<glyph unicode="&#x11d;" horiz-adv-x="1189" d="M62 494q0 104 35 194.5t100 159.5q65 68 150.5 107t190.5 39q72 0 136.5 -21.5t117.5 -53.5q52 -33 90 -72t56 -74q5 113 21 166q17 54 59 54q16 0 25.5 -12.5t14.5 -32.5q5 -19 5.5 -41.5t0.5 -41.5v-783q0 -112 -35.5 -199t-96.5 -148t-142 -93.5t-175 -32.5 q-39 0 -82.5 5.5t-78.5 18.5q-37 13 -61 33.5t-24 49.5q0 34 26 55q12 8 28 11t33 1l73 -15q36 -9 77 -7q87 3 148 31t98 83q36 55 49.5 136.5t7.5 196.5q-15 -43 -51 -81.5t-85 -68.5q-50 -30 -110.5 -47.5t-124.5 -17.5q-104 0 -190.5 39.5t-150.5 107.5 q-65 68 -100 158.5t-35 195.5zM229 494q0 -71 22.5 -134t65.5 -110t101 -75t130 -28q71 0 134 28t113 75q49 47 76.5 110t27.5 134t-28.5 132.5t-77.5 109.5t-113 76t-132 28q-72 0 -130 -27.5t-101 -74.5t-65.5 -109.5t-22.5 -134.5zM340.5 1147q-1.5 16 4.5 32 q6 15 18 29.5t24 26.5l145 140q17 18 40.5 20t41.5 -13l171 -167q23 -23 28 -49.5t-15 -48.5q-23 -23 -52 -15t-58 38l-111 111l-110 -110q-30 -30 -58.5 -38.5t-52.5 14.5q-14 14 -15.5 30z" />
<glyph unicode="&#x11e;" horiz-adv-x="1333" d="M61 646q0 135 51 253t141 208q89 89 207 140t254 51q81 0 147 -14t124 -42q58 -29 110 -71t105 -98q24 -27 24 -56q0 -27 -16.5 -47.5t-40.5 -26.5q-17 -5 -36 -3t-35 15q-44 41 -85.5 74.5t-87.5 57.5t-97 37.5t-112 13.5q-102 0 -191 -38.5t-156 -106.5 q-68 -68 -106 -156.5t-38 -191.5q0 -104 37 -193.5t102 -156.5q65 -68 152.5 -105t190.5 -37q68 0 130.5 29t113.5 77q39 36 68 79.5t46 90.5h-243q-35 0 -55 21.5t-22 45.5q-1 12 4 25.5t15 23.5t25 16.5t34 6.5h366q30 -2 47.5 -20t17.5 -56v-427q0 -30 -19.5 -49.5 t-49.5 -19.5q-32 0 -50 20.5t-18 52.5v180q-11 -19 -28 -41q-30 -41 -69.5 -79t-88.5 -68q-49 -31 -106 -48.5t-122 -17.5q-136 0 -251.5 50.5t-202.5 140.5q-87 89 -136.5 206.5t-49.5 253.5zM507 1611q0 27 17.5 45.5t43.5 18.5q20 0 30 -9.5t16 -25.5l10 -31 q4 -17 12 -32.5t24 -25.5q14 -10 46 -10q30 0 46 10t25 25q7 14 13 33q4 17 9.5 32t15.5 25q9 9 30 9q27 0 44 -18.5t17 -44.5q0 -40 -16.5 -74.5t-43.5 -59.5q-28 -26 -64.5 -40.5t-75.5 -14.5q-41 0 -77 14.5t-63 40.5q-28 26 -43.5 60t-15.5 73z" />
<glyph unicode="&#x11f;" horiz-adv-x="1189" d="M62 494q0 104 35 194.5t100 159.5q65 68 150.5 107t190.5 39q72 0 136.5 -21.5t117.5 -53.5q52 -33 90 -72t56 -74q5 113 21 166q17 54 59 54q16 0 25.5 -12.5t14.5 -32.5q5 -19 5.5 -41.5t0.5 -41.5v-783q0 -112 -35.5 -199t-96.5 -148t-142 -93.5t-175 -32.5 q-39 0 -82.5 5.5t-78.5 18.5q-37 13 -61 33.5t-24 49.5q0 34 26 55q12 8 28 11t33 1l73 -15q36 -9 77 -7q87 3 148 31t98 83q36 55 49.5 136.5t7.5 196.5q-15 -43 -51 -81.5t-85 -68.5q-50 -30 -110.5 -47.5t-124.5 -17.5q-104 0 -190.5 39.5t-150.5 107.5 q-65 68 -100 158.5t-35 195.5zM229 494q0 -71 22.5 -134t65.5 -110t101 -75t130 -28q71 0 134 28t113 75q49 47 76.5 110t27.5 134t-28.5 132.5t-77.5 109.5t-113 76t-132 28q-72 0 -130 -27.5t-101 -74.5t-65.5 -109.5t-22.5 -134.5zM390 1311q0 27 17.5 45.5t44.5 18.5 q20 0 30 -9.5t16 -25.5l9 -31q4 -17 12 -32.5t25 -25.5q14 -10 45 -10q30 0 46 10t25 25q7 14 13 33q4 17 9.5 32t15.5 25q9 9 30 9q27 0 44.5 -18.5t17.5 -44.5q0 -40 -16.5 -74.5t-44.5 -59.5q-28 -26 -64 -40.5t-76 -14.5q-41 0 -77 14.5t-62 40.5q-28 26 -44 60t-16 73z " />
<glyph unicode="&#x120;" horiz-adv-x="1333" d="M61 646q0 135 51 253t141 208q89 89 207 140t254 51q81 0 147 -14t124 -42q58 -29 110 -71t105 -98q24 -27 24 -56q0 -27 -16.5 -47.5t-40.5 -26.5q-17 -5 -36 -3t-35 15q-44 41 -85.5 74.5t-87.5 57.5t-97 37.5t-112 13.5q-102 0 -191 -38.5t-156 -106.5 q-68 -68 -106 -156.5t-38 -191.5q0 -104 37 -193.5t102 -156.5q65 -68 152.5 -105t190.5 -37q68 0 130.5 29t113.5 77q39 36 68 79.5t46 90.5h-243q-35 0 -55 21.5t-22 45.5q-1 12 4 25.5t15 23.5t25 16.5t34 6.5h366q30 -2 47.5 -20t17.5 -56v-427q0 -30 -19.5 -49.5 t-49.5 -19.5q-32 0 -50 20.5t-18 52.5v180q-11 -19 -28 -41q-30 -41 -69.5 -79t-88.5 -68q-49 -31 -106 -48.5t-122 -17.5q-136 0 -251.5 50.5t-202.5 140.5q-87 89 -136.5 206.5t-49.5 253.5zM593 1526q0 39 26.5 66.5t66.5 27.5q19 0 36.5 -7t31.5 -20q12 -13 19 -30.5 t7 -36.5q0 -39 -27.5 -65.5t-66.5 -26.5q-40 0 -66.5 26.5t-26.5 65.5z" />
<glyph unicode="&#x121;" horiz-adv-x="1189" d="M62 494q0 104 35 194.5t100 159.5q65 68 150.5 107t190.5 39q72 0 136.5 -21.5t117.5 -53.5q52 -33 90 -72t56 -74q5 113 21 166q17 54 59 54q16 0 25.5 -12.5t14.5 -32.5q5 -19 5.5 -41.5t0.5 -41.5v-783q0 -112 -35.5 -199t-96.5 -148t-142 -93.5t-175 -32.5 q-39 0 -82.5 5.5t-78.5 18.5q-37 13 -61 33.5t-24 49.5q0 34 26 55q12 8 28 11t33 1l73 -15q36 -9 77 -7q87 3 148 31t98 83q36 55 49.5 136.5t7.5 196.5q-15 -43 -51 -81.5t-85 -68.5q-50 -30 -110.5 -47.5t-124.5 -17.5q-104 0 -190.5 39.5t-150.5 107.5 q-65 68 -100 158.5t-35 195.5zM229 494q0 -71 22.5 -134t65.5 -110t101 -75t130 -28q71 0 134 28t113 75q49 47 76.5 110t27.5 134t-28.5 132.5t-77.5 109.5t-113 76t-132 28q-72 0 -130 -27.5t-101 -74.5t-65.5 -109.5t-22.5 -134.5zM495 1213q0 39 26.5 67t66.5 28 q19 0 36.5 -7.5t30.5 -19.5q12 -13 19.5 -30.5t7.5 -37.5q0 -39 -27.5 -65.5t-66.5 -26.5q-40 0 -66.5 26.5t-26.5 65.5z" />
<glyph unicode="&#x122;" horiz-adv-x="1333" d="M61 646q0 135 51 253t141 208q89 89 207 140t254 51q81 0 147 -14t124 -42q58 -29 110 -71t105 -98q24 -27 24 -56q0 -27 -16.5 -47.5t-40.5 -26.5q-17 -5 -36 -3t-35 15q-44 41 -85.5 74.5t-87.5 57.5t-97 37.5t-112 13.5q-102 0 -191 -38.5t-156 -106.5 q-68 -68 -106 -156.5t-38 -191.5q0 -104 37 -193.5t102 -156.5q65 -68 152.5 -105t190.5 -37q68 0 130.5 29t113.5 77q39 36 68 79.5t46 90.5h-243q-35 0 -55 21.5t-22 45.5q-1 12 4 25.5t15 23.5t25 16.5t34 6.5h366q30 -2 47.5 -20t17.5 -56v-427q0 -30 -19.5 -49.5 t-49.5 -19.5q-32 0 -50 20.5t-18 52.5v180q-11 -19 -28 -41q-30 -41 -69.5 -79t-88.5 -68q-49 -31 -106 -48.5t-122 -17.5q-136 0 -251.5 50.5t-202.5 140.5q-87 89 -136.5 206.5t-49.5 253.5zM578 -371q-2 14 2 46.5t11 65.5q6 42 34 75q12 14 29 22.5t39 8.5 q37 0 63.5 -25.5t22.5 -71.5q-11 -47 -30.5 -82t-40.5 -58q-22 -24 -43.5 -35.5t-35.5 -12.5q-18 0 -33.5 16t-17.5 51z" />
<glyph unicode="&#x123;" horiz-adv-x="1189" d="M62 494q0 104 35 194.5t100 159.5q65 68 150.5 107t190.5 39q72 0 136.5 -21.5t117.5 -53.5q52 -33 90 -72t56 -74q5 113 21 166q17 54 59 54q16 0 25.5 -12.5t14.5 -32.5q5 -19 5.5 -41.5t0.5 -41.5v-783q0 -112 -35.5 -199t-96.5 -148t-142 -93.5t-175 -32.5 q-39 0 -82.5 5.5t-78.5 18.5q-37 13 -61 33.5t-24 49.5q0 34 26 55q12 8 28 11t33 1l73 -15q36 -9 77 -7q87 3 148 31t98 83q36 55 49.5 136.5t7.5 196.5q-15 -43 -51 -81.5t-85 -68.5q-50 -30 -110.5 -47.5t-124.5 -17.5q-104 0 -190.5 39.5t-150.5 107.5 q-65 68 -100 158.5t-35 195.5zM229 494q0 -71 22.5 -134t65.5 -110t101 -75t130 -28q71 0 134 28t113 75q49 47 76.5 110t27.5 134t-28.5 132.5t-77.5 109.5t-113 76t-132 28q-72 0 -130 -27.5t-101 -74.5t-65.5 -109.5t-22.5 -134.5zM479 1227q11 47 30.5 81.5t41.5 58.5 t43 35.5t36 12.5q18 0 33.5 -16.5t17.5 -50.5q2 -14 -2 -46.5t-11 -65.5q-3 -22 -12 -40.5t-21 -33.5q-28 -33 -70 -33q-37 0 -63.5 26t-22.5 72z" />
<glyph unicode="&#x124;" horiz-adv-x="1297" d="M124 1267q0 14 10 23q9 9 47 9q58 0 85 -21t27 -59v-501h722v497q0 12 -3 26q-4 12 -4 26t12 23t50 9q23 0 42.5 -4t33.5 -13q31 -21 31 -63v-1133q0 -39 -22.5 -65t-58.5 -26q-39 0 -60 27.5t-21 63.5v471h-722v-472q0 -34 -20 -62t-61 -28t-61 28t-20 62v1130 q0 12 -3 26q-4 12 -4 26zM404 1454q-2 16 5 32q6 15 18 29.5t24 26.5l145 140q17 18 40 20t42 -12l171 -167q23 -23 28 -50t-16 -49q-23 -23 -52 -15t-57 38l-112 112l-110 -111q-30 -30 -58.5 -38.5t-51.5 14.5q-14 14 -16 30z" />
<glyph unicode="&#x125;" d="M-42.5 1434q-1.5 16 4.5 31t18 29.5t24 27.5l146 140q17 18 40 19.5t41 -12.5l171 -167q23 -23 28 -50t-15 -48q-23 -23 -52 -15t-58 37l-111 112l-110 -111q-30 -30 -58.5 -38.5t-52.5 15.5q-14 14 -15.5 30zM119 76v1145q0 34 22.5 57.5t58.5 23.5q33 0 57 -24t24 -57 v-461q14 33 45.5 72.5t77.5 74.5q49 38 114 63.5t141 25.5q101 0 185.5 -39t145.5 -107t95.5 -158.5t34.5 -194.5v-298v-119q0 -33 -21.5 -59t-59.5 -26q-20 0 -35 8t-25 22q-10 13 -15 29.5t-5 32.5v163v246q0 71 -24 133.5t-67 109.5t-102 74.5t-130 27.5 q-74 0 -137.5 -32.5t-112.5 -84.5q-49 -53 -77 -120t-28 -136v-392q0 -34 -24.5 -57.5t-56.5 -23.5q-36 0 -58.5 23.5t-22.5 57.5z" />
<glyph unicode="&#x126;" horiz-adv-x="1297" d="M42 971q0 26 17.5 44t41.5 18h30v182q0 12 -3 26q-4 12 -4 26t10 23q9 9 47 9q58 0 85 -21t27 -59v-186h722v182q0 12 -3 26q-4 12 -4 26t12 23t50 9q23 0 42.5 -4t33.5 -13q31 -22 31 -63v-186h31q25 0 42.5 -18.5t17.5 -43.5t-17.5 -44.5t-42.5 -19.5h-31v-821 q0 -39 -22.5 -65t-58.5 -26q-39 0 -60 27.5t-21 63.5v471h-722v-472q0 -34 -20 -62t-61 -28t-61 28t-20 62v822h-30q-25 0 -42 19.5t-17 44.5zM293 718h722v189h-722v-189z" />
<glyph unicode="&#x127;" d="M-121 1141q0 28 16.5 46t38.5 18h185v16q0 34 22.5 57.5t58.5 23.5q33 0 57 -24t24 -57v-16h186q24 0 39.5 -18.5t15.5 -45.5q0 -25 -16 -44.5t-39 -19.5h-186v-317q14 33 45.5 72.5t77.5 74.5q49 38 114 63.5t141 25.5q101 0 185.5 -39t145.5 -107t95.5 -158.5 t34.5 -194.5v-298v-119q0 -33 -21.5 -59t-59.5 -26q-20 0 -35 8t-25 22q-10 13 -15 29.5t-5 32.5v163v246q0 71 -24 133.5t-67 109.5t-102 74.5t-130 27.5q-74 0 -137.5 -32.5t-112.5 -84.5q-49 -53 -77 -120t-28 -136v-392q0 -34 -24.5 -57.5t-56.5 -23.5q-36 0 -58.5 23.5 t-22.5 57.5v1001h-185q-23 0 -39 19.5t-16 44.5z" />
<glyph unicode="&#x128;" horiz-adv-x="416" d="M-71 1550q2 7 5 14t6 12q26 47 65 71q17 12 41 18q20 6 43 6q34 0 57 -8.5t39 -21.5t29 -28q12 -15 24.5 -28t27.5 -21q14 -9 36 -10q12 0 22 5.5t20 13.5q5 4 10 9t12 11q10 11 28 24q10 10 28 10q17 0 30 -10t18 -29q4 -18 -9 -44q-26 -50 -66.5 -78t-98.5 -28 q-30 0 -50.5 8.5t-35.5 21.5q-15 11 -29 28q-12 15 -25.5 28t-28.5 22q-16 8 -37 8q-27 0 -41.5 -10t-25.5 -24t-21.5 -26t-26.5 -13q-9 -2 -22 2t-20 15q-13 23 -4 52zM124 1265q0 15 12 24t50 9q46 0 75.5 -17.5t31.5 -63.5v-1135q0 -15 -5 -31t-16 -28q-10 -12 -25.5 -20 t-34.5 -8q-20 0 -35.5 8.5t-25.5 22.5q-10 12 -15 27.5t-5 28.5v1131q0 13 -3 27q-4 11 -4 25z" />
<glyph unicode="&#x129;" horiz-adv-x="399" d="M-58 1240q2 7 4.5 14t5.5 12q26 47 65 70q17 12 41 19q20 6 43 6q34 0 57 -9t40 -21q16 -13 28 -28t24.5 -28t28.5 -22q14 -9 35 -9q12 0 22 5t20 14q5 4 10.5 9t11.5 11q11 11 29 24q10 10 27 10t30 -10.5t18 -28.5q4 -18 -9 -44q-26 -50 -66 -78.5t-99 -28.5 q-30 0 -50 9t-36 22q-15 11 -28 28q-12 15 -25.5 28t-29.5 22q-16 8 -37 8q-27 0 -41.5 -10t-25.5 -25q-11 -14 -21.5 -26t-25.5 -13q-9 -2 -22.5 2.5t-19.5 15.5q-13 23 -4 52zM119 76v839q0 34 22.5 57.5t58.5 23.5q33 0 57 -23.5t24 -57.5v-839q0 -34 -24.5 -57.5 t-56.5 -23.5q-36 0 -58.5 23.5t-22.5 57.5z" />
<glyph unicode="&#x12a;" horiz-adv-x="416" d="M-148 1498q0 27 17 45.5t42 18.5h575q25 0 42.5 -18.5t17.5 -45.5q0 -25 -17.5 -43.5t-42.5 -18.5h-575q-25 0 -42 19t-17 43zM124 1265q0 15 12 24t50 9q46 0 75.5 -17.5t31.5 -63.5v-1135q0 -15 -5 -31t-16 -28q-10 -12 -25.5 -20t-34.5 -8q-20 0 -35.5 8.5t-25.5 22.5 q-10 12 -15 27.5t-5 28.5v1131q0 13 -3 27q-4 11 -4 25z" />
<glyph unicode="&#x12b;" horiz-adv-x="399" d="M-146 1164q0 27 17 45.5t42 18.5h575q25 0 42.5 -18.5t17.5 -45.5q0 -25 -17.5 -43.5t-42.5 -18.5h-575q-25 0 -42 19t-17 43zM119 76v839q0 34 22.5 57.5t58.5 23.5q33 0 57 -23.5t24 -57.5v-839q0 -34 -24.5 -57.5t-56.5 -23.5q-36 0 -58.5 23.5t-22.5 57.5z" />
<glyph unicode="&#x12c;" horiz-adv-x="416" d="M10 1617q0 27 17.5 45.5t44.5 18.5q20 0 30 -9.5t16 -24.5l9 -32q4 -17 12 -32.5t25 -24.5q14 -10 45 -11q30 0 46 10t26 25q7 14 12 33q4 17 9.5 32t15.5 25q9 9 30 9q27 0 44.5 -18t17.5 -45q0 -40 -16.5 -74.5t-44.5 -59.5q-28 -26 -64 -40t-76 -14q-41 0 -77 14 t-62 40q-28 26 -44 60t-16 73zM124 1265q0 15 12 24t50 9q46 0 75.5 -17.5t31.5 -63.5v-1135q0 -15 -5 -31t-16 -28q-10 -12 -25.5 -20t-34.5 -8q-20 0 -35.5 8.5t-25.5 22.5q-10 12 -15 27.5t-5 28.5v1131q0 13 -3 27q-4 11 -4 25z" />
<glyph unicode="&#x12d;" horiz-adv-x="399" d="M-1 1323q0 27 17.5 46t43.5 19q20 0 30 -10t16 -25l10 -32q4 -17 12 -32.5t25 -24.5q14 -10 45 -11q30 0 46 10t25 25q7 14 13 33q4 17 9.5 32t15.5 25q9 9 30 10q27 0 44 -18.5t17 -45.5q0 -40 -16 -74.5t-44 -59.5q-28 -26 -64 -40t-76 -14q-41 0 -77 14t-63 40 q-28 26 -43.5 60t-15.5 73zM119 76v839q0 34 22.5 57.5t58.5 23.5q33 0 57 -23.5t24 -57.5v-839q0 -34 -24.5 -57.5t-56.5 -23.5q-36 0 -58.5 23.5t-22.5 57.5z" />
<glyph unicode="&#x12e;" horiz-adv-x="416" d="M4 -143q0 30 12.5 56t35.5 53q33 36 85 82q-6 17 -6 34v1131q0 13 -3 27q-4 11 -4 25q0 15 12 24t50 9q46 0 75.5 -17.5t31.5 -63.5v-1135q0 -15 -5 -31t-16 -28q-2 -2 -4.5 -5t-4.5 -5l-2 -2l-58 -53q-8 -8 -16 -14.5t-15 -12.5q-14 -12 -25 -23t-16 -23q-6 -12 -6 -26 q0 -19 12.5 -34t35.5 -15q16 0 25 7.5t14 18.5q2 5 4.5 11t4.5 13q4 13 10.5 24t17.5 19q11 7 29 7q22 0 38.5 -15t16.5 -38q0 -34 -13 -64t-34 -51q-23 -23 -52.5 -35t-63.5 -12q-36 0 -66 12t-52 35q-23 22 -35.5 51.5t-12.5 63.5z" />
<glyph unicode="&#x12f;" horiz-adv-x="399" d="M-3 -138q0 30 12.5 56t35.5 53q15 17 35 36.5t44 39.5q-5 15 -5 29v839q0 34 22.5 57.5t58.5 23.5q33 0 57 -23.5t24 -57.5v-839q0 -20 -9.5 -36.5t-23.5 -28.5l-52 -48q-8 -8 -16 -14.5t-15 -11.5q-14 -12 -25 -23.5t-16 -23.5q-6 -12 -6 -26q0 -19 12 -34t36 -15 q16 0 25 7.5t14 18.5q2 5 4.5 11t4.5 13q4 13 10 24t18 19q10 7 28 7q22 0 39 -15t17 -38q0 -34 -13 -63.5t-34 -51.5q-23 -23 -52.5 -35t-63.5 -12q-36 0 -66 12.5t-52 34.5q-23 22 -35.5 51.5t-12.5 63.5zM103 1248q0 39 27.5 66t66.5 27q19 0 36.5 -7t30.5 -19 q12 -13 20 -30t8 -37t-8 -37t-20 -29q-27 -26 -67 -26q-39 0 -66.5 26t-27.5 66z" />
<glyph unicode="&#x130;" horiz-adv-x="416" d="M111 1529q0 39 26.5 66.5t66.5 27.5q19 0 36.5 -7t30.5 -20q12 -13 19.5 -30.5t7.5 -36.5q0 -39 -27.5 -65.5t-66.5 -26.5q-40 0 -66.5 26.5t-26.5 65.5zM124 1265q0 15 12 24t50 9q46 0 75.5 -17.5t31.5 -63.5v-1135q0 -15 -5 -31t-16 -28q-10 -12 -25.5 -20t-34.5 -8 q-20 0 -35.5 8.5t-25.5 22.5q-10 12 -15 27.5t-5 28.5v1131q0 13 -3 27q-4 11 -4 25z" />
<glyph unicode="&#x131;" horiz-adv-x="398" d="M118 76v839q0 34 22.5 57.5t58.5 23.5q33 0 57 -23.5t24 -57.5v-839q0 -34 -24.5 -57.5t-56.5 -23.5q-36 0 -58.5 23.5t-22.5 57.5z" />
<glyph unicode="&#x132;" horiz-adv-x="862" d="M124 1265q0 15 12 24t50 9q46 0 75.5 -17.5t31.5 -63.5v-1135q0 -15 -5 -31t-16 -28q-10 -12 -25.5 -20t-34.5 -8q-20 0 -35.5 8.5t-25.5 22.5q-10 12 -15 27.5t-5 28.5v1131q0 13 -3 27q-4 11 -4 25zM332 -243q0 34 24 57.5t60 23.5q43 1 75.5 19.5t55.5 50.5 q22 31 33 73.5t11 91.5l-2 1123q0 17 -1 27t-3 16t-3 11.5t-1 14.5q0 13 11 24q11 9 49 9q56 0 84 -25t28 -89v-1020q0 -102 -17 -190.5t-57 -154.5q-40 -67 -105 -105t-161 -38q-34 0 -57.5 23.5t-23.5 57.5z" />
<glyph unicode="&#x133;" horiz-adv-x="784" d="M102 1248q0 39 27.5 66t66.5 27q19 0 36.5 -7t30.5 -19q12 -13 20 -30t8 -37t-8 -37t-20 -29q-28 -26 -67 -26t-66.5 26t-27.5 66zM118 76v839q0 34 22.5 57.5t58.5 23.5q33 0 57 -23.5t24 -57.5v-839q0 -34 -24.5 -57.5t-56.5 -23.5q-36 0 -58.5 23.5t-22.5 57.5z M247 -279q0 27 16 47t42 27q89 8 143 67.5t58 171.5v867q0 37 21 66t60 29q19 0 34.5 -8t25.5 -21t15.5 -30.5t5.5 -35.5v-790q0 -101 -18.5 -186.5t-58.5 -148.5q-41 -63 -105.5 -99t-157.5 -36q-33 0 -57 22.5t-24 57.5zM494 1247q0 39 26.5 66.5t66.5 27.5q19 0 36.5 -7 t30.5 -19q12 -13 19.5 -30.5t7.5 -37.5q0 -39 -27.5 -65.5t-66.5 -26.5q-40 0 -66.5 26.5t-26.5 65.5z" />
<glyph unicode="&#x134;" horiz-adv-x="410" d="M-126 -243q0 34 24 57.5t60 23.5q43 1 76 19.5t55 50.5q22 31 33 73.5t11 91.5l-2 1123q0 17 -1 27t-3 16t-3 11.5t-1 14.5q0 13 11 24q11 9 49 9q56 0 84 -25t28 -89v-1020q0 -102 -17 -190.5t-57 -154.5q-40 -67 -105 -105t-161 -38q-34 0 -57.5 23.5t-23.5 57.5z M-29 1439q-2 16 4 31t18 30t24 27l146 140q17 18 40 20t42 -13l171 -167q23 -23 28 -49.5t-16 -48.5q-23 -23 -52 -15t-58 38l-111 111l-110 -110q-30 -30 -58.5 -39t-51.5 15q-14 14 -16 30z" />
<glyph unicode="&#x135;" horiz-adv-x="400" d="M-139 -279q0 27 15.5 47t42.5 27q89 8 143 67.5t58 171.5v867q0 37 21 66t60 29q19 0 34.5 -8t25.5 -21t15.5 -30.5t5.5 -35.5v-790q0 -101 -18.5 -186.5t-58.5 -148.5q-41 -63 -105.5 -99t-157.5 -36q-33 0 -57 22.5t-24 57.5zM-33 1177q-2 16 4 31t18 30t24 27l146 140 q17 18 40 19.5t42 -12.5l171 -167q23 -23 27.5 -50t-15.5 -48q-23 -23 -52 -15t-58 37l-111 112l-110 -111q-30 -30 -58.5 -38.5t-51.5 15.5q-14 14 -16 30z" />
<glyph unicode="&#x136;" horiz-adv-x="1211" d="M124 1269q0 14 12 23q12 10 50 10q52 0 79.5 -26t27.5 -90v-519l707 598q26 22 46.5 28t39.5 1q20 -2 41 -16.5t24 -38.5q14 -56 -41 -99l-405 -331l430 -672q10 -17 16 -29t8 -21q2 -10 0 -20.5t-5 -22.5q-6 -22 -26 -37t-49 -15q-26 0 -46 13t-44 52l-408 653 l-289 -240l1 -359q0 -52 -19 -84t-62 -32q-46 0 -63.5 31t-17.5 84v1108q0 13 -3 26q-4 11 -4 25zM520 -367q-2 14 2 46.5t12 65.5q6 42 33 75q12 14 29.5 23t39.5 9q37 0 63.5 -26t22.5 -72q-11 -47 -30.5 -81.5t-41.5 -58.5t-43 -35.5t-36 -12.5q-18 0 -33.5 16.5 t-17.5 50.5z" />
<glyph unicode="&#x137;" horiz-adv-x="1113" d="M119 76v1145q0 34 22.5 57.5t58.5 23.5q33 0 57 -24t24 -57v-748l542 426q31 24 64.5 49t66.5 46q11 5 25 9.5t29 2.5q20 -4 37 -19.5t21 -39.5q3 -17 1 -30t-10 -25q-8 -13 -20 -25.5t-26 -23.5l-26 -20l-245 -192l310 -506q13 -17 16 -36.5t-2 -37.5q-6 -18 -20.5 -32 t-35.5 -18q-14 -6 -27 -4t-25 9q-11 6 -19.5 15t-14.5 17l-308 499q-46 -36 -89.5 -70.5t-84.5 -66.5q-41 -33 -81 -64t-78 -63v-197q0 -34 -24.5 -57.5t-56.5 -23.5q-36 0 -58.5 23.5t-22.5 57.5zM480 -283q-2 14 2 46.5t12 65.5q6 42 33 75q12 14 29.5 22.5t39.5 8.5 q37 0 63.5 -25.5t22.5 -71.5q-11 -47 -30.5 -82t-41.5 -58q-22 -24 -43 -35.5t-36 -12.5q-18 0 -33.5 16.5t-17.5 50.5z" />
<glyph unicode="&#x138;" horiz-adv-x="1113" d="M119 76v839q0 33 22.5 57t58.5 24q33 0 57 -24t24 -57v-442l542 426q15 11 31 24t33 26q16 13 33 24t34 21q12 5 25.5 9.5t28.5 2.5q20 -4 37 -19.5t21 -39.5q3 -17 1 -30t-10 -25q-8 -13 -20 -25.5t-26 -23.5l-26 -20l-245 -192l312 -509q18 -26 18 -50q0 -29 -24 -54 q-25 -25 -58 -24q-14 0 -28 9.5t-26 24.5q-7 7 -13.5 15t-11.5 16t-10.5 16.5t-10.5 16.5l-274 445q-46 -36 -89.5 -70.5t-84.5 -66.5q-41 -33 -81 -64t-78 -63v-197q0 -34 -24.5 -57.5t-56.5 -23.5q-36 0 -58.5 23.5t-22.5 57.5z" />
<glyph unicode="&#x139;" horiz-adv-x="1105" d="M124 1270q0 15 12 24t50 10q53 0 80 -26t27 -91v-1025h674q13 0 27.5 -5t26.5 -16q11 -10 19 -25t8 -34q0 -39 -25 -60.5t-54 -21.5h-730q-49 1 -78.5 31.5t-29.5 80.5v1107q0 13 -3 26q-4 11 -4 25zM142 1461q-3 12 2 29q1 8 18.5 32t42.5 50q24 25 50 44.5t46 19.5 q37 0 57.5 -24t15.5 -59q-2 -15 -23.5 -38t-48.5 -45q-28 -22 -53.5 -37t-35.5 -16q-18 -4 -37 3q-29 7 -34 41z" />
<glyph unicode="&#x13a;" horiz-adv-x="399" d="M119 76v1145q0 34 22.5 57.5t58.5 23.5q33 0 57 -24t24 -57v-1145q0 -34 -24.5 -57.5t-56.5 -23.5q-36 0 -58.5 23.5t-22.5 57.5zM177 1435q-3 12 2 28q1 8 18.5 32.5t42.5 49.5q24 25 50 45t46 20q37 0 57.5 -24t15.5 -59q-2 -15 -23.5 -38.5t-48.5 -44.5 q-28 -22 -53.5 -37t-35.5 -16q-18 -4 -37 3q-29 7 -34 41z" />
<glyph unicode="&#x13b;" horiz-adv-x="1105" d="M124 1270q0 15 12 24t50 10q53 0 80 -26t27 -91v-1025h674q13 0 27.5 -5t26.5 -16q11 -10 19 -25t8 -34q0 -39 -25 -60.5t-54 -21.5h-730q-49 1 -78.5 31.5t-29.5 80.5v1107q0 13 -3 26q-4 11 -4 25zM450 -382q-2 14 2 46.5t11 65.5q6 42 34 74q12 14 29 23t39 9 q37 0 63.5 -25.5t22.5 -71.5q-11 -47 -30.5 -82t-40.5 -58q-22 -24 -43.5 -36t-35.5 -13q-18 0 -33.5 16.5t-17.5 51.5z" />
<glyph unicode="&#x13c;" horiz-adv-x="399" d="M81 -334q-2 14 2 46.5t11 65.5q6 42 34 75q12 14 29.5 22.5t39.5 8.5q37 0 63.5 -25.5t22.5 -71.5q-11 -47 -31 -82t-41 -58q-22 -24 -43.5 -35.5t-35.5 -12.5q-18 0 -33.5 16t-17.5 51zM119 76v1145q0 34 22.5 57.5t58.5 23.5q33 0 57 -24t24 -57v-1145 q0 -34 -24.5 -57.5t-56.5 -23.5q-36 0 -58.5 23.5t-22.5 57.5z" />
<glyph unicode="&#x13d;" horiz-adv-x="1105" d="M-25 1651q1 16 16 30q24 24 53 15.5t57 -38.5l111 -111l111 112q29 30 58 37.5t51 -15.5q20 -22 15 -48.5t-26 -49.5l-172 -167q-18 -14 -41 -12.5t-41 19.5l-145 141q-11 12 -23 26.5t-18 29.5q-7 15 -6 31zM124 1270q0 15 12 24t50 10q53 0 80 -26t27 -91v-1025h674 q13 0 27.5 -5t26.5 -16q11 -10 19 -25t8 -34q0 -39 -25 -60.5t-54 -21.5h-730q-49 1 -78.5 31.5t-29.5 80.5v1107q0 13 -3 26q-4 11 -4 25z" />
<glyph unicode="&#x13e;" horiz-adv-x="399" d="M119 76v1145q0 34 22.5 57.5t58.5 23.5q33 0 57 -24t24 -57v-1145q0 -34 -24.5 -57.5t-56.5 -23.5q-36 0 -58.5 23.5t-22.5 57.5zM333 1179q-1 13 2.5 34t10.5 45q6 24 17 48.5t25 44.5q14 19 32.5 31.5t41.5 12.5q35 0 60 -21t29 -53q5 -27 -9.5 -61.5t-37.5 -65.5 q-25 -32 -55 -54t-58 -22q-27 0 -42.5 14t-15.5 47z" />
<glyph unicode="&#x13f;" horiz-adv-x="1105" d="M124 1270q0 15 12 24t50 10q53 0 80 -26t27 -91v-1025h674q13 0 27.5 -5t26.5 -16q11 -10 19 -25t8 -34q0 -39 -25 -60.5t-54 -21.5h-730q-49 1 -78.5 31.5t-29.5 80.5v1107q0 13 -3 26q-4 11 -4 25zM532 609q0 40 28 68q27 27 66 26q19 0 36.5 -7t30.5 -19 q12 -13 20 -30.5t8 -37.5q0 -19 -7.5 -36t-20.5 -29t-30.5 -19.5t-36.5 -7.5q-39 0 -66.5 26.5t-27.5 65.5z" />
<glyph unicode="&#x140;" horiz-adv-x="480" d="M119 76v1145q0 34 22.5 57.5t58.5 23.5q33 0 57 -24t24 -57v-1145q0 -34 -24.5 -57.5t-56.5 -23.5q-36 0 -58.5 23.5t-22.5 57.5zM354 651q0 40 28 68q27 27 65 26q19 0 37 -7t31 -19q12 -13 20 -30.5t8 -37.5q0 -19 -8 -36t-20 -29q-13 -12 -30.5 -19.5t-37.5 -7.5 q-39 0 -66 26.5t-27 65.5z" />
<glyph unicode="&#x141;" horiz-adv-x="1105" d="M-62 525q11 31 42 45l151 76v573q0 13 -3 26q-4 11 -4 25q0 15 12 24t50 10q53 0 80 -26t27 -91v-461l84 42q30 15 61 5.5t46 -42.5q15 -30 4.5 -61.5t-39.5 -45.5l-156 -77v-385h674q13 0 27.5 -5.5t26.5 -15.5q11 -10 19 -25t8 -34q0 -39 -25 -60.5t-54 -21.5h-730 q-49 1 -78.5 31.5t-29.5 80.5v354l-81 -40q-15 -8 -31 -8.5t-30 4.5t-27 15t-20 25q-15 32 -4 63z" />
<glyph unicode="&#x142;" horiz-adv-x="403" d="M-63.5 554q6.5 24 28.5 35l154 82v550q0 34 22.5 57.5t58.5 23.5q33 0 57 -24t24 -57v-464l89 47q23 11 47 2.5t35 -32.5q11 -23 3 -47.5t-29 -35.5l-145 -77v-538q0 -34 -24.5 -57.5t-56.5 -23.5q-36 0 -58.5 23.5t-22.5 57.5v452l-97 -52q-12 -5 -23 -5q-25 0 -44 16 q-10 8 -14 19q-11 24 -4.5 48z" />
<glyph unicode="&#x143;" horiz-adv-x="1395" d="M124 1267q0 14 12 23q13 8 50 8q38 0 60 -11.5t45 -35.5l819 -960v920q0 18 -4 28q-4 9 -4 26q0 8 2 14.5t10 10.5q8 5 23 6q7 1 16.5 1.5t23.5 0.5q49 0 71.5 -22t22.5 -61v-1134q0 -35 -21.5 -60.5t-58.5 -25.5q-26 0 -48.5 18t-37.5 35l-813 947v-919q0 -35 -23 -58 t-57 -23q-36 0 -58.5 23.5t-22.5 55.5v1139q0 15 -3 26q-4 9 -4 28zM625 1441q-3 12 2 28q1 8 18.5 32.5t41.5 49.5t50 45t46 20q37 0 57.5 -24t15.5 -59q-2 -15 -23.5 -38.5t-48.5 -44.5q-28 -22 -53 -37t-36 -16q-18 -4 -37 3q-29 7 -33 41z" />
<glyph unicode="&#x144;" d="M119 76v877q0 43 43 43q14 0 27.5 -5t25.5 -19q25 -30 31 -96l9 -82q26 35 62 68t82 60q55 33 118.5 52.5t133.5 19.5q104 0 190 -39t148 -107t96.5 -159t34.5 -193v-419q0 -30 -21 -54q-10 -12 -25 -20t-34 -8q-35 0 -58 23.5t-23 58.5v417q0 72 -24 134.5t-67 109.5 t-102 74.5t-130 27.5t-134.5 -28.5t-112.5 -77.5t-78.5 -112t-29.5 -132v-414q0 -34 -24.5 -57.5t-56.5 -23.5q-36 0 -58.5 23.5t-22.5 57.5zM580 1196q-3 12 2 29q1 8 18 32t42 50q24 25 50 44.5t46 19.5q37 0 57.5 -24t15.5 -59q-2 -15 -23.5 -38t-48.5 -45 q-28 -22 -53.5 -37t-35.5 -16q-19 -4 -37 3q-29 7 -33 41z" />
<glyph unicode="&#x145;" horiz-adv-x="1395" d="M124 1267q0 14 12 23q13 8 50 8q38 0 60 -11.5t45 -35.5l819 -960v920q0 18 -4 28q-4 9 -4 26q0 8 2 14.5t10 10.5q8 5 23 6q7 1 16.5 1.5t23.5 0.5q49 0 71.5 -22t22.5 -61v-1134q0 -35 -21.5 -60.5t-58.5 -25.5q-26 0 -48.5 18t-37.5 35l-813 947v-919q0 -35 -23 -58 t-57 -23q-36 0 -58.5 23.5t-22.5 55.5v1139q0 15 -3 26q-4 9 -4 28zM626 -392q-2 14 2 46.5t11 64.5q6 42 34 75q12 14 29 23t39 9q37 0 63.5 -25.5t22.5 -71.5q-11 -47 -30.5 -82t-40.5 -59q-22 -24 -43.5 -35.5t-35.5 -12.5q-18 0 -33.5 16.5t-17.5 51.5z" />
<glyph unicode="&#x146;" d="M119 76v877q0 43 43 43q14 0 27.5 -5t25.5 -19q25 -30 31 -96l9 -82q26 35 62 68t82 60q55 33 118.5 52.5t133.5 19.5q104 0 190 -39t148 -107t96.5 -159t34.5 -193v-419q0 -30 -21 -54q-10 -12 -25 -20t-34 -8q-35 0 -58 23.5t-23 58.5v417q0 72 -24 134.5t-67 109.5 t-102 74.5t-130 27.5t-134.5 -28.5t-112.5 -77.5t-78.5 -112t-29.5 -132v-414q0 -34 -24.5 -57.5t-56.5 -23.5q-36 0 -58.5 23.5t-22.5 57.5zM532 -323q-2 14 2.5 46.5t11.5 65.5q6 42 34 75q12 14 29 23t39 9q37 0 63.5 -26t22.5 -72q-11 -47 -30.5 -81.5t-40.5 -58.5 q-22 -24 -43.5 -35.5t-35.5 -12.5q-18 0 -33.5 16.5t-18.5 50.5z" />
<glyph unicode="&#x147;" horiz-adv-x="1395" d="M124 1267q0 14 12 23q13 8 50 8q38 0 60 -11.5t45 -35.5l819 -960v920q0 18 -4 28q-4 9 -4 26q0 8 2 14.5t10 10.5q8 5 23 6q7 1 16.5 1.5t23.5 0.5q49 0 71.5 -22t22.5 -61v-1134q0 -35 -21.5 -60.5t-58.5 -25.5q-26 0 -48.5 18t-37.5 35l-813 947v-919q0 -35 -23 -58 t-57 -23q-36 0 -58.5 23.5t-22.5 55.5v1139q0 15 -3 26q-4 9 -4 28zM480.5 1649q1.5 16 16.5 30q24 24 53 15.5t57 -38.5l111 -111l110 112q29 30 58 37.5t52 -15.5q20 -22 15 -48.5t-26 -49.5l-172 -167q-18 -14 -41 -12.5t-41 19.5l-146 141q-11 12 -22.5 26.5t-18.5 29.5 t-5.5 31z" />
<glyph unicode="&#x148;" d="M119 76v877q0 43 43 43q14 0 27.5 -5t25.5 -19q25 -30 31 -96l9 -82q26 35 62 68t82 60q55 33 118.5 52.5t133.5 19.5q104 0 190 -39t148 -107t96.5 -159t34.5 -193v-419q0 -30 -21 -54q-10 -12 -25 -20t-34 -8q-35 0 -58 23.5t-23 58.5v417q0 72 -24 134.5t-67 109.5 t-102 74.5t-130 27.5t-134.5 -28.5t-112.5 -77.5t-78.5 -112t-29.5 -132v-414q0 -34 -24.5 -57.5t-56.5 -23.5q-36 0 -58.5 23.5t-22.5 57.5zM407.5 1378q1.5 16 15.5 30q24 24 53 15t58 -39l110 -110l111 111q29 30 58 38t51 -15q20 -22 15 -49t-26 -49l-172 -167 q-18 -14 -41 -12.5t-41 19.5l-145 140q-11 12 -23 26.5t-18 30.5q-7 15 -5.5 31z" />
<glyph unicode="&#x149;" d="M23 1065q-2 27 11 74q6 23 16 45t24 41q12 18 29.5 29.5t37.5 11.5q33 0 56 -19.5t27 -49.5q4 -25 -9 -57t-35 -61q-23 -29 -51 -49t-53 -20t-39 12.5t-14 42.5zM119 76v877q0 43 43 43q14 0 27.5 -5t25.5 -19q25 -30 31 -96l9 -82q26 35 62 68t82 60q55 33 118.5 52.5 t133.5 19.5q104 0 190 -39t148 -107t96.5 -159t34.5 -193v-419q0 -30 -21 -54q-10 -12 -25 -20t-34 -8q-35 0 -58 23.5t-23 58.5v417q0 72 -24 134.5t-67 109.5t-102 74.5t-130 27.5t-134.5 -28.5t-112.5 -77.5t-78.5 -112t-29.5 -132v-414q0 -34 -24.5 -57.5t-56.5 -23.5 q-36 0 -58.5 23.5t-22.5 57.5z" />
<glyph unicode="&#x14a;" horiz-adv-x="1395" d="M124 1262q0 14 12 23q13 8 50 8q38 0 60 -11.5t45 -35.5l819 -960v920q0 18 -4 28q-4 9 -4 26q0 8 2 14.5t10 10.5q8 5 23 6q7 1 17 1.5t23 0.5q49 0 71.5 -22t22.5 -61v-1046v-88q0 -5 -0.5 -10.5t-1.5 -10.5q-2 -30 -5 -56.5t-10 -52.5q-15 -61 -41.5 -110t-65.5 -85 q-40 -36 -93.5 -55.5t-121.5 -19.5q-34 0 -57.5 24t-23.5 57q0 34 24 57.5t60 23.5q43 1 75.5 19.5t55.5 50.5q35 50 43 131q-2 1 -2.5 2t-1.5 2l-813 947v-919q0 -35 -23 -58t-57 -23q-36 0 -58.5 23.5t-22.5 55.5v1139q0 15 -3 26q-4 9 -4 28z" />
<glyph unicode="&#x14b;" horiz-adv-x="1250" d="M124 76v877q0 43 43 43q14 0 27.5 -5t25.5 -19q25 -30 31 -96l9 -82q26 35 62 68t82 60q55 33 118.5 52.5t133.5 19.5q104 0 190 -39t148 -107t96.5 -159t34.5 -193v-330v-48q0 -108 -18 -192t-58 -142q-41 -58 -105 -89.5t-158 -31.5q-34 0 -57 23t-23 58q0 27 15.5 47 t42.5 27q89 8 143 67.5t58 170.5v254v184q0 72 -24.5 134.5t-67.5 109.5t-102 74.5t-130 27.5t-134.5 -28.5t-112.5 -77.5t-78.5 -112t-29.5 -132v-414q0 -34 -24 -57.5t-57 -23.5q-36 0 -58.5 23.5t-22.5 57.5z" />
<glyph unicode="&#x14c;" horiz-adv-x="1427" d="M61 646q0 135 51 253t141 208q89 89 207 140t254 51q135 0 252 -51t208 -140q89 -90 140 -208t51 -253q0 -136 -51 -253.5t-140 -206.5q-90 -90 -207.5 -140.5t-252.5 -50.5q-136 0 -254 50.5t-207 140.5q-90 89 -141 206.5t-51 253.5zM223 645q0 -102 38 -190t106 -156 t156 -106.5t191 -38.5q102 0 190 38.5t156 106.5t105.5 156.5t37.5 190.5t-38 191t-105 156q-68 68 -156 106.5t-190 38.5t-191 -38.5t-156 -106.5q-68 -68 -106 -157t-38 -191zM375 1478q0 27 17 45t42 18h576q25 0 42 -18.5t17 -44.5q0 -25 -17.5 -44t-41.5 -19h-576 q-25 0 -42 19t-17 44z" />
<glyph unicode="&#x14d;" horiz-adv-x="1125" d="M61 496q0 102 39.5 193t108.5 160t159 108t194 39t195 -39t159 -108t107.5 -160t39.5 -193q0 -104 -39.5 -195t-107.5 -159q-69 -69 -159 -108t-195 -39q-104 0 -194 39.5t-159 107.5t-108.5 159t-39.5 195zM226 496q0 -72 26 -135t72 -110t107 -74t131 -27q71 0 132 27 t107 74t71.5 110t25.5 135q0 71 -25.5 133.5t-71.5 109.5t-107 74.5t-132 27.5t-131.5 -27.5t-106.5 -74.5t-72 -109.5t-26 -133.5zM228 1175q0 27 17.5 45t42.5 18h575q25 0 42.5 -18.5t17.5 -44.5q0 -25 -17.5 -44t-42.5 -19h-575q-25 0 -42.5 19t-17.5 44z" />
<glyph unicode="&#x14e;" horiz-adv-x="1427" d="M61 646q0 135 51 253t141 208q89 89 207 140t254 51q135 0 252 -51t208 -140q89 -90 140 -208t51 -253q0 -136 -51 -253.5t-140 -206.5q-90 -90 -207.5 -140.5t-252.5 -50.5q-136 0 -254 50.5t-207 140.5q-90 89 -141 206.5t-51 253.5zM223 645q0 -102 38 -190t106 -156 t156 -106.5t191 -38.5q102 0 190 38.5t156 106.5t105.5 156.5t37.5 190.5t-38 191t-105 156q-68 68 -156 106.5t-190 38.5t-191 -38.5t-156 -106.5q-68 -68 -106 -157t-38 -191zM511 1620q0 27 17.5 45.5t43.5 18.5q20 0 30 -9.5t16 -24.5l10 -32q4 -17 12 -32.5t25 -24.5 q14 -10 45 -11q30 0 46 10t25 25q7 14 13 33q4 17 9.5 32t15.5 25q9 9 30 9q27 0 44 -18t17 -45q0 -40 -16 -74.5t-44 -59.5q-28 -26 -64 -40t-76 -14q-41 0 -77 14t-63 40q-28 26 -43.5 60t-15.5 73z" />
<glyph unicode="&#x14f;" horiz-adv-x="1125" d="M61 496q0 102 39.5 193t108.5 160t159 108t194 39t195 -39t159 -108t107.5 -160t39.5 -193q0 -104 -39.5 -195t-107.5 -159q-69 -69 -159 -108t-195 -39q-104 0 -194 39.5t-159 107.5t-108.5 159t-39.5 195zM226 496q0 -72 26 -135t72 -110t107 -74t131 -27q71 0 132 27 t107 74t71.5 110t25.5 135q0 71 -25.5 133.5t-71.5 109.5t-107 74.5t-132 27.5t-131.5 -27.5t-106.5 -74.5t-72 -109.5t-26 -133.5zM366 1310q0 27 17 45.5t44 18.5q20 0 30 -9.5t16 -25.5l9 -31q4 -17 12.5 -32.5t24.5 -25.5q14 -10 45 -10q30 0 46.5 10t25.5 25 q7 14 12 33q4 17 10 32t16 25q9 9 29 9q27 0 44.5 -18.5t17.5 -44.5q0 -40 -16.5 -74.5t-43.5 -59.5q-28 -26 -64.5 -40.5t-76.5 -14.5q-41 0 -76.5 14.5t-62.5 40.5q-28 26 -43.5 60t-15.5 73z" />
<glyph unicode="&#x150;" horiz-adv-x="1427" d="M61 646q0 135 51 253t141 208q89 89 207 140t254 51q135 0 252 -51t208 -140q89 -90 140 -208t51 -253q0 -136 -51 -253.5t-140 -206.5q-90 -90 -207.5 -140.5t-252.5 -50.5q-136 0 -254 50.5t-207 140.5q-90 89 -141 206.5t-51 253.5zM223 645q0 -102 38 -190t106 -156 t156 -106.5t191 -38.5q102 0 190 38.5t156 106.5t105.5 156.5t37.5 190.5t-38 191t-105 156q-68 68 -156 106.5t-190 38.5t-191 -38.5t-156 -106.5q-68 -68 -106 -157t-38 -191zM446 1474q-2 14 4 28q1 8 14 32.5t35 49.5t49 45t58 20q33 0 54 -25q22 -26 18 -58 q-2 -24 -23.5 -48t-48.5 -43q-28 -19 -53.5 -31.5t-35.5 -13.5q-18 -5 -36 3q-30 8 -35 41zM822.5 1487.5q1.5 7.5 3.5 14.5q1 8 14.5 32.5t35.5 49.5t49 45t57 20q34 0 55 -25q22 -26 18 -58q-2 -24 -23.5 -48t-48.5 -43q-28 -19 -53.5 -31.5t-35.5 -13.5q-18 -4 -37 3 q-29 7 -34 41q-2 6 -0.5 13.5z" />
<glyph unicode="&#x151;" horiz-adv-x="1125" d="M61 496q0 102 39.5 193t108.5 160t159 108t194 39t195 -39t159 -108t107.5 -160t39.5 -193q0 -104 -39.5 -195t-107.5 -159q-69 -69 -159 -108t-195 -39q-104 0 -194 39.5t-159 107.5t-108.5 159t-39.5 195zM226 496q0 -72 26 -135t72 -110t107 -74t131 -27q71 0 132 27 t107 74t71.5 110t25.5 135q0 71 -25.5 133.5t-71.5 109.5t-107 74.5t-132 27.5t-131.5 -27.5t-106.5 -74.5t-72 -109.5t-26 -133.5zM312 1161q-2 14 3 29q1 8 14.5 32t35.5 50q22 25 49 44.5t58 19.5q33 0 54 -24q22 -26 18 -59q-2 -24 -23.5 -47.5t-48.5 -43.5 q-28 -19 -53.5 -31.5t-35.5 -13.5q-18 -5 -36 3q-30 8 -35 41zM688.5 1175q1.5 8 3.5 15q1 8 14.5 32t34.5 50q22 25 49.5 44.5t57.5 19.5q34 0 55 -24q22 -26 18 -59q-2 -24 -23.5 -47.5t-48.5 -43.5q-28 -19 -53.5 -31.5t-35.5 -13.5q-18 -4 -37 3q-29 7 -34 41 q-2 6 -0.5 14z" />
<glyph unicode="&#x152;" horiz-adv-x="2195" d="M61 646q0 135 51 253t141 208q89 89 207 140t254 51q135 0 252 -51t208 -140q11 -11 21.5 -23t21.5 -25v145q-1 7 -2.5 15t-3.5 16q-4 13 -4 30q0 15 10.5 24.5t40.5 9.5h789q43 0 64.5 -24t21.5 -53q0 -30 -20.5 -54.5t-63.5 -24.5h-672v-419h540q18 0 34.5 -7t28.5 -20 q11 -12 16 -29.5t0 -37.5q-5 -27 -26 -43t-51 -16h-542v-414h663q19 0 36.5 -5t30.5 -15t21 -25t8 -36q0 -39 -28 -60t-65 -21h-721q-55 0 -80 28.5t-25 80.5v129q-10 -12 -21 -23.5t-22 -23.5q-90 -90 -207.5 -140.5t-252.5 -50.5q-136 0 -254 50.5t-207 140.5 q-90 89 -141 206.5t-51 253.5zM223 645q0 -102 38 -190t106 -156t156 -106.5t191 -38.5q102 0 190 38.5t156 106.5t105.5 156.5t37.5 190.5t-38 191t-105 156q-68 68 -156 106.5t-190 38.5t-191 -38.5t-156 -106.5q-68 -68 -106 -156.5t-38 -191.5z" />
<glyph unicode="&#x153;" horiz-adv-x="1947" d="M62 496q0 102 39.5 193t108.5 160t159 108t194 39t195 -39t160 -108q33 -32 58 -71q17 27 36.5 51t42.5 44q71 67 163 103t196 36t193 -37.5t156 -104.5t104.5 -156t37.5 -195q0 -18 -3.5 -30.5t-12.5 -19.5t-27 -10t-47 -3h-747q5 -65 32.5 -119.5t74.5 -97.5 q46 -43 103 -67.5t125 -24.5q62 0 121.5 22t105.5 65q15 10 37 13t41 -5q18 -8 32 -24.5t14 -42.5q0 -31 -31.5 -60t-84.5 -53q-52 -24 -113.5 -38t-122.5 -14q-104 0 -194.5 39.5t-158.5 107.5q-33 33 -62 72q-14 -24 -31.5 -45t-37.5 -42q-69 -69 -159.5 -108t-195.5 -39 q-104 0 -194 39.5t-159 107.5t-108.5 158.5t-39.5 195.5zM227 496q0 -72 26 -135t72 -110t107 -74t131 -27q71 0 132 27t107 74t71.5 110t25.5 135q0 71 -25.5 133.5t-71.5 109.5t-107 74.5t-132 27.5t-131.5 -27.5t-106.5 -74.5t-72 -110t-26 -133zM1068 570h673 q-5 65 -32.5 120t-70.5 97q-44 42 -101 65.5t-123 23.5q-68 0 -126.5 -23.5t-104.5 -65.5q-47 -42 -77.5 -97t-37.5 -120z" />
<glyph unicode="&#x154;" horiz-adv-x="1104" d="M124 1270q0 15 12 24t50 10h348q108 0 202 -37.5t166 -105.5q71 -68 113 -159t42 -198q0 -108 -42 -195t-113 -151q-28 -25 -56 -43l190 -296q18 -25 15 -57t-32 -53q-29 -20 -60 -14t-52 34l-198 321q-42 -12 -85.5 -18.5t-89.5 -6.5h-241v-249q0 -34 -23.5 -57.5 t-57.5 -23.5t-57.5 23.5t-23.5 57.5v1143q0 13 -3 26q-4 12 -4 25zM291 471h243q75 0 140.5 23.5t116.5 66.5q49 43 77.5 104t28.5 136t-28.5 139.5t-77.5 111.5q-50 47 -116.5 74t-140.5 27h-243v-682zM462 1483q-3 12 2 28q1 8 18.5 32.5t41.5 49.5t50 45t47 20 q37 0 57 -24t15 -59q-2 -15 -23.5 -38.5t-47.5 -44.5q-28 -22 -53.5 -37t-36.5 -16q-18 -4 -36 3q-29 7 -34 41z" />
<glyph unicode="&#x155;" horiz-adv-x="830" d="M119 76v877q0 43 43 43q14 0 27.5 -5t25.5 -19q25 -30 31 -96l8 -76q15 23 38 47.5t53 48.5q37 30 85 55t105 36q30 4 73 3.5t83 -9.5q40 -10 68 -30.5t28 -55.5q0 -24 -14 -40.5t-34 -24.5q-10 -3 -20 -3q-9 0 -20 1t-25 3q-15 2 -41 3.5t-56 1.5q-32 -1 -70 -13 t-77 -39q-81 -56 -122 -149q-19 -47 -27 -101v-458q0 -34 -24.5 -57.5t-56.5 -23.5q-36 0 -58.5 23.5t-22.5 57.5zM349 1162q-3 12 2 29q1 8 18.5 32t42.5 50q24 25 49.5 44.5t46.5 19.5q37 0 57.5 -24t15.5 -59q-2 -15 -23.5 -38t-48.5 -45q-28 -22 -53.5 -37t-35.5 -16 q-19 -4 -37 3q-29 7 -34 41z" />
<glyph unicode="&#x156;" horiz-adv-x="1104" d="M124 1270q0 15 12 24t50 10h348q108 0 202 -37.5t166 -105.5q71 -68 113 -159t42 -198q0 -108 -42 -195t-113 -151q-28 -25 -56 -43l190 -296q18 -25 15 -57t-32 -53q-29 -20 -60 -14t-52 34l-198 321q-42 -12 -85.5 -18.5t-89.5 -6.5h-241v-249q0 -34 -23.5 -57.5 t-57.5 -23.5t-57.5 23.5t-23.5 57.5v1143q0 13 -3 26q-4 12 -4 25zM291 471h243q75 0 140.5 23.5t116.5 66.5q49 43 77.5 104t28.5 136t-28.5 139.5t-77.5 111.5q-50 47 -116.5 74t-140.5 27h-243v-682zM437 -332q-2 14 2 46.5t12 65.5q6 42 33 75q12 14 29.5 22.5t39.5 8.5 q37 0 63.5 -25.5t22.5 -71.5q-11 -47 -30.5 -82t-41.5 -58q-22 -24 -43 -35.5t-36 -12.5q-18 0 -33.5 16t-17.5 51z" />
<glyph unicode="&#x157;" horiz-adv-x="829" d="M94 -304q-2 14 2 46.5t12 64.5q6 42 33 75q12 14 29.5 23t39.5 9q37 0 63.5 -25.5t22.5 -71.5q-11 -47 -30.5 -82t-41.5 -59t-43 -35.5t-36 -12.5q-18 0 -33.5 16.5t-17.5 51.5zM119 76v877q0 43 43 43q14 0 27.5 -5t25.5 -19q25 -30 31 -96l8 -76q15 23 38 47.5t53 48.5 q37 30 85 55t105 36q30 4 73 3.5t83 -9.5q40 -10 68 -30.5t28 -55.5q0 -24 -14 -40.5t-34 -24.5q-10 -3 -20 -3q-9 0 -20 1t-25 3q-15 2 -41 3.5t-56 1.5q-32 -1 -70 -13t-77 -39q-81 -56 -122 -149q-19 -47 -27 -101v-458q0 -34 -24.5 -57.5t-56.5 -23.5q-36 0 -58.5 23.5 t-22.5 57.5z" />
<glyph unicode="&#x158;" horiz-adv-x="1104" d="M124 1270q0 15 12 24t50 10h348q108 0 202 -37.5t166 -105.5q71 -68 113 -159t42 -198q0 -108 -42 -195t-113 -151q-28 -25 -56 -43l190 -296q18 -25 15 -57t-32 -53q-29 -20 -60 -14t-52 34l-198 321q-42 -12 -85.5 -18.5t-89.5 -6.5h-241v-249q0 -34 -23.5 -57.5 t-57.5 -23.5t-57.5 23.5t-23.5 57.5v1143q0 13 -3 26q-4 12 -4 25zM281.5 1645q1.5 16 15.5 30q24 24 53 15t58 -38l110 -111l111 112q29 30 58 37.5t51 -15.5q20 -22 15.5 -49t-26.5 -49l-172 -167q-18 -14 -40.5 -12.5t-41.5 19.5l-145 141q-11 12 -23 26t-18 30 q-7 15 -5.5 31zM291 471h243q75 0 140.5 23.5t116.5 66.5q49 43 77.5 104t28.5 136t-28.5 139.5t-77.5 111.5q-50 47 -116.5 74t-140.5 27h-243v-682z" />
<glyph unicode="&#x159;" horiz-adv-x="830" d="M119 76v877q0 43 43 43q14 0 27.5 -5t25.5 -19q25 -30 31 -96l8 -76q15 23 38 47.5t53 48.5q37 30 85 55t105 36q30 4 73 3.5t83 -9.5q40 -10 68 -30.5t28 -55.5q0 -24 -14 -40.5t-34 -24.5q-10 -3 -20 -3q-9 0 -20 1t-25 3q-15 2 -41 3.5t-56 1.5q-32 -1 -70 -13 t-77 -39q-81 -56 -122 -149q-19 -47 -27 -101v-458q0 -34 -24.5 -57.5t-56.5 -23.5q-36 0 -58.5 23.5t-22.5 57.5zM219.5 1370q1.5 16 16.5 31q24 24 52.5 15t57.5 -39l111 -110l110 111q29 30 58 37.5t52 -14.5q20 -22 15 -49t-26 -49l-172 -167q-18 -14 -41 -13t-41 20 l-146 140q-11 12 -23 26.5t-18 29.5q-7 15 -5.5 31z" />
<glyph unicode="&#x15a;" horiz-adv-x="1002" d="M60 274q1 18 9 33q7 14 21 23.5t37 9.5q19 0 36 -10.5t34 -27.5q14 -29 41 -57t65 -49q37 -23 82.5 -36.5t97.5 -13.5q50 0 101.5 14t94.5 41t69 65t26 87t-28 86t-76 68q-48 30 -108 55.5t-124 51.5q-63 27 -122.5 57.5t-107.5 71.5q-48 40 -77 93t-29 123 q0 75 32.5 137t87.5 107t128 69t156 24q74 0 144.5 -22.5t126.5 -58.5t90.5 -76.5t34.5 -76.5q0 -22 -6 -35.5t-17 -21.5t-25 -11.5t-27 -3.5q-23 -2 -38.5 6.5t-36.5 28.5q-30 32 -58 55.5t-59 39.5q-31 15 -64.5 23t-73.5 8q-41 0 -83 -13t-76 -36q-35 -24 -57 -58 t-22 -77q0 -46 28.5 -81.5t78.5 -64.5q24 -14 51 -27.5t58 -26.5q61 -26 126 -53t126 -59t109.5 -72.5t77.5 -95.5q29 -53 29 -126q0 -83 -38 -150t-102 -116q-65 -49 -147.5 -75t-172.5 -26t-160.5 21.5t-122.5 57.5t-86.5 78.5t-50.5 88.5q-4 16 -3 34zM427 1464 q-3 12 2 29q1 8 18.5 32t41.5 50q24 25 50.5 44.5t46.5 19.5q37 0 57.5 -24t14.5 -59q-2 -15 -23.5 -38t-47.5 -44q-28 -22 -53.5 -37.5t-35.5 -16.5q-18 -4 -37 3q-29 7 -34 41z" />
<glyph unicode="&#x15b;" horiz-adv-x="1005" d="M63 255q-3 19 4 36t19 27q12 9 29 11t35 -10q15 -7 41 -36t66.5 -59.5t97.5 -57.5q57 -26 135 -31q58 -1 110.5 5.5t92.5 25.5q40 17 63.5 47t23.5 74q0 34 -28.5 59t-75.5 45q-24 10 -50.5 20t-56.5 19q-60 18 -122 38t-120 45t-103.5 57.5t-70.5 76.5 q-26 43 -22.5 95.5t26.5 98.5t68 81.5t116 58.5q69 23 170 23q61 0 119 -11t109 -32q51 -23 91.5 -58t65.5 -82q8 -22 2 -40.5t-20 -29.5q-15 -11 -35.5 -14t-38.5 6q-10 6 -21.5 14t-22.5 17q-25 18 -55.5 36t-70.5 33q-40 13 -95 16q-115 5 -182 -27.5t-67 -103.5 q0 -40 60 -79t198 -79q71 -20 141.5 -42.5t127.5 -55.5t92 -80t35 -118q0 -77 -38.5 -130t-100.5 -86q-62 -34 -142 -48.5t-163 -14.5q-71 0 -142 17t-133 50q-61 33 -104.5 80.5t-57.5 112.5zM470 1169q-3 12 2 29q1 8 18.5 32t41.5 50q24 25 50.5 45t46.5 20 q37 0 57.5 -24.5t14.5 -58.5q-2 -15 -23.5 -38.5t-47.5 -44.5q-28 -22 -53.5 -37.5t-35.5 -16.5q-18 -4 -37 3q-29 7 -34 41z" />
<glyph unicode="&#x15c;" horiz-adv-x="1002" d="M60 274q1 18 9 33q7 14 21 23.5t37 9.5q19 0 36 -10.5t34 -27.5q14 -29 41 -57t65 -49q37 -23 82.5 -36.5t97.5 -13.5q50 0 101.5 14t94.5 41t69 65t26 87t-28 86t-76 68q-48 30 -108 55.5t-124 51.5q-63 27 -122.5 57.5t-107.5 71.5q-48 40 -77 93t-29 123 q0 75 32.5 137t87.5 107t128 69t156 24q74 0 144.5 -22.5t126.5 -58.5t90.5 -76.5t34.5 -76.5q0 -22 -6 -35.5t-17 -21.5t-25 -11.5t-27 -3.5q-23 -2 -38.5 6.5t-36.5 28.5q-30 32 -58 55.5t-59 39.5q-31 15 -64.5 23t-73.5 8q-41 0 -83 -13t-76 -36q-35 -24 -57 -58 t-22 -77q0 -46 28.5 -81.5t78.5 -64.5q24 -14 51 -27.5t58 -26.5q61 -26 126 -53t126 -59t109.5 -72.5t77.5 -95.5q29 -53 29 -126q0 -83 -38 -150t-102 -116q-65 -49 -147.5 -75t-172.5 -26t-160.5 21.5t-122.5 57.5t-86.5 78.5t-50.5 88.5q-4 16 -3 34zM287.5 1446 q-1.5 16 4.5 32q6 15 18 29.5t24 26.5l145 140q17 18 40.5 20t41.5 -13l171 -167q23 -23 28 -49.5t-16 -48.5q-23 -23 -51.5 -15t-57.5 38l-112 111l-109 -110q-30 -30 -58.5 -38.5t-52.5 14.5q-14 14 -15.5 30z" />
<glyph unicode="&#x15d;" horiz-adv-x="1005" d="M63 255q-3 19 4 36t19 27q12 9 29 11t35 -10q15 -7 41 -36t66.5 -59.5t97.5 -57.5q57 -26 135 -31q58 -1 110.5 5.5t92.5 25.5q40 17 63.5 47t23.5 74q0 34 -28.5 59t-75.5 45q-24 10 -50.5 20t-56.5 19q-60 18 -122 38t-120 45t-103.5 57.5t-70.5 76.5 q-26 43 -22.5 95.5t26.5 98.5t68 81.5t116 58.5q69 23 170 23q61 0 119 -11t109 -32q51 -23 91.5 -58t65.5 -82q8 -22 2 -40.5t-20 -29.5q-15 -11 -35.5 -14t-38.5 6q-10 6 -21.5 14t-22.5 17q-25 18 -55.5 36t-70.5 33q-40 13 -95 16q-115 5 -182 -27.5t-67 -103.5 q0 -40 60 -79t198 -79q71 -20 141.5 -42.5t127.5 -55.5t92 -80t35 -118q0 -77 -38.5 -130t-100.5 -86q-62 -34 -142 -48.5t-163 -14.5q-71 0 -142 17t-133 50q-61 33 -104.5 80.5t-57.5 112.5zM276 1132q-2 16 5 31q6 15 18 30t24 27l145 140q17 18 40 19.5t42 -12.5 l171 -167q23 -23 28 -50t-16 -48q-23 -23 -52 -15t-57 37l-112 112l-110 -111q-30 -30 -58.5 -38.5t-51.5 15.5q-14 14 -16 30z" />
<glyph unicode="&#x15e;" horiz-adv-x="1002" d="M60 274q1 18 9 33q7 14 21 23.5t37 9.5q19 0 36 -10.5t34 -27.5q14 -29 41 -57t65 -49q37 -23 82.5 -36.5t97.5 -13.5q50 0 101.5 14t94.5 41t69 65t26 87t-28 86t-76 68q-48 30 -108 55.5t-124 51.5q-63 27 -122.5 57.5t-107.5 71.5q-48 40 -77 93t-29 123 q0 75 32.5 137t87.5 107t128 69t156 24q74 0 144.5 -22.5t126.5 -58.5t90.5 -76.5t34.5 -76.5q0 -22 -6 -35.5t-17 -21.5t-24.5 -11.5t-27.5 -3.5q-23 -2 -38.5 6.5t-36.5 28.5q-30 32 -58 55.5t-59 39.5q-31 15 -64.5 23t-73.5 8q-41 0 -83 -13t-76 -36q-35 -24 -57 -58 t-22 -77q0 -46 28.5 -81.5t78.5 -64.5q24 -14 51 -27.5t58 -26.5q61 -26 126 -53t126 -59t109 -73t78 -95q29 -53 29 -126q0 -83 -38 -150t-102 -116q-53 -41 -119 -65.5t-139 -32.5v-5v-18.5t1 -15.5q0 -15 2 -21.5t13 -11.5q43 -19 74 -62q30 -46 29 -113q-6 -63 -52 -105 q-22 -20 -50 -32t-61 -13q-32 -2 -60.5 8t-50.5 28q-23 18 -37 42.5t-18 52.5q-3 12 -1.5 25.5t8.5 24.5q13 24 46 23q24 0 34.5 -13.5t18.5 -31.5q8 -17 18 -31.5t34 -14.5q23 0 40 14t16 42q0 18 -9.5 29.5t-21.5 20.5q-7 4 -13.5 7.5t-15.5 7.5q-15 7 -28.5 17t-21.5 24 q-9 13 -9 36l-1 85q-71 6 -128 26.5t-101 50.5q-52 36 -86.5 78.5t-50.5 88.5q-4 16 -3 34z" />
<glyph unicode="&#x15f;" horiz-adv-x="1005" d="M63 255q-3 19 4 36t19 27q12 9 29 11t35 -10q15 -7 41 -36t66.5 -59.5t97.5 -57.5q57 -26 135 -31q58 -1 110.5 5.5t92.5 25.5q40 17 63.5 47t23.5 74q0 34 -28.5 59t-75.5 45q-24 10 -50.5 20t-56.5 19q-60 18 -122 38t-120 45t-103.5 57.5t-70.5 76.5 q-26 43 -22.5 95.5t26.5 98.5t68 81.5t116 58.5q69 23 170 23q61 0 119 -11t109 -32q51 -23 91.5 -58t65.5 -82q8 -22 2 -40.5t-20 -29.5q-15 -11 -35.5 -14t-38.5 6q-10 6 -21.5 14t-22.5 17q-25 18 -55.5 36t-70.5 33q-40 13 -95 16q-115 5 -182 -27.5t-67 -103.5 q0 -40 60 -79t198 -79q71 -20 141.5 -42.5t127.5 -55.5t92 -80t35 -118q0 -77 -38.5 -130t-100.5 -86q-46 -25 -102 -39.5t-116 -19.5v-29v-18t1 -15q0 -15 2 -21.5t13 -11.5q43 -19 74 -63q30 -46 29 -112q-6 -63 -52 -106q-22 -20 -50.5 -32t-60.5 -13q-32 -2 -60.5 8.5 t-50.5 28.5q-23 18 -37 42.5t-18 51.5q-3 12 -1.5 25.5t8.5 24.5q13 24 46 24q24 0 34.5 -14t18.5 -31t18 -31.5t34 -14.5q23 0 40 13.5t16 41.5q0 18 -9.5 29.5t-21.5 20.5q-7 4 -13.5 8t-15.5 8q-15 7 -28.5 16.5t-21.5 24.5q-9 13 -9 35l-1 107q-63 3 -126.5 19.5 t-119.5 46.5q-61 33 -104.5 80.5t-57.5 112.5z" />
<glyph unicode="&#x160;" horiz-adv-x="1002" d="M60 274q1 18 9 33q7 14 21 23.5t37 9.5q19 0 36 -10.5t34 -27.5q14 -29 41 -57t65 -49q37 -23 82.5 -36.5t97.5 -13.5q50 0 101.5 14t94.5 41t69 65t26 87t-28 86t-76 68q-48 30 -108 55.5t-124 51.5q-63 27 -122.5 57.5t-107.5 71.5q-48 40 -77 93t-29 123 q0 75 32.5 137t87.5 107t128 69t156 24q74 0 144.5 -22.5t126.5 -58.5t90.5 -76.5t34.5 -76.5q0 -22 -6 -35.5t-17 -21.5t-25 -11.5t-27 -3.5q-23 -2 -38.5 6.5t-36.5 28.5q-30 32 -58 55.5t-59 39.5q-31 15 -64.5 23t-73.5 8q-41 0 -83 -13t-76 -36q-35 -24 -57 -58 t-22 -77q0 -46 28.5 -81.5t78.5 -64.5q24 -14 51 -27.5t58 -26.5q61 -26 126 -53t126 -59t109.5 -72.5t77.5 -95.5q29 -53 29 -126q0 -83 -38 -150t-102 -116q-65 -49 -147.5 -75t-172.5 -26t-160.5 21.5t-122.5 57.5t-86.5 78.5t-50.5 88.5q-4 16 -3 34zM261.5 1669.5 q1.5 16.5 16.5 30.5q24 24 52.5 15t57.5 -39l111 -110l110 111q29 30 58 37.5t52 -14.5q20 -22 15 -49t-26 -49l-172 -167q-18 -14 -41 -12.5t-41 19.5l-146 140q-11 12 -23 26.5t-18 29.5q-7 15 -5.5 31.5z" />
<glyph unicode="&#x161;" horiz-adv-x="1005" d="M63 255q-3 19 4 36t19 27q12 9 29 11t35 -10q15 -7 41 -36t66.5 -59.5t97.5 -57.5q57 -26 135 -31q58 -1 110.5 5.5t92.5 25.5q40 17 63.5 47t23.5 74q0 34 -28.5 59t-75.5 45q-24 10 -50.5 20t-56.5 19q-60 18 -122 38t-120 45t-103.5 57.5t-70.5 76.5 q-26 43 -22.5 95.5t26.5 98.5t68 81.5t116 58.5q69 23 170 23q61 0 119 -11t109 -32q51 -23 91.5 -58t65.5 -82q8 -22 2 -40.5t-20 -29.5q-15 -11 -35.5 -14t-38.5 6q-10 6 -21.5 14t-22.5 17q-25 18 -55.5 36t-70.5 33q-40 13 -95 16q-115 5 -182 -27.5t-67 -103.5 q0 -40 60 -79t198 -79q71 -20 141.5 -42.5t127.5 -55.5t92 -80t35 -118q0 -77 -38.5 -130t-100.5 -86q-62 -34 -142 -48.5t-163 -14.5q-71 0 -142 17t-133 50q-61 33 -104.5 80.5t-57.5 112.5zM289.5 1368q1.5 16 15.5 31q24 24 53 15t58 -39l110 -110l111 111 q29 30 58 37.5t51 -14.5q20 -22 15.5 -49t-26.5 -50l-172 -166q-18 -14 -41 -12.5t-41 19.5l-145 140q-11 12 -23 26.5t-18 29.5q-7 15 -5.5 31z" />
<glyph unicode="&#x162;" horiz-adv-x="1117" d="M31 1219q0 32 24 56t63 24h877q39 0 64.5 -20.5t25.5 -59.5q0 -37 -24.5 -59t-63.5 -22h-357l-1 -1062q-1 -34 -22.5 -57.5t-57.5 -23.5t-58 23t-22 58l-1 1062h-360q-37 0 -62 22t-25 59zM447 -333q-2 14 2.5 46.5t11.5 65.5q6 42 34 75q12 14 29 22.5t39 8.5 q37 0 63.5 -25.5t22.5 -71.5q-11 -47 -30.5 -82t-40.5 -58q-22 -24 -43.5 -35.5t-35.5 -12.5q-18 0 -33.5 16t-18.5 51z" />
<glyph unicode="&#x163;" horiz-adv-x="657" d="M31 886q0 35 23 57.5t57 22.5h136v255q0 34 22.5 57.5t58.5 23.5q34 0 57.5 -24t23.5 -57v-255h142q33 0 56.5 -22.5t23.5 -57.5q0 -33 -23 -56q-11 -11 -26 -17t-31 -6h-142v-731q0 -34 -24 -57.5t-57 -23.5q-36 0 -58.5 23.5t-22.5 57.5v731h-136q-34 0 -57 23t-23 56z M220 -319q-2 14 2 46t11 65q6 42 34 75q12 14 29.5 23t39.5 9q37 0 63.5 -26t22.5 -72q-11 -47 -30.5 -81.5t-41.5 -58.5t-43 -35.5t-36 -12.5q-18 0 -33.5 16.5t-17.5 51.5z" />
<glyph unicode="&#x164;" horiz-adv-x="1117" d="M31 1219q0 32 24 56t63 24h877q39 0 64.5 -20.5t25.5 -59.5q0 -37 -24.5 -59t-63.5 -22h-357l-1 -1062q-1 -34 -22.5 -57.5t-57.5 -23.5t-58 23t-22 58l-1 1062h-360q-37 0 -62 22t-25 59zM327.5 1669.5q1.5 16.5 15.5 30.5q24 24 53 15t58 -39l110 -110l111 111 q29 30 58 37.5t51 -14.5q20 -22 15.5 -49t-26.5 -49l-172 -167q-18 -14 -41 -12.5t-41 19.5l-145 140q-11 12 -23 26.5t-18 29.5q-7 15 -5.5 31.5z" />
<glyph unicode="&#x165;" horiz-adv-x="657" d="M31 886q0 35 23 57.5t57 22.5h136v255q0 34 22.5 57.5t58.5 23.5q34 0 57.5 -24t23.5 -57v-255h142q33 0 56.5 -22.5t23.5 -57.5q0 -33 -23 -56q-11 -11 -26 -17t-31 -6h-142v-731q0 -34 -24 -57.5t-57 -23.5q-36 0 -58.5 23.5t-22.5 57.5v731h-136q-34 0 -57 23t-23 56z M546 1130q-1 13 2.5 34.5t10.5 45.5q6 24 17 48.5t25 44.5q14 19 32.5 31.5t41.5 12.5q35 0 60 -21t29 -53q5 -27 -9.5 -61.5t-37.5 -65.5q-25 -32 -55 -54t-58 -22q-27 0 -42.5 14t-15.5 46z" />
<glyph unicode="&#x166;" horiz-adv-x="1117" d="M31 1219q0 32 24 56t63 24h877q39 0 64.5 -21t25.5 -59q0 -37 -24.5 -59t-63.5 -22h-357v-435h207q25 0 42 -18t17 -45q0 -25 -17.5 -43.5t-41.5 -18.5h-208v-502q-1 -34 -22.5 -57.5t-57.5 -23.5t-58 23t-22 58v502h-208q-25 0 -42 18.5t-17 43.5q0 27 17.5 45t41.5 18 h207v435h-360q-37 0 -62 22t-25 59z" />
<glyph unicode="&#x167;" horiz-adv-x="656" d="M2 549q0 29 16 48.5t39 19.5h189v190h-136q-34 0 -57 23t-23 56q0 35 23 57.5t57 22.5h136v255q0 34 22.5 57.5t58.5 23.5q34 0 57.5 -24t23.5 -57v-255h142q33 0 56.5 -22.5t23.5 -57.5q0 -33 -23 -56q-11 -11 -26 -17t-31 -6h-142v-190h189q23 0 39 -19.5t16 -48.5 q0 -27 -16 -47t-39 -20h-189v-406q0 -34 -24 -57.5t-57 -23.5q-36 0 -58.5 23.5t-22.5 57.5v406h-189q-24 0 -39.5 20t-15.5 47z" />
<glyph unicode="&#x168;" horiz-adv-x="1303" d="M98 1265q0 15 13 24q12 9 50 9q23 0 41.5 -5t33.5 -17q31 -26 31 -86v-686q0 -75 27 -139.5t77 -113.5q49 -49 120 -76.5t163 -27.5q87 0 158 28t123 77t80 113.5t28 138.5l-1 709q0 13 -3 27q-4 11 -4 25q0 15 13 24q12 9 50 9q24 0 43 -5t34 -17q14 -12 21.5 -33.5 t7.5 -54.5l1 -682q-1 -109 -40.5 -202.5t-111.5 -164.5q-73 -71 -174 -111.5t-225 -40.5q-126 0 -226.5 40.5t-172.5 110.5q-72 71 -110.5 165t-38.5 203v707q-1 7 -1.5 13.5t-2.5 13.5q-4 11 -4 25zM367 1547q2 7 4.5 14t5.5 12q26 47 65 71q17 12 41 18q20 6 43 6 q34 0 57 -8.5t40 -21.5q16 -13 28 -28t24.5 -28t27.5 -21q14 -9 36 -10q12 0 22 5.5t20 13.5q5 4 10.5 9t11.5 11q10 11 28 24q10 10 28 10q17 0 30 -10t18 -29q4 -18 -9 -44q-26 -50 -66 -78t-99 -28q-30 0 -50 8.5t-36 21.5q-15 11 -29 28q-12 15 -25 28t-29 22 q-16 8 -37 8q-27 0 -41.5 -10t-25.5 -24t-21.5 -26t-25.5 -13q-9 -2 -22.5 2t-19.5 15q-13 23 -4 52z" />
<glyph unicode="&#x169;" d="M119 496v418q0 29 21 56q10 11 25 18.5t34 7.5q35 0 58.5 -24t23.5 -58v-417q0 -71 24 -134t67 -110t101.5 -74.5t129.5 -27.5t135 28.5t113 77.5t78.5 111.5t29.5 131.5v415q0 34 23.5 57.5t56.5 23.5q36 0 58.5 -23.5t22.5 -57.5v-877q0 -43 -43 -43q-31 0 -52 25 q-12 14 -20.5 37t-11.5 59l-9 81q-26 -34 -62 -67.5t-82 -59.5q-55 -33 -119.5 -53.5t-132.5 -20.5q-104 0 -190 39.5t-147 106.5q-62 68 -97 158.5t-35 195.5zM347 1236q2 7 4.5 13.5t5.5 12.5q26 47 66 70q17 12 41 19q20 6 43 6q34 0 57 -9t39 -21q16 -13 29 -29 q12 -15 24.5 -28t27.5 -21q14 -9 36 -9q12 0 22 5t20 13q5 4 10 9.5t11 11.5q10 10 29 24q10 10 28 10q17 0 30 -10.5t18 -28.5q4 -18 -9 -44q-26 -50 -66.5 -78.5t-98.5 -28.5q-30 0 -50.5 9t-35.5 22q-15 11 -29 28q-12 15 -25.5 28t-28.5 22q-16 8 -37 8q-27 0 -41.5 -10 t-26.5 -25q-11 -14 -21.5 -26t-25.5 -13q-9 -2 -22.5 2t-19.5 16q-13 23 -4 52z" />
<glyph unicode="&#x16a;" horiz-adv-x="1303" d="M98 1265q0 15 13 24q12 9 50 9q23 0 41.5 -5t33.5 -17q31 -26 31 -86v-686q0 -75 27 -139.5t77 -113.5q49 -49 120 -76.5t163 -27.5q87 0 158 28t123 77t80 113.5t28 138.5l-1 709q0 13 -3 27q-4 11 -4 25q0 15 13 24q12 9 50 9q24 0 43 -5t34 -17q14 -12 21.5 -33.5 t7.5 -54.5l1 -682q-1 -109 -40.5 -202.5t-111.5 -164.5q-73 -71 -174 -111.5t-225 -40.5q-126 0 -226.5 40.5t-172.5 110.5q-72 71 -110.5 165t-38.5 203v707q-1 7 -1.5 13.5t-2.5 13.5q-4 11 -4 25zM279 1496q0 27 17 45.5t42 18.5h575q25 0 42.5 -18.5t17.5 -45.5 q0 -25 -17.5 -43.5t-42.5 -18.5h-575q-25 0 -42 18.5t-17 43.5z" />
<glyph unicode="&#x16b;" d="M119 496v418q0 29 21 56q10 11 25 18.5t34 7.5q35 0 58.5 -24t23.5 -58v-417q0 -71 24 -134t67 -110t101.5 -74.5t129.5 -27.5t135 28.5t113 77.5t78.5 111.5t29.5 131.5v415q0 34 23.5 57.5t56.5 23.5q36 0 58.5 -23.5t22.5 -57.5v-877q0 -43 -43 -43q-31 0 -52 25 q-12 14 -20.5 37t-11.5 59l-9 81q-26 -34 -62 -67.5t-82 -59.5q-55 -33 -119.5 -53.5t-132.5 -20.5q-104 0 -190 39.5t-147 106.5q-62 68 -97 158.5t-35 195.5zM275 1182q0 27 17.5 45t42.5 18h575q25 0 42.5 -18.5t17.5 -44.5q0 -25 -17.5 -44t-42.5 -19h-575 q-25 0 -42.5 19t-17.5 44z" />
<glyph unicode="&#x16c;" horiz-adv-x="1303" d="M98 1265q0 15 13 24q12 9 50 9q23 0 41.5 -5t33.5 -17q31 -26 31 -86v-686q0 -75 27 -139.5t77 -113.5q49 -49 120 -76.5t163 -27.5q87 0 158 28t123 77t80 113.5t28 138.5l-1 709q0 13 -3 27q-4 11 -4 25q0 15 13 24q12 9 50 9q24 0 43 -5t34 -17q14 -12 21.5 -33.5 t7.5 -54.5l1 -682q-1 -109 -40.5 -202.5t-111.5 -164.5q-73 -71 -174 -111.5t-225 -40.5q-126 0 -226.5 40.5t-172.5 110.5q-72 71 -110.5 165t-38.5 203v707q-1 7 -1.5 13.5t-2.5 13.5q-4 11 -4 25zM434 1608q0 27 17.5 45.5t44.5 18.5q20 0 30 -9.5t16 -25.5l9 -31 q4 -17 12 -32.5t25 -25.5q14 -10 45 -10q30 0 46 10t26 25q7 14 12 33q4 17 9.5 32t15.5 25q9 9 30 9q27 0 44.5 -18.5t17.5 -44.5q0 -40 -16.5 -74.5t-44.5 -59.5q-28 -26 -64 -40.5t-76 -14.5q-41 0 -77 14.5t-62 40.5q-28 26 -44 60t-16 73z" />
<glyph unicode="&#x16d;" d="M119 496v418q0 29 21 56q10 11 25 18.5t34 7.5q35 0 58.5 -24t23.5 -58v-417q0 -71 24 -134t67 -110t101.5 -74.5t129.5 -27.5t135 28.5t113 77.5t78.5 111.5t29.5 131.5v415q0 34 23.5 57.5t56.5 23.5q36 0 58.5 -23.5t22.5 -57.5v-877q0 -43 -43 -43q-31 0 -52 25 q-12 14 -20.5 37t-11.5 59l-9 81q-26 -34 -62 -67.5t-82 -59.5q-55 -33 -119.5 -53.5t-132.5 -20.5q-104 0 -190 39.5t-147 106.5q-62 68 -97 158.5t-35 195.5zM419 1291q0 27 17.5 46t43.5 19q20 0 30 -10t16 -25l10 -32q4 -17 12 -32.5t24 -24.5q14 -10 45 -10 q30 0 46.5 9.5t25.5 24.5q7 14 12 33q4 17 10 32t16 26q9 9 30 9q27 0 44 -18.5t17 -45.5q0 -40 -16.5 -74t-43.5 -60q-28 -26 -64.5 -40t-76.5 -14q-41 0 -76.5 14t-62.5 40q-28 26 -43.5 60t-15.5 73z" />
<glyph unicode="&#x16e;" horiz-adv-x="1304" d="M98 1265q0 15 13 24q12 9 50 9q23 0 41.5 -5t33.5 -17q31 -26 31 -86v-686q0 -75 27 -139.5t77 -113.5q49 -49 120 -76.5t163 -27.5q87 0 158 28t123 77t80 113.5t28 138.5l-1 709q0 13 -3 27q-4 11 -4 25q0 15 13 24q12 9 50 9q24 0 43 -5t34 -17q14 -12 21.5 -33.5 t7.5 -54.5l1 -682q-1 -109 -40.5 -202.5t-111.5 -164.5q-73 -71 -174 -111.5t-225 -40.5q-126 0 -226.5 40.5t-172.5 110.5q-72 71 -110.5 165t-38.5 203v707q-1 7 -1.5 13.5t-2.5 13.5q-4 11 -4 25zM481 1561q0 32 12.5 60t32.5 49q20 20 48.5 32.5t60.5 12.5t60 -12 t49 -33q22 -22 34.5 -50t12.5 -59q0 -32 -12.5 -60t-34.5 -49q-22 -22 -49.5 -34t-59.5 -12t-60 12.5t-49 33.5q-20 20 -32.5 48.5t-12.5 60.5zM572 1561q0 -28 18.5 -47t45.5 -19t44.5 19t17.5 47q0 27 -17.5 46t-44.5 19t-45.5 -19t-18.5 -46z" />
<glyph unicode="&#x16f;" d="M119 496v418q0 29 21 56q10 11 25 18.5t34 7.5q35 0 58.5 -24t23.5 -58v-417q0 -71 24 -134t67 -110t101.5 -74.5t129.5 -27.5t135 28.5t113 77.5t78.5 111.5t29.5 131.5v415q0 34 23.5 57.5t56.5 23.5q36 0 58.5 -23.5t22.5 -57.5v-877q0 -43 -43 -43q-31 0 -52 25 q-12 14 -20.5 37t-11.5 59l-9 81q-26 -34 -62 -67.5t-82 -59.5q-55 -33 -119.5 -53.5t-132.5 -20.5q-104 0 -190 39.5t-147 106.5q-62 68 -97 158.5t-35 195.5zM462 1278q0 32 12 60t33 50q20 20 48.5 32.5t59.5 12.5q32 0 60 -12.5t50 -32.5q22 -22 34 -50t12 -60 t-12.5 -60t-33.5 -49q-22 -22 -50 -34t-60 -12t-60 12.5t-48 33.5q-20 20 -32.5 48.5t-12.5 60.5zM553 1278q0 -28 18.5 -47t44.5 -19q27 0 45 19t18 47q0 27 -18 46t-45 19t-45 -19t-18 -46z" />
<glyph unicode="&#x170;" horiz-adv-x="1302" d="M98 1265q0 15 13 24q12 9 50 9q23 0 41.5 -5t33.5 -17q31 -26 31 -86v-686q0 -75 27 -139.5t77 -113.5q49 -49 120 -76.5t163 -27.5q87 0 158 28t123 77t80 113.5t28 138.5l-1 709q0 13 -3 27q-4 11 -4 25q0 15 13 24q12 9 50 9q24 0 43 -5t34 -17q14 -12 21.5 -33.5 t7.5 -54.5l1 -682q-1 -109 -40.5 -202.5t-111.5 -164.5q-73 -71 -174 -111.5t-225 -40.5q-126 0 -226.5 40.5t-172.5 110.5q-72 71 -110.5 165t-38.5 203v707q-1 7 -1.5 13.5t-2.5 13.5q-4 11 -4 25zM347 1458q-2 14 3 29q1 8 14.5 32t34.5 50q22 25 49.5 44.5t58.5 19.5 q33 0 54 -24q22 -26 18 -59q-2 -24 -23.5 -47.5t-48.5 -43.5q-28 -19 -53.5 -31.5t-35.5 -13.5q-18 -5 -36 3q-30 8 -35 41zM723.5 1472q1.5 8 3.5 15q1 8 14.5 32t34.5 50q22 25 49.5 44.5t57.5 19.5q34 0 55 -24q22 -26 17 -59q-2 -24 -23.5 -47.5t-47.5 -43.5 q-28 -19 -53.5 -31.5t-35.5 -13.5q-18 -4 -37 3q-29 7 -34 41q-2 6 -0.5 14z" />
<glyph unicode="&#x171;" d="M119 496v418q0 29 21 56q10 11 25 18.5t34 7.5q35 0 58.5 -24t23.5 -58v-417q0 -71 24 -134t67 -110t101.5 -74.5t129.5 -27.5t135 28.5t113 77.5t78.5 111.5t29.5 131.5v415q0 34 23.5 57.5t56.5 23.5q36 0 58.5 -23.5t22.5 -57.5v-877q0 -43 -43 -43q-31 0 -52 25 q-12 14 -20.5 37t-11.5 59l-9 81q-26 -34 -62 -67.5t-82 -59.5q-55 -33 -119.5 -53.5t-132.5 -20.5q-104 0 -190 39.5t-147 106.5q-62 68 -97 158.5t-35 195.5zM351 1165q-2 14 3 29q1 8 14.5 32t34.5 50q22 25 49.5 44.5t58.5 19.5q33 0 54 -24q22 -26 18 -59 q-2 -24 -23.5 -47.5t-48.5 -43.5q-28 -19 -53.5 -31.5t-35.5 -13.5q-19 -5 -36 3q-30 8 -35 41zM727.5 1179q1.5 8 3.5 15q1 8 14.5 32t34.5 50q22 25 49.5 44.5t57.5 19.5q34 0 55 -24q22 -26 17 -59q-2 -24 -23.5 -47.5t-47.5 -43.5q-28 -19 -53.5 -31.5t-35.5 -13.5 q-19 -4 -37 3q-29 7 -34 41q-2 6 -0.5 14z" />
<glyph unicode="&#x172;" horiz-adv-x="1303" d="M98 1265q0 15 13 24q12 9 50 9q23 0 41.5 -5t33.5 -17q31 -26 31 -86v-686q0 -75 27 -139.5t77 -113.5q49 -49 120 -76.5t163 -27.5q87 0 158 28t123 77t80 113.5t28 138.5l-1 709q0 13 -3 27q-4 11 -4 25q0 15 13 24q12 9 50 9q24 0 43 -5t34 -17q14 -12 21.5 -33.5 t7.5 -54.5l1 -682q-1 -109 -40.5 -202.5t-111.5 -164.5q-34 -33 -71 -57l-50 -46q-8 -8 -16 -15t-15 -12q-14 -12 -25 -23.5t-16 -22.5q-6 -12 -6 -26q0 -19 12.5 -34.5t35.5 -15.5q16 0 25 8t14 19q2 5 4.5 10.5t4.5 13.5q4 13 10.5 23.5t17.5 19.5q11 7 29 7 q22 0 38.5 -15t16.5 -39q0 -34 -13 -63.5t-34 -50.5q-23 -23 -52.5 -35t-63.5 -12q-36 0 -66 12t-52 35q-23 22 -35.5 51.5t-12.5 62.5q0 32 13 59q-44 -6 -92 -6q-126 0 -226.5 40.5t-172.5 110.5q-72 71 -110.5 165t-38.5 203v707q-1 7 -1.5 13.5t-2.5 13.5q-4 11 -4 25z " />
<glyph unicode="&#x173;" d="M119 496v418q0 29 21 56q10 11 25 18.5t34 7.5q35 0 58.5 -24t23.5 -58v-417q0 -71 24 -134t67 -110t101.5 -74.5t129.5 -27.5t135 28.5t113 77.5t78.5 111.5t29.5 131.5v415q0 34 24 57.5t56 23.5q36 0 58.5 -23.5t22.5 -57.5v-877v-8q0 -23 -20 -40l-59 -53 q-8 -8 -15.5 -15t-14.5 -12q-14 -12 -25 -23.5t-16 -22.5q-6 -12 -6 -27q0 -19 12 -34t36 -15q16 0 25 7.5t14 19.5q2 5 4.5 10.5t4.5 12.5q4 13 10 24t17 19q11 7 29 7q22 0 38.5 -14.5t16.5 -38.5q0 -34 -12.5 -63.5t-34.5 -51.5q-23 -23 -52.5 -35t-62.5 -12 q-36 0 -66.5 12.5t-51.5 34.5q-23 22 -35.5 51.5t-12.5 63.5q0 30 12 56t36 54q20 24 49.5 49.5t66.5 57.5q-5 12 -8.5 27.5t-5.5 36.5l-9 81q-26 -34 -62 -67.5t-82 -59.5q-55 -33 -119.5 -53.5t-132.5 -20.5q-104 0 -190 39.5t-147 106.5q-62 68 -97 158.5t-35 195.5z" />
<glyph unicode="&#x174;" horiz-adv-x="1677" d="M37 1194q-11 32 1.5 61.5t45.5 41.5q31 12 61.5 -0.5t41.5 -44.5l353 -985l227 635q10 30 38.5 41.5t56.5 0.5q4 -1 10 -5q22 -10 33 -37l232 -635l352 985q10 26 39 31q11 12 29 16.5t36 -2.5q33 -12 46 -42t1 -61l-427 -1147q-10 -25 -30.5 -38.5t-45.5 -12.5 q-26 -1 -46.5 13t-30.5 38l-223 632l-221 -632q-10 -25 -30.5 -38.5t-45.5 -12.5q-26 -1 -46.5 13t-30.5 38zM621.5 1408q-1.5 16 4.5 32q6 15 17.5 29.5t24.5 26.5l145 140q17 18 40.5 20t41.5 -12l171 -167q23 -23 28 -50t-16 -49q-23 -23 -52 -15t-57 38l-112 111 l-109 -110q-30 -30 -59 -38.5t-52 14.5q-14 14 -15.5 30z" />
<glyph unicode="&#x175;" horiz-adv-x="1655" d="M35 907q-4 25 6.5 47.5t37.5 33.5q31 14 61 2.5t46 -42.5l290 -701l278 703q8 20 26 32t39 14q26 2 48.5 -10t35.5 -36l274 -703l293 703q13 31 45 41.5t64 -3.5q25 -11 36 -32.5t8 -46.5q0 -4 -4 -16q-5 -14 -12.5 -32t-15.5 -39q-8 -23 -15 -36l-328 -745 q-9 -19 -23 -30t-29 -14.5t-31.5 -1.5t-29.5 8q-26 12 -37 39l-271 691l-238 -604q-10 -26 -21.5 -49t-25.5 -41t-29 -30t-32 -14q-26 -4 -47 8t-33 38l-319 743q-14 31 -26 62t-21 61zM596.5 1170q-1.5 16 4.5 31t18 29.5t24 26.5l145 141q17 18 40.5 19.5t41.5 -12.5 l171 -167q23 -23 28 -50t-15 -48q-23 -23 -52 -15t-58 37l-111 112l-110 -111q-30 -30 -58.5 -38.5t-52.5 15.5q-14 14 -15.5 30z" />
<glyph unicode="&#x176;" horiz-adv-x="1213" d="M28.5 1220q-0.5 32 23.5 56q12 12 27.5 17.5t32.5 5.5q15 0 29.5 -6t24.5 -18l443 -560l444 560q10 12 24.5 18t30.5 6q15 0 30.5 -5.5t27.5 -17.5q24 -23 24 -55t-22 -59l-477 -582v-504q0 -34 -23.5 -57.5t-57.5 -23.5q-35 0 -58 23.5t-23 57.5v498l-478 588 q-22 26 -22.5 58zM393 1442q-2 16 4 32q6 15 18 29.5t24 26.5l146 140q17 18 40 20t42 -13l171 -167q23 -23 27.5 -49.5t-15.5 -48.5q-23 -23 -52 -15t-58 38l-111 111l-110 -110q-30 -30 -58.5 -38.5t-51.5 14.5q-14 14 -16 30z" />
<glyph unicode="&#x177;" horiz-adv-x="976" d="M40 941q4 34 42 51q32 14 66.5 2t52.5 -58l288 -710q33 82 63.5 155.5t56.5 138.5q27 66 49.5 121.5t41.5 102.5t34 83t25 63l22 56q6 13 16.5 25t24.5 20t31.5 9t38.5 -8q11 -5 22 -14.5t18 -24.5q6 -14 6.5 -31.5t-8.5 -37.5l-409 -946q-23 -53 -46.5 -96.5 t-56.5 -75.5q-34 -33 -81.5 -52t-118.5 -22q-37 -1 -65.5 17.5t-28.5 61.5q0 23 11.5 35t31.5 20q10 4 21 7t23 6q25 6 50 16.5t48 27.5q23 16 40 48l55 130l-15 36q-15 36 -40 92l-122 279q-39 89 -83 189.5t-94 213.5q-14 36 -10 70zM276 1124q-2 16 5 31q6 15 18 29.5 t24 26.5l145 141q17 18 40 19.5t42 -12.5l171 -167q23 -23 28 -50t-16 -48q-23 -23 -52 -15.5t-57 37.5l-112 112l-110 -111q-30 -30 -58.5 -38.5t-51.5 15.5q-14 14 -16 30z" />
<glyph unicode="&#x178;" horiz-adv-x="1213" d="M28.5 1220q-0.5 32 23.5 56q12 12 27.5 17.5t32.5 5.5q15 0 29.5 -6t24.5 -18l443 -560l444 560q10 12 24.5 18t30.5 6q15 0 30.5 -5.5t27.5 -17.5q24 -23 24 -55t-22 -59l-477 -582v-504q0 -34 -23.5 -57.5t-57.5 -23.5q-35 0 -58 23.5t-23 57.5v498l-478 588 q-22 26 -22.5 58zM365 1500q0 36 24 60.5t60 24.5q35 0 60 -24.5t25 -60.5t-25 -60t-60 -24q-36 0 -60 24t-24 60zM679 1500q0 36 24 60.5t59 24.5q36 0 60.5 -24.5t24.5 -60.5t-24.5 -60t-60.5 -24q-35 0 -59 24t-24 60z" />
<glyph unicode="&#x179;" horiz-adv-x="1165" d="M67 51q-8 29 3.5 57.5t34.5 60.5q44 58 90 117t95 122q49 61 96.5 123t96.5 124q98 126 194.5 249t186.5 238l-686 -2q-37 0 -60 23.5t-23 55.5q0 31 22 55q11 11 26.5 18t35.5 7h831q22 0 37.5 -7t26.5 -18q23 -22 23 -55q0 -13 -10 -32t-23 -39t-28.5 -40.5 t-27.5 -35.5l-714 -919h745q38 0 60.5 -21t22.5 -56q0 -18 -7 -32.5t-18 -26.5q-26 -23 -57 -22h-887q-30 0 -54.5 11.5t-31.5 44.5zM500 1469q-3 12 2 29q1 8 18.5 32t41.5 50q24 25 50 45t46 20q37 0 57.5 -24.5t15.5 -58.5q-2 -15 -23.5 -38.5t-48.5 -44.5 q-28 -22 -53 -37.5t-36 -16.5q-18 -4 -36 3q-29 7 -34 41z" />
<glyph unicode="&#x17a;" horiz-adv-x="1087" d="M63 67q-8 33 3.5 65t48.5 67l640 629l-548 -2q-40 0 -67 18t-27 54q0 32 23.5 55t69.5 23h675q22 0 38 -7t27 -19q23 -22 23 -55q0 -13 -3 -26t-14 -28q-10 -16 -29.5 -39t-52.5 -57l-576 -585h632q38 0 62 -18t24 -54q0 -37 -26.5 -57.5t-56.5 -20.5h-779 q-30 0 -54.5 12t-32.5 45zM501 1181q-3 12 2 28q1 8 18.5 32.5t41.5 49.5t50 45t46 20q37 0 57.5 -24t15.5 -59q-2 -15 -23.5 -38.5t-48.5 -44.5q-28 -22 -53 -37t-36 -16q-18 -4 -36 3q-29 7 -34 41z" />
<glyph unicode="&#x17b;" horiz-adv-x="1165" d="M67 51q-8 29 3.5 57.5t34.5 60.5q44 58 90 117t95 122q49 61 96.5 123t96.5 124q98 126 194.5 249t186.5 238l-686 -2q-37 0 -60 23.5t-23 55.5q0 31 22 55q11 11 26.5 18t35.5 7h831q22 0 37.5 -7t26.5 -18q23 -22 23 -55q0 -13 -10 -32t-23 -39t-28.5 -40.5 t-27.5 -35.5l-714 -919h745q38 0 60.5 -21t22.5 -56q0 -18 -7 -32.5t-18 -26.5q-26 -23 -57 -22h-887q-30 0 -54.5 11.5t-31.5 44.5zM477 1503q0 39 26.5 66.5t66.5 27.5q19 0 37 -7t31 -19q12 -13 19.5 -30.5t7.5 -37.5q0 -39 -28 -65.5t-67 -26.5q-40 0 -66.5 26.5 t-26.5 65.5z" />
<glyph unicode="&#x17c;" horiz-adv-x="1087" d="M63 67q-8 33 3.5 65t48.5 67l640 629l-548 -2q-40 0 -67 18t-27 54q0 32 23.5 55t69.5 23h675q22 0 38 -7t27 -19q23 -22 23 -55q0 -13 -3 -26t-14 -28q-10 -16 -29.5 -39t-52.5 -57l-576 -585h632q38 0 62 -18t24 -54q0 -37 -26.5 -57.5t-56.5 -20.5h-779 q-30 0 -54.5 12t-32.5 45zM474 1248q0 39 26.5 66.5t66.5 27.5q19 0 37 -7t31 -19q12 -13 19.5 -30.5t7.5 -37.5q0 -39 -28 -65.5t-67 -26.5q-40 0 -66.5 26.5t-26.5 65.5z" />
<glyph unicode="&#x17d;" horiz-adv-x="1165" d="M67 51q-8 29 3.5 57.5t34.5 60.5q44 58 90 117t95 122q49 61 96.5 123t96.5 124q98 126 194.5 249t186.5 238l-686 -2q-37 0 -60 23.5t-23 55.5q0 31 22 55q11 11 26.5 18t35.5 7h831q22 0 37.5 -7t26.5 -18q23 -22 23 -55q0 -13 -10 -32t-23 -39t-28.5 -40.5 t-27.5 -35.5l-714 -919h745q38 0 60.5 -21t22.5 -56q0 -18 -7 -32.5t-18 -26.5q-26 -23 -57 -22h-887q-30 0 -54.5 11.5t-31.5 44.5zM350.5 1668q1.5 16 16.5 31q24 24 53 15t57 -39l111 -110l110 111q29 30 58 37.5t52 -14.5q20 -22 15 -49t-26 -49l-172 -167 q-18 -14 -41 -12.5t-41 19.5l-146 140q-11 12 -23 26.5t-18 29.5q-7 15 -5.5 31z" />
<glyph unicode="&#x17e;" horiz-adv-x="1086" d="M63 67q-8 33 3.5 65t48.5 67l640 629l-548 -2q-40 0 -67 18t-27 54q0 32 23.5 55t69.5 23h675q22 0 38 -7t27 -19q23 -22 23 -55q0 -13 -3 -26t-14 -28q-10 -16 -29.5 -39t-52.5 -57l-576 -585h632q38 0 62 -18t24 -54q0 -37 -26.5 -57.5t-56.5 -20.5h-779 q-30 0 -54.5 12t-32.5 45zM326.5 1372.5q1.5 16.5 15.5 30.5q24 24 53 15t58 -39l110 -110l111 111q29 30 58 37.5t51 -14.5q20 -22 15.5 -49t-26.5 -49l-172 -167q-18 -14 -41 -12.5t-41 19.5l-145 140q-11 12 -23 26.5t-18 29.5q-7 15 -5.5 31.5z" />
<glyph unicode="&#x1fc;" horiz-adv-x="1671" d="M14.5 70.5q2.5 17.5 15.5 42.5q2 4 4.5 8t4.5 9l15 28q5 8 11.5 20t14.5 28l44 81q13 26 29.5 56.5t36.5 68.5l97 178q56 105 130.5 243.5t172.5 320.5q7 13 12.5 26t10.5 26q10 27 23.5 48.5t33.5 35.5q19 14 49 15h601q25 0 46.5 -4.5t39.5 -10.5q29 -10 41 -33.5 t7 -47.5q-5 -25 -25.5 -43t-56.5 -18h-549q1 -4 2 -7.5t2 -7.5l3 -16l94 -385h347h100q39 0 64 -26q11 -12 16 -30t0 -38q-6 -28 -27 -43t-51 -15h-113h-297l101 -418h470q37 0 66 -19t29 -62t-30 -62t-70 -19h-513q-29 0 -47.5 9t-31.5 31q-13 20 -24 54.5t-23 84.5l-5 23 q-2 10 -5 20.5t-6 22.5q-3 14 -6.5 29.5t-8.5 32.5h-551q-43 -78 -70.5 -126t-44.5 -78q-18 -31 -27 -44q-9 -15 -17 -27t-20 -21q-29 -22 -59 -15q-16 1 -31 12q-6 4 -13 12t-10 21q-4 12 -1.5 29.5zM373 444h457l-142 584zM776 1459q-3 12 2 29q1 8 18.5 32t42.5 50 q24 25 49.5 44.5t46.5 19.5q37 0 57.5 -24t15.5 -59q-2 -15 -23.5 -38t-48.5 -45q-28 -22 -53.5 -37t-35.5 -16q-19 -4 -37 3q-29 7 -34 41z" />
<glyph unicode="&#x1fd;" horiz-adv-x="1952" d="M53 494q0 104 39.5 194.5t108.5 159.5q69 68 159 107t194 39t187.5 -39.5t145.5 -106.5q8 -8 15 -17.5t13 -18.5l13 60q6 69 30.5 95t53.5 26q43 0 43 -43v-121q7 7 13.5 14.5t14.5 14.5q71 67 163 102.5t197 35.5q104 0 193 -37t156 -104t104 -156.5t37 -194.5 q0 -18 -3 -30.5t-12 -19.5t-27 -10.5t-48 -3.5h-746q5 -65 32.5 -119.5t73.5 -97.5t103.5 -67t125.5 -24q62 0 121.5 22t105.5 65q15 10 36.5 12.5t41.5 -5.5q18 -8 32 -24.5t14 -41.5q0 -31 -32 -60t-84 -53t-113.5 -38t-122.5 -14q-104 0 -194.5 39.5t-159.5 106.5 q-6 5 -11.5 11.5t-10.5 12.5v-110q0 -30 -15.5 -46t-41.5 -16q-29 0 -46.5 17t-23.5 46l-15 116q-6 -8 -12.5 -16t-13.5 -16q-61 -69 -145 -108t-188 -39t-194.5 39.5t-158.5 107.5q-69 68 -108.5 158.5t-39.5 195.5zM218 494q0 -71 25.5 -134t71.5 -110t107 -75t132 -28 t132 28t107 75t71.5 110t25.5 134q0 72 -25.5 134.5t-71.5 109.5t-107 74.5t-132 27.5t-132 -27.5t-107 -74.5t-71.5 -110t-25.5 -134zM927 1178q-3 12 2 28q1 8 18.5 32.5t41.5 49.5t50 45t46 20q37 0 57.5 -24t15.5 -59q-2 -15 -23.5 -38.5t-48.5 -44.5q-28 -22 -53 -37 t-36 -16q-18 -4 -36 3q-29 7 -34 41zM1097 555h672q-5 65 -32 120t-70 97q-44 42 -101.5 65t-122.5 23q-68 0 -127 -23t-105 -65q-47 -42 -77 -97t-37 -120z" />
<glyph unicode="&#x1fe;" horiz-adv-x="1425" d="M61 646q0 135 51 253t141 208q89 89 207 140t254 51q135 0 252 -51t208 -140q89 -90 140 -208t51 -253q0 -136 -51 -253.5t-140 -206.5q-90 -90 -207.5 -140.5t-252.5 -50.5q-136 0 -254 50.5t-207 140.5q-90 89 -141 206.5t-51 253.5zM223 645q0 -102 38 -190t106 -156 t156 -106.5t191 -38.5q102 0 190 38.5t156 106.5t105.5 156.5t37.5 190.5t-38 191t-105 156q-68 68 -156 106.5t-190 38.5t-191 -38.5t-156 -106.5q-68 -68 -106 -157t-38 -191zM657 1461q-3 12 2 29q1 8 18.5 32t42.5 50q24 25 50 44.5t46 19.5q37 0 57.5 -24t15.5 -59 q-2 -15 -23.5 -38t-48.5 -45q-28 -22 -53.5 -37t-35.5 -16q-18 -4 -37 3q-29 7 -34 41z" />
<glyph unicode="&#x1ff;" horiz-adv-x="1124" d="M65 539q9 102 56.5 189t121.5 150q74 61 168 92t196 22q60 -8 116 -30l20 36q11 22 25.5 45t31.5 44q15 20 30 33t30 19t39.5 -0.5t40.5 -29.5t13 -46l-3 -12q-1 -4 -3.5 -10t-6.5 -14q-7 -16 -25 -49q-8 -16 -20 -39t-29 -52q50 -37 89 -84.5t65 -104.5 q26 -56 36.5 -118.5t4.5 -129.5q-9 -104 -57 -191t-121 -148q-74 -61 -168 -92.5t-197 -22.5q-34 4 -63 11t-53 19l-27 -51q-5 -10 -11.5 -19.5t-12.5 -21.5q-12 -22 -26 -40t-29 -29q-16 -11 -35.5 -9.5t-35.5 9.5q-32 16 -41 48q-4 15 -3 32q1 2 2 5.5t3 8.5q2 4 5.5 10.5 t8.5 15.5q8 17 22.5 43.5t37.5 69.5q-50 37 -88.5 85t-65.5 106q-27 57 -37 119.5t-4 130.5zM229 530q-8 -71 11 -135.5t59 -116.5t98 -86t128 -41q71 -8 135 11.5t114 62.5t82.5 102.5t40.5 130.5q7 71 -12 135.5t-59 117.5q-40 52 -97 85t-128 42q-71 7 -135 -13t-114 -62 t-83 -102t-40 -131zM495 1221q-3 12 2 28q1 8 18 32.5t42 49.5q24 25 50 45t46 20q37 0 57.5 -24t15.5 -59q-2 -15 -23.5 -38.5t-48.5 -44.5q-28 -22 -53.5 -37t-35.5 -16q-18 -4 -37 3q-29 7 -33 41z" />
<glyph unicode="&#x218;" horiz-adv-x="1002" d="M60 274q1 18 9 33q7 14 21 23.5t37 9.5q19 0 36 -10.5t34 -27.5q14 -29 41 -57t65 -49q37 -23 82.5 -36.5t97.5 -13.5q50 0 101.5 14t94.5 41t69 65t26 87t-28 86t-76 68q-48 30 -108 55.5t-124 51.5q-63 27 -122.5 57.5t-107.5 71.5q-48 40 -77 93t-29 123 q0 75 32.5 137t87.5 107t128 69t156 24q74 0 144.5 -22.5t126.5 -58.5t90.5 -76.5t34.5 -76.5q0 -22 -6 -35.5t-17 -21.5t-25 -11.5t-27 -3.5q-23 -2 -38.5 6.5t-36.5 28.5q-30 32 -58 55.5t-59 39.5q-31 15 -64.5 23t-73.5 8q-41 0 -83 -13t-76 -36q-35 -24 -57 -58 t-22 -77q0 -46 28.5 -81.5t78.5 -64.5q24 -14 51 -27.5t58 -26.5q61 -26 126 -53t126 -59t109.5 -72.5t77.5 -95.5q29 -53 29 -126q0 -83 -38 -150t-102 -116q-65 -49 -147.5 -75t-172.5 -26t-160.5 21.5t-122.5 57.5t-86.5 78.5t-50.5 88.5q-4 16 -3 34zM420 -418 q-2 14 2 46.5t11 65.5q6 42 34 75q12 14 29.5 22.5t39.5 8.5q37 0 63.5 -25.5t22.5 -71.5q-11 -47 -31 -82t-41 -58q-22 -24 -43.5 -35.5t-35.5 -12.5q-18 0 -33.5 16t-17.5 51z" />
<glyph unicode="&#x219;" horiz-adv-x="1005" d="M63 255q-3 19 4 36t19 27q12 9 29 11t35 -10q15 -7 41 -36t66.5 -59.5t97.5 -57.5q57 -26 135 -31q58 -1 110.5 5.5t92.5 25.5q40 17 63.5 47t23.5 74q0 34 -28.5 59t-75.5 45q-24 10 -50.5 20t-56.5 19q-60 18 -122 38t-120 45t-103.5 57.5t-70.5 76.5 q-26 43 -22.5 95.5t26.5 98.5t68 81.5t116 58.5q69 23 170 23q61 0 119 -11t109 -32q51 -23 91.5 -58t65.5 -82q8 -22 2 -40.5t-20 -29.5q-15 -11 -35.5 -14t-38.5 6q-10 6 -21.5 14t-22.5 17q-25 18 -55.5 36t-70.5 33q-40 13 -95 16q-115 5 -182 -27.5t-67 -103.5 q0 -40 60 -79t198 -79q71 -20 141.5 -42.5t127.5 -55.5t92 -80t35 -118q0 -77 -38.5 -130t-100.5 -86q-62 -34 -142 -48.5t-163 -14.5q-71 0 -142 17t-133 50q-61 33 -104.5 80.5t-57.5 112.5zM424 -310q-2 14 2 46.5t11 64.5q6 42 34 75q12 14 29.5 23t39.5 9 q37 0 63.5 -25.5t22.5 -71.5q-11 -47 -31 -82t-41 -59q-22 -24 -43.5 -35.5t-35.5 -12.5q-18 0 -33.5 16.5t-17.5 51.5z" />
<glyph unicode="&#x2c6;" horiz-adv-x="645" d="M64 1391q-2 16 5 31q6 15 18 30t24 27l145 140q17 18 40 19.5t42 -12.5l171 -167q23 -23 28 -50t-16 -48q-23 -23 -52 -15t-57 37l-112 112l-110 -111q-30 -30 -58.5 -38.5t-51.5 15.5q-14 14 -16 30z" />
<glyph unicode="&#x2da;" horiz-adv-x="1125" d="M358 1285q0 32 12.5 60t32.5 50q20 20 48.5 32.5t60.5 12.5t60 -12.5t50 -32.5q22 -22 34 -50t12 -60t-12.5 -60t-33.5 -48q-22 -22 -50 -34.5t-60 -12.5t-60 12.5t-49 34.5q-20 20 -32.5 48t-12.5 60zM450 1285q0 -28 18 -46.5t45 -18.5t44.5 18.5t17.5 46.5 q0 27 -17.5 46.5t-44.5 19.5t-45 -19.5t-18 -46.5z" />
<glyph unicode="&#x2dc;" horiz-adv-x="949" d="M280 1622q2 7 4.5 13.5t5.5 12.5q26 47 65 70q17 12 41 19q20 6 43 6q34 0 57 -9t40 -21q16 -13 28 -29q12 -15 24.5 -27.5t27.5 -21.5q14 -9 36 -9q12 0 22 5t20 14q5 4 10.5 9t11.5 11q10 11 28 24q10 10 28 10q17 0 30 -10.5t18 -28.5q4 -18 -9 -44q-26 -50 -66 -78.5 t-99 -28.5q-30 0 -50.5 9t-35.5 22q-15 11 -29 28q-12 15 -25 28t-29 22q-16 8 -37 8q-27 0 -41.5 -10t-25.5 -25q-11 -14 -21.5 -26t-25.5 -13q-9 -2 -22.5 2.5t-19.5 15.5q-13 23 -4 52z" />
<glyph unicode="&#x401;" horiz-adv-x="1057" d="M124 1265q0 15 10 24.5t41 9.5h758q43 0 64.5 -24t21.5 -53q0 -30 -20.5 -54.5t-63.5 -24.5h-641v-419h509q37 0 63 -27q11 -12 16 -29.5t0 -37.5q-5 -27 -26 -43t-51 -16h-511v-414h632q19 0 36.5 -5t30.5 -15t21 -24.5t8 -36.5q0 -39 -28 -60t-65 -21h-690 q-55 0 -80.5 28.5t-25.5 80.5v1100q-1 7 -2 15t-3 16q-4 13 -4 30zM338 1559q0 36 24 60.5t60 24.5q35 0 60 -25t25 -60q0 -36 -25 -60t-60 -24q-36 0 -60 24t-24 60zM652 1559q0 36 24 60.5t59 24.5q36 0 60.5 -25t24.5 -60q0 -36 -24.5 -60t-60.5 -24q-35 0 -59 24t-24 60 z" />
<glyph unicode="&#x402;" horiz-adv-x="1440" d="M24 1236q0 30 19 50.5t47 20.5h649q28 0 47.5 -20.5t19.5 -50.5q0 -28 -19.5 -49.5t-47.5 -21.5h-244v-383q12 32 45 69t83 69q49 32 111 53t132 21q102 0 189 -39t149 -107q61 -68 96 -159t35 -193v-185v-12q-1 -97 -19.5 -179t-57.5 -144q-41 -63 -105 -99t-158 -36 q-33 0 -57 23t-24 58q0 27 16 47t43 27q89 8 143 67.5t58 170.5v260q0 72 -24.5 134.5t-67.5 109.5t-102 74.5t-130 27.5t-134.5 -28.5t-112.5 -77.5t-78.5 -112t-29.5 -132v-414q0 -34 -24 -57.5t-57 -23.5q-35 0 -58 23.5t-23 57.5v1089h-243q-28 0 -47 21.5t-19 49.5z " />
<glyph unicode="&#x403;" horiz-adv-x="1105" d="M101 1265q0 14 13 23q12 9 50 9h3h1h724q34 0 57.5 -24t23.5 -56q0 -36 -23.5 -58.5t-57.5 -22.5h-622v-1055q0 -33 -20 -58q-10 -13 -25.5 -21t-35.5 -8t-35.5 8.5t-25.5 22.5q-10 12 -14.5 27.5t-4.5 28.5v1131q0 13 -4 27q-4 12 -4 26zM502 1465q-3 12 2 29 q1 8 18.5 32t41.5 50q24 25 50 44.5t46 19.5q37 0 57.5 -24t15.5 -58q-2 -15 -23.5 -38.5t-47.5 -44.5q-28 -22 -53.5 -37.5t-36.5 -16.5q-18 -4 -36 3q-29 7 -34 41z" />
<glyph unicode="&#x404;" horiz-adv-x="1203" d="M63 646q0 90 24 173t67 156t101.5 132t131.5 102t155.5 66t172.5 23q109 0 205 -33.5t179 -92.5q28 -18 38.5 -40t8.5 -43q-2 -22 -14 -39.5t-32 -25.5t-45.5 -5t-52.5 23q-61 47 -131 71.5t-156 24.5q-96 0 -180 -32t-149 -88t-106 -131.5t-55 -164.5l584 -1 q34 0 56.5 -21.5t22.5 -54.5q0 -36 -22.5 -56t-56.5 -20l-584 1q13 -89 55 -164.5t106 -132.5q65 -56 147.5 -87.5t181.5 -31.5q87 0 157.5 24.5t132.5 70.5q26 22 50 26t44 -4q19 -7 32.5 -24t15.5 -38q2 -22 -9 -45.5t-38 -43.5q-80 -61 -178.5 -93t-206.5 -32 q-135 0 -253 50.5t-207 140.5q-90 89 -141 206.5t-51 253.5z" />
<glyph unicode="&#x405;" horiz-adv-x="1002" d="M67.5 271q1.5 16 6.5 28q6 15 24 28t41 13q41 0 66 -38q13 -30 38 -58t61 -49q36 -22 80.5 -35.5t96.5 -13.5q50 0 101 14t94 41t69 65.5t26 87.5q0 52 -29 90t-76 68t-107 54t-125 49t-124.5 54t-106.5 68t-76.5 91.5t-29.5 122.5q0 75 32 138.5t87 109.5t127 71.5 t155 25.5q65 0 121.5 -14t105.5 -41t88 -61.5t70 -77.5q11 -17 11 -35q2 -23 -4 -38t-18 -24q-11 -10 -25.5 -15t-27.5 -6q-23 -2 -38 7t-35 32q-30 32 -56.5 56.5t-56.5 41.5t-64 25.5t-77 8.5q-41 0 -83 -13t-76 -36q-34 -25 -55 -59.5t-21 -77.5q0 -32 13 -58t34 -48 q22 -23 50 -40t60 -31q28 -14 57 -27t58 -27q61 -26 119.5 -53.5t111.5 -59.5q53 -33 93 -71t63 -86q24 -49 24 -107q0 -83 -38 -150t-100 -116t-142.5 -75t-167.5 -26q-90 0 -162 21.5t-124 56.5q-53 35 -87.5 78.5t-47.5 89.5q-5 15 -3.5 31z" />
<glyph unicode="&#x406;" horiz-adv-x="416" d="M124 1265q0 15 12 24t50 9q46 0 75.5 -17.5t31.5 -63.5v-1097q0 -53 -18.5 -89t-62.5 -36q-23 0 -38 9.5t-24 27.5q-10 17 -14.5 39t-4.5 49v1093q0 13 -3 27q-4 11 -4 25z" />
<glyph unicode="&#x407;" horiz-adv-x="416" d="M-33 1510q0 36 24 60.5t60 24.5q35 0 60 -24.5t25 -60.5t-25 -60t-60 -24q-36 0 -60 24t-24 60zM124 1265q0 15 12 24t50 9q46 0 75.5 -17.5t31.5 -63.5v-1097q0 -53 -18.5 -89t-62.5 -36q-23 0 -38 9.5t-24 27.5q-10 17 -14.5 39t-4.5 49v1093q0 13 -3 27q-4 11 -4 25z M282 1510q0 36 24 60.5t59 24.5q36 0 60.5 -24.5t24.5 -60.5t-25 -60t-60 -24t-59 24t-24 60z" />
<glyph unicode="&#x408;" horiz-adv-x="416" d="M-128 -243q0 34 24 57.5t60 23.5q43 1 76 19.5t55 50.5q22 31 33 73.5t11 91.5l-2 1123q0 17 -1 27t-3 16t-3 11.5t-1 14.5q0 13 11 24q11 9 49 9q56 0 84 -25t28 -89v-1036q0 -102 -17 -188t-57 -149t-105 -99t-161 -36q-34 0 -57.5 23.5t-23.5 57.5z" />
<glyph unicode="&#x409;" horiz-adv-x="1895" d="M10 22q0 34 24 57t60 23q43 1 76 19.5t55 50.5q22 31 33 73.5t11 91.5l-2 856q0 17 -1 27t-3 16t-3 11.5t-1 14.5q0 13 11 24q11 9 49 9h723q34 0 57.5 -23.5t23.5 -57.5v-351h195q108 0 202.5 -31t166.5 -90q71 -58 112.5 -137t41.5 -175q0 -98 -42 -176t-112 -135 q-72 -57 -167 -88t-202 -31h-301q-25 0 -36.5 11.5t-15.5 30.5q-4 18 -3 43v48v1001h-531v-706q0 -102 -17 -190t-57 -155t-105 -104.5t-161 -37.5q-34 0 -57.5 23.5t-23.5 57.5zM1121 151l197 1q75 0 141 18t116 54q49 36 77.5 88t28.5 121t-28.5 121.5t-77.5 88.5 q-50 36 -116 55t-141 19l-197 1v-567z" />
<glyph unicode="&#x40a;" horiz-adv-x="1655" d="M118 1267q0 14 10 23q11 9 48 9q58 0 84.5 -21t26.5 -59v-498h463v447v40q-1 6 -1.5 12.5t-3.5 13.5q-3 12 -3 24q0 15 13 25q11 8 49 8q47 0 75.5 -18t30.5 -62v-128v-220h196q108 0 202 -31.5t166 -89.5t113 -137t41 -175q0 -98 -41.5 -176t-112.5 -135 q-72 -57 -166.5 -88t-201.5 -31h-302q-25 0 -36.5 11.5t-14.5 30.5q-4 18 -3 43v48v435h-463v-493q0 -29 -20 -53q-22 -27 -61 -27q-20 0 -35 7t-25 18q-20 24 -20 54v1141q-1 6 -1.5 12.5t-2.5 13.5q-4 12 -4 26zM910 152h196q75 0 141 18t115 54t77.5 88.5t28.5 120.5 q0 69 -28.5 121.5t-77.5 88.5t-115 55t-141 19h-196v-565z" />
<glyph unicode="&#x40b;" horiz-adv-x="1388" d="M-3 1236q0 30 19.5 50.5t46.5 20.5h649q29 0 48 -20.5t19 -50.5q0 -28 -19.5 -49.5t-47.5 -21.5h-244v-383q12 32 45.5 69t82.5 69t110.5 53t132.5 21q104 0 190.5 -39t148.5 -107q61 -68 96 -159t35 -193v-197v-219q0 -34 -22 -58.5t-59 -24.5q-38 0 -59.5 25t-21.5 58 v333v81q0 72 -24 134.5t-67 109.5t-102.5 74.5t-130.5 27.5t-134 -28.5t-112 -77.5t-79 -112t-30 -132v-414q0 -34 -23.5 -57.5t-57.5 -23.5q-35 0 -58 23.5t-23 57.5v1089h-243q-28 0 -47 21.5t-19 49.5z" />
<glyph unicode="&#x40c;" horiz-adv-x="1040" d="M112 1269q0 14 12 23t50 10q52 0 78.5 -26t28.5 -90v-520q17 8 32.5 19.5t29.5 25.5q49 43 84.5 106.5t70.5 133.5q35 71 74.5 138t95.5 117q48 43 105 68.5t142 25.5h28q33 -1 54.5 -14t32.5 -32q10 -19 10 -41t-11 -40t-33 -29q-22 -12 -53 -12q-9 0 -9 1h-1 q-83 0 -138.5 -39.5t-92.5 -104.5q-16 -28 -31.5 -56.5t-30.5 -58.5q-13 -26 -27 -50.5t-28 -49.5l38 -60q17 -28 35 -57t37 -59l78 -123q19 -32 38.5 -62t39.5 -60q19 -30 37 -59t36 -56q17 -28 33 -53t30 -48q20 -35 23.5 -53.5t-3.5 -39.5q-6 -22 -27 -37t-49 -15 q-25 0 -45.5 13t-43.5 52l-356 570q-36 -43 -77.5 -76t-94.5 -53q-8 -3 -16.5 -6.5t-16.5 -5.5v-406q0 -39 -25 -62t-56 -23q-33 0 -57 23t-24 62v1138q0 13 -3 26q-4 11 -4 25zM439 1426q-3 12 2 29q1 8 18.5 32t42.5 50q24 25 50 45t46 20q37 0 57.5 -24.5t15.5 -58.5 q-2 -15 -23.5 -38.5t-48.5 -44.5q-28 -22 -53.5 -37.5t-35.5 -16.5q-19 -4 -37 3q-29 7 -34 41z" />
<glyph unicode="&#x40e;" horiz-adv-x="974" d="M40 1192q-3 18 0 35q3 15 13 28.5t29 22.5q32 14 66 1.5t53 -58.5l289 -691l121 292q27 65 49.5 118.5t41.5 99.5l58 139q20 48 21 52q6 13 16.5 25.5t24.5 20.5t31.5 9t38.5 -8q11 -5 22 -14.5t17 -23.5t7 -32t-7 -39q-27 -62 -67.5 -154.5t-92.5 -213.5t-114.5 -265.5 t-134.5 -313.5q-22 -49 -45.5 -91t-57.5 -74t-82 -51.5t-119 -22.5q-37 -1 -65 17t-29 61q0 23 17 41.5t37 21.5q50 5 94 23t69 59q5 8 11 17.5t12 21.5q11 20 19 40.5t14 38.5l4.5 12t1.5 8.5t-3 13t-11 25.5l-40 92q-26 57 -57.5 129t-64.5 149q-39 90 -83 190t-94 214 q-7 17 -10 35zM296 1536q0 -39 16 -73.5t43 -59.5q27 -26 63 -40t77 -14q40 0 76 14t64 40t44 60t16 74q0 27 -17.5 45.5t-43.5 18.5q-20 0 -30 -10t-15.5 -25t-9.5 -32q-5 -18 -13 -33q-9 -15 -25.5 -25t-45.5 -10q-31 0 -45 11q-16 9 -24.5 24.5t-12.5 32.5l-10 32 q-6 15 -15.5 25t-30.5 10q-27 0 -44 -19t-17 -46z" />
<glyph unicode="&#x40f;" horiz-adv-x="1291" d="M119 76v1080v66q0 33 22.5 57t58.5 24q33 0 57 -24.5t24 -56.5v-261v-804h685v1015v48q0 34 23 57t58 23q34 0 57 -23.5t23 -56.5v-262v-852q0 -49 -29 -80t-78 -31h-310v-227q0 -36 -23 -59t-58 -23t-59 26q-23 25 -22 59v224h-348q-34 0 -57.5 24t-23.5 57z" />
<glyph unicode="&#x410;" horiz-adv-x="1128" d="M35 53.5q-3 19.5 3 41.5q5 16 11 32t12 33l25 64l394 996q1 5 1.5 9.5t0.5 9.5q0 7 2 17q1 16 18 31q14 12 59 12q22 0 37.5 -10t28.5 -27q12 -17 21 -38.5t18 -40.5l428 -1084q2 -4 2.5 -7.5t1.5 -6.5q0 -10 1 -15q0 -22 -12.5 -39.5t-34.5 -25.5q-33 -19 -66 -5 q-16 6 -30 19.5t-21 33.5l-96 249h-547l-89 -223q-22 -52 -44 -70.5t-45 -18.5q-20 0 -37 8t-28 22t-14 33.5zM335 439h462l-232 590z" />
<glyph unicode="&#x411;" horiz-adv-x="1126" d="M113 1267q0 14 12 23q11 9 47 9h698q43 0 64 -23t21 -50q0 -28 -21 -51t-64 -23h-587v-374h375q71 0 137 -22.5t120 -62.5t90.5 -94.5t51.5 -122.5q12 -58 7.5 -126t-37.5 -136q-34 -68 -87 -116t-124 -75q-71 -28 -148 -28h-464q-49 0 -65 27t-16 79v1105q0 15 -5 31 q-5 15 -5 30zM283 146h377q52 0 97 19t79 52t53.5 78t19.5 97t-20 97.5t-53 78.5q-34 33 -79 51.5t-95 18.5h-379v-492z" />
<glyph unicode="&#x412;" horiz-adv-x="1142" d="M122 1267q0 14 12 23t48 9h488q66 0 123.5 -22.5t103.5 -62.5t73.5 -94.5t34.5 -119.5q3 -30 1 -58.5t-9 -57.5q-7 -30 -19 -56t-28 -47q-16 -22 -33.5 -38t-33.5 -26q28 -12 57 -34.5t54 -52.5q26 -31 45.5 -69.5t27.5 -84.5q12 -58 7.5 -126t-38.5 -136t-87 -116 t-124 -75q-68 -28 -147 -28h-464q-50 0 -65.5 27t-15.5 79v1105q-1 17 -6 31q-5 15 -5 30zM293 146h377q52 0 97 19t79 52t53.5 78t19.5 97t-19.5 97.5t-53.5 78.5t-79 51.5t-95 18.5h-379v-492zM293 776h375q39 0 72.5 15t59.5 40q26 26 40 60.5t14 73.5t-15 73t-39 60 q-26 25 -60 39.5t-72 14.5h-375v-376z" />
<glyph unicode="&#x413;" horiz-adv-x="1072" d="M120 1276q5 13 30 18q11 2 32.5 3.5t50.5 0.5h731q12 0 26.5 -5t25.5 -15t18.5 -25.5t7.5 -34.5q0 -20 -7.5 -35.5t-19.5 -25.5t-27 -15t-29 -5h-671v-1049q0 -17 -4.5 -34t-14.5 -29q-10 -13 -25.5 -21.5t-36.5 -8.5q-24 0 -39 9t-25 24q-10 14 -13.5 30t-3.5 30v1099 q0 16 -1.5 29.5t-3.5 24.5q-6 22 -1 35z" />
<glyph unicode="&#x414;" horiz-adv-x="1256" d="M34 61q0 42 17.5 65.5t49.5 31.5q51 25 90 71t69 108q33 69 55.5 151t37.5 169q14 87 22.5 172t12.5 160q3 74 3.5 133t0.5 91q0 13 -3 27q-4 11 -4 25q0 15 12 24t50 9h5h11.5t10.5 -1q5 1 9.5 1h10.5h497q49 -2 78.5 -32t29.5 -79v-1025h26q19 0 37 -3t31 -11 q12 -9 20 -26t8 -45v-271q0 -29 -11.5 -47.5t-28.5 -27.5t-37.5 -10t-37.5 9q-17 9 -29 28t-12 46v203h-869v-193q0 -39 -19 -67.5t-62 -28.5q-39 0 -60 28t-21 65v250zM322 162h615v975h-399q-1 -8 -1 -15.5v-15.5q-1 -68 -4.5 -147t-10.5 -168t-20.5 -176t-34.5 -170 q-23 -83 -54.5 -151.5t-77.5 -117.5q-3 -4 -6.5 -7.5z" />
<glyph unicode="&#x415;" horiz-adv-x="1057" d="M124 1265q0 15 10 24.5t41 9.5h758q43 0 64.5 -24t21.5 -53q0 -30 -20.5 -54.5t-63.5 -24.5h-641v-419h509q37 0 63 -27q11 -12 16 -29.5t0 -37.5q-5 -27 -26 -43t-51 -16h-511v-414h632q19 0 36.5 -5t30.5 -15t21 -24.5t8 -36.5q0 -39 -28 -60t-65 -21h-690 q-55 0 -80.5 28.5t-25.5 80.5v1100q-1 7 -2 15t-3 16q-4 13 -4 30z" />
<glyph unicode="&#x416;" horiz-adv-x="1763" d="M34 1213q0 22 10.5 41t32.5 32q19 12 54 14h27q43 0 78 -6.5t65 -18.5t56 -29.5t50 -39.5q55 -50 95 -117t75 -138t70 -134t84 -106q14 -12 27.5 -23t29.5 -20v550q0 13 -3 26q-4 11 -4 25t13 23q12 9 50 10q52 0 78 -26t28 -90v-520q17 8 32.5 19.5t30.5 25.5 q49 43 84.5 106.5t69.5 133.5q35 71 75 138t95 117q48 43 105.5 68.5t142.5 25.5h28q33 -1 54.5 -14t32.5 -32q10 -19 10 -41t-11 -40t-33 -29q-22 -12 -53 -12q-9 0 -9 1h-1q-83 0 -138.5 -39t-91.5 -104q-16 -28 -32 -56.5t-32 -57.5q-13 -26 -27 -50.5t-29 -49.5l39 -62 q17 -28 35.5 -57t37.5 -59l78 -123q19 -32 38.5 -62t39.5 -60q19 -30 37 -59t35 -56q17 -28 33 -53t31 -48q20 -35 23 -53.5t-4 -39.5q-6 -22 -26.5 -37t-48.5 -15q-25 0 -45.5 13t-44.5 52l-358 574q-38 -45 -81 -79t-94 -54l-14 -6t-14 -5v-407q0 -39 -24.5 -62t-56.5 -23 q-33 0 -57 23t-24 62v409q-35 11 -65.5 30t-58.5 42q-19 15 -37 33t-35 39l-360 -576q-24 -39 -44 -52t-46 -13q-29 0 -48.5 15.5t-25.5 36.5q-7 20 -4 39t23 54q14 23 30 48t34 53q35 55 72.5 115t77.5 122l78 123q19 30 37 59t36 57q11 16 20 31.5t18 29.5 q-16 27 -32 53.5t-30 53.5q-16 30 -32.5 60.5t-34.5 58.5t-39 52.5t-47 43.5q-53 36 -134 36h-1q-1 -1 -10 -1q-32 0 -53 11.5t-32 30.5t-11 39z" />
<glyph unicode="&#x417;" horiz-adv-x="932" d="M59 151q-5 23 2 44t28 32q12 6 25 6q12 0 24 -3.5t24 -8.5l22 -12q24 -12 48.5 -24.5t52.5 -23.5t59 -18.5t68 -7.5q127 0 202 59q36 28 56 69t20 94q0 52 -21.5 94.5t-60.5 72.5q-39 31 -92.5 48.5t-118.5 17.5h-18h-12q-3 -1 -11 -1h-14q-31 0 -52.5 14t-21.5 48 q0 35 23 47.5t55 12.5h13q2 -1 8 -1h10q4 -1 18 -1q61 0 110 15.5t84 44.5t54 69t19 89q0 99 -67.5 150t-187.5 51q-72 0 -127 -23.5t-98 -50.5q-6 -4 -16.5 -7.5t-22.5 -4.5t-23 1.5t-21 9.5q-17 12 -23.5 31t5.5 44q18 29 51.5 56t77.5 49q43 20 94 32.5t107 12.5 q90 0 164.5 -25t130.5 -71q55 -46 85.5 -110t30.5 -142q0 -65 -25 -122t-71 -102q-14 -14 -30.5 -26.5t-35.5 -24.5q53 -25 93 -64q49 -47 76.5 -108t27.5 -129q0 -83 -33 -150.5t-92 -116.5t-139 -75.5t-176 -26.5q-58 0 -116.5 13.5t-109.5 37.5q-50 24 -85.5 53.5 t-46.5 61.5z" />
<glyph unicode="&#x418;" horiz-adv-x="1389" d="M117 1265q0 8 2 14.5t10 10.5q8 5 22 6q7 1 16.5 1.5t22.5 0.5q49 0 72.5 -22t23.5 -61v-58l-1 -866l820 960q22 24 43.5 35.5t59.5 11.5q37 0 46.5 -22.5t9.5 -62.5v-1139q0 -32 -22.5 -55.5t-58.5 -23.5q-34 0 -57 23t-23 58v919l-813 -947q-15 -17 -38 -35t-48 -18 q-37 0 -58.5 25.5t-21.5 60.5v1130q0 17 -3 28q-4 9 -4 26z" />
<glyph unicode="&#x419;" horiz-adv-x="1389" d="M117 1265q0 8 2 14.5t10 10.5q8 5 22 6q7 1 16.5 1.5t22.5 0.5q49 0 72.5 -22t23.5 -61v-58l-1 -866l820 960q22 24 43.5 35.5t59.5 11.5q37 0 46.5 -22.5t9.5 -62.5v-1139q0 -32 -22.5 -55.5t-58.5 -23.5q-34 0 -57 23t-23 58v919l-813 -947q-15 -17 -38 -35t-48 -18 q-37 0 -58.5 25.5t-21.5 60.5v1130q0 17 -3 28q-4 9 -4 26zM524 1550q0 27 17.5 46t44.5 19q20 0 30 -10t16 -25l9 -32q4 -17 12.5 -32.5t24.5 -24.5q14 -10 45 -10q30 0 46 9.5t26 25.5q7 14 12 32q4 17 9.5 32t16.5 26q9 9 29 9q27 0 44.5 -18.5t17.5 -45.5 q0 -40 -16.5 -74t-44.5 -60t-64 -40t-76 -14q-41 0 -76.5 14t-62.5 40q-28 26 -44 60t-16 73z" />
<glyph unicode="&#x41a;" horiz-adv-x="1077" d="M117 1269q0 14 12 23t50 10q52 0 78.5 -26t28.5 -90v-520q17 8 32.5 19.5t29.5 25.5q49 43 84.5 106.5t70.5 133.5q35 71 74.5 138t95.5 117q48 43 105.5 68.5t142.5 25.5h27q33 -1 54.5 -14t32.5 -32q10 -19 11 -41q0 -22 -11.5 -40t-33.5 -29q-22 -12 -53 -12 q-9 0 -9 1h-1q-83 0 -138 -39.5t-92 -104.5q-16 -28 -32 -56.5t-31 -58.5q-13 -26 -27 -50.5t-28 -49.5l38 -60q17 -28 35 -57t37 -59l78 -123q19 -32 39 -62t39 -60t37 -59t36 -56q17 -28 33 -53t30 -48q20 -35 23.5 -53.5t-3.5 -39.5q-6 -22 -26.5 -37t-49.5 -15 q-25 0 -45.5 13t-43.5 52l-355 570q-36 -43 -78 -76t-95 -53q-8 -3 -16.5 -6.5t-16.5 -5.5v-406q0 -39 -24.5 -62t-56.5 -23q-33 0 -57 23t-24 62v1138q0 13 -3 26q-4 11 -4 25z" />
<glyph unicode="&#x41b;" horiz-adv-x="1361" d="M-11 45q0 27 15.5 47.5t42.5 26.5q89 8 143 67t57 171v861q-1 5 -1.5 11t-2.5 12q-3 12 -3 24q0 14 12 23q10 7 47 9h3h857q11 0 27 -5l8 -3q2 -1 3.5 -2t3.5 -2q20 -14 29.5 -36t9.5 -46v-237h-1v-889q0 -38 -24.5 -60.5t-56.5 -22.5q-37 0 -58.5 25.5t-21.5 57.5v1059 h-669v-702q0 -101 -18.5 -186t-58.5 -149q-41 -63 -105 -99t-157 -36q-34 0 -57.5 23.5t-23.5 57.5z" />
</font>
</defs>
</svg>
