<?xml version="1.0" standalone="no"?>
<!DOCTYPE svg PUBLIC "-//W3C//DTD SVG 1.1//EN" "http://www.w3.org/Graphics/SVG/1.1/DTD/svg11.dtd" >
<svg xmlns="http://www.w3.org/2000/svg" xmlns:xlink="http://www.w3.org/1999/xlink" version="1.1">
<metadata></metadata>
<defs>
<font id="bubbleboddy_neueregular" horiz-adv-x="1304" >
<font-face units-per-em="2048" ascent="1638" descent="-410" />
<missing-glyph horiz-adv-x="470" />
<glyph horiz-adv-x="0" />
<glyph unicode="&#xd;" horiz-adv-x="470" />
<glyph horiz-adv-x="0" />
<glyph horiz-adv-x="0" />
<glyph unicode=" "  horiz-adv-x="470" />
<glyph unicode="&#x09;" horiz-adv-x="470" />
<glyph unicode="&#xa0;" horiz-adv-x="470" />
<glyph unicode="!" horiz-adv-x="472" d="M105 19q0 28 10.5 51t28 40t41 26.5t51.5 9.5q27 0 50 -9.5t40.5 -26.5t28 -40t10.5 -51q0 -27 -10.5 -50t-28 -40.5t-41 -27.5t-49.5 -10q-28 0 -51.5 10t-41 27.5t-28 41t-10.5 49.5zM115 411v810q0 30 9 54t25.5 42t38.5 28t48 10q53 0 86.5 -37.5t33.5 -96.5v-810 q0 -30 -9.5 -53.5t-26 -40.5t-38 -26t-46.5 -9t-47 9t-38.5 26t-26 40.5t-9.5 53.5z" />
<glyph unicode="&#x22;" horiz-adv-x="710" d="M74 1181q0 28 8 52.5t23.5 43.5t38 31t52.5 12q28 0 50 -12t38 -31.5t24.5 -44t8.5 -49.5l-11 -126q-3 -28 -9 -54.5t-18.5 -47.5t-32.5 -34.5t-50 -13.5q-32 0 -51.5 13.5t-31.5 35t-18 48t-9 53.5zM402 1180q0 27 8 52t22.5 44.5t37 31.5t52.5 12q28 0 50.5 -12 t38.5 -31.5t24.5 -44t8.5 -49.5l-11 -126q-3 -28 -9.5 -54.5t-18.5 -47.5t-32 -34.5t-51 -13.5q-32 0 -51 13t-31 33.5t-18 47.5t-9 56z" />
<glyph unicode="#" horiz-adv-x="1432" d="M35 439q0 25 9 47t25 38.5t37.5 25.5t46.5 9h1032q25 0 46 -9t37.5 -25.5t26 -38.5t9.5 -47t-9.5 -47t-26 -38.5t-38 -26.5t-45.5 -10h-1032q-25 0 -46.5 10t-37.5 26.5t-25 39t-9 46.5zM131 894q0 26 9.5 48t25 38t37 25.5t46.5 9.5h1032q25 0 46.5 -9.5t37 -25.5 t25 -38t9.5 -48q0 -25 -9.5 -47t-25 -38t-37 -26t-46.5 -10h-1032q-25 0 -46.5 10t-37 26t-25 38t-9.5 47zM255 91.5q-4 23.5 2 46.5l247 1100q6 24 21 42.5t35 30.5t43.5 16t47.5 -2q25 -6 44 -21t31 -35t16 -43t-2 -47l-246 -1100q-6 -24 -21 -43t-35 -30t-43.5 -15 t-48.5 2t-43.5 21t-31 34.5t-16.5 43zM688 93.5q-3 23.5 4 46.5l247 1106q7 24 22 42t35 28.5t43.5 13t47.5 -4.5q24 -6 42.5 -21.5t29.5 -35.5t15 -43t-4 -46l-245 -1106q-7 -24 -22.5 -42t-36 -28t-44 -12.5t-47.5 3.5q-25 7 -43 22t-29.5 34.5t-14.5 43z" />
<glyph unicode="$" horiz-adv-x="1029" d="M72 250q-3 20 2 41.5t16 38.5q12 19 36 32.5t56 13.5q27 0 52 -12.5t46 -39.5q12 -25 33.5 -46.5t49.5 -37.5t62 -25t72 -9t76.5 10t70 29.5t51 48.5t19.5 65q0 42 -27 74t-70.5 58t-99 49t-114 48t-114.5 54.5t-99.5 68.5t-70 90t-26.5 120q0 80 32 148.5t88 118 t134.5 78t172.5 28.5q58 0 116.5 -14t111 -41t95.5 -64t72 -83q6 -13 10.5 -26t4.5 -29q1 -30 -8 -50.5t-25 -35t-37 -21.5t-45 -7q-29 -2 -52 8.5t-51 43.5q-25 26 -46.5 47.5t-44.5 37.5t-50 25t-63 9q-32 0 -63.5 -10t-57 -28t-41 -44t-15.5 -58q0 -46 32.5 -79t82.5 -57 q95 -50 189.5 -96.5t169 -99t120.5 -115.5t46 -147q0 -60 -19 -112t-52.5 -94.5t-78 -75.5t-94.5 -55t-104 -33.5t-106 -11.5q-104 0 -183 25t-134.5 63.5t-87 87t-40.5 96.5zM399 1171v157q0 25 10 47t26.5 38.5t38.5 26t47 9.5q30 0 53 -11.5t38.5 -30t23.5 -44t8 -52.5 v-147zM403 -48v137l240 -7v-130q0 -25 -9.5 -46.5t-26 -37t-38.5 -25t-47 -9.5t-46 9.5t-37.5 25t-26 37t-9.5 46.5z" />
<glyph unicode="%" horiz-adv-x="1400" d="M43 1027q0 59 22 111.5t60.5 91t90 61t111.5 22.5q59 0 111 -22.5t91 -61t61.5 -91t22.5 -111.5t-22.5 -111.5t-61.5 -91t-91 -60.5t-111 -22t-111 22t-90.5 60.5t-60.5 91t-22 111.5zM205 1027q0 -57 33 -91.5t88 -34.5t89.5 34.5t34.5 91.5q0 55 -34.5 91t-89.5 36 q-54 0 -87.5 -36t-33.5 -91zM371 94q-2 16 6 39.5t15 42.5q38 106 71 195.5t62.5 169.5t58 155t58.5 154.5t62.5 168.5t71.5 196q7 23 20.5 40t30.5 28q12 11 29.5 18t34.5 9q26 2 48 -6t38 -22t26 -32.5t13 -38.5q1 -17 -7.5 -41.5t-13.5 -43.5q-39 -108 -71.5 -196.5 t-62.5 -168t-58.5 -155.5t-58 -155t-62.5 -168t-72 -197q-11 -39 -37 -64t-62 -30q-27 -3 -51.5 3.5t-43.5 21t-30.5 34.5t-14.5 43zM776 288q0 59 22 111.5t60.5 90.5t90 60.5t111.5 22.5q59 0 111.5 -22.5t91.5 -60.5t61.5 -90.5t22.5 -111.5t-22.5 -111.5t-61.5 -91 t-91.5 -60.5t-111.5 -22t-111 22t-90.5 60.5t-60.5 91t-22 111.5zM938 288q0 -57 33.5 -91.5t87.5 -34.5q55 0 89.5 34t34.5 92q0 55 -34.5 91t-89.5 36q-54 0 -87.5 -36t-33.5 -91z" />
<glyph unicode="&#x26;" horiz-adv-x="1146" d="M64.5 417q0.5 18 2.5 37q8 90 51.5 162t109.5 118q-36 39 -59.5 87t-30.5 105q-3 34 0 68q6 67 36.5 125.5t77.5 101.5t108.5 68t129.5 25q52 0 82 -24t30 -79q0 -28 -11.5 -52t-33.5 -39q-39 -12 -74.5 -23.5t-62 -28t-41.5 -43t-15 -67.5q0 -28 9.5 -51.5t26.5 -41 t40 -28t50 -10.5q14 0 38 0.5t37 0.5l-35 -225l-40 -1q-39 0 -72 -14.5t-58.5 -40t-40 -59t-14.5 -71.5q0 -39 14.5 -73t40 -59t59 -40t71.5 -15h215v13q59 -35 117.5 -69.5t116.5 -70.5q-5 -36 -17 -57.5t-30 -34t-41.5 -17t-52.5 -4.5h-279q-91 0 -170.5 27t-140 77.5 t-98 123.5t-44.5 164q-2 17 -1.5 35zM361 716q0 25 11.5 45t30 35.5t41.5 23.5t48 8h505q24 0 45 -8t36.5 -23.5t24.5 -36t9 -44.5t-9 -44.5t-24.5 -35.5t-36.5 -24.5t-45 -9.5h-500q-25 0 -49 9.5t-43.5 24.5t-31.5 35.5t-12 44.5zM705 113v844q0 25 9 47t25.5 38.5 t38.5 26t47 9.5t47 -9.5t38.5 -26t26 -38.5t9.5 -47v-844q0 -26 -9.5 -48t-26 -38.5t-38.5 -25.5t-47 -9q-26 0 -47.5 9t-38 25.5t-25.5 38.5t-9 48z" />
<glyph unicode="'" horiz-adv-x="392" d="M72 1058v114q0 28 7 55t22.5 47.5t38 33.5t53.5 13t53 -13t37 -33.5t22.5 -47.5t7.5 -55v-114q0 -28 -7.5 -55t-22.5 -48t-37.5 -34t-52.5 -13q-31 0 -53.5 13t-38 34t-22.5 48t-7 55z" />
<glyph unicode="(" horiz-adv-x="648" d="M115 86v820q1 76 28 143.5t74 120.5t110 87.5t136 45.5q28 5 57 4.5t55 -5.5q31 -12 51 -40t20 -64q0 -25 -9.5 -48.5t-26 -40.5t-39 -28t-48.5 -11q-36 0 -66 -13.5t-52.5 -36.5t-35.5 -53.5t-13 -64.5v-816q0 -53 30 -95t78 -61q31 -5 63 -15.5t58.5 -28t43.5 -41.5 t17 -55q0 -25 -9.5 -45.5t-26 -36t-38.5 -24.5t-47 -9q-85 0 -159 32.5t-130.5 88.5t-88.5 130.5t-32 159.5z" />
<glyph unicode=")" horiz-adv-x="661" d="M16 -206q0 18 6 38t19.5 37.5t35 31t54.5 18.5q34 0 65.5 13.5t56.5 36t39.5 53t14.5 66.5v815q0 35 -13 65.5t-36.5 54t-54 36.5t-64.5 13q-26 0 -47.5 11t-38.5 28t-27 41t-10 48q0 36 20 63t51 40q53 10 113 1q73 -9 135.5 -44t109.5 -88.5t74.5 -121t28.5 -142.5 v-820q0 -85 -32.5 -159.5t-88 -130.5t-130.5 -88.5t-160 -32.5q-25 0 -46 9t-38 24.5t-27 36.5t-10 47z" />
<glyph unicode="*" horiz-adv-x="880" d="M29.5 740.5q-3.5 20.5 0 40.5t14.5 37t29 29l160 106l-144 97q-18 12 -29 29.5t-14 37.5t1 40t16 38q26 36 67 44.5t77 -14.5l118 -79v125q0 20 7.5 38t21.5 31.5t32 21t40 7.5q20 0 38.5 -7.5t32.5 -21t22 -31.5t8 -38v-123l112 74q18 11 38 14.5t40 -0.5t37 -16t29 -30 t16 -39t0.5 -40.5t-15 -37t-28.5 -30.5l-140 -92l157 -104q17 -12 28.5 -29.5t15 -37.5t-0.5 -40.5t-16 -39.5q-12 -17 -29.5 -28.5t-37 -15.5t-40 -1t-38.5 16l-128 86v-147q0 -20 -8 -38t-22 -31.5t-32.5 -21t-38.5 -7.5q-43 0 -72 28t-29 70v148l-135 -88 q-18 -12 -38.5 -15.5t-40.5 1t-37 16.5t-29 30t-15.5 38.5z" />
<glyph unicode="+" horiz-adv-x="915" d="M96 492q0 36 23.5 61t58.5 25h557q35 0 59 -25.5t24 -60.5q0 -34 -24 -59.5t-59 -25.5h-557q-35 0 -58.5 25.5t-23.5 59.5zM372 209v557q0 35 25.5 58.5t59.5 23.5q36 0 61 -23.5t25 -58.5v-557q0 -35 -25 -59t-61 -24q-34 0 -59.5 24t-25.5 59z" />
<glyph unicode="," horiz-adv-x="409" d="M71 10.5q2 40.5 7 77.5q2 28 13 53t28.5 43.5t41.5 29t52 10.5q25 0 48 -9t40 -26t27.5 -40.5t9.5 -53.5q-7 -52 -29 -96t-50.5 -75.5t-60 -49t-58.5 -18.5q-27 0 -44 23t-22 64q-5 27 -3 67.5z" />
<glyph unicode="-" horiz-adv-x="932" d="M114 453q0 36 24 61t58 25h557q35 0 59 -25.5t24 -60.5q0 -34 -24.5 -59.5t-58.5 -25.5h-557q-34 0 -58 25.5t-24 59.5z" />
<glyph unicode="." horiz-adv-x="368" d="M55 117q0 27 10 50t27.5 40t41 27t50.5 10t50.5 -10t41.5 -27t28 -40.5t10 -49.5q0 -28 -10 -51t-28 -40t-41.5 -26.5t-50.5 -9.5q-28 0 -51 9.5t-40.5 26.5t-27.5 40t-10 51z" />
<glyph unicode="/" horiz-adv-x="954" d="M59 -103q-4 27 10 53q30 56 71.5 143.5t92 195.5t105.5 229.5t111.5 245.5t111 243t103.5 223q9 20 25 36t34 24q30 20 68 18q26 -2 46.5 -13t34.5 -27t21.5 -36t7.5 -39q0 -17 -9.5 -41.5t-15.5 -42.5q-145 -311 -289.5 -619t-288.5 -619q-17 -38 -49.5 -61t-75.5 -18 q-28 2 -52.5 17.5t-41 38t-20.5 49.5z" />
<glyph unicode="0" horiz-adv-x="1128" d="M58 496q0 104 40 195.5t108.5 160.5t161 108.5t196.5 39.5t196 -39.5t160.5 -108.5t108.5 -160.5t40 -195.5t-40 -196.5t-108.5 -161t-160 -108.5t-196.5 -40q-104 0 -196.5 40t-161 108.5t-108.5 161t-40 196.5zM305 496q0 -56 20 -105t54.5 -85.5t82 -57t102.5 -20.5 t103 20.5t82 57t54 85t20 105.5q0 55 -20 104t-54 85t-81.5 57t-103.5 21q-55 0 -102.5 -21t-82 -57t-54.5 -85t-20 -104z" />
<glyph unicode="1" horiz-adv-x="520" d="M20 738q0 22 11.5 42t33.5 41l120 123q16 16 35 31t41 21q14 4 30 4t31 -3q39 -9 64.5 -43t25.5 -83v-606l-241 58v361q-5 -1 -12.5 -5.5t-17.5 -9.5t-20.5 -9.5t-21.5 -4.5q-18 0 -33 8t-24.5 20t-15.5 27t-6 28zM171 111v362h241v-362q0 -26 -9.5 -48t-26 -38.5 t-38.5 -25.5t-47 -9q-26 0 -48 9t-38 25.5t-25 38.5t-9 48z" />
<glyph unicode="2" horiz-adv-x="1071" d="M81 106q0 28 18 61t48.5 68.5t71.5 73t87 73.5q53 41 110.5 78t109.5 68q50 28 84 49.5t54 40t28 36t8 37.5q0 23 -18.5 40.5t-47.5 29.5t-61 18.5t-58 6.5q-28 0 -55.5 -9.5t-50.5 -26t-38.5 -38t-18.5 -44.5q-14 -25 -43 -39t-62 -16t-63 7.5t-46 30.5q-14 24 -16.5 54 t3.5 58q12 42 45 86t85.5 80.5t125 59.5t162.5 23q116 0 196.5 -27t131.5 -68t73.5 -92t22.5 -98q-1 -59 -27 -104t-67.5 -82t-94 -69t-107.5 -64q-74 -44 -129.5 -89t-100.5 -95h367q36 0 69 -2t58.5 -12.5t40.5 -33.5t15 -66q0 -29 -10.5 -51t-30 -37.5t-45 -23.5 t-56.5 -8h-630q-26 0 -50.5 7.5t-44.5 23t-31.5 37t-11.5 48.5z" />
<glyph unicode="3" horiz-adv-x="1028" d="M59 885q0 55 37 89t100 34h182l-6 -242q-43 0 -85.5 -0.5t-85.5 -0.5q-30 0 -55.5 8t-44.5 23.5t-30.5 38t-11.5 50.5zM60 -59q0 39 21 67t52 38q17 6 39 5t40 -9q29 -17 57.5 -39t60 -42.5t67.5 -34.5t80 -14q55 0 101.5 18.5t79 52t50.5 80.5t18 103t-19 102.5 t-52.5 80.5t-81.5 52.5t-105 18.5q-20 0 -37.5 -3t-33 -6t-30 -6.5t-28.5 -3.5q-46 0 -75.5 24.5t-29.5 60.5q0 27 19 53.5t49 51.5t68 50t75 47t71.5 42t56.5 36h-263l43 242h462q33 0 62.5 -19.5t45.5 -48.5q22 -42 12.5 -85t-48.5 -72l-280 -197q78 -9 143.5 -47 t113 -95.5t74 -130.5t26.5 -154q0 -106 -38 -195t-103.5 -152.5t-153.5 -98.5t-188 -35q-49 0 -99 11.5t-96.5 31t-87.5 45t-72 54.5t-48.5 60t-17.5 61z" />
<glyph unicode="4" horiz-adv-x="1057" d="M41 96q-3 23 4 46l227 770q6 25 21.5 43.5t35.5 29t43.5 13.5t48.5 -4q24 -6 42.5 -21.5t30 -35t15 -43.5t-3.5 -47l-226 -771q-6 -24 -21.5 -42t-35.5 -28.5t-44 -13.5t-48 4q-25 7 -43.5 22t-30.5 35t-15 43zM44 111q0 25 9 46.5t24.5 37.5t37 25.5t46.5 9.5h735 q25 0 47 -9.5t37.5 -25.5t25 -38t9.5 -46q0 -25 -9.5 -47t-25 -38.5t-37.5 -26t-47 -9.5h-735q-25 0 -46.5 9.5t-37 26t-24.5 38.5t-9 47zM582 -190l4 230v86q1 58 3 105q1 19 1.5 39.5t1 36.5t1 26.5t0.5 13.5q-1 53 29 85.5t79 32.5t80 -33t31 -85q0 -3 0.5 -20.5t1.5 -42 t2 -52.5t1.5 -51.5t0.5 -38.5l1 -16l3 -316q0 -25 -9.5 -46.5t-26 -37t-38.5 -24.5t-47 -9t-46.5 9t-37.5 24.5t-25.5 37t-9.5 46.5z" />
<glyph unicode="5" horiz-adv-x="1036" d="M76 937q0 27 17.5 44t65.5 17h457v-230h-290v-170q47 5 90 6t89 1q100 0 185.5 -30t148 -87t98 -137.5t35.5 -180.5q0 -104 -36.5 -193.5t-101 -154t-153 -101t-193.5 -36.5q-74 0 -137.5 15t-114 42.5t-84 64t-49.5 79.5q-10 33 0 67q11 27 37.5 44.5t62.5 17.5 q16 0 32 -5t27 -12q34 -28 77 -45.5t98 -22.5q58 -9 112 2.5t95 41.5t65 79t24 117q0 65 -24.5 113.5t-67 79t-98 43t-116.5 4.5q-46 -11 -89 -23t-93 -12q-30 0 -58.5 5t-51 18t-36.5 34t-14 52q0 112 -4.5 227.5t-4.5 225.5zM492 768l33 230h256q24 0 44.5 -9t36 -24.5 t24.5 -36.5t9 -44q0 -24 -9 -45t-24.5 -37t-36 -25t-44.5 -9h-289z" />
<glyph unicode="6" horiz-adv-x="1095" d="M42 496q0 60 15 117t38 109q8 17 22.5 48t33 69.5t39 82t41 86t39.5 81t33 69t23 48.5l9 18q8 18 23.5 38t37 34t49 16.5t60.5 -13.5q55 -27 62.5 -78.5t-22.5 -109.5l-74 -152q41 14 84.5 20t90.5 1q86 -15 160.5 -58t129 -107.5t86 -146t31.5 -172.5q0 -104 -40 -196.5 t-108.5 -161t-160.5 -108.5t-196 -40t-196.5 40t-161 108.5t-108.5 160.5t-40 197zM288 496q0 -56 20 -105t54.5 -85.5t82.5 -57t103 -20.5t102.5 20.5t82 57t54.5 85t20 105.5q0 55 -20 104t-54.5 85t-82 57t-102.5 21t-103 -21t-82.5 -57t-54.5 -85t-20 -104z" />
<glyph unicode="7" horiz-adv-x="1038" d="M58 881q0 25 9.5 46.5t25 38t37 25.5t45.5 9h694q25 0 46.5 -9t37.5 -25.5t25 -38.5t9 -46q0 -25 -9 -46.5t-25 -38.5t-37.5 -26.5t-46.5 -9.5h-694q-25 0 -46 9.5t-36.5 26.5t-25 38.5t-9.5 46.5zM79 -185q3 23 15 45l671 1085q12 20 31 33.5t41 18.5t45.5 1.5 t45.5 -15.5q22 -13 35.5 -32t19.5 -41t3 -45t-15 -45l-671 -1084q-12 -20 -31.5 -33.5t-41.5 -19.5t-45 -2t-45 16q-23 12 -36.5 31.5t-19 41.5t-2.5 45z" />
<glyph unicode="8" horiz-adv-x="1045" d="M59 463q0 58 10.5 114t33 104t59 87t88.5 65q-39 36 -51.5 78.5t-12.5 94.5q0 68 26 127.5t70.5 104t103.5 70.5t127 26t127.5 -26t105.5 -70.5t72 -104.5t26 -127q0 -52 -16.5 -97t-51.5 -78q52 -26 88.5 -64.5t59 -86.5t33 -103.5t10.5 -113.5q0 -94 -36 -176.5 t-97.5 -144t-144.5 -97.5t-176 -36q-94 0 -176.5 36t-144 97.5t-97.5 144t-36 176.5zM313 463q0 -43 15.5 -80.5t42 -65t63 -43.5t79.5 -16t79.5 16t63.5 43.5t42.5 65t15.5 80.5q0 42 -15.5 79t-42 64.5t-63.5 44t-80 17.5q-43 0 -79.5 -16t-63 -43.5t-42 -65t-15.5 -80.5z M412 1001q0 -43 26 -73t72 -30q44 0 72.5 28t28.5 75q0 46 -28.5 75t-72.5 29t-71 -29t-27 -75z" />
<glyph unicode="9" horiz-adv-x="1110" d="M48 493q0 104 40 195.5t108.5 160.5t161 108.5t196.5 39.5t196 -39.5t160.5 -108.5t108.5 -160.5t40 -195.5q0 -63 -15.5 -123.5t-41.5 -111.5l-242 -508q-24 -51 -72 -63q-21 -7 -45 -4q-30 2 -51.5 15t-35.5 34q-30 34 -28 79q18 59 45.5 108.5t57.5 107.5 q-41 -14 -84.5 -19t-90.5 0q-86 14 -160.5 58t-129.5 108.5t-86.5 145.5t-31.5 173zM294 493q0 -56 20 -105t54.5 -85.5t82.5 -57.5t103 -21t103 21t82 57.5t54 85.5t20 105q0 55 -20 104t-54 85t-82 57t-103 21t-103 -21t-82.5 -57t-54.5 -85t-20 -104z" />
<glyph unicode=":" horiz-adv-x="384" d="M62 119q0 27 10.5 50.5t28 41t41 28t49.5 10.5q27 0 50.5 -10.5t41.5 -28t28.5 -41.5t10.5 -50q0 -27 -10.5 -50.5t-28.5 -41t-41.5 -27.5t-50.5 -10t-50 10t-40.5 27.5t-28 41t-10.5 50.5zM62 870q0 27 10.5 50.5t28 41t41 27.5t49.5 10q27 0 50.5 -10t41.5 -27.5 t28.5 -41t10.5 -50.5t-10.5 -50t-28.5 -40.5t-41.5 -28t-50.5 -10.5t-50 10.5t-40.5 28t-28 40.5t-10.5 50z" />
<glyph unicode=";" horiz-adv-x="393" d="M54 11q2 41 7 78q2 28 13.5 53t29 43.5t41.5 29t52 10.5q6 0 14 -3q24 -2 44.5 -12t36 -27t23.5 -39.5t7 -48.5q-7 -53 -29 -96.5t-50.5 -75t-60 -49t-58.5 -18.5q-27 0 -44.5 23t-22.5 64q-5 27 -3 68zM66 872q0 27 9.5 50.5t27 40.5t41 26.5t51.5 9.5q27 0 50 -9.5 t41 -26.5t28.5 -40.5t10.5 -50.5q0 -28 -10.5 -50.5t-28.5 -39.5t-41.5 -27t-49.5 -10q-28 0 -51.5 10t-41 27t-27 39.5t-9.5 50.5z" />
<glyph unicode="&#x3c;" horiz-adv-x="701" d="M58 586q0 32 18 60t41 49l260 258q30 30 63 57.5t71 36.5q25 3 49 -7t42.5 -27.5t29 -42.5t7.5 -52q-5 -31 -26 -61.5t-47 -52.5l-248 -218l237 -205q27 -24 48.5 -54.5t26.5 -60.5q1 -39 -20 -69q-14 -24 -37 -38.5t-49 -17.5q-19 -6 -41 -2q-12 1 -27 10.5t-30 22.5 t-30 27.5t-26 26.5l-254 253q-24 23 -41 51t-17 56z" />
<glyph unicode="=" horiz-adv-x="944" d="M77 396q0 58 39.5 89t106.5 31h499q67 0 106 -31.5t39 -88.5t-39.5 -89t-105.5 -32h-499q-68 0 -107 31.5t-39 89.5zM77 752q0 58 39.5 89t106.5 31h499q67 0 106 -31t39 -89q0 -57 -39.5 -88.5t-105.5 -31.5h-499q-68 0 -107 30t-39 90z" />
<glyph unicode="&#x3e;" horiz-adv-x="699" d="M63 918q-1 9 1 18t4 19q4 20 15.5 38t28.5 29.5t37 18.5t41 6q36 -9 71.5 -36.5t65.5 -57.5l259 -258q20 -24 38 -51t20 -58q0 -28 -17.5 -56t-39.5 -51l-253 -253q-11 -11 -24.5 -23.5t-28 -24.5t-29.5 -22.5t-30 -15.5q-39 -10 -75 5.5t-55 52.5q-20 31 -19 68 q5 30 26.5 60.5t47.5 54.5l237 205l-248 218q-27 23 -47 52.5t-26 61.5z" />
<glyph unicode="?" horiz-adv-x="1055" d="M91.5 969.5q-4.5 24.5 5.5 54.5q15 58 53.5 113t95.5 98t132.5 69t164.5 26q84 0 161 -32t137 -89.5t96 -135.5t36 -169q0 -49 -11.5 -91.5t-34.5 -82.5t-58.5 -79t-85.5 -80q-34 -27 -66 -47t-59.5 -44t-48.5 -55.5t-30 -78.5q-5 -22 -15.5 -36t-23.5 -22t-25.5 -12 t-21.5 -4q-17 0 -36.5 5t-35 17t-26.5 33t-11 54q0 53 11 90.5t32.5 68t55 59.5t79.5 64q29 20 59 44t55 51.5t41.5 59t16.5 68.5q0 50 -17.5 89t-46.5 66t-66 41t-75 14q-39 0 -70 -10t-56 -27t-44.5 -39.5t-33.5 -47.5q-23 -48 -58.5 -73.5t-78.5 -19.5q-24 3 -44 15 t-34 31.5t-18.5 44zM356 44q0 27 10.5 50.5t28 41.5t41 28t49.5 10q27 0 50.5 -10t41.5 -28t28 -41.5t10 -50.5t-10 -50.5t-28 -41t-41.5 -27.5t-50.5 -10t-50 10t-40.5 27.5t-28 41t-10.5 50.5z" />
<glyph unicode="@" horiz-adv-x="1643" d="M62 527q0 101 27 196t75 177.5t116 150.5t150.5 117t177 75.5t197.5 26.5q101 0 196 -26.5t177.5 -75.5t150.5 -117t116.5 -150.5t75 -177t26.5 -196.5q0 -79 -15 -163.5t-50.5 -155.5t-93.5 -116.5t-142 -45.5q-63 0 -105 25t-67 67t-35 96.5t-10 112.5l2 170l171 -10 v-130q0 -43 1.5 -71t6.5 -44.5t13.5 -23.5t21.5 -7q31 0 50 26.5t29.5 69t14 95t3.5 106.5q0 74 -19 143t-54 129t-84 110.5t-109 85.5t-128.5 55t-142.5 20q-112 0 -209.5 -43.5t-171 -118t-115.5 -174t-42 -211.5q0 -110 42 -208.5t115.5 -173t171 -118t209.5 -43.5 q34 0 62.5 6.5t53 15t43.5 15.5t32 7q24 0 40.5 -7.5t26 -19t13.5 -26t4 -29.5q0 -49 -31.5 -80t-75.5 -48.5t-90.5 -23.5t-77.5 -6q-154 0 -289 58.5t-236 159t-159.5 236t-58.5 288.5zM396 522q0 83 32 156.5t86.5 128.5t128.5 87t158 32q83 0 154.5 -32t125 -87 t84 -128.5t30.5 -156.5t-30.5 -156.5t-84 -128.5t-125 -86.5t-154.5 -31.5q-84 0 -158 31.5t-128.5 86.5t-86.5 128t-32 157zM617 521q0 -37 14.5 -70t39.5 -58t58.5 -40t70.5 -15t70 15t58 40t39.5 58t14.5 70t-14.5 70.5t-39.5 58.5t-58 40t-70 15t-70.5 -15t-58.5 -40 t-39.5 -58.5t-14.5 -70.5zM1031 378l1 137q0 35 7 76.5t22.5 76.5t42 59.5t66.5 24.5q12 0 19.5 -13t10.5 -32.5t3.5 -42.5t0.5 -43l-2 -211z" />
<glyph unicode="A" horiz-adv-x="1178" d="M37 78.5q-6 26.5 1 56.5q8 26 17.5 50t18.5 48l382 956q5 13 6.5 26.5t3.5 26.5q3 13 9 25t18.5 20.5t33.5 14t54 5.5q27 0 47 -11.5t36 -29.5t27.5 -40.5t22.5 -45.5l410 -1025q5 -11 7.5 -24t2.5 -25q0 -27 -13 -50.5t-37 -38.5q-23 -19 -50.5 -24.5t-54.5 2t-49.5 27 t-33.5 50.5l-74 184h-477l-76 -185q-19 -46 -51 -66q-28 -17 -62 -17h-11q-27 1 -49 12.5t-37.5 31.5t-21.5 46.5zM397 450h373l-186 476z" />
<glyph unicode="B" horiz-adv-x="1204" d="M125 1257q0 11 3.5 20.5t12.5 15.5t24 10t39 4h514q67 0 127 -21t108 -59t81.5 -91.5t44.5 -118.5q6 -35 6 -70q0 -29 -4 -58q-4 -36 -16 -65t-27.5 -51.5t-31 -38t-26.5 -22.5q18 -8 44.5 -28t51.5 -52t44.5 -74t25.5 -95q4 -31 4 -61.5t-4 -60.5q-11 -78 -48 -142.5 t-93 -111t-126 -72t-148 -25.5h-473q-65 0 -92.5 39.5t-27.5 98.5v1044q-1 9 -2 17.5t-3 16.5l-2 7l-4 22t-2 22zM131 1213q1 -2 1 -3.5t1 -3.5zM376 213h343q39 0 74 14.5t62.5 39.5t43.5 61t16 79t-15.5 78.5t-43 61t-62.5 39.5t-74 14h-344v-387zM376 793h337 q30 0 57 11.5t47 32t31.5 48t11.5 58.5q0 32 -12 59.5t-32.5 47.5t-47.5 32t-56 12h-336v-301z" />
<glyph unicode="C" d="M62 647q0 90 24 174t67 157.5t102.5 133t133 102.5t157.5 67t175 24q71 0 134 -11t119.5 -35t109.5 -63t104 -94q34 -37 36 -87q1 -23 -9 -46.5t-30 -40.5q-14 -13 -32.5 -21.5t-39.5 -9.5t-44 7t-46 26q-61 62 -135 99t-167 37q-86 0 -162.5 -33.5t-132.5 -91t-89 -134 t-33 -162.5t33 -162t89.5 -133.5t132.5 -91t162 -33.5q55 0 100.5 13t85.5 35.5t76 51.5t73 62q14 9 32 15t36.5 6t36 -5.5t32.5 -17.5q23 -14 36 -37.5t13 -51.5q0 -24 -8.5 -46.5t-28.5 -41.5q-51 -57 -102.5 -98.5t-109.5 -68.5t-124.5 -39.5t-147.5 -12.5 q-136 0 -256 51.5t-209.5 141t-141.5 209.5t-52 256z" />
<glyph unicode="D" horiz-adv-x="1295" d="M125 1257q0 11 3.5 20.5t13 15.5t25.5 10t42 4h364q90 0 174 -23.5t157.5 -66.5t134 -103.5t104 -134t67 -157.5t23.5 -174q0 -91 -23.5 -175t-67 -157t-104 -133t-134 -103t-157 -66.5t-174.5 -23.5h-317q-45 0 -77.5 27t-40.5 68q-2 6 -2 12v14v1068q-1 20 -6 40t-5 38 zM377 227h196q86 2 162 35t133 89t90 132t33 165q0 92 -33 170.5t-90 136t-133 90t-162 33.5h-196v-851z" />
<glyph unicode="E" horiz-adv-x="1134" d="M125 1256q0 23 15.5 37t61.5 14h762q40 0 67 -17t40.5 -42.5t13.5 -56t-13 -56t-39.5 -42.5t-67.5 -17h-587v-315h456q28 0 52 -13t40 -33.5t21.5 -47t-4.5 -55.5q-12 -36 -41 -55.5t-67 -19.5h-457v-306h580q27 0 51 -8t42 -23.5t28.5 -37.5t10.5 -51q0 -27 -10.5 -49.5 t-28 -38.5t-41 -24.5t-49.5 -8.5h-688q-65 0 -100.5 38.5t-35.5 101.5v1041q-1 20 -6.5 42.5t-5.5 42.5z" />
<glyph unicode="F" horiz-adv-x="1116" d="M125 1256q0 23 15.5 37t61.5 14h750q16 0 37 -5.5t39 -18t30 -33.5t13 -52q0 -25 -8 -47t-23.5 -38.5t-37.5 -26.5t-50 -10h-574v-342h430q23 0 44.5 -7.5t38.5 -22.5t27.5 -36t10.5 -48t-10.5 -49t-27.5 -38.5t-38.5 -25t-44.5 -8.5h-430v-383q0 -25 -9 -48t-24.5 -40.5 t-37.5 -27.5t-50 -10t-50 10t-37 27.5t-24 40.5t-9 48v1055q-1 20 -6.5 42.5t-5.5 42.5z" />
<glyph unicode="G" horiz-adv-x="1354" d="M62 648q0 90 24 174t67 157.5t102.5 133t133 102.5t157.5 67t175 24q80 0 146.5 -14t124.5 -41.5t109.5 -69.5t102.5 -98q16 -18 25.5 -39t9.5 -46q0 -36 -20.5 -64t-50.5 -41q-27 -11 -55.5 -10.5t-54.5 16.5q-42 33 -78 63.5t-74.5 53.5t-82.5 37t-102 14 q-86 0 -162.5 -33.5t-132.5 -91t-89 -134t-33 -162.5q0 -91 32 -168.5t88 -133.5t131.5 -88.5t163.5 -32.5q49 0 97 20t89 54t70.5 78t41.5 93q35 28 66.5 33.5t55.5 -4t39 -31t17 -48t-10.5 -54.5t-41.5 -52q-16 -45 -52.5 -101t-91.5 -105.5t-127 -82.5t-159 -33 q-136 0 -255 51.5t-206.5 141t-138.5 209.5t-51 256zM730 493q-1 17 6.5 35t22 32t35.5 23.5t48 9.5h336q43 -1 69 -25.5t26 -86.5v-393q0 -42 -27 -69t-72 -27q-46 0 -71 29t-25 76v300h-31h-213q-24 0 -42.5 9.5t-32.5 23t-21.5 30t-7.5 33.5z" />
<glyph unicode="H" horiz-adv-x="1345" d="M125 1257q0 11 3 20.5t11.5 15.5t24.5 10t42 4q38 0 69 -6.5t53.5 -20t35.5 -37t13 -57.5v-431h609v424q-1 20 -6 40t-5 38q0 11 3.5 20.5t12.5 15.5t25.5 10t42.5 4q33 0 63 -5.5t53.5 -19t37.5 -36.5t14 -60v-1069q0 -27 -9.5 -50t-25 -40.5t-38 -27t-48.5 -9.5 q-27 0 -49 10t-37.5 27.5t-24.5 40.5t-9 49v396h-609v-396q0 -26 -9 -49t-24 -40.5t-37.5 -27.5t-50.5 -10t-50 10t-37.5 28t-24 41t-8.5 48v1062q-1 20 -6 40t-5 38z" />
<glyph unicode="I" horiz-adv-x="502" d="M125 1256q0 11 3.5 20.5t13 15.5t25.5 10t42 4q35 0 64.5 -5.5t52 -19t36 -37t15.5 -60.5v-1069q0 -25 -9 -47.5t-24 -40t-37.5 -27.5t-50.5 -10t-50.5 10.5t-37.5 28.5t-23.5 40t-8.5 46v1063q-1 20 -6 40t-5 38z" />
<glyph unicode="J" horiz-adv-x="492" d="M-124 -210q0 25 9.5 47t26 38t38.5 25.5t49 9.5q35 1 60.5 16t43 41t26 61t8.5 77l-1 1066q0 16 -1.5 27.5t-4 21t-4 17.5t-1.5 19q0 22 16 36t66 14q37 0 68 -7t54 -22.5t36.5 -43.5t13.5 -71v-996q0 -109 -23 -200t-69.5 -157t-119 -103t-170.5 -37q-26 0 -48 9.5 t-38 25.5t-25.5 38t-9.5 48z" />
<glyph unicode="K" horiz-adv-x="1236" d="M125 1264q0 11 3.5 20t13 15.5t25.5 10t42 3.5q34 0 64.5 -6.5t53 -22t36.5 -43.5t14 -72v-412l592 510q30 27 61.5 34.5t61.5 -2.5q12 -3 24 -8.5t23.5 -14t20 -20t11.5 -24.5q8 -23 8 -47q0 -17 -4 -33q-10 -40 -46 -69l-361 -291l391 -606q25 -39 26.5 -67t-11.5 -61 q-12 -30 -41 -50t-69 -20q-33 0 -61 17t-55 60l-362 585l-210 -175l1 -341q0 -31 -8.5 -57.5t-23.5 -45.5t-37.5 -30t-51.5 -11q-58 0 -89 40.5t-31 102.5v1052q-1 20 -6 40t-5 39z" />
<glyph unicode="L" horiz-adv-x="1116" d="M125 1267q0 11 3.5 20t13 15.5t25.5 10t42 3.5q37 0 67.5 -6.5t52.5 -22.5t35 -44.5t13 -71.5v-929h563q23 0 45 -9t38.5 -24.5t27 -37.5t10.5 -49q0 -28 -9.5 -50t-24.5 -38.5t-35.5 -25t-44.5 -8.5h-676q-30 1 -54 12.5t-42 29.5t-28.5 44t-10.5 55v1047q-1 20 -6 40 t-5 39z" />
<glyph unicode="M" horiz-adv-x="1517" d="M114 1256q0 11 3 20.5t12 16t25.5 10.5t44.5 4q30 0 50 -1t36 -5.5t29.5 -13t27.5 -23.5l424 -519q87 106 150.5 184.5t108 134t72.5 91.5t44.5 58t23.5 32.5t12 16.5q6 9 13 17.5t19 14.5t28.5 9.5t42.5 3.5q50 0 76 -21t37.5 -55t12 -77.5t0.5 -87.5v-955 q0 -25 -8.5 -47t-24.5 -38.5t-38.5 -26t-49.5 -9.5q-18 0 -39 7t-39 22t-29.5 37.5t-11.5 54.5v818l-299 -385q-24 -29 -47 -49t-51 -20q-31 0 -51.5 18t-47.5 51l-304 387v-435t1 -385q0 -25 -9 -47t-25.5 -38.5t-38.5 -26t-48 -9.5t-48 9t-38 25.5t-25 38.5t-9 48v253.5 v275.5v278t-1 260q0 22 -5.5 39.5t-5.5 38.5z" />
<glyph unicode="N" horiz-adv-x="1412" d="M125 1257q0 10 3.5 19.5t13 15.5t25.5 10t42 4q28 0 49 -3t38 -9.5t32.5 -17.5t32.5 -29l686 -808l-1 736q0 24 -5.5 42.5t-5.5 38.5q0 13 3 22.5t14.5 15.5t32 9t56.5 3q33 0 60 -6t46 -20t29.5 -37.5t10.5 -58.5v-1062q0 -27 -8 -51t-24 -42t-38 -28.5t-50 -10.5 q-30 0 -58 17t-48 40l-685 805v-179t-0.5 -192t-0.5 -191.5v-178.5q0 -26 -9.5 -48t-25 -38.5t-37 -25.5t-47.5 -9t-48 9.5t-37.5 25.5t-25 38t-9.5 47v1068q-1 20 -6 39t-5 40z" />
<glyph unicode="O" horiz-adv-x="1441" d="M62 648q0 90 24 174t67 157.5t102.5 133t133 102.5t157.5 67t175 24q90 0 174 -24t157 -67t133 -102.5t103 -133t66.5 -157.5t23.5 -174q0 -91 -23.5 -175t-66.5 -157t-103 -133t-133 -103t-157 -66.5t-174 -23.5q-136 0 -256 51.5t-209.5 141t-141.5 209.5t-52 256z M304 646q0 -86 33 -162t89 -133.5t132.5 -91t162.5 -33.5t161.5 33.5t132.5 91.5t90 134.5t33 162.5t-33 162t-90 133t-132.5 90.5t-161.5 33.5t-162.5 -33.5t-132.5 -91t-89 -134t-33 -162.5z" />
<glyph unicode="P" horiz-adv-x="1145" d="M125 1265q0 11 3.5 20t13 15.5t25.5 10t42 3.5h374q105 0 200.5 -38.5t167 -105t114 -158t42.5 -196.5t-42.5 -193t-114 -152t-167 -100t-200.5 -36h-206v-224q0 -26 -9.5 -48t-25.5 -38.5t-38 -25.5t-48 -9t-48 9t-37.5 25.5t-25 38.5t-9.5 48v1075q-1 20 -6 40t-5 39z M373 545h210q59 0 111 19t91.5 53.5t62 83.5t22.5 109q0 59 -22.5 111t-62 91t-91.5 61.5t-111 22.5h-210v-551z" />
<glyph unicode="Q" horiz-adv-x="1441" d="M62 648q0 90 24 174t67 157.5t102.5 133t133 102.5t157.5 67t175 24q90 0 174 -24t157 -67t133 -102.5t103 -133t66.5 -157.5t23.5 -174q0 -122 -41 -229.5t-113 -193t-170.5 -142.5t-212.5 -77l-12 -181q-5 -55 -30.5 -85t-75.5 -30q-52 0 -78.5 31.5t-31.5 83.5 l-11 180q-115 19 -213.5 76.5t-171 143t-114 193.5t-41.5 230zM309 648q0 -86 32 -162.5t87.5 -134.5t131 -91.5t161.5 -33.5t161 33.5t131 91.5t88 134.5t32 162.5t-32 162t-88 133t-131 90.5t-161 33.5t-161.5 -33.5t-130.5 -90.5t-87.5 -133t-32.5 -162z" />
<glyph unicode="R" horiz-adv-x="1155" d="M125 1265q0 11 3.5 20t13 15.5t25.5 10t42 3.5h374q105 0 200.5 -38.5t167 -105t114 -158t42.5 -196.5t-42.5 -193t-114 -152t-167 -100t-200.5 -36h-206v-224q0 -26 -9.5 -48t-25.5 -38.5t-38 -25.5t-48 -9t-48 9t-37.5 25.5t-25 38.5t-9.5 48v1075q-1 20 -6 40t-5 39z M373 545h210q59 0 111 19t91.5 53.5t62 83.5t22.5 109q0 59 -22.5 111t-62 91t-91.5 61.5t-111 22.5h-210v-551zM637 434l204 85l242 -340q15 -18 21.5 -40.5t4 -44.5t-14.5 -43t-32 -37q-20 -15 -42.5 -20.5t-45 -2.5t-42.5 14.5t-35 31.5z" />
<glyph unicode="S" horiz-adv-x="1030" d="M53 260q-3 25 2 47.5t18 40t33.5 28t48.5 10.5q27 0 52.5 -14t53.5 -38q14 -24 39 -45t56 -37t67.5 -26t75.5 -10q38 0 76 10t69.5 28.5t51.5 47t20 65.5q0 38 -27 67t-71 54.5t-100 49t-115 50.5t-115.5 59.5t-100 75t-70.5 97t-27 126.5q0 80 32.5 146t90 113 t136.5 73.5t172 26.5q46 0 94.5 -10.5t94.5 -29t86 -43t70.5 -53.5t48 -61t17.5 -64q0 -30 -9.5 -48.5t-24.5 -30.5t-36 -17t-45 -5q-14 -1 -27 0.5t-25.5 6.5t-26 14.5t-28.5 23.5q-51 52 -98 79.5t-107 27.5q-31 0 -63.5 -9.5t-59 -26.5t-43 -42.5t-16.5 -57.5 q0 -38 27.5 -68t73.5 -56t104.5 -51.5t119 -54t118.5 -61.5t104 -75.5t74 -97t28 -124.5q0 -91 -42 -162.5t-109.5 -120t-152 -74t-170.5 -25.5q-103 0 -182 24.5t-134 64t-87 87.5t-42 95z" />
<glyph unicode="T" horiz-adv-x="1160" d="M32 1186q0 25 9 46.5t25.5 38t39.5 26.5t50 10h846q26 0 49.5 -9t40.5 -25t27 -38t10 -49t-9.5 -48.5t-26.5 -38t-40 -25t-49 -8.5h-302l-3 -955q0 -26 -8.5 -48t-24 -38.5t-37.5 -25.5t-47 -9q-27 0 -49 9t-37.5 25.5t-24 38.5t-8.5 48l-2 955h-305q-27 0 -49.5 8.5 t-39 24.5t-26 38t-9.5 49z" />
<glyph unicode="U" d="M75 1256q0 11 3.5 20.5t12.5 15.5t25.5 10t42.5 4q34 0 63.5 -6t52.5 -21t36.5 -42.5t15.5 -70.5v-653q0 -62 22.5 -117t65 -95.5t103 -64t136.5 -23.5q71 0 131 23.5t104 64t69 95.5t25 117l-1 665q-1 20 -6 40t-5 38q0 11 3.5 20.5t12.5 15.5t25.5 10t42.5 4 q33 0 63 -5.5t53.5 -20.5t37.5 -43t14 -72l1 -651q-1 -112 -44.5 -210t-120 -172t-180.5 -117t-225 -43q-124 0 -228 42.5t-180 116t-118.5 172t-42.5 211.5l1 664q-1 20 -6 40t-5 38z" />
<glyph unicode="V" horiz-adv-x="1133" d="M31.5 1192q0.5 23 9.5 44.5t26 38.5t41 27q24 9 47 8.5t44.5 -9.5t38.5 -26t26 -40l383 -1055l31 -24q9 -24 8.5 -48t-10 -45.5t-27 -38.5t-40.5 -26q-24 -9 -46 -9q-23 -1 -46 9q-44 18 -64 68l-413 1079q-9 24 -8.5 47zM446 108q-1 24 9 48l30 24l384 1055 q7 24 24 40.5t38.5 25.5t46 9.5t48.5 -8.5t40.5 -26.5t26 -39t10 -45t-8.5 -46.5l-414 -1079q-19 -48 -64 -67q-23 -10 -47 -10q-23 0 -46 9q-24 9 -40.5 26t-26 38.5t-10.5 45.5z" />
<glyph unicode="W" horiz-adv-x="1721" d="M31.5 1192q0.5 23 9.5 44.5t26 38.5t41 27q24 9 47.5 8.5t45 -9.5t38.5 -26t25 -40l373 -1055l41 -24q9 -24 8.5 -48t-10 -45.5t-27 -38.5t-40.5 -26q-24 -9 -46 -9q-23 -1 -46 9q-44 18 -64 68l-413 1079q-9 24 -8.5 47zM446 108q-1 24 9 48l42 24l261 731q7 20 22 35.5 t34 23.5t40.5 8.5t41.5 -7.5q22 -8 34 -23.5t16.5 -34t2 -40t-9.5 -42.5l-259 -765q-19 -48 -64 -67q-23 -10 -47 -10q-23 0 -46 9q-24 9 -40.5 26t-26 38.5t-10.5 45.5zM765.5 874q-2.5 21 2 40t17 34t33.5 24q20 8 42 7.5t41 -8.5t33.5 -23t21.5 -36l269 -732l41 -24 q9 -24 8.5 -48t-10.5 -45.5t-27 -38.5t-40 -26q-24 -9 -46 -9q-23 -1 -46 9q-44 18 -65 68l-264 767q-8 20 -10.5 41zM1033.5 108q-0.5 24 8.5 48l42 24l373 1055q8 27 29.5 42t48.5 19q16 9 37 11.5t42 -5.5q24 -9 40.5 -26.5t26 -39t10 -45t-9.5 -46.5l-413 -1079 q-19 -48 -64 -67q-23 -10 -47 -10q-23 0 -46 9q-24 9 -40.5 26t-26.5 38.5t-10.5 45.5z" />
<glyph unicode="X" horiz-adv-x="1361" d="M45 108q0 23 8.5 45t26.5 41l547 572q17 18 26.5 15t16.5 -17.5t15.5 -36t26.5 -39.5q35 -35 35 -77q-1 -3 -1 -5q-2 -46 -38 -82l-457 -499q-16 -18 -38 -27.5t-45.5 -9.5t-46 8.5t-40.5 27.5q-18 17 -27 39t-9 45zM49 1185q0 23 9.5 45.5t26.5 40.5q18 18 41.5 27 t46.5 9t45 -9.5t38 -27.5l452 -492q18 -18 27.5 -39.5t9.5 -43.5t-8.5 -43.5t-26.5 -40.5q-17 -17 -26 -36.5t-16.5 -32.5t-16 -14.5t-26.5 17.5l-541 556q-17 17 -26 39t-9 45zM599 691q0 23 9 44.5t28 39.5l460 495q16 18 38 27.5t45 9.5t45.5 -9t41.5 -27 q17 -17 26.5 -40t9.5 -46t-9 -45t-26 -39l-551 -565q-18 -18 -26.5 -16.5t-14.5 15t-14.5 33.5t-25.5 38q-18 18 -27 40t-9 45zM603.5 600q-0.5 22 8 43.5t26.5 39.5q17 17 26.5 37t17 33.5t17.5 16t28 -15.5l537 -560q17 -17 25.5 -40t8.5 -46t-8.5 -45t-26.5 -39 q-18 -18 -41 -27.5t-46.5 -9.5t-45 9.5t-37.5 28.5l-450 492q-18 18 -28.5 39.5t-11 43.5z" />
<glyph unicode="Y" horiz-adv-x="1240" d="M26 1186q0 23 8 44.5t26 40.5q18 17 41.5 26.5t47 10t45 -9t36.5 -28.5l404 -510q18 -18 28 -39.5t11 -43.5t-8 -43.5t-27 -39.5q-17 -17 -27.5 -38.5t-18.5 -36.5t-18.5 -18t-28.5 15l-486 584q-16 19 -24.5 41t-8.5 45zM502 110v529q0 25 9 47t25 38t38 25.5t48 9.5 t47.5 -9.5t38 -25.5t25.5 -38t9 -47v-529q0 -26 -9 -48t-25.5 -38.5t-38.5 -25.5t-47 -9q-26 0 -48 9t-38 25.5t-25 38.5t-9 48zM570 677q1 22 11 43t28 40l404 510q15 19 36.5 28.5t45 9t46.5 -10t42 -26.5q17 -17 26 -39.5t9 -45.5t-9 -45.5t-25 -40.5l-491 -587 q-18 -18 -28 -14t-17.5 19.5t-16 37t-26.5 38.5q-18 18 -27 39.5t-8 43.5z" />
<glyph unicode="Z" horiz-adv-x="1200" d="M68 140q10 40 41 82q78 101 161 208t167.5 215t168 215t162.5 208l-555 -1q-26 0 -48.5 9t-38.5 25.5t-25.5 38t-9.5 46.5q0 24 9 45.5t25 38.5t38.5 27t50.5 10h780q28 0 51 -10t39.5 -27t25.5 -38t9 -46q0 -15 -7.5 -34t-19 -39t-25 -39.5t-26.5 -35.5l-630 -812h615 q58 0 91.5 -31t33.5 -84q0 -27 -10.5 -49t-27 -38t-38.5 -25t-46 -9h-840q-37 0 -69 17.5t-45 53.5q-11 23 -11 48q0 16 4 31z" />
<glyph unicode="[" horiz-adv-x="579" d="M116 -164v1358q0 24 9.5 43.5t26 34.5t38.5 23.5t47 8.5h209q25 0 47 -8.5t38.5 -24t26 -36.5t9.5 -46t-9.5 -48t-26 -40.5t-38.5 -27.5t-47 -10l-89 2v-1153l89 2q25 0 47 -10t38.5 -28t26 -40.5t9.5 -47.5t-9.5 -46.5t-26 -36.5t-38.5 -24t-47 -9h-209 q-32 0 -54.5 14.5t-37.5 38t-22 52.5t-7 59z" />
<glyph unicode="\" horiz-adv-x="967" d="M56 1179.5q-3 18.5 3 38.5q8 35 34 60q19 17 42 25t45 7t42.5 -9.5t34.5 -21.5q12 -12 23.5 -35.5t19.5 -41.5q47 -97 101 -208t109 -226t110.5 -229t105.5 -219t93 -195.5t75 -158.5q10 -18 13 -37.5t0 -38t-12 -35.5t-25 -30q-23 -19 -50.5 -27t-55 -4t-51 21t-37.5 47 q-76 158 -153.5 321l-155 326t-153 322.5t-145.5 309.5q-10 20 -13 38.5z" />
<glyph unicode="]" horiz-adv-x="578" d="M2 -212q0 25 10 48t26 40.5t38 27.5t47 10l89 -2v1153l-89 -2q-25 0 -47 10t-38 27.5t-26 40.5t-10 48q0 26 10 46.5t26 36t38 24t47 8.5h210q31 0 53.5 -14t37 -36t22 -50t7.5 -57v-1311q-1 -30 -8.5 -59t-21 -52.5t-36 -38t-54.5 -14.5h-210q-24 0 -46 9t-38.5 24 t-26.5 36.5t-10 46.5z" />
<glyph unicode="^" horiz-adv-x="1067" d="M126 910q6 33 30.5 64.5t49.5 55.5l227 231q20 19 46.5 35.5t56.5 16.5q27 0 52 -16t46 -36l227 -231q13 -13 27.5 -28.5t26 -32.5t19 -34t7.5 -33q0 -31 -16 -56t-42 -38q-30 -17 -62 -16q-30 5 -57.5 23.5t-48.5 40.5l-181 208l-182 -208q-22 -24 -49.5 -41.5 t-55.5 -22.5q-19 -1 -38 3q-39 9 -63 41.5t-20 73.5z" />
<glyph unicode="_" horiz-adv-x="1137" d="M125 100q0 31 14 54t37 38t51 22t58 7h567q29 0 57.5 -7t51 -22.5t37 -38t14.5 -53.5t-14.5 -53.5t-37 -37.5t-51 -22t-57.5 -7h-567q-30 0 -58 7t-51 22t-37 37.5t-14 53.5z" />
<glyph unicode="`" horiz-adv-x="357" d="M45 1256q-5 23 1 44t19 37.5t32 26t43 9.5q27 0 59.5 -21t61.5 -49t48.5 -56.5t20.5 -44.5q3 -20 -1 -35q-7 -34 -40 -48q-24 -11 -48 -8q-19 0 -50.5 15.5t-63 38t-55 47.5t-27.5 44z" />
<glyph unicode="a" horiz-adv-x="1202" d="M66 495q0 104 39.5 195.5t109 160.5t161 108.5t195.5 39.5t187 -39.5t140 -108.5t87.5 -160.5t30.5 -195.5t-30.5 -196.5t-87.5 -161t-139.5 -108.5t-187.5 -40q-104 0 -195.5 40t-161 108.5t-109 160.5t-39.5 197zM309 495q0 -56 20 -106t55.5 -87t83.5 -58.5t103 -21.5 t103 21.5t83.5 58.5t56 87t20.5 106q0 55 -20.5 104.5t-56 86.5t-83 58.5t-103.5 21.5q-55 0 -103 -21.5t-83.5 -58.5t-55.5 -86.5t-20 -104.5zM836 257v236q0 26 9.5 47t26 37.5t38.5 25.5t46 9q26 0 48 -9t38.5 -25.5t25.5 -38t9 -46.5v-426q0 -38 -19.5 -58t-55.5 -20 q-38 0 -62 22t-35 58l-44 175zM836 463v268l25 14l44 136q12 65 40.5 91.5t66.5 26.5q66 0 65 -65v-471q0 -26 -9 -48t-25.5 -38.5t-38.5 -25.5t-48 -9q-25 0 -46.5 9t-38 25.5t-26 38.5t-9.5 48z" />
<glyph unicode="b" horiz-adv-x="1199" d="M125 54v1147q0 26 9 48t25.5 38.5t38.5 25.5t48 9q25 0 46.5 -9t38 -25.5t26.5 -38.5t10 -48v-781l-26 -176l-44 -136q-12 -63 -40.5 -91t-66.5 -28q-66 0 -65 65zM188 495q0 104 37 195.5t100 160.5t147.5 108.5t179.5 39.5q104 0 193 -39.5t153.5 -108.5t101.5 -160.5 t37 -195.5t-37 -196.5t-101.5 -161t-153 -108.5t-193.5 -40q-104 0 -189.5 40t-146.5 108.5t-94.5 161t-33.5 196.5zM367 495q0 -56 20.5 -106t56 -87t83.5 -58.5t104 -21.5q55 0 102.5 21.5t83 58.5t56 86.5t20.5 106.5q0 55 -20.5 104.5t-56 86.5t-83 58.5t-102.5 21.5 t-103.5 -21.5t-84 -58.5t-56 -86.5t-20.5 -104.5z" />
<glyph unicode="c" horiz-adv-x="1032" d="M62 495q0 104 40 195.5t109 160.5t160.5 108.5t195.5 39.5q51 0 102.5 -9t99 -27t88.5 -43.5t71 -59.5q39 -42 39 -86q0 -25 -10.5 -46.5t-28 -36.5t-41 -21.5t-48.5 -1.5q-52 26 -105.5 50.5t-115.5 36.5q-19 2 -38 2q-38 1 -76 -9q-56 -14 -100.5 -48t-71 -86 t-26.5 -119q0 -66 25 -117.5t68 -85.5t99 -50q37 -10 78 -11q21 0 42 3q49 5 96 25t83 52q24 12 53 15.5t55 -8.5q29 -11 46.5 -38t17.5 -63q0 -41 -32 -82t-86.5 -73t-128 -52.5t-155.5 -20.5q-104 0 -195.5 40t-160.5 108.5t-109 160.5t-40 197z" />
<glyph unicode="d" horiz-adv-x="1199" d="M62 495q0 104 37 195.5t101.5 160.5t153 108.5t193.5 39.5q87 0 169 -39.5t145 -108.5t100.5 -160.5t37.5 -195.5t-31.5 -196.5t-90.5 -161t-142.5 -108.5t-187.5 -40t-193 40t-153.5 108.5t-101.5 160.5t-37 197zM306 495q0 -56 20 -106t55.5 -87t83.5 -58.5t103 -21.5 t103.5 21.5t84.5 58.5t56.5 87t20.5 106q0 55 -20.5 104.5t-56.5 86.5t-84 58.5t-104 21.5q-55 0 -103 -21.5t-83.5 -58.5t-55.5 -86.5t-20 -104.5zM833 257v944q0 26 9.5 48t26 38.5t38.5 25.5t46 9q26 0 48 -9t38.5 -25.5t25.5 -38.5t9 -48v-1147q0 -65 -64 -65h-2 q-37 0 -66 27.5t-40 91.5l-44 136z" />
<glyph unicode="e" horiz-adv-x="1137" d="M62 495q0 111 41 203.5t112 159.5t164 104.5t198 37.5q104 0 194.5 -36.5t158 -102t106.5 -156t39 -195.5q0 -51 -26.5 -68.5t-91.5 -17.5h-647q4 -47 26 -89.5t57 -75t80 -52t96 -19.5q49 0 95.5 17t83.5 49q22 12 51 13t57 -9t47.5 -33t19.5 -58q0 -40 -33 -73t-84 -56 t-115 -35.5t-123 -12.5q-104 0 -195.5 40t-161 108t-109.5 160t-40 197zM308 575h523q-4 49 -26 91t-56 72.5t-78.5 48t-93.5 17.5q-50 0 -96.5 -17.5t-82.5 -48t-60 -72t-30 -91.5z" />
<glyph unicode="f" horiz-adv-x="777" d="M43 777q0 24 8.5 44t23 34.5t34.5 23.5t44 9h441q23 0 42.5 -9t35 -23.5t24.5 -34.5t9 -44q0 -23 -9 -42.5t-24.5 -34.5t-35.5 -23.5t-42 -8.5h-441q-24 0 -44 8.5t-34.5 23.5t-23 35t-8.5 42zM230 111v755q0 105 24.5 194.5t72 154t119 101t166.5 36.5q26 0 48 -9.5 t38.5 -26t25.5 -38t9 -47.5q0 -37 -19.5 -65.5t-51.5 -41.5q-38 -8 -72 -20t-60 -35t-41.5 -59.5t-16.5 -91.5v-807q0 -24 -9 -46t-25 -39t-38.5 -26.5t-48.5 -9.5q-27 0 -48.5 10t-38 27t-25.5 38.5t-9 45.5z" />
<glyph unicode="g" horiz-adv-x="1202" d="M63 495q0 104 35 195.5t98 160.5t150 108.5t192 39.5q61 0 117.5 -16t104 -42t85 -58t60.5 -63q7 87 33 132.5t68 45.5q20 0 34 -12t21.5 -31t10.5 -42t3 -45v-781q0 -122 -38.5 -214t-102 -153.5t-145.5 -92t-171 -30.5q-54 0 -103 8t-87 26t-60 45t-22 64q0 23 9.5 41 t24 30.5t34.5 18t42 4.5q38 -5 72 -13q31 -7 72 -7h11q131 4 189 89q48 72 48 205q0 23 -1 48q-13 -33 -43 -63t-71.5 -53.5t-91.5 -37t-103 -13.5q-104 0 -191.5 40t-150.5 108.5t-98 160.5t-35 197zM308 495q0 -56 18 -106t51.5 -87t79.5 -58.5t101 -21.5t105 21.5 t87 58.5t59 86.5t22 106.5q0 54 -22.5 103t-59.5 86.5t-87 59.5t-104 22q-55 0 -101 -21.5t-79.5 -58.5t-51.5 -86.5t-18 -104.5z" />
<glyph unicode="h" horiz-adv-x="1240" d="M115 111v1082q0 25 9 47t25.5 38t38.5 25.5t48 9.5q25 0 46.5 -9.5t38 -25.5t26 -38t9.5 -47v-1082q0 -26 -9.5 -48t-26 -38.5t-38.5 -25.5t-46 -9q-26 0 -48 9t-38.5 25.5t-25.5 38.5t-9 48zM347 802q10 31 39.5 66t72.5 65t96 49.5t114 19.5q102 0 187 -39.5t145 -108 t93 -160t33 -195.5v-295l-241 36v258q0 55 -19 104.5t-53 86.5t-80 58.5t-101 21.5q-56 0 -106.5 -25t-88.5 -66.5t-60 -94t-22 -106.5zM886 127v147l241 -8v-153q0 -24 -9 -46.5t-25 -39.5t-38.5 -27t-47.5 -10q-31 0 -53.5 11.5t-37.5 30.5t-22.5 43.5t-7.5 51.5z" />
<glyph unicode="i" horiz-adv-x="470" d="M102 1260q0 28 10.5 51.5t28.5 41t42.5 28t52.5 10.5t51.5 -10.5t42 -28t29 -41.5t10.5 -51q0 -28 -10.5 -52t-29 -41.5t-42.5 -27.5t-51 -10q-28 0 -52.5 10t-42.5 27.5t-28.5 41.5t-10.5 52zM115 111v771q0 25 9 46.5t25 38t38 25.5t47 9t47 -9t38.5 -25.5t26 -38.5 t9.5 -46v-771q0 -26 -9.5 -48t-26 -38.5t-38.5 -25.5t-47 -9q-26 0 -47.5 9t-37.5 25.5t-25 38.5t-9 48z" />
<glyph unicode="j" horiz-adv-x="472" d="M-146 -253q0 36 19 65t52 42q38 8 72.5 20t60 35t41 59.5t16.5 91.5v811q0 26 8.5 49.5t24.5 41t38.5 28t49.5 10.5t49 -10.5t38 -28.5t24.5 -41t8.5 -49v-759q0 -106 -23.5 -195.5t-71 -154t-119 -100.5t-168.5 -36q-25 0 -46.5 9.5t-38 25.5t-26 38t-9.5 48zM106 1263 q0 27 10 50t27.5 40t41 27t51.5 10q27 0 50 -10t41 -27t28.5 -40.5t10.5 -49.5q0 -28 -10.5 -51t-28.5 -40t-41.5 -26.5t-49.5 -9.5q-28 0 -51.5 9.5t-41 26.5t-27.5 40t-10 51z" />
<glyph unicode="k" horiz-adv-x="1133" d="M115 111v1082q0 25 9 47t25.5 38t38.5 25.5t48 9.5q25 0 46.5 -9.5t38 -25.5t26 -38t9.5 -47v-1082q0 -26 -9.5 -48t-26 -38.5t-38.5 -25.5t-46 -9q-26 0 -48 9t-38.5 25.5t-25.5 38.5t-9 48zM356 274v293l459 356q28 20 58.5 40t62.5 35q15 5 32 7t34 -4q25 -7 46 -26.5 t29 -45.5q7 -23 6 -47q-1 -15 -8.5 -31t-19.5 -31t-25.5 -28.5t-27.5 -23.5l-205 -159l265 -425q23 -27 27 -58.5t-7.5 -59.5t-36.5 -48t-60 -23q-16 -4 -32 -1t-30 10.5t-25.5 18.5t-20.5 22l-267 427q-40 -32 -74.5 -58.5t-65.5 -50t-58.5 -45.5t-55.5 -44z" />
<glyph unicode="l" horiz-adv-x="471" d="M115 111v1082q0 25 9 47t25.5 38t38.5 25.5t48 9.5q25 0 46.5 -9.5t38 -25.5t26 -38t9.5 -47v-1082q0 -26 -9.5 -48t-26 -38.5t-38.5 -25.5t-46 -9q-26 0 -48 9t-38.5 25.5t-25.5 38.5t-9 48z" />
<glyph unicode="m" horiz-adv-x="1692" d="M115 111v824q0 65 63 65h2q38 0 66 -27.5t41 -90.5l44 -156l25 -14v-601q0 -26 -9.5 -48t-26 -38.5t-38.5 -25.5t-46 -9q-26 0 -48 9t-38.5 25.5t-25.5 38.5t-9 48zM243 793q13 28 41.5 63.5t70 67t96.5 53.5t121 22q110 0 185.5 -37.5t122.5 -104t67.5 -157t20.5 -194.5 v-396q0 -23 -9 -44.5t-25 -38.5t-38.5 -27t-47.5 -10q-26 0 -48 9.5t-38.5 26t-25.5 38.5t-9 47v400q0 54 -8 100.5t-28.5 80.5t-54.5 53.5t-84 19.5q-48 0 -84.5 -20t-61 -55t-37.5 -81.5t-13 -99.5zM856 803q13 28 41 62t69.5 63.5t95.5 50t121 20.5q110 0 185.5 -39.5 t122 -108t67 -160t20.5 -195.5v-386q0 -23 -8.5 -44.5t-24 -38.5t-37.5 -27t-49 -10q-26 0 -47.5 9.5t-38 26t-26.5 38.5t-10 47v400q0 54 -8 100.5t-28 80.5t-54 53.5t-84 19.5q-48 0 -85 -20t-61.5 -55t-37 -81.5t-12.5 -99.5z" />
<glyph unicode="n" horiz-adv-x="1242" d="M115 111v824q0 65 63 65h2q38 0 65.5 -26t41.5 -92l44 -187l25 -14v-570q0 -26 -9.5 -48t-26 -38.5t-38.5 -25.5t-46 -9q-26 0 -48 9t-38.5 25.5t-25.5 38.5t-9 48zM269 808q35 42 80.5 77.5t97.5 60.5t107 39t110 14q104 0 189.5 -39.5t146.5 -108t94 -160t33 -195.5 v-385q0 -24 -8.5 -45.5t-25 -38.5t-38.5 -27t-47 -10q-26 0 -48 9.5t-38.5 26t-26 38.5t-9.5 47v384q0 55 -19 104.5t-53 86.5t-80 58.5t-101 21.5q-54 0 -104.5 -22.5t-89 -60t-61 -87t-22.5 -103.5z" />
<glyph unicode="o" horiz-adv-x="1136" d="M62 496q0 104 40 195.5t109.5 160.5t161 108.5t195.5 39.5t196 -39.5t161 -108.5t109 -160.5t40 -195.5t-40 -196.5t-109 -161t-160.5 -108.5t-196.5 -40q-104 0 -195.5 40t-161 108.5t-109.5 161t-40 196.5zM306 496q0 -56 20 -106t55.5 -87t83.5 -58.5t103 -21.5 t103 21.5t83.5 58.5t55.5 86.5t20 106.5q0 55 -20 104.5t-55.5 86.5t-83 58.5t-103.5 21.5q-55 0 -103 -21.5t-83.5 -58.5t-55.5 -86.5t-20 -104.5z" />
<glyph unicode="p" horiz-adv-x="1188" d="M115 -211v1146q0 65 63 65h2q38 0 66 -27.5t41 -90.5l44 -136l25 -14v-943q0 -26 -9.5 -48t-26 -38t-38.5 -25.5t-46 -9.5q-52 0 -86.5 34.5t-34.5 86.5zM180 496q0 104 33.5 195.5t94 160.5t145.5 108.5t189 39.5t193 -39.5t153.5 -108.5t101 -160.5t36.5 -195.5 t-36.5 -196.5t-101 -161t-153.5 -108.5t-193 -40q-92 0 -175.5 40t-147 108.5t-101.5 161t-38 196.5zM358 496q0 -56 20 -106t55.5 -87t83.5 -58.5t104 -21.5q55 0 102.5 21.5t83 58.5t56 86.5t20.5 106.5q0 55 -20.5 104.5t-56 86.5t-83 58.5t-102.5 21.5t-103.5 -21.5 t-84 -58.5t-55.5 -86.5t-20 -104.5z" />
<glyph unicode="q" horiz-adv-x="1188" d="M62 496q0 104 37 195.5t101.5 160.5t153 108.5t193.5 39.5q104 0 187.5 -39.5t142.5 -108.5t90.5 -160.5t31.5 -195.5t-35.5 -196.5t-97 -161t-144 -108.5t-175.5 -40q-104 0 -193 40t-153.5 108.5t-101.5 160.5t-37 197zM306 496q0 -56 20 -106t55.5 -87t83.5 -58.5 t103 -21.5t103 21.5t83.5 58.5t55.5 87t20 106q0 55 -20 104.5t-55.5 86.5t-83 58.5t-103.5 21.5q-55 0 -103 -21.5t-83.5 -58.5t-55.5 -86.5t-20 -104.5zM833 -211v943l25 14l44 136q11 63 40 90.5t66 27.5q67 0 66 -65v-1146q0 -52 -34 -86.5t-87 -34.5q-25 0 -46.5 9.5 t-38 25.5t-26 38t-9.5 48z" />
<glyph unicode="r" horiz-adv-x="871" d="M115 111v824q0 65 63 65h2q38 0 65.5 -26t41.5 -92l44 -187l25 -14v-570q0 -26 -9.5 -48t-26 -38.5t-38.5 -25.5t-46 -9q-26 0 -48 9t-38.5 25.5t-25.5 38.5t-9 48zM276 819q18 25 47 52.5t66 52t81 43.5t94 27q15 1 33 1q23 0 49 -2q46 -4 86 -18t67.5 -42t27.5 -71 q0 -29 -14.5 -52t-36.5 -35q-23 -13 -46 -15q-13 -1 -31 -2q-15 0 -34 1q-33 1 -69 3q-7 0 -14 1q-29 0 -57 -9q-34 -11 -63 -33t-51 -52t-36.5 -68t-18.5 -80z" />
<glyph unicode="s" horiz-adv-x="1022" d="M63 260q-2 25 8 46t28 35t40.5 20t45.5 -2q24 -6 48.5 -32t59.5 -55t85 -52.5t126 -23.5q17 -1 33 -1q25 1 47 3q38 4 66 14.5t44.5 28t16.5 41.5q0 22 -26 39t-68 34.5t-95 36t-109.5 41.5t-109.5 51.5t-95 66t-67.5 85.5t-25.5 109q0 46 26 93.5t77 85t126.5 61.5 t172.5 24q69 0 134 -12.5t118.5 -37.5t92 -63.5t56.5 -89.5q6 -30 -6 -53t-32 -37.5t-45 -19t-47 1.5q-23 8 -46.5 24.5t-51.5 34t-61.5 32.5t-74.5 20q-30 3 -56 3q-49 0 -82 -12q-51 -19 -51 -62q0 -37 44 -66t110.5 -56.5t143 -58t143 -69t111 -90.5t44.5 -123 q0 -78 -39 -132t-102.5 -88.5t-145 -49.5t-166.5 -15q-70 0 -144.5 18t-138.5 52.5t-108.5 85t-53.5 114.5z" />
<glyph unicode="t" horiz-adv-x="736" d="M32 863q0 26 9 47.5t25 37.5t37.5 24.5t46.5 8.5h440q25 0 46 -8.5t37 -24.5t25.5 -37.5t9.5 -47.5q0 -25 -9.5 -45.5t-25.5 -37t-37.5 -26t-45.5 -9.5h-440q-25 0 -46.5 9.5t-37.5 26t-25 37.5t-9 45zM247 111v1082q0 25 9 47t25 38t38 25.5t48 9.5q25 0 46.5 -9.5 t38 -25.5t26 -38t9.5 -47v-1082q0 -26 -9.5 -48t-26 -38.5t-38.5 -25.5t-46 -9q-26 0 -48 9t-38 25.5t-25 38.5t-9 48z" />
<glyph unicode="u" horiz-adv-x="1241" d="M115 496v385q0 23 8.5 44.5t25 38t38 26.5t47.5 10t48 -9t38.5 -25.5t26 -38.5t9.5 -46v-384q0 -56 19 -106t53 -87t80 -58.5t101 -21.5q54 0 104.5 22.5t89 60.5t61 87.5t22.5 104.5l88 -317q-36 -42 -81.5 -77t-97.5 -60.5t-107 -39.5t-109 -14q-104 0 -190 40 t-147 108t-94 160t-33 197zM886 309v572q0 26 9.5 47t26 37.5t38.5 25.5t47 9q26 0 47.5 -9t38 -25.5t25.5 -38t9 -46.5v-826q0 -65 -63 -65h-2q-37 0 -65 26t-42 93l-44 187z" />
<glyph unicode="v" horiz-adv-x="1015" d="M32.5 875q-1.5 24 5.5 46t22.5 40t38.5 29t47 12.5t45.5 -6.5t40 -24t29.5 -38l245 -593l248 593q9 23 27 39t40 24t46.5 6t46.5 -13q23 -10 39.5 -27.5t24 -39t7 -45.5t-10.5 -47l-353 -773q-17 -36 -49 -53q-29 -15 -61 -15h-7h-6q-30 0 -56 16q-28 18 -46 51l-351 771 q-11 23 -12.5 47z" />
<glyph unicode="w" horiz-adv-x="1674" d="M34 881v7q0 31 14 57q16 29 51 45q23 10 47 12t45.5 -6t40 -24t29.5 -38l236 -583l229 583q11 28 35 45t54 21q11 2 22 2q27 0 54 -12q37 -18 57 -55l222 -584l243 583q9 23 27 38.5t40 23.5t46.5 6t48.5 -12q33 -14 51 -44q15 -25 15 -53v-9q0 -6 -3 -20t-8.5 -31 t-12 -34.5t-12.5 -31.5l-326 -709q-28 -54 -83 -65q-19 -5 -40.5 -3t-41 10t-35.5 23t-23 35l-220 570l-202 -511q-22 -55 -59.5 -91t-80.5 -36h-4q-32 0 -59 16q-29 17 -45 51l-313 707q-27 60 -39 117z" />
<glyph unicode="x" horiz-adv-x="1085" d="M31 101q-2 23 6 46.5t31 42.5q7 8 22 23t33 32t37.5 35t36.5 33l191 182l-201 189q-16 15 -35 33t-36 34t-28 27l-12 10q-22 20 -32.5 44.5t-11.5 48t7.5 45t25.5 38.5q15 15 36 25t45.5 10.5t51 -11t54.5 -42.5q10 -12 21 -24q10 -11 22.5 -25t27.5 -29l219 -222 l310 320q8 9 25.5 19t40 13.5t48 -3t51.5 -29.5q15 -14 25 -34t11.5 -42.5t-6.5 -45.5t-27 -43q-8 -9 -23.5 -24.5t-34.5 -33t-39 -35.5t-36 -32l-192 -180l196 -186q15 -14 35 -33t39 -36.5t34 -31t20 -19.5q27 -25 32 -51t0 -48.5t-15.5 -39.5t-14.5 -22 q-12 -14 -32 -24.5t-43 -13.5t-47.5 4t-46.5 28q-9 9 -25 25.5t-33.5 34.5t-35.5 37t-32 35l-184 186l-187 -189q-15 -16 -32.5 -35t-33.5 -35.5t-29 -30.5t-22 -22q-13 -14 -33.5 -25t-43.5 -13.5t-47.5 4.5t-46.5 29q-14 13 -24 33.5t-12 43.5z" />
<glyph unicode="y" horiz-adv-x="1034" d="M48 923q13 48 63 71q23 10 48 12t48.5 -7t42.5 -27.5t30 -45.5l241 -617q55 141 99 253t74.5 192t48 125.5t21.5 54.5q9 22 26.5 38.5t39 25.5t46.5 9t52 -13q13 -6 29.5 -20.5t26.5 -34.5t11.5 -48t-13.5 -61l-408 -915q-23 -51 -51.5 -91.5t-67.5 -69t-89.5 -45 t-114.5 -18.5h-4q-56 0 -93 29q-39 31 -39 90q0 29 11.5 45.5t31 27.5t44 18t49.5 15t49.5 20t41.5 32l53 118q0 1 -14.5 33t-38.5 84t-54 118t-62 136l-168 368q-14 32 -14 63q0 18 4 35z" />
<glyph unicode="z" horiz-adv-x="1110" d="M62 160q8 46 49 85l543 518l-415 -2q-28 0 -52 6.5t-42 20t-29 33t-11 44.5q0 50 35.5 83t93.5 33h625q28 0 51.5 -9.5t40 -26.5t25.5 -39t9 -46q0 -15 -4 -30.5t-14 -33t-27.5 -39t-45.5 -49.5l-480 -484h486q58 0 94 -26t36 -79q0 -27 -10 -48t-27 -36.5t-38.5 -23.5 t-45.5 -8h-726q-38 0 -69.5 17.5t-44.5 54.5q-10 26 -10 55q1 14 3 30z" />
<glyph unicode="{" horiz-adv-x="619" d="M46 503q0 20 8 32.5t20.5 20.5t27 13.5t26.5 14.5t20.5 23.5t8.5 37.5v110l241 -157v-366v-292q1 -10 12 -11h57q24 0 46.5 -9t39.5 -26t27.5 -40t10.5 -50q0 -32 -13 -53.5t-34.5 -35.5t-48.5 -20t-56 -6h-49q-52 3 -95 24t-74 53.5t-47.5 74.5t-16.5 87v434 q0 19 -8.5 31.5t-20.5 20.5t-26.5 14.5t-27 16t-20.5 23t-8 35.5zM157 678v400q0 44 16.5 86.5t47.5 76t74 54.5t95 23h9t16 0.5t15.5 0.5h8.5q29 0 56 -6t48.5 -20t34.5 -36t13 -54q0 -28 -10.5 -50.5t-27.5 -39t-40 -26t-46 -9.5h-57q-11 0 -12 -11v-546z" />
<glyph unicode="|" horiz-adv-x="471" d="M115 -170v1373q0 25 9 47t25 38.5t37.5 26t47.5 9.5t48.5 -10t38.5 -27t25 -39.5t9 -47.5v-1369q0 -26 -9.5 -48t-26 -37.5t-38.5 -25t-47 -9.5q-57 0 -88 35t-31 84z" />
<glyph unicode="}" horiz-adv-x="619" d="M29 -196q0 27 10 50t27.5 40t40 26t46.5 9h57q10 0 11 11v292v366l242 157v-110q0 -24 8 -38t20.5 -23t26.5 -14.5t26.5 -13.5t20.5 -20.5t8 -32.5q0 -22 -8 -35.5t-20.5 -23t-26.5 -16t-26.5 -14.5t-20.5 -20t-8 -32v-434q0 -45 -17 -87t-47.5 -74.5t-73.5 -53.5 t-96 -24h-49q-29 0 -56 6t-48.5 20t-34 36t-12.5 53zM29 1203q0 32 12.5 54t34 36t49 20t55.5 6h9t16 -0.5t15.5 -0.5h8.5q52 -2 95.5 -23t74 -54.5t47.5 -76t17 -86.5v-400l-242 -157v546q0 11 -11 11h-57q-24 0 -46.5 9.5t-40 26t-27.5 39.5t-10 50z" />
<glyph unicode="~" horiz-adv-x="1344" d="M72 470q0 77 29.5 143.5t80.5 114.5t119.5 75.5t145.5 27.5q67 0 121 -21.5t98.5 -56.5t80 -80t65.5 -92q17 -20 42 -33t64 -13q49 0 81.5 29.5t46.5 77.5q5 29 14.5 58t25.5 52.5t38 38.5t52 15q35 0 60 -18t34 -48q10 -47 5 -92q-6 -70 -37.5 -128t-80.5 -100 t-111.5 -65.5t-132.5 -23.5q-69 0 -124 21t-100.5 55t-82.5 78t-68 92q-19 23 -43 36t-59 13q-49 0 -81.5 -30.5t-47.5 -76.5q-8 -29 -18 -57.5t-25.5 -51.5t-37 -38t-51.5 -15q-48 0 -75.5 32.5t-27.5 80.5z" />
<glyph unicode="&#xa1;" horiz-adv-x="365" d="M64 1028q0 -28 10.5 -51t28 -40t41 -26.5t51.5 -9.5q27 0 50 9.5t40.5 26.5t28 40t10.5 51q0 27 -10.5 50t-28 40.5t-41 27.5t-49.5 10q-28 0 -51.5 -10t-41 -27.5t-28 -41t-10.5 -49.5zM74 -174q0 -30 9 -54t25.5 -42t38.5 -28t48 -10q53 0 86.5 37.5t33.5 96.5v810 q0 30 -9.5 53.5t-26 40.5t-38 26t-46.5 9t-47 -9t-38.5 -26t-26 -40.5t-9.5 -53.5v-810z" />
<glyph unicode="&#xa2;" horiz-adv-x="1032" d="M22 495q0 104 39.5 195.5t108.5 160.5t160.5 108.5t195.5 39.5q51 0 102.5 -9t99 -27t88.5 -43.5t71 -59.5q39 -42 39 -86q0 -25 -10.5 -46.5t-28 -36.5t-41 -21.5t-48.5 -1.5q-52 26 -105.5 50.5t-114.5 36.5q-58 7 -114.5 -7.5t-101 -48t-71 -85.5t-26.5 -119 q0 -66 25 -117.5t68 -86t99.5 -50t120.5 -7.5q49 5 95.5 25t82.5 52q24 12 53 15.5t55 -8.5q29 -11 46.5 -38t17.5 -63q0 -41 -32 -82t-86.5 -73t-128 -52.5t-155.5 -20.5q-104 0 -195.5 40t-160.5 108.5t-108.5 160.5t-39.5 197zM422 78h220v-241q0 -23 -8.5 -42t-24 -33.5 t-35.5 -22.5t-43 -8q-24 0 -43.5 8t-34 22.5t-23 34t-8.5 41.5v241zM422 923v209q0 25 6.5 47t20.5 39.5t34.5 27.5t47.5 10q20 0 40 -7.5t35 -21.5t24 -31.5t10 -39.5q1 -27 1.5 -52.5t0.5 -51.5v-175z" />
<glyph unicode="&#xa3;" horiz-adv-x="1052" d="M-41 664q0 24 8.5 43.5t23 34.5t34.5 23.5t44 8.5h442q23 0 42.5 -8.5t34.5 -23.5t24 -35t9 -43t-9 -43t-24 -35t-34.5 -23.5t-42.5 -8.5h-442q-24 0 -44 8.5t-34.5 23.5t-23 35t-8.5 43zM113 130v615l242 47v-562h500q60 0 99.5 -32t39.5 -88q0 -58 -35.5 -89.5 t-94.5 -31.5h-615q-30 1 -55 11.5t-43 29.5t-28 44t-10 56zM113 693v166q0 105 24 194.5t71.5 154t119 101t167.5 36.5q26 0 47.5 -9.5t38 -26t25.5 -38.5t9 -47q0 -37 -19 -66t-52 -41q-38 -8 -72 -20.5t-60 -35.5t-41.5 -59t-16.5 -92v-250z" />
<glyph unicode="&#xa4;" horiz-adv-x="1221" d="M284 444q4 26 27 50l102 100l141 -145l-98 -100q-23 -23 -48.5 -27.5t-49.5 4t-43 27t-27 42t-4 49.5zM287 940.5q-5 23.5 0.5 45.5t21 40t41.5 27q27 11 55.5 6.5t49.5 -25.5l94 -95l-142 -143l-96 95q-2 2 -2.5 4.5t-1.5 4.5q-15 17 -20 40.5zM289 687q0 76 29 143.5 t79 117.5t117.5 79.5t142.5 29.5q76 0 143 -29.5t117.5 -79.5t79.5 -117.5t29 -143.5t-29 -143t-79.5 -117t-117.5 -79.5t-143 -29.5t-143 29.5t-117 79.5t-79 117t-29 143zM495 687q0 -34 12.5 -64.5t34.5 -53.5t52 -37t63 -14q35 0 65 14t52 37t34 53.5t12 64.5 q0 35 -12 65.5t-34 53.5t-52 36.5t-65 13.5q-34 0 -63.5 -13.5t-51.5 -36.5t-34.5 -53.5t-12.5 -65.5zM748 927l106 106q4 4 8 4q17 15 40.5 21t46.5 1t42 -21t28 -44q11 -26 6 -55t-27 -50l-108 -108zM757 445l143 143l97 -96q3 -2 5 -9q15 -17 20.5 -40.5t0 -45.5 t-21.5 -41t-43 -27q-26 -11 -55 -6t-49 25z" />
<glyph unicode="&#xa5;" horiz-adv-x="1278" d="M45 1175q0 23 9 45t28 41q18 18 40 26.5t45 8t45 -9.5t40 -26l419 -434q18 -17 27 -39t9 -45t-9.5 -45t-27.5 -41q-17 -17 -27.5 -38.5t-19.5 -36.5t-19 -18t-27 16l-496 512q-18 17 -27 39t-9 45zM266 368q0 36 23.5 60.5t58.5 24.5h611q35 0 59 -25t24 -60t-24 -60.5 t-59 -25.5h-611q-35 0 -58.5 25.5t-23.5 60.5zM266 647q0 36 23.5 60.5t58.5 24.5h610q35 0 59 -24.5t24 -60.5q0 -35 -24 -60.5t-59 -25.5h-610q-35 0 -58.5 25.5t-23.5 60.5zM532 100v600q0 25 9.5 47t26 38.5t38.5 26t47 9.5t47 -9.5t38.5 -26t26 -38.5t9.5 -47v-600 q0 -26 -9.5 -47.5t-26 -38t-38.5 -25.5t-47 -9q-26 0 -47.5 9t-38 25.5t-26 38.5t-9.5 47zM599 741.5q0 22.5 9 44.5t28 40l418 434q17 17 39 26t45 9.5t45.5 -8t41.5 -26.5q17 -17 26.5 -40t9.5 -46t-9 -45t-26 -39l-502 -516q-18 -18 -27.5 -14.5t-17 19t-16.5 37 t-26 39.5q-18 18 -28 40.5t-10 45z" />
<glyph unicode="&#xa6;" horiz-adv-x="468" d="M114 -199v532q0 26 9.5 48t26 38.5t38 26t45.5 9.5q26 0 48 -10.5t38.5 -27.5t25.5 -39t9 -45v-532q0 -29 -10 -51t-27 -38t-39 -24.5t-45 -8.5q-25 0 -46.5 9t-37.5 25.5t-25.5 38.5t-9.5 49zM114 664v528q0 32 10.5 56t27.5 40t38 24t43 8t43.5 -8t39 -24.5t28 -40 t10.5 -55.5v-528q0 -30 -10 -52.5t-27 -38.5t-39 -24t-45 -8q-24 0 -45 8t-37.5 23.5t-26.5 38.5t-10 53z" />
<glyph unicode="&#xa7;" horiz-adv-x="1022" d="M61 262q-2 23 6 43t21.5 34t31.5 23t38 10q18 1 36 -10.5t38 -29t43.5 -38.5t53.5 -39.5t69 -33.5t90 -20q42 -3 82.5 -1t73 12t52.5 31t20 57q0 25 -28 45t-73 37t-101.5 35t-115.5 39t-114 47.5t-95.5 62t-62 82t-12.5 107.5q6 44 32 91.5t74 86.5t120.5 64t169.5 25 q102 0 187 -25q29 -9 59.5 -30t56.5 -48t44.5 -56.5t21.5 -55.5t-11.5 -44.5t-53.5 -22.5q-13 1 -18.5 9t-16 19t-31.5 25t-65 26q-46 13 -80.5 21t-66.5 6q-45 -1 -81 -12.5t-61 -29.5t-38.5 -40.5t-13.5 -45.5q0 -17 9.5 -34t35.5 -33.5t71.5 -31.5t118.5 -28 q61 -11 128.5 -32.5t124 -58.5t92.5 -91.5t36 -130.5q0 -78 -38.5 -132.5t-102 -88.5t-145 -49.5t-166.5 -15.5q-67 0 -141 18t-138.5 52.5t-110.5 85t-55 114.5zM132 1199q6 44 32 89t74.5 81.5t120 59t168.5 22.5q72 0 136.5 -13t117 -38t91.5 -63.5t61 -90.5 q4 -27 -3.5 -47t-22 -35t-32.5 -23t-33 -9q-20 -6 -45.5 8.5t-57.5 36t-72.5 42t-91.5 26.5q-40 5 -76.5 1.5t-64.5 -14.5t-45 -29.5t-17 -44.5q0 -33 53.5 -64.5t172.5 -64.5q60 -17 127 -38t122.5 -55t92 -85.5t36.5 -128.5q0 -78 -38.5 -132t-102 -88.5t-145 -50 t-167.5 -15.5q-51 0 -99 19.5t-103 42.5q-60 24 -93 51.5t-37 55t23.5 53t87.5 43.5q-1 -1 14 -12t40.5 -25.5t57.5 -29t65 -22.5q48 -6 99 -5.5t93 11.5t69.5 33.5t30.5 61.5q3 36 -25 62t-75 47.5t-107.5 40t-123.5 39.5t-122.5 46t-103.5 59.5t-67.5 81.5t-14.5 110z" />
<glyph unicode="&#xa8;" horiz-adv-x="777" d="M48 1434q0 23 9 42.5t23 35t34 24t44 8.5q23 0 42.5 -8.5t35 -24t24 -35.5t8.5 -42q0 -24 -8.5 -44t-24 -34.5t-35.5 -23t-42 -8.5q-24 0 -44 8.5t-34 23t-23 34.5t-9 44zM389 1434q0 23 9 42.5t23 35t34 24t43 8.5t43 -8.5t35 -24t23.5 -35.5t8.5 -42q0 -24 -8.5 -44 t-23.5 -34.5t-35.5 -23t-42.5 -8.5q-23 0 -43 8.5t-34 23t-23 34.5t-9 44z" />
<glyph unicode="&#xa9;" horiz-adv-x="1433" d="M46 648q0 90 24.5 174t68.5 157.5t105.5 133t136 102.5t159 67t175.5 24q90 0 175 -24t159 -67t135.5 -102.5t105.5 -133t68.5 -157.5t24.5 -174q0 -91 -24.5 -175t-68.5 -157t-105.5 -133t-135.5 -103t-159 -66.5t-175 -23.5t-175 23.5t-159.5 66.5t-136 103t-105.5 133 t-68.5 157t-24.5 175zM206 646q0 -100 41 -190t111 -158t162 -107t195 -39q101 0 193.5 39t162.5 107.5t111.5 158.5t41.5 191t-41.5 191t-111.5 157t-162.5 106.5t-193.5 39.5q-102 0 -194.5 -39.5t-162.5 -107t-111 -158t-41 -191.5zM325 648q0 81 30.5 151.5t83.5 124 t124 84t152 30.5q83 0 150.5 -26.5t128.5 -93.5q8 -8 13 -21t5 -27q1 -11 -4.5 -25.5t-16.5 -25.5q-17 -14 -43.5 -17t-50.5 17q-38 39 -83 60.5t-100 21.5q-52 0 -98 -20t-80 -54.5t-53.5 -81t-19.5 -98.5q0 -51 20 -96.5t53.5 -80t79.5 -55t98 -20.5q33 0 60.5 8t51.5 21 t46 30.5t43 38.5q14 9 39 11t43 -12q27 -22 27 -53q0 -27 -19 -49q-31 -34 -62.5 -58t-65.5 -40t-74 -23.5t-88 -7.5q-81 0 -152 31t-124 83t-83.5 122.5t-30.5 150.5z" />
<glyph unicode="&#xaa;" horiz-adv-x="1154" d="M96 486q0 104 39.5 195.5t109 160.5t161 108.5t195.5 39.5t187 -39.5t140 -108.5t87.5 -160.5t30.5 -195.5t-30.5 -196.5t-87.5 -161t-139.5 -108.5t-187.5 -40q-104 0 -195.5 40t-161 108.5t-109 160.5t-39.5 197zM339 486q0 -56 20 -106t55.5 -87t83.5 -58.5t103 -21.5 t103 21.5t83.5 58.5t56 87t20.5 106q0 55 -20.5 104.5t-56 86.5t-83 58.5t-103.5 21.5q-55 0 -103 -21.5t-83.5 -58.5t-55.5 -86.5t-20 -104.5zM866 248v236q0 26 9.5 47t26 37.5t38.5 25.5t46 9q26 0 48 -9t38.5 -25.5t25.5 -38t9 -46.5v-426q0 -38 -19.5 -58t-55.5 -20 q-38 0 -62 22t-35 58l-44 175zM866 454v268l25 14l44 136q12 65 40.5 91.5t66.5 26.5q66 0 65 -65v-471q0 -26 -9 -48t-25.5 -38.5t-38.5 -25.5t-48 -9q-25 0 -46.5 9t-38 25.5t-26 38.5t-9.5 48z" />
<glyph unicode="&#xab;" horiz-adv-x="1290" d="M40 493q0 32 19 60.5t42 51.5l332 331q22 22 52.5 35.5t62.5 15.5t61 -11t47 -45q12 -19 12.5 -41.5t-7.5 -44t-22.5 -42t-32.5 -36.5l-307 -271l315 -285q29 -25 40 -59.5t3.5 -67.5t-31 -58.5t-62.5 -31.5q-15 -6 -32 -3t-33.5 11t-31 20t-26.5 24l-340 336 q-27 24 -44 52.5t-17 58.5zM557 493q0 32 19 60.5t42 51.5l332 331q22 22 52.5 35.5t62.5 15.5t61 -11t48 -45q12 -19 12.5 -41.5t-8 -44t-22.5 -42t-32 -36.5l-307 -271l315 -285q30 -25 40.5 -59.5t3 -67.5t-31 -58.5t-63.5 -31.5q-15 -6 -32 -3t-33 11t-30.5 20t-27.5 24 l-340 336q-27 24 -44 52.5t-17 58.5z" />
<glyph unicode="&#xad;" horiz-adv-x="941" d="M60 620q0 53 38.5 86.5t106.5 33.5h528q34 0 59.5 -9.5t43.5 -26.5t27 -38t9 -46t-9 -47t-27 -38.5t-43.5 -26t-59.5 -9.5h-528q-68 0 -106.5 33.5t-38.5 87.5z" />
<glyph unicode="&#xae;" horiz-adv-x="1494" d="M46 648q0 90 24.5 174t68.5 157.5t105.5 133t136 102.5t159 67t175.5 24q90 0 175 -24t159 -67t135.5 -102.5t105.5 -133t68.5 -157.5t24.5 -174q0 -91 -24.5 -175t-68.5 -157t-105.5 -133t-135.5 -103t-159 -66.5t-175 -23.5t-175 23.5t-159.5 66.5t-136 103t-105.5 133 t-68.5 157t-24.5 175zM219 646q0 -66 18.5 -127t51.5 -115t79 -98.5t100.5 -76.5t117 -49.5t129.5 -17.5q99 0 188.5 39t157.5 105t108.5 154.5t40.5 187.5q0 98 -40.5 186.5t-108.5 154.5t-157.5 104.5t-188.5 38.5t-189.5 -39t-158.5 -105t-108 -154.5t-40 -187.5z M539 444v437q0 13 1.5 28.5t6 28t13.5 21t25 8.5q31 0 50 -31.5t23 -95.5q30 46 74.5 77.5t96.5 43.5q35 3 62.5 -3t47.5 -17q10 -4 21.5 -9.5t20.5 -13.5t14.5 -18t5.5 -24q0 -19 -10.5 -35t-24.5 -24q-12 -4 -21 -6t-16.5 -3.5t-16.5 -2t-22 -0.5q-14 0 -30 0.5t-39 -1.5 q-28 -6 -49.5 -25t-37.5 -47.5t-25 -64t-9 -75.5q0 -38 -1 -75.5t-1 -75.5q-1 -25 -4.5 -50.5t-12.5 -46.5t-24.5 -35t-38.5 -14q-25 0 -40 14.5t-24 36t-12 48t-3 50.5z" />
<glyph unicode="&#xaf;" horiz-adv-x="953" d="M114 444q0 36 24 61t58 25h557q35 0 59 -25.5t24 -60.5q0 -34 -24.5 -59.5t-58.5 -25.5h-557q-34 0 -58 25.5t-24 59.5z" />
<glyph unicode="&#xb0;" horiz-adv-x="521" d="M83 1038q0 34 13 63.5t34.5 52t51 35t63.5 12.5t63 -12.5t51 -35t35 -52t13 -63.5q0 -33 -13 -62.5t-35 -51.5t-51 -35t-63 -13t-63.5 13t-51 35t-34.5 51.5t-13 62.5zM188 1038q0 -25 16.5 -42t40.5 -17q25 0 41 17.5t16 41.5q0 25 -16 43t-41 18t-41 -18t-16 -43z" />
<glyph unicode="&#xb1;" horiz-adv-x="935" d="M114 86q0 36 24 60.5t58 24.5h557q35 0 59 -24.5t24 -60.5q0 -35 -24.5 -60t-58.5 -25h-557q-34 0 -58 25t-24 60zM114 662q0 36 24 61t58 25h557q35 0 59 -25.5t24 -60.5q0 -34 -24.5 -59.5t-58.5 -25.5h-557q-34 0 -58 25.5t-24 59.5zM390 379v557q0 35 25 58.5 t60 23.5q36 0 60.5 -23.5t24.5 -58.5v-557q0 -35 -24.5 -59t-60.5 -24q-35 0 -60 24t-25 59z" />
<glyph unicode="&#xb2;" horiz-adv-x="640" d="M78 560q4 27 28.5 54t58 53t71 51t70 48.5t54 42.5t21.5 36q0 13 -10 22t-24.5 13t-31.5 3.5t-30 -3.5q-11 -2 -22.5 -7t-21.5 -11.5t-16.5 -14t-7.5 -17.5q-8 -18 -25.5 -29t-36.5 -9q-12 1 -24 8t-20 18q-9 11 -12 29.5t0 36.5q5 25 22.5 47t46 39.5t65.5 28.5t83 11 q58 0 101 -13t69.5 -33.5t39.5 -46.5t13 -52q-1 -26 -17 -51.5t-41 -48.5t-54.5 -44.5t-56.5 -40t-48.5 -34t-28.5 -26.5q7 0 31.5 -1t51.5 -1h51h30q18 0 35.5 -2.5t31 -9.5t21.5 -20t8 -35q0 -29 -20.5 -48t-51.5 -19h-317q-52 0 -71 20.5t-15 55.5z" />
<glyph unicode="&#xb3;" horiz-adv-x="423" d="M15 963q0 23 16 39t42 16h60l1 -112h-59q-25 0 -42.5 16.5t-17.5 40.5zM16 594q0 20 14 36t28 20q6 2 16.5 1t17.5 -3q10 -6 20 -14t20.5 -15t22.5 -12t27 -5q36 0 58 22.5t22 58.5t-23 59t-59 23q-16 0 -26.5 -3.5t-19.5 -3.5q-31 -1 -47 15.5t-16 30.5q0 23 12 37.5 t29.5 26t36.5 20.5t32 18h-73l16 112h182q12 0 23.5 -6.5t19 -17.5t10 -23.5t-1.5 -23.5l-17.5 -24.5t-22.5 -20.5q-24 -17 -38 -28t-21.5 -17t-9.5 -8l-2 -2q28 -6 50.5 -21t39.5 -37.5t26.5 -50t9.5 -58.5q0 -42 -15 -77t-40.5 -59.5t-60.5 -38t-74 -13.5q-29 0 -58.5 9 t-53 24t-39 33.5t-15.5 35.5z" />
<glyph unicode="&#xb4;" horiz-adv-x="766" d="M34 1184q0 9 2 18q0 15 20 44t48 57t60.5 49t59.5 21q24 0 43.5 -9.5t32.5 -26t19 -37.5t2 -44q-4 -19 -28.5 -44t-55 -47.5t-62.5 -38t-50 -15.5q-25 -3 -49 8q-33 14 -40 48q-2 8 -2 17z" />
<glyph unicode="&#xb5;" horiz-adv-x="1242" d="M115 -202v1083q0 26 9 47.5t25.5 38t38.5 25.5t48 9q25 0 46.5 -9t38 -25.5t26 -38.5t9.5 -47v-1083q0 -25 -9.5 -46.5t-26 -38t-38.5 -26.5t-46 -10q-26 0 -48 10t-38.5 26.5t-25.5 38.5t-9 46zM355 153l1 346q0 -54 22.5 -104t61 -87.5t89 -60t104.5 -22.5 q55 0 101 21.5t80 58.5t53 86.5t19 105.5v255l241 35v-291q0 -104 -33 -196t-94 -160.5t-146.5 -108.5t-189.5 -40q-56 0 -107.5 16t-92.5 40.5t-69.5 52.5t-39.5 53zM886 716v141q0 28 7 54t22 46t38 32t54 12q27 0 49 -10.5t38 -28.5t24.5 -41.5t8.5 -49.5v-146z" />
<glyph unicode="&#xb6;" horiz-adv-x="1356" d="M51 933q0 80 32 148t86 118.5t126 79.5t151 29h253q39 0 51.5 -10.5t12.5 -27.5q0 -14 -4 -29.5t-4 -30.5v-809q0 -39 -27.5 -65.5t-65.5 -26.5q-18 0 -35.5 7.5t-30 19.5t-20 29t-7.5 36v168h-123q-80 0 -151.5 27.5t-125.5 75.5t-86 114.5t-32 146.5zM476 1187 q0 25 9.5 46.5t26 38t39.5 26.5t50 10h570q26 0 49.5 -9t40.5 -25t27 -38t10 -49t-9.5 -48.5t-26.5 -38t-40 -25t-50 -8.5h-25l-2 -955q0 -26 -9.5 -48t-24.5 -38.5t-37 -25.5t-48 -9q-27 0 -49 9t-37 25.5t-24 38.5t-9 48l-2 955h-304q-27 0 -49.5 8.5t-39 24.5t-26.5 38 t-10 49zM515 106v697q0 25 9.5 45.5t25.5 36.5t37.5 25.5t46.5 9.5t46.5 -9.5t38 -25.5t26.5 -37t10 -45v-697q0 -25 -10 -46t-26.5 -36.5t-38.5 -24.5t-46 -9q-25 0 -46.5 9t-37.5 24.5t-25.5 37t-9.5 45.5z" />
<glyph unicode="&#xb7;" horiz-adv-x="360" d="M50 546q0 27 10 50.5t27 40t41 26.5t51 10t50.5 -10t41.5 -26.5t28 -40.5t10 -50q0 -28 -10 -51t-28 -40t-41.5 -26.5t-50.5 -9.5q-28 0 -51.5 9.5t-40.5 26.5t-27 40t-10 51z" />
<glyph unicode="&#xb8;" horiz-adv-x="593" d="M-42.5 -337q-0.5 19 6.5 34t22.5 26t40.5 11q26 0 39.5 -14t23.5 -31.5t22 -32t35 -14.5q11 0 23 3.5t22 11t15.5 20.5t5.5 30q-1 20 -12.5 34t-27.5 25t-35.5 21t-36 22.5t-28 29.5t-11.5 42v137h27t47 0.5t46.5 0.5h26.5v-26.5t1 -30.5t1.5 -28t2.5 -17q3 -8 8.5 -15.5 t18.5 -13.5q34 -15 57.5 -39t37 -53t18.5 -62.5t1 -65.5q-11 -72 -62.5 -118.5t-128.5 -52.5q-36 -3 -69.5 7.5t-60 29.5t-45 44t-25.5 51q-6 15 -6.5 34z" />
<glyph unicode="&#xb9;" horiz-adv-x="373" d="M58 854q1 14 12.5 30t22.5 27l62 62q8 8 17 15t21 10q16 5 32 4q24 -4 41 -21t17 -45v-305l-137 28v157q-5 -2 -15.5 -8.5t-21.5 -6.5q-28 0 -40.5 18t-10.5 35zM146 558v115q8 0 29.5 -4t44 -10.5t41.5 -13.5t22 -14v-74q0 -8 -3.5 -19t-10.5 -20.5t-20 -17t-33 -7.5 q-18 0 -31.5 6.5t-22 16t-12.5 21t-4 21.5z" />
<glyph unicode="&#xba;" horiz-adv-x="926" d="M56 120q0 27 10.5 48.5t27.5 38t40 25.5t49 9h562q26 0 48.5 -9.5t39.5 -26t26.5 -38t9.5 -47.5t-9 -48t-25.5 -38.5t-39.5 -25.5t-50 -9h-562q-25 0 -47.5 8.5t-40.5 24.5t-28.5 38.5t-10.5 49.5zM60 748q0 84 32 157.5t86.5 127.5t128 86t157.5 32t157 -32t128 -86 t86.5 -128t31.5 -157q0 -84 -31.5 -157.5t-86.5 -128t-128 -86.5t-157 -32t-157.5 32t-128 86.5t-86.5 128t-32 157.5zM281 750q0 -41 14 -76t38.5 -60.5t58 -40t72.5 -14.5q38 0 71 14.5t58 40t39.5 60.5t14.5 76q0 39 -14.5 73t-39.5 59t-58 39.5t-71 14.5 q-39 0 -72.5 -14.5t-58 -39.5t-38.5 -59t-14 -73z" />
<glyph unicode="&#xbb;" horiz-adv-x="1290" d="M77 889q0 22 12 42q18 32 47.5 45t61 11t62.5 -16t52 -35l332 -331q24 -24 43 -52.5t19 -59.5q0 -30 -17.5 -58.5t-44.5 -52.5l-340 -336q-11 -12 -26 -24t-31.5 -20t-33.5 -11t-32 3q-39 6 -63 31.5t-30.5 58.5t3.5 67.5t40 59.5l315 285l-307 271q-17 16 -32 36.5 t-22.5 42t-7.5 43.5zM594.5 889q0.5 22 12.5 42q18 32 47.5 45t61.5 11t62.5 -16t51.5 -35l332 -331q24 -24 43 -52.5t19 -59.5q0 -30 -17.5 -58.5t-44.5 -52.5l-340 -336q-12 -12 -27 -24t-30.5 -20t-33 -11t-32.5 3q-40 6 -63.5 31.5t-30.5 58.5t4 67.5t40 59.5l315 285 l-308 271q-17 16 -31.5 36.5t-22.5 42t-7.5 43.5z" />
<glyph unicode="&#xbf;" horiz-adv-x="1090" d="M119 98q0 49 11.5 91.5t34.5 82.5t58.5 79t85.5 80q34 27 66 47t59.5 44t48.5 55.5t30 78.5q5 22 15.5 36t23.5 22t25.5 12t21.5 4q17 0 36.5 -5t35 -17t26.5 -33t11 -54q0 -53 -11 -90.5t-32.5 -68t-55 -59.5t-79.5 -64q-29 -20 -59 -44t-55 -51.5t-41.5 -59 t-16.5 -68.5q0 -50 17.5 -89t46.5 -66t66 -41t75 -14q39 0 70 10t56 27t44.5 39.5t33.5 47.5q23 48 58.5 73.5t78.5 19.5q24 -3 44 -15t34 -31.5t18.5 -44t-5.5 -54.5q-15 -58 -53.5 -113t-95.5 -98t-132.5 -69t-164.5 -26q-84 0 -161 32t-137 89.5t-96 135.5t-36 169z M477 958q0 27 10 50.5t28 41t41.5 27.5t50.5 10t50 -10t40.5 -27.5t28 -41t10.5 -50.5t-10.5 -50.5t-28 -41.5t-41 -28t-49.5 -10q-27 0 -50.5 10t-41.5 28t-28 41.5t-10 50.5z" />
<glyph unicode="&#xc0;" horiz-adv-x="1178" d="M37 78.5q-6 26.5 1 56.5q8 26 17.5 50t18.5 48l382 956q5 13 6.5 26.5t3.5 26.5q3 13 9 25t18.5 20.5t33.5 14t54 5.5q27 0 47 -11.5t36 -29.5t27.5 -40.5t22.5 -45.5l410 -1025q5 -11 7.5 -24t2.5 -25q0 -27 -13 -50.5t-37 -38.5q-23 -19 -50.5 -24.5t-54.5 2t-49.5 27 t-33.5 50.5l-74 184h-477l-76 -185q-19 -46 -51 -66t-73 -17q-27 1 -49 12.5t-37.5 31.5t-21.5 46.5zM351 1563q-5 23 1 44t19 37.5t32 26t43 9.5q27 0 59.5 -21t61.5 -49t48.5 -56.5t20.5 -44.5q3 -20 -1 -35q-7 -34 -40 -48q-24 -11 -48 -8q-19 0 -50.5 15.5t-63 38 t-55 47.5t-27.5 44zM397 450h373l-186 476z" />
<glyph unicode="&#xc1;" horiz-adv-x="1178" d="M37 78.5q-6 26.5 1 56.5q8 26 17.5 50t18.5 48l382 956q5 13 6.5 26.5t3.5 26.5q3 13 9 25t18.5 20.5t33.5 14t54 5.5q27 0 47 -11.5t36 -29.5t27.5 -40.5t22.5 -45.5l410 -1025q5 -11 7.5 -24t2.5 -25q0 -27 -13 -50.5t-37 -38.5q-23 -19 -50.5 -24.5t-54.5 2t-49.5 27 t-33.5 50.5l-74 184h-477l-76 -185q-19 -46 -51 -66t-73 -17q-27 1 -49 12.5t-37.5 31.5t-21.5 46.5zM397 450h373l-186 476zM500 1485q0 9 2 18q0 15 20 44t48 57t60.5 49t59.5 21q24 0 43.5 -9.5t32.5 -26t19 -37.5t2 -44q-4 -19 -28.5 -44t-55 -47.5t-62.5 -38t-50 -15.5 q-25 -3 -49 8q-33 14 -40 48q-2 8 -2 17z" />
<glyph unicode="&#xc2;" horiz-adv-x="1178" d="M37 78.5q-6 26.5 1 56.5q8 26 17.5 50t18.5 48l382 956q5 13 6.5 26.5t3.5 26.5q3 13 9 25t18.5 20.5t33.5 14t54 5.5q27 0 47 -11.5t36 -29.5t27.5 -40.5t22.5 -45.5l410 -1025q5 -11 7.5 -24t2.5 -25q0 -27 -13 -50.5t-37 -38.5q-23 -19 -50.5 -24.5t-54.5 2t-49.5 27 t-33.5 50.5l-74 184h-477l-76 -185q-19 -46 -51 -66t-73 -17q-27 1 -49 12.5t-37.5 31.5t-21.5 46.5zM321.5 1427q-4.5 18 0 36t15.5 35t24 31l157 154q24 24 53.5 25.5t53.5 -16.5l180 -175q26 -27 29 -61.5t-22 -61.5q-27 -27 -63 -21t-67 36l-106 106l-104 -106 q-31 -31 -67.5 -37t-63.5 22q-15 15 -19.5 33zM397 450h373l-186 476z" />
<glyph unicode="&#xc3;" horiz-adv-x="1178" d="M37 78.5q-6 26.5 1 56.5q8 26 17.5 50t18.5 48l382 956q5 13 6.5 26.5t3.5 26.5q3 13 9 25t18.5 20.5t33.5 14t54 5.5q27 0 47 -11.5t36 -29.5t27.5 -40.5t22.5 -45.5l410 -1025q5 -11 7.5 -24t2.5 -25q0 -27 -13 -50.5t-37 -38.5q-23 -19 -50.5 -24.5t-54.5 2t-49.5 27 t-33.5 50.5l-74 184h-477l-76 -185q-19 -46 -51 -66t-73 -17q-27 1 -49 12.5t-37.5 31.5t-21.5 46.5zM306 1516.5q1 15.5 6 30.5q18 58 62 95q11 9 23.5 15.5t26.5 11.5q12 4 26.5 7t30.5 3q48 0 76 -17t48.5 -38t39.5 -38t50 -17q15 0 24 8t18.5 19.5t22 24t36.5 21.5 q12 7 29 5t30.5 -13t20 -30.5t-2.5 -46.5q-8 -28 -24.5 -52.5t-40 -43t-53.5 -29t-64 -10.5q-43 0 -69.5 16.5t-46.5 37.5t-40.5 38t-51.5 17q-25 0 -38 -11t-22 -25t-18.5 -27t-27.5 -16q-10 -1 -23 0q-18 3 -29 13.5t-15.5 23t-3.5 28zM397 450h373l-186 476z" />
<glyph unicode="&#xc4;" horiz-adv-x="1178" d="M37 78.5q-6 26.5 1 56.5q8 26 17.5 50t18.5 48l382 956q5 13 6.5 26.5t3.5 26.5q3 13 9 25t18.5 20.5t33.5 14t54 5.5q27 0 47 -11.5t36 -29.5t27.5 -40.5t22.5 -45.5l410 -1025q5 -11 7.5 -24t2.5 -25q0 -27 -13 -50.5t-37 -38.5q-23 -19 -50.5 -24.5t-54.5 2t-49.5 27 t-33.5 50.5l-74 184h-477l-76 -185q-19 -46 -51 -66t-73 -17q-27 1 -49 12.5t-37.5 31.5t-21.5 46.5zM299 1508q0 23 9 42.5t23 35t34 24t44 8.5q23 0 42.5 -8.5t35 -24t24 -35.5t8.5 -42q0 -24 -8.5 -44t-24 -34.5t-35.5 -23t-42 -8.5q-24 0 -44 8.5t-34 23t-23 34.5t-9 44 zM397 450h373l-186 476zM640 1508q0 23 9 42.5t23 35t34 24t43 8.5t43 -8.5t35 -24t23.5 -35.5t8.5 -42q0 -24 -8.5 -44t-23.5 -34.5t-35.5 -23t-42.5 -8.5q-23 0 -43 8.5t-34 23t-23 34.5t-9 44z" />
<glyph unicode="&#xc5;" horiz-adv-x="1178" d="M37 78.5q-6 26.5 1 56.5q8 26 17.5 50t18.5 48l382 956q5 13 6.5 26.5t3.5 26.5q3 13 9 25t18.5 20.5t33.5 14t54 5.5q27 0 47 -11.5t36 -29.5t27.5 -40.5t22.5 -45.5l410 -1025q5 -11 7.5 -24t2.5 -25q0 -27 -13 -50.5t-37 -38.5q-23 -19 -50.5 -24.5t-54.5 2t-49.5 27 t-33.5 50.5l-74 184h-477l-76 -185q-19 -46 -51 -66t-73 -17q-27 1 -49 12.5t-37.5 31.5t-21.5 46.5zM397 450h373l-186 476zM420 1574q0 34 13 63.5t34.5 52t51 35t63.5 12.5t63 -12.5t51 -35t35 -52t13 -63.5q0 -33 -13 -62.5t-35 -51.5t-51 -35t-63 -13t-63.5 13t-51 35 t-34.5 51.5t-13 62.5zM525 1574q0 -25 16.5 -42t40.5 -17q25 0 41 17.5t16 41.5q0 25 -16 43t-41 18t-41 -18t-16 -43z" />
<glyph unicode="&#xc6;" horiz-adv-x="1694" d="M17 109q3 26 23 62q5 9 10 19.5t14.5 28t24.5 46t41 75.5t63 115.5t90 167t123 228.5t162 300q15 28 25 57t25 53t40.5 39.5t71.5 16.5h500l16 -231h-363q2 -10 4 -19t4 -17l67 -274h291l12 -224h-244l77 -310h274l-5 -242h-352q-30 0 -52 8.5t-39.5 28.5t-31.5 52.5 t-26 78.5l-24 98h-489q-33 -60 -55 -98t-36 -61.5t-22.5 -36t-13.5 -20.5q-12 -22 -32.5 -35.5t-43.5 -18t-47.5 0t-45.5 20.5q-8 6 -18 17.5t-15.5 30t-2.5 44.5zM435 460h363l-113 463zM1230 1317h84q33 0 59.5 -7.5t46.5 -22.5q31 -20 42 -54t2 -66t-37.5 -56.5 t-77.5 -24.5h-103zM1243 776h95q28 0 52.5 -12t40.5 -33t21 -48t-5 -55q-11 -36 -40 -56t-68 -20h-90zM1363 0l5 242h153q27 0 50 -8.5t41 -23.5t29 -37.5t11 -51.5q0 -31 -12 -54t-31.5 -38t-46 -22t-55.5 -7h-144z" />
<glyph unicode="&#xc7;" d="M62 647q0 90 24 174t67 157.5t102.5 133t133 102.5t157.5 67t175 24q71 0 134 -11t119.5 -35t109.5 -63t104 -94q34 -37 36 -87q1 -23 -9 -46.5t-30 -40.5q-14 -13 -32.5 -21.5t-39.5 -9.5t-44 7t-46 26q-61 62 -135 99t-167 37q-86 0 -162.5 -33.5t-132.5 -91t-89 -134 t-33 -162.5t33 -162t89.5 -133.5t132.5 -91t162 -33.5q55 0 100.5 13t85.5 35.5t76 51.5t73 62q14 9 32 15t36.5 6t36 -5.5t32.5 -17.5q23 -14 36 -37.5t13 -51.5q0 -24 -8.5 -46.5t-28.5 -41.5q-51 -57 -102.5 -98.5t-109.5 -68.5t-124.5 -39.5t-147.5 -12.5 q-136 0 -256 51.5t-209.5 141t-141.5 209.5t-52 256zM530.5 -310q-0.5 19 6.5 34t22.5 26t40.5 11q26 0 39.5 -14t23.5 -31.5t22 -32t35 -14.5q11 0 23 3.5t22 11t15.5 20.5t5.5 30q-1 20 -12.5 34t-27.5 25t-35.5 21t-36 22.5t-28 29.5t-11.5 42v137h27t47 0.5t46.5 0.5 h26.5v-26.5t1 -30.5t1.5 -28t2.5 -17q3 -8 8.5 -15.5t18.5 -13.5q34 -15 57.5 -39t37 -53t18.5 -62.5t1 -65.5q-11 -72 -62.5 -118.5t-128.5 -52.5q-36 -3 -69.5 7.5t-60 29.5t-45 44t-25.5 51q-6 15 -6.5 34z" />
<glyph unicode="&#xc8;" horiz-adv-x="1134" d="M125 1256q0 23 15.5 37t61.5 14h762q40 0 67 -17t40.5 -42.5t13.5 -56t-13 -56t-39.5 -42.5t-67.5 -17h-587v-315h456q28 0 52 -13t40 -33.5t21.5 -47t-4.5 -55.5q-12 -36 -41 -55.5t-67 -19.5h-457v-306h580q27 0 51 -8t42 -23.5t28.5 -37.5t10.5 -51q0 -27 -10.5 -49.5 t-28 -38.5t-41 -24.5t-49.5 -8.5h-688q-65 0 -100.5 38.5t-35.5 101.5v1041q-1 20 -6.5 42.5t-5.5 42.5zM356 1567q-5 23 1 44t19 37.5t32 26t43 9.5q27 0 59.5 -21t61.5 -49t48.5 -56.5t20.5 -44.5q3 -20 -1 -35q-7 -34 -40 -48q-24 -11 -48 -8q-19 0 -50.5 15.5t-63 38 t-55 47.5t-27.5 44z" />
<glyph unicode="&#xc9;" horiz-adv-x="1134" d="M125 1256q0 23 15.5 37t61.5 14h762q40 0 67 -17t40.5 -42.5t13.5 -56t-13 -56t-39.5 -42.5t-67.5 -17h-587v-315h456q28 0 52 -13t40 -33.5t21.5 -47t-4.5 -55.5q-12 -36 -41 -55.5t-67 -19.5h-457v-306h580q27 0 51 -8t42 -23.5t28.5 -37.5t10.5 -51q0 -27 -10.5 -49.5 t-28 -38.5t-41 -24.5t-49.5 -8.5h-688q-65 0 -100.5 38.5t-35.5 101.5v1041q-1 20 -6.5 42.5t-5.5 42.5zM454 1502q0 9 2 18q0 15 20 44t48 57t60.5 49t59.5 21q24 0 43.5 -9.5t32.5 -26t19 -37.5t2 -44q-4 -19 -28.5 -44t-55 -47.5t-62.5 -38t-50 -15.5q-25 -3 -49 8 q-33 14 -40 48q-2 8 -2 17z" />
<glyph unicode="&#xca;" horiz-adv-x="1134" d="M125 1256q0 23 15.5 37t61.5 14h762q40 0 67 -17t40.5 -42.5t13.5 -56t-13 -56t-39.5 -42.5t-67.5 -17h-587v-315h456q28 0 52 -13t40 -33.5t21.5 -47t-4.5 -55.5q-12 -36 -41 -55.5t-67 -19.5h-457v-306h580q27 0 51 -8t42 -23.5t28.5 -37.5t10.5 -51q0 -27 -10.5 -49.5 t-28 -38.5t-41 -24.5t-49.5 -8.5h-688q-65 0 -100.5 38.5t-35.5 101.5v1041q-1 20 -6.5 42.5t-5.5 42.5zM307.5 1482q-4.5 18 0 36t15.5 35t24 31l157 154q24 24 53.5 25.5t53.5 -16.5l180 -175q26 -27 29 -61.5t-22 -61.5q-27 -27 -63 -21t-67 36l-106 106l-104 -106 q-31 -31 -67.5 -37t-63.5 22q-15 15 -19.5 33z" />
<glyph unicode="&#xcb;" horiz-adv-x="1134" d="M125 1256q0 23 15.5 37t61.5 14h762q40 0 67 -17t40.5 -42.5t13.5 -56t-13 -56t-39.5 -42.5t-67.5 -17h-587v-315h456q28 0 52 -13t40 -33.5t21.5 -47t-4.5 -55.5q-12 -36 -41 -55.5t-67 -19.5h-457v-306h580q27 0 51 -8t42 -23.5t28.5 -37.5t10.5 -51q0 -27 -10.5 -49.5 t-28 -38.5t-41 -24.5t-49.5 -8.5h-688q-65 0 -100.5 38.5t-35.5 101.5v1041q-1 20 -6.5 42.5t-5.5 42.5zM301 1538q0 23 9 42.5t23 35t34 24t44 8.5q23 0 42.5 -8.5t35 -24t24 -35.5t8.5 -42q0 -24 -8.5 -44t-24 -34.5t-35.5 -23t-42 -8.5q-24 0 -44 8.5t-34 23t-23 34.5 t-9 44zM642 1538q0 23 9 42.5t23 35t34 24t43 8.5t43 -8.5t35 -24t23.5 -35.5t8.5 -42q0 -24 -8.5 -44t-23.5 -34.5t-35.5 -23t-42.5 -8.5q-23 0 -43 8.5t-34 23t-23 34.5t-9 44z" />
<glyph unicode="&#xcc;" horiz-adv-x="502" d="M38 1595q-5 23 1 44t19 37.5t32 26t43 9.5q27 0 59.5 -21t61.5 -49t48.5 -56.5t20.5 -44.5q3 -20 -1 -35q-7 -34 -40 -48q-24 -11 -48 -8q-19 0 -50.5 15.5t-63 38t-55 47.5t-27.5 44zM125 1256q0 11 3.5 20.5t13 15.5t25.5 10t42 4q35 0 64.5 -5.5t52 -19t36 -37 t15.5 -60.5v-1069q0 -25 -9 -47.5t-24 -40t-37.5 -27.5t-50.5 -10t-50.5 10.5t-37.5 28.5t-23.5 40t-8.5 46v1063q-1 20 -6 40t-5 38z" />
<glyph unicode="&#xcd;" horiz-adv-x="502" d="M125 1256q0 11 3.5 20.5t13 15.5t25.5 10t42 4q35 0 64.5 -5.5t52 -19t36 -37t15.5 -60.5v-1069q0 -25 -9 -47.5t-24 -40t-37.5 -27.5t-50.5 -10t-50.5 10.5t-37.5 28.5t-23.5 40t-8.5 46v1063q-1 20 -6 40t-5 38zM149 1518q0 9 2 18q0 15 20 44t48 57t60.5 49t59.5 21 q24 0 43.5 -9.5t32.5 -26t19 -37.5t2 -44q-4 -19 -28.5 -44t-55 -47.5t-62.5 -38t-50 -15.5q-25 -3 -49 8q-33 14 -40 48q-2 8 -2 17z" />
<glyph unicode="&#xce;" horiz-adv-x="502" d="M-14.5 1497q-4.5 18 0 36t15.5 35t24 31l157 154q24 24 53.5 25.5t53.5 -16.5l180 -175q26 -27 29 -61.5t-22 -61.5q-27 -27 -63 -21t-67 36l-106 106l-104 -106q-31 -31 -67.5 -37t-63.5 22q-15 15 -19.5 33zM125 1256q0 11 3.5 20.5t13 15.5t25.5 10t42 4 q35 0 64.5 -5.5t52 -19t36 -37t15.5 -60.5v-1069q0 -25 -9 -47.5t-24 -40t-37.5 -27.5t-50.5 -10t-50.5 10.5t-37.5 28.5t-23.5 40t-8.5 46v1063q-1 20 -6 40t-5 38z" />
<glyph unicode="&#xcf;" horiz-adv-x="502" d="M-43 1569q0 23 9 42.5t23 35t34 24t44 8.5q23 0 42.5 -8.5t35 -24t24 -35.5t8.5 -42q0 -24 -8.5 -44t-24 -34.5t-35.5 -23t-42 -8.5q-24 0 -44 8.5t-34 23t-23 34.5t-9 44zM125 1256q0 11 3.5 20.5t13 15.5t25.5 10t42 4q35 0 64.5 -5.5t52 -19t36 -37t15.5 -60.5v-1069 q0 -25 -9 -47.5t-24 -40t-37.5 -27.5t-50.5 -10t-50.5 10.5t-37.5 28.5t-23.5 40t-8.5 46v1063q-1 20 -6 40t-5 38zM298 1569q0 23 9 42.5t23 35t34 24t43 8.5t43 -8.5t35 -24t23.5 -35.5t8.5 -42q0 -24 -8.5 -44t-23.5 -34.5t-35.5 -23t-42.5 -8.5q-23 0 -43 8.5t-34 23 t-23 34.5t-9 44z" />
<glyph unicode="&#xd0;" horiz-adv-x="1295" d="M125 690q0 26 9 48t25.5 38t38.5 25t48 9l71 -3l-2 274q-1 44 -6 88t-5 88q0 11 3.5 20.5t13 15.5t25 10t41.5 4h175q152 0 289 -42.5t241.5 -126t166.5 -206.5t62 -284q0 -91 -23.5 -175t-66.5 -157t-103.5 -133t-133.5 -103t-157 -66.5t-174 -23.5h-228 q-37 0 -65.5 19.5t-40.5 49.5q-7 34 -11 70.5t-3 74.5l2 368l-71 -3q-25 0 -47 9.5t-38.5 25.5t-26 38t-9.5 48zM553 807l69 3q26 0 47.5 -9t38 -25.5t25.5 -38t9 -47.5t-9.5 -47.5t-26 -38t-38.5 -26t-46 -9.5l-66 3v-345h38.5t40.5 1q89 0 170 31.5t142.5 87t97 132.5 t35.5 169q0 79 -28.5 149.5t-78.5 126t-116.5 92t-143.5 46.5q-39 5 -80 4.5t-80 1.5v-261z" />
<glyph unicode="&#xd1;" horiz-adv-x="1412" d="M125 1257q0 10 3.5 19.5t13 15.5t25.5 10t42 4q28 0 49 -3t38 -9.5t32.5 -17.5t32.5 -29l686 -808l-1 736q0 24 -5.5 42.5t-5.5 38.5q0 13 3 22.5t14.5 15.5t32 9t56.5 3q33 0 60 -6t46 -20t29.5 -37.5t10.5 -58.5v-1062q0 -27 -8 -51t-24 -42t-38 -28.5t-50 -10.5 q-30 0 -58 17t-48 40l-685 805v-179t-0.5 -192t-0.5 -191.5v-178.5q0 -26 -9.5 -48t-25 -38.5t-37 -25.5t-47.5 -9t-48 9.5t-37.5 25.5t-25 38t-9.5 47v1068q-1 20 -6 39t-5 40zM413 1521.5q1 15.5 6 30.5q18 58 62 95q11 9 23.5 15.5t26.5 11.5q12 4 26.5 7t30.5 3 q48 0 76 -17t48.5 -38t39.5 -38t50 -17q15 0 24 8t18.5 19.5t22 24t36.5 21.5q12 7 29 5t30.5 -13t20 -30.5t-2.5 -46.5q-8 -28 -24.5 -52.5t-40 -43t-53.5 -29t-64 -10.5q-43 0 -69.5 16.5t-46.5 37.5t-40.5 38t-51.5 17q-25 0 -38 -11t-22 -25t-18.5 -27t-27.5 -16 q-10 -1 -23 0q-18 3 -29 13.5t-15.5 23t-3.5 28z" />
<glyph unicode="&#xd2;" horiz-adv-x="1441" d="M62 648q0 90 24 174t67 157.5t102.5 133t133 102.5t157.5 67t175 24q90 0 174 -24t157 -67t133 -102.5t103 -133t66.5 -157.5t23.5 -174q0 -91 -23.5 -175t-66.5 -157t-103 -133t-133 -103t-157 -66.5t-174 -23.5q-136 0 -256 51.5t-209.5 141t-141.5 209.5t-52 256z M304 646q0 -86 33 -162t89 -133.5t132.5 -91t162.5 -33.5t161.5 33.5t132.5 91.5t90 134.5t33 162.5t-33 162t-90 133t-132.5 90.5t-161.5 33.5t-162.5 -33.5t-132.5 -91t-89 -134t-33 -162.5zM507 1586q-5 23 1 44t19 37.5t32 26t43 9.5q27 0 59.5 -21t61.5 -49t48.5 -56.5 t20.5 -44.5q3 -20 -1 -35q-7 -34 -40 -48q-24 -11 -48 -8q-19 0 -50.5 15.5t-63 38t-55 47.5t-27.5 44z" />
<glyph unicode="&#xd3;" horiz-adv-x="1441" d="M62 648q0 90 24 174t67 157.5t102.5 133t133 102.5t157.5 67t175 24q90 0 174 -24t157 -67t133 -102.5t103 -133t66.5 -157.5t23.5 -174q0 -91 -23.5 -175t-66.5 -157t-103 -133t-133 -103t-157 -66.5t-174 -23.5q-136 0 -256 51.5t-209.5 141t-141.5 209.5t-52 256z M304 646q0 -86 33 -162t89 -133.5t132.5 -91t162.5 -33.5t161.5 33.5t132.5 91.5t90 134.5t33 162.5t-33 162t-90 133t-132.5 90.5t-161.5 33.5t-162.5 -33.5t-132.5 -91t-89 -134t-33 -162.5zM629 1493q0 9 2 18q0 15 20 44t48 57t60.5 49t59.5 21q24 0 43.5 -9.5t32.5 -26 t19 -37.5t2 -44q-4 -19 -28.5 -44t-55 -47.5t-62.5 -38t-50 -15.5q-25 -3 -49 8q-33 14 -40 48q-2 8 -2 17z" />
<glyph unicode="&#xd4;" horiz-adv-x="1441" d="M62 648q0 90 24 174t67 157.5t102.5 133t133 102.5t157.5 67t175 24q90 0 174 -24t157 -67t133 -102.5t103 -133t66.5 -157.5t23.5 -174q0 -91 -23.5 -175t-66.5 -157t-103 -133t-133 -103t-157 -66.5t-174 -23.5q-136 0 -256 51.5t-209.5 141t-141.5 209.5t-52 256z M304 646q0 -86 33 -162t89 -133.5t132.5 -91t162.5 -33.5t161.5 33.5t132.5 91.5t90 134.5t33 162.5t-33 162t-90 133t-132.5 90.5t-161.5 33.5t-162.5 -33.5t-132.5 -91t-89 -134t-33 -162.5zM456.5 1458q-4.5 18 0 36t15.5 35t24 31l157 154q24 24 53.5 25.5t53.5 -16.5 l180 -175q26 -27 29 -61.5t-22 -61.5q-27 -27 -63 -21t-67 36l-106 106l-104 -106q-31 -31 -67.5 -37t-63.5 22q-15 15 -19.5 33z" />
<glyph unicode="&#xd5;" horiz-adv-x="1441" d="M62 648q0 90 24 174t67 157.5t102.5 133t133 102.5t157.5 67t175 24q90 0 174 -24t157 -67t133 -102.5t103 -133t66.5 -157.5t23.5 -174q0 -91 -23.5 -175t-66.5 -157t-103 -133t-133 -103t-157 -66.5t-174 -23.5q-136 0 -256 51.5t-209.5 141t-141.5 209.5t-52 256z M304 646q0 -86 33 -162t89 -133.5t132.5 -91t162.5 -33.5t161.5 33.5t132.5 91.5t90 134.5t33 162.5t-33 162t-90 133t-132.5 90.5t-161.5 33.5t-162.5 -33.5t-132.5 -91t-89 -134t-33 -162.5zM425 1522.5q1 15.5 6 30.5q18 58 62 95q11 9 23.5 15.5t26.5 11.5q12 4 26.5 7 t30.5 3q48 0 76 -17t48.5 -38t39.5 -38t50 -17q15 0 24 8t18.5 19.5t22 24t36.5 21.5q12 7 29 5t30.5 -13t20 -30.5t-2.5 -46.5q-8 -28 -24.5 -52.5t-40 -43t-53.5 -29t-64 -10.5q-43 0 -69.5 16.5t-46.5 37.5t-40.5 38t-51.5 17q-25 0 -38 -11t-22 -25t-18.5 -27t-27.5 -16 q-10 -1 -23 0q-18 3 -29 13.5t-15.5 23t-3.5 28z" />
<glyph unicode="&#xd6;" horiz-adv-x="1441" d="M62 648q0 90 24 174t67 157.5t102.5 133t133 102.5t157.5 67t175 24q90 0 174 -24t157 -67t133 -102.5t103 -133t66.5 -157.5t23.5 -174q0 -91 -23.5 -175t-66.5 -157t-103 -133t-133 -103t-157 -66.5t-174 -23.5q-136 0 -256 51.5t-209.5 141t-141.5 209.5t-52 256z M304 646q0 -86 33 -162t89 -133.5t132.5 -91t162.5 -33.5t161.5 33.5t132.5 91.5t90 134.5t33 162.5t-33 162t-90 133t-132.5 90.5t-161.5 33.5t-162.5 -33.5t-132.5 -91t-89 -134t-33 -162.5zM419 1537q0 23 9 42.5t23 35t34 24t44 8.5q23 0 42.5 -8.5t35 -24t24 -35.5 t8.5 -42q0 -24 -8.5 -44t-24 -34.5t-35.5 -23t-42 -8.5q-24 0 -44 8.5t-34 23t-23 34.5t-9 44zM760 1537q0 23 9 42.5t23 35t34 24t43 8.5t43 -8.5t35 -24t23.5 -35.5t8.5 -42q0 -24 -8.5 -44t-23.5 -34.5t-35.5 -23t-42.5 -8.5q-23 0 -43 8.5t-34 23t-23 34.5t-9 44z" />
<glyph unicode="&#xd7;" horiz-adv-x="910" d="M179 334q0 16 5.5 32t18.5 28l394 394q12 12 27.5 18t31.5 5.5t31 -7t28 -19.5q12 -12 18.5 -27.5t7 -31.5t-5 -31t-17.5 -27l-394 -395q-25 -24 -60 -23.5t-59 25.5q-12 12 -19 27.5t-7 31.5zM181.5 730q0.5 16 7.5 31.5t19 28.5q12 12 28 18.5t32 6.5t30.5 -5.5 t27.5 -17.5l394 -395q12 -12 18 -27.5t5.5 -31t-7 -31.5t-18.5 -28t-27.5 -18.5t-31.5 -6.5t-32 5.5t-28 18.5l-394 394q-12 12 -18 27t-5.5 31z" />
<glyph unicode="&#xd8;" horiz-adv-x="1441" d="M62 647q0 90 24 174t67 157.5t102.5 133t133 102.5t157.5 67t175 24q90 0 174 -24t157 -67t133 -102.5t103 -133t66.5 -157.5t23.5 -174q0 -91 -23.5 -175t-66.5 -157t-103 -133t-133 -103t-157 -66.5t-174 -23.5q-136 0 -256 51.5t-209.5 141t-141.5 209.5t-52 256z M223 -47q0 10 2.5 21.5t11.5 25.5l101 180l212 -109l-83 -145q-20 -37 -49 -63t-70 -25q-25 0 -47.5 9.5t-39.5 25t-27.5 36.5t-10.5 44zM304 645q0 -86 33 -162t89 -133.5t132.5 -91t162.5 -33.5t161.5 33.5t132.5 91.5t90 134.5t33 162.5t-33 162t-90 133t-132.5 90.5 t-161.5 33.5t-162.5 -33.5t-132.5 -91t-89 -134t-33 -162.5zM905 1232l81 142q19 36 49.5 58t69.5 22q26 0 48.5 -9.5t38 -25.5t24 -37.5t6.5 -44.5q-1 -7 -10 -27t-19.5 -42t-20.5 -41t-12 -24l-45 -82z" />
<glyph unicode="&#xd9;" d="M75 1256q0 11 3.5 20.5t12.5 15.5t25.5 10t42.5 4q34 0 63.5 -6t52.5 -21t36.5 -42.5t15.5 -70.5v-653q0 -62 22.5 -117t65 -95.5t103 -64t136.5 -23.5q71 0 131 23.5t104 64t69 95.5t25 117l-1 665q-1 20 -6 40t-5 38q0 11 3.5 20.5t12.5 15.5t25.5 10t42.5 4 q33 0 63 -5.5t53.5 -20.5t37.5 -43t14 -72l1 -651q-1 -112 -44.5 -210t-120 -172t-180.5 -117t-225 -43q-124 0 -228 42.5t-180 116t-118.5 172t-42.5 211.5l1 664q-1 20 -6 40t-5 38zM422 1574q-5 23 1 44t19 37.5t32 26t43 9.5q27 0 59.5 -21t61.5 -49t48.5 -56.5 t20.5 -44.5q3 -20 -1 -35q-7 -34 -40 -48q-24 -11 -48 -8q-19 0 -50.5 15.5t-63 38t-55 47.5t-27.5 44z" />
<glyph unicode="&#xda;" d="M75 1256q0 11 3.5 20.5t12.5 15.5t25.5 10t42.5 4q34 0 63.5 -6t52.5 -21t36.5 -42.5t15.5 -70.5v-653q0 -62 22.5 -117t65 -95.5t103 -64t136.5 -23.5q71 0 131 23.5t104 64t69 95.5t25 117l-1 665q-1 20 -6 40t-5 38q0 11 3.5 20.5t12.5 15.5t25.5 10t42.5 4 q33 0 63 -5.5t53.5 -20.5t37.5 -43t14 -72l1 -651q-1 -112 -44.5 -210t-120 -172t-180.5 -117t-225 -43q-124 0 -228 42.5t-180 116t-118.5 172t-42.5 211.5l1 664q-1 20 -6 40t-5 38zM539 1497q0 9 2 18q0 15 20 44t48 57t60.5 49t59.5 21q24 0 43.5 -9.5t32.5 -26 t19 -37.5t2 -44q-4 -19 -28.5 -44t-55 -47.5t-62.5 -38t-50 -15.5q-25 -3 -49 8q-33 14 -40 48q-2 8 -2 17z" />
<glyph unicode="&#xdb;" d="M75 1256q0 11 3.5 20.5t12.5 15.5t25.5 10t42.5 4q34 0 63.5 -6t52.5 -21t36.5 -42.5t15.5 -70.5v-653q0 -62 22.5 -117t65 -95.5t103 -64t136.5 -23.5q71 0 131 23.5t104 64t69 95.5t25 117l-1 665q-1 20 -6 40t-5 38q0 11 3.5 20.5t12.5 15.5t25.5 10t42.5 4 q33 0 63 -5.5t53.5 -20.5t37.5 -43t14 -72l1 -651q-1 -112 -44.5 -210t-120 -172t-180.5 -117t-225 -43q-124 0 -228 42.5t-180 116t-118.5 172t-42.5 211.5l1 664q-1 20 -6 40t-5 38zM399.5 1460q-4.5 18 0 36t15.5 35t24 31l157 154q24 24 53.5 25.5t53.5 -16.5l180 -175 q26 -27 29 -61.5t-22 -61.5q-27 -27 -63 -21t-67 36l-106 106l-104 -106q-31 -31 -67.5 -37t-63.5 22q-15 15 -19.5 33z" />
<glyph unicode="&#xdc;" d="M75 1256q0 11 3.5 20.5t12.5 15.5t25.5 10t42.5 4q34 0 63.5 -6t52.5 -21t36.5 -42.5t15.5 -70.5v-653q0 -62 22.5 -117t65 -95.5t103 -64t136.5 -23.5q71 0 131 23.5t104 64t69 95.5t25 117l-1 665q-1 20 -6 40t-5 38q0 11 3.5 20.5t12.5 15.5t25.5 10t42.5 4 q33 0 63 -5.5t53.5 -20.5t37.5 -43t14 -72l1 -651q-1 -112 -44.5 -210t-120 -172t-180.5 -117t-225 -43q-124 0 -228 42.5t-180 116t-118.5 172t-42.5 211.5l1 664q-1 20 -6 40t-5 38zM347 1563q0 23 9 42.5t23 35t34 24t44 8.5q23 0 42.5 -8.5t35 -24t24 -35.5t8.5 -42 q0 -24 -8.5 -44t-24 -34.5t-35.5 -23t-42 -8.5q-24 0 -44 8.5t-34 23t-23 34.5t-9 44zM688 1563q0 23 9 42.5t23 35t34 24t43 8.5t43 -8.5t35 -24t23.5 -35.5t8.5 -42q0 -24 -8.5 -44t-23.5 -34.5t-35.5 -23t-42.5 -8.5q-23 0 -43 8.5t-34 23t-23 34.5t-9 44z" />
<glyph unicode="&#xdd;" horiz-adv-x="1239" d="M26 1186q0 23 8 44.5t26 40.5q18 17 41.5 26.5t47 10t45 -9t36.5 -28.5l404 -510q18 -18 28 -39.5t11 -43.5t-8 -43.5t-27 -39.5q-17 -17 -27.5 -38.5t-18.5 -36.5t-18.5 -18t-28.5 15l-486 584q-16 19 -24.5 41t-8.5 45zM502 110v529q0 25 9 47t25 38t38 25.5t48 9.5 t47.5 -9.5t38 -25.5t25.5 -38t9 -47v-529q0 -26 -9 -48t-25.5 -38.5t-38.5 -25.5t-47 -9q-26 0 -48 9t-38 25.5t-25 38.5t-9 48zM519 1493q0 9 2 18q0 15 20 44t48 57t60.5 49t59.5 21q24 0 43.5 -9.5t32.5 -26t19 -37.5t2 -44q-4 -19 -28.5 -44t-55 -47.5t-62.5 -38 t-50 -15.5q-25 -3 -49 8q-33 14 -40 48q-2 8 -2 17zM570 677q1 22 11 43t28 40l404 510q15 19 36.5 28.5t45 9t46.5 -10t42 -26.5q17 -17 26 -39.5t9 -45.5t-9 -45.5t-25 -40.5l-491 -587q-18 -18 -28 -14t-17.5 19.5t-16 37t-26.5 38.5q-18 18 -27 39.5t-8 43.5z" />
<glyph unicode="&#xde;" horiz-adv-x="1128" d="M125 1256q0 11 3.5 20.5t13 15.5t25.5 10t42 4q35 0 64.5 -5.5t52 -19t36 -37t15.5 -60.5v-1044q0 -32 -8.5 -59t-23.5 -47.5t-37.5 -32t-51.5 -11.5t-51.5 11.5t-37.5 32t-23 48t-8 58.5v1038q-1 20 -6 40t-5 38zM152 1092q0 11 3.5 20t12.5 16t25 10.5t41 3.5h308 q105 0 200.5 -37.5t167 -103.5t114 -156.5t42.5 -195.5t-42.5 -191.5t-114 -148.5t-167 -96.5t-200.5 -34.5h-170v-16q0 -17 -10 -37t-25 -30.5t-35 -6t-40.5 35t-39.5 93t-33.5 167.5t-22 260t-4.5 370q-1 20 -5.5 40t-4.5 38zM373 388l169 2q59 0 111.5 17t91.5 49 t61.5 79t22.5 107q0 59 -22.5 110t-61.5 88.5t-91.5 59t-111.5 21.5l-169 2v-535z" />
<glyph unicode="&#xdf;" horiz-adv-x="1093" d="M104 117v764q-1 36 4 82t20.5 93.5t45.5 93.5t78 82t117 58t165 22q77 0 150 -22t131 -64t96.5 -102t47.5 -136q2 -22 2 -41.5t-3 -40.5q-4 -30 -13.5 -59.5t-24 -56t-33 -49t-39.5 -38.5q39 -17 73 -49.5t59.5 -74t40 -90t14.5 -96.5q0 -86 -28 -159.5t-80.5 -128 t-125 -85t-161.5 -30.5q-61 0 -100 30t-39 89q0 18 5.5 31t15 22.5t22 16.5t26.5 15q43 12 87 29.5t80 42.5t59 59t23 82q0 43 -17.5 77t-46 58t-64.5 37.5t-74 13.5q-55 0 -86 24.5t-31 73.5q0 30 15 54.5t41 35.5q35 5 70.5 14t64 26.5t46.5 45t18 70.5q0 31 -16.5 58.5 t-41.5 48.5t-56 33t-59 12q-48 0 -92 -9.5t-77 -35t-52.5 -69.5t-17.5 -113v-190.5t0.5 -182t0.5 -182v-190.5q0 -25 -8 -48t-23.5 -41t-37.5 -28.5t-50 -10.5t-50 10.5t-37.5 28t-24.5 41t-9 48.5z" />
<glyph unicode="&#xe0;" horiz-adv-x="1202" d="M66 495q0 104 39.5 195.5t109 160.5t161 108.5t195.5 39.5t187 -39.5t140 -108.5t87.5 -160.5t30.5 -195.5t-30.5 -196.5t-87.5 -161t-139.5 -108.5t-187.5 -40q-104 0 -195.5 40t-161 108.5t-109 160.5t-39.5 197zM309 495q0 -56 20 -106t55.5 -87t83.5 -58.5t103 -21.5 t103 21.5t83.5 58.5t56 87t20.5 106q0 55 -20.5 104.5t-56 86.5t-83 58.5t-103.5 21.5q-55 0 -103 -21.5t-83.5 -58.5t-55.5 -86.5t-20 -104.5zM361 1282q-5 23 1 44t19 37.5t32 26t43 9.5q27 0 59.5 -21t61.5 -49t48.5 -56.5t20.5 -44.5q3 -20 -1 -35q-7 -34 -40 -48 q-24 -11 -48 -8q-19 0 -50.5 15.5t-63 38t-55 47.5t-27.5 44zM836 257v236q0 26 9.5 47t26 37.5t38.5 25.5t46 9q26 0 48 -9t38.5 -25.5t25.5 -38t9 -46.5v-426q0 -38 -19.5 -58t-55.5 -20q-38 0 -62 22t-35 58l-44 175zM836 463v268l25 14l44 136q12 65 40.5 91.5 t66.5 26.5q66 0 65 -65v-471q0 -26 -9 -48t-25.5 -38.5t-38.5 -25.5t-48 -9q-25 0 -46.5 9t-38 25.5t-26 38.5t-9.5 48z" />
<glyph unicode="&#xe1;" horiz-adv-x="1202" d="M66 495q0 104 39.5 195.5t109 160.5t161 108.5t195.5 39.5t187 -39.5t140 -108.5t87.5 -160.5t30.5 -195.5t-30.5 -196.5t-87.5 -161t-139.5 -108.5t-187.5 -40q-104 0 -195.5 40t-161 108.5t-109 160.5t-39.5 197zM309 495q0 -56 20 -106t55.5 -87t83.5 -58.5t103 -21.5 t103 21.5t83.5 58.5t56 87t20.5 106q0 55 -20.5 104.5t-56 86.5t-83 58.5t-103.5 21.5q-55 0 -103 -21.5t-83.5 -58.5t-55.5 -86.5t-20 -104.5zM521 1195q0 9 2 18q0 15 20 44t48 57t60.5 49t59.5 21q24 0 43.5 -9.5t32.5 -26t19 -37.5t2 -44q-4 -19 -28.5 -44t-55 -47.5 t-62.5 -38t-50 -15.5q-25 -3 -49 8q-33 14 -40 48q-2 8 -2 17zM836 257v236q0 26 9.5 47t26 37.5t38.5 25.5t46 9q26 0 48 -9t38.5 -25.5t25.5 -38t9 -46.5v-426q0 -38 -19.5 -58t-55.5 -20q-38 0 -62 22t-35 58l-44 175zM836 463v268l25 14l44 136q12 65 40.5 91.5 t66.5 26.5q66 0 65 -65v-471q0 -26 -9 -48t-25.5 -38.5t-38.5 -25.5t-48 -9q-25 0 -46.5 9t-38 25.5t-26 38.5t-9.5 48z" />
<glyph unicode="&#xe2;" horiz-adv-x="1202" d="M66 495q0 104 39.5 195.5t109 160.5t161 108.5t195.5 39.5t187 -39.5t140 -108.5t87.5 -160.5t30.5 -195.5t-30.5 -196.5t-87.5 -161t-139.5 -108.5t-187.5 -40q-104 0 -195.5 40t-161 108.5t-109 160.5t-39.5 197zM309 495q0 -56 20 -106t55.5 -87t83.5 -58.5t103 -21.5 t103 21.5t83.5 58.5t56 87t20.5 106q0 55 -20.5 104.5t-56 86.5t-83 58.5t-103.5 21.5q-55 0 -103 -21.5t-83.5 -58.5t-55.5 -86.5t-20 -104.5zM325.5 1165q-4.5 18 0 36t15.5 35t24 31l157 154q24 24 53.5 25.5t53.5 -16.5l180 -175q26 -27 29 -61.5t-22 -61.5 q-27 -27 -63 -21t-67 36l-106 106l-104 -106q-31 -31 -67.5 -37t-63.5 22q-15 15 -19.5 33zM836 257v236q0 26 9.5 47t26 37.5t38.5 25.5t46 9q26 0 48 -9t38.5 -25.5t25.5 -38t9 -46.5v-426q0 -38 -19.5 -58t-55.5 -20q-38 0 -62 22t-35 58l-44 175zM836 463v268l25 14 l44 136q12 65 40.5 91.5t66.5 26.5q66 0 65 -65v-471q0 -26 -9 -48t-25.5 -38.5t-38.5 -25.5t-48 -9q-25 0 -46.5 9t-38 25.5t-26 38.5t-9.5 48z" />
<glyph unicode="&#xe3;" horiz-adv-x="1202" d="M66 495q0 104 39.5 195.5t109 160.5t161 108.5t195.5 39.5t187 -39.5t140 -108.5t87.5 -160.5t30.5 -195.5t-30.5 -196.5t-87.5 -161t-139.5 -108.5t-187.5 -40q-104 0 -195.5 40t-161 108.5t-109 160.5t-39.5 197zM299 1218.5q1 15.5 6 30.5q18 58 62 95q11 9 23.5 15.5 t26.5 11.5q12 4 26.5 7t30.5 3q48 0 76 -17t48.5 -38t39.5 -38t50 -17q15 0 24 8t18.5 19.5t22 24t36.5 21.5q12 7 29 5t30.5 -13t20 -30.5t-2.5 -46.5q-8 -28 -24.5 -52.5t-40 -43t-53.5 -29t-64 -10.5q-43 0 -69.5 16.5t-46.5 37.5t-40.5 38t-51.5 17q-25 0 -38 -11 t-22 -25t-18.5 -27t-27.5 -16q-10 -1 -23 0q-18 3 -29 13.5t-15.5 23t-3.5 28zM309 495q0 -56 20 -106t55.5 -87t83.5 -58.5t103 -21.5t103 21.5t83.5 58.5t56 87t20.5 106q0 55 -20.5 104.5t-56 86.5t-83 58.5t-103.5 21.5q-55 0 -103 -21.5t-83.5 -58.5t-55.5 -86.5 t-20 -104.5zM836 257v236q0 26 9.5 47t26 37.5t38.5 25.5t46 9q26 0 48 -9t38.5 -25.5t25.5 -38t9 -46.5v-426q0 -38 -19.5 -58t-55.5 -20q-38 0 -62 22t-35 58l-44 175zM836 463v268l25 14l44 136q12 65 40.5 91.5t66.5 26.5q66 0 65 -65v-471q0 -26 -9 -48t-25.5 -38.5 t-38.5 -25.5t-48 -9q-25 0 -46.5 9t-38 25.5t-26 38.5t-9.5 48z" />
<glyph unicode="&#xe4;" horiz-adv-x="1202" d="M66 495q0 104 39.5 195.5t109 160.5t161 108.5t195.5 39.5t187 -39.5t140 -108.5t87.5 -160.5t30.5 -195.5t-30.5 -196.5t-87.5 -161t-139.5 -108.5t-187.5 -40q-104 0 -195.5 40t-161 108.5t-109 160.5t-39.5 197zM298 1250q0 23 9 42.5t23 35t34 24t44 8.5 q23 0 42.5 -8.5t35 -24t24 -35.5t8.5 -42q0 -24 -8.5 -44t-24 -34.5t-35.5 -23t-42 -8.5q-24 0 -44 8.5t-34 23t-23 34.5t-9 44zM309 495q0 -56 20 -106t55.5 -87t83.5 -58.5t103 -21.5t103 21.5t83.5 58.5t56 87t20.5 106q0 55 -20.5 104.5t-56 86.5t-83 58.5t-103.5 21.5 q-55 0 -103 -21.5t-83.5 -58.5t-55.5 -86.5t-20 -104.5zM639 1250q0 23 9 42.5t23 35t34 24t43 8.5t43 -8.5t35 -24t23.5 -35.5t8.5 -42q0 -24 -8.5 -44t-23.5 -34.5t-35.5 -23t-42.5 -8.5q-23 0 -43 8.5t-34 23t-23 34.5t-9 44zM836 257v236q0 26 9.5 47t26 37.5t38.5 25.5 t46 9q26 0 48 -9t38.5 -25.5t25.5 -38t9 -46.5v-426q0 -38 -19.5 -58t-55.5 -20q-38 0 -62 22t-35 58l-44 175zM836 463v268l25 14l44 136q12 65 40.5 91.5t66.5 26.5q66 0 65 -65v-471q0 -26 -9 -48t-25.5 -38.5t-38.5 -25.5t-48 -9q-25 0 -46.5 9t-38 25.5t-26 38.5 t-9.5 48z" />
<glyph unicode="&#xe5;" horiz-adv-x="1202" d="M66 495q0 104 39.5 195.5t109 160.5t161 108.5t195.5 39.5t187 -39.5t140 -108.5t87.5 -160.5t30.5 -195.5t-30.5 -196.5t-87.5 -161t-139.5 -108.5t-187.5 -40q-104 0 -195.5 40t-161 108.5t-109 160.5t-39.5 197zM309 495q0 -56 20 -106t55.5 -87t83.5 -58.5t103 -21.5 t103 21.5t83.5 58.5t56 87t20.5 106q0 55 -20.5 104.5t-56 86.5t-83 58.5t-103.5 21.5q-55 0 -103 -21.5t-83.5 -58.5t-55.5 -86.5t-20 -104.5zM445 1283q0 34 13 63.5t34.5 52t51 35t63.5 12.5t63 -12.5t51 -35t35 -52t13 -63.5q0 -33 -13 -62.5t-35 -51.5t-51 -35t-63 -13 t-63.5 13t-51 35t-34.5 51.5t-13 62.5zM550 1283q0 -25 16.5 -42t40.5 -17q25 0 41 17.5t16 41.5q0 25 -16 43t-41 18t-41 -18t-16 -43zM836 257v236q0 26 9.5 47t26 37.5t38.5 25.5t46 9q26 0 48 -9t38.5 -25.5t25.5 -38t9 -46.5v-426q0 -38 -19.5 -58t-55.5 -20 q-38 0 -62 22t-35 58l-44 175zM836 463v268l25 14l44 136q12 65 40.5 91.5t66.5 26.5q66 0 65 -65v-471q0 -26 -9 -48t-25.5 -38.5t-38.5 -25.5t-48 -9q-25 0 -46.5 9t-38 25.5t-26 38.5t-9.5 48z" />
<glyph unicode="&#xe6;" horiz-adv-x="1972" d="M80 495q0 104 39.5 195.5t109 160.5t161 108.5t195.5 39.5t187 -39.5t140 -108.5t87.5 -160.5t30.5 -195.5t-30.5 -196.5t-87.5 -161t-139.5 -108.5t-187.5 -40q-104 0 -195.5 40t-161 108.5t-109 160.5t-39.5 197zM323 495q0 -56 20 -106t55.5 -87t83.5 -58.5t103 -21.5 t103 21.5t83.5 58.5t56 87t20.5 106q0 55 -20.5 104.5t-56 86.5t-83 58.5t-103.5 21.5q-55 0 -103 -21.5t-83.5 -58.5t-55.5 -86.5t-20 -104.5zM850 257v236q0 26 9.5 47t26 37.5t38.5 25.5t46 9q26 0 48 -9t38.5 -25.5t25.5 -38t9 -46.5v-426q0 -38 -19.5 -58t-55.5 -20 q-38 0 -62 22t-35 58l-44 175zM850 463v268l25 14l44 136q12 65 40.5 91.5t66.5 26.5q66 0 65 -65v-471q0 -26 -9 -48t-25.5 -38.5t-38.5 -25.5t-48 -9q-25 0 -46.5 9t-38 25.5t-26 38.5t-9.5 48zM924 495q0 111 41 203.5t112 159.5t164 104.5t198 37.5q104 0 194.5 -36.5 t158 -102t106.5 -156t39 -195.5q0 -51 -26.5 -68.5t-91.5 -17.5h-647q4 -47 26 -89.5t57 -75t80 -52t96 -19.5q49 0 95.5 17t83.5 49q22 12 51 13t57 -9t47.5 -33t19.5 -58q0 -40 -33 -73t-84 -56t-115 -35.5t-123 -12.5q-104 0 -195.5 40t-161 108t-109.5 160t-40 197z M1170 575h523q-4 49 -26 91t-56 72.5t-78.5 48t-93.5 17.5q-50 0 -96.5 -17.5t-82.5 -48t-60 -72t-30 -91.5z" />
<glyph unicode="&#xe7;" horiz-adv-x="1032" d="M62 495q0 104 40 195.5t109 160.5t160.5 108.5t195.5 39.5q51 0 102.5 -9t99 -27t88.5 -43.5t71 -59.5q39 -42 39 -86q0 -25 -10.5 -46.5t-28 -36.5t-41 -21.5t-48.5 -1.5q-52 26 -105.5 50.5t-115.5 36.5q-58 7 -114.5 -7.5t-100.5 -48t-70.5 -85.5t-26.5 -119 q0 -66 25 -117.5t68 -86t99.5 -50t119.5 -7.5q49 5 96 25t83 52q24 12 53 15.5t55 -8.5q29 -11 46.5 -38t17.5 -63q0 -41 -32 -82t-86.5 -73t-128 -52.5t-155.5 -20.5q-104 0 -195.5 40t-160.5 108.5t-109 160.5t-40 197zM364.5 -283q-0.5 19 6.5 34t22.5 26t40.5 11 q26 0 39.5 -14t23.5 -31.5t22 -32t35 -14.5q11 0 23 3.5t22 11t15.5 20.5t5.5 30q-1 20 -12.5 34t-27.5 25t-35.5 21t-36 22.5t-28 29.5t-11.5 42v137h27t47 0.5t46.5 0.5h26.5v-26.5t1 -30.5t1.5 -28t2.5 -17q3 -8 8.5 -15.5t18.5 -13.5q34 -15 57.5 -39t37 -53t18.5 -62.5 t1 -65.5q-11 -72 -62.5 -118.5t-128.5 -52.5q-36 -3 -69.5 7.5t-60 29.5t-45 44t-25.5 51q-6 15 -6.5 34z" />
<glyph unicode="&#xe8;" horiz-adv-x="1137" d="M62 495q0 111 41 203.5t112 159.5t164 104.5t198 37.5q104 0 194.5 -36.5t158 -102t106.5 -156t39 -195.5q0 -51 -26.5 -68.5t-91.5 -17.5h-647q4 -47 26 -89.5t57 -75t80 -52t96 -19.5q49 0 95.5 17t83.5 49q22 12 51 13t57 -9t47.5 -33t19.5 -58q0 -40 -33 -73t-84 -56 t-115 -35.5t-123 -12.5q-104 0 -195.5 40t-161 108t-109.5 160t-40 197zM308 575h523q-4 49 -26 91t-56 72.5t-78.5 48t-93.5 17.5q-50 0 -96.5 -17.5t-82.5 -48t-60 -72t-30 -91.5zM350 1264q-5 23 1 44t19 37.5t32 26t43 9.5q27 0 59.5 -21t61.5 -49t48.5 -56.5 t20.5 -44.5q3 -20 -1 -35q-7 -34 -40 -48q-24 -11 -48 -8q-19 0 -50.5 15.5t-63 38t-55 47.5t-27.5 44z" />
<glyph unicode="&#xe9;" horiz-adv-x="1137" d="M62 495q0 111 41 203.5t112 159.5t164 104.5t198 37.5q104 0 194.5 -36.5t158 -102t106.5 -156t39 -195.5q0 -51 -26.5 -68.5t-91.5 -17.5h-647q4 -47 26 -89.5t57 -75t80 -52t96 -19.5q49 0 95.5 17t83.5 49q22 12 51 13t57 -9t47.5 -33t19.5 -58q0 -40 -33 -73t-84 -56 t-115 -35.5t-123 -12.5q-104 0 -195.5 40t-161 108t-109.5 160t-40 197zM308 575h523q-4 49 -26 91t-56 72.5t-78.5 48t-93.5 17.5q-50 0 -96.5 -17.5t-82.5 -48t-60 -72t-30 -91.5zM495 1188q0 9 2 18q0 15 20 44t48 57t60.5 49t59.5 21q24 0 43.5 -9.5t32.5 -26t19 -37.5 t2 -44q-4 -19 -28.5 -44t-55 -47.5t-62.5 -38t-50 -15.5q-25 -3 -49 8q-33 14 -40 48q-2 8 -2 17z" />
<glyph unicode="&#xea;" horiz-adv-x="1137" d="M62 495q0 111 41 203.5t112 159.5t164 104.5t198 37.5q104 0 194.5 -36.5t158 -102t106.5 -156t39 -195.5q0 -51 -26.5 -68.5t-91.5 -17.5h-647q4 -47 26 -89.5t57 -75t80 -52t96 -19.5q49 0 95.5 17t83.5 49q22 12 51 13t57 -9t47.5 -33t19.5 -58q0 -40 -33 -73t-84 -56 t-115 -35.5t-123 -12.5q-104 0 -195.5 40t-161 108t-109.5 160t-40 197zM308 575h523q-4 49 -26 91t-56 72.5t-78.5 48t-93.5 17.5q-50 0 -96.5 -17.5t-82.5 -48t-60 -72t-30 -91.5zM319.5 1137q-4.5 18 0 36t15.5 35t24 31l157 154q24 24 53.5 25.5t53.5 -16.5l180 -175 q26 -27 29 -61.5t-22 -61.5q-27 -27 -63 -21t-67 36l-106 106l-104 -106q-31 -31 -67.5 -37t-63.5 22q-15 15 -19.5 33z" />
<glyph unicode="&#xeb;" horiz-adv-x="1137" d="M62 495q0 111 41 203.5t112 159.5t164 104.5t198 37.5q104 0 194.5 -36.5t158 -102t106.5 -156t39 -195.5q0 -51 -26.5 -68.5t-91.5 -17.5h-647q4 -47 26 -89.5t57 -75t80 -52t96 -19.5q49 0 95.5 17t83.5 49q22 12 51 13t57 -9t47.5 -33t19.5 -58q0 -40 -33 -73t-84 -56 t-115 -35.5t-123 -12.5q-104 0 -195.5 40t-161 108t-109.5 160t-40 197zM275 1219q0 23 9 42.5t23 35t34 24t44 8.5q23 0 42.5 -8.5t35 -24t24 -35.5t8.5 -42q0 -24 -8.5 -44t-24 -34.5t-35.5 -23t-42 -8.5q-24 0 -44 8.5t-34 23t-23 34.5t-9 44zM308 575h523q-4 49 -26 91 t-56 72.5t-78.5 48t-93.5 17.5q-50 0 -96.5 -17.5t-82.5 -48t-60 -72t-30 -91.5zM616 1219q0 23 9 42.5t23 35t34 24t43 8.5t43 -8.5t35 -24t23.5 -35.5t8.5 -42q0 -24 -8.5 -44t-23.5 -34.5t-35.5 -23t-42.5 -8.5q-23 0 -43 8.5t-34 23t-23 34.5t-9 44z" />
<glyph unicode="&#xec;" horiz-adv-x="470" d="M22 1264q-5 23 1 44t19 37.5t32 26t43 9.5q27 0 59.5 -21t61.5 -49t48.5 -56.5t20.5 -44.5q3 -20 -1 -35q-7 -34 -40 -48q-24 -11 -48 -8q-19 0 -50.5 15.5t-63 38t-55 47.5t-27.5 44zM114 111v771q0 25 9 46.5t25.5 38t38.5 25.5t47 9t47 -9t38.5 -25.5t26 -38.5 t9.5 -46v-771q0 -26 -9.5 -48t-26 -38.5t-38.5 -25.5t-47 -9q-26 0 -47.5 9t-38 25.5t-25.5 38.5t-9 48z" />
<glyph unicode="&#xed;" horiz-adv-x="470" d="M114 111v771q0 25 9 46.5t25.5 38t38.5 25.5t47 9t47 -9t38.5 -25.5t26 -38.5t9.5 -46v-771q0 -26 -9.5 -48t-26 -38.5t-38.5 -25.5t-47 -9q-26 0 -47.5 9t-38 25.5t-25.5 38.5t-9 48zM188 1195q0 9 2 18q0 15 20 44t48 57t60.5 49t59.5 21q24 0 43.5 -9.5t32.5 -26 t19 -37.5t2 -44q-4 -19 -28.5 -44t-55 -47.5t-62.5 -38t-50 -15.5q-25 -3 -49 8q-33 14 -40 48q-2 8 -2 17z" />
<glyph unicode="&#xee;" horiz-adv-x="470" d="M-20.5 1162q-4.5 18 0 36t15.5 35t24 31l157 154q24 24 53.5 25.5t53.5 -16.5l180 -175q26 -27 29 -61.5t-22 -61.5q-27 -27 -63 -21t-67 36l-106 106l-104 -106q-31 -31 -67.5 -37t-63.5 22q-15 15 -19.5 33zM114 111v771q0 25 9 46.5t25.5 38t38.5 25.5t47 9t47 -9 t38.5 -25.5t26 -38.5t9.5 -46v-771q0 -26 -9.5 -48t-26 -38.5t-38.5 -25.5t-47 -9q-26 0 -47.5 9t-38 25.5t-25.5 38.5t-9 48z" />
<glyph unicode="&#xef;" horiz-adv-x="470" d="M-49 1258q0 23 9 42.5t23 35t34 24t44 8.5q23 0 42.5 -8.5t35 -24t24 -35.5t8.5 -42q0 -24 -8.5 -44t-24 -34.5t-35.5 -23t-42 -8.5q-24 0 -44 8.5t-34 23t-23 34.5t-9 44zM114 111v771q0 25 9 46.5t25.5 38t38.5 25.5t47 9t47 -9t38.5 -25.5t26 -38.5t9.5 -46v-771 q0 -26 -9.5 -48t-26 -38.5t-38.5 -25.5t-47 -9q-26 0 -47.5 9t-38 25.5t-25.5 38.5t-9 48zM292 1258q0 23 9 42.5t23 35t34 24t43 8.5t43 -8.5t35 -24t23.5 -35.5t8.5 -42q0 -24 -8.5 -44t-23.5 -34.5t-35.5 -23t-42.5 -8.5q-23 0 -43 8.5t-34 23t-23 34.5t-9 44z" />
<glyph unicode="&#xf0;" horiz-adv-x="1119" d="M49 437q-7 88 17.5 170t74 149t121 116t157.5 70q47 9 92 8.5t88 -9.5q-18 26 -42.5 66t-48.5 81.5t-45 81.5t-33 68q-2 20 1.5 37t18.5 33q14 20 34.5 33t49.5 16q12 2 23 1t23 -3q24 -5 41 -21.5t29 -40.5l335 -561q30 -47 49.5 -104t24.5 -118q7 -100 -26.5 -192 t-97.5 -163t-152.5 -116t-191.5 -52q-104 -8 -199.5 24t-169.5 93.5t-120 147t-53 185.5zM306 443q6 -52 30.5 -96t61.5 -74t84.5 -44.5t100.5 -8.5q52 6 94.5 32t71 63.5t41.5 86.5t7 101q-6 53 -30.5 97t-61.5 74.5t-84.5 44.5t-99.5 8t-94.5 -31.5t-71.5 -64t-42 -87 t-7 -101.5zM323 1081.5q9 31.5 39 47.5l401 229q30 15 61.5 4.5t47.5 -41.5q16 -30 6.5 -62t-38.5 -48l-401 -230q-15 -8 -31 -8.5t-31 5t-27.5 16.5t-20.5 26q-15 30 -6 61.5z" />
<glyph unicode="&#xf1;" horiz-adv-x="1242" d="M115 111v824q0 66 65 65q38 0 65.5 -26t41.5 -92l44 -187l25 -14v-570q0 -26 -9.5 -48t-26 -38.5t-38.5 -25.5t-46 -9q-26 0 -48 9t-38.5 25.5t-25.5 38.5t-9 48zM269 808q35 42 80.5 77.5t97.5 60.5t107 39t110 14q104 0 189.5 -39.5t146.5 -108t94 -160t33 -195.5v-385 q0 -24 -8.5 -45.5t-25 -38.5t-38.5 -27t-47 -10q-26 0 -48 9.5t-38.5 26t-26 38.5t-9.5 47v384q0 55 -19 104.5t-53 86.5t-80 58.5t-101 21.5q-54 0 -104.5 -22.5t-89 -60t-61 -87t-22.5 -103.5zM357 1242.5q1 15.5 6 30.5q18 58 62 95q11 9 23.5 15.5t26.5 11.5 q12 4 26.5 7t30.5 3q48 0 76 -17t48.5 -38t39.5 -38t50 -17q15 0 24 8t18.5 19.5t22 24t36.5 21.5q12 7 29 5t30.5 -13t20 -30.5t-2.5 -46.5q-8 -28 -24.5 -52.5t-40 -43t-53.5 -29t-64 -10.5q-43 0 -69.5 16.5t-46.5 37.5t-40.5 38t-51.5 17q-25 0 -38 -11t-22 -25 t-18.5 -27t-27.5 -16q-10 -1 -23 0q-18 3 -29 13.5t-15.5 23t-3.5 28z" />
<glyph unicode="&#xf2;" horiz-adv-x="1136" d="M62 496q0 104 40 195.5t109.5 160.5t161 108.5t195.5 39.5t196 -39.5t161 -108.5t109 -160.5t40 -195.5t-40 -196.5t-109 -161t-160.5 -108.5t-196.5 -40q-104 0 -195.5 40t-161 108.5t-109.5 161t-40 196.5zM306 496q0 -56 20 -106t55.5 -87t83.5 -58.5t103 -21.5 t103 21.5t83.5 58.5t55.5 86.5t20 106.5q0 55 -20 104.5t-55.5 86.5t-83 58.5t-103.5 21.5q-55 0 -103 -21.5t-83.5 -58.5t-55.5 -86.5t-20 -104.5zM355 1261q-5 23 1 44t19 37.5t32 26t43 9.5q27 0 59.5 -21t61.5 -49t48.5 -56.5t20.5 -44.5q3 -20 -1 -35q-7 -34 -40 -48 q-24 -11 -48 -8q-19 0 -50.5 15.5t-63 38t-55 47.5t-27.5 44z" />
<glyph unicode="&#xf3;" horiz-adv-x="1136" d="M62 496q0 104 40 195.5t109.5 160.5t161 108.5t195.5 39.5t196 -39.5t161 -108.5t109 -160.5t40 -195.5t-40 -196.5t-109 -161t-160.5 -108.5t-196.5 -40q-104 0 -195.5 40t-161 108.5t-109.5 161t-40 196.5zM306 496q0 -56 20 -106t55.5 -87t83.5 -58.5t103 -21.5 t103 21.5t83.5 58.5t55.5 86.5t20 106.5q0 55 -20 104.5t-55.5 86.5t-83 58.5t-103.5 21.5q-55 0 -103 -21.5t-83.5 -58.5t-55.5 -86.5t-20 -104.5zM492 1179q0 9 2 18q0 15 20 44t48 57t60.5 49t59.5 21q24 0 43.5 -9.5t32.5 -26t19 -37.5t2 -44q-4 -19 -28.5 -44 t-55 -47.5t-62.5 -38t-50 -15.5q-25 -3 -49 8q-33 14 -40 48q-2 8 -2 17z" />
<glyph unicode="&#xf4;" horiz-adv-x="1136" d="M62 496q0 104 40 195.5t109.5 160.5t161 108.5t195.5 39.5t196 -39.5t161 -108.5t109 -160.5t40 -195.5t-40 -196.5t-109 -161t-160.5 -108.5t-196.5 -40q-104 0 -195.5 40t-161 108.5t-109.5 161t-40 196.5zM306 496q0 -56 20 -106t55.5 -87t83.5 -58.5t103 -21.5 t103 21.5t83.5 58.5t55.5 86.5t20 106.5q0 55 -20 104.5t-55.5 86.5t-83 58.5t-103.5 21.5q-55 0 -103 -21.5t-83.5 -58.5t-55.5 -86.5t-20 -104.5zM310.5 1136q-4.5 18 0 36t15.5 35t24 31l157 154q24 24 53.5 25.5t53.5 -16.5l180 -175q26 -27 29 -61.5t-22 -61.5 q-27 -27 -63 -21t-67 36l-106 106l-104 -106q-31 -31 -67.5 -37t-63.5 22q-15 15 -19.5 33z" />
<glyph unicode="&#xf5;" horiz-adv-x="1136" d="M62 496q0 104 40 195.5t109.5 160.5t161 108.5t195.5 39.5t196 -39.5t161 -108.5t109 -160.5t40 -195.5t-40 -196.5t-109 -161t-160.5 -108.5t-196.5 -40q-104 0 -195.5 40t-161 108.5t-109.5 161t-40 196.5zM299 1215.5q1 15.5 6 30.5q18 58 62 95q11 9 23.5 15.5 t26.5 11.5q12 4 26.5 7t30.5 3q48 0 76 -17t48.5 -38t39.5 -38t50 -17q15 0 24 8t18.5 19.5t22 24t36.5 21.5q12 7 29 5t30.5 -13t20 -30.5t-2.5 -46.5q-8 -28 -24.5 -52.5t-40 -43t-53.5 -29t-64 -10.5q-43 0 -69.5 16.5t-46.5 37.5t-40.5 38t-51.5 17q-25 0 -38 -11 t-22 -25t-18.5 -27t-27.5 -16q-10 -1 -23 0q-18 3 -29 13.5t-15.5 23t-3.5 28zM306 496q0 -56 20 -106t55.5 -87t83.5 -58.5t103 -21.5t103 21.5t83.5 58.5t55.5 86.5t20 106.5q0 55 -20 104.5t-55.5 86.5t-83 58.5t-103.5 21.5q-55 0 -103 -21.5t-83.5 -58.5t-55.5 -86.5 t-20 -104.5z" />
<glyph unicode="&#xf6;" horiz-adv-x="1136" d="M62 496q0 104 40 195.5t109.5 160.5t161 108.5t195.5 39.5t196 -39.5t161 -108.5t109 -160.5t40 -195.5t-40 -196.5t-109 -161t-160.5 -108.5t-196.5 -40q-104 0 -195.5 40t-161 108.5t-109.5 161t-40 196.5zM286 1215q0 23 9 42.5t23 35t34 24t44 8.5q23 0 42.5 -8.5 t35 -24t24 -35.5t8.5 -42q0 -24 -8.5 -44t-24 -34.5t-35.5 -23t-42 -8.5q-24 0 -44 8.5t-34 23t-23 34.5t-9 44zM306 496q0 -56 20 -106t55.5 -87t83.5 -58.5t103 -21.5t103 21.5t83.5 58.5t55.5 86.5t20 106.5q0 55 -20 104.5t-55.5 86.5t-83 58.5t-103.5 21.5 q-55 0 -103 -21.5t-83.5 -58.5t-55.5 -86.5t-20 -104.5zM627 1215q0 23 9 42.5t23 35t34 24t43 8.5t43 -8.5t35 -24t23.5 -35.5t8.5 -42q0 -24 -8.5 -44t-23.5 -34.5t-35.5 -23t-42.5 -8.5q-23 0 -43 8.5t-34 23t-23 34.5t-9 44z" />
<glyph unicode="&#xf7;" horiz-adv-x="940" d="M103 651q0 39 26 65t62 26h567q37 0 63 -26t26 -65q0 -37 -26 -63.5t-63 -26.5h-567q-37 0 -62.5 26.5t-25.5 63.5zM350 264q0 26 10 48.5t26.5 39.5t39.5 26.5t48 9.5q26 0 48.5 -9.5t39.5 -26.5t26.5 -39.5t9.5 -48.5t-9.5 -48t-26.5 -39t-39.5 -27t-48.5 -10t-48.5 10 t-39 27t-26.5 39t-10 48zM350 1064q0 25 10 47.5t26 39t38.5 27t49.5 10.5q25 0 47.5 -10.5t39.5 -27t27 -39t10 -47.5q0 -27 -10 -49.5t-27 -39t-39.5 -26t-47.5 -9.5q-27 0 -49.5 9.5t-38.5 26t-26 39t-10 49.5z" />
<glyph unicode="&#xf8;" horiz-adv-x="1135" d="M65 524q6 103 51 193t117.5 154.5t166.5 99t198 27.5q24 -2 46.5 -7.5t44.5 -13.5q11 20 26 46.5t33 51.5t39 46.5t43 33.5q19 11 40 14t44 -5q37 -14 58 -44t19 -63q-1 -7 -3 -15.5t-10 -27.5t-26 -53.5t-51 -94.5q86 -72 132.5 -176t37.5 -225q-6 -104 -51 -193.5 t-117.5 -154t-166.5 -98.5t-197 -28q-27 2 -48.5 6.5t-41.5 12.5l-31 -53q-12 -24 -26.5 -47t-31.5 -40.5t-37 -29t-43 -9.5q-28 1 -51 12t-40 27.5t-25.5 38.5t-6.5 46q1 6 4 14.5t11.5 26t24 46.5t40.5 75q-87 74 -134 179t-38 228zM307 519q-5 -55 10.5 -107t47 -91.5 t77 -66t101.5 -31.5q55 -5 104.5 12t88 50.5t63.5 81.5t30 103t-10.5 106.5t-47.5 91.5t-77.5 65.5t-100.5 30.5t-105 -12t-88.5 -50t-63 -80.5t-29.5 -102.5z" />
<glyph unicode="&#xf9;" horiz-adv-x="1241" d="M115 496v385q0 23 8.5 44.5t25 38t38 26.5t47.5 10t48 -9t38.5 -25.5t26 -38.5t9.5 -46v-384q0 -56 19 -106t53 -87t80 -58.5t101 -21.5q54 0 104.5 22.5t89 60.5t61 87.5t22.5 104.5l88 -317q-36 -42 -81.5 -77t-97.5 -60.5t-107 -39.5t-109 -14q-104 0 -190 40 t-147 108t-94 160t-33 197zM431 1252q-5 23 1 44t19 37.5t32 26t43 9.5q27 0 59.5 -21t61.5 -49t48.5 -56.5t20.5 -44.5q3 -20 -1 -35q-7 -34 -40 -48q-24 -11 -48 -8q-19 0 -50.5 15.5t-63 38t-55 47.5t-27.5 44zM886 309v572q0 26 9.5 47t26 37.5t38.5 25.5t47 9 q26 0 47.5 -9t38 -25.5t25.5 -38t9 -46.5v-826q0 -66 -65 -65q-37 0 -65 26t-42 93l-44 187z" />
<glyph unicode="&#xfa;" horiz-adv-x="1241" d="M115 496v385q0 23 8.5 44.5t25 38t38 26.5t47.5 10t48 -9t38.5 -25.5t26 -38.5t9.5 -46v-384q0 -56 19 -106t53 -87t80 -58.5t101 -21.5q54 0 104.5 22.5t89 60.5t61 87.5t22.5 104.5l88 -317q-36 -42 -81.5 -77t-97.5 -60.5t-107 -39.5t-109 -14q-104 0 -190 40 t-147 108t-94 160t-33 197zM527 1180q0 9 2 18q0 15 20 44t48 57t60.5 49t59.5 21q24 0 43.5 -9.5t32.5 -26t19 -37.5t2 -44q-4 -19 -28.5 -44t-55 -47.5t-62.5 -38t-50 -15.5q-25 -3 -49 8q-33 14 -40 48q-2 8 -2 17zM886 309v572q0 26 9.5 47t26 37.5t38.5 25.5t47 9 q26 0 47.5 -9t38 -25.5t25.5 -38t9 -46.5v-826q0 -66 -65 -65q-37 0 -65 26t-42 93l-44 187z" />
<glyph unicode="&#xfb;" horiz-adv-x="1241" d="M115 496v385q0 23 8.5 44.5t25 38t38 26.5t47.5 10t48 -9t38.5 -25.5t26 -38.5t9.5 -46v-384q0 -56 19 -106t53 -87t80 -58.5t101 -21.5q54 0 104.5 22.5t89 60.5t61 87.5t22.5 104.5l88 -317q-36 -42 -81.5 -77t-97.5 -60.5t-107 -39.5t-109 -14q-104 0 -190 40 t-147 108t-94 160t-33 197zM353.5 1171q-4.5 18 0 36t15.5 35t24 31l157 154q24 24 53.5 25.5t53.5 -16.5l180 -175q26 -27 29 -61.5t-22 -61.5q-27 -27 -63 -21t-67 36l-106 106l-104 -106q-31 -31 -67.5 -37t-63.5 22q-15 15 -19.5 33zM886 309v572q0 26 9.5 47t26 37.5 t38.5 25.5t47 9q26 0 47.5 -9t38 -25.5t25.5 -38t9 -46.5v-826q0 -66 -65 -65q-37 0 -65 26t-42 93l-44 187z" />
<glyph unicode="&#xfc;" horiz-adv-x="1241" d="M115 496v385q0 23 8.5 44.5t25 38t38 26.5t47.5 10t48 -9t38.5 -25.5t26 -38.5t9.5 -46v-384q0 -56 19 -106t53 -87t80 -58.5t101 -21.5q54 0 104.5 22.5t89 60.5t61 87.5t22.5 104.5l88 -317q-36 -42 -81.5 -77t-97.5 -60.5t-107 -39.5t-109 -14q-104 0 -190 40 t-147 108t-94 160t-33 197zM328 1237q0 23 9 42.5t23 35t34 24t44 8.5q23 0 42.5 -8.5t35 -24t24 -35.5t8.5 -42q0 -24 -8.5 -44t-24 -34.5t-35.5 -23t-42 -8.5q-24 0 -44 8.5t-34 23t-23 34.5t-9 44zM669 1237q0 23 9 42.5t23 35t34 24t43 8.5t43 -8.5t35 -24t23.5 -35.5 t8.5 -42q0 -24 -8.5 -44t-23.5 -34.5t-35.5 -23t-42.5 -8.5q-23 0 -43 8.5t-34 23t-23 34.5t-9 44zM886 309v572q0 26 9.5 47t26 37.5t38.5 25.5t47 9q26 0 47.5 -9t38 -25.5t25.5 -38t9 -46.5v-826q0 -66 -65 -65q-37 0 -65 26t-42 93l-44 187z" />
<glyph unicode="&#xfd;" horiz-adv-x="1034" d="M48.5 923q12.5 48 62.5 71q23 10 48 12t48.5 -7t42.5 -27.5t30 -45.5l241 -617q55 141 99 253t74.5 192t48 125.5t21.5 54.5q9 22 26.5 38.5t39 25.5t46.5 9t52 -13q13 -6 29.5 -20.5t26.5 -34.5t11.5 -48t-13.5 -61l-408 -915q-23 -51 -51.5 -91.5t-67.5 -69t-89.5 -45 t-114.5 -18.5q-59 -1 -97.5 29.5t-38.5 89.5q0 29 11.5 45.5t31 27.5t44 18t49.5 15t49.5 20t41.5 32l53 118q0 1 -14.5 33t-38.5 84t-54 118t-62 136l-168 368q-22 50 -9.5 98zM433 1139q0 9 2 18q0 15 20 44t48 57t60.5 49t59.5 21q24 0 43.5 -9.5t32.5 -26t19 -37.5 t2 -44q-4 -19 -28.5 -44t-55 -47.5t-62.5 -38t-50 -15.5q-25 -3 -49 8q-33 14 -40 48q-2 8 -2 17z" />
<glyph unicode="&#xfe;" horiz-adv-x="1199" d="M127 -95v1220q0 33 6.5 67.5t21.5 62.5t37.5 46t54.5 18t54.5 -17.5t36.5 -44t21 -59.5t7 -64v-296q10 26 39 54.5t69.5 52t89.5 39t101 15.5q104 0 190.5 -39.5t149.5 -108.5t98 -160.5t35 -195.5t-35 -196.5t-98 -161t-149.5 -108.5t-190.5 -40q-48 0 -93.5 11.5 t-84 31t-69.5 45.5t-50 55v-241q0 -32 -7 -64t-21.5 -58t-37.5 -43t-55 -17q-33 0 -55.5 18t-37 46.5t-21 63t-6.5 68.5zM371 495q0 -56 22 -106t59 -87t87 -58.5t105 -21.5t101.5 21.5t79.5 58.5t51 87t18 106q0 55 -18 104.5t-51 86.5t-79.5 58.5t-101.5 21.5 q-54 0 -104 -22t-87 -59.5t-59.5 -86.5t-22.5 -103z" />
<glyph unicode="&#xff;" horiz-adv-x="1034" d="M48.5 923q12.5 48 62.5 71q23 10 48 12t48.5 -7t42.5 -27.5t30 -45.5l241 -617q55 141 99 253t74.5 192t48 125.5t21.5 54.5q9 22 26.5 38.5t39 25.5t46.5 9t52 -13q13 -6 29.5 -20.5t26.5 -34.5t11.5 -48t-13.5 -61l-408 -915q-23 -51 -51.5 -91.5t-67.5 -69t-89.5 -45 t-114.5 -18.5q-59 -1 -97.5 29.5t-38.5 89.5q0 29 11.5 45.5t31 27.5t44 18t49.5 15t49.5 20t41.5 32l53 118q0 1 -14.5 33t-38.5 84t-54 118t-62 136l-168 368q-22 50 -9.5 98zM251 1173q0 23 9 42.5t23 35t34 24t44 8.5q23 0 42.5 -8.5t35 -24t24 -35.5t8.5 -42 q0 -24 -8.5 -44t-24 -34.5t-35.5 -23t-42 -8.5q-24 0 -44 8.5t-34 23t-23 34.5t-9 44zM592 1173q0 23 9 42.5t23 35t34 24t43 8.5t43 -8.5t35 -24t23.5 -35.5t8.5 -42q0 -24 -8.5 -44t-23.5 -34.5t-35.5 -23t-42.5 -8.5q-23 0 -43 8.5t-34 23t-23 34.5t-9 44z" />
<glyph unicode="&#x100;" horiz-adv-x="1178" d="M37 78.5q-6 26.5 1 56.5q8 26 17.5 50t18.5 48l382 956q5 13 6.5 26.5t3.5 26.5q3 13 9 25t18.5 20.5t33.5 14t54 5.5q27 0 47 -11.5t36 -29.5t27.5 -40.5t22.5 -45.5l410 -1025q5 -11 7.5 -24t2.5 -25q0 -27 -13 -50.5t-37 -38.5q-23 -19 -50.5 -24.5t-54.5 2t-49.5 27 t-33.5 50.5l-74 184h-477l-76 -185q-19 -46 -51 -66t-73 -17q-27 1 -49 12.5t-37.5 31.5t-21.5 46.5zM208 1491q0 36 24 61t58 25h557q35 0 59 -25.5t24 -60.5q0 -34 -24.5 -59.5t-58.5 -25.5h-557q-34 0 -58 25.5t-24 59.5zM397 450h373l-186 476z" />
<glyph unicode="&#x101;" horiz-adv-x="1202" d="M66 495q0 104 39.5 195.5t109 160.5t161 108.5t195.5 39.5t187 -39.5t140 -108.5t87.5 -160.5t30.5 -195.5t-30.5 -196.5t-87.5 -161t-139.5 -108.5t-187.5 -40q-104 0 -195.5 40t-161 108.5t-109 160.5t-39.5 197zM227 1181q0 36 24 61t58 25h557q35 0 59 -25.5 t24 -60.5q0 -34 -24.5 -59.5t-58.5 -25.5h-557q-34 0 -58 25.5t-24 59.5zM309 495q0 -56 20 -106t55.5 -87t83.5 -58.5t103 -21.5t103 21.5t83.5 58.5t56 87t20.5 106q0 55 -20.5 104.5t-56 86.5t-83 58.5t-103.5 21.5q-55 0 -103 -21.5t-83.5 -58.5t-55.5 -86.5t-20 -104.5 zM836 257v236q0 26 9.5 47t26 37.5t38.5 25.5t46 9q26 0 48 -9t38.5 -25.5t25.5 -38t9 -46.5v-426q0 -38 -19.5 -58t-55.5 -20q-38 0 -62 22t-35 58l-44 175zM836 463v268l25 14l44 136q12 65 40.5 91.5t66.5 26.5q66 0 65 -65v-471q0 -26 -9 -48t-25.5 -38.5t-38.5 -25.5 t-48 -9q-25 0 -46.5 9t-38 25.5t-26 38.5t-9.5 48z" />
<glyph unicode="&#x102;" horiz-adv-x="1178" d="M37 78.5q-6 26.5 1 56.5q8 26 17.5 50t18.5 48l382 956q5 13 6.5 26.5t3.5 26.5q3 13 9 25t18.5 20.5t33.5 14t54 5.5q27 0 47 -11.5t36 -29.5t27.5 -40.5t22.5 -45.5l410 -1025q5 -11 7.5 -24t2.5 -25q0 -27 -13 -50.5t-37 -38.5q-23 -19 -50.5 -24.5t-54.5 2t-49.5 27 t-33.5 50.5l-74 184h-477l-76 -185q-19 -46 -51 -66t-73 -17q-27 1 -49 12.5t-37.5 31.5t-21.5 46.5zM359 1616q0 34 24 58.5t58 24.5q24 0 36 -9.5t18.5 -24.5t10 -32.5t10.5 -32.5t21 -24.5t42 -9.5q27 0 41 9.5t21.5 24.5t11 32.5t10 32.5t18.5 24.5t36 9.5q35 0 58 -24 t23 -58q0 -42 -18 -79t-48.5 -64t-69.5 -43t-83 -16t-84 16t-70 43.5t-48 64t-18 77.5zM397 450h373l-186 476z" />
<glyph unicode="&#x103;" horiz-adv-x="1202" d="M66 495q0 104 39.5 195.5t109 160.5t161 108.5t195.5 39.5t187 -39.5t140 -108.5t87.5 -160.5t30.5 -195.5t-30.5 -196.5t-87.5 -161t-139.5 -108.5t-187.5 -40q-104 0 -195.5 40t-161 108.5t-109 160.5t-39.5 197zM309 495q0 -56 20 -106t55.5 -87t83.5 -58.5t103 -21.5 t103 21.5t83.5 58.5t56 87t20.5 106q0 55 -20.5 104.5t-56 86.5t-83 58.5t-103.5 21.5q-55 0 -103 -21.5t-83.5 -58.5t-55.5 -86.5t-20 -104.5zM368 1327q0 34 24 58.5t58 24.5q24 0 36 -9.5t18.5 -24.5t10 -32.5t10.5 -32.5t21 -24.5t42 -9.5q27 0 41 9.5t21.5 24.5 t11 32.5t10 32.5t18.5 24.5t36 9.5q35 0 58 -24t23 -58q0 -42 -18 -79t-48.5 -64t-69.5 -43t-83 -16t-84 16t-70 43.5t-48 64t-18 77.5zM836 257v236q0 26 9.5 47t26 37.5t38.5 25.5t46 9q26 0 48 -9t38.5 -25.5t25.5 -38t9 -46.5v-426q0 -38 -19.5 -58t-55.5 -20 q-38 0 -62 22t-35 58l-44 175zM836 463v268l25 14l44 136q12 65 40.5 91.5t66.5 26.5q66 0 65 -65v-471q0 -26 -9 -48t-25.5 -38.5t-38.5 -25.5t-48 -9q-25 0 -46.5 9t-38 25.5t-26 38.5t-9.5 48z" />
<glyph unicode="&#x104;" horiz-adv-x="1178" d="M37 78.5q-6 26.5 1 56.5q8 26 17.5 50t18.5 48l382 956q5 13 6.5 26.5t3.5 26.5q3 13 9 25t18.5 20.5t33.5 14t54 5.5q27 0 47 -11.5t36 -29.5t27.5 -40.5t22.5 -45.5l410 -1025q5 -11 7.5 -24t2.5 -25q0 -27 -13 -50.5t-37 -38.5q-23 -19 -50.5 -24.5t-54.5 2t-49.5 27 t-33.5 50.5l-74 184h-477l-76 -185q-19 -46 -51 -66t-73 -17q-27 1 -49 12.5t-37.5 31.5t-21.5 46.5zM397 450h373l-186 476zM794 -149q0 34 13 63t39.5 59.5t66 65t89.5 79.5q14 13 30.5 15t32.5 -3.5t27.5 -18.5t17 -29t1.5 -32.5t-19 -31.5l-66 -58q-18 -18 -33.5 -31.5 t-26.5 -25.5t-17 -23.5t-6 -25.5q0 -19 11.5 -34t36.5 -15q16 0 25 7.5t14.5 19.5t10 26t12 25.5t20.5 20t35 8.5q24 0 44.5 -17t20.5 -44q0 -41 -14.5 -74.5t-40 -59t-60 -39.5t-73.5 -14q-41 0 -75.5 14t-60.5 39.5t-40.5 59t-14.5 74.5z" />
<glyph unicode="&#x105;" horiz-adv-x="1202" d="M66 495q0 104 39.5 195.5t109 160.5t161 108.5t195.5 39.5t187 -39.5t140 -108.5t87.5 -160.5t30.5 -195.5t-30.5 -196.5t-87.5 -161t-139.5 -108.5t-187.5 -40q-104 0 -195.5 40t-161 108.5t-109 160.5t-39.5 197zM309 495q0 -56 20 -106t55.5 -87t83.5 -58.5t103 -21.5 t103 21.5t83.5 58.5t56 87t20.5 106q0 55 -20.5 104.5t-56 86.5t-83 58.5t-103.5 21.5q-55 0 -103 -21.5t-83.5 -58.5t-55.5 -86.5t-20 -104.5zM744 -176q0 35 13.5 65.5t41 62t68.5 67.5t93 82q14 14 31.5 16t34 -4t28.5 -19.5t17.5 -30t1.5 -33.5t-20 -33l-68 -60 q-19 -18 -35 -32t-27.5 -26.5t-17.5 -24.5t-6 -27q0 -20 12 -35.5t37 -15.5q17 0 26.5 8t15 20.5t10.5 27t12.5 26.5t21 20.5t36.5 8.5q25 0 46.5 -17.5t21.5 -45.5q0 -42 -15.5 -77t-42 -61.5t-62 -41t-76.5 -14.5q-42 0 -78 14.5t-63 41t-42 61.5t-15 77zM836 257v236 q0 26 9.5 47t26 37.5t38.5 25.5t46 9q26 0 48 -9t38.5 -25.5t25.5 -38t9 -46.5v-426q0 -38 -19.5 -58t-55.5 -20q-38 0 -62 22t-35 58l-44 175zM836 463v268l25 14l44 136q12 65 40.5 91.5t66.5 26.5q66 0 65 -65v-471q0 -26 -9 -48t-25.5 -38.5t-38.5 -25.5t-48 -9 q-25 0 -46.5 9t-38 25.5t-26 38.5t-9.5 48z" />
<glyph unicode="&#x106;" d="M62 647q0 90 24 174t67 157.5t102.5 133t133 102.5t157.5 67t175 24q71 0 134 -11t119.5 -35t109.5 -63t104 -94q34 -37 36 -87q1 -23 -9 -46.5t-30 -40.5q-14 -13 -32.5 -21.5t-39.5 -9.5t-44 7t-46 26q-61 62 -135 99t-167 37q-86 0 -162.5 -33.5t-132.5 -91t-89 -134 t-33 -162.5t33 -162t89.5 -133.5t132.5 -91t162 -33.5q55 0 100.5 13t85.5 35.5t76 51.5t73 62q14 9 32 15t36.5 6t36 -5.5t32.5 -17.5q23 -14 36 -37.5t13 -51.5q0 -24 -8.5 -46.5t-28.5 -41.5q-51 -57 -102.5 -98.5t-109.5 -68.5t-124.5 -39.5t-147.5 -12.5 q-136 0 -256 51.5t-209.5 141t-141.5 209.5t-52 256zM616 1482q0 9 2 18q0 15 20 44t48 57t60.5 49t59.5 21q24 0 43.5 -9.5t32.5 -26t19 -37.5t2 -44q-4 -19 -28.5 -44t-55 -47.5t-62.5 -38t-50 -15.5q-25 -3 -49 8q-33 14 -40 48q-2 8 -2 17z" />
<glyph unicode="&#x107;" horiz-adv-x="1032" d="M62 495q0 104 40 195.5t109 160.5t160.5 108.5t195.5 39.5q51 0 102.5 -9t99 -27t88.5 -43.5t71 -59.5q39 -42 39 -86q0 -25 -10.5 -46.5t-28 -36.5t-41 -21.5t-48.5 -1.5q-52 26 -105.5 50.5t-115.5 36.5q-58 7 -114.5 -7.5t-100.5 -48t-70.5 -85.5t-26.5 -119 q0 -66 25 -117.5t68 -86t99.5 -50t119.5 -7.5q49 5 96 25t83 52q24 12 53 15.5t55 -8.5q29 -11 46.5 -38t17.5 -63q0 -41 -32 -82t-86.5 -73t-128 -52.5t-155.5 -20.5q-104 0 -195.5 40t-160.5 108.5t-109 160.5t-40 197zM470 1207q0 9 2 18q0 15 20 44t48 57t60.5 49 t59.5 21q24 0 43.5 -9.5t32.5 -26t19 -37.5t2 -44q-4 -19 -28.5 -44t-55 -47.5t-62.5 -38t-50 -15.5q-25 -3 -49 8q-33 14 -40 48q-2 8 -2 17z" />
<glyph unicode="&#x108;" d="M62 647q0 90 24 174t67 157.5t102.5 133t133 102.5t157.5 67t175 24q71 0 134 -11t119.5 -35t109.5 -63t104 -94q34 -37 36 -87q1 -23 -9 -46.5t-30 -40.5q-14 -13 -32.5 -21.5t-39.5 -9.5t-44 7t-46 26q-61 62 -135 99t-167 37q-86 0 -162.5 -33.5t-132.5 -91t-89 -134 t-33 -162.5t33 -162t89.5 -133.5t132.5 -91t162 -33.5q55 0 100.5 13t85.5 35.5t76 51.5t73 62q14 9 32 15t36.5 6t36 -5.5t32.5 -17.5q23 -14 36 -37.5t13 -51.5q0 -24 -8.5 -46.5t-28.5 -41.5q-51 -57 -102.5 -98.5t-109.5 -68.5t-124.5 -39.5t-147.5 -12.5 q-136 0 -256 51.5t-209.5 141t-141.5 209.5t-52 256zM459.5 1444q-4.5 18 0 36t15.5 35t24 31l157 154q24 24 53.5 25.5t53.5 -16.5l180 -175q26 -27 29 -61.5t-22 -61.5q-27 -27 -63 -21t-67 36l-106 106l-104 -106q-31 -31 -67.5 -37t-63.5 22q-15 15 -19.5 33z" />
<glyph unicode="&#x109;" horiz-adv-x="1032" d="M62 495q0 104 40 195.5t109 160.5t160.5 108.5t195.5 39.5q51 0 102.5 -9t99 -27t88.5 -43.5t71 -59.5q39 -42 39 -86q0 -25 -10.5 -46.5t-28 -36.5t-41 -21.5t-48.5 -1.5q-52 26 -105.5 50.5t-115.5 36.5q-58 7 -114.5 -7.5t-100.5 -48t-70.5 -85.5t-26.5 -119 q0 -66 25 -117.5t68 -86t99.5 -50t119.5 -7.5q49 5 96 25t83 52q24 12 53 15.5t55 -8.5q29 -11 46.5 -38t17.5 -63q0 -41 -32 -82t-86.5 -73t-128 -52.5t-155.5 -20.5q-104 0 -195.5 40t-160.5 108.5t-109 160.5t-40 197zM308.5 1136q-4.5 18 0 36t15.5 35t24 31l157 154 q24 24 53.5 25.5t53.5 -16.5l180 -175q26 -27 29 -61.5t-22 -61.5q-27 -27 -63 -21t-67 36l-106 106l-104 -106q-31 -31 -67.5 -37t-63.5 22q-15 15 -19.5 33z" />
<glyph unicode="&#x10a;" d="M62 647q0 90 24 174t67 157.5t102.5 133t133 102.5t157.5 67t175 24q71 0 134 -11t119.5 -35t109.5 -63t104 -94q34 -37 36 -87q1 -23 -9 -46.5t-30 -40.5q-14 -13 -32.5 -21.5t-39.5 -9.5t-44 7t-46 26q-61 62 -135 99t-167 37q-86 0 -162.5 -33.5t-132.5 -91t-89 -134 t-33 -162.5t33 -162t89.5 -133.5t132.5 -91t162 -33.5q55 0 100.5 13t85.5 35.5t76 51.5t73 62q14 9 32 15t36.5 6t36 -5.5t32.5 -17.5q23 -14 36 -37.5t13 -51.5q0 -24 -8.5 -46.5t-28.5 -41.5q-51 -57 -102.5 -98.5t-109.5 -68.5t-124.5 -39.5t-147.5 -12.5 q-136 0 -256 51.5t-209.5 141t-141.5 209.5t-52 256zM578 1530q0 28 10 51t27.5 40.5t40.5 27t50 9.5t50.5 -9.5t41.5 -27t28 -40.5t10 -51t-10 -51t-28 -39.5t-41.5 -26t-50.5 -9.5q-28 0 -50.5 9.5t-40 26t-27.5 39.5t-10 51z" />
<glyph unicode="&#x10b;" horiz-adv-x="1032" d="M62 495q0 104 40 195.5t109 160.5t160.5 108.5t195.5 39.5q51 0 102.5 -9t99 -27t88.5 -43.5t71 -59.5q39 -42 39 -86q0 -25 -10.5 -46.5t-28 -36.5t-41 -21.5t-48.5 -1.5q-52 26 -105.5 50.5t-115.5 36.5q-58 7 -114.5 -7.5t-100.5 -48t-70.5 -85.5t-26.5 -119 q0 -66 25 -117.5t68 -86t99.5 -50t119.5 -7.5q49 5 96 25t83 52q24 12 53 15.5t55 -8.5q29 -11 46.5 -38t17.5 -63q0 -41 -32 -82t-86.5 -73t-128 -52.5t-155.5 -20.5q-104 0 -195.5 40t-160.5 108.5t-109 160.5t-40 197zM432 1249q0 28 10 51t27.5 40.5t40.5 27t50 9.5 t50.5 -9.5t41.5 -27t28 -40.5t10 -51t-10 -51t-28 -39.5t-41.5 -26t-50.5 -9.5q-28 0 -50.5 9.5t-40 26t-27.5 39.5t-10 51z" />
<glyph unicode="&#x10c;" d="M62 647q0 90 24 174t67 157.5t102.5 133t133 102.5t157.5 67t175 24q71 0 134 -11t119.5 -35t109.5 -63t104 -94q34 -37 36 -87q1 -23 -9 -46.5t-30 -40.5q-14 -13 -32.5 -21.5t-39.5 -9.5t-44 7t-46 26q-61 62 -135 99t-167 37q-86 0 -162.5 -33.5t-132.5 -91t-89 -134 t-33 -162.5t33 -162t89.5 -133.5t132.5 -91t162 -33.5q55 0 100.5 13t85.5 35.5t76 51.5t73 62q14 9 32 15t36.5 6t36 -5.5t32.5 -17.5q23 -14 36 -37.5t13 -51.5q0 -24 -8.5 -46.5t-28.5 -41.5q-51 -57 -102.5 -98.5t-109.5 -68.5t-124.5 -39.5t-147.5 -12.5 q-136 0 -256 51.5t-209.5 141t-141.5 209.5t-52 256zM452 1678q4 18 20 34q29 28 64.5 21.5t67.5 -37.5l103 -105l107 105q31 31 67 36.5t63 -20.5q26 -27 22 -62t-30 -61l-180 -175q-24 -18 -53 -16.5t-53 25.5l-158 153q-13 13 -24 31t-15.5 35.5t-0.5 35.5z" />
<glyph unicode="&#x10d;" horiz-adv-x="1032" d="M62 495q0 104 40 195.5t109 160.5t160.5 108.5t195.5 39.5q51 0 102.5 -9t99 -27t88.5 -43.5t71 -59.5q39 -42 39 -86q0 -25 -10.5 -46.5t-28 -36.5t-41 -21.5t-48.5 -1.5q-52 26 -105.5 50.5t-115.5 36.5q-58 7 -114.5 -7.5t-100.5 -48t-70.5 -85.5t-26.5 -119 q0 -66 25 -117.5t68 -86t99.5 -50t119.5 -7.5q49 5 96 25t83 52q24 12 53 15.5t55 -8.5q29 -11 46.5 -38t17.5 -63q0 -41 -32 -82t-86.5 -73t-128 -52.5t-155.5 -20.5q-104 0 -195.5 40t-160.5 108.5t-109 160.5t-40 197zM303 1369q4 18 20 34q29 28 64.5 21.5t67.5 -37.5 l103 -105l107 105q31 31 67 36.5t63 -20.5q26 -27 22 -62t-30 -61l-180 -175q-24 -18 -53 -16.5t-53 25.5l-158 153q-13 13 -24 31t-15.5 35.5t-0.5 35.5z" />
<glyph unicode="&#x10e;" horiz-adv-x="1295" d="M125 1257q0 11 3.5 20.5t13 15.5t25.5 10t42 4h364q90 0 174 -23.5t157.5 -66.5t134 -103.5t104 -134t67 -157.5t23.5 -174q0 -91 -23.5 -175t-67 -157t-104 -133t-134 -103t-157 -66.5t-174.5 -23.5h-317q-45 0 -77.5 27t-40.5 68q-2 6 -2 12v14v1068q-1 20 -6 40t-5 38 zM216 1691q4 18 20 34q29 28 64.5 21.5t67.5 -37.5l103 -105l107 105q31 31 67 36.5t63 -20.5q26 -27 22 -62t-30 -61l-180 -175q-24 -18 -53 -16.5t-53 25.5l-158 153q-13 13 -24 31t-15.5 35.5t-0.5 35.5zM377 227h196q86 2 162 35t133 89t90 132t33 165q0 92 -33 170.5 t-90 136t-133 90t-162 33.5h-196v-851z" />
<glyph unicode="&#x10f;" horiz-adv-x="1199" d="M62 495q0 104 37 195.5t101.5 160.5t153 108.5t193.5 39.5q87 0 169 -39.5t145 -108.5t100.5 -160.5t37.5 -195.5t-31.5 -196.5t-90.5 -161t-142.5 -108.5t-187.5 -40t-193 40t-153.5 108.5t-101.5 160.5t-37 197zM253 1390q4 18 20 34q29 28 64.5 21.5t67.5 -37.5 l103 -105l107 105q31 31 67 36.5t63 -20.5q26 -27 22 -62t-30 -61l-180 -175q-24 -18 -53 -16.5t-53 25.5l-158 153q-13 13 -24 31t-15.5 35.5t-0.5 35.5zM306 495q0 -56 20 -106t55.5 -87t83.5 -58.5t103 -21.5t103.5 21.5t84.5 58.5t56.5 87t20.5 106q0 55 -20.5 104.5 t-56.5 86.5t-84 58.5t-104 21.5q-55 0 -103 -21.5t-83.5 -58.5t-55.5 -86.5t-20 -104.5zM833 257v944q0 26 9.5 48t26 38.5t38.5 25.5t46 9q26 0 48 -9t38.5 -25.5t25.5 -38.5t9 -48v-1147q0 -66 -66 -65q-37 0 -66 27.5t-40 91.5l-44 136z" />
<glyph unicode="&#x110;" horiz-adv-x="1334" d="M10 655q0 36 24 61t58 25h557q35 0 59 -25.5t24 -60.5q0 -34 -24.5 -59.5t-58.5 -25.5h-557q-34 0 -58 25.5t-24 59.5zM163 1257q0 11 3.5 20.5t13 15.5t25.5 10t42 4h364q90 0 174 -23.5t157.5 -66.5t134 -103.5t104 -134t67 -157.5t23.5 -174q0 -91 -23.5 -175 t-67 -157t-104 -133t-134 -103t-157 -66.5t-174.5 -23.5h-317q-45 0 -77.5 27t-40.5 68q-2 6 -2 12v14v1068q-1 20 -6 40t-5 38zM415 227h196q86 2 162 35t133 89t90 132t33 165q0 92 -33 170.5t-90 136t-133 90t-162 33.5h-196v-851z" />
<glyph unicode="&#x111;" horiz-adv-x="1199" d="M62 495q0 104 37 195.5t101.5 160.5t153 108.5t193.5 39.5q87 0 169 -39.5t145 -108.5t100.5 -160.5t37.5 -195.5t-31.5 -196.5t-90.5 -161t-142.5 -108.5t-187.5 -40t-193 40t-153.5 108.5t-101.5 160.5t-37 197zM306 495q0 -56 20 -106t55.5 -87t83.5 -58.5t103 -21.5 t103.5 21.5t84.5 58.5t56.5 87t20.5 106q0 55 -20.5 104.5t-56.5 86.5t-84 58.5t-104 21.5q-55 0 -103 -21.5t-83.5 -58.5t-55.5 -86.5t-20 -104.5zM594 1128q0 36 24 61t58 25h557q35 0 59 -25.5t24 -60.5q0 -34 -24.5 -59.5t-58.5 -25.5h-557q-34 0 -58 25.5t-24 59.5z M833 257v944q0 26 9.5 48t26 38.5t38.5 25.5t46 9q26 0 48 -9t38.5 -25.5t25.5 -38.5t9 -48v-1147q0 -66 -66 -65q-37 0 -66 27.5t-40 91.5l-44 136z" />
<glyph unicode="&#x112;" horiz-adv-x="1134" d="M125 1256q0 23 15.5 37t61.5 14h762q40 0 67 -17t40.5 -42.5t13.5 -56t-13 -56t-39.5 -42.5t-67.5 -17h-587v-315h456q28 0 52 -13t40 -33.5t21.5 -47t-4.5 -55.5q-12 -36 -41 -55.5t-67 -19.5h-457v-306h580q27 0 51 -8t42 -23.5t28.5 -37.5t10.5 -51q0 -27 -10.5 -49.5 t-28 -38.5t-41 -24.5t-49.5 -8.5h-688q-65 0 -100.5 38.5t-35.5 101.5v1041q-1 20 -6.5 42.5t-5.5 42.5zM196 1479q0 36 24 61t58 25h557q35 0 59 -25.5t24 -60.5q0 -34 -24.5 -59.5t-58.5 -25.5h-557q-34 0 -58 25.5t-24 59.5z" />
<glyph unicode="&#x113;" horiz-adv-x="1137" d="M62 495q0 111 41 203.5t112 159.5t164 104.5t198 37.5q104 0 194.5 -36.5t158 -102t106.5 -156t39 -195.5q0 -51 -26.5 -68.5t-91.5 -17.5h-647q4 -47 26 -89.5t57 -75t80 -52t96 -19.5q49 0 95.5 17t83.5 49q22 12 51 13t57 -9t47.5 -33t19.5 -58q0 -40 -33 -73t-84 -56 t-115 -35.5t-123 -12.5q-104 0 -195.5 40t-161 108t-109.5 160t-40 197zM203 1166q0 36 24 61t58 25h557q35 0 59 -25.5t24 -60.5q0 -34 -24.5 -59.5t-58.5 -25.5h-557q-34 0 -58 25.5t-24 59.5zM308 575h523q-4 49 -26 91t-56 72.5t-78.5 48t-93.5 17.5q-50 0 -96.5 -17.5 t-82.5 -48t-60 -72t-30 -91.5z" />
<glyph unicode="&#x114;" horiz-adv-x="1134" d="M125 1256q0 23 15.5 37t61.5 14h762q40 0 67 -17t40.5 -42.5t13.5 -56t-13 -56t-39.5 -42.5t-67.5 -17h-587v-315h456q28 0 52 -13t40 -33.5t21.5 -47t-4.5 -55.5q-12 -36 -41 -55.5t-67 -19.5h-457v-306h580q27 0 51 -8t42 -23.5t28.5 -37.5t10.5 -51q0 -27 -10.5 -49.5 t-28 -38.5t-41 -24.5t-49.5 -8.5h-688q-65 0 -100.5 38.5t-35.5 101.5v1041q-1 20 -6.5 42.5t-5.5 42.5zM336 1628q0 34 24 58.5t58 24.5q24 0 36 -9.5t18.5 -24.5t10 -32.5t10.5 -32.5t21 -24.5t42 -9.5q27 0 41 9.5t21.5 24.5t11 32.5t10 32.5t18.5 24.5t36 9.5 q35 0 58 -24t23 -58q0 -42 -18 -79t-48.5 -64t-69.5 -43t-83 -16t-84 16t-70 43.5t-48 64t-18 77.5z" />
<glyph unicode="&#x115;" horiz-adv-x="1137" d="M62 495q0 111 41 203.5t112 159.5t164 104.5t198 37.5q104 0 194.5 -36.5t158 -102t106.5 -156t39 -195.5q0 -51 -26.5 -68.5t-91.5 -17.5h-647q4 -47 26 -89.5t57 -75t80 -52t96 -19.5q49 0 95.5 17t83.5 49q22 12 51 13t57 -9t47.5 -33t19.5 -58q0 -40 -33 -73t-84 -56 t-115 -35.5t-123 -12.5q-104 0 -195.5 40t-161 108t-109.5 160t-40 197zM308 575h523q-4 49 -26 91t-56 72.5t-78.5 48t-93.5 17.5q-50 0 -96.5 -17.5t-82.5 -48t-60 -72t-30 -91.5zM368 1311q0 34 24 58.5t58 24.5q24 0 36 -9.5t18.5 -24.5t10 -32.5t10.5 -32.5t21 -24.5 t42 -9.5q27 0 41 9.5t21.5 24.5t11 32.5t10 32.5t18.5 24.5t36 9.5q35 0 58 -24t23 -58q0 -42 -18 -79t-48.5 -64t-69.5 -43t-83 -16t-84 16t-70 43.5t-48 64t-18 77.5z" />
<glyph unicode="&#x116;" horiz-adv-x="1134" d="M125 1256q0 23 15.5 37t61.5 14h762q40 0 67 -17t40.5 -42.5t13.5 -56t-13 -56t-39.5 -42.5t-67.5 -17h-587v-315h456q28 0 52 -13t40 -33.5t21.5 -47t-4.5 -55.5q-12 -36 -41 -55.5t-67 -19.5h-457v-306h580q27 0 51 -8t42 -23.5t28.5 -37.5t10.5 -51q0 -27 -10.5 -49.5 t-28 -38.5t-41 -24.5t-49.5 -8.5h-688q-65 0 -100.5 38.5t-35.5 101.5v1041q-1 20 -6.5 42.5t-5.5 42.5zM436 1554q0 28 10 51t27.5 40.5t40.5 27t50 9.5t50.5 -9.5t41.5 -27t28 -40.5t10 -51t-10 -51t-28 -39.5t-41.5 -26t-50.5 -9.5q-28 0 -50.5 9.5t-40 26t-27.5 39.5 t-10 51z" />
<glyph unicode="&#x117;" horiz-adv-x="1137" d="M62 495q0 111 41 203.5t112 159.5t164 104.5t198 37.5q104 0 194.5 -36.5t158 -102t106.5 -156t39 -195.5q0 -51 -26.5 -68.5t-91.5 -17.5h-647q4 -47 26 -89.5t57 -75t80 -52t96 -19.5q49 0 95.5 17t83.5 49q22 12 51 13t57 -9t47.5 -33t19.5 -58q0 -40 -33 -73t-84 -56 t-115 -35.5t-123 -12.5q-104 0 -195.5 40t-161 108t-109.5 160t-40 197zM308 575h523q-4 49 -26 91t-56 72.5t-78.5 48t-93.5 17.5q-50 0 -96.5 -17.5t-82.5 -48t-60 -72t-30 -91.5zM454 1238q0 28 10 51t27.5 40.5t40.5 27t50 9.5t50.5 -9.5t41.5 -27t28 -40.5t10 -51 t-10 -51t-28 -39.5t-41.5 -26t-50.5 -9.5q-28 0 -50.5 9.5t-40 26t-27.5 39.5t-10 51z" />
<glyph unicode="&#x118;" horiz-adv-x="1134" d="M125 1256q0 23 15.5 37t61.5 14h762q40 0 67 -17t40.5 -42.5t13.5 -56t-13 -56t-39.5 -42.5t-67.5 -17h-587v-315h456q28 0 52 -13t40 -33.5t21.5 -47t-4.5 -55.5q-12 -36 -41 -55.5t-67 -19.5h-457v-306h580q27 0 51 -8t42 -23.5t28.5 -37.5t10.5 -51q0 -27 -10.5 -49.5 t-28 -38.5t-41 -24.5t-49.5 -8.5h-688q-65 0 -100.5 38.5t-35.5 101.5v1041q-1 20 -6.5 42.5t-5.5 42.5zM674 -161q0 35 13.5 65.5t41 62t68.5 67.5t93 82q14 14 31.5 16t34 -4t28.5 -19.5t17.5 -30t1.5 -33.5t-20 -33l-68 -60q-19 -18 -35 -32t-27.5 -26.5t-17.5 -24.5 t-6 -27q0 -20 12 -35.5t37 -15.5q17 0 26.5 8t15 20.5t10.5 27t12.5 26.5t21 20.5t36.5 8.5q25 0 46.5 -17.5t21.5 -45.5q0 -42 -15.5 -77t-42 -61.5t-62 -41t-76.5 -14.5q-42 0 -78 14.5t-63 41t-42 61.5t-15 77z" />
<glyph unicode="&#x119;" horiz-adv-x="1137" d="M62 495q0 111 41 203.5t112 159.5t164 104.5t198 37.5q104 0 194.5 -36.5t158 -102t106.5 -156t39 -195.5q0 -51 -26.5 -68.5t-91.5 -17.5h-647q4 -47 26 -89.5t57 -75t80 -52t96 -19.5q49 0 95.5 17t83.5 49q22 12 51 13t57 -9t47.5 -33t19.5 -58q0 -40 -33 -73t-84 -56 t-115 -35.5t-123 -12.5q-104 0 -195.5 40t-161 108t-109.5 160t-40 197zM308 575h523q-4 49 -26 91t-56 72.5t-78.5 48t-93.5 17.5q-50 0 -96.5 -17.5t-82.5 -48t-60 -72t-30 -91.5zM586 -70q0 35 13.5 65.5t41 62t68.5 67.5t93 82q14 14 31.5 16t34 -4t28.5 -19.5t17.5 -30 t1.5 -33.5t-20 -33l-68 -60q-19 -18 -35 -32t-27.5 -26.5t-17.5 -24.5t-6 -27q0 -20 12 -35.5t37 -15.5q17 0 26.5 8t15 20.5t10.5 27t12.5 26.5t21 20.5t36.5 8.5q25 0 46.5 -17.5t21.5 -45.5q0 -42 -15.5 -77t-42 -61.5t-62 -41t-76.5 -14.5q-42 0 -78 14.5t-63 41 t-42 61.5t-15 77z" />
<glyph unicode="&#x11a;" horiz-adv-x="1134" d="M125 1256q0 23 15.5 37t61.5 14h762q40 0 67 -17t40.5 -42.5t13.5 -56t-13 -56t-39.5 -42.5t-67.5 -17h-587v-315h456q28 0 52 -13t40 -33.5t21.5 -47t-4.5 -55.5q-12 -36 -41 -55.5t-67 -19.5h-457v-306h580q27 0 51 -8t42 -23.5t28.5 -37.5t10.5 -51q0 -27 -10.5 -49.5 t-28 -38.5t-41 -24.5t-49.5 -8.5h-688q-65 0 -100.5 38.5t-35.5 101.5v1041q-1 20 -6.5 42.5t-5.5 42.5zM329 1693q4 18 20 34q29 28 64.5 21.5t67.5 -37.5l103 -105l107 105q31 31 67 36.5t63 -20.5q26 -27 22 -62t-30 -61l-180 -175q-24 -18 -53 -16.5t-53 25.5l-158 153 q-13 13 -24 31t-15.5 35.5t-0.5 35.5z" />
<glyph unicode="&#x11b;" horiz-adv-x="1137" d="M62 495q0 111 41 203.5t112 159.5t164 104.5t198 37.5q104 0 194.5 -36.5t158 -102t106.5 -156t39 -195.5q0 -51 -26.5 -68.5t-91.5 -17.5h-647q4 -47 26 -89.5t57 -75t80 -52t96 -19.5q49 0 95.5 17t83.5 49q22 12 51 13t57 -9t47.5 -33t19.5 -58q0 -40 -33 -73t-84 -56 t-115 -35.5t-123 -12.5q-104 0 -195.5 40t-161 108t-109.5 160t-40 197zM308 575h523q-4 49 -26 91t-56 72.5t-78.5 48t-93.5 17.5q-50 0 -96.5 -17.5t-82.5 -48t-60 -72t-30 -91.5zM315 1368q4 18 20 34q29 28 64.5 21.5t67.5 -37.5l103 -105l107 105q31 31 67 36.5 t63 -20.5q26 -27 22 -62t-30 -61l-180 -175q-24 -18 -53 -16.5t-53 25.5l-158 153q-13 13 -24 31t-15.5 35.5t-0.5 35.5z" />
<glyph unicode="&#x11c;" horiz-adv-x="1354" d="M62 648q0 90 24 174t67 157.5t102.5 133t133 102.5t157.5 67t175 24q80 0 146.5 -14t124.5 -41.5t109.5 -69.5t102.5 -98q16 -18 25.5 -39t9.5 -46q0 -36 -20.5 -64t-50.5 -41q-27 -11 -55.5 -10.5t-54.5 16.5q-42 33 -78 63.5t-74.5 53.5t-82.5 37t-102 14 q-86 0 -162.5 -33.5t-132.5 -91t-89 -134t-33 -162.5q0 -91 32 -168.5t88 -133.5t131.5 -88.5t163.5 -32.5q49 0 97 20t89 54t70.5 78t41.5 93q35 28 66.5 33.5t55.5 -4t39 -31t17 -48t-10.5 -54.5t-41.5 -52q-16 -45 -52.5 -101t-91.5 -105.5t-127 -82.5t-159 -33 q-136 0 -255 51.5t-206.5 141t-138.5 209.5t-51 256zM461.5 1452q-4.5 18 0 36t15.5 35t24 31l157 154q24 24 53.5 25.5t53.5 -16.5l180 -175q26 -27 29 -61.5t-22 -61.5q-27 -27 -63 -21t-67 36l-106 106l-104 -106q-31 -31 -67.5 -37t-63.5 22q-15 15 -19.5 33zM730 493 q-1 17 6.5 35t22 32t35.5 23.5t48 9.5h336q43 -1 69 -25.5t26 -86.5v-393q0 -42 -27 -69t-72 -27q-46 0 -71 29t-25 76v300h-31h-213q-24 0 -42.5 9.5t-32.5 23t-21.5 30t-7.5 33.5z" />
<glyph unicode="&#x11d;" horiz-adv-x="1202" d="M63 495q0 104 35 195.5t98 160.5t150 108.5t192 39.5q61 0 117.5 -16t104 -42t85 -58t60.5 -63q7 87 33 132.5t68 45.5q20 0 34 -12t21.5 -31t10.5 -42t3 -45v-781q0 -122 -38.5 -214t-102 -153.5t-145.5 -92t-171 -30.5q-54 0 -103 8t-87 26t-60 45t-22 64q0 23 9.5 41 t24 30.5t34.5 18t42 4.5q38 -5 72.5 -13t82.5 -7q131 4 188.5 89t47.5 253q-13 -33 -43 -63t-71.5 -53.5t-91.5 -37t-103 -13.5q-104 0 -191.5 40t-150.5 108.5t-98 160.5t-35 197zM308 495q0 -56 18 -106t51.5 -87t79.5 -58.5t101 -21.5t105 21.5t87 58.5t59 86.5t22 106.5 q0 54 -22.5 103t-59.5 86.5t-87 59.5t-104 22q-55 0 -101 -21.5t-79.5 -58.5t-51.5 -86.5t-18 -104.5zM323.5 1157q-4.5 18 0 36t15.5 35t24 31l157 154q24 24 53.5 25.5t53.5 -16.5l180 -175q26 -27 29 -61.5t-22 -61.5q-27 -27 -63 -21t-67 36l-106 106l-104 -106 q-31 -31 -67.5 -37t-63.5 22q-15 15 -19.5 33z" />
<glyph unicode="&#x11e;" horiz-adv-x="1354" d="M62 648q0 90 24 174t67 157.5t102.5 133t133 102.5t157.5 67t175 24q80 0 146.5 -14t124.5 -41.5t109.5 -69.5t102.5 -98q16 -18 25.5 -39t9.5 -46q0 -36 -20.5 -64t-50.5 -41q-27 -11 -55.5 -10.5t-54.5 16.5q-42 33 -78 63.5t-74.5 53.5t-82.5 37t-102 14 q-86 0 -162.5 -33.5t-132.5 -91t-89 -134t-33 -162.5q0 -91 32 -168.5t88 -133.5t131.5 -88.5t163.5 -32.5q49 0 97 20t89 54t70.5 78t41.5 93q35 28 66.5 33.5t55.5 -4t39 -31t17 -48t-10.5 -54.5t-41.5 -52q-16 -45 -52.5 -101t-91.5 -105.5t-127 -82.5t-159 -33 q-136 0 -255 51.5t-206.5 141t-138.5 209.5t-51 256zM492 1622q0 34 24 58.5t58 24.5q24 0 36 -9.5t18.5 -24.5t10 -32.5t10.5 -32.5t21 -24.5t42 -9.5q27 0 41 9.5t21.5 24.5t11 32.5t10 32.5t18.5 24.5t36 9.5q35 0 58 -24t23 -58q0 -42 -18 -79t-48.5 -64t-69.5 -43 t-83 -16t-84 16t-70 43.5t-48 64t-18 77.5zM730 493q-1 17 6.5 35t22 32t35.5 23.5t48 9.5h336q43 -1 69 -25.5t26 -86.5v-393q0 -42 -27 -69t-72 -27q-46 0 -71 29t-25 76v300h-31h-213q-24 0 -42.5 9.5t-32.5 23t-21.5 30t-7.5 33.5z" />
<glyph unicode="&#x11f;" horiz-adv-x="1202" d="M63 495q0 104 35 195.5t98 160.5t150 108.5t192 39.5q61 0 117.5 -16t104 -42t85 -58t60.5 -63q7 87 33 132.5t68 45.5q20 0 34 -12t21.5 -31t10.5 -42t3 -45v-781q0 -122 -38.5 -214t-102 -153.5t-145.5 -92t-171 -30.5q-54 0 -103 8t-87 26t-60 45t-22 64q0 23 9.5 41 t24 30.5t34.5 18t42 4.5q38 -5 72.5 -13t82.5 -7q131 4 188.5 89t47.5 253q-13 -33 -43 -63t-71.5 -53.5t-91.5 -37t-103 -13.5q-104 0 -191.5 40t-150.5 108.5t-98 160.5t-35 197zM308 495q0 -56 18 -106t51.5 -87t79.5 -58.5t101 -21.5t105 21.5t87 58.5t59 86.5t22 106.5 q0 54 -22.5 103t-59.5 86.5t-87 59.5t-104 22q-55 0 -101 -21.5t-79.5 -58.5t-51.5 -86.5t-18 -104.5zM369 1315q0 34 24 58.5t58 24.5q24 0 36 -9.5t18.5 -24.5t10 -32.5t10.5 -32.5t21 -24.5t42 -9.5q27 0 41 9.5t21.5 24.5t11 32.5t10 32.5t18.5 24.5t36 9.5q35 0 58 -24 t23 -58q0 -42 -18 -79t-48.5 -64t-69.5 -43t-83 -16t-84 16t-70 43.5t-48 64t-18 77.5z" />
<glyph unicode="&#x120;" horiz-adv-x="1354" d="M62 648q0 90 24 174t67 157.5t102.5 133t133 102.5t157.5 67t175 24q80 0 146.5 -14t124.5 -41.5t109.5 -69.5t102.5 -98q16 -18 25.5 -39t9.5 -46q0 -36 -20.5 -64t-50.5 -41q-27 -11 -55.5 -10.5t-54.5 16.5q-42 33 -78 63.5t-74.5 53.5t-82.5 37t-102 14 q-86 0 -162.5 -33.5t-132.5 -91t-89 -134t-33 -162.5q0 -91 32 -168.5t88 -133.5t131.5 -88.5t163.5 -32.5q49 0 97 20t89 54t70.5 78t41.5 93q35 28 66.5 33.5t55.5 -4t39 -31t17 -48t-10.5 -54.5t-41.5 -52q-16 -45 -52.5 -101t-91.5 -105.5t-127 -82.5t-159 -33 q-136 0 -255 51.5t-206.5 141t-138.5 209.5t-51 256zM559 1559q0 28 10 51t27.5 40.5t40.5 27t50 9.5t50.5 -9.5t41.5 -27t28 -40.5t10 -51t-10 -51t-28 -39.5t-41.5 -26t-50.5 -9.5q-28 0 -50.5 9.5t-40 26t-27.5 39.5t-10 51zM730 493q-1 17 6.5 35t22 32t35.5 23.5 t48 9.5h336q43 -1 69 -25.5t26 -86.5v-393q0 -42 -27 -69t-72 -27q-46 0 -71 29t-25 76v300h-31h-213q-24 0 -42.5 9.5t-32.5 23t-21.5 30t-7.5 33.5z" />
<glyph unicode="&#x121;" horiz-adv-x="1202" d="M63 495q0 104 35 195.5t98 160.5t150 108.5t192 39.5q61 0 117.5 -16t104 -42t85 -58t60.5 -63q7 87 33 132.5t68 45.5q20 0 34 -12t21.5 -31t10.5 -42t3 -45v-781q0 -122 -38.5 -214t-102 -153.5t-145.5 -92t-171 -30.5q-54 0 -103 8t-87 26t-60 45t-22 64q0 23 9.5 41 t24 30.5t34.5 18t42 4.5q38 -5 72.5 -13t82.5 -7q131 4 188.5 89t47.5 253q-13 -33 -43 -63t-71.5 -53.5t-91.5 -37t-103 -13.5q-104 0 -191.5 40t-150.5 108.5t-98 160.5t-35 197zM308 495q0 -56 18 -106t51.5 -87t79.5 -58.5t101 -21.5t105 21.5t87 58.5t59 86.5t22 106.5 q0 54 -22.5 103t-59.5 86.5t-87 59.5t-104 22q-55 0 -101 -21.5t-79.5 -58.5t-51.5 -86.5t-18 -104.5zM463 1241q0 28 10 51t27.5 40.5t40.5 27t50 9.5t50.5 -9.5t41.5 -27t28 -40.5t10 -51t-10 -51t-28 -39.5t-41.5 -26t-50.5 -9.5q-28 0 -50.5 9.5t-40 26t-27.5 39.5 t-10 51z" />
<glyph unicode="&#x122;" horiz-adv-x="1354" d="M62 648q0 90 24 174t67 157.5t102.5 133t133 102.5t157.5 67t175 24q80 0 146.5 -14t124.5 -41.5t109.5 -69.5t102.5 -98q16 -18 25.5 -39t9.5 -46q0 -36 -20.5 -64t-50.5 -41q-27 -11 -55.5 -10.5t-54.5 16.5q-42 33 -78 63.5t-74.5 53.5t-82.5 37t-102 14 q-86 0 -162.5 -33.5t-132.5 -91t-89 -134t-33 -162.5q0 -91 32 -168.5t88 -133.5t131.5 -88.5t163.5 -32.5q49 0 97 20t89 54t70.5 78t41.5 93q35 28 66.5 33.5t55.5 -4t39 -31t17 -48t-10.5 -54.5t-41.5 -52q-16 -45 -52.5 -101t-91.5 -105.5t-127 -82.5t-159 -33 q-136 0 -255 51.5t-206.5 141t-138.5 209.5t-51 256zM555 -356.5q2 40.5 7 77.5q2 28 13 53t28.5 43.5t41.5 29t52 10.5q25 0 48 -9t40 -26t27.5 -40.5t9.5 -53.5q-7 -52 -29 -96t-50.5 -75.5t-60 -49t-58.5 -18.5q-27 0 -44 23t-22 64q-5 27 -3 67.5zM730 493q-1 17 6.5 35 t22 32t35.5 23.5t48 9.5h336q43 -1 69 -25.5t26 -86.5v-393q0 -42 -27 -69t-72 -27q-46 0 -71 29t-25 76v300h-31h-213q-24 0 -42.5 9.5t-32.5 23t-21.5 30t-7.5 33.5z" />
<glyph unicode="&#x123;" horiz-adv-x="1202" d="M63 495q0 104 35 195.5t98 160.5t150 108.5t192 39.5q61 0 117.5 -16t104 -42t85 -58t60.5 -63q7 87 33 132.5t68 45.5q20 0 34 -12t21.5 -31t10.5 -42t3 -45v-781q0 -122 -38.5 -214t-102 -153.5t-145.5 -92t-171 -30.5q-54 0 -103 8t-87 26t-60 45t-22 64q0 23 9.5 41 t24 30.5t34.5 18t42 4.5q38 -5 72.5 -13t82.5 -7q131 4 188.5 89t47.5 253q-13 -33 -43 -63t-71.5 -53.5t-91.5 -37t-103 -13.5q-104 0 -191.5 40t-150.5 108.5t-98 160.5t-35 197zM308 495q0 -56 18 -106t51.5 -87t79.5 -58.5t101 -21.5t105 21.5t87 58.5t59 86.5t22 106.5 q0 54 -22.5 103t-59.5 86.5t-87 59.5t-104 22q-55 0 -101 -21.5t-79.5 -58.5t-51.5 -86.5t-18 -104.5zM432 1258q7 52 29 96t50.5 75.5t60 49t58.5 18.5q27 0 44 -23t22 -64q5 -27 3 -67.5t-7 -77.5q-2 -28 -13 -53t-28.5 -43.5t-41.5 -29t-52 -10.5q-25 0 -48 9t-40 26 t-27.5 40.5t-9.5 53.5z" />
<glyph unicode="&#x124;" horiz-adv-x="1345" d="M125 1257q0 11 3 20.5t11.5 15.5t24.5 10t42 4q38 0 69 -6.5t53.5 -20t35.5 -37t13 -57.5v-431h609v424q-1 20 -6 40t-5 38q0 11 3.5 20.5t12.5 15.5t25.5 10t42.5 4q33 0 63 -5.5t53.5 -19t37.5 -36.5t14 -60v-1069q0 -27 -9.5 -50t-25 -40.5t-38 -27t-48.5 -9.5 q-27 0 -49 10t-37.5 27.5t-24.5 40.5t-9 49v396h-609v-396q0 -26 -9 -49t-24 -40.5t-37.5 -27.5t-50.5 -10t-50 10t-37.5 28t-24 41t-8.5 48v1062q-1 20 -6 40t-5 38zM386.5 1466q-4.5 18 0 36t15.5 35t24 31l157 154q24 24 53.5 25.5t53.5 -16.5l180 -175q26 -27 29 -61.5 t-22 -61.5q-27 -27 -63 -21t-67 36l-106 106l-104 -106q-31 -31 -67.5 -37t-63.5 22q-15 15 -19.5 33z" />
<glyph unicode="&#x125;" horiz-adv-x="1241" d="M-24.5 1440q-4.5 18 0 36t15.5 35t24 31l157 154q24 24 53.5 25.5t53.5 -16.5l180 -175q26 -27 29 -61.5t-22 -61.5q-27 -27 -63 -21t-67 36l-106 106l-104 -106q-31 -31 -67.5 -37t-63.5 22q-15 15 -19.5 33zM115 111v1082q0 25 9 47t25.5 38t38.5 25.5t48 9.5 q25 0 46.5 -9.5t38 -25.5t26 -38t9.5 -47v-1082q0 -26 -9.5 -48t-26 -38.5t-38.5 -25.5t-46 -9q-26 0 -48 9t-38.5 25.5t-25.5 38.5t-9 48zM347 802q10 31 39.5 66t72.5 65t96 49.5t114 19.5q102 0 187 -39.5t145 -108t93 -160t33 -195.5v-295l-241 36v258q0 55 -19 104.5 t-53 86.5t-80 58.5t-101 21.5q-56 0 -106.5 -25t-88.5 -66.5t-60 -94t-22 -106.5zM886 127v147l241 -8v-153q0 -24 -9 -46.5t-25 -39.5t-38.5 -27t-47.5 -10q-31 0 -53.5 11.5t-37.5 30.5t-22.5 43.5t-7.5 51.5z" />
<glyph unicode="&#x126;" horiz-adv-x="1345" d="M32 983q0 36 23.5 60.5t59.5 24.5h1131q34 0 58 -24.5t24 -60.5q0 -34 -24 -59.5t-58 -25.5h-1131q-36 0 -59.5 25.5t-23.5 59.5zM125 1257q0 11 3 20.5t11.5 15.5t24.5 10t42 4q38 0 69 -6.5t53.5 -20t35.5 -37t13 -57.5v-431h609v424q-1 20 -6 40t-5 38q0 11 3.5 20.5 t12.5 15.5t25.5 10t42.5 4q33 0 63 -5.5t53.5 -19t37.5 -36.5t14 -60v-1069q0 -27 -9.5 -50t-25 -40.5t-38 -27t-48.5 -9.5q-27 0 -49 10t-37.5 27.5t-24.5 40.5t-9 49v396h-609v-396q0 -26 -9 -49t-24 -40.5t-37.5 -27.5t-50.5 -10t-50 10t-37.5 28t-24 41t-8.5 48v1062 q-1 20 -6 40t-5 38z" />
<glyph unicode="&#x127;" horiz-adv-x="1240" d="M-108 1161q0 36 23 61.5t55 25.5h530q33 0 56 -26t23 -61t-23.5 -60.5t-55.5 -25.5h-530q-32 0 -55 25.5t-23 60.5zM115 111v1082q0 25 9 47t25.5 38t38.5 25.5t48 9.5q25 0 46.5 -9.5t38 -25.5t26 -38t9.5 -47v-1082q0 -26 -9.5 -48t-26 -38.5t-38.5 -25.5t-46 -9 q-26 0 -48 9t-38.5 25.5t-25.5 38.5t-9 48zM347 802q10 31 39.5 66t72.5 65t96 49.5t114 19.5q102 0 187 -39.5t145 -108t93 -160t33 -195.5v-295l-241 36v258q0 55 -19 104.5t-53 86.5t-80 58.5t-101 21.5q-56 0 -106.5 -25t-88.5 -66.5t-60 -94t-22 -106.5zM886 127v147 l241 -8v-153q0 -24 -9 -46.5t-25 -39.5t-38.5 -27t-47.5 -10q-31 0 -53.5 11.5t-37.5 30.5t-22.5 43.5t-7.5 51.5z" />
<glyph unicode="&#x128;" horiz-adv-x="502" d="M-45 1562.5q1 15.5 6 30.5q18 58 62 95q11 9 23.5 15.5t26.5 11.5q12 4 26.5 7t30.5 3q48 0 76 -17t48.5 -38t39.5 -38t50 -17q15 0 24 8t18.5 19.5t22 24t36.5 21.5q12 7 29 5t30.5 -13t20 -30.5t-2.5 -46.5q-8 -28 -24.5 -52.5t-40 -43t-53.5 -29t-64 -10.5 q-43 0 -69.5 16.5t-46.5 37.5t-40.5 38t-51.5 17q-25 0 -38 -11t-22 -25t-18.5 -27t-27.5 -16q-10 -1 -23 0q-18 3 -29 13.5t-15.5 23t-3.5 28zM125 1256q0 11 3.5 20.5t13 15.5t25.5 10t42 4q35 0 64.5 -5.5t52 -19t36 -37t15.5 -60.5v-1069q0 -25 -9 -47.5t-24 -40 t-37.5 -27.5t-50.5 -10t-50.5 10.5t-37.5 28.5t-23.5 40t-8.5 46v1063q-1 20 -6 40t-5 38z" />
<glyph unicode="&#x129;" horiz-adv-x="470" d="M-39 1236.5q1 15.5 6 30.5q18 58 62 95q11 9 23.5 15.5t26.5 11.5q12 4 26.5 7t30.5 3q48 0 76 -17t48.5 -38t39.5 -38t50 -17q15 0 24 8t18.5 19.5t22 24t36.5 21.5q12 7 29 5t30.5 -13t20 -30.5t-2.5 -46.5q-8 -28 -24.5 -52.5t-40 -43t-53.5 -29t-64 -10.5 q-43 0 -69.5 16.5t-46.5 37.5t-40.5 38t-51.5 17q-25 0 -38 -11t-22 -25t-18.5 -27t-27.5 -16q-10 -1 -23 0q-18 3 -29 13.5t-15.5 23t-3.5 28zM114 111v771q0 25 9 46.5t25.5 38t38.5 25.5t47 9t47 -9t38.5 -25.5t26 -38.5t9.5 -46v-771q0 -26 -9.5 -48t-26 -38.5 t-38.5 -25.5t-47 -9q-26 0 -47.5 9t-38 25.5t-25.5 38.5t-9 48z" />
<glyph unicode="&#x12a;" horiz-adv-x="502" d="M-119 1524q0 36 24 61t58 25h557q35 0 59 -25.5t24 -60.5q0 -34 -24.5 -59.5t-58.5 -25.5h-557q-34 0 -58 25.5t-24 59.5zM125 1256q0 11 3.5 20.5t13 15.5t25.5 10t42 4q35 0 64.5 -5.5t52 -19t36 -37t15.5 -60.5v-1069q0 -25 -9 -47.5t-24 -40t-37.5 -27.5t-50.5 -10 t-50.5 10.5t-37.5 28.5t-23.5 40t-8.5 46v1063q-1 20 -6 40t-5 38z" />
<glyph unicode="&#x12b;" horiz-adv-x="470" d="M-123 1173q0 36 24 61t58 25h557q35 0 59 -25.5t24 -60.5q0 -34 -24.5 -59.5t-58.5 -25.5h-557q-34 0 -58 25.5t-24 59.5zM114 111v771q0 25 9 46.5t25.5 38t38.5 25.5t47 9t47 -9t38.5 -25.5t26 -38.5t9.5 -46v-771q0 -26 -9.5 -48t-26 -38.5t-38.5 -25.5t-47 -9 q-26 0 -47.5 9t-38 25.5t-25.5 38.5t-9 48z" />
<glyph unicode="&#x12c;" horiz-adv-x="502" d="M32 1651q0 34 24 58.5t58 24.5q24 0 36 -9.5t18.5 -24.5t10 -32.5t10.5 -32.5t21 -24.5t42 -9.5q27 0 41 9.5t21.5 24.5t11 32.5t10 32.5t18.5 24.5t36 9.5q35 0 58 -24t23 -58q0 -42 -18 -79t-48.5 -64t-69.5 -43t-83 -16t-84 16t-70 43.5t-48 64t-18 77.5zM125 1256 q0 11 3.5 20.5t13 15.5t25.5 10t42 4q35 0 64.5 -5.5t52 -19t36 -37t15.5 -60.5v-1069q0 -25 -9 -47.5t-24 -40t-37.5 -27.5t-50.5 -10t-50.5 10.5t-37.5 28.5t-23.5 40t-8.5 46v1063q-1 20 -6 40t-5 38z" />
<glyph unicode="&#x12d;" horiz-adv-x="470" d="M12 1343q0 34 24 58.5t58 24.5q24 0 36 -9.5t18.5 -24.5t10 -32.5t10.5 -32.5t21 -24.5t42 -9.5q27 0 41 9.5t21.5 24.5t11 32.5t10 32.5t18.5 24.5t36 9.5q35 0 58 -24t23 -58q0 -42 -18 -79t-48.5 -64t-69.5 -43t-83 -16t-84 16t-70 43.5t-48 64t-18 77.5zM114 111v771 q0 25 9 46.5t25.5 38t38.5 25.5t47 9t47 -9t38.5 -25.5t26 -38.5t9.5 -46v-771q0 -26 -9.5 -48t-26 -38.5t-38.5 -25.5t-47 -9q-26 0 -47.5 9t-38 25.5t-25.5 38.5t-9 48z" />
<glyph unicode="&#x12e;" horiz-adv-x="502" d="M25 -156q0 35 13.5 65.5t41 62t68.5 67.5t93 82q14 14 31.5 16t34 -4t28.5 -19.5t17.5 -30t1.5 -33.5t-20 -33l-68 -60q-19 -18 -35 -32t-27.5 -26.5t-17.5 -24.5t-6 -27q0 -20 12 -35.5t37 -15.5q17 0 26.5 8t15 20.5t10.5 27t12.5 26.5t21 20.5t36.5 8.5 q25 0 46.5 -17.5t21.5 -45.5q0 -42 -15.5 -77t-42 -61.5t-62 -41t-76.5 -14.5q-42 0 -78 14.5t-63 41t-42 61.5t-15 77zM125 1256q0 11 3.5 20.5t13 15.5t25.5 10t42 4q35 0 64.5 -5.5t52 -19t36 -37t15.5 -60.5v-1069q0 -25 -9 -47.5t-24 -40t-37.5 -27.5t-50.5 -10 t-50.5 10.5t-37.5 28.5t-23.5 40t-8.5 46v1063q-1 20 -6 40t-5 38z" />
<glyph unicode="&#x12f;" horiz-adv-x="470" d="M12 -149q0 35 13.5 65.5t41 62t68.5 67.5t93 82q14 14 31.5 16t34 -4t28.5 -19.5t17.5 -30t1.5 -33.5t-20 -33l-68 -60q-19 -18 -35 -32t-27.5 -26.5t-17.5 -24.5t-6 -27q0 -20 12 -35.5t37 -15.5q17 0 26.5 8t15 20.5t10.5 27t12.5 26.5t21 20.5t36.5 8.5 q25 0 46.5 -17.5t21.5 -45.5q0 -42 -15.5 -77t-42 -61.5t-62 -41t-76.5 -14.5q-42 0 -78 14.5t-63 41t-42 61.5t-15 77zM102 1260q0 28 10.5 51.5t28.5 41t42.5 28t52.5 10.5t51.5 -10.5t42 -28t29 -41.5t10.5 -51q0 -28 -10.5 -52t-29 -41.5t-42.5 -27.5t-51 -10 q-28 0 -52.5 10t-42.5 27.5t-28.5 41.5t-10.5 52zM115 111v771q0 25 9 46.5t25 38t38 25.5t47 9t47 -9t38.5 -25.5t26 -38.5t9.5 -46v-771q0 -26 -9.5 -48t-26 -38.5t-38.5 -25.5t-47 -9q-26 0 -47.5 9t-37.5 25.5t-25 38.5t-9 48z" />
<glyph unicode="&#x130;" horiz-adv-x="502" d="M113 1572q0 28 10 51t27.5 40.5t40.5 27t50 9.5t50.5 -9.5t41.5 -27t28 -40.5t10 -51t-10 -51t-28 -39.5t-41.5 -26t-50.5 -9.5q-28 0 -50.5 9.5t-40 26t-27.5 39.5t-10 51zM125 1256q0 11 3.5 20.5t13 15.5t25.5 10t42 4q35 0 64.5 -5.5t52 -19t36 -37t15.5 -60.5v-1069 q0 -25 -9 -47.5t-24 -40t-37.5 -27.5t-50.5 -10t-50.5 10.5t-37.5 28.5t-23.5 40t-8.5 46v1063q-1 20 -6 40t-5 38z" />
<glyph unicode="&#x131;" horiz-adv-x="470" d="M114 111v771q0 25 9 46.5t25.5 38t38.5 25.5t47 9t47 -9t38.5 -25.5t26 -38.5t9.5 -46v-771q0 -26 -9.5 -48t-26 -38.5t-38.5 -25.5t-47 -9q-26 0 -47.5 9t-38 25.5t-25.5 38.5t-9 48z" />
<glyph unicode="&#x132;" horiz-adv-x="1013" d="M125 1256q0 11 3.5 20.5t13 15.5t25.5 10t42 4q35 0 64.5 -5.5t52 -19t36 -37t15.5 -60.5v-1069q0 -25 -9 -47.5t-24 -40t-37.5 -27.5t-50.5 -10t-50.5 10.5t-37.5 28.5t-23.5 40t-8.5 46v1063q-1 20 -6 40t-5 38zM400 -210q0 25 9.5 47t26 38t38.5 25.5t49 9.5 q35 1 60.5 16t43 41t26 61t8.5 77l-1 1066q0 16 -1.5 27.5t-4 21t-4 17.5t-1.5 19q0 22 16 36t66 14q37 0 68 -7t54 -22.5t36.5 -43.5t13.5 -71v-996q0 -109 -23 -200t-69.5 -157t-119 -103t-170.5 -37q-26 0 -48 9.5t-38 25.5t-25.5 38t-9.5 48z" />
<glyph unicode="&#x133;" horiz-adv-x="937" d="M102 1260q0 28 10.5 51.5t28.5 41t42.5 28t52.5 10.5t51.5 -10.5t42 -28t29 -41.5t10.5 -51q0 -28 -10.5 -52t-29 -41.5t-42.5 -27.5t-51 -10q-28 0 -52.5 10t-42.5 27.5t-28.5 41.5t-10.5 52zM115 111v771q0 25 9 46.5t25 38t38 25.5t47 9t47 -9t38.5 -25.5t26 -38.5 t9.5 -46v-771q0 -26 -9.5 -48t-26 -38.5t-38.5 -25.5t-47 -9q-26 0 -47.5 9t-37.5 25.5t-25 38.5t-9 48zM307 -253q0 36 19 65t52 42q38 8 72.5 20t60 35t41 59.5t16.5 91.5v811q0 26 8.5 49.5t24.5 41t38.5 28t49.5 10.5t49 -10.5t38 -28.5t24.5 -41t8.5 -49v-759 q0 -106 -23.5 -195.5t-71 -154t-119 -100.5t-168.5 -36q-25 0 -46.5 9.5t-38 25.5t-26 38t-9.5 48zM559 1263q0 27 10 50t27.5 40t41 27t51.5 10q27 0 50 -10t41 -27t28.5 -40.5t10.5 -49.5q0 -28 -10.5 -51t-28.5 -40t-41.5 -26.5t-49.5 -9.5q-28 0 -51.5 9.5t-41 26.5 t-27.5 40t-10 51z" />
<glyph unicode="&#x134;" horiz-adv-x="492" d="M-124 -210q0 25 9.5 47t26 38t38.5 25.5t49 9.5q35 1 60.5 16t43 41t26 61t8.5 77l-1 1066q0 16 -1.5 27.5t-4 21t-4 17.5t-1.5 19q0 22 16 36t66 14q37 0 68 -7t54 -22.5t36.5 -43.5t13.5 -71v-996q0 -109 -23 -200t-69.5 -157t-119 -103t-170.5 -37q-26 0 -48 9.5 t-38 25.5t-25.5 38t-9.5 48zM-10.5 1447q-4.5 18 0 36t15.5 35t24 31l157 154q24 24 53.5 25.5t53.5 -16.5l180 -175q26 -27 29 -61.5t-22 -61.5q-27 -27 -63 -21t-67 36l-106 106l-104 -106q-31 -31 -67.5 -37t-63.5 22q-15 15 -19.5 33z" />
<glyph unicode="&#x135;" horiz-adv-x="471" d="M-146 -253q0 36 19 65t52 42q38 8 72.5 20t60 35t41 59.5t16.5 91.5v811q0 26 8.5 49.5t24.5 41t38.5 28t49.5 10.5t49 -10.5t38 -28.5t24.5 -41t8.5 -49v-759q0 -106 -23.5 -195.5t-71 -154t-119 -100.5t-168.5 -36q-25 0 -46.5 9.5t-38 25.5t-26 38t-9.5 48z M-11.5 1187q-4.5 18 0 36t15.5 35t24 31l157 154q24 24 53.5 25.5t53.5 -16.5l180 -175q26 -27 29 -61.5t-22 -61.5q-27 -27 -63 -21t-67 36l-106 106l-104 -106q-31 -31 -67.5 -37t-63.5 22q-15 15 -19.5 33z" />
<glyph unicode="&#x136;" horiz-adv-x="1236" d="M125 1264q0 11 3.5 20t13 15.5t25.5 10t42 3.5q34 0 64.5 -6.5t53 -22t36.5 -43.5t14 -72v-412l592 510q30 27 61.5 34.5t61.5 -2.5q12 -3 24 -8.5t23.5 -14t20 -20t11.5 -24.5q14 -40 4 -80t-46 -69l-361 -291l391 -606q25 -39 26.5 -67t-11.5 -61q-12 -30 -41 -50 t-69 -20q-33 0 -61 17t-55 60l-362 585l-210 -175l1 -341q0 -31 -8.5 -57.5t-23.5 -45.5t-37.5 -30t-51.5 -11q-58 0 -89 40.5t-31 102.5v1052q-1 20 -6 40t-5 39zM500 -357.5q2 40.5 7 77.5q2 28 13 53t28.5 43.5t41.5 29t52 10.5q25 0 48 -9t40 -26t27.5 -40.5t9.5 -53.5 q-7 -52 -29 -96t-50.5 -75.5t-60 -49t-58.5 -18.5q-27 0 -44 23t-22 64q-5 27 -3 67.5z" />
<glyph unicode="&#x137;" horiz-adv-x="1133" d="M115 111v1082q0 25 9 47t25.5 38t38.5 25.5t48 9.5q25 0 46.5 -9.5t38 -25.5t26 -38t9.5 -47v-1082q0 -26 -9.5 -48t-26 -38.5t-38.5 -25.5t-46 -9q-26 0 -48 9t-38.5 25.5t-25.5 38.5t-9 48zM356 274v293l459 356q28 20 58.5 40t62.5 35q15 5 32 7t34 -4q25 -7 46 -26.5 t29 -45.5q7 -23 6 -47q-1 -15 -8.5 -31t-19.5 -31t-25.5 -28.5t-27.5 -23.5l-205 -159l265 -425q23 -27 27 -58.5t-7.5 -59.5t-36.5 -48t-60 -23q-16 -4 -32 -1t-30 10.5t-25.5 18.5t-20.5 22l-267 427q-40 -32 -74.5 -58.5t-65.5 -50t-58.5 -45.5t-55.5 -44zM482 -276.5 q2 40.5 7 77.5q2 28 13 53t28.5 43.5t41.5 29t52 10.5q25 0 48 -9t40 -26t27.5 -40.5t9.5 -53.5q-7 -52 -29 -96t-50.5 -75.5t-60 -49t-58.5 -18.5q-27 0 -44 23t-22 64q-5 27 -3 67.5z" />
<glyph unicode="&#x138;" horiz-adv-x="1133" d="M115 111v768q0 25 9 46.5t25.5 38t38.5 25.5t48 9q25 0 46.5 -9t38 -25.5t26 -38.5t9.5 -46v-768q0 -26 -9.5 -48t-26 -38.5t-38.5 -25.5t-46 -9q-26 0 -48 9t-38.5 25.5t-25.5 38.5t-9 48zM356 274v293l459 356q28 20 58 40.5t63 34.5q16 5 32.5 7t33.5 -4 q25 -7 46 -26.5t29 -45.5q7 -23 6 -47q-1 -15 -8.5 -31t-19.5 -31t-25.5 -28.5t-27.5 -23.5l-205 -159l267 -427q13 -18 20.5 -37t7.5 -40q0 -23 -10 -43.5t-26 -36.5t-37.5 -25.5t-45.5 -9.5q-17 0 -33 8t-31.5 21.5t-29 30t-25.5 32.5l-244 390q-40 -32 -74.5 -58.5 t-65.5 -50t-58.5 -45.5t-55.5 -44z" />
<glyph unicode="&#x139;" horiz-adv-x="1116" d="M125 1267q0 11 3.5 20t13 15.5t25.5 10t42 3.5q37 0 67.5 -6.5t52.5 -22.5t35 -44.5t13 -71.5v-929h563q23 0 45 -9t38.5 -24.5t27 -37.5t10.5 -49q0 -28 -9.5 -50t-24.5 -38.5t-35.5 -25t-44.5 -8.5h-676q-30 1 -54 12.5t-42 29.5t-28.5 44t-10.5 55v1047q-1 20 -6 40 t-5 39zM145 1493q0 9 2 18q0 15 20 44t48 57t60.5 49t59.5 21q24 0 43.5 -9.5t32.5 -26t19 -37.5t2 -44q-4 -19 -28.5 -44t-55 -47.5t-62.5 -38t-50 -15.5q-25 -3 -49 8q-33 14 -40 48q-2 8 -2 17z" />
<glyph unicode="&#x13a;" horiz-adv-x="471" d="M115 111v1082q0 25 9 47t25.5 38t38.5 25.5t48 9.5q25 0 46.5 -9.5t38 -25.5t26 -38t9.5 -47v-1082q0 -26 -9.5 -48t-26 -38.5t-38.5 -25.5t-46 -9q-26 0 -48 9t-38.5 25.5t-25.5 38.5t-9 48zM203 1475q0 9 2 18q0 15 20 44t48 57t60.5 49t59.5 21q24 0 43.5 -9.5 t32.5 -26t19 -37.5t2 -44q-4 -19 -28.5 -44t-55 -47.5t-62.5 -38t-50 -15.5q-25 -3 -49 8q-33 14 -40 48q-2 8 -2 17z" />
<glyph unicode="&#x13b;" horiz-adv-x="1116" d="M125 1267q0 11 3.5 20t13 15.5t25.5 10t42 3.5q37 0 67.5 -6.5t52.5 -22.5t35 -44.5t13 -71.5v-929h563q23 0 45 -9t38.5 -24.5t27 -37.5t10.5 -49q0 -28 -9.5 -50t-24.5 -38.5t-35.5 -25t-44.5 -8.5h-676q-30 1 -54 12.5t-42 29.5t-28.5 44t-10.5 55v1047q-1 20 -6 40 t-5 39zM443 -359.5q2 40.5 7 77.5q2 28 13 53t28.5 43.5t41.5 29t52 10.5q25 0 48 -9t40 -26t27.5 -40.5t9.5 -53.5q-7 -52 -29 -96t-50.5 -75.5t-60 -49t-58.5 -18.5q-27 0 -44 23t-22 64q-5 27 -3 67.5z" />
<glyph unicode="&#x13c;" horiz-adv-x="471" d="M94 -342.5q2 40.5 7 77.5q2 28 13 53t28.5 43.5t41.5 29t52 10.5q25 0 48 -9t40 -26t27.5 -40.5t9.5 -53.5q-7 -52 -29 -96t-50.5 -75.5t-60 -49t-58.5 -18.5q-27 0 -44 23t-22 64q-5 27 -3 67.5zM115 111v1082q0 25 9 47t25.5 38t38.5 25.5t48 9.5q25 0 46.5 -9.5 t38 -25.5t26 -38t9.5 -47v-1082q0 -26 -9.5 -48t-26 -38.5t-38.5 -25.5t-46 -9q-26 0 -48 9t-38.5 25.5t-25.5 38.5t-9 48z" />
<glyph unicode="&#x13d;" horiz-adv-x="1116" d="M-11 1679q4 18 20 34q29 28 64.5 21.5t67.5 -37.5l103 -105l107 105q31 31 67 36.5t63 -20.5q26 -27 22 -62t-30 -61l-180 -175q-24 -18 -53 -16.5t-53 25.5l-158 153q-13 13 -24 31t-15.5 35.5t-0.5 35.5zM125 1267q0 11 3.5 20t13 15.5t25.5 10t42 3.5q37 0 67.5 -6.5 t52.5 -22.5t35 -44.5t13 -71.5v-929h563q23 0 45 -9t38.5 -24.5t27 -37.5t10.5 -49q0 -28 -9.5 -50t-24.5 -38.5t-35.5 -25t-44.5 -8.5h-676q-30 1 -54 12.5t-42 29.5t-28.5 44t-10.5 55v1047q-1 20 -6 40t-5 39z" />
<glyph unicode="&#x13e;" horiz-adv-x="471" d="M115 111v1082q0 25 9 47t25.5 38t38.5 25.5t48 9.5q25 0 46.5 -9.5t38 -25.5t26 -38t9.5 -47v-1082q0 -26 -9.5 -48t-26 -38.5t-38.5 -25.5t-46 -9q-26 0 -48 9t-38.5 25.5t-25.5 38.5t-9 48zM396 1223q0 35 11 82.5t33 89.5t53.5 72t73.5 30q47 0 81.5 -27.5t43.5 -67.5 q10 -40 -7 -84t-50.5 -81.5t-75.5 -62.5t-82 -25q-43 0 -62 18t-19 56z" />
<glyph unicode="&#x13f;" horiz-adv-x="1116" d="M125 1267q0 11 3.5 20t13 15.5t25.5 10t42 3.5q37 0 67.5 -6.5t52.5 -22.5t35 -44.5t13 -71.5v-929h563q23 0 45 -9t38.5 -24.5t27 -37.5t10.5 -49q0 -28 -9.5 -50t-24.5 -38.5t-35.5 -25t-44.5 -8.5h-676q-30 1 -54 12.5t-42 29.5t-28.5 44t-10.5 55v1047q-1 20 -6 40 t-5 39zM584 642q0 27 9 50q10 24 28 41q17 17 41 26q24 10 51 10t50 -10q24 -10 41 -26q18 -17 29 -41q10 -24 10 -50q0 -28 -10 -51t-29 -40q-18 -17 -41 -26q-24 -10 -50 -10q-28 0 -51 10q-24 10 -41 26q-17 17 -28 40q-9 23 -9 51z" />
<glyph unicode="&#x140;" horiz-adv-x="631" d="M115 111v1082q0 25 9 47t25.5 38t38.5 25.5t48 9.5q25 0 46.5 -9.5t38 -25.5t26 -38t9.5 -47v-1082q0 -26 -9.5 -48t-26 -38.5t-38.5 -25.5t-46 -9q-26 0 -48 9t-38.5 25.5t-25.5 38.5t-9 48zM433 659q0 27 10 51t27 40q17 17 41 27t51 9q27 0 50 -9q24 -10 42 -27 t28 -40q10 -24 10 -51q0 -28 -10 -50q-10 -23 -28 -40t-42 -27t-50 -10q-28 0 -51 10q-24 10 -41 27t-27 40q-10 22 -10 50z" />
<glyph unicode="&#x141;" horiz-adv-x="1117" d="M-68 529q-2 24 6 45.5t23.5 39.5t38.5 29l402 200q46 22 92.5 6.5t69.5 -62.5q10 -23 12 -46.5t-6 -45.5t-23.5 -40t-37.5 -29l-404 -199q-23 -11 -46.5 -12t-45 6.5t-39.5 23t-29 37.5q-11 23 -13 47zM125 1267q0 11 3.5 20t13 15.5t25.5 10t42 3.5q37 0 67.5 -6.5 t52.5 -22.5t35 -44.5t13 -71.5v-929h563q23 0 45 -9t38.5 -24.5t27 -37.5t10.5 -49q0 -28 -9.5 -50t-24.5 -38.5t-35.5 -25t-44.5 -8.5h-676q-30 1 -54 12.5t-42 29.5t-28.5 44t-10.5 55v1047q-1 20 -6 40t-5 39z" />
<glyph unicode="&#x142;" horiz-adv-x="478" d="M-58 553q10 33 41 48l423 223q31 15 63.5 4.5t48.5 -43.5q16 -31 6 -64t-41 -49l-424 -222q-31 -16 -63.5 -4t-47.5 41q-16 33 -6 66zM115 111v1082q0 25 9 47t25.5 38t38.5 25.5t48 9.5q25 0 46.5 -9.5t38 -25.5t26 -38t9.5 -47v-1082q0 -26 -9.5 -48t-26 -38.5 t-38.5 -25.5t-46 -9q-26 0 -48 9t-38.5 25.5t-25.5 38.5t-9 48z" />
<glyph unicode="&#x143;" horiz-adv-x="1412" d="M125 1257q0 10 3.5 19.5t13 15.5t25.5 10t42 4q28 0 49 -3t38 -9.5t32.5 -17.5t32.5 -29l686 -808l-1 736q0 24 -5.5 42.5t-5.5 38.5q0 13 3 22.5t14.5 15.5t32 9t56.5 3q33 0 60 -6t46 -20t29.5 -37.5t10.5 -58.5v-1062q0 -27 -8 -51t-24 -42t-38 -28.5t-50 -10.5 q-30 0 -58 17t-48 40l-685 805v-179t-0.5 -192t-0.5 -191.5v-178.5q0 -26 -9.5 -48t-25 -38.5t-37 -25.5t-47.5 -9t-48 9.5t-37.5 25.5t-25 38t-9.5 47v1068q-1 20 -6 39t-5 40zM612 1453q0 9 2 18q0 15 20 44t48 57t60.5 49t59.5 21q24 0 43.5 -9.5t32.5 -26t19 -37.5 t2 -44q-4 -19 -28.5 -44t-55 -47.5t-62.5 -38t-50 -15.5q-25 -3 -49 8q-33 14 -40 48q-2 8 -2 17z" />
<glyph unicode="&#x144;" horiz-adv-x="1242" d="M115 111v824q0 66 65 65q38 0 65.5 -26t41.5 -92l44 -187l25 -14v-570q0 -26 -9.5 -48t-26 -38.5t-38.5 -25.5t-46 -9q-26 0 -48 9t-38.5 25.5t-25.5 38.5t-9 48zM269 808q35 42 80.5 77.5t97.5 60.5t107 39t110 14q104 0 189.5 -39.5t146.5 -108t94 -160t33 -195.5v-385 q0 -24 -8.5 -45.5t-25 -38.5t-38.5 -27t-47 -10q-26 0 -48 9.5t-38.5 26t-26 38.5t-9.5 47v384q0 55 -19 104.5t-53 86.5t-80 58.5t-101 21.5q-54 0 -104.5 -22.5t-89 -60t-61 -87t-22.5 -103.5zM577 1223q0 9 2 18q0 15 20 44t48 57t60.5 49t59.5 21q24 0 43.5 -9.5 t32.5 -26t19 -37.5t2 -44q-4 -19 -28.5 -44t-55 -47.5t-62.5 -38t-50 -15.5q-25 -3 -49 8q-33 14 -40 48q-2 8 -2 17z" />
<glyph unicode="&#x145;" horiz-adv-x="1412" d="M125 1257q0 10 3.5 19.5t13 15.5t25.5 10t42 4q28 0 49 -3t38 -9.5t32.5 -17.5t32.5 -29l686 -808l-1 736q0 24 -5.5 42.5t-5.5 38.5q0 13 3 22.5t14.5 15.5t32 9t56.5 3q33 0 60 -6t46 -20t29.5 -37.5t10.5 -58.5v-1062q0 -27 -8 -51t-24 -42t-38 -28.5t-50 -10.5 q-30 0 -58 17t-48 40l-685 805v-179t-0.5 -192t-0.5 -191.5v-178.5q0 -26 -9.5 -48t-25 -38.5t-37 -25.5t-47.5 -9t-48 9.5t-37.5 25.5t-25 38t-9.5 47v1068q-1 20 -6 39t-5 40zM616 -369.5q2 40.5 7 77.5q2 28 13 53t28.5 43.5t41.5 29t52 10.5q25 0 48 -9t40 -26 t27.5 -40.5t9.5 -53.5q-7 -52 -29 -96t-50.5 -75.5t-60 -49t-58.5 -18.5q-27 0 -44 23t-22 64q-5 27 -3 67.5z" />
<glyph unicode="&#x146;" horiz-adv-x="1242" d="M115 111v824q0 66 65 65q38 0 65.5 -26t41.5 -92l44 -187l25 -14v-570q0 -26 -9.5 -48t-26 -38.5t-38.5 -25.5t-46 -9q-26 0 -48 9t-38.5 25.5t-25.5 38.5t-9 48zM269 808q35 42 80.5 77.5t97.5 60.5t107 39t110 14q104 0 189.5 -39.5t146.5 -108t94 -160t33 -195.5v-385 q0 -24 -8.5 -45.5t-25 -38.5t-38.5 -27t-47 -10q-26 0 -48 9.5t-38.5 26t-26 38.5t-9.5 47v384q0 55 -19 104.5t-53 86.5t-80 58.5t-101 21.5q-54 0 -104.5 -22.5t-89 -60t-61 -87t-22.5 -103.5zM517 -313.5q2 40.5 7 77.5q2 28 13 53t28.5 43.5t41.5 29t52 10.5q25 0 48 -9 t40 -26t27.5 -40.5t9.5 -53.5q-7 -52 -29 -96t-50.5 -75.5t-60 -49t-58.5 -18.5q-27 0 -44 23t-22 64q-5 27 -3 67.5z" />
<glyph unicode="&#x147;" horiz-adv-x="1412" d="M125 1257q0 10 3.5 19.5t13 15.5t25.5 10t42 4q28 0 49 -3t38 -9.5t32.5 -17.5t32.5 -29l686 -808l-1 736q0 24 -5.5 42.5t-5.5 38.5q0 13 3 22.5t14.5 15.5t32 9t56.5 3q33 0 60 -6t46 -20t29.5 -37.5t10.5 -58.5v-1062q0 -27 -8 -51t-24 -42t-38 -28.5t-50 -10.5 q-30 0 -58 17t-48 40l-685 805v-179t-0.5 -192t-0.5 -191.5v-178.5q0 -26 -9.5 -48t-25 -38.5t-37 -25.5t-47.5 -9t-48 9.5t-37.5 25.5t-25 38t-9.5 47v1068q-1 20 -6 39t-5 40zM460 1678q4 18 20 34q29 28 64.5 21.5t67.5 -37.5l103 -105l107 105q31 31 67 36.5t63 -20.5 q26 -27 22 -62t-30 -61l-180 -175q-24 -18 -53 -16.5t-53 25.5l-158 153q-13 13 -24 31t-15.5 35.5t-0.5 35.5z" />
<glyph unicode="&#x148;" horiz-adv-x="1242" d="M115 111v824q0 66 65 65q38 0 65.5 -26t41.5 -92l44 -187l25 -14v-570q0 -26 -9.5 -48t-26 -38.5t-38.5 -25.5t-46 -9q-26 0 -48 9t-38.5 25.5t-25.5 38.5t-9 48zM269 808q35 42 80.5 77.5t97.5 60.5t107 39t110 14q104 0 189.5 -39.5t146.5 -108t94 -160t33 -195.5v-385 q0 -24 -8.5 -45.5t-25 -38.5t-38.5 -27t-47 -10q-26 0 -48 9.5t-38.5 26t-26 38.5t-9.5 47v384q0 55 -19 104.5t-53 86.5t-80 58.5t-101 21.5q-54 0 -104.5 -22.5t-89 -60t-61 -87t-22.5 -103.5zM396 1406q4 18 20 34q29 28 64.5 21.5t67.5 -37.5l103 -105l107 105 q31 31 67 36.5t63 -20.5q26 -27 22 -62t-30 -61l-180 -175q-24 -18 -53 -16.5t-53 25.5l-158 153q-13 13 -24 31t-15.5 35.5t-0.5 35.5z" />
<glyph unicode="&#x149;" horiz-adv-x="1242" d="M34 1072q0 29 9 69.5t28 76.5t45.5 61.5t62.5 25.5q40 0 69.5 -23.5t36.5 -57.5q9 -34 -5.5 -71.5t-43 -69.5t-64 -53t-69.5 -21q-37 0 -53 15t-16 48zM115 111v824q0 66 65 65q38 0 65.5 -26t41.5 -92l44 -187l25 -14v-570q0 -26 -9.5 -48t-26 -38.5t-38.5 -25.5t-46 -9 q-26 0 -48 9t-38.5 25.5t-25.5 38.5t-9 48zM269 808q35 42 80.5 77.5t97.5 60.5t107 39t110 14q104 0 189.5 -39.5t146.5 -108t94 -160t33 -195.5v-385q0 -24 -8.5 -45.5t-25 -38.5t-38.5 -27t-47 -10q-26 0 -48 9.5t-38.5 26t-26 38.5t-9.5 47v384q0 55 -19 104.5t-53 86.5 t-80 58.5t-101 21.5q-54 0 -104.5 -22.5t-89 -60t-61 -87t-22.5 -103.5z" />
<glyph unicode="&#x14a;" horiz-adv-x="1412" d="M125 1247q0 10 3.5 19.5t13 15.5t25.5 9.5t42 3.5q28 0 49 -2.5t38 -9t32.5 -18t32.5 -28.5l686 -808l-1 735q0 24 -5.5 43t-5.5 39q0 13 3 22.5t14.5 15.5t32 8.5t56.5 2.5q33 0 60 -5.5t46 -20t29.5 -38t10.5 -57.5v-1062q0 -27 -8 -51t-24 -42t-38 -28.5t-50 -10.5 q-30 0 -58 16.5t-48 40.5l-685 805v-179.5t-0.5 -192t-0.5 -191.5v-179q0 -26 -9.5 -47.5t-25 -38t-37 -25.5t-47.5 -9t-48 9.5t-37.5 25.5t-25 38t-9.5 46v1068q-1 20 -6 39.5t-5 40.5zM784 -210q0 25 9.5 47t26.5 38t39 25.5t48 9.5q35 1 60.5 16t43 41t26.5 61t9 77v169 l241 -47v-61q0 -63 -6 -120t-21 -107q-19 -61 -51 -111t-76 -85.5t-101 -54.5t-127 -19q-26 0 -47.5 9.5t-38 25.5t-26 38t-9.5 48z" />
<glyph unicode="&#x14b;" horiz-adv-x="1262" d="M125 111v824q0 66 65 65q38 0 66 -26t41 -92l44 -187l26 -14v-570q0 -26 -10 -48t-26.5 -38.5t-38.5 -25.5t-46 -9q-26 0 -48 9t-38.5 25.5t-25.5 38.5t-9 48zM280 808q35 42 80.5 77.5t97 60.5t107 39t109.5 14q104 0 189.5 -39.5t146.5 -108t94.5 -160t33.5 -195.5 v-326q0 -24 -9 -45.5t-25.5 -38t-38.5 -27t-47 -10.5h-48t-38.5 5.5t-26 18.5t-9.5 38v384q0 55 -19 104.5t-52.5 86.5t-80 58.5t-101.5 21.5q-54 0 -104.5 -22.5t-88.5 -60t-60.5 -87t-22.5 -103.5zM635 -238q0 36 19.5 65t52.5 42q38 7 71.5 20t59.5 36t41.5 59t16.5 92 v238l242 -31v-166q0 -111 -23.5 -199t-71.5 -149.5t-119.5 -94t-167.5 -32.5q-25 0 -47 9t-38.5 25.5t-26 38.5t-9.5 47z" />
<glyph unicode="&#x14c;" horiz-adv-x="1441" d="M62 648q0 90 24 174t67 157.5t102.5 133t133 102.5t157.5 67t175 24q90 0 174 -24t157 -67t133 -102.5t103 -133t66.5 -157.5t23.5 -174q0 -91 -23.5 -175t-66.5 -157t-103 -133t-133 -103t-157 -66.5t-174 -23.5q-136 0 -256 51.5t-209.5 141t-141.5 209.5t-52 256z M304 646q0 -86 33 -162t89 -133.5t132.5 -91t162.5 -33.5t161.5 33.5t132.5 91.5t90 134.5t33 162.5t-33 162t-90 133t-132.5 90.5t-161.5 33.5t-162.5 -33.5t-132.5 -91t-89 -134t-33 -162.5zM365 1499q0 36 24 61t58 25h557q35 0 59 -25.5t24 -60.5q0 -34 -24.5 -59.5 t-58.5 -25.5h-557q-34 0 -58 25.5t-24 59.5z" />
<glyph unicode="&#x14d;" horiz-adv-x="1136" d="M62 496q0 104 40 195.5t109.5 160.5t161 108.5t195.5 39.5t196 -39.5t161 -108.5t109 -160.5t40 -195.5t-40 -196.5t-109 -161t-160.5 -108.5t-196.5 -40q-104 0 -195.5 40t-161 108.5t-109.5 161t-40 196.5zM214 1179q0 36 24 61t58 25h557q35 0 59 -25.5t24 -60.5 q0 -34 -24.5 -59.5t-58.5 -25.5h-557q-34 0 -58 25.5t-24 59.5zM306 496q0 -56 20 -106t55.5 -87t83.5 -58.5t103 -21.5t103 21.5t83.5 58.5t55.5 86.5t20 106.5q0 55 -20 104.5t-55.5 86.5t-83 58.5t-103.5 21.5q-55 0 -103 -21.5t-83.5 -58.5t-55.5 -86.5t-20 -104.5z" />
<glyph unicode="&#x14e;" horiz-adv-x="1441" d="M62 648q0 90 24 174t67 157.5t102.5 133t133 102.5t157.5 67t175 24q90 0 174 -24t157 -67t133 -102.5t103 -133t66.5 -157.5t23.5 -174q0 -91 -23.5 -175t-66.5 -157t-103 -133t-133 -103t-157 -66.5t-174 -23.5q-136 0 -256 51.5t-209.5 141t-141.5 209.5t-52 256z M304 646q0 -86 33 -162t89 -133.5t132.5 -91t162.5 -33.5t161.5 33.5t132.5 91.5t90 134.5t33 162.5t-33 162t-90 133t-132.5 90.5t-161.5 33.5t-162.5 -33.5t-132.5 -91t-89 -134t-33 -162.5zM500 1628q0 34 24 58.5t58 24.5q24 0 36 -9.5t18.5 -24.5t10 -32.5t10.5 -32.5 t21 -24.5t42 -9.5q27 0 41 9.5t21.5 24.5t11 32.5t10 32.5t18.5 24.5t36 9.5q35 0 58 -24t23 -58q0 -42 -18 -79t-48.5 -64t-69.5 -43t-83 -16t-84 16t-70 43.5t-48 64t-18 77.5z" />
<glyph unicode="&#x14f;" horiz-adv-x="1136" d="M62 496q0 104 40 195.5t109.5 160.5t161 108.5t195.5 39.5t196 -39.5t161 -108.5t109 -160.5t40 -195.5t-40 -196.5t-109 -161t-160.5 -108.5t-196.5 -40q-104 0 -195.5 40t-161 108.5t-109.5 161t-40 196.5zM306 496q0 -56 20 -106t55.5 -87t83.5 -58.5t103 -21.5 t103 21.5t83.5 58.5t55.5 86.5t20 106.5q0 55 -20 104.5t-55.5 86.5t-83 58.5t-103.5 21.5q-55 0 -103 -21.5t-83.5 -58.5t-55.5 -86.5t-20 -104.5zM350 1314q0 34 24 58.5t58 24.5q24 0 36 -9.5t18.5 -24.5t10 -32.5t10.5 -32.5t21 -24.5t42 -9.5q27 0 41 9.5t21.5 24.5 t11 32.5t10 32.5t18.5 24.5t36 9.5q35 0 58 -24t23 -58q0 -42 -18 -79t-48.5 -64t-69.5 -43t-83 -16t-84 16t-70 43.5t-48 64t-18 77.5z" />
<glyph unicode="&#x150;" horiz-adv-x="1441" d="M62 648q0 90 24 174t67 157.5t102.5 133t133 102.5t157.5 67t175 24q90 0 174 -24t157 -67t133 -102.5t103 -133t66.5 -157.5t23.5 -174q0 -91 -23.5 -175t-66.5 -157t-103 -133t-133 -103t-157 -66.5t-174 -23.5q-136 0 -256 51.5t-209.5 141t-141.5 209.5t-52 256z M304 646q0 -86 33 -162t89 -133.5t132.5 -91t162.5 -33.5t161.5 33.5t132.5 91.5t90 134.5t33 162.5t-33 162t-90 133t-132.5 90.5t-161.5 33.5t-162.5 -33.5t-132.5 -91t-89 -134t-33 -162.5zM395.5 1494q-0.5 9 2.5 18q1 15 17.5 44t43.5 57t60 49t67 21q22 0 41 -9.5 t33 -26t20 -37.5t2 -44q-4 -25 -28 -50t-54.5 -46t-62.5 -35t-50 -14q-25 -3 -50 8q-33 14 -39 48q-2 8 -2.5 17zM818 1494q0 9 1 18q1 15 18 44t44 57t60.5 49t67.5 21q22 0 41 -9.5t33 -26t19.5 -37.5t1.5 -44q-4 -25 -27.5 -50t-55 -46t-62.5 -35t-51 -14q-25 -3 -48 8 q-33 14 -40 48q-2 8 -2 17z" />
<glyph unicode="&#x151;" horiz-adv-x="1136" d="M62 496q0 104 40 195.5t109.5 160.5t161 108.5t195.5 39.5t196 -39.5t161 -108.5t109 -160.5t40 -195.5t-40 -196.5t-109 -161t-160.5 -108.5t-196.5 -40q-104 0 -195.5 40t-161 108.5t-109.5 161t-40 196.5zM264.5 1174q-0.5 9 2.5 18q1 15 17.5 44t43.5 57t60 49t67 21 q22 0 41 -9.5t33 -26t20 -37.5t2 -44q-4 -25 -28 -50t-54.5 -46t-62.5 -35t-50 -14q-25 -3 -50 8q-33 14 -39 48q-2 8 -2.5 17zM306 496q0 -56 20 -106t55.5 -87t83.5 -58.5t103 -21.5t103 21.5t83.5 58.5t55.5 86.5t20 106.5q0 55 -20 104.5t-55.5 86.5t-83 58.5 t-103.5 21.5q-55 0 -103 -21.5t-83.5 -58.5t-55.5 -86.5t-20 -104.5zM687 1174q0 9 1 18q1 15 18 44t44 57t60.5 49t67.5 21q22 0 41 -9.5t33 -26t19.5 -37.5t1.5 -44q-4 -25 -27.5 -50t-55 -46t-62.5 -35t-51 -14q-25 -3 -48 8q-33 14 -40 48q-2 8 -2 17z" />
<glyph unicode="&#x152;" horiz-adv-x="2173" d="M62 648q0 90 24 174t67 157.5t102.5 133t133 102.5t157.5 67t175 24q90 0 174 -24t157 -67t133 -102.5t103 -133t66.5 -157.5t23.5 -174q0 -91 -23.5 -175t-66.5 -157t-103 -133t-133 -103t-157 -66.5t-174 -23.5q-136 0 -256 51.5t-209.5 141t-141.5 209.5t-52 256z M304 646q0 -86 33 -162t89 -133.5t132.5 -91t162.5 -33.5t161.5 33.5t132.5 91.5t90 134.5t33 162.5t-33 162t-90 133t-132.5 90.5t-161.5 33.5t-162.5 -33.5t-132.5 -91t-89 -134t-33 -162.5zM1149 1256q0 23 15.5 37t61.5 14h762q40 0 67 -17t40.5 -42.5t13.5 -56t-13 -56 t-39.5 -42.5t-67.5 -17h-587v-315h456q28 0 52 -13t40 -33.5t21.5 -47t-4.5 -55.5q-12 -36 -41 -55.5t-67 -19.5h-457v-306h580q27 0 51 -8t42 -23.5t28.5 -37.5t10.5 -51q0 -27 -10.5 -49.5t-28 -38.5t-41 -24.5t-49.5 -8.5h-688q-65 0 -100.5 38.5t-35.5 101.5v1041 q-1 20 -6.5 42.5t-5.5 42.5z" />
<glyph unicode="&#x153;" horiz-adv-x="1895" d="M62 496q0 104 40 195.5t109.5 160.5t161 108.5t195.5 39.5t196 -39.5t161 -108.5t109 -160.5t40 -195.5t-40 -196.5t-109 -161t-160.5 -108.5t-196.5 -40q-104 0 -195.5 40t-161 108.5t-109.5 161t-40 196.5zM306 496q0 -56 20 -106t55.5 -87t83.5 -58.5t103 -21.5 t103 21.5t83.5 58.5t55.5 86.5t20 106.5q0 55 -20 104.5t-55.5 86.5t-83 58.5t-103.5 21.5q-55 0 -103 -21.5t-83.5 -58.5t-55.5 -86.5t-20 -104.5zM832 505q0 111 41 203.5t112 159.5t164 104.5t198 37.5q104 0 194.5 -36.5t158 -102t106.5 -156t39 -195.5 q0 -51 -26.5 -68.5t-91.5 -17.5h-647q4 -47 26 -89.5t57 -75t80 -52t96 -19.5q49 0 95.5 17t83.5 49q22 12 51 13t57 -9t47.5 -33t19.5 -58q0 -40 -33 -73t-84 -56t-115 -35.5t-123 -12.5q-104 0 -195.5 40t-161 108t-109.5 160t-40 197zM1078 585h523q-4 49 -26 91 t-56 72.5t-78.5 48t-93.5 17.5q-50 0 -96.5 -17.5t-82.5 -48t-60 -72t-30 -91.5z" />
<glyph unicode="&#x154;" horiz-adv-x="1155" d="M125 1265q0 11 3.5 20t13 15.5t25.5 10t42 3.5h374q105 0 200.5 -38.5t167 -105t114 -158t42.5 -196.5t-42.5 -193t-114 -152t-167 -100t-200.5 -36h-206v-224q0 -26 -9.5 -48t-25.5 -38.5t-38 -25.5t-48 -9t-48 9t-37.5 25.5t-25 38.5t-9.5 48v1075q-1 20 -6 40t-5 39z M373 545h210q59 0 111 19t91.5 53.5t62 83.5t22.5 109q0 59 -22.5 111t-62 91t-91.5 61.5t-111 22.5h-210v-551zM455 1517q0 9 2 18q0 15 20 44t48 57t60.5 49t59.5 21q24 0 43.5 -9.5t32.5 -26t19 -37.5t2 -44q-4 -19 -28.5 -44t-55 -47.5t-62.5 -38t-50 -15.5 q-25 -3 -49 8q-33 14 -40 48q-2 8 -2 17zM637 434l204 85l242 -340q15 -18 21.5 -40.5t4 -44.5t-14.5 -43t-32 -37q-20 -15 -42.5 -20.5t-45 -2.5t-42.5 14.5t-35 31.5z" />
<glyph unicode="&#x155;" horiz-adv-x="871" d="M115 111v824q0 66 65 65q38 0 65.5 -26t41.5 -92l44 -187l25 -14v-570q0 -26 -9.5 -48t-26 -38.5t-38.5 -25.5t-46 -9q-26 0 -48 9t-38.5 25.5t-25.5 38.5t-9 48zM276 819q18 25 47 52.5t66 52t81 43.5t94 27q36 3 81.5 -1t86 -18t68 -42t27.5 -71q0 -29 -14.5 -52 t-36.5 -35q-23 -13 -46 -15.5t-65 -0.5q-34 1 -69.5 3.5t-70.5 -8.5q-34 -11 -63 -33t-51 -52t-36.5 -68t-18.5 -80zM332 1187q0 9 2 18q0 15 20 44t48 57t60.5 49t59.5 21q24 0 43.5 -9.5t32.5 -26t19 -37.5t2 -44q-4 -19 -28.5 -44t-55 -47.5t-62.5 -38t-50 -15.5 q-25 -3 -49 8q-33 14 -40 48q-2 8 -2 17z" />
<glyph unicode="&#x156;" horiz-adv-x="1155" d="M125 1265q0 11 3.5 20t13 15.5t25.5 10t42 3.5h374q105 0 200.5 -38.5t167 -105t114 -158t42.5 -196.5t-42.5 -193t-114 -152t-167 -100t-200.5 -36h-206v-224q0 -26 -9.5 -48t-25.5 -38.5t-38 -25.5t-48 -9t-48 9t-37.5 25.5t-25 38.5t-9.5 48v1075q-1 20 -6 40t-5 39z M373 545h210q59 0 111 19t91.5 53.5t62 83.5t22.5 109q0 59 -22.5 111t-62 91t-91.5 61.5t-111 22.5h-210v-551zM459 -326.5q2 40.5 7 77.5q2 28 13 53t28.5 43.5t41.5 29t52 10.5q25 0 48 -9t40 -26t27.5 -40.5t9.5 -53.5q-7 -52 -29 -96t-50.5 -75.5t-60 -49t-58.5 -18.5 q-27 0 -44 23t-22 64q-5 27 -3 67.5zM637 434l204 85l242 -340q15 -18 21.5 -40.5t4 -44.5t-14.5 -43t-32 -37q-20 -15 -42.5 -20.5t-45 -2.5t-42.5 14.5t-35 31.5z" />
<glyph unicode="&#x157;" horiz-adv-x="870" d="M115 111v824q0 66 65 65q38 0 65.5 -26t41.5 -92l44 -187l25 -14v-570q0 -26 -9.5 -48t-26 -38.5t-38.5 -25.5t-46 -9q-26 0 -48 9t-38.5 25.5t-25.5 38.5t-9 48zM116 -294.5q2 40.5 7 77.5q2 28 13 53t28.5 43.5t41.5 29t52 10.5q25 0 48 -9t40 -26t27.5 -40.5 t9.5 -53.5q-7 -52 -29 -96t-50.5 -75.5t-60 -49t-58.5 -18.5q-27 0 -44 23t-22 64q-5 27 -3 67.5zM276 819q18 25 47 52.5t66 52t81 43.5t94 27q36 3 81.5 -1t86 -18t68 -42t27.5 -71q0 -29 -14.5 -52t-36.5 -35q-23 -13 -46 -15.5t-65 -0.5q-34 1 -69.5 3.5t-70.5 -8.5 q-34 -11 -63 -33t-51 -52t-36.5 -68t-18.5 -80z" />
<glyph unicode="&#x158;" horiz-adv-x="1155" d="M125 1265q0 11 3.5 20t13 15.5t25.5 10t42 3.5h374q105 0 200.5 -38.5t167 -105t114 -158t42.5 -196.5t-42.5 -193t-114 -152t-167 -100t-200.5 -36h-206v-224q0 -26 -9.5 -48t-25.5 -38.5t-38 -25.5t-48 -9t-48 9t-37.5 25.5t-25 38.5t-9.5 48v1075q-1 20 -6 40t-5 39z M291 1680q4 18 20 34q29 28 64.5 21.5t67.5 -37.5l103 -105l107 105q31 31 67 36.5t63 -20.5q26 -27 22 -62t-30 -61l-180 -175q-24 -18 -53 -16.5t-53 25.5l-158 153q-13 13 -24 31t-15.5 35.5t-0.5 35.5zM373 545h210q59 0 111 19t91.5 53.5t62 83.5t22.5 109 q0 59 -22.5 111t-62 91t-91.5 61.5t-111 22.5h-210v-551zM637 434l204 85l242 -340q15 -18 21.5 -40.5t4 -44.5t-14.5 -43t-32 -37q-20 -15 -42.5 -20.5t-45 -2.5t-42.5 14.5t-35 31.5z" />
<glyph unicode="&#x159;" horiz-adv-x="871" d="M115 111v824q0 66 65 65q38 0 65.5 -26t41.5 -92l44 -187l25 -14v-570q0 -26 -9.5 -48t-26 -38.5t-38.5 -25.5t-46 -9q-26 0 -48 9t-38.5 25.5t-25.5 38.5t-9 48zM221 1406q4 18 20 34q29 28 64.5 21.5t67.5 -37.5l103 -105l107 105q31 31 67 36.5t63 -20.5 q26 -27 22 -62t-30 -61l-180 -175q-24 -18 -53 -16.5t-53 25.5l-158 153q-13 13 -24 31t-15.5 35.5t-0.5 35.5zM276 819q18 25 47 52.5t66 52t81 43.5t94 27q36 3 81.5 -1t86 -18t68 -42t27.5 -71q0 -29 -14.5 -52t-36.5 -35q-23 -13 -46 -15.5t-65 -0.5q-34 1 -69.5 3.5 t-70.5 -8.5q-34 -11 -63 -33t-51 -52t-36.5 -68t-18.5 -80z" />
<glyph unicode="&#x15a;" horiz-adv-x="1029" d="M53 260q-3 25 2 47.5t18 40t33.5 28t48.5 10.5q27 0 52.5 -14t53.5 -38q14 -24 39 -45t56 -37t67.5 -26t75.5 -10q38 0 76 10t69.5 28.5t51.5 47t20 65.5q0 38 -27 67t-71 54.5t-100 49t-115 50.5t-115.5 59.5t-100 75t-70.5 97t-27 126.5q0 80 32.5 146t90 113 t136.5 73.5t172 26.5q46 0 94.5 -10.5t94.5 -29t86 -43t70.5 -53.5t48 -61t17.5 -64q0 -30 -9.5 -48.5t-24.5 -30.5t-36 -17t-45 -5q-14 -1 -27 0.5t-25.5 6.5t-26 14.5t-28.5 23.5q-51 52 -98 79.5t-107 27.5q-31 0 -63.5 -9.5t-59 -26.5t-43 -42.5t-16.5 -57.5 q0 -38 27.5 -68t73.5 -56t104.5 -51.5t119 -54t118.5 -61.5t104 -75.5t74 -97t28 -124.5q0 -91 -42 -162.5t-109.5 -120t-152 -74t-170.5 -25.5q-103 0 -182 24.5t-134 64t-87 87.5t-42 95zM409 1512q0 9 2 18q0 15 20 44t48 57t60.5 49t59.5 21q24 0 43.5 -9.5t32.5 -26 t19 -37.5t2 -44q-4 -19 -28.5 -44t-55 -47.5t-62.5 -38t-50 -15.5q-25 -3 -49 8q-33 14 -40 48q-2 8 -2 17z" />
<glyph unicode="&#x15b;" horiz-adv-x="1022" d="M63 260q-2 25 8 46t28 35t40.5 20t45.5 -2q24 -6 48.5 -32t59.5 -55t85 -52.5t126 -23.5q42 -3 79.5 1.5t66 15t45 28t16.5 41.5q0 22 -26 39t-68 34.5t-95 36t-109.5 41.5t-109.5 51.5t-95 66t-67.5 85.5t-25.5 109q0 46 26 93.5t77 85t126.5 61.5t172.5 24 q69 0 134 -12.5t118.5 -37.5t92 -63.5t56.5 -89.5q6 -30 -6 -53t-32 -37.5t-45 -19t-47 1.5q-23 8 -46.5 24.5t-51.5 34t-61.5 32.5t-74.5 20q-87 10 -138 -9t-51 -62q0 -37 44 -66t110.5 -56.5t143 -58t143 -69t111 -90.5t44.5 -123q0 -78 -39 -132t-102.5 -88.5 t-145 -49.5t-166.5 -15q-70 0 -144.5 18t-138.5 52.5t-108.5 85t-53.5 114.5zM446 1189q0 9 2 18q0 15 20 44t48 57t60.5 49t59.5 21q24 0 43.5 -9.5t32.5 -26t19 -37.5t2 -44q-4 -19 -28.5 -44t-55 -47.5t-62.5 -38t-50 -15.5q-25 -3 -49 8q-33 14 -40 48q-2 8 -2 17z" />
<glyph unicode="&#x15c;" horiz-adv-x="1029" d="M53 260q-3 25 2 47.5t18 40t33.5 28t48.5 10.5q27 0 52.5 -14t53.5 -38q14 -24 39 -45t56 -37t67.5 -26t75.5 -10q38 0 76 10t69.5 28.5t51.5 47t20 65.5q0 38 -27 67t-71 54.5t-100 49t-115 50.5t-115.5 59.5t-100 75t-70.5 97t-27 126.5q0 80 32.5 146t90 113 t136.5 73.5t172 26.5q46 0 94.5 -10.5t94.5 -29t86 -43t70.5 -53.5t48 -61t17.5 -64q0 -30 -9.5 -48.5t-24.5 -30.5t-36 -17t-45 -5q-14 -1 -27 0.5t-25.5 6.5t-26 14.5t-28.5 23.5q-51 52 -98 79.5t-107 27.5q-31 0 -63.5 -9.5t-59 -26.5t-43 -42.5t-16.5 -57.5 q0 -38 27.5 -68t73.5 -56t104.5 -51.5t119 -54t118.5 -61.5t104 -75.5t74 -97t28 -124.5q0 -91 -42 -162.5t-109.5 -120t-152 -74t-170.5 -25.5q-103 0 -182 24.5t-134 64t-87 87.5t-42 95zM277.5 1450q-4.5 18 0 36t15.5 35t24 31l157 154q24 24 53.5 25.5t53.5 -16.5 l180 -175q26 -27 29 -61.5t-22 -61.5q-27 -27 -63 -21t-67 36l-106 106l-104 -106q-31 -31 -67.5 -37t-63.5 22q-15 15 -19.5 33z" />
<glyph unicode="&#x15d;" horiz-adv-x="1022" d="M63 260q-2 25 8 46t28 35t40.5 20t45.5 -2q24 -6 48.5 -32t59.5 -55t85 -52.5t126 -23.5q42 -3 79.5 1.5t66 15t45 28t16.5 41.5q0 22 -26 39t-68 34.5t-95 36t-109.5 41.5t-109.5 51.5t-95 66t-67.5 85.5t-25.5 109q0 46 26 93.5t77 85t126.5 61.5t172.5 24 q69 0 134 -12.5t118.5 -37.5t92 -63.5t56.5 -89.5q6 -30 -6 -53t-32 -37.5t-45 -19t-47 1.5q-23 8 -46.5 24.5t-51.5 34t-61.5 32.5t-74.5 20q-87 10 -138 -9t-51 -62q0 -37 44 -66t110.5 -56.5t143 -58t143 -69t111 -90.5t44.5 -123q0 -78 -39 -132t-102.5 -88.5 t-145 -49.5t-166.5 -15q-70 0 -144.5 18t-138.5 52.5t-108.5 85t-53.5 114.5zM263.5 1140q-4.5 18 0 36t15.5 35t24 31l157 154q24 24 53.5 25.5t53.5 -16.5l180 -175q26 -27 29 -61.5t-22 -61.5q-27 -27 -63 -21t-67 36l-106 106l-104 -106q-31 -31 -67.5 -37t-63.5 22 q-15 15 -19.5 33z" />
<glyph unicode="&#x15e;" horiz-adv-x="1029" d="M53 260q-3 25 2 47.5t18 40t33.5 28t48.5 10.5q27 0 52.5 -14t53.5 -38q14 -24 39 -45t56 -37t67.5 -26t75.5 -10q38 0 76 10t69.5 28.5t51.5 47t20 65.5q0 38 -27 67t-71 54.5t-100 49t-115 50.5t-115.5 59.5t-100 75t-70.5 97t-27 126.5q0 80 32.5 146t90 113 t136.5 73.5t172 26.5q46 0 94.5 -10.5t94.5 -29t86 -43t70.5 -53.5t48 -61t17.5 -64q0 -30 -9.5 -48.5t-24.5 -30.5t-36 -17t-45 -5q-14 -1 -27 0.5t-25.5 6.5t-26 14.5t-28.5 23.5q-51 52 -98 79.5t-107 27.5q-31 0 -63.5 -9.5t-59 -26.5t-43 -42.5t-16.5 -57.5 q0 -38 27.5 -68t73.5 -56t104.5 -51.5t119 -54t118.5 -61.5t104 -75.5t74 -97t28 -124.5q0 -91 -42 -162.5t-109.5 -120t-152 -74t-170.5 -25.5q-103 0 -182 24.5t-134 64t-87 87.5t-42 95zM310.5 -310q-0.5 19 6.5 34t22.5 26t40.5 11q26 0 39.5 -14t23.5 -31.5t22 -32 t35 -14.5q11 0 23 3.5t22 11t15.5 20.5t5.5 30q-1 20 -12.5 34t-27.5 25t-35.5 21t-36 22.5t-28 29.5t-11.5 42v137h27t47 0.5t46.5 0.5h26.5v-26.5t1 -30.5t1.5 -28t2.5 -17q3 -8 8.5 -15.5t18.5 -13.5q34 -15 57.5 -39t37 -53t18.5 -62.5t1 -65.5q-11 -72 -62.5 -118.5 t-128.5 -52.5q-36 -3 -69.5 7.5t-60 29.5t-45 44t-25.5 51q-6 15 -6.5 34z" />
<glyph unicode="&#x15f;" horiz-adv-x="1022" d="M63 260q-2 25 8 46t28 35t40.5 20t45.5 -2q24 -6 48.5 -32t59.5 -55t85 -52.5t126 -23.5q42 -3 79.5 1.5t66 15t45 28t16.5 41.5q0 22 -26 39t-68 34.5t-95 36t-109.5 41.5t-109.5 51.5t-95 66t-67.5 85.5t-25.5 109q0 46 26 93.5t77 85t126.5 61.5t172.5 24 q69 0 134 -12.5t118.5 -37.5t92 -63.5t56.5 -89.5q6 -30 -6 -53t-32 -37.5t-45 -19t-47 1.5q-23 8 -46.5 24.5t-51.5 34t-61.5 32.5t-74.5 20q-87 10 -138 -9t-51 -62q0 -37 44 -66t110.5 -56.5t143 -58t143 -69t111 -90.5t44.5 -123q0 -78 -39 -132t-102.5 -88.5 t-145 -49.5t-166.5 -15q-70 0 -144.5 18t-138.5 52.5t-108.5 85t-53.5 114.5zM344.5 -326q-0.5 19 6.5 34t22.5 26t40.5 11q26 0 39.5 -14t23.5 -31.5t22 -32t35 -14.5q11 0 23 3.5t22 11t15.5 20.5t5.5 30q-1 20 -12.5 34t-27.5 25t-35.5 21t-36 22.5t-28 29.5t-11.5 42 v137h27t47 0.5t46.5 0.5h26.5v-26.5t1 -30.5t1.5 -28t2.5 -17q3 -8 8.5 -15.5t18.5 -13.5q34 -15 57.5 -39t37 -53t18.5 -62.5t1 -65.5q-11 -72 -62.5 -118.5t-128.5 -52.5q-36 -3 -69.5 7.5t-60 29.5t-45 44t-25.5 51q-6 15 -6.5 34z" />
<glyph unicode="&#x160;" horiz-adv-x="1029" d="M53 260q-3 25 2 47.5t18 40t33.5 28t48.5 10.5q27 0 52.5 -14t53.5 -38q14 -24 39 -45t56 -37t67.5 -26t75.5 -10q38 0 76 10t69.5 28.5t51.5 47t20 65.5q0 38 -27 67t-71 54.5t-100 49t-115 50.5t-115.5 59.5t-100 75t-70.5 97t-27 126.5q0 80 32.5 146t90 113 t136.5 73.5t172 26.5q46 0 94.5 -10.5t94.5 -29t86 -43t70.5 -53.5t48 -61t17.5 -64q0 -30 -9.5 -48.5t-24.5 -30.5t-36 -17t-45 -5q-14 -1 -27 0.5t-25.5 6.5t-26 14.5t-28.5 23.5q-51 52 -98 79.5t-107 27.5q-31 0 -63.5 -9.5t-59 -26.5t-43 -42.5t-16.5 -57.5 q0 -38 27.5 -68t73.5 -56t104.5 -51.5t119 -54t118.5 -61.5t104 -75.5t74 -97t28 -124.5q0 -91 -42 -162.5t-109.5 -120t-152 -74t-170.5 -25.5q-103 0 -182 24.5t-134 64t-87 87.5t-42 95zM243 1706q4 18 20 34q29 28 64.5 21.5t67.5 -37.5l103 -105l107 105q31 31 67 36.5 t63 -20.5q26 -27 22 -62t-30 -61l-180 -175q-24 -18 -53 -16.5t-53 25.5l-158 153q-13 13 -24 31t-15.5 35.5t-0.5 35.5z" />
<glyph unicode="&#x161;" horiz-adv-x="1022" d="M63 260q-2 25 8 46t28 35t40.5 20t45.5 -2q24 -6 48.5 -32t59.5 -55t85 -52.5t126 -23.5q42 -3 79.5 1.5t66 15t45 28t16.5 41.5q0 22 -26 39t-68 34.5t-95 36t-109.5 41.5t-109.5 51.5t-95 66t-67.5 85.5t-25.5 109q0 46 26 93.5t77 85t126.5 61.5t172.5 24 q69 0 134 -12.5t118.5 -37.5t92 -63.5t56.5 -89.5q6 -30 -6 -53t-32 -37.5t-45 -19t-47 1.5q-23 8 -46.5 24.5t-51.5 34t-61.5 32.5t-74.5 20q-87 10 -138 -9t-51 -62q0 -37 44 -66t110.5 -56.5t143 -58t143 -69t111 -90.5t44.5 -123q0 -78 -39 -132t-102.5 -88.5 t-145 -49.5t-166.5 -15q-70 0 -144.5 18t-138.5 52.5t-108.5 85t-53.5 114.5zM275 1395q4 18 20 34q29 28 64.5 21.5t67.5 -37.5l103 -105l107 105q31 31 67 36.5t63 -20.5q26 -27 22 -62t-30 -61l-180 -175q-24 -18 -53 -16.5t-53 25.5l-158 153q-13 13 -24 31t-15.5 35.5 t-0.5 35.5z" />
<glyph unicode="&#x162;" horiz-adv-x="1160" d="M32 1186q0 25 9 46.5t25.5 38t39.5 26.5t50 10h846q26 0 49.5 -9t40.5 -25t27 -38t10 -49t-9.5 -48.5t-26.5 -38t-40 -25t-49 -8.5h-302l-3 -955q0 -26 -8.5 -48t-24 -38.5t-37.5 -25.5t-47 -9q-27 0 -49 9t-37.5 25.5t-24 38.5t-8.5 48l-2 955h-305q-27 0 -49.5 8.5 t-39 24.5t-26 38t-9.5 49zM451 -325.5q2 40.5 7 77.5q2 28 13 53t28.5 43.5t41.5 29t52 10.5q25 0 48 -9t40 -26t27.5 -40.5t9.5 -53.5q-7 -52 -29 -96t-50.5 -75.5t-60 -49t-58.5 -18.5q-27 0 -44 23t-22 64q-5 27 -3 67.5z" />
<glyph unicode="&#x163;" horiz-adv-x="736" d="M32 863q0 26 9 47.5t25 37.5t37.5 24.5t46.5 8.5h440q25 0 46 -8.5t37 -24.5t25.5 -37.5t9.5 -47.5q0 -25 -9.5 -45.5t-25.5 -37t-37.5 -26t-45.5 -9.5h-440q-25 0 -46.5 9.5t-37.5 26t-25 37.5t-9 45zM237 -307.5q2 40.5 7 77.5q2 28 13 53t28.5 43.5t41.5 29t52 10.5 q25 0 48 -9t40 -26t27.5 -40.5t9.5 -53.5q-7 -52 -29 -96t-50.5 -75.5t-60 -49t-58.5 -18.5q-27 0 -44 23t-22 64q-5 27 -3 67.5zM247 111v1082q0 25 9 47t25 38t38 25.5t48 9.5q25 0 46.5 -9.5t38 -25.5t26 -38t9.5 -47v-1082q0 -26 -9.5 -48t-26 -38.5t-38.5 -25.5t-46 -9 q-26 0 -48 9t-38 25.5t-25 38.5t-9 48z" />
<glyph unicode="&#x164;" horiz-adv-x="1160" d="M32 1186q0 25 9 46.5t25.5 38t39.5 26.5t50 10h846q26 0 49.5 -9t40.5 -25t27 -38t10 -49t-9.5 -48.5t-26.5 -38t-40 -25t-49 -8.5h-302l-3 -955q0 -26 -8.5 -48t-24 -38.5t-37.5 -25.5t-47 -9q-27 0 -49 9t-37.5 25.5t-24 38.5t-8.5 48l-2 955h-305q-27 0 -49.5 8.5 t-39 24.5t-26 38t-9.5 49zM332 1703q4 18 20 34q29 28 64.5 21.5t67.5 -37.5l103 -105l107 105q31 31 67 36.5t63 -20.5q26 -27 22 -62t-30 -61l-180 -175q-24 -18 -53 -16.5t-53 25.5l-158 153q-13 13 -24 31t-15.5 35.5t-0.5 35.5z" />
<glyph unicode="&#x165;" horiz-adv-x="736" d="M32 863q0 26 9 47.5t25 37.5t37.5 24.5t46.5 8.5h440q25 0 46 -8.5t37 -24.5t25.5 -37.5t9.5 -47.5q0 -25 -9.5 -45.5t-25.5 -37t-37.5 -26t-45.5 -9.5h-440q-25 0 -46.5 9.5t-37.5 26t-25 37.5t-9 45zM247 111v1082q0 25 9 47t25 38t38 25.5t48 9.5q25 0 46.5 -9.5 t38 -25.5t26 -38t9.5 -47v-1082q0 -26 -9.5 -48t-26 -38.5t-38.5 -25.5t-46 -9q-26 0 -48 9t-38 25.5t-25 38.5t-9 48zM607 1130q0 35 11 82.5t33 89.5t53.5 72t73.5 30q47 0 81.5 -27.5t43.5 -67.5q10 -40 -7 -84t-50.5 -81.5t-75.5 -62.5t-82 -25q-43 0 -62 18t-19 56z " />
<glyph unicode="&#x166;" horiz-adv-x="1160" d="M32 1186q0 25 9 46.5t25.5 38t39.5 26.5t50 10h846q26 0 49.5 -9t40.5 -25t27 -38t10 -49t-9.5 -48.5t-26.5 -38t-40 -25t-49 -8.5h-302l-3 -955q0 -26 -8.5 -48t-24 -38.5t-37.5 -25.5t-47 -9q-27 0 -49 9t-37.5 25.5t-24 38.5t-8.5 48l-2 955h-305q-27 0 -49.5 8.5 t-39 24.5t-26 38t-9.5 49zM219 634q0 36 24 61t58 25h557q35 0 59 -25.5t24 -60.5q0 -34 -24.5 -59.5t-58.5 -25.5h-557q-34 0 -58 25.5t-24 59.5z" />
<glyph unicode="&#x167;" horiz-adv-x="735" d="M21 504q0 37 23 63.5t56 26.5h534q33 0 56 -27t23 -63t-23.5 -63t-55.5 -27h-534q-33 0 -56 27t-23 63zM32 863q0 26 9 47.5t25 37.5t37.5 24.5t46.5 8.5h440q25 0 46 -8.5t37 -24.5t25.5 -37.5t9.5 -47.5q0 -25 -9.5 -45.5t-25.5 -37t-37.5 -26t-45.5 -9.5h-440 q-25 0 -46.5 9.5t-37.5 26t-25 37.5t-9 45zM247 111v1082q0 25 9 47t25 38t38 25.5t48 9.5q25 0 46.5 -9.5t38 -25.5t26 -38t9.5 -47v-1082q0 -26 -9.5 -48t-26 -38.5t-38.5 -25.5t-46 -9q-26 0 -48 9t-38 25.5t-25 38.5t-9 48z" />
<glyph unicode="&#x168;" d="M75 1256q0 11 3.5 20.5t12.5 15.5t25.5 10t42.5 4q34 0 63.5 -6t52.5 -21t36.5 -42.5t15.5 -70.5v-653q0 -62 22.5 -117t65 -95.5t103 -64t136.5 -23.5q71 0 131 23.5t104 64t69 95.5t25 117l-1 665q-1 20 -6 40t-5 38q0 11 3.5 20.5t12.5 15.5t25.5 10t42.5 4 q33 0 63 -5.5t53.5 -20.5t37.5 -43t14 -72l1 -651q-1 -112 -44.5 -210t-120 -172t-180.5 -117t-225 -43q-124 0 -228 42.5t-180 116t-118.5 172t-42.5 211.5l1 664q-1 20 -6 40t-5 38zM359 1534.5q1 15.5 6 30.5q18 58 62 95q11 9 23.5 15.5t26.5 11.5q12 4 26.5 7t30.5 3 q48 0 76 -17t48.5 -38t39.5 -38t50 -17q15 0 24 8t18.5 19.5t22 24t36.5 21.5q12 7 29 5t30.5 -13t20 -30.5t-2.5 -46.5q-8 -28 -24.5 -52.5t-40 -43t-53.5 -29t-64 -10.5q-43 0 -69.5 16.5t-46.5 37.5t-40.5 38t-51.5 17q-25 0 -38 -11t-22 -25t-18.5 -27t-27.5 -16 q-10 -1 -23 0q-18 3 -29 13.5t-15.5 23t-3.5 28z" />
<glyph unicode="&#x169;" horiz-adv-x="1242" d="M115 496v385q0 23 8.5 44.5t25 38t38 26.5t47.5 10t48 -9t38.5 -25.5t26 -38.5t9.5 -46v-384q0 -56 19 -106t53 -87t80 -58.5t101 -21.5q54 0 104.5 22.5t89 60.5t61 87.5t22.5 104.5l88 -317q-36 -42 -81.5 -77t-97.5 -60.5t-107 -39.5t-109 -14q-104 0 -190 40 t-147 108t-94 160t-33 197zM332 1223.5q1 15.5 6 30.5q18 58 62 95q11 9 23.5 15.5t26.5 11.5q12 4 26.5 7t30.5 3q48 0 76 -17t48.5 -38t39.5 -38t50 -17q15 0 24 8t18.5 19.5t22 24t36.5 21.5q12 7 29 5t30.5 -13t20 -30.5t-2.5 -46.5q-8 -28 -24.5 -52.5t-40 -43 t-53.5 -29t-64 -10.5q-43 0 -69.5 16.5t-46.5 37.5t-40.5 38t-51.5 17q-25 0 -38 -11t-22 -25t-18.5 -27t-27.5 -16q-10 -1 -23 0q-18 3 -29 13.5t-15.5 23t-3.5 28zM886 309v572q0 26 9.5 47t26 37.5t38.5 25.5t47 9q26 0 47.5 -9t38 -25.5t25.5 -38t9 -46.5v-826 q0 -66 -65 -65q-37 0 -65 26t-42 93l-44 187z" />
<glyph unicode="&#x16a;" d="M75 1256q0 11 3.5 20.5t12.5 15.5t25.5 10t42.5 4q34 0 63.5 -6t52.5 -21t36.5 -42.5t15.5 -70.5v-653q0 -62 22.5 -117t65 -95.5t103 -64t136.5 -23.5q71 0 131 23.5t104 64t69 95.5t25 117l-1 665q-1 20 -6 40t-5 38q0 11 3.5 20.5t12.5 15.5t25.5 10t42.5 4 q33 0 63 -5.5t53.5 -20.5t37.5 -43t14 -72l1 -651q-1 -112 -44.5 -210t-120 -172t-180.5 -117t-225 -43q-124 0 -228 42.5t-180 116t-118.5 172t-42.5 211.5l1 664q-1 20 -6 40t-5 38zM276 1515q0 36 24 61t58 25h557q35 0 59 -25.5t24 -60.5q0 -34 -24.5 -59.5t-58.5 -25.5 h-557q-34 0 -58 25.5t-24 59.5z" />
<glyph unicode="&#x16b;" horiz-adv-x="1241" d="M115 496v385q0 23 8.5 44.5t25 38t38 26.5t47.5 10t48 -9t38.5 -25.5t26 -38.5t9.5 -46v-384q0 -56 19 -106t53 -87t80 -58.5t101 -21.5q54 0 104.5 22.5t89 60.5t61 87.5t22.5 104.5l88 -317q-36 -42 -81.5 -77t-97.5 -60.5t-107 -39.5t-109 -14q-104 0 -190 40 t-147 108t-94 160t-33 197zM260 1188q0 36 24 61t58 25h557q35 0 59 -25.5t24 -60.5q0 -34 -24.5 -59.5t-58.5 -25.5h-557q-34 0 -58 25.5t-24 59.5zM886 309v572q0 26 9.5 47t26 37.5t38.5 25.5t47 9q26 0 47.5 -9t38 -25.5t25.5 -38t9 -46.5v-826q0 -66 -65 -65 q-37 0 -65 26t-42 93l-44 187z" />
<glyph unicode="&#x16c;" d="M75 1256q0 11 3.5 20.5t12.5 15.5t25.5 10t42.5 4q34 0 63.5 -6t52.5 -21t36.5 -42.5t15.5 -70.5v-653q0 -62 22.5 -117t65 -95.5t103 -64t136.5 -23.5q71 0 131 23.5t104 64t69 95.5t25 117l-1 665q-1 20 -6 40t-5 38q0 11 3.5 20.5t12.5 15.5t25.5 10t42.5 4 q33 0 63 -5.5t53.5 -20.5t37.5 -43t14 -72l1 -651q-1 -112 -44.5 -210t-120 -172t-180.5 -117t-225 -43q-124 0 -228 42.5t-180 116t-118.5 172t-42.5 211.5l1 664q-1 20 -6 40t-5 38zM417 1617q0 34 24 58.5t58 24.5q24 0 36 -9.5t18.5 -24.5t10 -32.5t10.5 -32.5t21 -24.5 t42 -9.5q27 0 41 9.5t21.5 24.5t11 32.5t10 32.5t18.5 24.5t36 9.5q35 0 58 -24t23 -58q0 -42 -18 -79t-48.5 -64t-69.5 -43t-83 -16t-84 16t-70 43.5t-48 64t-18 77.5z" />
<glyph unicode="&#x16d;" horiz-adv-x="1241" d="M115 496v385q0 23 8.5 44.5t25 38t38 26.5t47.5 10t48 -9t38.5 -25.5t26 -38.5t9.5 -46v-384q0 -56 19 -106t53 -87t80 -58.5t101 -21.5q54 0 104.5 22.5t89 60.5t61 87.5t22.5 104.5l88 -317q-36 -42 -81.5 -77t-97.5 -60.5t-107 -39.5t-109 -14q-104 0 -190 40 t-147 108t-94 160t-33 197zM397 1304q0 34 24 58.5t58 24.5q24 0 36 -9.5t18.5 -24.5t10 -32.5t10.5 -32.5t21 -24.5t42 -9.5q27 0 41 9.5t21.5 24.5t11 32.5t10 32.5t18.5 24.5t36 9.5q35 0 58 -24t23 -58q0 -42 -18 -79t-48.5 -64t-69.5 -43t-83 -16t-84 16t-70 43.5 t-48 64t-18 77.5zM886 309v572q0 26 9.5 47t26 37.5t38.5 25.5t47 9q26 0 47.5 -9t38 -25.5t25.5 -38t9 -46.5v-826q0 -66 -65 -65q-37 0 -65 26t-42 93l-44 187z" />
<glyph unicode="&#x16e;" horiz-adv-x="1305" d="M75 1256q0 11 3.5 20.5t12.5 15.5t25.5 10t42.5 4q34 0 63.5 -6t52.5 -21t36.5 -42.5t15.5 -70.5v-653q0 -62 22.5 -117t65 -95.5t103 -64t136.5 -23.5q71 0 131 23.5t104 64t69 95.5t25 117l-1 665q-1 20 -6 40t-5 38q0 11 3.5 20.5t12.5 15.5t25.5 10t42.5 4 q33 0 63 -5.5t53.5 -20.5t37.5 -43t14 -72l1 -651q-1 -112 -44.5 -210t-120 -172t-180.5 -117t-225 -43q-124 0 -228 42.5t-180 116t-118.5 172t-42.5 211.5l1 664q-1 20 -6 40t-5 38zM479 1550q0 34 13 63.5t34.5 52t51 35t63.5 12.5t63 -12.5t51 -35t35 -52t13 -63.5 q0 -33 -13 -62.5t-35 -51.5t-51 -35t-63 -13t-63.5 13t-51 35t-34.5 51.5t-13 62.5zM584 1550q0 -25 16.5 -42t40.5 -17q25 0 41 17.5t16 41.5q0 25 -16 43t-41 18t-41 -18t-16 -43z" />
<glyph unicode="&#x16f;" horiz-adv-x="1242" d="M115 496v385q0 23 8.5 44.5t25 38t38 26.5t47.5 10t48 -9t38.5 -25.5t26 -38.5t9.5 -46v-384q0 -56 19 -106t53 -87t80 -58.5t101 -21.5q54 0 104.5 22.5t89 60.5t61 87.5t22.5 104.5l88 -317q-36 -42 -81.5 -77t-97.5 -60.5t-107 -39.5t-109 -14q-104 0 -190 40 t-147 108t-94 160t-33 197zM452 1279q0 34 13 63.5t34.5 52t51 35t63.5 12.5t63 -12.5t51 -35t35 -52t13 -63.5q0 -33 -13 -62.5t-35 -51.5t-51 -35t-63 -13t-63.5 13t-51 35t-34.5 51.5t-13 62.5zM557 1279q0 -25 16.5 -42t40.5 -17q25 0 41 17.5t16 41.5q0 25 -16 43 t-41 18t-41 -18t-16 -43zM886 309v572q0 26 9.5 47t26 37.5t38.5 25.5t47 9q26 0 47.5 -9t38 -25.5t25.5 -38t9 -46.5v-826q0 -66 -65 -65q-37 0 -65 26t-42 93l-44 187z" />
<glyph unicode="&#x170;" d="M75 1256q0 11 3.5 20.5t12.5 15.5t25.5 10t42.5 4q34 0 63.5 -6t52.5 -21t36.5 -42.5t15.5 -70.5v-653q0 -62 22.5 -117t65 -95.5t103 -64t136.5 -23.5q71 0 131 23.5t104 64t69 95.5t25 117l-1 665q-1 20 -6 40t-5 38q0 11 3.5 20.5t12.5 15.5t25.5 10t42.5 4 q33 0 63 -5.5t53.5 -20.5t37.5 -43t14 -72l1 -651q-1 -112 -44.5 -210t-120 -172t-180.5 -117t-225 -43q-124 0 -228 42.5t-180 116t-118.5 172t-42.5 211.5l1 664q-1 20 -6 40t-5 38zM295.5 1482q-0.5 9 2.5 18q1 15 17.5 44t43.5 57t60 49t67 21q22 0 41 -9.5t33 -26 t20 -37.5t2 -44q-4 -25 -28 -50t-54.5 -46t-62.5 -35t-50 -14q-25 -3 -50 8q-33 14 -39 48q-2 8 -2.5 17zM718 1482q0 9 1 18q1 15 18 44t44 57t60.5 49t67.5 21q22 0 41 -9.5t33 -26t19.5 -37.5t1.5 -44q-4 -25 -27.5 -50t-55 -46t-62.5 -35t-51 -14q-25 -3 -48 8 q-33 14 -40 48q-2 8 -2 17z" />
<glyph unicode="&#x171;" horiz-adv-x="1241" d="M115 496v385q0 23 8.5 44.5t25 38t38 26.5t47.5 10t48 -9t38.5 -25.5t26 -38.5t9.5 -46v-384q0 -56 19 -106t53 -87t80 -58.5t101 -21.5q54 0 104.5 22.5t89 60.5t61 87.5t22.5 104.5l88 -317q-36 -42 -81.5 -77t-97.5 -60.5t-107 -39.5t-109 -14q-104 0 -190 40 t-147 108t-94 160t-33 197zM304.5 1189q-0.5 9 2.5 18q1 15 17.5 44t43.5 57t60 49t67 21q22 0 41 -9.5t33 -26t20 -37.5t2 -44q-4 -25 -28 -50t-54.5 -46t-62.5 -35t-50 -14q-25 -3 -50 8q-33 14 -39 48q-2 8 -2.5 17zM727 1189q0 9 1 18q1 15 18 44t44 57t60.5 49t67.5 21 q22 0 41 -9.5t33 -26t19.5 -37.5t1.5 -44q-4 -25 -27.5 -50t-55 -46t-62.5 -35t-51 -14q-25 -3 -48 8q-33 14 -40 48q-2 8 -2 17zM886 309v572q0 26 9.5 47t26 37.5t38.5 25.5t47 9q26 0 47.5 -9t38 -25.5t25.5 -38t9 -46.5v-826q0 -66 -65 -65q-37 0 -65 26t-42 93l-44 187 z" />
<glyph unicode="&#x172;" d="M75 1256q0 11 3.5 20.5t12.5 15.5t25.5 10t42.5 4q34 0 63.5 -6t52.5 -21t36.5 -42.5t15.5 -70.5v-653q0 -62 22.5 -117t65 -95.5t103 -64t136.5 -23.5q71 0 131 23.5t104 64t69 95.5t25 117l-1 665q-1 20 -6 40t-5 38q0 11 3.5 20.5t12.5 15.5t25.5 10t42.5 4 q33 0 63 -5.5t53.5 -20.5t37.5 -43t14 -72l1 -651q-1 -112 -44.5 -210t-120 -172t-180.5 -117t-225 -43q-124 0 -228 42.5t-180 116t-118.5 172t-42.5 211.5l1 664q-1 20 -6 40t-5 38zM699 -84q0 35 13.5 65.5t41 62t68.5 67.5t93 82q14 14 31.5 16t34 -4t28.5 -19.5 t17.5 -30t1.5 -33.5t-20 -33l-68 -60q-19 -18 -35 -32t-27.5 -26.5t-17.5 -24.5t-6 -27q0 -20 12 -35.5t37 -15.5q17 0 26.5 8t15 20.5t10.5 27t12.5 26.5t21 20.5t36.5 8.5q25 0 46.5 -17.5t21.5 -45.5q0 -42 -15.5 -77t-42 -61.5t-62 -41t-76.5 -14.5q-42 0 -78 14.5 t-63 41t-42 61.5t-15 77z" />
<glyph unicode="&#x173;" horiz-adv-x="1241" d="M115 496v385q0 23 8.5 44.5t25 38t38 26.5t47.5 10t48 -9t38.5 -25.5t26 -38.5t9.5 -46v-384q0 -56 19 -106t53 -87t80 -58.5t101 -21.5q54 0 104.5 22.5t89 60.5t61 87.5t22.5 104.5l88 -317q-36 -42 -81.5 -77t-97.5 -60.5t-107 -39.5t-109 -14q-104 0 -190 40 t-147 108t-94 160t-33 197zM793 -179q0 35 13.5 65.5t41 62t68.5 67.5t93 82q14 14 31.5 16t34 -4t28.5 -19.5t17.5 -30t1.5 -33.5t-20 -33l-68 -60q-19 -18 -35 -32t-27.5 -26.5t-17.5 -24.5t-6 -27q0 -20 12 -35.5t37 -15.5q17 0 26.5 8t15 20.5t10.5 27t12.5 26.5 t21 20.5t36.5 8.5q25 0 46.5 -17.5t21.5 -45.5q0 -42 -15.5 -77t-42 -61.5t-62 -41t-76.5 -14.5q-42 0 -78 14.5t-63 41t-42 61.5t-15 77zM886 309v572q0 26 9.5 47t26 37.5t38.5 25.5t47 9q26 0 47.5 -9t38 -25.5t25.5 -38t9 -46.5v-826q0 -66 -65 -65q-37 0 -65 26t-42 93 l-44 187z" />
<glyph unicode="&#x174;" horiz-adv-x="1721" d="M31.5 1192q0.5 23 9.5 44.5t26 38.5t41 27q24 9 47.5 8.5t45 -9.5t38.5 -26t25 -40l373 -1055l41 -24q9 -24 8.5 -48t-10 -45.5t-27 -38.5t-40.5 -26q-48 -18 -92 0.5t-64 67.5l-413 1079q-9 24 -8.5 47zM446 108q-1 24 9 48l42 24l261 731q7 20 22 35.5t34 23.5 t40.5 8.5t41.5 -7.5q22 -8 34 -23.5t16.5 -34t2 -40t-9.5 -42.5l-259 -765q-19 -48 -64 -67t-93 -1q-24 9 -40.5 26t-26 38.5t-10.5 45.5zM618.5 1400q-4.5 18 0 36t15.5 35t24 31l157 154q24 24 53.5 25.5t53.5 -16.5l180 -175q26 -27 29 -61.5t-22 -61.5q-27 -27 -63 -21 t-67 36l-106 106l-104 -106q-31 -31 -67.5 -37t-63.5 22q-15 15 -19.5 33zM765.5 874q-2.5 21 2 40t17 34t33.5 24q20 8 42 7.5t41 -8.5t33.5 -23t21.5 -36l269 -732l41 -24q9 -24 8.5 -48t-10.5 -45.5t-27 -38.5t-40 -26q-48 -18 -92 0.5t-65 67.5l-264 767q-8 20 -10.5 41 zM1033.5 108q-0.5 24 8.5 48l42 24l373 1055q8 27 29.5 42t48.5 19q16 9 37 11.5t42 -5.5q24 -9 40.5 -26.5t26 -39t10 -45t-9.5 -46.5l-413 -1079q-19 -48 -64 -67t-93 -1q-24 9 -40.5 26t-26.5 38.5t-10.5 45.5z" />
<glyph unicode="&#x175;" horiz-adv-x="1674" d="M34 881q-2 35 14.5 64t50.5 45q23 10 47 12t45.5 -6t40 -24t29.5 -38l236 -583l229 583q11 28 35 45t54 21q39 7 76 -10.5t57 -54.5l222 -584l243 583q9 23 27 38.5t40 23.5t46.5 6t48.5 -12q33 -15 51 -44.5t15 -61.5q0 -6 -3 -20t-8.5 -31t-12 -34.5t-12.5 -31.5 l-326 -709q-28 -54 -83 -65q-19 -5 -40.5 -3t-41 10t-35.5 23t-23 35l-220 570l-202 -511q-22 -55 -59.5 -91t-80.5 -36q-34 -1 -63 16t-45 51l-313 707q-27 60 -39 117zM585.5 1179q-4.5 18 0 36t15.5 35t24 31l157 154q24 24 53.5 25.5t53.5 -16.5l180 -175 q26 -27 29 -61.5t-22 -61.5q-27 -27 -63 -21t-67 36l-106 106l-104 -106q-31 -31 -67.5 -37t-63.5 22q-15 15 -19.5 33z" />
<glyph unicode="&#x176;" horiz-adv-x="1239" d="M26 1186q0 23 8 44.5t26 40.5q18 17 41.5 26.5t47 10t45 -9t36.5 -28.5l404 -510q18 -18 28 -39.5t11 -43.5t-8 -43.5t-27 -39.5q-17 -17 -27.5 -38.5t-18.5 -36.5t-18.5 -18t-28.5 15l-486 584q-16 19 -24.5 41t-8.5 45zM373.5 1444q-4.5 18 0 36t15.5 35t24 31l157 154 q24 24 53.5 25.5t53.5 -16.5l180 -175q26 -27 29 -61.5t-22 -61.5q-27 -27 -63 -21t-67 36l-106 106l-104 -106q-31 -31 -67.5 -37t-63.5 22q-15 15 -19.5 33zM502 110v529q0 25 9 47t25 38t38 25.5t48 9.5t47.5 -9.5t38 -25.5t25.5 -38t9 -47v-529q0 -26 -9 -48 t-25.5 -38.5t-38.5 -25.5t-47 -9q-26 0 -48 9t-38 25.5t-25 38.5t-9 48zM570 677q1 22 11 43t28 40l404 510q15 19 36.5 28.5t45 9t46.5 -10t42 -26.5q17 -17 26 -39.5t9 -45.5t-9 -45.5t-25 -40.5l-491 -587q-18 -18 -28 -14t-17.5 19.5t-16 37t-26.5 38.5q-18 18 -27 39.5 t-8 43.5z" />
<glyph unicode="&#x177;" horiz-adv-x="1034" d="M48.5 923q12.5 48 62.5 71q23 10 48 12t48.5 -7t42.5 -27.5t30 -45.5l241 -617q55 141 99 253t74.5 192t48 125.5t21.5 54.5q9 22 26.5 38.5t39 25.5t46.5 9t52 -13q13 -6 29.5 -20.5t26.5 -34.5t11.5 -48t-13.5 -61l-408 -915q-23 -51 -51.5 -91.5t-67.5 -69t-89.5 -45 t-114.5 -18.5q-59 -1 -97.5 29.5t-38.5 89.5q0 29 11.5 45.5t31 27.5t44 18t49.5 15t49.5 20t41.5 32l53 118q0 1 -14.5 33t-38.5 84t-54 118t-62 136l-168 368q-22 50 -9.5 98zM291.5 1131q-4.5 18 0 36t15.5 35t24 31l157 154q24 24 53.5 25.5t53.5 -16.5l180 -175 q26 -27 29 -61.5t-22 -61.5q-27 -27 -63 -21t-67 36l-106 106l-104 -106q-31 -31 -67.5 -37t-63.5 22q-15 15 -19.5 33z" />
<glyph unicode="&#x178;" horiz-adv-x="1239" d="M26 1186q0 23 8 44.5t26 40.5q18 17 41.5 26.5t47 10t45 -9t36.5 -28.5l404 -510q18 -18 28 -39.5t11 -43.5t-8 -43.5t-27 -39.5q-17 -17 -27.5 -38.5t-18.5 -36.5t-18.5 -18t-28.5 15l-486 584q-16 19 -24.5 41t-8.5 45zM338 1519q0 23 9 42.5t23 35t34 24t44 8.5 q23 0 42.5 -8.5t35 -24t24 -35.5t8.5 -42q0 -24 -8.5 -44t-24 -34.5t-35.5 -23t-42 -8.5q-24 0 -44 8.5t-34 23t-23 34.5t-9 44zM502 110v529q0 25 9 47t25 38t38 25.5t48 9.5t47.5 -9.5t38 -25.5t25.5 -38t9 -47v-529q0 -26 -9 -48t-25.5 -38.5t-38.5 -25.5t-47 -9 q-26 0 -48 9t-38 25.5t-25 38.5t-9 48zM570 677q1 22 11 43t28 40l404 510q15 19 36.5 28.5t45 9t46.5 -10t42 -26.5q17 -17 26 -39.5t9 -45.5t-9 -45.5t-25 -40.5l-491 -587q-18 -18 -28 -14t-17.5 19.5t-16 37t-26.5 38.5q-18 18 -27 39.5t-8 43.5zM679 1519q0 23 9 42.5 t23 35t34 24t43 8.5t43 -8.5t35 -24t23.5 -35.5t8.5 -42q0 -24 -8.5 -44t-23.5 -34.5t-35.5 -23t-42.5 -8.5q-23 0 -43 8.5t-34 23t-23 34.5t-9 44z" />
<glyph unicode="&#x179;" horiz-adv-x="1191" d="M68.5 139.5q10.5 40.5 40.5 82.5q78 101 161 208t167.5 215t168 215t162.5 208l-555 -1q-26 0 -48.5 9t-38.5 25.5t-25.5 38t-9.5 46.5q0 24 9 45.5t25 38.5t38.5 27t50.5 10h780q28 0 51 -10t39.5 -27t25.5 -38t9 -46q0 -15 -7.5 -34t-19 -39t-25 -39.5t-26.5 -35.5 l-630 -812h615q58 0 91.5 -31t33.5 -84q0 -27 -10.5 -49t-27 -38t-38.5 -25t-46 -9h-840q-37 0 -69 17.5t-45 53.5q-17 38 -6.5 78.5zM491 1497q0 9 2 18q0 15 20 44t48 57t60.5 49t59.5 21q24 0 43.5 -9.5t32.5 -26t19 -37.5t2 -44q-4 -19 -28.5 -44t-55 -47.5t-62.5 -38 t-50 -15.5q-25 -3 -49 8q-33 14 -40 48q-2 8 -2 17z" />
<glyph unicode="&#x17a;" horiz-adv-x="1110" d="M61.5 160.5q7.5 46.5 49.5 84.5l543 518l-415 -2q-28 0 -52 6.5t-42 20t-29 33t-11 44.5q0 50 35.5 83t93.5 33h625q28 0 51.5 -9.5t40 -26.5t25.5 -39t9 -46q0 -15 -4 -30.5t-14 -33t-27.5 -39t-45.5 -49.5l-480 -484h486q58 0 94 -26t36 -79q0 -27 -10 -48t-27 -36.5 t-38.5 -23.5t-45.5 -8h-726q-38 0 -69.5 17.5t-44.5 54.5q-15 39 -7.5 85.5zM494 1212q0 9 2 18q0 15 20 44t48 57t60.5 49t59.5 21q24 0 43.5 -9.5t32.5 -26t19 -37.5t2 -44q-4 -19 -28.5 -44t-55 -47.5t-62.5 -38t-50 -15.5q-25 -3 -49 8q-33 14 -40 48q-2 8 -2 17z" />
<glyph unicode="&#x17b;" horiz-adv-x="1191" d="M68.5 139.5q10.5 40.5 40.5 82.5q78 101 161 208t167.5 215t168 215t162.5 208l-555 -1q-26 0 -48.5 9t-38.5 25.5t-25.5 38t-9.5 46.5q0 24 9 45.5t25 38.5t38.5 27t50.5 10h780q28 0 51 -10t39.5 -27t25.5 -38t9 -46q0 -15 -7.5 -34t-19 -39t-25 -39.5t-26.5 -35.5 l-630 -812h615q58 0 91.5 -31t33.5 -84q0 -27 -10.5 -49t-27 -38t-38.5 -25t-46 -9h-840q-37 0 -69 17.5t-45 53.5q-17 38 -6.5 78.5zM458 1532q0 28 10 51t27.5 40.5t40.5 27t50 9.5t50.5 -9.5t41.5 -27t28 -40.5t10 -51t-10 -51t-28 -39.5t-41.5 -26t-50.5 -9.5 q-28 0 -50.5 9.5t-40 26t-27.5 39.5t-10 51z" />
<glyph unicode="&#x17c;" horiz-adv-x="1110" d="M61.5 160.5q7.5 46.5 49.5 84.5l543 518l-415 -2q-28 0 -52 6.5t-42 20t-29 33t-11 44.5q0 50 35.5 83t93.5 33h625q28 0 51.5 -9.5t40 -26.5t25.5 -39t9 -46q0 -15 -4 -30.5t-14 -33t-27.5 -39t-45.5 -49.5l-480 -484h486q58 0 94 -26t36 -79q0 -27 -10 -48t-27 -36.5 t-38.5 -23.5t-45.5 -8h-726q-38 0 -69.5 17.5t-44.5 54.5q-15 39 -7.5 85.5zM458 1278q0 28 10 51t27.5 40.5t40.5 27t50 9.5t50.5 -9.5t41.5 -27t28 -40.5t10 -51t-10 -51t-28 -39.5t-41.5 -26t-50.5 -9.5q-28 0 -50.5 9.5t-40 26t-27.5 39.5t-10 51z" />
<glyph unicode="&#x17d;" horiz-adv-x="1191" d="M68.5 139.5q10.5 40.5 40.5 82.5q78 101 161 208t167.5 215t168 215t162.5 208l-555 -1q-26 0 -48.5 9t-38.5 25.5t-25.5 38t-9.5 46.5q0 24 9 45.5t25 38.5t38.5 27t50.5 10h780q28 0 51 -10t39.5 -27t25.5 -38t9 -46q0 -15 -7.5 -34t-19 -39t-25 -39.5t-26.5 -35.5 l-630 -812h615q58 0 91.5 -31t33.5 -84q0 -27 -10.5 -49t-27 -38t-38.5 -25t-46 -9h-840q-37 0 -69 17.5t-45 53.5q-17 38 -6.5 78.5zM337 1694q4 18 20 34q29 28 64.5 21.5t67.5 -37.5l103 -105l107 105q31 31 67 36.5t63 -20.5q26 -27 22 -62t-30 -61l-180 -175 q-24 -18 -53 -16.5t-53 25.5l-158 153q-13 13 -24 31t-15.5 35.5t-0.5 35.5z" />
<glyph unicode="&#x17e;" horiz-adv-x="1110" d="M61.5 160.5q7.5 46.5 49.5 84.5l543 518l-415 -2q-28 0 -52 6.5t-42 20t-29 33t-11 44.5q0 50 35.5 83t93.5 33h625q28 0 51.5 -9.5t40 -26.5t25.5 -39t9 -46q0 -15 -4 -30.5t-14 -33t-27.5 -39t-45.5 -49.5l-480 -484h486q58 0 94 -26t36 -79q0 -27 -10 -48t-27 -36.5 t-38.5 -23.5t-45.5 -8h-726q-38 0 -69.5 17.5t-44.5 54.5q-15 39 -7.5 85.5zM324 1403q4 18 20 34q29 28 64.5 21.5t67.5 -37.5l103 -105l107 105q31 31 67 36.5t63 -20.5q26 -27 22 -62t-30 -61l-180 -175q-24 -18 -53 -16.5t-53 25.5l-158 153q-13 13 -24 31t-15.5 35.5 t-0.5 35.5z" />
<glyph unicode="&#x1fc;" horiz-adv-x="1694" d="M17 109q3 26 23 62q5 9 10 19.5t14.5 28t24.5 46t41 75.5t63 115.5t90 167t123 228.5t162 300q15 28 25 57t25 53t40.5 39.5t71.5 16.5h500l16 -231h-363q2 -10 4 -19t4 -17l67 -274h291l12 -224h-244l77 -310h274l-5 -242h-352q-30 0 -52 8.5t-39.5 28.5t-31.5 52.5 t-26 78.5l-24 98h-489q-33 -60 -55 -98t-36 -61.5t-22.5 -36t-13.5 -20.5q-12 -22 -32.5 -35.5t-43.5 -18t-47.5 0t-45.5 20.5q-8 6 -18 17.5t-15.5 30t-2.5 44.5zM435 460h363l-113 463zM768 1486q0 9 2 18q0 15 20 44t48 57t60.5 49t59.5 21q24 0 43.5 -9.5t32.5 -26 t19 -37.5t2 -44q-4 -19 -28.5 -44t-55 -47.5t-62.5 -38t-50 -15.5q-25 -3 -49 8q-33 14 -40 48q-2 8 -2 17zM1230 1317h84q33 0 59.5 -7.5t46.5 -22.5q31 -20 42 -54t2 -66t-37.5 -56.5t-77.5 -24.5h-103zM1243 776h95q28 0 52.5 -12t40.5 -33t21 -48t-5 -55 q-11 -36 -40 -56t-68 -20h-90zM1363 0l5 242h153q27 0 50 -8.5t41 -23.5t29 -37.5t11 -51.5q0 -31 -12 -54t-31.5 -38t-46 -22t-55.5 -7h-144z" />
<glyph unicode="&#x1fd;" horiz-adv-x="1972" d="M80 495q0 104 39.5 195.5t109 160.5t161 108.5t195.5 39.5t187 -39.5t140 -108.5t87.5 -160.5t30.5 -195.5t-30.5 -196.5t-87.5 -161t-139.5 -108.5t-187.5 -40q-104 0 -195.5 40t-161 108.5t-109 160.5t-39.5 197zM323 495q0 -56 20 -106t55.5 -87t83.5 -58.5t103 -21.5 t103 21.5t83.5 58.5t56 87t20.5 106q0 55 -20.5 104.5t-56 86.5t-83 58.5t-103.5 21.5q-55 0 -103 -21.5t-83.5 -58.5t-55.5 -86.5t-20 -104.5zM850 257v236q0 26 9.5 47t26 37.5t38.5 25.5t46 9q26 0 48 -9t38.5 -25.5t25.5 -38t9 -46.5v-426q0 -38 -19.5 -58t-55.5 -20 q-38 0 -62 22t-35 58l-44 175zM850 463v268l25 14l44 136q12 65 40.5 91.5t66.5 26.5q66 0 65 -65v-471q0 -26 -9 -48t-25.5 -38.5t-38.5 -25.5t-48 -9q-25 0 -46.5 9t-38 25.5t-26 38.5t-9.5 48zM913 1211q0 9 2 18q0 15 20 44t48 57t60.5 49t59.5 21q24 0 43.5 -9.5 t32.5 -26t19 -37.5t2 -44q-4 -19 -28.5 -44t-55 -47.5t-62.5 -38t-50 -15.5q-25 -3 -49 8q-33 14 -40 48q-2 8 -2 17zM924 495q0 111 41 203.5t112 159.5t164 104.5t198 37.5q104 0 194.5 -36.5t158 -102t106.5 -156t39 -195.5q0 -51 -26.5 -68.5t-91.5 -17.5h-647 q4 -47 26 -89.5t57 -75t80 -52t96 -19.5q49 0 95.5 17t83.5 49q22 12 51 13t57 -9t47.5 -33t19.5 -58q0 -40 -33 -73t-84 -56t-115 -35.5t-123 -12.5q-104 0 -195.5 40t-161 108t-109.5 160t-40 197zM1170 575h523q-4 49 -26 91t-56 72.5t-78.5 48t-93.5 17.5 q-50 0 -96.5 -17.5t-82.5 -48t-60 -72t-30 -91.5z" />
<glyph unicode="&#x1fe;" horiz-adv-x="1436" d="M62 648q0 90 24 174t67 157.5t102.5 133t133 102.5t157.5 67t175 24q90 0 174 -24t157 -67t133 -102.5t103 -133t66.5 -157.5t23.5 -174q0 -91 -23.5 -175t-66.5 -157t-103 -133t-133 -103t-157 -66.5t-174 -23.5q-136 0 -256 51.5t-209.5 141t-141.5 209.5t-52 256z M304 646q0 -86 33 -162t89 -133.5t132.5 -91t162.5 -33.5t161.5 33.5t132.5 91.5t90 134.5t33 162.5t-33 162t-90 133t-132.5 90.5t-161.5 33.5t-162.5 -33.5t-132.5 -91t-89 -134t-33 -162.5zM647 1481q0 9 2 18q0 15 20 44t48 57t60.5 49t59.5 21q24 0 43.5 -9.5t32.5 -26 t19 -37.5t2 -44q-4 -19 -28.5 -44t-55 -47.5t-62.5 -38t-50 -15.5q-25 -3 -49 8q-33 14 -40 48q-2 8 -2 17z" />
<glyph unicode="&#x1ff;" horiz-adv-x="1135" d="M65 524q6 103 51 193t117.5 154.5t166.5 99t198 27.5q24 -2 46.5 -7.5t44.5 -13.5q11 20 26 46.5t33 51.5t39 46.5t43 33.5q19 11 40 14t44 -5q37 -14 58 -44t19 -63q-1 -7 -3 -15.5t-10 -27.5t-26 -53.5t-51 -94.5q86 -72 132.5 -176t37.5 -225q-6 -104 -51 -193.5 t-117.5 -154t-166.5 -98.5t-197 -28q-27 2 -48.5 6.5t-41.5 12.5l-31 -53q-12 -24 -26.5 -47t-31.5 -40.5t-37 -29t-43 -9.5q-28 1 -51 12t-40 27.5t-25.5 38.5t-6.5 46q1 6 4 14.5t11.5 26t24 46.5t40.5 75q-87 74 -134 179t-38 228zM307 519q-5 -55 10.5 -107t47 -91.5 t77 -66t101.5 -31.5q55 -5 104.5 12t88 50.5t63.5 81.5t30 103t-10.5 106.5t-47.5 91.5t-77.5 65.5t-100.5 30.5t-105 -12t-88.5 -50t-63 -80.5t-29.5 -102.5zM476 1259q0 9 2 18q0 15 20 44t48 57t60.5 49t59.5 21q24 0 43.5 -9.5t32.5 -26t19 -37.5t2 -44 q-4 -19 -28.5 -44t-55 -47.5t-62.5 -38t-50 -15.5q-25 -3 -49 8q-33 14 -40 48q-2 8 -2 17z" />
<glyph unicode="&#x218;" horiz-adv-x="1029" d="M53 260q-3 25 2 47.5t18 40t33.5 28t48.5 10.5q27 0 52.5 -14t53.5 -38q14 -24 39 -45t56 -37t67.5 -26t75.5 -10q38 0 76 10t69.5 28.5t51.5 47t20 65.5q0 38 -27 67t-71 54.5t-100 49t-115 50.5t-115.5 59.5t-100 75t-70.5 97t-27 126.5q0 80 32.5 146t90 113 t136.5 73.5t172 26.5q46 0 94.5 -10.5t94.5 -29t86 -43t70.5 -53.5t48 -61t17.5 -64q0 -30 -9.5 -48.5t-24.5 -30.5t-36 -17t-45 -5q-14 -1 -27 0.5t-25.5 6.5t-26 14.5t-28.5 23.5q-51 52 -98 79.5t-107 27.5q-31 0 -63.5 -9.5t-59 -26.5t-43 -42.5t-16.5 -57.5 q0 -38 27.5 -68t73.5 -56t104.5 -51.5t119 -54t118.5 -61.5t104 -75.5t74 -97t28 -124.5q0 -91 -42 -162.5t-109.5 -120t-152 -74t-170.5 -25.5q-103 0 -182 24.5t-134 64t-87 87.5t-42 95zM410 -397.5q2 40.5 7 77.5q2 28 13 53t28.5 43.5t41.5 29t52 10.5q25 0 48 -9 t40 -26t27.5 -40.5t9.5 -53.5q-7 -52 -29 -96t-50.5 -75.5t-60 -49t-58.5 -18.5q-27 0 -44 23t-22 64q-5 27 -3 67.5z" />
<glyph unicode="&#x219;" horiz-adv-x="1022" d="M63 260q-2 25 8 46t28 35t40.5 20t45.5 -2q24 -6 48.5 -32t59.5 -55t85 -52.5t126 -23.5q42 -3 79.5 1.5t66 15t45 28t16.5 41.5q0 22 -26 39t-68 34.5t-95 36t-109.5 41.5t-109.5 51.5t-95 66t-67.5 85.5t-25.5 109q0 46 26 93.5t77 85t126.5 61.5t172.5 24 q69 0 134 -12.5t118.5 -37.5t92 -63.5t56.5 -89.5q6 -30 -6 -53t-32 -37.5t-45 -19t-47 1.5q-23 8 -46.5 24.5t-51.5 34t-61.5 32.5t-74.5 20q-87 10 -138 -9t-51 -62q0 -37 44 -66t110.5 -56.5t143 -58t143 -69t111 -90.5t44.5 -123q0 -78 -39 -132t-102.5 -88.5 t-145 -49.5t-166.5 -15q-70 0 -144.5 18t-138.5 52.5t-108.5 85t-53.5 114.5zM397 -300.5q2 40.5 7 77.5q2 28 13 53t28.5 43.5t41.5 29t52 10.5q25 0 48 -9t40 -26t27.5 -40.5t9.5 -53.5q-7 -52 -29 -96t-50.5 -75.5t-60 -49t-58.5 -18.5q-27 0 -44 23t-22 64 q-5 27 -3 67.5z" />
<glyph unicode="&#x2c6;" horiz-adv-x="723" d="M58.5 1398q-4.5 18 0 36t15.5 35t24 31l157 154q24 24 53.5 25.5t53.5 -16.5l180 -175q26 -27 29 -61.5t-22 -61.5q-27 -27 -63 -21t-67 36l-106 106l-104 -106q-31 -31 -67.5 -37t-63.5 22q-15 15 -19.5 33z" />
<glyph unicode="&#x2da;" horiz-adv-x="1136" d="M355 1292q0 34 13 63.5t34.5 52t51 35t63.5 12.5t63 -12.5t51 -35t35 -52t13 -63.5q0 -33 -13 -62.5t-35 -51.5t-51 -35t-63 -13t-63.5 13t-51 35t-34.5 51.5t-13 62.5zM460 1292q0 -25 16.5 -42t40.5 -17q25 0 41 17.5t16 41.5q0 25 -16 43t-41 18t-41 -18t-16 -43z" />
<glyph unicode="&#x2dc;" horiz-adv-x="1018" d="M277 1614.5q1 15.5 6 30.5q18 58 62 95q11 9 23.5 15.5t26.5 11.5q12 4 26.5 7t30.5 3q48 0 76 -17t48.5 -38t39.5 -38t50 -17q15 0 24 8t18.5 19.5t22 24t36.5 21.5q12 7 29 5t30.5 -13t20 -30.5t-2.5 -46.5q-8 -28 -24.5 -52.5t-40 -43t-53.5 -29t-64 -10.5 q-43 0 -69.5 16.5t-46.5 37.5t-40.5 38t-51.5 17q-25 0 -38 -11t-22 -25t-18.5 -27t-27.5 -16q-10 -1 -23 0q-18 3 -29 13.5t-15.5 23t-3.5 28z" />
<glyph unicode="&#x401;" horiz-adv-x="1072" d="M125 1256q0 23 15.5 37t61.5 14h700q40 0 67 -17t41 -42.5t14 -56t-13.5 -56t-40 -42.5t-67.5 -17h-525v-315h394q28 0 52.5 -13t40.5 -33.5t21.5 -47t-4.5 -55.5q-12 -36 -41 -55.5t-68 -19.5h-395v-306h519q27 0 51 -8t42 -23.5t28 -37.5t10 -51q0 -27 -10 -49.5 t-27.5 -38.5t-41 -24.5t-50.5 -8.5h-626q-65 0 -100.5 38.5t-35.5 101.5v1041q-1 20 -6.5 42.5t-5.5 42.5zM293 1581q0 23 9 42.5t23 35t34 24t44 8.5q23 0 42.5 -8.5t35 -24t24 -35.5t8.5 -42q0 -24 -8.5 -44t-24 -34.5t-35.5 -23t-42 -8.5q-24 0 -44 8.5t-34 23t-23 34.5 t-9 44zM634 1581q0 23 9 42.5t23 35t34 24t43 8.5t43 -8.5t35 -24t23.5 -35.5t8.5 -42q0 -24 -8.5 -44t-23.5 -34.5t-35.5 -23t-42.5 -8.5q-23 0 -43 8.5t-34 23t-23 34.5t-9 44z" />
<glyph unicode="&#x402;" horiz-adv-x="1439" d="M23 1223q0 22 7.5 40t20 32t30.5 21.5t39 7.5h648q42 0 70 -29t28 -72q0 -20 -7.5 -38.5t-21 -32t-31.5 -22t-38 -8.5h-648q-20 0 -38.5 8.5t-31 22t-20 31.5t-7.5 39zM326 111v1082q0 25 9 47t25.5 38t38.5 25.5t47 9.5t47 -9.5t38.5 -25.5t26 -38t9.5 -47v-1082 q0 -26 -9.5 -48t-26 -38.5t-38.5 -25.5t-47 -9q-26 0 -47.5 9t-38 25.5t-25.5 38.5t-9 48zM566 838q10 25 39 53.5t70 52.5t92 39.5t107 15.5q104 0 190 -39.5t147 -108t94 -160t33 -195.5v-226l-241 -30v255q0 55 -19 104.5t-53 86.5t-80 58.5t-101 21.5 q-54 0 -104.5 -22.5t-89 -60t-61 -87t-22.5 -103.5zM836 -68q0 36 19 65.5t52 41.5q38 8 72.5 20.5t60 35.5t41 59t16.5 92v193q0 26 8.5 49.5t24.5 41.5t38.5 28.5t49.5 10.5t49 -10.5t38 -28.5t24.5 -41.5t8.5 -49.5v-142q0 -106 -23.5 -195.5t-71 -154t-119 -100 t-168.5 -35.5q-25 0 -46.5 9t-38 25.5t-26 38t-9.5 47.5z" />
</font>
</defs>
</svg>
