<?xml version="1.0" standalone="no"?>
<!DOCTYPE svg PUBLIC "-//W3C//DTD SVG 1.1//EN" "http://www.w3.org/Graphics/SVG/1.1/DTD/svg11.dtd" >
<svg xmlns="http://www.w3.org/2000/svg" xmlns:xlink="http://www.w3.org/1999/xlink" version="1.1">
<metadata></metadata>
<defs>
<font id="bubbleboddy_neueextrabold" horiz-adv-x="1159" >
<font-face units-per-em="2048" ascent="1638" descent="-410" />
<missing-glyph horiz-adv-x="479" />
<glyph horiz-adv-x="0" />
<glyph unicode="&#xd;" horiz-adv-x="479" />
<glyph unicode=" "  horiz-adv-x="479" />
<glyph unicode="&#x09;" horiz-adv-x="479" />
<glyph unicode="&#xa0;" horiz-adv-x="479" />
<glyph unicode="!" horiz-adv-x="614" d="M106 -20q0 43 15.5 78.5t43.5 62.5q27 27 63 41t79 14q41 0 78 -14.5t65 -40.5q27 -27 42.5 -62.5t15.5 -78.5t-16 -78t-42 -62q-28 -27 -65 -42t-78 -15q-43 0 -79.5 15.5t-62.5 41.5q-28 27 -43.5 62t-15.5 78zM106 463v755q0 41 15.5 77.5t43.5 64.5q27 27 63 42.5 t79 15.5t79.5 -16t64.5 -42q27 -28 42 -65t15 -77v-755q0 -41 -16 -77.5t-42 -63.5q-28 -28 -65 -44t-78 -16q-43 0 -78.5 16t-62.5 44q-28 28 -44 64t-16 77z" />
<glyph unicode="&#x22;" horiz-adv-x="1029" d="M74 1156q0 40 17 73.5t45 56.5q28 24 64.5 37t75.5 13q38 0 74.5 -13.5t65.5 -37.5q29 -25 46 -56.5t17 -68.5l-22 -167q-6 -40 -19.5 -76t-35.5 -63q-22 -28 -52.5 -44t-73.5 -16q-44 0 -74.5 16.5t-50.5 44.5t-33 63.5t-20 74.5zM567 1153q0 39 16 73t44 58 q27 25 63 38.5t77 13.5q38 0 74.5 -13.5t64.5 -37.5q29 -25 46.5 -56.5t17.5 -68.5l-24 -167q-6 -40 -19 -76t-34 -63q-22 -28 -52.5 -44t-73.5 -16q-44 0 -74.5 14.5t-51.5 42.5q-22 27 -34 63t-19 79z" />
<glyph unicode="#" horiz-adv-x="1538" d="M51 438q0 43 15.5 79t43.5 64q27 27 63 42t79 15h55l14 61q-76 11 -124 67q-24 27 -37 61t-13 73q0 43 15.5 79t42.5 63t63.5 42.5t79.5 15.5h63l22 98q10 41 35 73.5t58 52.5t72.5 26.5t80.5 -3.5q83 -26 123 -94q19 -34 25.5 -73t-3.5 -80h99l24 111q12 40 37.5 71 t58.5 48q34 17 73.5 22t79.5 -7q39 -12 69 -37.5t49 -58.5q18 -34 22.5 -72.5t-6.5 -77.5q38 -3 71.5 -20t57.5 -44q25 -27 39 -61t14 -74q0 -43 -15.5 -79.5t-42.5 -62.5q-28 -28 -63.5 -44t-78.5 -16h-70l-13 -61q82 -6 134 -62q25 -27 39.5 -62t14.5 -75q0 -43 -16 -79 t-42 -63q-28 -28 -64.5 -43.5t-79.5 -15.5h-74l-25 -116q-12 -40 -38 -70.5t-60 -47.5t-73.5 -22t-79.5 7q-41 12 -71 37.5t-49 59.5q-18 33 -22 72.5t7 79.5h-98l-24 -107q-11 -41 -35.5 -72t-57.5 -51q-34 -19 -74 -25.5t-81 3.5q-40 11 -71.5 36t-50.5 58t-25.5 72 t3.5 80l1 8q-36 6 -66 24t-53 44q-23 27 -35 60t-12 71zM721 638h99l14 60h-100z" />
<glyph unicode="$" horiz-adv-x="1084" d="M78 281q0 31 12.5 63.5t36.5 56.5q25 27 60.5 43t84.5 16q43 0 84.5 -18.5t77.5 -64.5q24 -30 50 -36.5t48 -6.5q27 0 49.5 10.5t22.5 34.5t-22 43t-58 39q-18 9 -38.5 18.5t-44.5 20.5q-46 20 -94 44t-94 54t-82.5 69t-57.5 89q-23 48 -23 112q0 68 17 128.5t51 112.5 t83.5 92t116.5 65v15q0 43 16 80.5t44 65.5t64 44t79 16q50 0 88 -18.5t64 -49.5q26 -32 39 -73t15 -89q68 -28 127 -72t90 -104q10 -20 16 -42.5t6 -48.5q0 -90 -53 -135.5t-142 -45.5q-20 0 -39 2.5t-40 11.5q-20 8 -41 24t-44 43q-13 14 -22 32q-10 16 -20.5 29.5 t-24.5 22.5q-14 8 -35 8q-27 0 -44.5 -13t-17.5 -32q0 -11 5 -25.5t27 -27.5q121 -71 217.5 -131.5t164.5 -121.5t103 -125t35 -137q0 -74 -23 -133t-62 -105t-88.5 -79t-101.5 -54q-6 -35 -23.5 -64.5t-44.5 -51.5q-27 -23 -59.5 -35t-69.5 -12q-35 0 -65.5 11t-55.5 30 q-52 40 -69 105q-80 19 -135 53.5t-91 75.5t-52.5 85.5t-16.5 85.5z" />
<glyph unicode="%" horiz-adv-x="1620" d="M41 1030q0 61 22.5 114t61.5 93q39 39 91 62t114 23q61 0 114 -23t93 -62q40 -40 63 -92.5t23 -114.5q0 -61 -23 -114t-63 -92t-93 -61.5t-114 -22.5t-113.5 22.5t-91.5 61.5t-61.5 92t-22.5 114zM284 1030q0 -30 10 -42.5t34 -12.5q27 0 38.5 12.5t11.5 42.5 q0 55 -50 55q-44 0 -44 -55zM434 138q-6 33 6 68q14 46 27.5 85t25.5 74q11 35 21 65.5t21 57.5l33 102l31 89q7 22 14.5 43.5t15.5 45.5q15 46 34 101.5t43 123.5q11 35 24.5 74t28.5 85q8 33 25.5 61.5t39.5 50.5q22 20 50.5 34t60.5 20q43 7 81.5 -3.5t67.5 -32.5 q30 -22 49 -52t24 -62q3 -19 2 -37.5t-5 -36.5q-14 -46 -27.5 -85t-24.5 -74l-42 -124q-18 -55 -33.5 -101t-30.5 -89l-30 -90l-34 -101q-19 -55 -42.5 -123.5t-52.5 -159.5q-19 -68 -61.5 -111.5t-103.5 -52.5q-41 -6 -81 3t-73 30q-33 20 -55.5 52t-28.5 70zM973 292 q0 61 22.5 114t61.5 93q39 39 91 62t114 23q61 0 113.5 -23t92.5 -62q40 -40 63 -93t23 -114t-23 -114t-63 -92t-92.5 -61.5t-113.5 -22.5t-113.5 22.5t-91.5 61.5t-61.5 92t-22.5 114zM1215 292q0 -30 10.5 -42.5t34.5 -12.5q27 0 38.5 12.5t11.5 42.5q0 55 -50 55 q-45 0 -45 -55z" />
<glyph unicode="&#x26;" horiz-adv-x="1250" d="M74 455q0 90 29.5 162.5t81.5 128.5q-42 89 -42 186q0 38 7 73q12 71 47.5 131t89.5 105q52 45 118.5 70t141.5 25q77 0 110 -45t33 -119q0 -39 -11 -75.5t-38 -66.5q-24 -26 -46 -34t-39 -13t-27.5 -14.5t-10.5 -36.5q0 -34 29 -34h11h7.5t8.5 1h19h15h43q3 38 20 70.5 t44 57.5t61 38.5t74 13.5q39 0 73.5 -13.5t61.5 -37.5q27 -25 44 -57.5t21 -70.5q38 -1 71 -16t58 -39q25 -26 39 -59.5t14 -72.5q0 -38 -14 -71.5t-38 -57.5q-25 -26 -58 -41.5t-71 -16.5v-346q0 -37 -15 -74h1q-20 -52 -63.5 -85t-100.5 -39q-5 -1 -8.5 -1.5t-8.5 -0.5h-6 h-246q-102 0 -190.5 25t-158.5 75t-116 126.5t-61 178.5q-3 17 -3.5 34.5t-0.5 35.5zM475 455q0 -31 21 -52.5t51 -21.5h103v145h-103q-30 0 -51 -20.5t-21 -50.5z" />
<glyph unicode="'" horiz-adv-x="534" d="M66 993v144q0 41 15 77.5t43 63.5q27 27 63 42.5t79 15.5t79.5 -15.5t64.5 -42.5q27 -27 42 -63.5t15 -77.5v-144q0 -43 -15.5 -78.5t-41.5 -62.5q-28 -27 -64.5 -42.5t-79.5 -15.5t-79 15.5t-63 42.5q-28 27 -43 62.5t-15 78.5z" />
<glyph unicode="(" horiz-adv-x="764" d="M106 89v827q2 87 36 162.5t92 132.5t133.5 89.5t162.5 32.5q55 0 101 -23t74 -66q27 -44 26 -98q0 -43 -16 -81t-42 -68q-28 -31 -64 -48.5t-79 -17.5q-23 0 -22 -24v-818q0 -23 22 -22q41 0 77.5 -18t64.5 -48q28 -31 43.5 -69.5t15.5 -79.5q0 -43 -16 -77.5t-42 -59.5 q-28 -25 -64 -38.5t-79 -13.5q-89 0 -164.5 34t-134.5 92q-58 58 -91.5 134.5t-33.5 165.5z" />
<glyph unicode=")" horiz-adv-x="760" d="M31 -141q0 28 8.5 60t30.5 63q22 30 58 53t91 33l7 2q14 4 25 12q5 5 5 10v818q0 24 -25 24q-41 0 -77 18t-64 48t-43.5 68t-15.5 81q0 56 27 98t73 67q46 23 100 22q87 0 162.5 -32t133.5 -90q58 -57 92 -132t36 -162v-828q0 -89 -32.5 -165.5t-91.5 -134.5 q-58 -58 -134 -92t-166 -34q-40 0 -76 14.5t-64 39.5q-28 26 -44 61t-16 78z" />
<glyph unicode="*" horiz-adv-x="917" d="M34 839q-6 33 1 65q6 32 23.5 60.5t47.5 47.5l31 21l-15 11q-30 20 -48 48.5t-23 61.5q-6 33 1 65.5t28 62.5q38 52 94 68q56 15 113 -10q17 47 57.5 77t93.5 30t94 -30.5t59 -77.5q55 19 109 2q27 -9 50 -26t40 -41q20 -31 26 -64t0 -66q-7 -33 -25.5 -61.5t-48.5 -48.5 l-7 -5l28 -19q29 -20 47 -48t25 -61q6 -33 -0.5 -66t-26.5 -63q-18 -27 -43.5 -43t-52.5 -24q-29 -8 -58.5 -6.5t-57.5 14.5q-12 -54 -55 -89q-22 -17 -48 -26.5t-55 -9.5q-61 0 -103.5 36t-53.5 93q-30 -15 -61 -18.5t-60 4.5q-30 8 -55.5 27t-44.5 46q-20 30 -26 63z" />
<glyph unicode="+" horiz-adv-x="972" d="M96 537q0 54 37 93q37 37 91 37h130v133q0 27 10.5 50t27.5 41q37 37 91 37t94 -37q37 -37 36 -91v-133h131q55 0 93 -37q17 -18 27 -42t10 -51t-10 -50.5t-27 -41.5q-17 -17 -41 -27t-52 -10h-131v-128q0 -55 -36 -93q-18 -17 -42 -27t-52 -10q-27 0 -50 10t-41 27 q-17 17 -27.5 41t-10.5 52v128h-130q-27 0 -50 10t-41 27q-37 37 -37 92z" />
<glyph unicode="," horiz-adv-x="609" d="M104 176q0 41 15.5 77t43.5 62q27 27 63 41.5t79 14.5q36 0 72 -13.5t64 -38.5q29 -26 47 -61.5t18 -81.5q0 -65 -25.5 -124t-68.5 -107t-95 -78t-104 -33q-43 0 -64.5 36t-31.5 91q-10 52 -11.5 110.5t-1.5 104.5z" />
<glyph unicode="-" horiz-adv-x="969" d="M96 454q0 54 37 93q37 37 91 37h520q55 0 93 -37q17 -18 27 -42t10 -51t-10 -50.5t-27 -41.5q-17 -17 -41 -27t-52 -10h-520q-27 0 -50 10t-41 27q-37 37 -37 92z" />
<glyph unicode="." horiz-adv-x="520" d="M59 176q0 41 15.5 77t43.5 62q27 27 63 41.5t79 14.5q41 0 78 -14.5t64 -41.5t43 -62.5t16 -76.5q0 -43 -16 -78.5t-43 -61.5q-28 -27 -64.5 -41.5t-77.5 -14.5q-43 0 -79.5 14.5t-62.5 41.5q-28 27 -43.5 62t-15.5 78z" />
<glyph unicode="/" horiz-adv-x="1218" d="M56 -257q-10 46 16 95l704 1344q30 60 82 97q55 37 118 37q44 0 80.5 -16t61.5 -43q26 -27 39.5 -59.5t13.5 -64.5q0 -19 -4 -37.5t-10 -35.5q-177 -338 -351.5 -671.5t-350.5 -671.5q-31 -62 -78.5 -99t-112.5 -37q-44 0 -89 22t-77 58t-42 82z" />
<glyph unicode="0" horiz-adv-x="1150" d="M59 496q0 105 41 198.5t112 164.5t163.5 111.5t199.5 40.5q105 0 199 -40.5t165 -111.5t111.5 -164.5t40.5 -198.5q0 -108 -40.5 -201t-111.5 -164t-164.5 -111t-199.5 -40q-108 0 -200 40t-163 111t-112 164t-41 201zM467 496q0 -50 29.5 -82.5t78.5 -32.5t79 32t30 83 q0 49 -29.5 81.5t-79.5 32.5q-49 0 -78.5 -32.5t-29.5 -81.5z" />
<glyph unicode="1" horiz-adv-x="713" d="M33 647q0 36 20.5 68.5t57.5 68.5l165 167q22 22 47.5 36.5t55.5 20.5q19 4 40.5 3t42.5 -5q32 -6 60 -24.5t49 -45.5q22 -27 34.5 -59t12.5 -66v-631q0 -43 -15 -79t-42 -63q-28 -28 -63.5 -43t-78.5 -15t-79.5 15t-63.5 43q-27 27 -42 63t-15 79v328q-2 8 -9 11t-16 4 q-10 2 -22 0q-5 -1 -10 -1h-10q-29 0 -51 12.5t-38 30.5q-15 18 -22.5 40.5t-7.5 41.5z" />
<glyph unicode="2" horiz-adv-x="1133" d="M94 176q0 36 19 71.5t51 68.5q31 33 70.5 65t82.5 61q25 17 49.5 33.5t48.5 31.5q24 14 44.5 28.5t39.5 27.5q8 6 16.5 12.5t16.5 11.5q34 24 53 43q8 11 8 20q0 13 -9.5 22.5t-23.5 12.5t-29.5 1t-25.5 -11q-4 -4 -8 -7.5t-10 -9.5l-20 -20q-5 -5 -10 -9.5t-11 -10.5 l-15 -15q-29 -30 -61.5 -47t-66.5 -22q-35 -5 -69 3.5t-66 32.5q-14 11 -24 27t-15 35q-6 18 -8 37.5t-1 38.5q1 28 14 61t39 67t64 65.5t90 55.5q51 24 114.5 39t140.5 15q127 0 211 -26.5t135 -69.5t72 -94.5t21 -101.5q0 -55 -21.5 -101t-55.5 -84q-35 -39 -77 -70.5 t-85 -55.5l-70 -41h31q52 0 104.5 -3.5t95.5 -20.5t70 -55.5t27 -109.5q0 -43 -15 -78t-42 -62q-27 -28 -62.5 -43t-76.5 -15h-554q-39 0 -75 15t-62 42q-27 27 -43 61.5t-16 77.5z" />
<glyph unicode="3" horiz-adv-x="1171" d="M76 39q0 66 30 108t76 62q29 12 62.5 13.5t64.5 -9.5q35 -11 63.5 -38.5t58.5 -56.5q30 -30 62 -52.5t78 -22.5q51 0 85 39q16 17 26 40t10 50q0 54 -32 91q-15 17 -37 27.5t-50 10.5q-33 0 -58 -5.5t-46 -12.5q-22 -7 -41 -13t-39 -6q-40 0 -71 11t-53 29q-44 36 -44 91 q0 59 27.5 94t67.5 58q19 11 40 20.5t42 17.5q44 16 73 38h-168q-93 0 -157 55q-32 27 -50 62.5t-18 81.5t17 82.5t45 63.5q29 27 68 41.5t83 14.5h545q53 0 98 -29.5t73 -75.5q18 -31 27 -66t6 -69t-19.5 -64.5t-48.5 -53.5l-138 -103q61 -19 108.5 -59.5t81.5 -95.5 q33 -55 50 -120t17 -130q0 -112 -43.5 -204t-114.5 -160q-72 -68 -163.5 -105t-189.5 -37q-68 0 -130.5 17.5t-118.5 46.5q-56 30 -103 69.5t-81 82.5t-52.5 87t-18.5 84z" />
<glyph unicode="4" horiz-adv-x="1181" d="M42.5 145q-8.5 44 5.5 92l159 626q11 43 35.5 74.5t58.5 50.5q34 18 73.5 23.5t80.5 -5.5q40 -11 71 -36.5t51 -58.5q19 -34 24 -73.5t-6 -79.5l-96 -379h55q0 46 12.5 82.5t34.5 62.5q46 54 130 55q84 0 131.5 -55t47.5 -145h21q43 0 79.5 -15.5t63.5 -41.5 q27 -28 42.5 -64t15.5 -77q0 -43 -15.5 -79t-42.5 -63q-28 -28 -64 -43.5t-79 -15.5v-117q0 -43 -15.5 -78.5t-42.5 -62.5q-28 -27 -63.5 -41.5t-78.5 -14.5t-78.5 15t-61.5 41q-28 27 -43.5 62.5t-15.5 78.5v117h-292q-52 0 -94 23t-68 62q-27 36 -35.5 80z" />
<glyph unicode="5" horiz-adv-x="1144" d="M90 928q0 18 5 33.5t20 26.5q14 11 37.5 17t62.5 6h600q40 0 75 -15t61 -40q27 -26 41.5 -60t14.5 -74t-14.5 -74t-41.5 -61t-61.5 -41.5t-74.5 -14.5h-307v-48q32 8 56.5 10.5t51.5 2.5q99 0 183.5 -27.5t145.5 -81.5q61 -53 96 -129t35 -176q0 -108 -40 -201t-110 -163 q-71 -71 -164 -111.5t-199 -40.5q-99 0 -181.5 24t-143.5 66t-95 97t-34 116q0 52 23 94t64 65q40 22 96 22q26 0 47 -7t40 -16l40 -22q19 -12 48 -26t67 -20q38 -5 69.5 6.5t51.5 39.5q20 29 21 77q0 46 -20 74.5t-52 39.5t-69.5 7.5t-73.5 -20.5q-11 -5 -21 -11.5 t-20 -11.5q-20 -12 -40.5 -23t-41.5 -17q-20 -7 -46 -7q-83 0 -133 46t-50 132q0 66 -4 134q-2 34 -3 68t-3 69l-6 136q-3 67 -3 130z" />
<glyph unicode="6" horiz-adv-x="1122" d="M45 496q0 55 12 107.5t33 103.5l18 39q17 38 43 93.5t57 119.5l100 210q4 9 7 16t7 12q2 5 4 9q12 27 37 56t61 49q36 18 80 21t96 -22q38 -18 65.5 -45.5t41.5 -62.5q12 -35 7.5 -76.5t-30.5 -88.5l-21 -40q26 -5 49.5 -12t46.5 -16q69 -30 126.5 -77.5t100.5 -109.5 q43 -61 66.5 -134t23.5 -152q0 -108 -40.5 -201t-110.5 -164q-71 -71 -164.5 -111t-199.5 -40q-108 0 -201 40t-163 111q-71 71 -111.5 164t-40.5 201zM452 496q0 -50 28.5 -82.5t80.5 -32.5q49 0 79 32t30 83q0 49 -30 81.5t-79 32.5q-52 0 -80.5 -32.5t-28.5 -81.5z" />
<glyph unicode="7" horiz-adv-x="1088" d="M47 812q0 41 15.5 77.5t41.5 62.5q27 27 62.5 42.5t78.5 15.5h579q31 2 61.5 -5t60.5 -24q59 -36 84 -100q12 -32 12 -69q0 -33 -10 -63.5t-28 -55.5l-571 -937q-22 -36 -53.5 -59t-68.5 -32q-37 -10 -76 -5.5t-75 26.5q-37 22 -60.5 54t-31.5 69q-9 37 -3 76t26 76 l394 649h-240q-43 0 -78.5 16t-62.5 44t-42 63.5t-15 78.5z" />
<glyph unicode="8" horiz-adv-x="1080" d="M55 463q0 47 13 93.5t34 89.5q22 43 49.5 78t57.5 60q-39 37 -50.5 75t-11.5 81q0 83 31 154t84 126q53 54 124.5 84t152.5 30t153 -30t126 -84t85 -125.5t31 -154.5q0 -43 -19 -85t-46 -73q30 -24 57.5 -59t49.5 -78t34.5 -89.5t12.5 -92.5q0 -101 -38.5 -188 t-103.5 -153q-66 -67 -154.5 -104.5t-187.5 -37.5q-101 0 -188 37.5t-153 104.5q-67 67 -105 153t-38 188zM461 463q0 -37 20.5 -62t57.5 -25t58 25t21 62t-21.5 62.5t-57.5 25.5q-37 0 -57.5 -25.5t-20.5 -62.5zM501 953q0 -47 40 -47q43 0 43 47t-43 47q-40 0 -40 -47z " />
<glyph unicode="9" horiz-adv-x="1122" d="M45 489q0 105 40.5 199t111.5 165t164 111.5t200 40.5q105 0 199 -40.5t165 -111.5t111 -164.5t40 -199.5q0 -123 -51 -227l-230 -485q-17 -37 -46 -63t-63 -40q-17 -7 -35.5 -9.5t-36.5 -2.5q-91 0 -149 62q-59 59 -59 139q0 36 16 63q8 14 17 27q11 13 22 31 q-53 10 -96 32q-71 29 -129 76.5t-101 109.5q-43 61 -66.5 134.5t-23.5 152.5zM452 489q0 -52 28.5 -83.5t80.5 -31.5q49 0 79 31.5t30 83.5q0 49 -30 82t-79 33q-52 0 -80.5 -32.5t-28.5 -82.5z" />
<glyph unicode=":" horiz-adv-x="528" d="M63 180q0 41 16 78t44 65q27 27 62.5 42.5t78.5 15.5q41 0 78 -16t65 -42q27 -28 42.5 -65t15.5 -78q0 -43 -16 -78.5t-42 -62.5q-28 -28 -65 -43.5t-78 -15.5q-43 0 -78.5 15.5t-62.5 43.5q-28 27 -44 62.5t-16 78.5zM63 811q0 41 16 78t44 63q27 27 62.5 43t78.5 16 q41 0 78 -16t65 -43q27 -27 42.5 -63.5t15.5 -77.5q0 -43 -16 -79t-42 -62q-28 -28 -65 -44t-78 -16q-43 0 -78.5 16t-62.5 44q-28 27 -44 62.5t-16 78.5z" />
<glyph unicode=";" horiz-adv-x="522" d="M59 176q0 41 15.5 77t43.5 62q27 27 63 41.5t79 14.5q40 0 76.5 -14.5t63.5 -41.5q28 -27 44.5 -61.5t16.5 -77.5q0 -65 -25.5 -124t-68.5 -107t-95 -78t-104 -33q-43 0 -64.5 36t-31.5 91q-10 52 -11.5 110.5t-1.5 104.5zM59 815q0 41 15.5 77t43.5 62q27 27 63 42 t79 15q41 0 78 -15t64 -42t43 -62.5t16 -76.5q0 -43 -16 -78.5t-43 -61.5q-28 -27 -64.5 -42t-77.5 -15q-43 0 -79.5 15t-62.5 42q-28 27 -43.5 62t-15.5 78z" />
<glyph unicode="&#x3c;" horiz-adv-x="806" d="M59 589q0 38 15.5 75.5t42.5 64.5l289 286q31 30 64.5 45t74.5 15q38 0 74 -15.5t65 -42.5q29 -28 46.5 -65.5t17.5 -81.5q0 -39 -14.5 -75.5t-45.5 -63.5l-185 -144l185 -143q31 -27 45.5 -63.5t14.5 -75.5q0 -35 -9.5 -64t-25.5 -52t-36 -39.5t-41 -27.5 q-44 -22 -91 -22q-6 1 -12.5 1t-12.5 1q-14 0 -26 4q-49 14 -88 54l-289 286q-30 29 -44 66.5t-14 76.5z" />
<glyph unicode="=" horiz-adv-x="954" d="M74 330q0 43 15 78.5t43 63.5q27 27 63 42t79 15h406q41 0 78 -15.5t64 -42.5t43 -63.5t16 -77.5q0 -43 -16 -79t-43 -63q-28 -28 -64.5 -43.5t-77.5 -15.5h-406q-43 0 -79 15.5t-63 42.5q-28 27 -43 63.5t-15 79.5zM74 796q0 43 15 79t43 63q27 27 63 42t79 15h406 q41 0 78 -15t64 -42q27 -28 43 -63.5t16 -78.5t-16 -79t-43 -63q-28 -28 -64.5 -43t-77.5 -15h-406q-43 0 -79 15.5t-63 41.5q-28 27 -43 63.5t-15 79.5z" />
<glyph unicode="&#x3e;" horiz-adv-x="806" d="M59 305q0 39 14.5 76t45.5 63l186 143l-186 144q-31 27 -45.5 63.5t-14.5 75.5q0 15 3 31.5t8 30.5q9 31 28 56.5t44 44.5q25 18 55 29.5t63 12.5q83 0 143 -60l287 -286q29 -30 41.5 -65t16.5 -75q0 -39 -14.5 -76.5t-43.5 -66.5l-287 -286q-23 -20 -47 -35t-51 -21 q-58 -11 -113 10t-92 70q-41 51 -41 121z" />
<glyph unicode="?" horiz-adv-x="1173" d="M104.5 933q-6.5 44 14.5 96q62 157 186.5 239.5t306.5 82.5q99 0 188.5 -37.5t156.5 -102.5q68 -65 106.5 -147t38.5 -175q0 -46 -5.5 -83.5t-21.5 -76.5t-46 -79t-77 -89q-25 -25 -61 -44q-37 -19 -73.5 -41t-66.5 -51q-31 -28 -45 -74q-8 -27 -24 -44.5t-35 -28.5 t-38 -16t-32 -5q-28 0 -59 7t-57 27q-27 18 -44 50.5t-17 82.5q0 37 4 64.5t17 54.5t38 54t71 63q20 16 50 33t58 40t49 52q20 30 21 69q0 25 -9.5 45.5t-24.5 35.5q-33 31 -79 31q-32 0 -53 -8.5t-35 -22.5q-15 -14 -24.5 -31t-16.5 -34q-11 -31 -33.5 -51t-50.5 -32 q-29 -12 -60 -15t-59 2q-37 7 -70.5 28t-57.5 54t-30.5 77zM367 31q0 41 15.5 77.5t43.5 64.5q27 27 62.5 42.5t78.5 15.5q41 0 78 -15.5t64 -42.5q27 -28 42.5 -64.5t15.5 -77.5q0 -43 -16 -79t-42 -63q-27 -28 -64 -43.5t-78 -15.5q-43 0 -78.5 16t-62.5 43 q-28 27 -43.5 63t-15.5 79z" />
<glyph unicode="@" horiz-adv-x="1892" d="M60 536q0 115 30.5 221.5t85.5 200.5t131.5 170.5t169.5 132.5q93 55 200 84.5t224 29.5q115 0 222 -29.5t201 -84.5t170.5 -131.5t131.5 -171.5q55 -94 85 -201t30 -221q0 -90 -23 -177.5t-69 -157.5q-46 -71 -115 -114.5t-162 -43.5q-89 0 -148.5 33.5t-95.5 88.5 q-50 -31 -107 -48t-119 -17q-90 0 -169.5 34.5t-137.5 93.5q-59 58 -93.5 138t-34.5 170t34.5 168t93.5 138q58 59 137.5 93.5t169.5 34.5t168.5 -34.5t137.5 -93.5t93.5 -137.5t34.5 -168.5v-2q1 -10 1 -20.5v-20.5q-1 -10 -1 -20v-18l-1 -44q1 -46 11 -60q5 -7 11 -9 t15 -2q27 0 34 46q4 23 5.5 60.5t1.5 91.5q0 105 -40 198.5t-110 165.5q-71 72 -163.5 114.5t-198.5 42.5q-108 0 -200 -42.5t-162 -116.5q-71 -74 -110.5 -169.5t-39.5 -201.5q0 -104 39.5 -197.5t110.5 -167.5t163 -116.5t199 -42.5q31 0 58 7t53 17q25 9 46.5 16t42.5 7 q36 0 61.5 -11t41.5 -30q16 -18 24 -41t8 -48q0 -55 -23.5 -92.5t-59.5 -61.5q-36 -26 -78 -40.5t-79 -21.5q-38 -8 -64 -9l-31 -2q-117 0 -224 30t-200 86q-93 55 -169.5 131t-131.5 170q-55 93 -85.5 200t-30.5 224zM827 532q0 -30 22 -52.5t52 -22.5t52 23t22 54 q0 14 -6 27.5t-16 24.5q-10 10 -23.5 16t-28.5 6q-30 0 -52 -23t-22 -53z" />
<glyph unicode="A" horiz-adv-x="1264" d="M40 216q2 8 4 17.5t6 18.5l359 874q4 11 7.5 22t5.5 22q5 23 10 44.5t15 41.5t31 34.5t56 23.5q36 8 88 8q36 0 64.5 -11.5t51.5 -31.5q24 -20 42 -47t32 -57l380 -923q7 -17 9.5 -35.5t3.5 -36.5q0 -78 -56 -139q-37 -39 -85 -53q-28 -8 -56 -8q-20 0 -41 4 q-49 9 -89.5 40.5t-60.5 84.5l-25 56h-341l-26 -56q-25 -59 -73 -95q-45 -35 -106 -34h-7q-49 0 -89 20t-67 54t-39 76q-7 25 -7 50q0 18 3 36zM523 469h195l-96 251z" />
<glyph unicode="B" horiz-adv-x="1298" d="M127 1239q0 18 5 33.5t19 26.5q12 11 34.5 17t58.5 6h516q69 0 133 -17.5t120 -52.5q55 -35 96 -85.5t65 -117.5q11 -33 17 -69.5t6 -79.5q0 -47 -12.5 -83.5t-26.5 -62.5q-8 -15 -18 -28.5t-20 -25.5q36 -27 62.5 -62.5t47.5 -84.5q20 -50 20 -117q0 -72 -19.5 -140.5 t-63.5 -129.5t-103.5 -102t-130.5 -63q-69 -21 -141 -21h-7h-440q-49 0 -86 17.5t-61 46.5q-26 29 -39.5 64.5t-13.5 71.5v927l-3 27l-2 12t-2 13l-2 11q-4 17 -6.5 35t-2.5 34zM539 346h223q13 0 29.5 4.5t30.5 15.5q14 10 23 27t9 41q0 26 -8.5 43t-22.5 28 q-13 11 -29.5 15t-31.5 4h-223v-178zM539 825h209q13 0 25.5 6.5t23.5 16.5q9 10 14.5 24.5t5.5 29.5q0 34 -23 54.5t-49 20.5h-206v-152z" />
<glyph unicode="C" horiz-adv-x="1340" d="M63 651q0 139 52.5 260t144.5 214q92 92 213.5 144.5t261.5 52.5q155 0 264 -48q55 -26 104.5 -65t98.5 -94q53 -60 58 -140v-8q0 -30 -12 -63q-14 -38 -46 -68q-23 -23 -52.5 -39t-64.5 -19q-8 -1 -15 -1q-28 0 -58 9q-38 11 -77 42q-8 7 -17.5 15t-17.5 16 q-17 17 -39.5 31.5t-52.5 24.5t-73 11q-56 0 -105 -22t-86 -61t-58 -90t-21 -106t21.5 -105t58.5 -88t86 -60.5t104 -22.5q46 0 77.5 12.5t57.5 32.5q24 16 52 41q25 22 54.5 38.5t60.5 24.5q26 6 52 6q38 0 74 -14q31 -12 56 -37q57 -57 57 -139q0 -39 -13.5 -75t-43.5 -66 q-47 -58 -99 -98t-110 -66q-116 -51 -275 -51q-140 0 -261.5 52t-213.5 144t-144.5 213.5t-52.5 261.5z" />
<glyph unicode="D" horiz-adv-x="1389" d="M127 1239q0 18 5.5 33.5t20.5 26.5q14 11 38 17t63 6h400q93 0 178.5 -24t159.5 -68q75 -44 136 -105t105 -136t68 -160t24 -178q0 -140 -52 -261.5t-145 -213.5t-214 -144t-260 -52h-309q-37 0 -69.5 11.5t-58.5 33.5t-43 50.5t-24 62.5q-4 17 -5 42v927q-1 16 -3.5 33 t-6.5 35q-8 36 -8 64zM545 374h109q55 3 104.5 24t86.5 57t58.5 85.5t21.5 110.5q0 69 -21.5 122.5t-58.5 91.5q-37 37 -86 58t-105 24h-109v-573z" />
<glyph unicode="E" horiz-adv-x="1226" d="M127 1239q0 18 5.5 33.5t20.5 26.5q14 11 38 17t63 6h709q65 0 107 -27.5t65 -70.5q22 -43 22 -92t-20 -92q-22 -43 -65.5 -70.5t-108.5 -27.5h-418v-108h290q46 0 86 -23.5t65 -59.5q26 -37 32 -82q2 -11 1 -22q0 -34 -15 -69q-24 -52 -67.5 -81.5t-101.5 -29.5h-290 v-86h418q43 0 79 -15.5t64 -41.5q27 -27 42 -64t15 -80t-15 -79t-42 -63q-28 -28 -64 -43t-79 -15h-618q-43 0 -79.5 15t-62.5 42q-27 27 -42.5 63.5t-15.5 79.5v927q-1 16 -3.5 33t-6.5 35q-8 36 -8 64z" />
<glyph unicode="F" horiz-adv-x="1192" d="M127 1239q0 18 5.5 33.5t20.5 26.5q14 11 38 17t63 6h698q31 0 65.5 -9t63.5 -30q30 -20 49 -54.5t21 -84.5v-6q-1 -34 -11 -68q-12 -36 -35 -64q-25 -29 -62.5 -46.5t-90.5 -17.5h-407v-130h256q43 0 79 -13.5t64 -37.5q27 -26 42 -61t15 -78t-15 -79.5t-42 -63.5 q-28 -27 -64 -42t-79 -15h-256v-242q0 -43 -15.5 -78.5t-42.5 -62.5q-27 -28 -63 -43.5t-79 -15.5t-79.5 15.5t-62.5 43.5q-27 27 -42.5 62.5t-15.5 78.5v927q-1 16 -3.5 33t-6.5 35q-8 36 -8 64z" />
<glyph unicode="G" horiz-adv-x="1398" d="M63 651q0 139 52.5 260t144.5 214q92 92 213.5 144.5t261.5 52.5q78 0 144.5 -14t125.5 -40q58 -28 108 -68t99 -95q27 -32 42.5 -65t15.5 -76q0 -55 -27.5 -100t-73.5 -70q-43 -24 -91 -28h-13q-41 0 -81 20q-38 18 -60 43q-25 24 -49.5 45.5t-56.5 36.5q-34 14 -83 15 q-56 0 -105 -22t-86 -61t-58 -90t-21 -106q0 -65 22 -116.5t61 -88.5t90 -57t110 -20h23q-32 24 -50 57t-18 64q0 27 13 55t37 52t56.5 37.5t73.5 13.5h277q33 0 61 -8.5t49 -30.5q20 -22 31.5 -56.5t11.5 -86.5v-327q0 -66 -43 -108q-43 -43 -115 -43q-61 0 -97 32t-47 87 q-25 -26 -54 -47.5t-63 -39.5q-34 -17 -73.5 -26.5t-85.5 -9.5q-140 0 -261.5 52t-213.5 144t-144.5 213.5t-52.5 261.5z" />
<glyph unicode="H" horiz-adv-x="1441" d="M127 1239q0 18 5.5 33.5t20.5 26.5q14 11 38 17t63 6q56 0 108.5 -7.5t93.5 -29.5q40 -22 64.5 -60.5t24.5 -103.5v-294h383v280q-1 33 -9 68q-8 36 -9 64q0 18 5.5 33.5t19.5 26.5t38 17t63 6q55 0 107 -7t94 -29t66.5 -61t24.5 -104v-941q0 -43 -15.5 -78.5 t-41.5 -62.5q-28 -28 -64.5 -43.5t-79.5 -15.5t-79 15.5t-63 43.5q-27 27 -42 62.5t-15 78.5v247h-383v-247q0 -43 -15.5 -78.5t-42.5 -62.5q-27 -28 -63 -43.5t-79 -15.5t-79.5 15.5t-62.5 43.5q-27 27 -42.5 62.5t-15.5 78.5v927q-1 16 -3.5 33t-6.5 35q-8 36 -8 64z" />
<glyph unicode="I" horiz-adv-x="673" d="M127 1239q0 18 5.5 33.5t20.5 26.5q14 11 38 17t63 6q58 0 109.5 -7.5t90.5 -29.5q39 -23 63 -62t28 -104v-939q0 -43 -15.5 -78.5t-42.5 -62.5q-27 -28 -63 -43.5t-79 -15.5t-79.5 15.5t-62.5 43.5q-27 27 -42.5 62.5t-15.5 78.5v927q-1 16 -3.5 33t-6.5 35q-8 36 -8 64 z" />
<glyph unicode="J" horiz-adv-x="657" d="M-121 -145q0 41 15.5 77t43.5 64q27 27 63 42t79 15q34 0 49.5 32.5t15.5 84.5v953q0 29 -8 59q-8 28 -8 57q0 18 5.5 33.5t20.5 26.5q14 11 38 17t62 6q55 0 107 -7t94 -29t66.5 -61t24.5 -104v-951q0 -121 -35 -215.5t-96 -162.5q-62 -68 -148 -103t-188 -35 q-43 0 -79.5 15.5t-62.5 42.5q-28 27 -43.5 63.5t-15.5 79.5z" />
<glyph unicode="K" horiz-adv-x="1289" d="M127 1253q0 18 5.5 34t20.5 27q14 11 38 16.5t63 5.5q52 0 103.5 -5.5t93.5 -25.5t68 -60.5t26 -107.5l1 -198l359 334q39 35 93 45q18 3 35 4q35 0 70 -13q15 -5 31.5 -14t31.5 -20q15 -12 27.5 -26.5t19.5 -30.5q13 -34 19 -68q3 -18 2 -35q0 -16 -2 -32 q-5 -33 -21 -62t-44 -50l-271 -212l312 -474q32 -47 32 -99q0 -51 -25.5 -98t-70.5 -78q-43 -30 -105 -30h-4q-50 0 -94 24.5t-74 73.5l-270 452l-54 -45l2 -305q0 -43 -15.5 -78.5t-42.5 -62.5q-27 -28 -63 -43.5t-79 -15.5t-79.5 15.5t-62.5 43.5q-27 27 -42.5 62.5 t-15.5 78.5v941q-1 17 -3.5 34t-6.5 35q-8 36 -8 63z" />
<glyph unicode="L" horiz-adv-x="1138" d="M127 1260q0 18 5.5 33.5t20.5 26.5q14 11 38 16.5t63 5.5q56 0 108.5 -7.5t93.5 -28.5q40 -22 64.5 -61t24.5 -103v-741h344q41 0 77 -15.5t64 -42.5q27 -28 43 -64.5t16 -77.5q0 -43 -14 -79t-39 -63q-25 -28 -58.5 -43.5t-74.5 -15.5h-567q-84 5 -136 60 q-26 27 -40.5 62.5t-14.5 78.5v926q-1 16 -3.5 33.5t-6.5 34.5q-8 36 -8 65z" />
<glyph unicode="M" horiz-adv-x="1592" d="M104 1239q0 18 6 33.5t20 26.5t38.5 17t62.5 6q52 0 87 -1t62 -7q27 -7 48 -21t45 -40l332 -365q92 93 150.5 159.5t94.5 110.5q17 22 29.5 38.5t20.5 29.5l20 31q8 13 19 25t29 22q18 8 45.5 13t70.5 5q58 0 96.5 -17t62.5 -43q24 -28 33.5 -62.5t13.5 -67.5 q2 -17 2.5 -34t-0.5 -32t-1 -28v-23v-835q0 -43 -15.5 -78.5t-41.5 -62.5q-28 -28 -64 -43.5t-79 -15.5q-28 0 -62 10.5t-64 35.5q-31 24 -50.5 61.5t-19.5 92.5v543l-139 -176q-41 -49 -74 -79t-71 -30q-20 0 -36 7.5t-33 21.5q-16 14 -33 34l-43 46l-146 176v-98.5 t2 -84.5v-138v-58v-54v-110q0 -43 -15 -78.5t-42 -62.5q-27 -28 -63 -43.5t-79 -15.5t-79.5 15.5t-63.5 43.5q-27 27 -42 62.5t-15 78.5q0 118 0.5 233t1.5 232q1 77 1 154v77q0 114 -3 231q0 34 -9 65q-9 33 -10 67z" />
<glyph unicode="N" horiz-adv-x="1446" d="M127 1239q0 18 5.5 33.5t20.5 26.5q14 11 38 17t63 6q46 0 80 -1.5t62 -9.5t53.5 -24.5t55.5 -47.5l416 -501l-2 362q0 35 -9 72q-9 36 -9 67q0 24 5.5 39.5t24.5 26.5q17 9 50 13t88 4q50 0 95.5 -6.5t80.5 -27.5q34 -22 54 -60.5t20 -106.5v-918q0 -46 -14 -86t-39 -71 q-26 -31 -63 -48.5t-83 -17.5q-40 0 -78 15.5t-68 49.5l-431 520v-96t-1 -96t-1 -96.5v-96.5q0 -43 -14.5 -80t-41.5 -63q-27 -27 -62 -42t-78 -15t-79.5 15t-62.5 43q-27 27 -42.5 63t-15.5 79v927q-1 16 -3.5 33t-6.5 35q-8 36 -8 64z" />
<glyph unicode="O" horiz-adv-x="1470" d="M63 651q0 139 52.5 260t144.5 214q92 92 213.5 144.5t261.5 52.5q93 0 178 -24t160 -68t136 -105t105 -136t68 -160t24 -178q0 -140 -52 -261.5t-145 -213.5t-214 -144t-260 -52q-140 0 -261.5 52t-213.5 144t-144.5 213.5t-52.5 261.5zM465 647q0 -55 21 -104t58 -88 t86 -61.5t105 -22.5q55 0 104.5 23t86.5 62t58.5 89t21.5 106q0 55 -21.5 105t-58.5 88q-37 37 -86 59.5t-105 22.5t-105 -22t-86 -61t-58 -90t-21 -106z" />
<glyph unicode="P" horiz-adv-x="1262" d="M127 1253q0 18 5.5 34t20.5 27q14 11 38 16.5t63 5.5h426q105 0 200.5 -37.5t169.5 -105.5t116.5 -158t42.5 -195q0 -69 -20 -131t-55 -117q-36 -55 -85.5 -98t-107.5 -74q-59 -32 -124.5 -49t-136.5 -17h-135v-174q0 -43 -15.5 -79t-42.5 -63q-28 -28 -63.5 -43 t-78.5 -15t-79.5 15t-62.5 43q-27 27 -42.5 63t-15.5 79v941q-1 17 -3.5 34t-6.5 35q-8 36 -8 63zM537 693h143q29 0 54 10.5t43 28.5q18 17 29 41.5t11 53.5t-10.5 56.5t-29.5 49.5q-18 22 -43 35t-54 13h-143v-288z" />
<glyph unicode="Q" horiz-adv-x="1470" d="M63 651q0 139 52.5 260t144.5 214q92 92 213.5 144.5t261.5 52.5q93 0 178 -24t160 -68t136 -105t105 -136t68 -160t24 -178q0 -115 -35.5 -216.5t-97.5 -185.5t-149.5 -145.5t-189.5 -93.5l-18 -155q-10 -92 -52 -142.5t-125 -50.5q-43 0 -74 14.5t-53 39.5 q-23 26 -36 61t-18 78l-19 153q-104 32 -190.5 93.5t-149.5 145.5t-99.5 187t-36.5 217zM475 651q0 -56 19.5 -106t54.5 -89t82.5 -62t103.5 -23t104 23t83 62t54 89t19 106q0 55 -19.5 105t-53.5 88q-35 37 -82.5 59.5t-104.5 22.5q-55 0 -102.5 -22.5t-82.5 -59.5 q-35 -38 -55 -88t-20 -105z" />
<glyph unicode="R" horiz-adv-x="1256" d="M127 1253q0 18 5.5 34t20.5 27q14 11 38 16.5t63 5.5h426q105 0 200.5 -37.5t169.5 -105.5t116.5 -158t42.5 -195q0 -112 -50.5 -205.5t-134.5 -161.5l154 -174q28 -31 39 -67q8 -27 8 -54q0 -10 -1 -20q-4 -38 -22.5 -73t-51.5 -60q-33 -26 -70 -37q-25 -8 -50 -8 q-11 0 -23 2q-37 4 -70.5 22t-58.5 49l-221 301h-112v-174q0 -43 -15.5 -79t-42.5 -63q-28 -28 -63.5 -43t-78.5 -15t-79.5 15t-62.5 43q-27 27 -42.5 63t-15.5 79v941q-1 17 -3.5 34t-6.5 35q-8 36 -8 63zM537 693h143q29 0 54 10.5t43 28.5q18 17 29 41.5t11 53.5 t-10.5 56.5t-29.5 49.5q-18 22 -43 35t-54 13h-143v-288z" />
<glyph unicode="S" horiz-adv-x="1084" d="M33 301q0 38 12.5 71.5t36.5 56.5q24 24 56 37.5t71 13.5q43 0 85.5 -22t94.5 -61q14 -11 33.5 -19t40.5 -13q20 -5 37 -8t28 -3q27 0 50 8.5t23 31.5q0 17 -39 38q-20 9 -44.5 20.5t-54.5 24.5q-60 27 -129 62t-129 88q-59 52 -99 123.5t-40 169.5q0 90 32 163.5 t95 126.5q62 53 152.5 82.5t208.5 29.5q40 0 88 -9.5t97 -28.5q49 -18 94.5 -45t80.5 -61q36 -35 56.5 -76.5t20.5 -90.5q0 -44 -13.5 -75t-39.5 -49q-26 -19 -61.5 -27.5t-79.5 -8.5q-20 0 -40 1.5t-40 8.5q-20 6 -43 19t-49 36q-33 29 -58.5 48.5t-46.5 19.5 q-11 0 -23.5 -1.5t-23.5 -6.5t-17.5 -12.5t-6.5 -16.5q0 -20 25 -40t66 -42q20 -11 43 -23t50 -24q52 -25 107 -55t107 -67t93 -82.5t67 -100.5q24 -53 24 -119v-5q0 -72 -23 -130t-62 -104t-90 -79.5t-107 -55.5q-56 -23 -112.5 -33t-109.5 -10q-134 0 -227.5 31t-153.5 79 q-59 48 -86 105t-27 109z" />
<glyph unicode="T" horiz-adv-x="1248" d="M33 1121q0 43 15 79.5t43 64.5q27 27 62 42t78 15h785q41 0 77 -16t64 -42q28 -28 44 -64t16 -79t-16 -78.5t-44 -62.5t-64 -42.5t-77 -15.5h-189l-5 -742q0 -43 -14 -79t-41 -63q-27 -28 -62 -43t-78 -15t-79 15.5t-63 43.5q-27 27 -41 62.5t-14 78.5l-4 742h-195 q-43 0 -78 15t-62 42q-28 27 -43 63t-15 79z" />
<glyph unicode="U" horiz-adv-x="1307" d="M27 1239q0 18 5.5 33.5t19.5 26.5t38.5 17t63.5 6q56 0 107.5 -6.5t91.5 -28.5q39 -22 63.5 -61t27.5 -105v-591q0 -37 15 -70.5t43 -59.5t66 -40.5t85 -14.5q40 0 77.5 15t67.5 40q30 26 47 60t17 70l-2 577q-1 33 -9 68q-8 36 -8 64q0 18 5.5 33.5t19.5 26.5t38.5 17 t62.5 6q52 0 103 -6.5t94 -27.5q43 -22 69 -60.5t26 -106.5l2 -590q-2 -80 -25.5 -154t-65.5 -138q-42 -66 -97.5 -119t-123.5 -92t-143 -60.5t-155 -21.5q-81 0 -157.5 21t-144.5 59t-124 91t-97 119q-41 65 -63.5 139.5t-22.5 155.5l1 576q-1 16 -3.5 33t-6.5 35 q-8 36 -8 64z" />
<glyph unicode="V" horiz-adv-x="1242" d="M48 1202q14 36 42 63.5t67 43.5q38 15 76 15h3q40 0 75 -15q36 -14 63.5 -42t44.5 -67l202 -554l202 554q12 40 40 67.5t65 42.5q37 14 77 14q41 0 79.5 -15.5t67.5 -42.5q56 -58 58 -140q0 -40 -16 -79l-386 -945q-26 -61 -78 -94q-49 -31 -107 -31h-7q-58 0 -107.5 33 t-75.5 92l-385 945q-16 39 -16 77q0 41 16 78z" />
<glyph unicode="W" horiz-adv-x="1811" d="M48 1202q14 36 42 63.5t67 43.5q39 15 80 15q83 0 141 -56q27 -27 41 -68l205 -599l116 329q11 33 34 56t52 36l9 4q33 13 66 13q1 -1 3 -1q34 0 65 -12q31 -13 55 -36.5t36 -57.5l125 -338l208 606q17 52 60 84t95 39q13 1 26 1q38 0 73 -13q46 -18 74 -45 q56 -58 59 -140q-1 -42 -17 -79l-386 -945q-26 -59 -75.5 -91.5t-107.5 -33.5h-16q-6 0 -8 1q-55 5 -99.5 37t-68.5 87l-99 308l-95 -308q-24 -55 -68.5 -86.5t-99.5 -37.5q-3 -1 -15 -1h-9q-58 0 -107.5 33t-75.5 92l-385 945q-16 39 -16 77q0 41 16 78z" />
<glyph unicode="X" horiz-adv-x="1394" d="M46 180q0 38 15 75t44 68l326 336l-321 318q-30 29 -44.5 66t-14.5 76t14.5 75.5t44.5 66.5q30 31 67.5 46t76.5 16q39 0 75 -15t64 -47l293 -334l300 334q29 31 65 45.5t75 14.5t76 -15.5t67 -44.5q29 -30 44 -66.5t15 -75.5t-15 -75.5t-44 -66.5l-329 -324l325 -330 q29 -30 43.5 -66.5t14.5 -75.5t-14.5 -75.5t-43.5 -66.5q-30 -30 -68 -46t-77 -16t-75 15t-63 47l-298 345l-296 -345q-27 -32 -63 -47t-75 -15t-77 16t-68 46t-44.5 66.5t-14.5 74.5z" />
<glyph unicode="Y" horiz-adv-x="1292" d="M20 1124q0 35 14 69q14 36 44 67q30 30 67.5 45.5t77.5 16.5h5q36 0 70 -14q36 -15 62 -48l287 -363l286 363q26 33 62 48q34 14 71 14h5q39 -1 77.5 -17t68.5 -45q29 -30 43 -66.5t14 -74.5t-15 -74.5t-42 -68.5l-371 -419v-378q0 -43 -16 -79.5t-43 -62.5 q-28 -28 -63.5 -43.5t-78.5 -15.5t-79.5 15.5t-62.5 43.5q-27 27 -42.5 63t-15.5 79v376l-367 421q-28 32 -43 68.5t-15 79.5z" />
<glyph unicode="Z" horiz-adv-x="1261" d="M66 202q8 64 49 126q58 75 115.5 148.5t115.5 148.5q58 74 115.5 148t116.5 149h-293q-43 0 -79 15t-63 42q-28 27 -43.5 63t-15.5 79t16 79.5t43 64.5q27 27 63 42t79 15h680q41 0 77 -16t64 -42q28 -28 43.5 -64t15.5 -79q0 -39 -14.5 -77t-40.5 -71l-465 -597h353 q99 0 154 -53t55 -143q0 -43 -15.5 -78.5t-43.5 -62.5q-28 -28 -64 -43.5t-77 -15.5h-743q-53 0 -99 28t-73 74q-28 44 -28 95q0 12 2 25z" />
<glyph unicode="[" horiz-adv-x="787" d="M106 -162v1300q0 38 16 70.5t44 57.5q28 24 64 37t77 13h258q41 0 77.5 -14t64.5 -38q28 -25 43.5 -60t15.5 -78t-16 -79.5t-42 -66.5q-28 -30 -65 -47.5t-78 -17.5h-57v-868h57q41 0 78 -17t65 -46q27 -30 42.5 -68.5t15.5 -79.5q0 -43 -16 -77t-42 -59q-28 -26 -65 -40 t-78 -14h-258q-43 0 -78.5 14.5t-62.5 41.5q-28 27 -44 61t-16 75z" />
<glyph unicode="\" horiz-adv-x="1230" d="M55 1140q10 65 55 110q31 32 68 47.5t75 16.5q38 0 72.5 -12t58.5 -34q14 -14 27 -28.5t21 -32.5q43 -77 91 -166.5t101 -187.5q27 -49 53 -98.5t53 -102.5q27 -52 53 -101.5t53 -98.5q26 -49 50.5 -96t48.5 -93q48 -91 87.5 -166t70.5 -133l48 -88q35 -61 25 -123.5 t-56 -108.5q-34 -33 -79.5 -48t-91.5 -11t-85.5 27t-61.5 70q-90 175 -179.5 346t-181.5 342t-178.5 334.5t-169.5 324.5q-15 30 -24 55.5t-4 55.5z" />
<glyph unicode="]" horiz-adv-x="788" d="M2 -164q0 43 16 81t43 68t63 46t79 16h57v868h-57q-43 0 -79 17.5t-63 47.5q-28 30 -43.5 66.5t-15.5 79.5t16 78t43 60t63 38.5t79 13.5h258q40 0 76 -13.5t64 -36.5q27 -24 43 -56.5t16 -71.5v-1300q-2 -41 -17 -75t-42 -61t-62 -41.5t-78 -14.5h-258q-39 0 -75.5 14 t-64.5 40q-28 25 -44.5 59t-16.5 77z" />
<glyph unicode="^" horiz-adv-x="1161" d="M127 864q0 77 55 132l268 270q26 26 60.5 39.5t71.5 13.5t71.5 -14t60.5 -39l264 -270q55 -55 55 -132q0 -46 -20.5 -84.5t-56.5 -64.5q-45 -35 -108 -35q-37 0 -72 13.5t-60 39.5l-136 174l-133 -174q-26 -27 -60.5 -40t-71.5 -13q-15 0 -30 1.5t-29 6.5 q-28 9 -51.5 26.5t-40.5 41.5q-37 48 -37 108z" />
<glyph unicode="_" horiz-adv-x="1255" d="M127 160q0 43 16 79t43 64q27 27 63 42t79 15h599q41 0 77 -15.5t64 -42.5q28 -28 43.5 -64.5t15.5 -77.5q0 -43 -15.5 -79t-43.5 -63q-28 -28 -64 -43.5t-77 -15.5h-599q-43 0 -79 15.5t-63 42.5q-28 27 -43.5 63.5t-15.5 79.5z" />
<glyph unicode="`" horiz-adv-x="485" d="M67.5 1340.5q8.5 32.5 28.5 59.5t50.5 42t63.5 15q40 0 84.5 -23.5t82.5 -57.5q38 -35 62.5 -72.5t24.5 -66.5q0 -12 -1 -24t-6 -23q-14 -38 -49.5 -60t-74.5 -22q-37 0 -79.5 16t-81.5 40t-68 53t-36 57q-9 34 -0.5 66.5z" />
<glyph unicode="a" horiz-adv-x="1225" d="M67 496q0 105 40.5 198.5t111.5 164.5t163.5 111.5t200.5 40.5q83 0 148 -24.5t114 -71.5q24 44 57.5 71t85.5 27q111 0 111 -111v-812q0 -110 -109 -110h-2q-49 0 -84 26t-58 69q-49 -46 -114.5 -70.5t-148.5 -24.5q-108 0 -200.5 40t-163.5 111t-111.5 164t-40.5 201z M468 496q0 -25 8.5 -47.5t24.5 -39.5q15 -17 36 -27.5t46 -10.5t45.5 10t36.5 28q15 17 23.5 39.5t8.5 47.5v5q-1 24 -10 45t-24 38q-15 15 -36 24.5t-44 9.5q-25 0 -46 -9.5t-36 -26.5t-24 -39.5t-9 -46.5z" />
<glyph unicode="b" horiz-adv-x="1222" d="M127 90v1049q0 43 15.5 79t42.5 64q27 27 63.5 42t79.5 15q41 0 77.5 -15t64.5 -42q27 -28 42.5 -64t15.5 -79v-163q77 35 158 35q108 0 194.5 -40.5t148.5 -111.5t96 -164.5t34 -198.5q0 -108 -33.5 -201t-96.5 -164q-62 -71 -148.5 -111t-194.5 -40q-93 0 -166.5 30 t-131.5 83q-24 -50 -59 -81.5t-90 -31.5h-2q-110 0 -110 110zM528 496q0 -25 9 -47.5t24 -39.5t36 -27.5t46 -10.5t46.5 10t36.5 28q15 17 24 39.5t9 47.5t-9 46.5t-24 39.5q-15 17 -36.5 26.5t-46.5 9.5t-45.5 -9.5t-36.5 -26.5q-15 -17 -24 -39t-9 -47z" />
<glyph unicode="c" horiz-adv-x="1095" d="M63 496q0 105 40.5 198.5t111.5 164.5t163 111.5t200 40.5q59 0 115.5 -12.5t107.5 -33.5q51 -22 92.5 -51t71.5 -63q31 -33 48.5 -69.5t17.5 -72.5q0 -37 -12.5 -70.5t-36.5 -57.5q-25 -25 -58 -40t-76 -15q-25 0 -46 7t-41 18q-10 5 -20 10.5t-20 11.5q-10 5 -20 11.5 t-21 11.5q-34 14 -71 18q-10 1 -19 1q-26 0 -50 -8q-33 -11 -54 -37.5t-21 -73.5q0 -46 19.5 -74t51.5 -39q23 -8 49 -8q10 0 20 1q38 4 75 19q23 9 42 23q20 12 39 22q41 20 90 23h11q43 0 84 -21q40 -24 62.5 -64t22.5 -95q0 -61 -32 -115t-91 -96t-142.5 -67t-187.5 -25 q-108 0 -200 40t-163 111t-111.5 164t-40.5 201z" />
<glyph unicode="d" horiz-adv-x="1222" d="M63 496q0 105 34.5 198.5t97.5 164.5q61 71 147.5 111.5t194.5 40.5q39 0 78.5 -12t78.5 -34v174q0 43 16 79t44 64q27 27 62.5 42t78.5 15t79.5 -15t63.5 -42q27 -28 42.5 -64t15.5 -79v-1049q0 -110 -110 -110h-2q-55 0 -91 31t-59 83l-4 5q-53 -56 -125.5 -87.5 t-167.5 -31.5q-108 0 -194.5 40t-147.5 111q-62 71 -97 164t-35 201zM465 496q0 -25 8.5 -47.5t24.5 -39.5q15 -17 36 -27.5t46 -10.5t45.5 10t36.5 28q15 17 23.5 39.5t8.5 47.5v5q-1 24 -10 45t-25 38q-15 15 -35.5 24.5t-43.5 9.5q-25 0 -46 -9.5t-36 -26.5t-24 -39.5 t-9 -46.5z" />
<glyph unicode="e" d="M63 496q0 105 41 198.5t112 164.5t163.5 111.5t200.5 40.5t200.5 -36.5t163.5 -101.5t111.5 -153.5t40.5 -196.5q0 -40 -13 -65.5t-35 -39.5q-23 -14 -54 -20t-69 -6h-452q5 -30 37 -58q14 -14 32.5 -23t39.5 -9q24 0 42 6.5t39 16.5q23 10 51.5 14t59.5 0t60 -15t53 -30 t37 -47q14 -30 14 -67q0 -57 -33 -95q-34 -39 -86 -62q-53 -24 -116.5 -33.5t-122.5 -9.5q-108 0 -200.5 40t-163.5 111t-112 164t-41 201zM467 616h225q-2 17 -13.5 32t-29.5 25q-17 9 -35.5 14.5t-33.5 5.5q-17 0 -36 -5.5t-34 -14.5q-16 -10 -27.5 -24.5t-15.5 -32.5z " />
<glyph unicode="f" horiz-adv-x="944" d="M48 746q0 38 14 71t38 57t56 38t70 14h7q7 109 44 195t99 148q61 61 143 94.5t180 33.5q43 0 79 -15.5t64 -42.5q27 -28 42.5 -64t15.5 -79q0 -56 -26 -101t-72 -71q-25 -14 -49 -17q-27 -4 -50.5 -10.5t-40.5 -20.5q-17 -15 -25 -50h58q37 0 70 -14t57 -38 q24 -25 38 -57.5t14 -70.5q0 -37 -14 -69t-38 -56q-25 -25 -57.5 -39.5t-69.5 -14.5h-61v-387q0 -41 -16 -77t-43 -64q-28 -28 -64.5 -43.5t-77.5 -15.5q-43 0 -79 15.5t-62 43.5q-28 28 -44 64t-16 77v387h-6q-38 0 -70 14.5t-56 39.5q-25 25 -38.5 57t-13.5 68z" />
<glyph unicode="g" horiz-adv-x="1225" d="M67 496q0 105 34 198.5t97 164.5q61 71 147.5 111.5t194.5 40.5q77 0 155 -24t146 -74q7 18 21.5 36.5t33.5 31.5t41 21.5t44 8.5q30 0 52 -10.5t37 -28.5q14 -18 21.5 -43.5t7.5 -54.5v-778q0 -145 -43.5 -245t-112.5 -161q-69 -62 -152.5 -90t-164.5 -28 q-170 0 -247.5 53.5t-77.5 161.5q0 33 12.5 60.5t33.5 48.5q22 20 50.5 31t60.5 11q18 0 35 -3.5t35 -6.5q18 -4 41 -7t55 -3q20 0 39.5 12.5t34.5 31.5q14 19 21.5 43t4.5 46q-8 -13 -25.5 -26t-42.5 -23t-55 -16t-61 -6q-108 0 -194.5 40t-147.5 111q-62 71 -96.5 164 t-34.5 201zM468 496q0 -25 8 -47.5t24 -39.5q15 -17 35.5 -27.5t45.5 -10.5t46 10t37 28q15 17 24 39.5t9 47.5t-9 46.5t-24 39.5q-15 17 -37 26.5t-46 9.5q-25 0 -45.5 -9.5t-35.5 -26.5q-32 -35 -32 -86z" />
<glyph unicode="h" horiz-adv-x="1244" d="M106 180v957q0 41 15.5 77.5t43.5 63.5q27 27 63 42.5t79 15.5q41 0 78 -15.5t65 -42.5q27 -27 42.5 -63.5t15.5 -77.5v-199q13 17 34.5 31.5t46.5 25.5t51 16.5t49 5.5q108 0 191.5 -40.5t141.5 -111.5t88.5 -164.5t30.5 -198.5v-322q0 -40 -16 -76t-43 -64 q-28 -28 -63.5 -44t-78.5 -16q-49 0 -86.5 18.5t-61.5 50.5q-26 32 -39 73t-13 87v293q0 51 -31 86q-15 17 -36.5 27t-45.5 10q-25 0 -46.5 -11t-37.5 -29t-25.5 -41.5t-9.5 -47.5v-316q0 -43 -16 -79t-42 -63q-28 -28 -65 -43t-78 -15q-43 0 -79.5 15t-62.5 43 q-28 27 -43.5 63t-15.5 79z" />
<glyph unicode="i" horiz-adv-x="613" d="M101 1294q0 41 15.5 77t43.5 63q27 27 63 41.5t79 14.5q41 0 78 -15t64 -41q27 -27 43 -63t16 -77q0 -43 -16 -78t-43 -62q-28 -27 -64.5 -41.5t-77.5 -14.5q-43 0 -79.5 14.5t-62.5 41.5q-28 27 -43.5 62t-15.5 78zM106 180v633q0 41 15.5 78t42.5 63q27 27 63 43t79 16 q41 0 78 -16t65 -43q27 -27 42.5 -63.5t15.5 -77.5v-633q0 -43 -16 -79t-42 -63q-28 -28 -65 -43t-78 -15q-43 0 -79.5 15t-62.5 43q-27 27 -42.5 63t-15.5 79z" />
<glyph unicode="j" horiz-adv-x="614" d="M-160 -200q0 55 26 101t73 71q27 14 57 20q30 3 54.5 11.5t40.5 32.5q15 24 15 80v695q0 41 16 77.5t44 63.5q27 27 62.5 43t78.5 16q41 0 78 -16t65 -43q27 -28 42.5 -64t15.5 -77v-695q0 -118 -34.5 -212.5t-95.5 -162.5t-147 -104.5t-190 -36.5q-43 0 -79 15t-62 42 q-28 27 -44 63.5t-16 79.5zM106 1292q0 41 15.5 77t43.5 63q27 27 63 41.5t79 14.5q41 0 78 -15t65 -41q27 -27 42.5 -63t15.5 -77q0 -43 -16 -78t-42 -62q-28 -27 -65 -41.5t-78 -14.5q-43 0 -79.5 14.5t-62.5 41.5q-28 27 -43.5 62t-15.5 78z" />
<glyph unicode="k" horiz-adv-x="1176" d="M106 180v957q0 41 15.5 77.5t43.5 63.5q27 27 63 42.5t79 15.5q41 0 78 -15.5t65 -42.5q27 -27 42.5 -63.5t15.5 -77.5v-381l292 213q46 32 99 39q24 3 46.5 -1.5t45.5 -13.5q35 -14 63.5 -40t45.5 -62q17 -37 17 -78q0 -47 -22 -88t-59 -68l-126 -92l177 -262 q28 -31 39 -66q9 -30 9 -60v-11q-3 -36 -18 -69.5t-41 -58.5q-26 -26 -60 -41t-74 -15q-43 0 -84 20.5t-72 58.5l-184 281l-46 -34q-8 -6 -14.5 -10.5t-12.5 -7.5q-5 -3 -8.5 -5t-5.5 -3q-2 -2 -3.5 -3t-3.5 -3v-96q0 -43 -16 -79t-42 -63q-28 -28 -65 -43t-78 -15 q-43 0 -79.5 15t-62.5 43q-28 27 -43.5 63t-15.5 79z" />
<glyph unicode="l" horiz-adv-x="614" d="M106 180v957q0 41 15.5 77.5t43.5 63.5q27 27 63 42.5t79 15.5q41 0 78 -15.5t65 -42.5q27 -27 42.5 -63.5t15.5 -77.5v-957q0 -43 -16 -79t-42 -63q-28 -28 -65 -43t-78 -15q-43 0 -79.5 15t-62.5 43q-28 27 -43.5 63t-15.5 79z" />
<glyph unicode="m" horiz-adv-x="1704" d="M106 180v720q0 111 112 111q49 0 81 -24.5t55 -64.5q25 16 56.5 32t67.5 29q36 12 72.5 20t72.5 8q86 0 153.5 -24t119.5 -68q24 16 55.5 32.5t68.5 29.5q36 13 74 21.5t74 8.5q108 0 187.5 -40.5t134.5 -111.5t81.5 -164.5t26.5 -198.5v-318q0 -41 -15.5 -76.5 t-42.5 -62.5q-27 -28 -62.5 -43.5t-76.5 -15.5q-43 0 -79.5 15.5t-64.5 43.5q-28 27 -43.5 62.5t-15.5 76.5v332q0 52 -20 78t-50 26t-51 -24.5t-23 -73.5v-338q0 -41 -16 -76.5t-43 -62.5q-28 -28 -63.5 -43.5t-76.5 -15.5q-43 0 -79 15.5t-63 43.5q-28 27 -44 62.5 t-16 76.5v332q0 52 -20.5 78t-49.5 26q-30 0 -52 -25t-23 -74v-335q0 -43 -16 -79t-42 -63q-28 -28 -65 -43t-78 -15q-43 0 -79.5 15t-62.5 43q-28 27 -43.5 63t-15.5 79z" />
<glyph unicode="n" horiz-adv-x="1247" d="M106 180v720q0 111 112 111q52 0 85 -25t58 -76q52 38 101.5 58.5t92.5 29.5t77 11t57 2q108 0 191.5 -40.5t141.5 -111.5t88.5 -164.5t30.5 -198.5v-318q0 -41 -16 -76.5t-43 -62.5q-27 -28 -63 -43.5t-77 -15.5q-43 0 -79 15.5t-63 43.5q-28 27 -44 62.5t-16 76.5v318 q0 51 -31 86q-15 17 -36.5 26.5t-45.5 9.5q-25 0 -46 -9.5t-37 -24.5q-34 -34 -36 -83v-321q0 -43 -16 -79t-42 -63q-28 -28 -65 -43t-78 -15q-43 0 -79.5 15t-62.5 43q-28 27 -43.5 63t-15.5 79z" />
<glyph unicode="o" d="M63 496q0 105 41 198.5t112 164.5t163.5 111.5t200.5 40.5t200.5 -40.5t163.5 -111.5t111.5 -164.5t40.5 -198.5q0 -108 -40.5 -201t-111.5 -164t-164 -111t-200 -40q-108 0 -200.5 40t-163.5 111t-112 164t-41 201zM465 496q0 -25 8.5 -47.5t24.5 -39.5q15 -17 36 -27.5 t46 -10.5t45.5 10t36.5 28q15 17 23.5 39.5t8.5 47.5t-8.5 46.5t-23.5 39.5q-15 17 -36.5 26.5t-45.5 9.5q-25 0 -46 -9.5t-36 -26.5t-24 -39t-9 -47z" />
<glyph unicode="p" horiz-adv-x="1202" d="M106 -147v1047q0 111 112 111q55 0 91 -31.5t60 -83.5v-1q56 55 129.5 85.5t167.5 30.5q108 0 194 -40.5t149 -111.5q62 -71 96 -164.5t34 -198.5q0 -108 -34 -201t-96 -164t-149 -111t-194 -40q-40 0 -79.5 10t-78.5 28v-165q0 -43 -16 -80t-42 -64q-28 -27 -65 -42 t-78 -15q-43 0 -79.5 15.5t-62.5 41.5q-28 27 -43.5 64t-15.5 80zM508 496q0 -25 8.5 -47.5t24.5 -39.5q15 -17 36 -27.5t46 -10.5t46 10t37 28q15 17 23.5 39.5t8.5 47.5t-8.5 46.5t-23.5 39.5q-15 17 -37 26.5t-46 9.5q-25 0 -45.5 -9.5t-35.5 -24.5q-32 -34 -34 -83v-5z " />
<glyph unicode="q" horiz-adv-x="1202" d="M63 496q0 105 34.5 198.5t97.5 164.5q61 71 147.5 111.5t194.5 40.5q95 0 167.5 -32t125.5 -88l4 5q24 52 59.5 83.5t90.5 31.5q112 0 112 -111v-1047q0 -43 -15.5 -80t-42.5 -64q-28 -27 -64 -42t-79 -15t-79 15.5t-62 41.5q-28 27 -44 64t-16 80v163 q-37 -17 -76.5 -26.5t-80.5 -9.5q-108 0 -194.5 40t-147.5 111q-62 71 -97 164t-35 201zM465 496q0 -25 8.5 -47.5t24.5 -39.5q15 -17 36 -27.5t46 -10.5t45.5 10t36.5 28q15 17 23.5 39.5t8.5 47.5t-8.5 46.5t-23.5 39.5q-15 17 -36.5 26.5t-45.5 9.5q-25 0 -46 -9.5 t-36 -26.5t-24 -39.5t-9 -46.5z" />
<glyph unicode="r" horiz-adv-x="953" d="M106 180v720q0 111 112 111q50 0 83.5 -24t57.5 -74q58 46 125 72t139 26q49 0 99 -11.5t92 -35.5q42 -26 68 -67t26 -99q0 -39 -15.5 -74t-41.5 -60q-52 -55 -132 -56q-20 0 -41 3q-22 3 -43 6t-41 3q-22 0 -39 -6.5t-26 -17.5t-13 -26.5t-6 -33.5q-1 -10 -1.5 -20 t-0.5 -20v-316q0 -43 -16 -79t-42 -63q-28 -28 -65 -43t-78 -15q-43 0 -79.5 15t-62.5 43q-28 27 -43.5 63t-15.5 79z" />
<glyph unicode="s" horiz-adv-x="1056" d="M63 271q0 34 13 64.5t36 53.5q22 24 51.5 36.5t63.5 12.5q38 0 74 -13.5t69 -33.5q16 -10 31.5 -20t30.5 -20q31 -23 57 -36q10 -5 27.5 -11.5t34.5 -8.5q17 -3 29 2.5t12 25.5q0 12 -24 26q-24 12 -60.5 26.5t-84.5 32.5q-48 17 -95 38.5t-90 51.5t-72 67.5t-40 86.5 q-5 21 -5 43q1 29 9 59q14 54 43 100q28 46 75.5 83t117.5 60q71 24 162 24q87 0 165 -16t137 -48t95 -77.5t36 -105.5q0 -44 -17 -74.5t-43 -51.5q-26 -20 -56 -29.5t-57 -9.5q-25 0 -48.5 9t-45.5 21q-23 12 -41.5 26t-34.5 25q-32 22 -58 19q-14 -2 -23 -10t-9 -21 q0 -5 13 -13q25 -15 73 -32q12 -5 24.5 -9t26.5 -10l60 -21q35 -12 71.5 -29.5t71.5 -42.5q36 -26 63.5 -59.5t45.5 -79.5q16 -45 16 -106q0 -80 -40 -135.5t-105 -91.5q-66 -36 -150 -52.5t-174 -16.5q-46 0 -97 9t-103 26t-99 42.5t-83 58.5t-57.5 71t-21.5 84z" />
<glyph unicode="t" horiz-adv-x="894" d="M33 817q0 41 14.5 77t41.5 62q27 27 61 42t77 15h19v124q0 41 15 77.5t42 63.5t63 42.5t79 15.5q41 0 78 -15.5t64 -42.5t42.5 -63.5t15.5 -77.5v-124h23q41 0 76 -15t62 -42t42 -62.5t15 -76.5q0 -40 -15 -75t-42 -62t-62 -42t-76 -15h-23v-443q0 -43 -16 -79t-42 -63 q-27 -28 -64 -43t-78 -15q-43 0 -79 15t-63 43q-27 27 -42 63t-15 79v443h-19q-43 0 -77 15t-61 42t-41.5 62t-14.5 75z" />
<glyph unicode="u" horiz-adv-x="1246" d="M106 496v317q0 41 16 77t44 62q27 27 62.5 43t76.5 16t78 -16t64 -43q28 -27 44.5 -62.5t16.5 -76.5v-317q0 -25 8 -47.5t24 -39.5q15 -17 35.5 -27.5t45.5 -10.5t46.5 10t38.5 28q16 17 25 39.5t9 47.5v315q0 43 16 79t43 63t62.5 42.5t78.5 15.5t79.5 -15.5t63.5 -42.5 q27 -28 42.5 -63.5t15.5 -78.5v-721q0 -110 -109 -110h-2q-50 0 -84.5 24.5t-59.5 73.5q-52 -37 -101 -57t-92 -29t-77 -10.5t-57 -1.5q-108 0 -191 40t-142 111q-58 71 -89 164t-31 201z" />
<glyph unicode="v" horiz-adv-x="1118" d="M34 801q0 7 -1 14q0 33 10 63q11 37 36 67t62 48q38 19 78 22q9 1 17 1q31 0 60 -9q36 -11 66 -37t50 -64l146 -365l147 361q15 38 44.5 64t67.5 39q31 10 64 10q7 -1 14 -1q41 -2 79 -21q38 -16 64 -45.5t39 -65.5q10 -32 10 -66v-11q-2 -40 -20 -78l-322 -635 q-32 -61 -87 -90q-44 -23 -94 -23q-12 0 -25 1q-49 3 -92.5 32t-69.5 78l-322 633q-19 38 -21 78z" />
<glyph unicode="w" horiz-adv-x="1713" d="M34 830q4 52 31 96q27 43 71 64.5t84 24.5q9 1 17 1q71 0 127 -46q30 -27 49 -64l127 -347l133 343q15 43 52 70t83 39q25 6 49 6q9 0 19 -1q34 -3 64 -18q31 -14 56.5 -37t41.5 -55l122 -347l138 343q15 38 44.5 64t66.5 39q31 9 65 9h13q41 -2 80 -21q49 -24 79 -66.5 t34 -95.5q2 -26 -2.5 -52t-16.5 -52l-322 -635q-20 -43 -53 -69t-73 -37q-28 -8 -59 -8h-10q-36 2 -71 15t-62.5 37t-39.5 60l-118 326l-127 -324q-12 -31 -34.5 -54t-50.5 -37q-29 -14 -60 -20t-62 -1q-52 5 -94.5 31.5t-67.5 78.5l-301 633q-23 48 -23 95q1 6 1 12z" />
<glyph unicode="x" horiz-adv-x="1097" d="M33 819q0 39 15 73t40 57q27 25 61.5 43t74.5 20h8q34 0 72 -16q42 -18 82 -63q14 -17 28.5 -33.5t29.5 -34.5l30 -32l73 -82l184 204q14 15 42.5 32t65.5 22q12 2 24 2q26 0 54 -8q41 -11 84 -50q26 -25 43 -58t20 -70v-10q0 -33 -12 -67q-14 -39 -46 -74l-78 -70 q-10 -8 -19 -15.5t-17 -15.5l-87 -77l94 -85q15 -14 33 -30.5t35 -31.5l18 -16t20 -17q33 -31 46.5 -62t15.5 -60q2 -30 -6 -55.5t-18 -46.5q-5 -10 -9.5 -18t-9.5 -15l-13 -16q-17 -19 -48 -37t-69 -24q-13 -2 -27 -2q-25 0 -53 7q-42 11 -86 51l-20 22l-20 22 q-17 18 -35 38t-30 35l-76 83l-79 -90q-7 -8 -14.5 -16.5t-15.5 -16.5q-16 -17 -30 -33t-27 -33q-23 -25 -55.5 -44t-71.5 -24q-12 -2 -24 -2q-28 1 -58 9q-42 12 -82 49q-22 20 -38 54.5t-18 74.5q-1 7 -1 14q1 34 13 68q14 42 55 76l11 10q10 9 25.5 23.5t33.5 30.5 q9 8 17.5 15.5t16.5 14.5l87 78l-107 94q-15 13 -31 27.5t-28 25.5l-29 26q-37 35 -51 73q-14 36 -13 72v5z" />
<glyph unicode="y" horiz-adv-x="1147" d="M56 812v8q0 36 12 68q26 75 100 110q38 17 80 20q9 1 18 1q32 0 62 -9q37 -11 66.5 -37.5t42.5 -65.5l147 -433q35 99 59 172.5t41 126.5l28 86q11 34 23.5 62t41.5 54q55 47 128 47q8 0 17 -1q40 -3 68.5 -17.5t55.5 -35.5q27 -23 44 -57t20 -81v-9q0 -44 -25 -96 l-405 -853q-23 -47 -62.5 -81.5t-89.5 -56.5q-49 -23 -103.5 -34t-107.5 -11q-52 0 -92.5 14.5t-68.5 41.5q-58 53 -59 142q0 59 25.5 91t62.5 47q37 14 77 15t68 1l48 93q-1 1 -4 7.5t-10 20.5q-13 27 -35 69t-49 97q-14 27 -27.5 54t-28.5 54l-149 296q-17 40 -19 80z" />
<glyph unicode="z" horiz-adv-x="1120" d="M50 218q2 35 14.5 66.5t37.5 53.5l354 294h-153q-43 0 -80 10.5t-66 32.5q-30 22 -47.5 53t-17.5 74t16 77t44 60q27 25 62.5 38.5t78.5 13.5h524q41 0 77.5 -16t63.5 -42q28 -27 44 -63.5t16 -77.5q0 -39 -20 -80.5t-58 -78.5l-286 -279h196q99 0 159 -43t60 -132 q0 -43 -16 -76.5t-42 -59.5q-28 -26 -64.5 -39.5t-77.5 -13.5h-617q-55 0 -100.5 28t-71.5 74q-16 25 -24 58q-7 27 -6 55v13z" />
<glyph unicode="{" horiz-adv-x="871" d="M55 502q0 27 10.5 43.5t25.5 28.5q14 11 33 21q17 9 32 22.5t25 32.5q10 17 10 50v205q0 84 31 159t86 133t127.5 93t158.5 40q4 0 7 1h6q43 0 81 -13t67 -38t45 -60t16 -79q0 -40 -15.5 -78.5t-41.5 -68.5q-28 -31 -64.5 -48.5t-77.5 -17.5h-2q-22 -1 -22 -20v-819 q1 -19 22 -19h2q41 0 77.5 -18t64.5 -48q27 -31 42 -69t15 -78q0 -46 -16.5 -81t-44.5 -60q-29 -25 -67 -37.5t-81 -12.5q-4 0 -6 1h-7q-86 5 -158 40t-128 93q-55 58 -86 132t-31 160v215q0 24 -10 39t-24 28q-16 13 -33 23q-18 11 -33 24.5t-25 33.5q-10 17 -11 47z" />
<glyph unicode="|" horiz-adv-x="613" d="M106 -105v1249q0 41 15.5 77.5t42.5 64.5q27 27 62.5 43t78.5 16t79 -16t63 -43q27 -28 43 -64.5t16 -77.5v-1249q0 -43 -16 -79t-43 -63q-28 -27 -63.5 -42t-78.5 -15t-79 15.5t-62 41.5q-27 27 -42.5 63t-15.5 79z" />
<glyph unicode="}" horiz-adv-x="871" d="M55 -143q0 40 15.5 78t43.5 69q27 30 62 48t78 18h2q22 0 23 19v819q0 19 -23 20h-2q-43 0 -78.5 18t-61.5 48q-28 30 -43.5 68.5t-15.5 78.5q0 44 16.5 79t45.5 60t66.5 38t80.5 13h7q2 -1 7 -1q84 -5 157 -40t128 -93t86 -133t31 -159v-205q0 -32 10 -50.5t26 -32.5 q12 -12 33 -22q17 -9 32 -20.5t25 -28.5q10 -16 10 -44q0 -29 -10 -47.5t-25 -32.5q-14 -12 -32 -25q-18 -11 -33.5 -23.5t-25.5 -27.5q-10 -14 -10 -39v-215q0 -86 -31 -159.5t-86 -132.5q-55 -58 -128.5 -93t-156.5 -40h-7q-3 -1 -7 -1q-43 0 -81 13t-66 37 q-29 25 -45.5 60t-16.5 81z" />
<glyph unicode="~" horiz-adv-x="1421" d="M76 463q0 89 35.5 158.5t97.5 118.5q61 49 139.5 76t167.5 27q50 0 107 -17t110 -50q52 -33 95 -80.5t67 -106.5q5 -13 15 -22.5t28 -9.5q19 0 32.5 11.5t16.5 35.5q5 38 23 72.5t46 59.5q28 26 62.5 41t74.5 15q52 0 90 -24.5t57 -67.5t20 -96q0 -87 -35 -156.5 t-94 -118.5q-59 -50 -136 -77t-164 -27q-58 0 -115.5 16t-109.5 48q-52 31 -95 77t-70 107q-8 18 -19 27.5t-28 9.5q-18 0 -28.5 -13.5t-15.5 -33.5q-9 -38 -28.5 -71.5t-45.5 -57.5q-27 -26 -60.5 -40.5t-73.5 -14.5q-39 0 -70 14t-52 39q-44 50 -44 131z" />
<glyph unicode="&#xa1;" horiz-adv-x="522" d="M69 -160v755q0 41 15.5 77.5t43.5 63.5q27 28 62.5 44t78.5 16q41 0 78 -16t65 -44q27 -28 42.5 -64t15.5 -77v-755q0 -41 -15.5 -77.5t-41.5 -63.5q-28 -28 -64.5 -43.5t-79.5 -15.5t-79 15.5t-63 43.5q-28 27 -43 63.5t-15 77.5zM69 1078q0 43 15 78.5t43 62.5 q27 27 63 41.5t79 14.5q41 0 78 -15t65 -41q27 -27 42.5 -62.5t15.5 -78.5t-16 -78t-42 -62q-28 -27 -65 -41.5t-78 -14.5q-43 0 -79 14.5t-63 41.5q-28 27 -43 62t-15 78z" />
<glyph unicode="&#xa2;" horiz-adv-x="1095" d="M53 496q0 83 24.5 157.5t69.5 138.5q45 63 105.5 110t134.5 75v156q0 37 13.5 69.5t37.5 57.5t56 39t70 14q37 0 70 -14t58 -38q25 -25 39 -58t14 -70v-152q65 -22 118.5 -55.5t90.5 -74.5q31 -33 49 -69.5t18 -72.5q0 -37 -13 -70.5t-36 -57.5q-25 -25 -58 -40t-76 -15 q-25 0 -46 7t-41 18q-10 5 -20 10.5t-20 11.5q-10 5 -20 11.5t-21 11.5q-34 14 -71 18t-70 -7t-53.5 -37.5t-20.5 -73.5q0 -46 19.5 -74t50.5 -39t69.5 -7t75.5 19q23 9 42 23q20 12 39 22q41 20 90 23t95 -21q40 -24 62.5 -64t22.5 -95q0 -46 -18.5 -89t-54.5 -80t-87 -66 t-116 -46v-128q0 -38 -14 -70t-39 -56q-25 -25 -57.5 -38.5t-70.5 -13.5t-70 14t-56 38q-51 49 -51 126v138q-74 28 -134 75.5t-106 111.5q-45 63 -69.5 138.5t-24.5 158.5z" />
<glyph unicode="&#xa3;" horiz-adv-x="1245" d="M54 675q0 38 14 70.5t38 57.5q24 24 56 37.5t70 13.5h7q0 117 34.5 210.5t97.5 161.5q62 68 147 104t188 36q43 0 78.5 -15.5t63.5 -41.5q27 -28 42.5 -64.5t15.5 -79.5q0 -56 -26 -101t-72 -71q-28 -14 -53 -17q-28 -4 -51.5 -12t-40.5 -26t-22 -62v-22h60q37 0 70 -14 t57 -37q24 -25 38.5 -57.5t14.5 -70.5q0 -37 -14.5 -69.5t-38.5 -56.5q-25 -25 -57.5 -39t-69.5 -14h-60v-117h344q41 0 77.5 -16t63.5 -42q28 -28 44 -64t16 -79t-14 -79t-38 -62q-25 -28 -59.5 -44t-75.5 -16h-569q-40 2 -75.5 18t-60.5 43q-26 27 -40.5 62t-14.5 78v318 h-7q-38 0 -70 14t-56 39q-25 25 -38.5 57t-13.5 69z" />
<glyph unicode="&#xa4;" horiz-adv-x="1004" d="M53.5 439.5q7.5 42.5 45.5 80.5l23 23q-27 70 -27 146q0 85 33 163l-27 28q-31 30 -41 70.5t-1 80.5t38 72.5t78 45.5q40 11 81 0.5t73 -42.5l27 -29q74 32 159 32q80 0 155 -30l21 22q30 31 71.5 41.5t82.5 2.5q41 -9 74 -38.5t47 -79.5q11 -41 0 -82.5t-43 -74.5 l-21 -20q15 -38 24 -78.5t9 -83.5t-8 -82t-23 -75l14 -13q31 -31 41 -71.5t0 -80.5q-9 -40 -38 -73t-78 -46q-41 -11 -82.5 0t-73.5 43l-11 11q-78 -33 -161 -33q-89 0 -169 35l-15 -15q-37 -37 -78.5 -44.5t-80.5 5.5q-39 12 -69 42t-44 67q-13 38 -5.5 80.5zM421 689 q0 -40 28 -69q12 -14 29 -22.5t37 -8.5t37 8t30 23q12 14 19 31.5t7 37.5q0 41 -26 71.5t-67 30.5q-40 0 -66 -30q-28 -30 -28 -72z" />
<glyph unicode="&#xa5;" horiz-adv-x="1403" d="M32 1098q0 38 15 74.5t45 67.5q30 30 67 44.5t74 14.5q38 0 75 -14.5t67 -44.5l327 -328l327 328q30 30 67 44.5t75 14.5q39 0 75.5 -14.5t66.5 -44.5q29 -30 44 -66t15 -75t-15 -76t-44 -67l-270 -267q26 -17 41 -45t15 -60q0 -28 -10.5 -51.5t-27.5 -40.5t-41 -27.5 t-51 -10.5h-68v-53h68q55 0 92 -36q17 -17 27.5 -41t10.5 -52t-10.5 -51t-27.5 -41q-17 -17 -41 -27.5t-51 -10.5h-69q-3 -39 -20 -72.5t-43 -58.5q-27 -25 -62 -38.5t-75 -13.5t-75 14t-62 38q-27 25 -43 58.5t-19 72.5h-52q-28 0 -51.5 10.5t-41.5 27.5q-37 37 -37 92 t37 93q38 36 93 36h52v53h-52q-28 0 -51.5 10t-41.5 28q-37 37 -37 92q0 30 12.5 55.5t33.5 42.5l-273 274q-30 30 -45 67t-15 75z" />
<glyph unicode="&#xa6;" horiz-adv-x="611" d="M105 -133v385q0 41 15.5 78t43.5 64q27 27 62 43t78 16q41 0 77.5 -16t63.5 -44q28 -28 44 -64t16 -77v-385q0 -43 -16 -79t-43 -62q-28 -28 -63.5 -44t-78.5 -16t-79 15.5t-62 43.5q-27 27 -42.5 63t-15.5 79zM105 740v397q0 41 15.5 77.5t43.5 63.5q27 27 62 42.5 t78 15.5q41 0 77.5 -15.5t63.5 -42.5q28 -28 44 -64t16 -77v-397q0 -43 -16 -78.5t-43 -62.5q-28 -28 -63.5 -43t-78.5 -15t-79 15t-62 42q-27 27 -42.5 63t-15.5 79z" />
<glyph unicode="&#xa7;" horiz-adv-x="1056" d="M63 271q0 34 13 64.5t36 53.5q22 24 51.5 36.5t63.5 12.5q38 0 74 -13.5t69 -33.5q16 -10 31.5 -20t30.5 -20q31 -23 57 -36q10 -5 27.5 -11.5t34.5 -8.5q17 -3 29 2.5t12 25.5q0 7 -24 18q-11 5 -26.5 10.5t-33.5 13.5q-38 12 -85.5 29.5t-94.5 40.5q-47 24 -89.5 54 t-72.5 70t-40.5 90t6.5 113q11 39 34.5 79.5t63.5 74.5q-28 22 -49 46.5t-34 55.5q-12 30 -14 64.5t9 77.5q12 44 40.5 88t76.5 80t115.5 58.5t163.5 22.5q87 0 165 -16t138 -47q59 -32 94.5 -78t35.5 -106q0 -44 -17 -76.5t-43 -54.5t-56 -32t-57 -10q-25 0 -49 10t-46 24 q-11 7 -20.5 14t-19.5 16q-19 15 -34.5 26t-30.5 17q-15 5 -29 5.5t-22 -4.5q-9 -6 -9 -20q0 -5 12 -13q11 -8 30.5 -16.5t44.5 -16.5q25 -9 50.5 -18t60.5 -21q34 -12 70.5 -30t72.5 -42q36 -25 63 -60t44 -81q16 -45 16 -105q0 -59 -22.5 -105.5t-60.5 -80.5 q33 -41 53.5 -92.5t20.5 -119.5q0 -80 -40 -135.5t-105 -91.5q-66 -36 -150 -52.5t-174 -16.5q-46 0 -97 9t-103 26t-99 42.5t-83 58.5t-57.5 71t-21.5 84zM504 689q0 -9 4 -18t18 -18q14 -8 40.5 -14.5t72.5 -9.5q18 7 29 20.5t11 33.5q-1 14 -12.5 26.5t-30.5 23.5 q-17 4 -32 6t-30 1q-46 -4 -58 -18t-12 -33z" />
<glyph unicode="&#xa8;" horiz-adv-x="1020" d="M31 1505q0 34 12.5 63t34.5 52q22 22 51.5 34.5t63.5 12.5q33 0 62.5 -13t51.5 -34q22 -23 34.5 -52t12.5 -63t-12.5 -63.5t-34.5 -50.5q-23 -22 -52.5 -35t-61.5 -13q-34 0 -64 13t-51 35q-22 22 -34.5 51t-12.5 63zM426 1505q0 34 13 63t35 52q22 22 51 34.5t62 12.5 q34 0 63.5 -13t50.5 -34q22 -23 35 -52t13 -63t-13 -63.5t-35 -50.5q-22 -22 -51 -35t-63 -13q-33 0 -62 13t-51 35q-23 22 -35.5 51t-12.5 63z" />
<glyph unicode="&#xa9;" horiz-adv-x="1466" d="M37 651q0 93 25.5 178t71.5 160t110.5 136t141.5 105t163.5 68t179.5 24t179.5 -24t163.5 -68t141.5 -105t110.5 -136t71.5 -160t25.5 -178t-25.5 -178.5t-71.5 -160.5t-110.5 -136t-141.5 -104q-77 -44 -163.5 -68t-179.5 -24t-179.5 24t-163.5 68q-77 43 -141.5 104.5 t-110.5 135.5q-46 75 -71.5 160.5t-25.5 178.5zM291 647q0 -81 37 -154t98 -131q61 -57 140 -90.5t163 -33.5t163 33t140 91t98 132.5t37 157.5t-36.5 156.5t-98.5 129.5q-61 55 -140 88t-163 33t-163 -33t-140 -90t-98 -131.5t-37 -157.5zM388 651q0 71 26.5 133.5 t73.5 108.5q46 46 108.5 72.5t133.5 26.5q79 0 135 -23.5t106 -80.5q27 -30 26 -72q1 -14 -5.5 -34t-20.5 -37q-12 -10 -28 -17.5t-34 -9.5q-17 -2 -37 3t-39 20q-5 4 -9.5 8t-8.5 9q-19 19 -48 29q-17 5 -37 6q-30 0 -54.5 -12t-42.5 -31t-28.5 -45.5t-10.5 -55.5 q0 -26 10.5 -50.5t29.5 -43.5q18 -19 42.5 -31t53.5 -12q24 0 40 6.5t30 17.5l12 10t13 10q13 11 35.5 23.5t57.5 12.5q34 0 60 -24q29 -32 29 -71q0 -17 -7.5 -37.5t-21.5 -37.5q-49 -56 -108.5 -81t-139.5 -25q-71 0 -133 27t-109 73t-73.5 106.5t-26.5 128.5z" />
<glyph unicode="&#xaa;" horiz-adv-x="1176" d="M134 475q0 105 41 199t112 165t163.5 111t199.5 40q83 0 148 -24.5t114 -70.5q24 44 58 70.5t86 26.5q110 1 110 -110v-812q0 -111 -110 -111q-49 0 -84 26t-59 69q-49 -46 -114.5 -70.5t-148.5 -24.5q-108 0 -200.5 40.5t-162.5 111.5q-71 71 -112 164t-41 200zM536 475 q0 -25 8.5 -47t23.5 -40q15 -17 36.5 -27.5t45.5 -10.5q25 0 46 10.5t36 27.5t24 39.5t9 47.5v5q-1 24 -10.5 45.5t-24.5 37.5q-15 15 -35.5 25t-44.5 10q-25 0 -45.5 -9.5t-36.5 -27.5q-15 -17 -23.5 -39t-8.5 -47z" />
<glyph unicode="&#xab;" horiz-adv-x="1596" d="M57 492q0 39 14 75.5t44 66.5l319 315q37 37 84.5 50t93.5 5q46 -9 86 -39.5t63 -79.5q12 -27 15 -56t-2 -58t-19.5 -56t-38.5 -49l-217 -170l217 -179q32 -27 46.5 -62t13.5 -73t-15.5 -74.5t-40.5 -65.5q-27 -29 -64 -47t-81 -18q-39 0 -74.5 14.5t-66.5 45.5l-319 313 q-33 30 -45.5 64.5t-12.5 77.5zM743 492q0 39 14 75.5t44 66.5l319 315q37 37 84.5 50t93.5 5q46 -9 86 -39.5t63 -79.5q12 -27 15 -56t-2 -58t-19.5 -56t-38.5 -49l-217 -170l217 -179q32 -27 46.5 -62t13.5 -73t-15 -74.5t-41 -65.5t-63.5 -47t-80.5 -18q-39 0 -75 14.5 t-67 45.5l-319 313q-33 30 -45.5 64.5t-12.5 77.5z" />
<glyph unicode="&#xad;" horiz-adv-x="973" d="M72 621q0 43 15 79t43 64q27 27 63 42t79 15h428q43 0 79 -15.5t64 -42.5q27 -28 42.5 -64.5t15.5 -77.5q0 -43 -16 -79t-42 -63q-28 -28 -64 -43.5t-79 -15.5h-428q-43 0 -79 15.5t-63 42.5q-28 27 -43 63.5t-15 79.5z" />
<glyph unicode="&#xae;" horiz-adv-x="1587" d="M37 651q0 93 25.5 178t71.5 160t110.5 136t141.5 105t163.5 68t179.5 24t179.5 -24t163.5 -68t141.5 -105t110.5 -136t71.5 -160t25.5 -178t-25.5 -178.5t-71.5 -160.5t-110.5 -136t-141.5 -104q-77 -44 -163.5 -68t-179.5 -24t-179.5 24t-163.5 68q-77 43 -141.5 104.5 t-110.5 135.5q-46 75 -71.5 160.5t-25.5 178.5zM301 647q0 -80 36 -153.5t96 -128.5q60 -56 136.5 -89.5t159.5 -33.5t159.5 33t136.5 90q60 56 96 130t36 157q0 81 -36 154t-96 128t-136.5 88t-159.5 33t-159 -33.5t-137 -88.5q-60 -56 -96 -130.5t-36 -155.5zM504 488v336 q0 33 16 57.5t54 24.5q27 0 52.5 -18t35.5 -41q46 36 82 47.5t69 11.5q52 0 89 -14t60 -38q14 -17 21 -35t7 -42q0 -23 -8.5 -44t-25.5 -38q-15 -15 -38 -23.5t-44 -8.5q-15 0 -33 3q-9 1 -21.5 1.5t-28.5 0.5q-15 0 -23.5 -6.5t-13.5 -15.5q-5 -10 -7 -23.5t-2 -28.5v-26 t-1 -26t-1.5 -26.5t-0.5 -27.5q-4 -53 -36.5 -87t-81.5 -34q-53 0 -86.5 34t-33.5 87z" />
<glyph unicode="&#xaf;" horiz-adv-x="973" d="M96 433q0 54 37 93q37 37 91 37h520q55 0 93 -37q17 -18 27 -41.5t10 -51.5q0 -27 -10 -50.5t-27 -40.5t-41 -27.5t-52 -10.5h-520q-27 0 -50 10.5t-41 27.5q-37 37 -37 91z" />
<glyph unicode="&#xb0;" horiz-adv-x="535" d="M62 1038q0 37 14 69.5t39 56.5q24 25 56 39t69 14t69 -14t57 -39q24 -25 37.5 -57t13.5 -69t-14 -69t-37 -56q-25 -25 -57.5 -38.5t-68.5 -13.5q-37 0 -69.5 14t-55.5 38q-25 24 -39 56t-14 69zM195 1038q0 -19 12.5 -33t33.5 -14q18 0 31 14t13 33t-13 33.5t-31 14.5 q-20 0 -33 -14.5t-13 -33.5z" />
<glyph unicode="&#xb1;" horiz-adv-x="969" d="M96 131q0 54 37 93q37 37 91 37h520q55 0 93 -37q17 -18 27 -41.5t10 -51.5q0 -27 -10 -50.5t-27 -40.5t-41 -27.5t-52 -10.5h-520q-27 0 -50 10.5t-41 27.5q-37 37 -37 91zM96 746q0 54 37 94q37 37 91 37h130v133q0 27 10.5 50t27.5 41q37 37 91 37t94 -37 q37 -37 36 -91v-133h131q55 0 93 -37q17 -18 27 -42t10 -52q0 -27 -10 -50t-27 -41q-17 -17 -41 -27.5t-52 -10.5h-131v-128q0 -55 -36 -92q-18 -17 -42 -27.5t-52 -10.5q-27 0 -50 10.5t-41 27.5q-17 17 -27.5 41t-10.5 51v128h-130q-27 0 -50 10.5t-41 27.5q-37 37 -37 91 z" />
<glyph unicode="&#xb2;" horiz-adv-x="654" d="M94 586q0 26 18 49.5t46 46.5q27 24 58 43q31 20 58 38t45 34q17 15 18 27q0 15 -13 14q-13 -2 -23 -12q-6 -5 -11.5 -11t-10.5 -12q-15 -20 -39 -32.5t-47 -11.5q-33 2 -61.5 26.5t-28.5 70.5q0 28 15.5 55.5t46.5 50.5q30 22 74.5 35.5t102.5 13.5q65 0 108 -13.5 t69 -34.5q27 -22 37 -48.5t10 -52.5q0 -34 -15 -61t-39 -48q-24 -22 -51 -39t-49 -30q10 -2 13 -2q26 0 52.5 -1.5t48.5 -9.5q22 -9 35.5 -28.5t13.5 -55.5q0 -43 -28 -72.5t-71 -29.5h-281q-20 0 -38 8t-32 22t-22.5 31.5t-8.5 39.5z" />
<glyph unicode="&#xb3;" horiz-adv-x="454" d="M15 649q0 24 12.5 40.5t28.5 24.5q10 5 23.5 4.5t24.5 -3.5q13 -5 24.5 -15.5t23.5 -21.5q11 -11 23 -19.5t30 -8.5t32 14t14 34t-12.5 35t-32.5 15q-27 0 -40 -8q-14 -7 -30 -7q-31 0 -48 15.5t-17 34.5q0 23 10.5 36.5t26.5 22.5q7 4 14.5 7.5t15.5 6.5q17 6 28 15h-64 q-34 0 -60 20.5t-26 55.5q0 34 24.5 55.5t57.5 21.5h208q32 0 55 -27q23 -26 23 -58t-27 -52q-9 -8 -16 -14t-12 -10t-8.5 -6.5t-5.5 -4.5q-4 -4 -4 -5t1 -1q43 -17 67 -60.5t24 -92.5q0 -43 -16 -78t-44 -60q-28 -26 -63 -40t-72 -14q-38 0 -73 14t-61 37q-27 22 -43 48 t-16 49z" />
<glyph unicode="&#xb4;" horiz-adv-x="913" d="M43 1237q0 29 24.5 66.5t62.5 72.5q38 34 82.5 57.5t84.5 23.5q33 0 62.5 -15.5t51.5 -41.5q20 -27 29 -59.5t-1 -66.5q-8 -28 -36 -57t-67 -53q-39 -25 -82 -40.5t-80 -15.5q-39 0 -74 22t-50 60q-5 11 -6 23t-1 24z" />
<glyph unicode="&#xb5;" horiz-adv-x="1266" d="M106 -159v957q0 43 15.5 79t43.5 64q27 27 63 42t79 15q41 0 78 -15t65 -42q27 -28 42.5 -64t15.5 -79v-316q0 -25 9 -46.5t26 -39.5q16 -17 37.5 -27t46.5 -10t45.5 10t36.5 27q32 35 31 86v287q0 46 13 87t39 73q25 32 62 50.5t86 18.5q43 0 79 -16t63 -44t43 -64 t16 -76v-316q0 -108 -30.5 -200.5t-88.5 -162.5q-58 -71 -141.5 -111.5t-191.5 -40.5q-28 0 -56.5 5t-52.5 15q-25 8 -44 18t-28 21v-185q0 -43 -16 -78.5t-42 -62.5q-28 -27 -65 -42.5t-78 -15.5q-43 0 -79.5 15.5t-62.5 42.5q-28 27 -43.5 62.5t-15.5 78.5z" />
<glyph unicode="&#xb6;" horiz-adv-x="1600" d="M33 940q0 80 33.5 150t90.5 122q56 52 130 82t154 30h297h11h593q41 0 77.5 -16t64.5 -42q28 -28 43.5 -64t15.5 -79t-16 -78.5t-43 -62.5q-28 -27 -64.5 -42.5t-77.5 -15.5h-2l-4 -742q0 -43 -14 -79t-41 -63q-27 -28 -62 -43t-78 -15q-44 0 -79.5 15.5t-62.5 43.5 q-27 27 -41 62.5t-14 78.5l-4 742h-107v-495v-252q0 -43 -15.5 -78.5t-42.5 -61.5q-28 -27 -63.5 -42t-78.5 -15t-78.5 15t-61.5 42q-27 27 -42.5 62t-15.5 78v387q-80 1 -152.5 30.5t-127.5 80.5t-88.5 118t-33.5 147z" />
<glyph unicode="&#xb7;" horiz-adv-x="520" d="M59 446q0 41 15.5 77t43.5 63q27 27 63 41.5t79 14.5q41 0 78 -15t64 -41q27 -27 43 -63t16 -77q0 -43 -16 -78t-43 -62q-28 -27 -64.5 -41.5t-77.5 -14.5q-43 0 -79.5 15t-62.5 41q-28 27 -43.5 62t-15.5 78z" />
<glyph unicode="&#xb8;" horiz-adv-x="848" d="M-122 -468q-4 28 5 53q8 26 31 43.5t62 18.5q32 1 51 -14t34 -32t30 -32.5t39 -15.5q12 0 27 3.5t28 13.5q12 9 20.5 26t7.5 42t-17 43.5t-39 34.5q-11 8 -24 15.5t-27 15.5q-28 15 -50.5 33t-38.5 41q-16 22 -16 53l-1 126l210 3q0 -18 0.5 -29t1.5 -19q0 -6 2 -14 q1 -3 2 -7t3 -9q6 -17 17.5 -32t36.5 -26q59 -25 91 -65.5t46 -85.5q13 -45 11.5 -87.5t-8.5 -70.5q-23 -89 -89 -144t-162 -66q-46 -5 -86.5 5t-76.5 31q-36 20 -63 45t-42 52q-12 23 -16 51z" />
<glyph unicode="&#xb9;" horiz-adv-x="455" d="M63 828q0 18 10 34.5t29 35.5l84 83q23 23 48 27.5t46 0.5q33 -7 55.5 -35.5t22.5 -63.5v-321q0 -13 -4.5 -29.5t-15.5 -31.5t-30 -25t-48 -10q-30 0 -49.5 9t-31.5 24q-12 14 -17 32t-5 33v168q-2 8 -13 8q-5 -1 -10.5 -1h-10.5q-14 0 -24.5 6t-18.5 15q-16 19 -17 41z " />
<glyph unicode="&#xba;" horiz-adv-x="962" d="M66 200q0 43 15 79t43 64q27 27 63 42t79 15h428q41 0 78 -15.5t65 -42.5q27 -28 42.5 -64.5t15.5 -77.5q0 -43 -16 -79t-42 -63q-28 -28 -65 -43.5t-78 -15.5h-428q-43 0 -79 15.5t-63 42.5q-28 27 -43 63.5t-15 79.5zM70 896q0 87 32 161.5t88 130.5q55 55 130 87.5 t161 32.5q87 0 161.5 -32.5t130.5 -87.5q55 -56 87.5 -130.5t32.5 -161.5q0 -86 -32.5 -161t-87.5 -130q-56 -56 -130.5 -88.5t-161.5 -32.5q-86 0 -160.5 32.5t-130.5 88.5q-56 55 -88 130t-32 161zM429 899q0 -68 52 -68q24 0 39.5 16.5t15.5 51.5q0 29 -15.5 44t-39.5 15 q-52 0 -52 -59z" />
<glyph unicode="&#xbb;" horiz-adv-x="1596" d="M83 182q-1 38 13.5 73.5t46.5 61.5l217 179l-217 170q-25 23 -39 49.5t-19 55.5q-12 57 13 114q23 49 63 79t86 40q46 8 93.5 -5t84.5 -50l319 -315q30 -30 44 -67t14 -75q0 -43 -12.5 -77.5t-45.5 -64.5l-319 -313q-31 -31 -66.5 -45.5t-74.5 -14.5q-44 0 -80.5 18 t-63.5 47t-41.5 65.5t-15.5 74.5zM769 182q-1 38 13.5 73.5t46.5 61.5l218 179l-218 170q-25 23 -39 49.5t-19 55.5q-12 57 13 114q23 49 63 79t86 40q46 8 93.5 -5t84.5 -50l320 -315q30 -30 43.5 -67t13.5 -75q0 -43 -12.5 -77.5t-44.5 -64.5l-320 -313 q-31 -31 -66.5 -45.5t-74.5 -14.5q-44 0 -80.5 18t-63.5 47t-41.5 65.5t-15.5 74.5z" />
<glyph unicode="&#xbf;" horiz-adv-x="1148" d="M59 124q0 46 6 84t22 77q15 39 45 78t77 89q25 25 62 45q36 18 72.5 40t68.5 51q30 29 44 74q8 27 24 44.5t35 28.5q18 11 37 16t33 5q28 0 59 -7.5t57 -25.5q27 -19 43.5 -51.5t16.5 -82.5q0 -37 -3.5 -64t-17.5 -54q-13 -27 -38 -54.5t-71 -64.5q-9 -8 -21.5 -15.5 t-26.5 -15.5q-31 -17 -59 -40t-49 -53q-22 -29 -21 -69q0 -25 9 -45.5t24 -34.5q32 -32 79 -32q32 0 53 9t36 23q14 14 23.5 30.5t16.5 32.5q11 31 34 51.5t51 32.5q28 11 59 14.5t59 -1.5q37 -7 71.5 -28.5t57.5 -53.5q24 -33 30 -77t-15 -96q-62 -157 -186.5 -239.5 t-306.5 -82.5q-99 0 -188 37.5t-156 101.5q-68 65 -107 147.5t-39 175.5zM394 982q0 43 16 79t43 63t63.5 43t77.5 16q43 0 79 -16t63 -43q27 -28 43 -63.5t16 -78.5q0 -41 -16 -78t-43 -63q-28 -28 -63.5 -44t-78.5 -16q-41 0 -78 16t-63 44q-27 27 -43 63.5t-16 77.5z" />
<glyph unicode="&#xc0;" horiz-adv-x="1264" d="M40 216q2 8 4 17.5t6 18.5l359 874q4 11 7.5 22t5.5 22q5 23 10 44.5t15 41.5t31 34.5t56 23.5q36 8 88 8q36 0 64.5 -11.5t51.5 -31.5q24 -20 42 -47t32 -57l380 -923q7 -17 9.5 -35.5t3.5 -36.5q0 -78 -56 -139q-37 -39 -85 -53t-97 -4q-49 9 -89.5 40.5t-60.5 84.5 l-25 56h-341l-26 -56q-26 -58 -73.5 -94.5t-112.5 -34.5q-49 0 -89 20t-67 54q-28 33 -39.5 75.5t-3.5 86.5zM318 1607q-9 34 0 66.5t29 59.5t50.5 42t63.5 15q40 0 84.5 -23.5t82.5 -57.5q38 -35 62.5 -73t24.5 -66q0 -12 -1 -24t-6 -23q-14 -38 -49.5 -60t-74.5 -22 q-37 0 -79.5 16t-81.5 40t-68 53t-37 57zM523 469h195l-96 251z" />
<glyph unicode="&#xc1;" horiz-adv-x="1264" d="M40 216q2 8 4 17.5t6 18.5l359 874q4 11 7.5 22t5.5 22q5 23 10 44.5t15 41.5t31 34.5t56 23.5q36 8 88 8q36 0 64.5 -11.5t51.5 -31.5q24 -20 42 -47t32 -57l380 -923q7 -17 9.5 -35.5t3.5 -36.5q0 -78 -56 -139q-37 -39 -85 -53t-97 -4q-49 9 -89.5 40.5t-60.5 84.5 l-25 56h-341l-26 -56q-26 -58 -73.5 -94.5t-112.5 -34.5q-49 0 -89 20t-67 54q-28 33 -39.5 75.5t-3.5 86.5zM485 1551q0 29 25 67t62 73q38 34 82.5 57.5t84.5 23.5q33 0 62.5 -15.5t51.5 -42.5q20 -27 29 -59.5t0 -66.5q-8 -28 -36.5 -57t-67.5 -52q-39 -25 -82 -41 t-80 -16q-39 0 -74 22t-49 60q-5 11 -6.5 23t-1.5 24zM523 469h195l-96 251z" />
<glyph unicode="&#xc2;" horiz-adv-x="1264" d="M40 216q2 8 4 17.5t6 18.5l359 874q4 11 7.5 22t5.5 22q5 23 10 44.5t15 41.5t31 34.5t56 23.5q36 8 88 8q36 0 64.5 -11.5t51.5 -31.5q24 -20 42 -47t32 -57l380 -923q7 -17 9.5 -35.5t3.5 -36.5q0 -78 -56 -139q-37 -39 -85 -53t-97 -4q-49 9 -89.5 40.5t-60.5 84.5 l-25 56h-341l-26 -56q-26 -58 -73.5 -94.5t-112.5 -34.5q-49 0 -89 20t-67 54q-28 33 -39.5 75.5t-3.5 86.5zM305 1501q0 24 9 45.5t26 38.5l181 179q34 34 77.5 36t79.5 -22l194 -193q34 -37 34 -85q0 -49 -34 -86q-38 -38 -86 -36q-24 0 -46 9.5t-40 26.5l-95 93l-92 -93 q-36 -36 -86 -36q-24 0 -46.5 9t-40.5 27t-26.5 41t-8.5 46zM523 469h195l-96 251z" />
<glyph unicode="&#xc3;" horiz-adv-x="1264" d="M40 216q2 8 4 17.5t6 18.5l359 874q4 11 7.5 22t5.5 22q5 23 10 44.5t15 41.5t31 34.5t56 23.5q36 8 88 8q36 0 64.5 -11.5t51.5 -31.5q24 -20 42 -47t32 -57l380 -923q7 -17 9.5 -35.5t3.5 -36.5q0 -78 -56 -139q-37 -39 -85 -53t-97 -4q-49 9 -89.5 40.5t-60.5 84.5 l-25 56h-341l-26 -56q-26 -58 -73.5 -94.5t-112.5 -34.5q-49 0 -89 20t-67 54q-28 33 -39.5 75.5t-3.5 86.5zM319 1548q0 85 56 142q27 29 67 45.5t86 16.5q43 0 72 -15t51 -32q23 -18 44 -33.5t48 -15.5q22 0 30 14t17 33q8 17 22.5 31.5t50.5 14.5q15 0 32.5 -5t32.5 -18 q14 -13 22.5 -34t8.5 -53q0 -34 -15 -68t-44 -62t-68 -44.5t-89 -16.5q-43 0 -69 15.5t-46 33.5q-20 17 -41.5 32.5t-52.5 15.5q-20 0 -28.5 -11t-15.5 -27q-6 -15 -15 -30t-32 -21q-11 -4 -29 -4q-47 0 -71 28.5t-24 67.5zM523 469h195l-96 251z" />
<glyph unicode="&#xc4;" horiz-adv-x="1264" d="M40 216q2 8 4 17.5t6 18.5l359 874q4 11 7.5 22t5.5 22q5 23 10 44.5t15 41.5t31 34.5t56 23.5q36 8 88 8q36 0 64.5 -11.5t51.5 -31.5q24 -20 42 -47t32 -57l380 -923q7 -17 9.5 -35.5t3.5 -36.5q0 -78 -56 -139q-37 -39 -85 -53t-97 -4q-49 9 -89.5 40.5t-60.5 84.5 l-25 56h-341l-26 -56q-26 -58 -73.5 -94.5t-112.5 -34.5q-49 0 -89 20t-67 54q-28 33 -39.5 75.5t-3.5 86.5zM253 1563q0 34 13 63t34 51q22 22 51.5 34.5t63.5 12.5q33 0 62.5 -12.5t51.5 -34.5q22 -23 35 -52t13 -62q0 -34 -13 -64t-35 -51q-23 -22 -52.5 -34.5 t-61.5 -12.5q-34 0 -63.5 12.5t-51.5 34.5t-34.5 51.5t-12.5 63.5zM523 469h195l-96 251zM648 1563q0 34 13 63t35 51t51 34.5t62 12.5q34 0 63.5 -12.5t51.5 -34.5q22 -23 34.5 -52t12.5 -62q0 -34 -13 -64t-34 -51q-22 -22 -51.5 -34.5t-63.5 -12.5q-33 0 -62 12.5 t-51 34.5q-23 22 -35.5 51.5t-12.5 63.5z" />
<glyph unicode="&#xc5;" horiz-adv-x="1264" d="M40 216q2 8 4 17.5t6 18.5l359 874q4 11 7.5 22t5.5 22q5 23 10 44.5t15 41.5t31 34.5t56 23.5q36 8 88 8q36 0 64.5 -11.5t51.5 -31.5q24 -20 42 -47t32 -57l380 -923q7 -17 9.5 -35.5t3.5 -36.5q0 -78 -56 -139q-37 -39 -85 -53t-97 -4q-49 9 -89.5 40.5t-60.5 84.5 l-25 56h-341l-26 -56q-26 -58 -73.5 -94.5t-112.5 -34.5q-49 0 -89 20t-67 54q-28 33 -39.5 75.5t-3.5 86.5zM436 1591q0 37 14 69.5t38 56.5q24 25 56.5 38.5t68.5 13.5q37 0 69.5 -13.5t56.5 -38.5t38 -57t14 -69t-14 -69t-38 -56q-25 -25 -57 -38.5t-69 -13.5t-69 14 t-56 38q-25 24 -38.5 56t-13.5 69zM523 469h195l-96 251zM568 1591q0 -19 13 -33t33 -14q18 0 31 14t13 33t-12.5 33.5t-31.5 14.5q-20 0 -33 -14.5t-13 -33.5z" />
<glyph unicode="&#xc6;" horiz-adv-x="1741" d="M23.5 186.5q4.5 43.5 35.5 103.5q3 6 6.5 12t6.5 11l15 27q4 8 9.5 18.5t13.5 23.5l35 65q22 40 54 99t79 143l107 197q60 113 141 261q5 11 10.5 22t9.5 22q8 23 15.5 44t20.5 41q12 18 33 32.5t54 23.5q31 8 83 10h552q49 0 84 -16t60 -43t37 -60.5t13 -69.5 q0 -36 -11.5 -70t-35.5 -61q-25 -27 -61.5 -43t-85.5 -16h-303l7 -25q2 -12 6 -25l14 -48h244q47 0 87 -23t64 -60q25 -37 31 -82t-13 -91q-24 -53 -67.5 -81.5t-101.5 -28.5h-146l27 -98h343q41 0 78 -14.5t63 -41.5q27 -28 43 -64.5t16 -79.5q0 -52 -18 -89t-50 -62 q-32 -26 -73.5 -38t-90.5 -12h-463q-31 0 -59.5 8t-54.5 26q-27 17 -47 44t-32 66q-1 3 -2 6.5t-2 7.5t-2 7l-2 6q-2 4 -3 7t-2 7h-362q-28 -47 -43 -69q-4 -5 -7.5 -10.5t-6.5 -9.5l-10 -16q-20 -35 -55 -56.5t-73 -27.5q-40 -6 -80.5 3t-74.5 37q-11 9 -28 27.5t-26 49.5 q-10 30 -5.5 73.5zM559 489h175l-55 225z" />
<glyph unicode="&#xc7;" horiz-adv-x="1340" d="M63 651q0 139 52.5 260t144.5 214q92 92 213.5 144.5t261.5 52.5q155 0 264 -48q55 -26 104.5 -65t98.5 -94q53 -60 58 -140q2 -33 -12.5 -71t-45.5 -68q-23 -23 -52.5 -39t-64.5 -19t-72.5 8.5t-77.5 41.5q-8 7 -17.5 15t-17.5 16q-17 17 -39.5 31.5t-52.5 24.5t-73 11 q-56 0 -105 -22t-86 -61t-58 -90t-21 -106t21.5 -105t58.5 -88t86 -60.5t104 -22.5q46 0 77.5 12.5t57.5 32.5q24 16 52 41q25 22 54.5 38.5t60.5 24.5q66 16 126 -8q31 -12 56 -37q57 -57 57 -139q0 -39 -13.5 -75t-43.5 -66q-47 -58 -99 -98t-110 -66q-82 -36 -185 -47 q6 -16 17.5 -29t35.5 -25q59 -25 90.5 -65t45.5 -85q13 -45 11.5 -87.5t-8.5 -71.5q-23 -89 -89 -144t-162 -66q-46 -5 -86.5 5.5t-76.5 30.5t-63 45.5t-42 51.5q-12 23 -16 51t5 54q8 26 31 43t63 18q32 1 50.5 -13.5t34.5 -32.5q15 -17 30 -32.5t38 -15.5q12 0 27 3.5 t29 13.5q12 9 20 26t7 42t-17 43.5t-39 35.5q-11 8 -24 15t-26 16q-28 15 -51 33t-38 40q-16 23 -17 54v54q-100 20 -187.5 67t-157.5 117q-92 92 -144.5 213.5t-52.5 261.5z" />
<glyph unicode="&#xc8;" horiz-adv-x="1226" d="M127 1239q0 18 5.5 33.5t20.5 26.5q14 11 38 17t63 6h709q65 0 107 -27.5t65 -70.5q22 -43 22 -92t-20 -92q-22 -43 -65.5 -70.5t-108.5 -27.5h-418v-108h290q46 0 86 -23.5t65 -59.5q25 -37 31.5 -82t-13.5 -91q-24 -52 -67.5 -81.5t-101.5 -29.5h-290v-86h418 q43 0 79 -15.5t64 -41.5q27 -27 42 -64t15 -80t-15 -79t-42 -63q-28 -28 -64 -43t-79 -15h-618q-43 0 -79.5 15t-62.5 42q-27 27 -42.5 63.5t-15.5 79.5v927q-1 16 -3.5 33t-6.5 35q-8 36 -8 64zM325.5 1646.5q8.5 32.5 28.5 59.5t50.5 42t63.5 15q40 0 84.5 -23.5 t82.5 -57.5q38 -35 62.5 -72.5t24.5 -66.5q0 -12 -1 -24t-6 -23q-14 -38 -49.5 -60t-74.5 -22q-37 0 -79.5 16t-81.5 40t-68 53t-36 57q-9 34 -0.5 66.5z" />
<glyph unicode="&#xc9;" horiz-adv-x="1226" d="M127 1239q0 18 5.5 33.5t20.5 26.5q14 11 38 17t63 6h709q65 0 107 -27.5t65 -70.5q22 -43 22 -92t-20 -92q-22 -43 -65.5 -70.5t-108.5 -27.5h-418v-108h290q46 0 86 -23.5t65 -59.5q25 -37 31.5 -82t-13.5 -91q-24 -52 -67.5 -81.5t-101.5 -29.5h-290v-86h418 q43 0 79 -15.5t64 -41.5q27 -27 42 -64t15 -80t-15 -79t-42 -63q-28 -28 -64 -43t-79 -15h-618q-43 0 -79.5 15t-62.5 42q-27 27 -42.5 63.5t-15.5 79.5v927q-1 16 -3.5 33t-6.5 35q-8 36 -8 64zM413 1568q0 29 24.5 66.5t62.5 72.5q38 34 82.5 57.5t84.5 23.5 q33 0 62.5 -15.5t50.5 -41.5q20 -27 29 -60t0 -66q-8 -28 -36.5 -57t-66.5 -53q-39 -25 -82 -40.5t-80 -15.5q-39 0 -74.5 22t-49.5 60q-5 11 -6 22.5t-1 24.5z" />
<glyph unicode="&#xca;" horiz-adv-x="1226" d="M127 1239q0 18 5.5 33.5t20.5 26.5q14 11 38 17t63 6h709q65 0 107 -27.5t65 -70.5q22 -43 22 -92t-20 -92q-22 -43 -65.5 -70.5t-108.5 -27.5h-418v-108h290q46 0 86 -23.5t65 -59.5q25 -37 31.5 -82t-13.5 -91q-24 -52 -67.5 -81.5t-101.5 -29.5h-290v-86h418 q43 0 79 -15.5t64 -41.5q27 -27 42 -64t15 -80t-15 -79t-42 -63q-28 -28 -64 -43t-79 -15h-618q-43 0 -79.5 15t-62.5 42q-27 27 -42.5 63.5t-15.5 79.5v927q-1 16 -3.5 33t-6.5 35q-8 36 -8 64zM266 1560q0 24 9 45.5t26 38.5l181 179q34 34 77.5 36t79.5 -23l195 -192 q34 -37 33 -85q0 -49 -33 -86q-38 -38 -86 -36q-24 0 -46.5 9t-39.5 27l-96 93l-92 -93q-36 -36 -86 -36q-24 0 -46.5 8.5t-40.5 27.5q-18 18 -26.5 40.5t-8.5 46.5z" />
<glyph unicode="&#xcb;" horiz-adv-x="1226" d="M127 1239q0 18 5.5 33.5t20.5 26.5q14 11 38 17t63 6h709q65 0 107 -27.5t65 -70.5q22 -43 22 -92t-20 -92q-22 -43 -65.5 -70.5t-108.5 -27.5h-418v-108h290q46 0 86 -23.5t65 -59.5q25 -37 31.5 -82t-13.5 -91q-24 -52 -67.5 -81.5t-101.5 -29.5h-290v-86h418 q43 0 79 -15.5t64 -41.5q27 -27 42 -64t15 -80t-15 -79t-42 -63q-28 -28 -64 -43t-79 -15h-618q-43 0 -79.5 15t-62.5 42q-27 27 -42.5 63.5t-15.5 79.5v927q-1 16 -3.5 33t-6.5 35q-8 36 -8 64zM247 1588q0 34 12.5 63t34.5 52q22 22 51.5 34.5t63.5 12.5q33 0 62.5 -13 t51.5 -34q22 -23 34.5 -52t12.5 -63t-12.5 -63.5t-34.5 -50.5q-23 -22 -52.5 -35t-61.5 -13q-34 0 -64 13t-51 35q-22 22 -34.5 51t-12.5 63zM642 1588q0 34 13 63t35 52q22 22 51 34.5t62 12.5q34 0 63.5 -13t51.5 -34q22 -23 34.5 -52t12.5 -63t-13 -63.5t-34 -50.5 q-22 -22 -51.5 -35t-63.5 -13q-33 0 -62 13t-51 35q-23 22 -35.5 51t-12.5 63z" />
<glyph unicode="&#xcc;" horiz-adv-x="673" d="M56 1646q-9 34 0 66.5t29 59.5t50.5 42t63.5 15q40 0 84.5 -23.5t82.5 -57.5q38 -35 62.5 -73t24.5 -66q0 -12 -1 -24t-7 -23q-14 -38 -49.5 -60t-73.5 -22q-37 0 -79.5 15.5t-81.5 40.5q-39 24 -68.5 53t-36.5 57zM127 1239q0 18 5.5 33.5t20.5 26.5q14 11 38 17t63 6 q58 0 109.5 -7.5t90.5 -29.5q39 -23 63 -62t28 -104v-939q0 -43 -15.5 -78.5t-42.5 -62.5q-27 -28 -63 -43.5t-79 -15.5t-79.5 15.5t-62.5 43.5q-27 27 -42.5 62.5t-15.5 78.5v927q-1 16 -3.5 33t-6.5 35q-8 36 -8 64z" />
<glyph unicode="&#xcd;" horiz-adv-x="673" d="M127 1238q0 18 5.5 33.5t20.5 26.5q14 11 38 17t63 6q58 0 109.5 -7.5t90.5 -29.5q39 -23 63 -62t28 -104v-939q0 -43 -15.5 -78.5t-42.5 -62.5q-27 -28 -63 -44t-79 -16t-79.5 16t-62.5 44q-27 27 -42.5 62.5t-15.5 78.5v927q-1 16 -3.5 33t-6.5 35q-8 36 -8 64z M160 1601q0 29 24.5 66.5t62.5 72.5q38 34 82.5 57.5t84.5 23.5q33 0 62.5 -15.5t50.5 -42.5q20 -27 29 -59.5t0 -66.5q-8 -28 -36 -57t-67 -52q-39 -25 -82 -41t-80 -16q-39 0 -74.5 22.5t-49.5 59.5q-5 11 -6 23t-1 25z" />
<glyph unicode="&#xce;" horiz-adv-x="673" d="M18 1613q0 24 9 45.5t26 38.5l181 179q34 34 77.5 36t79.5 -23l195 -192q34 -37 34 -85q0 -49 -34 -86q-38 -38 -86 -36q-24 0 -46.5 9t-39.5 27l-96 93l-92 -93q-36 -36 -86 -36q-24 0 -46 8.5t-41 27.5q-18 18 -26.5 40.5t-8.5 46.5zM127 1239q0 18 5.5 33.5t20.5 26.5 q14 11 38 17t63 6q58 0 109.5 -7.5t90.5 -29.5q39 -23 63 -62t28 -104v-939q0 -43 -15.5 -78.5t-42.5 -62.5q-27 -28 -63 -43.5t-79 -15.5t-79.5 15.5t-62.5 43.5q-27 27 -42.5 62.5t-15.5 78.5v927q-1 16 -3.5 33t-6.5 35q-8 36 -8 64z" />
<glyph unicode="&#xcf;" horiz-adv-x="673" d="M-41 1659q0 34 13 63t34 52q22 22 51.5 34.5t63.5 12.5q33 0 62.5 -13t52.5 -34q22 -23 34.5 -52t12.5 -63t-13 -63.5t-34 -51.5q-23 -22 -52.5 -34.5t-62.5 -12.5q-34 0 -63.5 13t-51.5 34q-22 22 -34.5 51.5t-12.5 63.5zM127 1239q0 18 5.5 33.5t20.5 26.5q14 11 38 17 t63 6q58 0 109.5 -7.5t90.5 -29.5q39 -23 63 -62t28 -104v-939q0 -43 -15.5 -78.5t-42.5 -62.5q-27 -28 -63 -43.5t-79 -15.5t-79.5 15.5t-62.5 43.5q-27 27 -42.5 62.5t-15.5 78.5v927q-1 16 -3.5 33t-6.5 35q-8 36 -8 64zM354 1659q0 34 13 63t35 52q22 22 51 34.5 t62 12.5q34 0 63.5 -13t51.5 -34q22 -23 34.5 -52t12.5 -63t-13 -63.5t-34 -51.5q-22 -22 -51.5 -34.5t-63.5 -12.5q-33 0 -62 13t-51 34q-23 22 -35.5 51.5t-12.5 63.5z" />
<glyph unicode="&#xd0;" horiz-adv-x="1549" d="M50 651q0 43 15.5 79t43.5 64q27 27 63 42t79 15h14v256q0 30 -8 65q-8 36 -8 67q0 18 5 33.5t19 26.5t38 17t63 6h200q115 0 223.5 -14.5t206.5 -46.5q97 -33 178 -85t140 -126q58 -75 91 -173.5t33 -225.5q0 -140 -52.5 -261.5t-144.5 -213.5q-93 -92 -214 -144 t-260 -52h-309q-58 0 -103 26t-69 72q-29 44 -29 102v271h-14q-43 0 -79 15t-62 43q-28 27 -44 63t-16 79zM667 374h25q6 0 13 0.5t15 1.5q62 0 121 18.5t105 52.5q46 35 73 86t27 118q0 55 -22 104t-58 85q-37 36 -86.5 58t-104.5 24q-28 0 -56 0.5t-52 3.5v-75h12 q43 0 79.5 -16t63.5 -42q27 -27 42.5 -64t15.5 -78q0 -43 -16 -78.5t-43 -62.5q-28 -28 -64.5 -43.5t-77.5 -15.5h-12v-77z" />
<glyph unicode="&#xd1;" horiz-adv-x="1446" d="M127 1239q0 18 5.5 33.5t20.5 26.5q14 11 38 17t63 6q46 0 80 -1.5t62 -9.5t53.5 -24.5t55.5 -47.5l416 -501l-2 362q0 35 -9 72q-9 36 -9 67q0 24 5.5 39.5t24.5 26.5q17 9 50 13t88 4q50 0 95.5 -6.5t80.5 -27.5q34 -22 54 -60.5t20 -106.5v-918q0 -46 -14 -86t-39 -71 q-26 -31 -63 -48.5t-83 -17.5q-40 0 -78 15.5t-68 49.5l-431 520v-96t-1 -96t-1 -96.5v-96.5q0 -43 -14.5 -80t-41.5 -63q-27 -27 -62 -42t-78 -15t-79.5 15t-62.5 43q-27 27 -42.5 63t-15.5 79v927q-1 16 -3.5 33t-6.5 35q-8 36 -8 64zM406 1535q0 85 55 141q27 29 67 46 t86 17q43 0 72 -15t51 -32q23 -18 44 -34t48 -16q22 0 30 14.5t17 33.5q8 17 22.5 31.5t50.5 14.5q15 0 32.5 -5.5t32.5 -17.5q14 -13 23 -34t9 -53q0 -34 -15.5 -68t-44.5 -62t-68 -44.5t-89 -16.5q-43 0 -69 15t-46 34q-20 17 -41.5 32.5t-52.5 15.5q-20 0 -28.5 -11.5 t-14.5 -26.5t-15.5 -30t-32.5 -21q-11 -4 -29 -4q-47 0 -70.5 28.5t-23.5 67.5z" />
<glyph unicode="&#xd2;" horiz-adv-x="1470" d="M63 651q0 139 52.5 260t144.5 214q92 92 213.5 144.5t261.5 52.5q93 0 178 -24t160 -68t136 -105t105 -136t68 -160t24 -178q0 -140 -52 -261.5t-145 -213.5t-214 -144t-260 -52q-140 0 -261.5 52t-213.5 144t-144.5 213.5t-52.5 261.5zM464.5 1683.5q8.5 32.5 29.5 59.5 q20 27 50 42t63 15q40 0 84.5 -23.5t82.5 -57.5q38 -35 62.5 -72.5t24.5 -66.5q0 -12 -1 -24t-6 -23q-14 -38 -49.5 -60t-74.5 -22q-37 0 -79.5 16t-81.5 40t-68 53t-36 57q-9 34 -0.5 66.5zM465 647q0 -55 21 -104t58 -88t86 -61.5t105 -22.5q55 0 104.5 23t86.5 62 t58.5 89t21.5 106q0 55 -21.5 105t-58.5 88q-37 37 -86 59.5t-105 22.5t-105 -22t-86 -61t-58 -90t-21 -106z" />
<glyph unicode="&#xd3;" horiz-adv-x="1470" d="M63 651q0 139 52.5 260t144.5 214q92 92 213.5 144.5t261.5 52.5q93 0 178 -24t160 -68t136 -105t105 -136t68 -160t24 -178q0 -140 -52 -261.5t-145 -213.5t-214 -144t-260 -52q-140 0 -261.5 52t-213.5 144t-144.5 213.5t-52.5 261.5zM465 647q0 -55 21 -104t58 -88 t86 -61.5t105 -22.5q55 0 104.5 23t86.5 62t58.5 89t21.5 106q0 55 -21.5 105t-58.5 88q-37 37 -86 59.5t-105 22.5t-105 -22t-86 -61t-58 -90t-21 -106zM570 1556q0 29 25 67t62 73q38 34 82.5 57.5t84.5 23.5q33 0 62.5 -15.5t51.5 -42.5q20 -27 29 -59.5t0 -66.5 q-8 -28 -36.5 -57t-67.5 -52q-39 -25 -82 -41t-80 -16q-39 0 -74 22t-49 60q-5 11 -6.5 23t-1.5 24z" />
<glyph unicode="&#xd4;" horiz-adv-x="1470" d="M63 651q0 139 52.5 260t144.5 214q92 92 213.5 144.5t261.5 52.5q93 0 178 -24t160 -68t136 -105t105 -136t68 -160t24 -178q0 -140 -52 -261.5t-145 -213.5t-214 -144t-260 -52q-140 0 -261.5 52t-213.5 144t-144.5 213.5t-52.5 261.5zM430 1533q0 24 9 45.5t26 38.5 l181 179q34 34 77.5 36t79.5 -23l194 -192q34 -37 34 -85q0 -49 -34 -86q-38 -38 -86 -36q-24 0 -46 9t-40 27l-95 93l-92 -93q-36 -36 -86 -36q-24 0 -46.5 8.5t-40.5 27.5q-18 18 -26.5 40.5t-8.5 46.5zM465 647q0 -55 21 -104t58 -88t86 -61.5t105 -22.5q55 0 104.5 23 t86.5 62t58.5 89t21.5 106q0 55 -21.5 105t-58.5 88q-37 37 -86 59.5t-105 22.5t-105 -22t-86 -61t-58 -90t-21 -106z" />
<glyph unicode="&#xd5;" horiz-adv-x="1470" d="M63 651q0 139 52.5 260t144.5 214q92 92 213.5 144.5t261.5 52.5q93 0 178 -24t160 -68t136 -105t105 -136t68 -160t24 -178q0 -140 -52 -261.5t-145 -213.5t-214 -144t-260 -52q-140 0 -261.5 52t-213.5 144t-144.5 213.5t-52.5 261.5zM391 1540q0 85 55 141 q27 29 67.5 46t86.5 17q43 0 71.5 -15t51.5 -32q23 -18 43.5 -33.5t48.5 -15.5q22 0 30 14t16 33q8 17 23 31.5t51 14.5q15 0 32.5 -5t31.5 -18t23 -34t9 -53q0 -34 -15.5 -68t-43.5 -62q-29 -28 -68.5 -44.5t-88.5 -16.5q-43 0 -69 15t-47 34q-20 17 -41 32.5t-53 15.5 q-20 0 -28.5 -11.5t-14.5 -26.5t-15 -30t-32 -21q-11 -4 -30 -4q-47 0 -70.5 28.5t-23.5 67.5zM465 647q0 -55 21 -104t58 -88t86 -61.5t105 -22.5q55 0 104.5 23t86.5 62t58.5 89t21.5 106q0 55 -21.5 105t-58.5 88q-37 37 -86 59.5t-105 22.5t-105 -22t-86 -61t-58 -90 t-21 -106z" />
<glyph unicode="&#xd6;" horiz-adv-x="1470" d="M63 651q0 139 52.5 260t144.5 214q92 92 213.5 144.5t261.5 52.5q93 0 178 -24t160 -68t136 -105t105 -136t68 -160t24 -178q0 -140 -52 -261.5t-145 -213.5t-214 -144t-260 -52q-140 0 -261.5 52t-213.5 144t-144.5 213.5t-52.5 261.5zM358 1595q0 34 13 63.5t35 51.5 t51 34.5t63 12.5q33 0 62.5 -12.5t52.5 -34.5q22 -23 34.5 -52t12.5 -63t-13 -63.5t-34 -50.5q-23 -22 -52.5 -34.5t-62.5 -12.5q-34 0 -63.5 12.5t-50.5 34.5q-22 22 -35 51t-13 63zM465 647q0 -55 21 -104t58 -88t86 -61.5t105 -22.5q55 0 104.5 23t86.5 62t58.5 89 t21.5 106q0 55 -21.5 105t-58.5 88q-37 37 -86 59.5t-105 22.5t-105 -22t-86 -61t-58 -90t-21 -106zM754 1595q0 34 12.5 63.5t35.5 51.5q22 22 51 34.5t61 12.5q34 0 64 -12.5t51 -34.5q22 -23 34.5 -52t12.5 -63t-12.5 -63.5t-34.5 -50.5q-22 -22 -51.5 -34.5t-63.5 -12.5 q-33 0 -62 12.5t-50 34.5q-23 22 -35.5 51t-12.5 63z" />
<glyph unicode="&#xd7;" horiz-adv-x="925" d="M139 716q0 25 10 48.5t29 42.5t43.5 29t48.5 11q25 0 48.5 -10t41.5 -28l93 -92l94 94q18 18 41.5 28t48.5 10t49 -10t42 -29q19 -19 29 -43.5t11 -48.5q0 -25 -9.5 -48.5t-28.5 -41.5l-95 -94l93 -94q19 -19 29 -42.5t10 -48.5t-9.5 -49t-29.5 -43q-18 -19 -42 -28.5 t-49 -9.5t-49 10t-43 29l-93 92l-91 -90q-19 -19 -42.5 -29t-48.5 -10t-48.5 10t-43.5 29q-19 18 -28.5 42.5t-9.5 48.5q0 25 10 49t29 43l90 91l-92 92q-18 18 -28 41.5t-10 48.5z" />
<glyph unicode="&#xd8;" horiz-adv-x="1470" d="M63 651q0 139 52.5 260t144.5 214q92 92 213.5 144.5t261.5 52.5q30 0 59.5 -3t59.5 -8l36 65q33 61 84 97.5t116 36.5q44 0 80 -15.5t62 -41.5t40 -58.5t14 -67.5q0 -20 -3.5 -38t-11.5 -34l-70 -123q96 -93 150.5 -215.5t54.5 -265.5q0 -140 -52 -261.5t-145 -213.5 t-214 -144t-260 -52q-67 0 -138 14l-24 -43q-16 -31 -36.5 -57t-44.5 -47q-25 -20 -53 -31.5t-60 -10.5q-43 0 -79.5 16t-66.5 43t-46.5 61.5t-16.5 72.5q0 32 18 65l65 121q-90 92 -140 210.5t-50 256.5zM465 647q0 -55 21 -104t58 -88t86 -61.5t105 -22.5q55 0 104.5 23 t86.5 62t58.5 89t21.5 106q0 55 -21.5 105t-58.5 88q-37 37 -86 59.5t-105 22.5t-105 -22t-86 -61t-58 -90t-21 -106z" />
<glyph unicode="&#xd9;" horiz-adv-x="1307" d="M27 1239q0 18 5.5 33.5t19.5 26.5t38.5 17t63.5 6q56 0 107.5 -6.5t91.5 -28.5q39 -22 63.5 -61t27.5 -105v-591q0 -37 15 -70.5t43 -59.5t66 -40.5t85 -14.5q40 0 77.5 15t67.5 40q30 26 47 60t17 70l-2 577q-1 33 -9 68q-8 36 -8 64q0 18 5.5 33.5t19.5 26.5t38.5 17 t62.5 6q52 0 103 -6.5t94 -27.5q43 -22 69 -60.5t26 -106.5l2 -590q-2 -80 -25.5 -154t-65.5 -138q-42 -66 -97.5 -119t-123.5 -92t-143 -60.5t-155 -21.5q-81 0 -157.5 21t-144.5 59t-124 91t-97 119q-41 65 -63.5 139.5t-22.5 155.5l1 576q-1 16 -3.5 33t-6.5 35 q-8 36 -8 64zM381.5 1670.5q8.5 32.5 29.5 59.5q20 27 50 42t63 15q40 0 84.5 -23.5t82.5 -57.5q38 -35 62.5 -73t24.5 -66q0 -12 -1 -24t-6 -23q-14 -38 -49.5 -60t-74.5 -22q-37 0 -79.5 15.5t-81.5 40.5q-39 24 -68 53t-36 57q-9 34 -0.5 66.5z" />
<glyph unicode="&#xda;" horiz-adv-x="1307" d="M27 1239q0 18 5.5 33.5t19.5 26.5t38.5 17t63.5 6q56 0 107.5 -6.5t91.5 -28.5q39 -22 63.5 -61t27.5 -105v-591q0 -37 15 -70.5t43 -59.5t66 -40.5t85 -14.5q40 0 77.5 15t67.5 40q30 26 47 60t17 70l-2 577q-1 33 -9 68q-8 36 -8 64q0 18 5.5 33.5t19.5 26.5t38.5 17 t62.5 6q52 0 103 -6.5t94 -27.5q43 -22 69 -60.5t26 -106.5l2 -590q-2 -80 -25.5 -154t-65.5 -138q-42 -66 -97.5 -119t-123.5 -92t-143 -60.5t-155 -21.5q-81 0 -157.5 21t-144.5 59t-124 91t-97 119q-41 65 -63.5 139.5t-22.5 155.5l1 576q-1 16 -3.5 33t-6.5 35 q-8 36 -8 64zM487 1554q0 29 25 67t62 73q38 34 82.5 57.5t84.5 23.5q33 0 63 -15.5t51 -42.5q20 -27 29 -59.5t0 -66.5q-8 -28 -36.5 -57t-67.5 -52q-39 -25 -82 -41t-80 -16q-39 0 -74 22t-49 60q-5 11 -6.5 23t-1.5 24z" />
<glyph unicode="&#xdb;" horiz-adv-x="1307" d="M27 1239q0 18 5.5 33.5t19.5 26.5t38.5 17t63.5 6q56 0 107.5 -6.5t91.5 -28.5q39 -22 63.5 -61t27.5 -105v-591q0 -37 15 -70.5t43 -59.5t66 -40.5t85 -14.5q40 0 77.5 15t67.5 40q30 26 47 60t17 70l-2 577q-1 33 -9 68q-8 36 -8 64q0 18 5.5 33.5t19.5 26.5t38.5 17 t62.5 6q52 0 103 -6.5t94 -27.5q43 -22 69 -60.5t26 -106.5l2 -590q-2 -80 -25.5 -154t-65.5 -138q-42 -66 -97.5 -119t-123.5 -92t-143 -60.5t-155 -21.5q-81 0 -157.5 21t-144.5 59t-124 91t-97 119q-41 65 -63.5 139.5t-22.5 155.5l1 576q-1 16 -3.5 33t-6.5 35 q-8 36 -8 64zM372 1531q0 24 9 45.5t26 38.5l181 179q34 34 77.5 36t78.5 -23l195 -192q34 -37 34 -85q0 -49 -34 -86q-38 -38 -86 -36q-24 0 -46.5 9t-39.5 27l-95 93l-92 -93q-36 -36 -86 -36q-24 0 -46.5 8.5t-40.5 27.5q-18 18 -26.5 40.5t-8.5 46.5z" />
<glyph unicode="&#xdc;" horiz-adv-x="1307" d="M27 1239q0 18 5.5 33.5t19.5 26.5t38.5 17t63.5 6q56 0 107.5 -6.5t91.5 -28.5q39 -22 63.5 -61t27.5 -105v-591q0 -37 15 -70.5t43 -59.5t66 -40.5t85 -14.5q40 0 77.5 15t67.5 40q30 26 47 60t17 70l-2 577q-1 33 -9 68q-8 36 -8 64q0 18 5.5 33.5t19.5 26.5t38.5 17 t62.5 6q52 0 103 -6.5t94 -27.5q43 -22 69 -60.5t26 -106.5l2 -590q-2 -80 -25.5 -154t-65.5 -138q-42 -66 -97.5 -119t-123.5 -92t-143 -60.5t-155 -21.5q-81 0 -157.5 21t-144.5 59t-124 91t-97 119q-41 65 -63.5 139.5t-22.5 155.5l1 576q-1 16 -3.5 33t-6.5 35 q-8 36 -8 64zM271 1633q0 34 13 63t34 52q22 22 51.5 34.5t63.5 12.5q33 0 62.5 -13t52.5 -34q22 -23 34.5 -52t12.5 -63t-13 -63.5t-34 -50.5q-23 -22 -52.5 -35t-62.5 -13q-34 0 -63.5 13t-51.5 35t-34.5 51t-12.5 63zM667 1633q0 34 12.5 63t35.5 52q22 22 51 34.5 t61 12.5q34 0 64 -13t51 -34q22 -23 34.5 -52t12.5 -63t-12.5 -63.5t-34.5 -50.5q-22 -22 -51.5 -35t-63.5 -13q-33 0 -62 13t-50 35q-23 22 -35.5 51t-12.5 63z" />
<glyph unicode="&#xdd;" horiz-adv-x="1291" d="M20 1119q-1 38 13.5 74t44.5 67q30 30 67.5 45.5t77.5 16.5q39 1 75 -14t62 -48l287 -363l286 363q26 33 62 48t76 14q39 -1 77.5 -17t68.5 -45q29 -30 43 -66.5t14 -74.5t-15 -74.5t-42 -68.5l-371 -419v-378q0 -43 -16 -79.5t-43 -62.5q-28 -28 -63.5 -43.5 t-78.5 -15.5t-79.5 15.5t-62.5 43.5q-27 27 -42.5 63t-15.5 79v376l-367 421q-28 32 -43 68.5t-15 74.5zM467 1536q0 29 24.5 66.5t62.5 72.5q38 34 82.5 57.5t84.5 23.5q33 0 62.5 -15.5t51.5 -41.5q20 -27 28.5 -59.5t-0.5 -66.5q-8 -28 -36 -57t-67 -53 q-39 -25 -82 -40.5t-80 -15.5q-39 0 -74.5 22t-49.5 60q-5 11 -6 23t-1 24z" />
<glyph unicode="&#xde;" horiz-adv-x="1242" d="M127 1239q0 18 5.5 33.5t20.5 26.5q14 11 38 17t63 6q55 0 103.5 -6.5t85.5 -25.5q38 -18 63 -51.5t35 -86.5h108q105 0 200.5 -38t169.5 -105q74 -68 117 -158.5t43 -194.5q0 -69 -20 -130.5t-56 -116.5t-85 -98.5t-108 -73.5q-59 -32 -124.5 -49t-136.5 -17h-104 q-5 -81 -61 -135q-27 -27 -62.5 -41.5t-76.5 -14.5q-43 0 -79.5 15.5t-62.5 43.5q-27 27 -42.5 62.5t-15.5 78.5v927q-1 16 -3.5 33t-6.5 35q-8 36 -8 64zM545 509l104 4q29 1 54 11t43 27t29 39.5t11 52.5q0 29 -10.5 55.5t-29.5 46.5q-18 20 -43 33.5t-54 14.5l-104 3 v-287z" />
<glyph unicode="&#xdf;" horiz-adv-x="1211" d="M117 177v649q-2 36 0 87t16 106t43 109.5t83 97.5t134.5 69.5t198.5 26.5q90 0 169.5 -19t142.5 -59t106.5 -102t61.5 -151q4 -23 6 -43t2 -40q0 -32 -6.5 -65t-17.5 -63q-12 -31 -28 -55.5t-35 -39.5q30 -12 58 -43t50 -70q22 -40 35 -83.5t13 -80.5q0 -93 -26.5 -171 t-79.5 -136q-52 -57 -128 -89t-176 -32q-43 0 -77 15t-61 43q-27 27 -41.5 62t-14.5 78q0 39 14 71t41 58q24 25 57.5 35.5t65.5 21.5q32 9 54 23t22 47q0 23 -11.5 37.5t-26.5 23.5q-16 8 -34.5 10.5t-32.5 2.5q-33 0 -60.5 12t-47.5 34q-43 45 -43 112q0 43 20 80t53 59 q17 11 39 15q22 5 41.5 11t33.5 19q13 12 13 39q0 31 -17 49.5t-38 18.5q-37 0 -70.5 -0.5t-58.5 -14.5t-37.5 -48t-9.5 -101v-118v-51.5t1 -48.5v-90v-44.5t1 -45.5v-100v-118q0 -41 -15 -76.5t-41 -62.5q-27 -28 -63.5 -44t-77.5 -16t-77 15.5t-64 43.5q-28 27 -43.5 62 t-15.5 78z" />
<glyph unicode="&#xe0;" horiz-adv-x="1225" d="M67 496q0 105 40.5 198.5t111.5 164.5t163.5 111.5t200.5 40.5q83 0 148 -24.5t114 -71.5q24 44 57.5 71t85.5 27q111 0 111 -111v-812q0 -111 -111 -110q-49 0 -84 26t-58 69q-49 -46 -114.5 -70.5t-148.5 -24.5q-108 0 -200.5 40t-163.5 111t-111.5 164t-40.5 201z M294.5 1379.5q8.5 32.5 29.5 59.5q20 27 50 42t63 15q40 0 84.5 -23.5t82.5 -57.5q38 -35 62.5 -72.5t24.5 -66.5q0 -12 -1 -24t-6 -23q-14 -38 -49.5 -60t-74.5 -22q-37 0 -79.5 16t-81.5 40t-68 53t-36 57q-9 34 -0.5 66.5zM468 496q0 -25 8.5 -47.5t24.5 -39.5 q15 -17 36 -27.5t46 -10.5t45.5 10t36.5 28q15 17 23.5 39.5t8.5 47.5v5q-1 24 -10 45t-24 38q-15 15 -36 24.5t-44 9.5q-25 0 -46 -9.5t-36 -26.5t-24 -39.5t-9 -46.5z" />
<glyph unicode="&#xe1;" horiz-adv-x="1225" d="M67 496q0 105 40.5 198.5t111.5 164.5t163.5 111.5t200.5 40.5q83 0 148 -24.5t114 -71.5q24 44 57.5 71t85.5 27q111 0 111 -111v-812q0 -111 -111 -110q-49 0 -84 26t-58 69q-49 -46 -114.5 -70.5t-148.5 -24.5q-108 0 -200.5 40t-163.5 111t-111.5 164t-40.5 201z M468 496q0 -25 8.5 -47.5t24.5 -39.5q15 -17 36 -27.5t46 -10.5t45.5 10t36.5 28q15 17 23.5 39.5t8.5 47.5v5q-1 24 -10 45t-24 38q-15 15 -36 24.5t-44 9.5q-25 0 -46 -9.5t-36 -26.5t-24 -39.5t-9 -46.5zM490 1246q0 29 25 67t63 72t82 57.5t84 23.5q33 0 63 -15t51 -42 q20 -27 29 -59.5t0 -66.5q-8 -28 -36.5 -57t-67.5 -52q-39 -25 -82 -41t-79 -16q-39 0 -74.5 22t-49.5 60q-5 11 -6.5 23t-1.5 24z" />
<glyph unicode="&#xe2;" horiz-adv-x="1225" d="M67 496q0 105 40.5 198.5t111.5 164.5t163.5 111.5t200.5 40.5q83 0 148 -24.5t114 -71.5q24 44 57.5 71t85.5 27q111 0 111 -111v-812q0 -111 -111 -110q-49 0 -84 26t-58 69q-49 -46 -114.5 -70.5t-148.5 -24.5q-108 0 -200.5 40t-163.5 111t-111.5 164t-40.5 201z M279 1226q0 24 8.5 45.5t25.5 38.5l182 179q34 34 77 36t79 -23l195 -192q34 -37 34 -85q0 -49 -34 -86q-38 -38 -86 -36q-24 0 -46.5 9t-39.5 27l-95 93l-93 -93q-36 -36 -86 -36q-24 0 -46 8.5t-41 27.5q-18 18 -26 40.5t-8 46.5zM468 496q0 -25 8.5 -47.5t24.5 -39.5 q15 -17 36 -27.5t46 -10.5t45.5 10t36.5 28q15 17 23.5 39.5t8.5 47.5v5q-1 24 -10 45t-24 38q-15 15 -36 24.5t-44 9.5q-25 0 -46 -9.5t-36 -26.5t-24 -39.5t-9 -46.5z" />
<glyph unicode="&#xe3;" horiz-adv-x="1225" d="M67 496q0 105 40.5 198.5t111.5 164.5t163.5 111.5t200.5 40.5q83 0 148 -24.5t114 -71.5q24 44 57.5 71t85.5 27q111 0 111 -111v-812q0 -111 -111 -110q-49 0 -84 26t-58 69q-49 -46 -114.5 -70.5t-148.5 -24.5q-108 0 -200.5 40t-163.5 111t-111.5 164t-40.5 201z M262 1227q0 85 55 141q27 29 67.5 46t86.5 17q43 0 71.5 -15t51.5 -33t43.5 -33.5t48.5 -15.5q22 0 30 14.5t16 32.5q8 17 23 31.5t51 14.5q15 0 32.5 -5t31.5 -17q14 -13 23 -34t9 -53q0 -34 -15.5 -68.5t-43.5 -61.5q-29 -28 -68.5 -45t-88.5 -17q-43 0 -69 15.5t-47 34.5 q-20 17 -41 32.5t-53 15.5q-20 0 -28.5 -11.5t-14.5 -26.5t-15 -30t-32 -21q-11 -4 -30 -5q-47 0 -70.5 29t-23.5 68zM468 496q0 -25 8.5 -47.5t24.5 -39.5q15 -17 36 -27.5t46 -10.5t45.5 10t36.5 28q15 17 23.5 39.5t8.5 47.5v5q-1 24 -10 45t-24 38q-15 15 -36 24.5 t-44 9.5q-25 0 -46 -9.5t-36 -26.5t-24 -39.5t-9 -46.5z" />
<glyph unicode="&#xe4;" horiz-adv-x="1225" d="M67 496q0 105 40.5 198.5t111.5 164.5t163.5 111.5t200.5 40.5q83 0 148 -24.5t114 -71.5q24 44 57.5 71t85.5 27q111 0 111 -111v-812q0 -111 -111 -110q-49 0 -84 26t-58 69q-49 -46 -114.5 -70.5t-148.5 -24.5q-108 0 -200.5 40t-163.5 111t-111.5 164t-40.5 201z M230 1302q0 34 13 63t35 51t51 34.5t63 12.5q33 0 62.5 -12.5t52.5 -34.5q22 -23 34.5 -52t12.5 -62q0 -34 -13 -64t-34 -51q-23 -22 -52.5 -34.5t-62.5 -12.5q-34 0 -63.5 12.5t-50.5 34.5q-22 22 -35 51.5t-13 63.5zM468 496q0 -25 8.5 -47.5t24.5 -39.5q15 -17 36 -27.5 t46 -10.5t45.5 10t36.5 28q15 17 23.5 39.5t8.5 47.5v5q-1 24 -10 45t-24 38q-15 15 -36 24.5t-44 9.5q-25 0 -46 -9.5t-36 -26.5t-24 -39.5t-9 -46.5zM626 1302q0 34 12.5 63t35.5 51q22 22 51 34.5t61 12.5q34 0 64 -12.5t51 -34.5q22 -23 34.5 -52t12.5 -62 q0 -34 -12.5 -64t-34.5 -51q-22 -22 -51.5 -34.5t-63.5 -12.5q-33 0 -62 12.5t-50 34.5q-23 22 -35.5 51.5t-12.5 63.5z" />
<glyph unicode="&#xe5;" horiz-adv-x="1225" d="M67 496q0 105 40.5 198.5t111.5 164.5t163.5 111.5t200.5 40.5q83 0 148 -24.5t114 -71.5q24 44 57.5 71t85.5 27q111 0 111 -111v-812q0 -111 -111 -110q-49 0 -84 26t-58 69q-49 -46 -114.5 -70.5t-148.5 -24.5q-108 0 -200.5 40t-163.5 111t-111.5 164t-40.5 201z M457 1309q0 37 13.5 69t38.5 57q24 25 56 38.5t69 13.5t69 -14t57 -38q24 -25 37.5 -57t13.5 -69t-14 -69.5t-37 -55.5q-25 -25 -57 -38.5t-69 -13.5t-69.5 13.5t-55.5 38.5q-25 24 -38.5 56t-13.5 69zM468 496q0 -25 8.5 -47.5t24.5 -39.5q15 -17 36 -27.5t46 -10.5 t45.5 10t36.5 28q15 17 23.5 39.5t8.5 47.5v5q-1 24 -10 45t-24 38q-15 15 -36 24.5t-44 9.5q-25 0 -46 -9.5t-36 -26.5t-24 -39.5t-9 -46.5zM589 1309q0 -19 12.5 -33t33.5 -14q18 0 31 13.5t13 33.5q0 19 -13 33.5t-31 14.5q-20 0 -33 -14.5t-13 -33.5z" />
<glyph unicode="&#xe6;" horiz-adv-x="2012" d="M131 496q0 105 41 198.5t112 164.5t163.5 111.5t199.5 40.5q83 0 148 -24.5t114 -71.5q24 44 57.5 71t86.5 27q93 0 107 -79q59 36 127.5 56.5t143.5 20.5q108 0 200.5 -36.5t163.5 -101.5t111.5 -153.5t40.5 -196.5q0 -40 -13 -65.5t-36 -39.5t-53.5 -20t-68.5 -6h-452 q5 -30 37 -58q14 -14 32.5 -23t39.5 -9q24 0 42 6.5t38 16.5q23 10 52 14t60 0t60 -15t53 -30t37 -47t14 -64q1 -59 -33 -98t-86 -62q-53 -24 -116.5 -33.5t-122.5 -9.5q-75 0 -143 19.5t-128 56.5q-15 -77 -107 -76q-49 0 -84 26t-59 69q-49 -46 -114.5 -70.5t-148.5 -24.5 q-108 0 -200.5 40t-162.5 111q-71 71 -112 164t-41 201zM532 496q0 -25 9 -47.5t24 -39.5t36.5 -27.5t45.5 -10.5q25 0 46 10t36 28q15 17 24 39.5t9 47.5v5q-1 24 -10.5 45t-24.5 38q-15 15 -35.5 24.5t-44.5 9.5q-25 0 -45.5 -9.5t-36.5 -26.5q-15 -17 -24 -39.5t-9 -46.5 zM1318 616h225q-2 17 -13.5 32t-29.5 25q-17 9 -35.5 14.5t-33.5 5.5q-17 0 -36 -5.5t-34 -14.5q-16 -10 -27.5 -24.5t-15.5 -32.5z" />
<glyph unicode="&#xe7;" horiz-adv-x="1095" d="M63 496q0 105 40.5 198.5t111.5 164.5t163 111.5t200 40.5q59 0 115.5 -12.5t107.5 -33.5q51 -22 92.5 -51t71.5 -63q31 -33 48.5 -69.5t17.5 -72.5q0 -37 -12.5 -70.5t-36.5 -57.5q-25 -25 -58 -40t-76 -15q-25 0 -46 7t-41 18q-10 5 -20 10.5t-20 11.5q-10 5 -20 11.5 t-21 11.5q-34 14 -71 18t-69 -7q-33 -11 -54 -37.5t-21 -73.5q0 -46 19.5 -74t51.5 -39q31 -11 69 -7t75 19q23 9 42 23q20 12 39 22q41 20 90 23t95 -21q40 -24 62.5 -64t22.5 -95q0 -61 -32 -115t-91 -96q-46 -33 -107.5 -55.5t-135.5 -31.5q0 -4 0.5 -7.5t0.5 -6.5 q0 -6 2 -14q1 -3 2 -6.5t3 -8.5q6 -17 17 -32t37 -27q59 -25 91 -65t45 -85t11.5 -87.5t-8.5 -71.5q-23 -89 -88.5 -144t-162.5 -66q-46 -5 -86.5 5t-75.5 31q-36 20 -63.5 45.5t-42.5 51.5q-12 23 -15.5 51t5.5 54q8 26 30.5 43t62.5 18q32 1 51 -14t34 -32t30 -32.5 t39 -15.5q12 0 27 3.5t28 13.5q12 9 20.5 26t7.5 42t-17 43.5t-40 35.5q-11 8 -24 15t-26 15q-28 15 -51 33.5t-38 40.5q-16 23 -16 53l-1 105q-70 17 -130 52t-109 84q-71 71 -111.5 164t-40.5 201z" />
<glyph unicode="&#xe8;" d="M63 496q0 105 41 198.5t112 164.5t163.5 111.5t200.5 40.5t200.5 -36.5t163.5 -101.5t111.5 -153.5t40.5 -196.5q0 -40 -13 -65.5t-35 -39.5q-23 -14 -54 -20t-69 -6h-452q5 -30 37 -58q14 -14 32.5 -23t39.5 -9q24 0 42 6.5t39 16.5q23 10 51.5 14t59.5 0t60 -15t53 -30 t37 -47t14 -64q1 -59 -33 -98t-86 -62q-53 -24 -116.5 -33.5t-122.5 -9.5q-108 0 -200.5 40t-163.5 111t-112 164t-41 201zM312 1286q-9 34 0 66.5t29 59.5t50.5 42t63.5 15q40 0 84.5 -23.5t82.5 -56.5q38 -35 62.5 -73t24.5 -67q0 -12 -1 -24t-7 -23q-14 -38 -49.5 -60 t-73.5 -22q-37 0 -79.5 16t-81.5 41q-39 24 -68.5 52.5t-36.5 56.5zM467 616h225q-2 17 -13.5 32t-29.5 25q-17 9 -35.5 14.5t-33.5 5.5q-17 0 -36 -5.5t-34 -14.5q-16 -10 -27.5 -24.5t-15.5 -32.5z" />
<glyph unicode="&#xe9;" d="M63 496q0 105 41 198.5t112 164.5t163.5 111.5t200.5 40.5t200.5 -36.5t163.5 -101.5t111.5 -153.5t40.5 -196.5q0 -40 -13 -65.5t-35 -39.5q-23 -14 -54 -20t-69 -6h-452q5 -30 37 -58q14 -14 32.5 -23t39.5 -9q24 0 42 6.5t39 16.5q23 10 51.5 14t59.5 0t60 -15t53 -30 t37 -47t14 -64q1 -59 -33 -98t-86 -62q-53 -24 -116.5 -33.5t-122.5 -9.5q-108 0 -200.5 40t-163.5 111t-112 164t-41 201zM426 1211q0 29 24.5 67t62.5 73q38 34 82.5 57.5t84.5 23.5q33 0 62.5 -15.5t51.5 -42.5q20 -27 28.5 -59.5t-0.5 -66.5q-8 -28 -36 -57t-67 -52 q-39 -25 -82 -41t-80 -16q-39 0 -74.5 22t-49.5 60q-5 11 -6 23t-1 24zM467 616h225q-2 17 -13.5 32t-29.5 25q-17 9 -35.5 14.5t-33.5 5.5q-17 0 -36 -5.5t-34 -14.5q-16 -10 -27.5 -24.5t-15.5 -32.5z" />
<glyph unicode="&#xea;" d="M63 496q0 105 41 198.5t112 164.5t163.5 111.5t200.5 40.5t200.5 -36.5t163.5 -101.5t111.5 -153.5t40.5 -196.5q0 -40 -13 -65.5t-35 -39.5q-23 -14 -54 -20t-69 -6h-452q5 -30 37 -58q14 -14 32.5 -23t39.5 -9q24 0 42 6.5t39 16.5q23 10 51.5 14t59.5 0t60 -15t53 -30 t37 -47t14 -64q1 -59 -33 -98t-86 -62q-53 -24 -116.5 -33.5t-122.5 -9.5q-108 0 -200.5 40t-163.5 111t-112 164t-41 201zM284 1201q0 24 8.5 45.5t25.5 38.5l182 179q34 34 77.5 36t78.5 -22l195 -193q34 -37 34 -85q0 -49 -34 -86q-38 -38 -86 -36q-24 0 -46.5 9.5 t-39.5 26.5l-95 93l-92 -93q-36 -36 -86 -36q-24 0 -46.5 9t-41.5 27q-18 18 -26 41t-8 46zM467 616h225q-2 17 -13.5 32t-29.5 25q-17 9 -35.5 14.5t-33.5 5.5q-17 0 -36 -5.5t-34 -14.5q-16 -10 -27.5 -24.5t-15.5 -32.5z" />
<glyph unicode="&#xeb;" d="M63 496q0 105 41 198.5t112 164.5t163.5 111.5t200.5 40.5t200.5 -36.5t163.5 -101.5t111.5 -153.5t40.5 -196.5q0 -40 -13 -65.5t-35 -39.5q-23 -14 -54 -20t-69 -6h-452q5 -30 37 -58q14 -14 32.5 -23t39.5 -9q24 0 42 6.5t39 16.5q23 10 51.5 14t59.5 0t60 -15t53 -30 t37 -47t14 -64q1 -59 -33 -98t-86 -62q-53 -24 -116.5 -33.5t-122.5 -9.5q-108 0 -200.5 40t-163.5 111t-112 164t-41 201zM195 1253q0 34 12.5 63.5t34.5 51.5t51.5 34.5t62.5 12.5t63 -12.5t52 -34.5q22 -23 34.5 -52t12.5 -63t-12.5 -63.5t-34.5 -50.5 q-23 -22 -52.5 -34.5t-62.5 -12.5q-34 0 -63.5 12.5t-50.5 34.5q-22 22 -34.5 51t-12.5 63zM467 616h225q-2 17 -13.5 32t-29.5 25q-17 9 -35.5 14.5t-33.5 5.5q-17 0 -36 -5.5t-34 -14.5q-16 -10 -27.5 -24.5t-15.5 -32.5zM590 1253q0 34 12.5 63.5t35.5 51.5 q22 22 51 34.5t62 12.5q34 0 63.5 -12.5t50.5 -34.5q22 -23 34.5 -52t12.5 -63t-12.5 -63.5t-34.5 -50.5q-22 -22 -51.5 -34.5t-62.5 -12.5t-62.5 12.5t-50.5 34.5q-23 22 -35.5 51t-12.5 63z" />
<glyph unicode="&#xec;" horiz-adv-x="613" d="M27.5 1348.5q8.5 32.5 28.5 59.5t50.5 42t63.5 15q40 0 84.5 -23.5t82.5 -57.5q38 -35 62.5 -72.5t24.5 -66.5q0 -12 -1 -24t-6 -23q-14 -38 -49.5 -60t-74.5 -22q-37 0 -79.5 16t-81.5 40t-68 53t-36 57q-9 34 -0.5 66.5zM106 180v633q0 41 15.5 78t42.5 63q27 27 63 43 t79 16q41 0 78 -16t65 -43q27 -27 42.5 -63.5t15.5 -77.5v-633q0 -43 -16 -79t-42 -63q-28 -28 -65 -43t-78 -15q-43 0 -79.5 15t-62.5 43q-27 27 -42.5 63t-15.5 79z" />
<glyph unicode="&#xed;" horiz-adv-x="613" d="M106 180v633q0 41 15.5 78t42.5 63q27 27 63 43t79 16q41 0 78 -16t65 -43q27 -27 42.5 -63.5t15.5 -77.5v-633q0 -43 -16 -79t-42 -63q-28 -28 -65 -43t-78 -15q-43 0 -79.5 15t-62.5 43q-27 27 -42.5 63t-15.5 79zM221 1237q0 29 24.5 66.5t62.5 72.5q38 34 82.5 57.5 t84.5 23.5q33 0 62.5 -15.5t51.5 -41.5q20 -27 29 -59.5t-1 -66.5q-8 -28 -36 -57t-67 -53q-39 -25 -82 -40.5t-80 -15.5q-39 0 -74 22t-50 60q-5 11 -6 23t-1 24z" />
<glyph unicode="&#xee;" horiz-adv-x="613" d="M-4 1255q0 24 9 45.5t26 38.5l181 180q34 34 77.5 35.5t79.5 -22.5l194 -193q34 -37 34 -85q0 -49 -34 -86q-38 -38 -86 -35q-24 0 -46 9t-40 26l-95 94l-92 -94q-36 -36 -86 -35q-24 0 -46.5 8.5t-40.5 26.5t-26.5 41t-8.5 46zM106 180v633q0 41 15.5 78t42.5 63 q27 27 63 43t79 16q41 0 78 -16t65 -43q27 -27 42.5 -63.5t15.5 -77.5v-633q0 -43 -16 -79t-42 -63q-28 -28 -65 -43t-78 -15q-43 0 -79.5 15t-62.5 43q-27 27 -42.5 63t-15.5 79z" />
<glyph unicode="&#xef;" horiz-adv-x="613" d="M-65 1325q0 34 13 63t35 52q22 22 51 34.5t63 12.5q33 0 62.5 -13t52.5 -34q22 -23 34.5 -52t12.5 -63t-13 -63.5t-34 -51.5q-23 -22 -52.5 -34.5t-62.5 -12.5q-34 0 -63.5 13t-50.5 34q-22 22 -35 51.5t-13 63.5zM106 179v633q0 41 15.5 78t42.5 63q27 27 63 43t79 16 q41 0 78 -16t65 -43q27 -27 42.5 -63.5t15.5 -77.5v-633q0 -43 -16 -79.5t-42 -62.5q-28 -28 -65 -43.5t-78 -15.5q-43 0 -79.5 15.5t-62.5 43.5q-27 27 -42.5 63t-15.5 79zM331 1325q0 34 12.5 63t35.5 52q22 22 51 34.5t62 12.5q34 0 63.5 -13t50.5 -34q22 -23 34.5 -52 t12.5 -63t-12.5 -63.5t-34.5 -51.5t-51.5 -34.5t-62.5 -12.5t-62.5 13t-50.5 34q-23 22 -35.5 51.5t-12.5 63.5z" />
<glyph unicode="&#xf0;" horiz-adv-x="1167" d="M50 465q0 77 24 145t67 126t101.5 103t129.5 72q23 8 47 16.5t51 13.5q-4 5 -9.5 13.5t-10.5 19.5l-28 -13q-50 -24 -95 -5q-23 8 -41.5 25t-30.5 42q-24 49 -6 95q8 22 24 40.5t41 29.5l41 19q-1 5 -1.5 9.5t-0.5 6.5q0 36 9 65.5t37 56.5q30 27 67.5 42.5t83.5 15.5 q20 0 37.5 -3.5t35.5 -8.5q31 -11 52 -33l54 25q24 11 48.5 12.5t46.5 -6.5q23 -8 41.5 -24.5t30.5 -41.5q24 -49 6 -95q-8 -23 -24.5 -41.5t-40.5 -29.5l-35 -16l235 -462q27 -47 39.5 -101.5t12.5 -112.5q0 -101 -41 -189t-112 -153q-71 -66 -164.5 -104t-201.5 -38 q-109 0 -203 38t-164 104q-71 66 -112 153.5t-41 188.5zM478 464q0 -39 24 -64.5t63 -25.5t62 25.5t23 64.5q0 40 -23 66t-62 26t-63 -26t-24 -66z" />
<glyph unicode="&#xf1;" horiz-adv-x="1247" d="M106 180v720q0 111 112 111q52 0 85 -25t58 -76q52 38 101.5 58.5t92.5 29.5t77 11t57 2q108 0 191.5 -40.5t141.5 -111.5t88.5 -164.5t30.5 -198.5v-318q0 -41 -16 -76.5t-43 -62.5q-27 -28 -63 -43.5t-77 -15.5q-43 0 -79 15.5t-63 43.5q-28 27 -44 62.5t-16 76.5v318 q0 51 -31 86q-15 17 -36.5 26.5t-45.5 9.5q-25 0 -46 -9.5t-37 -24.5q-34 -34 -36 -83v-321q0 -43 -16 -79t-42 -63q-28 -28 -65 -43t-78 -15q-43 0 -79.5 15t-62.5 43q-28 27 -43.5 63t-15.5 79zM336 1237q0 85 55 141q27 29 67.5 46t86.5 17q43 0 71.5 -15t51.5 -32 q23 -18 43.5 -33.5t48.5 -15.5q22 0 30 14t16 33q8 17 23 31.5t51 14.5q15 0 32.5 -5.5t31.5 -17.5q14 -13 23 -34t9 -53q0 -34 -15.5 -68t-44.5 -62t-68 -44.5t-88 -16.5q-43 0 -69 15t-47 34q-20 17 -41 32.5t-53 15.5q-20 0 -28.5 -11.5t-14.5 -26.5t-15.5 -30t-31.5 -21 q-11 -4 -30 -4q-47 0 -70.5 28.5t-23.5 67.5z" />
<glyph unicode="&#xf2;" d="M63 496q0 105 41 198.5t112 164.5t163.5 111.5t200.5 40.5t200.5 -40.5t163.5 -111.5t111.5 -164.5t40.5 -198.5q0 -108 -40.5 -201t-111.5 -164t-164 -111t-200 -40q-108 0 -200.5 40t-163.5 111t-112 164t-41 201zM310.5 1341.5q8.5 32.5 29.5 59.5q20 27 50.5 42 t63.5 15q40 0 84.5 -23.5t82.5 -57.5q38 -35 62.5 -72.5t24.5 -66.5q0 -12 -1 -24t-7 -23q-14 -38 -49.5 -60t-73.5 -22q-37 0 -79.5 16t-81.5 40t-68.5 53t-36.5 57q-9 34 -0.5 66.5zM465 496q0 -25 8.5 -47.5t24.5 -39.5q15 -17 36 -27.5t46 -10.5t45.5 10t36.5 28 q15 17 23.5 39.5t8.5 47.5t-8.5 46.5t-23.5 39.5q-15 17 -36.5 26.5t-45.5 9.5q-25 0 -46 -9.5t-36 -26.5t-24 -39t-9 -47z" />
<glyph unicode="&#xf3;" d="M63 496q0 105 41 198.5t112 164.5t163.5 111.5t200.5 40.5t200.5 -40.5t163.5 -111.5t111.5 -164.5t40.5 -198.5q0 -108 -40.5 -201t-111.5 -164t-164 -111t-200 -40q-108 0 -200.5 40t-163.5 111t-112 164t-41 201zM418 1215q0 29 24.5 67t62.5 73q38 34 82.5 57.5 t84.5 23.5q33 0 62.5 -15.5t50.5 -42.5q20 -27 29 -59.5t0 -66.5q-8 -28 -36 -57t-67 -52q-39 -25 -82 -41t-80 -16q-39 0 -74.5 22t-49.5 60q-5 11 -6 23t-1 24zM465 496q0 -25 8.5 -47.5t24.5 -39.5q15 -17 36 -27.5t46 -10.5t45.5 10t36.5 28q15 17 23.5 39.5t8.5 47.5 t-8.5 46.5t-23.5 39.5q-15 17 -36.5 26.5t-45.5 9.5q-25 0 -46 -9.5t-36 -26.5t-24 -39t-9 -47z" />
<glyph unicode="&#xf4;" d="M63 496q0 105 41 198.5t112 164.5t163.5 111.5t200.5 40.5t200.5 -40.5t163.5 -111.5t111.5 -164.5t40.5 -198.5q0 -108 -40.5 -201t-111.5 -164t-164 -111t-200 -40q-108 0 -200.5 40t-163.5 111t-112 164t-41 201zM274 1197q0 24 9 45.5t26 38.5l181 179q34 34 77.5 36 t79.5 -22l195 -193q34 -37 34 -85q0 -49 -34 -86q-38 -38 -86 -36q-24 0 -46.5 9.5t-39.5 26.5l-96 93l-92 -93q-36 -36 -86 -36q-24 0 -46 9t-41 27q-18 18 -26.5 41t-8.5 46zM465 496q0 -25 8.5 -47.5t24.5 -39.5q15 -17 36 -27.5t46 -10.5t45.5 10t36.5 28 q15 17 23.5 39.5t8.5 47.5t-8.5 46.5t-23.5 39.5q-15 17 -36.5 26.5t-45.5 9.5q-25 0 -46 -9.5t-36 -26.5t-24 -39t-9 -47z" />
<glyph unicode="&#xf5;" d="M63 496q0 105 41 198.5t112 164.5t163.5 111.5t200.5 40.5t200.5 -40.5t163.5 -111.5t111.5 -164.5t40.5 -198.5q0 -108 -40.5 -201t-111.5 -164t-164 -111t-200 -40q-108 0 -200.5 40t-163.5 111t-112 164t-41 201zM256 1214q0 85 55 142q27 29 67.5 45.5t86.5 16.5 q43 0 71.5 -14.5t51.5 -32.5t43.5 -33.5t48.5 -15.5q22 0 30 14.5t16 32.5q8 17 23 31.5t51 14.5q15 0 32.5 -5t31.5 -17q14 -13 23 -34.5t9 -52.5q0 -34 -15.5 -68.5t-43.5 -61.5q-29 -28 -68.5 -45t-88.5 -17q-43 0 -69 15.5t-47 33.5q-20 17 -41 32.5t-53 15.5 q-20 0 -28.5 -11t-14.5 -26t-15.5 -30.5t-31.5 -21.5q-11 -4 -30 -4q-47 0 -70.5 29t-23.5 67zM465 496q0 -25 8.5 -47.5t24.5 -39.5q15 -17 36 -27.5t46 -10.5t45.5 10t36.5 28q15 17 23.5 39.5t8.5 47.5t-8.5 46.5t-23.5 39.5q-15 17 -36.5 26.5t-45.5 9.5q-25 0 -46 -9.5 t-36 -26.5t-24 -39t-9 -47z" />
<glyph unicode="&#xf6;" d="M63 496q0 105 41 198.5t112 164.5t163.5 111.5t200.5 40.5t200.5 -40.5t163.5 -111.5t111.5 -164.5t40.5 -198.5q0 -108 -40.5 -201t-111.5 -164t-164 -111t-200 -40q-108 0 -200.5 40t-163.5 111t-112 164t-41 201zM217 1232q0 34 13 63t34 52q22 22 51.5 34.5 t63.5 12.5q33 0 62.5 -13t52.5 -34q22 -23 34.5 -52t12.5 -63t-13 -63.5t-34 -51.5q-23 -22 -52.5 -34.5t-62.5 -12.5q-34 0 -63.5 13t-51.5 34q-22 22 -34.5 51.5t-12.5 63.5zM465 496q0 -25 8.5 -47.5t24.5 -39.5q15 -17 36 -27.5t46 -10.5t45.5 10t36.5 28 q15 17 23.5 39.5t8.5 47.5t-8.5 46.5t-23.5 39.5q-15 17 -36.5 26.5t-45.5 9.5q-25 0 -46 -9.5t-36 -26.5t-24 -39t-9 -47zM612 1232q0 34 13 63t35 52q22 22 51 34.5t62 12.5q34 0 63.5 -13t51.5 -34q22 -23 34.5 -52t12.5 -63t-13 -63.5t-34 -51.5q-22 -22 -51.5 -34.5 t-63.5 -12.5q-33 0 -62 13t-51 34q-23 22 -35.5 51.5t-12.5 63.5z" />
<glyph unicode="&#xf7;" horiz-adv-x="1104" d="M123 648q0 31 10.5 57.5t30.5 46.5q19 18 45 29.5t56 11.5h578q31 0 57 -11.5t45 -29.5q19 -19 30.5 -46t11.5 -58q0 -30 -11 -56t-31 -45q-19 -19 -45.5 -30.5t-56.5 -11.5h-578q-30 0 -56 11t-45 31q-19 19 -30 45t-11 56zM359 180q0 41 16 78t43 65q27 27 62.5 42.5 t78.5 15.5t79 -16t63 -42q27 -28 43 -65t16 -78q0 -43 -16 -78.5t-43 -62.5q-28 -28 -63.5 -43.5t-78.5 -15.5t-79 15.5t-62 43.5q-27 27 -43 62.5t-16 78.5zM359 1151q0 41 15.5 77.5t43.5 63.5q27 28 62.5 44t78.5 16q41 0 77.5 -16t63.5 -44q28 -28 44 -64t16 -77 q0 -43 -16 -79t-44 -62q-28 -28 -64 -43.5t-77 -15.5q-43 0 -79.5 15.5t-62.5 42.5q-27 27 -42.5 63t-15.5 79z" />
<glyph unicode="&#xf8;" horiz-adv-x="1157" d="M63 496q0 105 40.5 198.5t111.5 164.5t163.5 111.5t200.5 40.5h11t11 -1t10.5 -1h11.5q17 33 38 66.5t47 63.5q25 30 55 52t65 33q31 8 63.5 7t61.5 -16q55 -26 85.5 -71t30.5 -97q0 -10 -2 -21.5t-11 -35.5q-10 -24 -29.5 -62t-53.5 -101q56 -71 88.5 -153t32.5 -178 q0 -108 -40 -201t-111 -164t-164 -111t-200 -40h-19q-4 0 -9 0.5t-10 1.5l-35 -62q-17 -30 -35.5 -56t-42.5 -44t-51 -28.5t-61 -8.5q-43 0 -80 16t-65 42q-29 27 -45.5 61.5t-16.5 72.5q0 8 2 18.5t10 29.5q8 18 24 49t43 84q-58 71 -91.5 156t-33.5 184zM463 496 q0 -25 8.5 -47.5t24.5 -39.5q15 -17 36.5 -27.5t46.5 -10.5t46 10t37 28q15 17 23.5 39.5t8.5 47.5t-8.5 46.5t-23.5 39.5q-15 17 -37 26.5t-46 9.5q-25 0 -46.5 -9.5t-36.5 -26.5t-24 -39t-9 -47z" />
<glyph unicode="&#xf9;" horiz-adv-x="1246" d="M106 496v317q0 41 16 77t44 62q27 27 62.5 43t76.5 16t78 -16t64 -43q28 -27 44.5 -62.5t16.5 -76.5v-317q0 -25 8 -47.5t24 -39.5q15 -17 35.5 -27.5t45.5 -10.5t46.5 10t38.5 28q16 17 25 39.5t9 47.5v315q0 43 16 79t43 63t62.5 42.5t78.5 15.5t79.5 -15.5t63.5 -42.5 q27 -28 42.5 -63.5t15.5 -78.5v-721q0 -111 -111 -110q-50 0 -84.5 24.5t-59.5 73.5q-52 -37 -101 -57t-92 -29t-77 -10.5t-57 -1.5q-108 0 -191 40t-142 111q-58 71 -89 164t-31 201zM378.5 1310.5q8.5 32.5 29.5 59.5q20 27 50 42t63 15q40 0 84.5 -23.5t82.5 -56.5 q38 -35 62.5 -73t24.5 -67q0 -12 -1 -24t-6 -23q-14 -38 -49.5 -60t-74.5 -22q-37 0 -79.5 16t-81.5 41q-39 24 -68 53t-36 56q-9 34 -0.5 66.5z" />
<glyph unicode="&#xfa;" horiz-adv-x="1246" d="M106 496v317q0 41 16 77t44 62q27 27 62.5 43t76.5 16t78 -16t64 -43q28 -27 44.5 -62.5t16.5 -76.5v-317q0 -25 8 -47.5t24 -39.5q15 -17 35.5 -27.5t45.5 -10.5t46.5 10t38.5 28q16 17 25 39.5t9 47.5v315q0 43 16 79t43 63t62.5 42.5t78.5 15.5t79.5 -15.5t63.5 -42.5 q27 -28 42.5 -63.5t15.5 -78.5v-721q0 -111 -111 -110q-50 0 -84.5 24.5t-59.5 73.5q-52 -37 -101 -57t-92 -29t-77 -10.5t-57 -1.5q-108 0 -191 40t-142 111q-58 71 -89 164t-31 201zM469 1227q0 29 24.5 66.5t62.5 72.5q38 34 82.5 57.5t84.5 23.5q33 0 62.5 -15.5 t51.5 -41.5q20 -27 28.5 -60t-0.5 -66q-8 -28 -36 -57t-67 -53q-39 -25 -82 -40.5t-80 -15.5q-39 0 -74.5 22t-49.5 60q-5 11 -6 22.5t-1 24.5z" />
<glyph unicode="&#xfb;" horiz-adv-x="1246" d="M106 496v317q0 41 16 77t44 62q27 27 62.5 43t76.5 16t78 -16t64 -43q28 -27 44.5 -62.5t16.5 -76.5v-317q0 -25 8 -47.5t24 -39.5q15 -17 35.5 -27.5t45.5 -10.5t46.5 10t38.5 28q16 17 25 39.5t9 47.5v315q0 43 16 79t43 63t62.5 42.5t78.5 15.5t79.5 -15.5t63.5 -42.5 q27 -28 42.5 -63.5t15.5 -78.5v-721q0 -111 -111 -110q-50 0 -84.5 24.5t-59.5 73.5q-52 -37 -101 -57t-92 -29t-77 -10.5t-57 -1.5q-108 0 -191 40t-142 111q-58 71 -89 164t-31 201zM301 1233q0 24 9 45.5t26 38.5l181 179q34 34 77.5 36t79.5 -23l194 -192q34 -37 34 -85 q0 -49 -34 -86q-38 -38 -86 -36q-24 0 -46 9t-40 27l-95 93l-92 -93q-36 -36 -86 -36q-24 0 -46.5 8.5t-40.5 27.5q-18 18 -26.5 40.5t-8.5 46.5z" />
<glyph unicode="&#xfc;" horiz-adv-x="1246" d="M106 496v317q0 41 16 77t44 62q27 27 62.5 43t76.5 16t78 -16t64 -43q28 -27 44.5 -62.5t16.5 -76.5v-317q0 -25 8 -47.5t24 -39.5q15 -17 35.5 -27.5t45.5 -10.5t46.5 10t38.5 28q16 17 25 39.5t9 47.5v315q0 43 16 79t43 63t62.5 42.5t78.5 15.5t79.5 -15.5t63.5 -42.5 q27 -28 42.5 -63.5t15.5 -78.5v-721q0 -111 -111 -110q-50 0 -84.5 24.5t-59.5 73.5q-52 -37 -101 -57t-92 -29t-77 -10.5t-57 -1.5q-108 0 -191 40t-142 111q-58 71 -89 164t-31 201zM253 1297q0 34 13 63.5t34 51.5q22 22 51.5 34.5t63.5 12.5q33 0 62.5 -12.5t51.5 -34.5 q22 -23 35 -52t13 -63t-13 -63.5t-35 -50.5q-23 -22 -52.5 -34.5t-61.5 -12.5q-34 0 -63.5 12.5t-51.5 34.5t-34.5 51t-12.5 63zM648 1297q0 34 13 63.5t35 51.5t51 34.5t62 12.5q34 0 63.5 -12.5t51.5 -34.5q22 -23 34.5 -52t12.5 -63t-13 -63.5t-34 -50.5 q-22 -22 -51.5 -34.5t-63.5 -12.5q-33 0 -62 12.5t-51 34.5q-23 22 -35.5 51t-12.5 63z" />
<glyph unicode="&#xfd;" horiz-adv-x="1147" d="M56.5 812q-1.5 40 11.5 76q26 75 100 110q38 17 80 20t80 -8q37 -11 66.5 -37.5t42.5 -65.5l147 -433q35 99 59 172.5t41 126.5l28 86q11 34 23.5 62t41.5 54q61 52 145 46q40 -3 68.5 -17.5t55.5 -35.5q27 -23 44 -57t20 -81t-25 -105l-405 -853q-23 -47 -62.5 -81.5 t-89.5 -56.5q-49 -23 -103.5 -34t-107.5 -11q-52 0 -92.5 14.5t-68.5 41.5q-58 53 -59 142q0 59 25.5 91t62.5 47q37 14 77 15t68 1l48 93q-1 1 -4 7.5t-10 20.5q-13 27 -35 69t-49 97q-14 27 -27.5 54t-28.5 54l-149 296q-17 40 -18.5 80zM444 1193q0 29 25 66.5t62 72.5 q38 34 82.5 57.5t84.5 23.5q33 0 63 -15.5t51 -41.5q20 -27 29 -59.5t0 -66.5q-8 -28 -36.5 -57t-67.5 -53q-39 -25 -82 -40.5t-80 -15.5q-39 0 -74 22t-49 60q-5 11 -6.5 23t-1.5 24z" />
<glyph unicode="&#xfe;" horiz-adv-x="1222" d="M127 -109v1248q0 41 16 76.5t43 62.5t63 42.5t77 15.5t76.5 -15.5t62.5 -42.5t42.5 -62.5t15.5 -76.5v-190q6 12 26 23.5t45 20.5q25 8 50 13t42 5q105 0 192.5 -40.5t149.5 -111.5t96 -164.5t34 -198.5q0 -108 -33.5 -201t-96.5 -164q-62 -71 -149 -111t-193 -40 q-80 0 -160 24v-113q0 -43 -15 -78.5t-42 -62.5q-28 -27 -64 -42.5t-79 -15.5t-79 15t-63 42t-42 63t-15 79zM528 496q0 -25 9.5 -47.5t24.5 -39.5t37 -27.5t46 -10.5q25 0 45.5 10t35.5 28q15 17 23.5 39.5t8.5 47.5q0 51 -32 86q-15 17 -35.5 26.5t-45.5 9.5t-46 -9.5 t-37 -26.5q-15 -17 -24.5 -39.5t-9.5 -46.5z" />
<glyph unicode="&#xff;" horiz-adv-x="1147" d="M56.5 812q-1.5 40 11.5 76q26 75 100 110q38 17 80 20t80 -8q37 -11 66.5 -37.5t42.5 -65.5l147 -433q35 99 59 172.5t41 126.5l28 86q11 34 23.5 62t41.5 54q61 52 145 46q40 -3 68.5 -17.5t55.5 -35.5q27 -23 44 -57t20 -81t-25 -105l-405 -853q-23 -47 -62.5 -81.5 t-89.5 -56.5q-49 -23 -103.5 -34t-107.5 -11q-52 0 -92.5 14.5t-68.5 41.5q-58 53 -59 142q0 59 25.5 91t62.5 47q37 14 77 15t68 1l48 93q-1 1 -4 7.5t-10 20.5q-13 27 -35 69t-49 97q-14 27 -27.5 54t-28.5 54l-149 296q-17 40 -18.5 80zM239 1220q0 34 12.5 63t34.5 51 t51.5 34.5t62.5 12.5t63 -12.5t52 -34.5q22 -23 34.5 -52t12.5 -62q0 -34 -12.5 -64t-34.5 -51q-23 -22 -52.5 -34.5t-62.5 -12.5q-34 0 -63.5 12.5t-50.5 34.5q-22 22 -34.5 51.5t-12.5 63.5zM634 1220q0 34 12.5 63t35.5 51q22 22 51 34.5t62 12.5q34 0 63.5 -12.5 t50.5 -34.5q22 -23 34.5 -52t12.5 -62q0 -34 -12.5 -64t-34.5 -51q-22 -22 -51.5 -34.5t-62.5 -12.5t-62.5 12.5t-50.5 34.5q-23 22 -35.5 51.5t-12.5 63.5z" />
<glyph unicode="&#x100;" horiz-adv-x="1264" d="M40 216q2 8 4 17.5t6 18.5l359 874q4 11 7.5 22t5.5 22q5 23 10 44.5t15 41.5t31 34.5t56 23.5q36 8 88 8q36 0 64.5 -11.5t51.5 -31.5q24 -20 42 -47t32 -57l380 -923q7 -17 9.5 -35.5t3.5 -36.5q0 -78 -56 -139q-37 -39 -85 -53t-97 -4q-49 9 -89.5 40.5t-60.5 84.5 l-25 56h-341l-26 -56q-26 -58 -73.5 -94.5t-112.5 -34.5q-49 0 -89 20t-67 54q-28 33 -39.5 75.5t-3.5 86.5zM208 1543q0 54 37 93q37 37 91 37h520q55 0 92 -37q17 -18 27.5 -41.5t10.5 -51.5q0 -27 -10 -50.5t-28 -40.5q-17 -17 -40.5 -27.5t-51.5 -10.5h-520 q-27 0 -50.5 10.5t-40.5 27.5q-37 37 -37 91zM523 469h195l-96 251z" />
<glyph unicode="&#x101;" horiz-adv-x="1225" d="M67 496q0 105 40.5 198.5t111.5 164.5t163.5 111.5t200.5 40.5q83 0 148 -24.5t114 -71.5q24 44 57.5 71t85.5 27q111 0 111 -111v-812q0 -111 -111 -110q-49 0 -84 26t-58 69q-49 -46 -114.5 -70.5t-148.5 -24.5q-108 0 -200.5 40t-163.5 111t-111.5 164t-40.5 201z M209 1194q0 54 37 93q37 37 91 37h520q55 0 92 -37q17 -18 27.5 -41.5t10.5 -51.5q0 -27 -10 -50.5t-28 -40.5q-17 -17 -40.5 -27.5t-51.5 -10.5h-520q-27 0 -50.5 10t-40.5 28q-37 37 -37 91zM468 496q0 -25 8.5 -47.5t24.5 -39.5q15 -17 36 -27.5t46 -10.5t45.5 10 t36.5 28q15 17 23.5 39.5t8.5 47.5v5q-1 24 -10 45t-24 38q-15 15 -36 24.5t-44 9.5q-25 0 -46 -9.5t-36 -26.5t-24 -39.5t-9 -46.5z" />
<glyph unicode="&#x102;" horiz-adv-x="1264" d="M40 216q2 8 4 17.5t6 18.5l359 874q4 11 7.5 22t5.5 22q5 23 10 44.5t15 41.5t31 34.5t56 23.5q36 8 88 8q36 0 64.5 -11.5t51.5 -31.5q24 -20 42 -47t32 -57l380 -923q7 -17 9.5 -35.5t3.5 -36.5q0 -78 -56 -139q-37 -39 -85 -53t-97 -4q-49 9 -89.5 40.5t-60.5 84.5 l-25 56h-341l-26 -56q-26 -58 -73.5 -94.5t-112.5 -34.5q-49 0 -89 20t-67 54q-28 33 -39.5 75.5t-3.5 86.5zM354 1648q0 25 10 45.5t27 37.5q17 15 39 24t46 9q31 0 47 -9.5t24 -23.5q4 -7 6 -15.5t4 -16.5q3 -17 7.5 -31.5t15.5 -23.5q10 -10 32 -11q22 0 32 10t15 24 q5 16 9 32q2 17 9.5 31.5t23.5 24.5q17 9 48 9q26 0 47.5 -9t38.5 -24q16 -16 25.5 -38t9.5 -45q0 -46 -21 -87.5t-56 -73.5q-36 -32 -82.5 -51t-98.5 -19t-97.5 19t-81.5 51t-57.5 73.5t-21.5 87.5zM523 469h195l-96 251z" />
<glyph unicode="&#x103;" horiz-adv-x="1225" d="M67 496q0 105 40.5 198.5t111.5 164.5t163.5 111.5t200.5 40.5q83 0 148 -24.5t114 -71.5q24 44 57.5 71t85.5 27q111 0 111 -111v-812q0 -111 -111 -110q-49 0 -84 26t-58 69q-49 -46 -114.5 -70.5t-148.5 -24.5q-108 0 -200.5 40t-163.5 111t-111.5 164t-40.5 201z M327 1347q0 25 9.5 45.5t27.5 37.5q17 15 38.5 24t46.5 9q31 0 46.5 -9.5t23.5 -23.5q4 -7 6 -15.5t4 -16.5q3 -17 8 -31.5t15 -24.5t33 -10q22 0 32 10t15 24q5 16 8 32q2 17 9.5 31.5t24.5 24.5q17 9 47 9q26 0 48 -9t38 -24q16 -16 26 -38t10 -45q0 -46 -21 -87.5 t-57 -73.5t-82 -51t-98 -19t-98 19t-81 51q-36 32 -57.5 73t-21.5 88zM468 496q0 -25 8.5 -47.5t24.5 -39.5q15 -17 36 -27.5t46 -10.5t45.5 10t36.5 28q15 17 23.5 39.5t8.5 47.5v5q-1 24 -10 45t-24 38q-15 15 -36 24.5t-44 9.5q-25 0 -46 -9.5t-36 -26.5t-24 -39.5 t-9 -46.5z" />
<glyph unicode="&#x104;" horiz-adv-x="1264" d="M40 216q2 8 4 17.5t6 18.5l359 874q4 11 7.5 22t5.5 22q5 23 10 44.5t15 41.5t31 34.5t56 23.5q36 8 88 8q36 0 64.5 -11.5t51.5 -31.5q24 -20 42 -47t32 -57l380 -923q7 -17 9.5 -35.5t3.5 -36.5q0 -78 -56 -139q-20 -22 -45 -36l-49 -44q-52 -47 -78 -75 q-26 -30 -26 -55q0 -24 12 -39.5t39 -15.5q19 0 29.5 9.5t17.5 24.5q3 7 6 15l6 16q5 17 15.5 31t29.5 25q18 9 51 9q15 0 32 -6t30 -17t21.5 -26t8.5 -33q0 -55 -20 -102t-55 -81q-36 -35 -83 -54.5t-102 -19.5t-103 19.5t-84 54.5t-56.5 81.5t-20.5 101.5q0 46 17.5 85 t53.5 81q25 28 56 59q-23 26 -35 60l-25 56h-341l-26 -56q-26 -58 -73.5 -94.5t-112.5 -34.5q-49 0 -89 20t-67 54q-28 33 -39.5 75.5t-3.5 86.5zM523 469h195l-96 251z" />
<glyph unicode="&#x105;" horiz-adv-x="1225" d="M67 496q0 105 40.5 198.5t111.5 164.5t163.5 111.5t200.5 40.5q83 0 148 -24.5t114 -71.5q24 44 57.5 71t85.5 27q111 0 111 -111v-812q0 -16 -3 -31q-2 -32 -28 -56l-84 -76q-52 -47 -78 -74q-26 -30 -25 -56q0 -24 11.5 -39.5t39.5 -15.5q19 0 29.5 9.5t16.5 24.5 q3 7 6 15l6 16q5 17 16 31.5t29 24.5q18 9 51 9q15 0 32 -6t30 -17t22 -25.5t9 -33.5q0 -55 -20 -101.5t-56 -81.5t-82.5 -54.5t-101.5 -19.5t-103.5 19.5t-84.5 54.5t-56.5 81.5t-20.5 101.5q0 46 17.5 85t53.5 81q24 27 53.5 56t67.5 63q-49 -46 -114.5 -70.5 t-148.5 -24.5q-108 0 -200.5 40t-163.5 111t-111.5 164t-40.5 201zM468 496q0 -25 8.5 -47.5t24.5 -39.5q15 -17 36 -27.5t46 -10.5t45.5 10t36.5 28q15 17 23.5 39.5t8.5 47.5v5q-1 24 -10 45t-24 38q-15 15 -36 24.5t-44 9.5q-25 0 -46 -9.5t-36 -26.5t-24 -39.5t-9 -46.5 z" />
<glyph unicode="&#x106;" horiz-adv-x="1340" d="M63 651q0 139 52.5 260t144.5 214q92 92 213.5 144.5t261.5 52.5q155 0 264 -48q55 -26 104.5 -65t98.5 -94q53 -60 58 -140q2 -33 -12.5 -71t-45.5 -68q-23 -23 -52.5 -39t-64.5 -19t-72.5 8t-77.5 42q-8 7 -17.5 15t-17.5 16q-17 17 -39.5 31.5t-52.5 24.5t-73 11 q-56 0 -105 -22t-86 -61t-58 -90t-21 -106t21.5 -105t58.5 -88t86 -60.5t104 -22.5q46 0 77.5 12.5t57.5 32.5q24 16 52 41q25 22 54.5 38.5t60.5 24.5q66 16 126 -8q31 -12 56 -37q57 -57 57 -139q0 -39 -13.5 -75t-43.5 -66q-47 -58 -99 -98t-110 -66q-116 -51 -275 -51 q-140 0 -261.5 52t-213.5 144t-144.5 213.5t-52.5 261.5zM556 1523q0 29 24.5 66.5t62.5 72.5q38 34 82.5 57.5t84.5 23.5q33 0 62.5 -15.5t51.5 -41.5q20 -27 29 -60t-1 -66q-8 -28 -36 -57t-67 -53q-39 -25 -82 -40.5t-80 -15.5q-39 0 -74 22t-50 60q-5 11 -6 22.5 t-1 24.5z" />
<glyph unicode="&#x107;" horiz-adv-x="1095" d="M63 496q0 105 40.5 198.5t111.5 164.5t163 111.5t200 40.5q59 0 115.5 -12.5t107.5 -33.5q51 -22 92.5 -51t71.5 -63q31 -33 48.5 -69.5t17.5 -72.5q0 -37 -12.5 -70.5t-36.5 -57.5q-25 -25 -58 -40t-76 -15q-25 0 -46 7t-41 18q-10 5 -20 10.5t-20 11.5q-10 5 -20 11.5 t-21 11.5q-34 14 -71 18t-69 -7q-33 -11 -54 -37.5t-21 -73.5q0 -46 19.5 -74t51.5 -39q31 -11 69 -7t75 19q23 9 42 23q20 12 39 22q41 20 90 23t95 -21q40 -24 62.5 -64t22.5 -95q0 -61 -32 -115t-91 -96t-142.5 -67t-187.5 -25q-108 0 -200 40t-163 111t-111.5 164 t-40.5 201zM414 1260q0 29 24.5 66.5t62.5 72.5q38 34 82.5 57.5t84.5 23.5q33 0 62.5 -15.5t50.5 -42.5q20 -27 29 -59.5t0 -66.5q-8 -28 -36.5 -57t-66.5 -52q-39 -25 -82 -41t-80 -16q-39 0 -74.5 22.5t-49.5 59.5q-5 11 -6 23t-1 25z" />
<glyph unicode="&#x108;" horiz-adv-x="1340" d="M63 651q0 139 52.5 260t144.5 214q92 92 213.5 144.5t261.5 52.5q155 0 264 -48q55 -26 104.5 -65t98.5 -94q53 -60 58 -140q2 -33 -12.5 -71t-45.5 -68q-23 -23 -52.5 -39t-64.5 -19t-72.5 8t-77.5 42q-8 7 -17.5 15t-17.5 16q-17 17 -39.5 31.5t-52.5 24.5t-73 11 q-56 0 -105 -22t-86 -61t-58 -90t-21 -106t21.5 -105t58.5 -88t86 -60.5t104 -22.5q46 0 77.5 12.5t57.5 32.5q24 16 52 41q25 22 54.5 38.5t60.5 24.5q66 16 126 -8q31 -12 56 -37q57 -57 57 -139q0 -39 -13.5 -75t-43.5 -66q-47 -58 -99 -98t-110 -66q-116 -51 -275 -51 q-140 0 -261.5 52t-213.5 144t-144.5 213.5t-52.5 261.5zM431 1513q0 24 9 45.5t26 38.5l181 180q34 34 77.5 36t79.5 -23l194 -193q34 -37 34 -85q0 -49 -34 -86q-38 -38 -86 -35q-24 0 -46 9t-40 26l-95 94l-92 -94q-36 -36 -86 -35q-24 0 -46.5 8.5t-40.5 26.5t-26.5 41 t-8.5 46z" />
<glyph unicode="&#x109;" horiz-adv-x="1095" d="M63 496q0 105 40.5 198.5t111.5 164.5t163 111.5t200 40.5q59 0 115.5 -12.5t107.5 -33.5q51 -22 92.5 -51t71.5 -63q31 -33 48.5 -69.5t17.5 -72.5q0 -37 -12.5 -70.5t-36.5 -57.5q-25 -25 -58 -40t-76 -15q-25 0 -46 7t-41 18q-10 5 -20 10.5t-20 11.5q-10 5 -20 11.5 t-21 11.5q-34 14 -71 18t-69 -7q-33 -11 -54 -37.5t-21 -73.5q0 -46 19.5 -74t51.5 -39q31 -11 69 -7t75 19q23 9 42 23q20 12 39 22q41 20 90 23t95 -21q40 -24 62.5 -64t22.5 -95q0 -61 -32 -115t-91 -96t-142.5 -67t-187.5 -25q-108 0 -200 40t-163 111t-111.5 164 t-40.5 201zM280 1206q0 24 8.5 45.5t25.5 38.5l182 179q34 34 77 36t79 -22l195 -193q34 -37 34 -85q0 -49 -34 -86q-38 -38 -86 -36q-24 0 -46.5 9.5t-39.5 26.5l-95 93l-93 -93q-36 -36 -86 -36q-24 0 -46 9t-41 27q-18 18 -26 41t-8 46z" />
<glyph unicode="&#x10a;" horiz-adv-x="1340" d="M63 651q0 139 52.5 260t144.5 214q92 92 213.5 144.5t261.5 52.5q155 0 264 -48q55 -26 104.5 -65t98.5 -94q53 -60 58 -140q2 -33 -12.5 -71t-45.5 -68q-23 -23 -52.5 -39t-64.5 -19t-72.5 8t-77.5 42q-8 7 -17.5 15t-17.5 16q-17 17 -39.5 31.5t-52.5 24.5t-73 11 q-56 0 -105 -22t-86 -61t-58 -90t-21 -106t21.5 -105t58.5 -88t86 -60.5t104 -22.5q46 0 77.5 12.5t57.5 32.5q24 16 52 41q25 22 54.5 38.5t60.5 24.5q66 16 126 -8q31 -12 56 -37q57 -57 57 -139q0 -39 -13.5 -75t-43.5 -66q-47 -58 -99 -98t-110 -66q-116 -51 -275 -51 q-140 0 -261.5 52t-213.5 144t-144.5 213.5t-52.5 261.5zM520 1592q0 43 15.5 78.5t42.5 62.5t63 41.5t79 14.5q41 0 78 -15t63 -41q27 -27 43 -62.5t16 -78.5t-16 -77.5t-43 -61.5t-63.5 -41.5t-77.5 -14.5q-43 0 -79.5 14.5t-62.5 41.5q-27 27 -42.5 61.5t-15.5 77.5z" />
<glyph unicode="&#x10b;" horiz-adv-x="1095" d="M63 496q0 105 40.5 198.5t111.5 164.5t163 111.5t200 40.5q59 0 115.5 -12.5t107.5 -33.5q51 -22 92.5 -51t71.5 -63q31 -33 48.5 -69.5t17.5 -72.5q0 -37 -12.5 -70.5t-36.5 -57.5q-25 -25 -58 -40t-76 -15q-25 0 -46 7t-41 18q-10 5 -20 10.5t-20 11.5q-10 5 -20 11.5 t-21 11.5q-34 14 -71 18t-69 -7q-33 -11 -54 -37.5t-21 -73.5q0 -46 19.5 -74t51.5 -39q31 -11 69 -7t75 19q23 9 42 23q20 12 39 22q41 20 90 23t95 -21q40 -24 62.5 -64t22.5 -95q0 -61 -32 -115t-91 -96t-142.5 -67t-187.5 -25q-108 0 -200 40t-163 111t-111.5 164 t-40.5 201zM375 1315q0 43 15.5 78t41.5 62q27 27 63 41.5t79 14.5q41 0 78 -14.5t64 -41.5t42.5 -62t15.5 -78t-16 -78t-42 -61q-27 -27 -64 -42t-78 -15q-43 0 -79 15t-63 42t-42 61.5t-15 77.5z" />
<glyph unicode="&#x10c;" horiz-adv-x="1340" d="M63 651q0 139 52.5 260t144.5 214q92 92 213.5 144.5t261.5 52.5q155 0 264 -48q55 -26 104.5 -65t98.5 -94q53 -60 58 -140q2 -33 -12.5 -71t-45.5 -68q-23 -23 -52.5 -39t-64.5 -19t-72.5 8t-77.5 42q-8 7 -17.5 15t-17.5 16q-17 17 -39.5 31.5t-52.5 24.5t-73 11 q-56 0 -105 -22t-86 -61t-58 -90t-21 -106t21.5 -105t58.5 -88t86 -60.5t104 -22.5q46 0 77.5 12.5t57.5 32.5q24 16 52 41q25 22 54.5 38.5t60.5 24.5q66 16 126 -8q31 -12 56 -37q57 -57 57 -139q0 -39 -13.5 -75t-43.5 -66q-47 -58 -99 -98t-110 -66q-116 -51 -275 -51 q-140 0 -261.5 52t-213.5 144t-144.5 213.5t-52.5 261.5zM423 1677q0 24 8 46t27 40q18 18 40.5 27t46.5 9q50 0 86 -36l92 -93l95 93q17 17 40 26.5t46 10.5q24 0 46 -9t40 -28q34 -37 34 -86q0 -48 -34 -85l-194 -192q-36 -25 -79.5 -23t-77.5 36l-181 179 q-17 17 -26 39.5t-9 45.5z" />
<glyph unicode="&#x10d;" horiz-adv-x="1095" d="M63 496q0 105 40.5 198.5t111.5 164.5t163 111.5t200 40.5q59 0 115.5 -12.5t107.5 -33.5q51 -22 92.5 -51t71.5 -63q31 -33 48.5 -69.5t17.5 -72.5q0 -37 -12.5 -70.5t-36.5 -57.5q-25 -25 -58 -40t-76 -15q-25 0 -46 7t-41 18q-10 5 -20 10.5t-20 11.5q-10 5 -20 11.5 t-21 11.5q-34 14 -71 18t-69 -7q-33 -11 -54 -37.5t-21 -73.5q0 -46 19.5 -74t51.5 -39q31 -11 69 -7t75 19q23 9 42 23q20 12 39 22q41 20 90 23t95 -21q40 -24 62.5 -64t22.5 -95q0 -61 -32 -115t-91 -96t-142.5 -67t-187.5 -25q-108 0 -200 40t-163 111t-111.5 164 t-40.5 201zM269 1401q0 24 8.5 45.5t26.5 40.5q18 18 41 27t46 9q50 0 86 -36l92 -93l96 93q17 17 39.5 26.5t46.5 10.5q24 0 45.5 -9.5t40.5 -27.5q34 -37 33 -86q0 -48 -33 -85l-195 -193q-36 -25 -79.5 -22.5t-77.5 36.5l-181 179q-17 17 -26 39t-9 46z" />
<glyph unicode="&#x10e;" horiz-adv-x="1389" d="M127 1239q0 18 5.5 33.5t20.5 26.5q14 11 38 17t63 6h400q93 0 178.5 -24t159.5 -68q75 -44 136 -105t105 -136t68 -160t24 -178q0 -140 -52 -261.5t-145 -213.5t-214 -144t-260 -52h-309q-37 0 -69.5 11.5t-58.5 33.5t-43 50.5t-24 62.5q-4 17 -5 42v927q-1 16 -3.5 33 t-6.5 35q-8 36 -8 64zM205 1705q0 24 8 46t27 40q18 18 40.5 27t46.5 9q50 0 86 -36l92 -93l95 93q17 17 40 26.5t46 10.5q24 0 46 -9.5t40 -27.5q34 -37 34 -86q0 -48 -34 -85l-194 -193q-36 -25 -79.5 -22.5t-77.5 36.5l-181 179q-17 17 -26 39t-9 46zM545 374h109 q55 3 104.5 24t86.5 57t58.5 85.5t21.5 110.5q0 69 -21.5 122.5t-58.5 91.5q-37 37 -86 58t-105 24h-109v-573z" />
<glyph unicode="&#x10f;" horiz-adv-x="1222" d="M63 496q0 105 34.5 198.5t97.5 164.5q61 71 147.5 111.5t194.5 40.5q39 0 78.5 -12t78.5 -34v174q0 43 16 79t44 64q27 27 62.5 42t78.5 15t79.5 -15t63.5 -42q27 -28 42.5 -64t15.5 -79v-1049q0 -111 -112 -110q-55 0 -91 31t-59 83l-4 5q-53 -56 -125.5 -87.5 t-167.5 -31.5q-108 0 -194.5 40t-147.5 111q-62 71 -97 164t-35 201zM167 1428q0 24 8 46t27 40q18 18 40.5 27t46.5 9q50 0 86 -36l92 -93l95 93q17 17 40 26.5t46 10.5q24 0 46 -9t40 -28q34 -37 34 -86q0 -48 -34 -85l-194 -192q-36 -25 -79.5 -23t-77.5 36l-181 179 q-17 17 -26 39.5t-9 45.5zM465 496q0 -25 8.5 -47.5t24.5 -39.5q15 -17 36 -27.5t46 -10.5t45.5 10t36.5 28q15 17 23.5 39.5t8.5 47.5v5q-1 24 -10 45t-25 38q-15 15 -35.5 24.5t-43.5 9.5q-25 0 -46 -9.5t-36 -26.5t-24 -39.5t-9 -46.5z" />
<glyph unicode="&#x110;" horiz-adv-x="1435" d="M14 650q0 54 37 93q37 37 91 37h49v327q-1 16 -3.5 33t-6.5 35q-8 36 -8 64q0 18 5.5 33.5t20.5 26.5q14 11 38 17t63 6h400q93 0 178.5 -24t159.5 -68q75 -44 136 -105t105 -136t68 -160t24 -178q0 -140 -52 -261.5t-144 -213.5q-93 -92 -214 -144t-261 -52h-309 q-37 0 -69.5 11.5t-58.5 33.5t-43 50.5t-24 62.5q-4 17 -5 42v341h-49q-27 0 -50 10.5t-41 27.5q-37 37 -37 91zM591 374h109q55 3 104.5 24t86.5 57t58.5 85.5t21.5 110.5q0 69 -21.5 122.5t-58.5 91.5q-37 37 -86 58t-105 24h-109v-167h72q55 0 92 -37q17 -18 27.5 -41.5 t10.5 -51.5q0 -27 -10.5 -50t-27.5 -41q-17 -17 -41 -27.5t-51 -10.5h-72v-147z" />
<glyph unicode="&#x111;" horiz-adv-x="1222" d="M63 496q0 105 34.5 198.5t97.5 164.5q61 71 147.5 111.5t194.5 40.5q39 0 78.5 -12.5t78.5 -33.5v60h-56q-27 0 -50.5 10.5t-40.5 27.5q-37 37 -37 91t37 93q37 37 91 37h118q27 27 62 41t77 14t78 -14t63 -41h122q55 0 92 -37q17 -18 27.5 -41.5t10.5 -51.5 q0 -27 -10 -50.5t-28 -40.5q-17 -17 -40.5 -27.5t-51.5 -10.5h-62v-935q0 -111 -112 -110q-55 0 -91 31t-59 83l-4 5q-53 -56 -125.5 -87.5t-167.5 -31.5q-108 0 -194.5 40t-147.5 111q-62 71 -97 164t-35 201zM465 496q0 -25 8.5 -47.5t24.5 -39.5q15 -17 36 -27.5 t46 -10.5t45.5 10t36.5 28q15 17 23.5 39.5t8.5 47.5v5q-1 24 -10 45t-25 38q-15 15 -35.5 24.5t-43.5 9.5q-25 0 -46 -9.5t-36 -26.5t-24 -39.5t-9 -46.5z" />
<glyph unicode="&#x112;" horiz-adv-x="1226" d="M127 1239q0 18 5.5 33.5t20.5 26.5q14 11 38 17t63 6h709q65 0 107 -27.5t65 -70.5q22 -43 22 -92t-20 -92q-22 -43 -65.5 -70.5t-108.5 -27.5h-418v-108h290q46 0 86 -23.5t65 -59.5q25 -37 31.5 -82t-13.5 -91q-24 -52 -67.5 -81.5t-101.5 -29.5h-290v-86h418 q43 0 79 -15.5t64 -41.5q27 -27 42 -64t15 -80t-15 -79t-42 -63q-28 -28 -64 -43t-79 -15h-618q-43 0 -79.5 15t-62.5 42q-27 27 -42.5 63.5t-15.5 79.5v927q-1 16 -3.5 33t-6.5 35q-8 36 -8 64zM168 1525q0 54 37 93q37 37 91 37h520q55 0 92 -37q17 -18 27.5 -42t10.5 -51 t-10 -50.5t-28 -40.5q-17 -17 -40.5 -27.5t-51.5 -10.5h-520q-27 0 -50.5 10t-40.5 28q-37 37 -37 91z" />
<glyph unicode="&#x113;" d="M63 496q0 105 41 198.5t112 164.5t163.5 111.5t200.5 40.5t200.5 -36.5t163.5 -101.5t111.5 -153.5t40.5 -196.5q0 -40 -13 -65.5t-35 -39.5q-23 -14 -54 -20t-69 -6h-452q5 -30 37 -58q14 -14 32.5 -23t39.5 -9q24 0 42 6.5t39 16.5q23 10 51.5 14t59.5 0t60 -15t53 -30 t37 -47t14 -64q1 -59 -33 -98t-86 -62q-53 -24 -116.5 -33.5t-122.5 -9.5q-108 0 -200.5 40t-163.5 111t-112 164t-41 201zM175 1213q0 54 37 94q37 36 91 36h520q55 0 92 -36q17 -18 27.5 -42t10.5 -52q0 -27 -10 -50t-28 -41q-17 -17 -40.5 -27.5t-51.5 -10.5h-520 q-27 0 -50.5 10.5t-40.5 27.5q-37 37 -37 91zM467 616h225q-2 17 -13.5 32t-29.5 25q-17 9 -35.5 14.5t-33.5 5.5q-17 0 -36 -5.5t-34 -14.5q-16 -10 -27.5 -24.5t-15.5 -32.5z" />
<glyph unicode="&#x114;" horiz-adv-x="1226" d="M127 1239q0 18 5.5 33.5t20.5 26.5q14 11 38 17t63 6h709q65 0 107 -27.5t65 -70.5q22 -43 22 -92t-20 -92q-22 -43 -65.5 -70.5t-108.5 -27.5h-418v-108h290q46 0 86 -23.5t65 -59.5q25 -37 31.5 -82t-13.5 -91q-24 -52 -67.5 -81.5t-101.5 -29.5h-290v-86h418 q43 0 79 -15.5t64 -41.5q27 -27 42 -64t15 -80t-15 -79t-42 -63q-28 -28 -64 -43t-79 -15h-618q-43 0 -79.5 15t-62.5 42q-27 27 -42.5 63.5t-15.5 79.5v927q-1 16 -3.5 33t-6.5 35q-8 36 -8 64zM296 1648q0 25 9.5 45.5t27.5 37.5q17 15 38.5 24t46.5 9q31 0 46.5 -9.5 t23.5 -23.5q4 -7 6.5 -15.5t4.5 -16.5q3 -17 7.5 -31.5t14.5 -23.5q10 -10 33 -11q22 0 32 10t15 24q5 16 8 32q2 17 10 31.5t24 24.5q17 9 47 9q26 0 48 -9t38 -24q16 -16 26 -38t10 -45q0 -46 -21 -87.5t-57 -73.5t-82 -51t-98 -19t-97.5 19t-81.5 51t-57.5 73.5 t-21.5 87.5z" />
<glyph unicode="&#x115;" d="M63 496q0 105 41 198.5t112 164.5t163.5 111.5t200.5 40.5t200.5 -36.5t163.5 -101.5t111.5 -153.5t40.5 -196.5q0 -40 -13 -65.5t-35 -39.5q-23 -14 -54 -20t-69 -6h-452q5 -30 37 -58q14 -14 32.5 -23t39.5 -9q24 0 42 6.5t39 16.5q23 10 51.5 14t59.5 0t60 -15t53 -30 t37 -47t14 -64q1 -59 -33 -98t-86 -62q-53 -24 -116.5 -33.5t-122.5 -9.5q-108 0 -200.5 40t-163.5 111t-112 164t-41 201zM319 1316q0 25 10 45.5t27 37.5q17 15 39 24.5t46 9.5q31 0 47 -10t24 -24q4 -7 6 -15.5t4 -16.5q3 -17 8 -31.5t15 -23.5q10 -10 33 -10 q22 0 32 9.5t15 23.5q5 16 8 32q2 17 9.5 31.5t24.5 24.5q17 9 47 10q26 0 47.5 -9.5t38.5 -24.5q16 -16 26 -38t10 -45q0 -46 -21 -87.5t-57 -73.5t-82 -51t-98 -19t-98 19t-82 51t-57.5 73.5t-21.5 87.5zM467 616h225q-2 17 -13.5 32t-29.5 25q-17 9 -35.5 14.5t-33.5 5.5 q-17 0 -36 -5.5t-34 -14.5q-16 -10 -27.5 -24.5t-15.5 -32.5z" />
<glyph unicode="&#x116;" horiz-adv-x="1226" d="M127 1239q0 18 5.5 33.5t20.5 26.5q14 11 38 17t63 6h709q65 0 107 -27.5t65 -70.5q22 -43 22 -92t-20 -92q-22 -43 -65.5 -70.5t-108.5 -27.5h-418v-108h290q46 0 86 -23.5t65 -59.5q25 -37 31.5 -82t-13.5 -91q-24 -52 -67.5 -81.5t-101.5 -29.5h-290v-86h418 q43 0 79 -15.5t64 -41.5q27 -27 42 -64t15 -80t-15 -79t-42 -63q-28 -28 -64 -43t-79 -15h-618q-43 0 -79.5 15t-62.5 42q-27 27 -42.5 63.5t-15.5 79.5v927q-1 16 -3.5 33t-6.5 35q-8 36 -8 64zM347 1613q0 43 15.5 78t41.5 62q27 27 63.5 41.5t79.5 14.5q41 0 78 -14.5 t63 -41.5q27 -27 42.5 -62t15.5 -78t-15.5 -78t-42.5 -61q-27 -27 -63.5 -42t-77.5 -15q-43 0 -79.5 15t-63.5 42t-42 61.5t-15 77.5z" />
<glyph unicode="&#x117;" d="M63 496q0 105 41 198.5t112 164.5t163.5 111.5t200.5 40.5t200.5 -36.5t163.5 -101.5t111.5 -153.5t40.5 -196.5q0 -40 -13 -65.5t-35 -39.5q-23 -14 -54 -20t-69 -6h-452q5 -30 37 -58q14 -14 32.5 -23t39.5 -9q24 0 42 6.5t39 16.5q23 10 51.5 14t59.5 0t60 -15t53 -30 t37 -47t14 -64q1 -59 -33 -98t-86 -62q-53 -24 -116.5 -33.5t-122.5 -9.5q-108 0 -200.5 40t-163.5 111t-112 164t-41 201zM375 1293q0 43 15.5 78.5t41.5 62.5q27 27 63 41.5t79 14.5q41 0 78 -15t64 -41q27 -27 42.5 -62.5t15.5 -78.5t-16 -77.5t-42 -61.5 q-27 -27 -64 -41.5t-78 -14.5q-43 0 -79 14.5t-63 41.5t-42 61.5t-15 77.5zM467 616h225q-2 17 -13.5 32t-29.5 25q-17 9 -35.5 14.5t-33.5 5.5q-17 0 -36 -5.5t-34 -14.5q-16 -10 -27.5 -24.5t-15.5 -32.5z" />
<glyph unicode="&#x118;" horiz-adv-x="1226" d="M127 1239q0 18 5.5 33.5t20.5 26.5q14 11 38 17t63 6h709q65 0 107 -27.5t65 -70.5q22 -43 22 -92t-20 -92q-22 -43 -65.5 -70.5t-108.5 -27.5h-418v-108h290q46 0 86 -23.5t65 -59.5q25 -37 31.5 -82t-13.5 -91q-24 -52 -67.5 -81.5t-101.5 -29.5h-290v-86h418 q43 0 79 -15.5t64 -41.5q27 -27 42 -64t15 -80t-15 -79t-42 -63q-28 -28 -64 -43t-79 -15h-43l-36 -33q-52 -47 -78 -75q-26 -30 -26 -55q0 -24 12 -40t39 -16q19 0 29.5 10t17.5 24q3 7 6 15.5t6 16.5q5 17 15.5 31t29.5 24q18 9 51 9q15 0 31.5 -5.5t30.5 -16.5 q13 -11 21.5 -26t8.5 -33q0 -55 -20 -102t-56 -82t-82.5 -54t-101.5 -19t-103 19t-84 54t-56.5 81.5t-20.5 102.5q0 46 17.5 84.5t53.5 80.5l3 5h-283q-43 0 -79.5 15t-62.5 42q-27 27 -42.5 63.5t-15.5 79.5v927q-1 16 -3.5 33t-6.5 35q-8 36 -8 64z" />
<glyph unicode="&#x119;" d="M63 496q0 105 41 198.5t112 164.5t163.5 111.5t200.5 40.5t200.5 -36.5t163.5 -101.5t111.5 -153.5t40.5 -196.5q0 -40 -13 -65.5t-35 -39.5q-23 -14 -54 -20t-69 -6h-452q5 -30 37 -58q14 -14 32.5 -23t39.5 -9q24 0 42 6.5t39 16.5q23 10 51.5 14t59.5 0t60 -15t53 -30 t37 -47t14 -64q1 -55 -28 -92.5t-75 -60.5l-17 -15q-52 -47 -78 -74q-26 -30 -25 -56q0 -24 11.5 -39.5t39.5 -15.5q19 0 29.5 9.5t16.5 24.5q3 7 6 15t6 17q5 17 16 31t29 24q18 9 52 9q15 0 31.5 -5.5t29.5 -16.5t22 -26t9 -34q0 -55 -20 -101.5t-56 -81.5t-82.5 -54.5 t-101.5 -19.5t-103.5 19.5t-84.5 54.5t-56.5 81.5t-20.5 101.5q0 54 28 106q-88 11 -164.5 49t-135.5 98q-71 71 -112 164t-41 201zM467 616h225q-2 17 -13.5 32t-29.5 25q-17 9 -35.5 14.5t-33.5 5.5q-17 0 -36 -5.5t-34 -14.5q-16 -10 -27.5 -24.5t-15.5 -32.5z" />
<glyph unicode="&#x11a;" horiz-adv-x="1226" d="M127 1239q0 18 5.5 33.5t20.5 26.5q14 11 38 17t63 6h709q65 0 107 -27.5t65 -70.5q22 -43 22 -92t-20 -92q-22 -43 -65.5 -70.5t-108.5 -27.5h-418v-108h290q46 0 86 -23.5t65 -59.5q25 -37 31.5 -82t-13.5 -91q-24 -52 -67.5 -81.5t-101.5 -29.5h-290v-86h418 q43 0 79 -15.5t64 -41.5q27 -27 42 -64t15 -80t-15 -79t-42 -63q-28 -28 -64 -43t-79 -15h-618q-43 0 -79.5 15t-62.5 42q-27 27 -42.5 63.5t-15.5 79.5v927q-1 16 -3.5 33t-6.5 35q-8 36 -8 64zM291 1710q0 24 8 46t27 40q18 18 40.5 27t46.5 9q50 0 86 -36l92 -93l95 93 q17 17 40 26.5t46 10.5q24 0 46 -9t40 -28q34 -37 34 -86q0 -48 -34 -85l-194 -192q-36 -25 -79.5 -23t-77.5 36l-181 179q-17 17 -26 39.5t-9 45.5z" />
<glyph unicode="&#x11b;" d="M63 496q0 105 41 198.5t112 164.5t163.5 111.5t200.5 40.5t200.5 -36.5t163.5 -101.5t111.5 -153.5t40.5 -196.5q0 -40 -13 -65.5t-35 -39.5q-23 -14 -54 -20t-69 -6h-452q5 -30 37 -58q14 -14 32.5 -23t39.5 -9q24 0 42 6.5t39 16.5q23 10 51.5 14t59.5 0t60 -15t53 -30 t37 -47t14 -64q1 -59 -33 -98t-86 -62q-53 -24 -116.5 -33.5t-122.5 -9.5q-108 0 -200.5 40t-163.5 111t-112 164t-41 201zM275 1379q0 24 8.5 46t26.5 40t41 27t46 9q50 0 86 -36l92 -93l96 93q17 17 39.5 26.5t46.5 10.5q24 0 45.5 -9t40.5 -28q34 -37 34 -86 q0 -48 -34 -85l-195 -192q-36 -25 -79 -23t-77 36l-182 179q-17 17 -26 39.5t-9 45.5zM467 616h225q-2 17 -13.5 32t-29.5 25q-17 9 -35.5 14.5t-33.5 5.5q-17 0 -36 -5.5t-34 -14.5q-16 -10 -27.5 -24.5t-15.5 -32.5z" />
<glyph unicode="&#x11c;" horiz-adv-x="1398" d="M63 651q0 139 52.5 260t144.5 214q92 92 213.5 144.5t261.5 52.5q78 0 144.5 -14t125.5 -40q58 -28 108 -68t99 -95q27 -32 42.5 -65t15.5 -76q0 -55 -27.5 -100t-73.5 -70q-43 -24 -91 -27.5t-94 19.5q-38 18 -60 43q-25 24 -49.5 45.5t-56.5 36.5q-34 14 -83 15 q-56 0 -105 -22t-86 -61t-58 -90t-21 -106q0 -65 22 -116.5t61 -88.5t90 -57t110 -20h23q-32 24 -50 57t-18 64q0 27 13 55t37 52t56.5 37.5t73.5 13.5h277q33 0 61 -8.5t49 -30.5q20 -22 31.5 -56.5t11.5 -86.5v-327q0 -66 -43 -108q-43 -43 -115 -43q-61 0 -97 32t-47 87 q-25 -26 -54 -47.5t-63 -39.5q-34 -17 -73.5 -26.5t-85.5 -9.5q-140 0 -261.5 52t-213.5 144t-144.5 213.5t-52.5 261.5zM450 1520q0 24 8.5 45.5t25.5 38.5l182 179q34 34 77 36t79 -23l195 -192q34 -37 34 -85q0 -49 -34 -86q-38 -38 -86 -36q-24 0 -46.5 9t-39.5 27 l-95 93l-93 -93q-36 -36 -86 -36q-24 0 -46 8.5t-41 27.5q-18 18 -26 40.5t-8 46.5z" />
<glyph unicode="&#x11d;" horiz-adv-x="1225" d="M67 496q0 105 34 198.5t97 164.5q61 71 147.5 111.5t194.5 40.5q77 0 155 -24t146 -74q7 18 21.5 36.5t33.5 31.5t41 21.5t44 8.5q30 0 52 -10.5t37 -28.5q14 -18 21.5 -43.5t7.5 -54.5v-778q0 -145 -43.5 -245t-112.5 -161q-69 -62 -152.5 -90t-164.5 -28 q-170 0 -247.5 53.5t-77.5 161.5q0 33 12.5 60.5t33.5 48.5q22 20 50.5 31t60.5 11q18 0 35 -3.5t35 -6.5q18 -4 41 -7t55 -3q20 0 39.5 12.5t34.5 31.5q14 19 21.5 43t4.5 46q-8 -13 -25.5 -26t-42.5 -23t-55 -16t-61 -6q-108 0 -194.5 40t-147.5 111q-62 71 -96.5 164 t-34.5 201zM283 1224q0 24 8.5 45.5t25.5 38.5l182 179q34 34 77.5 36t78.5 -23l195 -192q34 -37 34 -85q0 -49 -34 -86q-38 -38 -86 -36q-24 0 -46.5 9t-39.5 27l-95 93l-93 -93q-36 -36 -86 -36q-24 0 -46 8.5t-41 27.5q-18 18 -26 40.5t-8 46.5zM468 496q0 -25 8 -47.5 t24 -39.5q15 -17 35.5 -27.5t45.5 -10.5t46 10t37 28q15 17 24 39.5t9 47.5t-9 46.5t-24 39.5q-15 17 -37 26.5t-46 9.5q-25 0 -45.5 -9.5t-35.5 -26.5q-32 -35 -32 -86z" />
<glyph unicode="&#x11e;" horiz-adv-x="1398" d="M63 651q0 139 52.5 260t144.5 214q92 92 213.5 144.5t261.5 52.5q78 0 144.5 -14t125.5 -40q58 -28 108 -68t99 -95q27 -32 42.5 -65t15.5 -76q0 -55 -27.5 -100t-73.5 -70q-43 -24 -91 -27.5t-94 19.5q-38 18 -60 43q-25 24 -49.5 45.5t-56.5 36.5q-34 14 -83 15 q-56 0 -105 -22t-86 -61t-58 -90t-21 -106q0 -65 22 -116.5t61 -88.5t90 -57t110 -20h23q-32 24 -50 57t-18 64q0 27 13 55t37 52t56.5 37.5t73.5 13.5h277q33 0 61 -8.5t49 -30.5q20 -22 31.5 -56.5t11.5 -86.5v-327q0 -66 -43 -108q-43 -43 -115 -43q-61 0 -97 32t-47 87 q-25 -26 -54 -47.5t-63 -39.5q-34 -17 -73.5 -26.5t-85.5 -9.5q-140 0 -261.5 52t-213.5 144t-144.5 213.5t-52.5 261.5zM465 1648q0 25 9.5 45.5t27.5 37.5q17 15 38.5 24t46.5 9q31 0 46.5 -9.5t23.5 -23.5q4 -7 6.5 -15.5t4.5 -16.5q3 -17 7.5 -31.5t14.5 -23.5 q10 -10 33 -11q22 0 32 10t15 24q5 16 8 32q2 17 10 31.5t24 24.5q17 9 47 9q26 0 48 -9t38 -24q16 -16 26 -38t10 -45q0 -46 -21 -87.5t-57 -73.5t-82 -51t-98 -19t-97.5 19t-81.5 51t-57.5 73.5t-21.5 87.5z" />
<glyph unicode="&#x11f;" horiz-adv-x="1225" d="M67 496q0 105 34 198.5t97 164.5q61 71 147.5 111.5t194.5 40.5q77 0 155 -24t146 -74q7 18 21.5 36.5t33.5 31.5t41 21.5t44 8.5q30 0 52 -10.5t37 -28.5q14 -18 21.5 -43.5t7.5 -54.5v-778q0 -145 -43.5 -245t-112.5 -161q-69 -62 -152.5 -90t-164.5 -28 q-170 0 -247.5 53.5t-77.5 161.5q0 33 12.5 60.5t33.5 48.5q22 20 50.5 31t60.5 11q18 0 35 -3.5t35 -6.5q18 -4 41 -7t55 -3q20 0 39.5 12.5t34.5 31.5q14 19 21.5 43t4.5 46q-8 -13 -25.5 -26t-42.5 -23t-55 -16t-61 -6q-108 0 -194.5 40t-147.5 111q-62 71 -96.5 164 t-34.5 201zM330 1322q0 25 9.5 46t27.5 37q17 15 38.5 24.5t46.5 9.5q31 0 46.5 -10t23.5 -24q4 -7 6 -15.5t4 -16.5q3 -17 8 -31.5t15 -23.5q10 -10 33 -10q22 0 32 9.5t15 23.5q5 16 8 32q2 17 9.5 31.5t24.5 25.5q17 9 47 9q26 0 48 -9.5t38 -24.5q16 -16 26 -37.5 t10 -45.5q0 -46 -21 -87.5t-57 -73.5t-82 -50.5t-98 -18.5t-98 18.5t-81 50.5q-36 32 -57.5 73.5t-21.5 87.5zM468 496q0 -25 8 -47.5t24 -39.5q15 -17 35.5 -27.5t45.5 -10.5t46 10t37 28q15 17 24 39.5t9 47.5t-9 46.5t-24 39.5q-15 17 -37 26.5t-46 9.5q-25 0 -45.5 -9.5 t-35.5 -26.5q-32 -35 -32 -86z" />
<glyph unicode="&#x120;" horiz-adv-x="1398" d="M63 651q0 139 52.5 260t144.5 214q92 92 213.5 144.5t261.5 52.5q78 0 144.5 -14t125.5 -40q58 -28 108 -68t99 -95q27 -32 42.5 -65t15.5 -76q0 -55 -27.5 -100t-73.5 -70q-43 -24 -91 -27.5t-94 19.5q-38 18 -60 43q-25 24 -49.5 45.5t-56.5 36.5q-34 14 -83 15 q-56 0 -105 -22t-86 -61t-58 -90t-21 -106q0 -65 22 -116.5t61 -88.5t90 -57t110 -20h23q-32 24 -50 57t-18 64q0 27 13 55t37 52t56.5 37.5t73.5 13.5h277q33 0 61 -8.5t49 -30.5q20 -22 31.5 -56.5t11.5 -86.5v-327q0 -66 -43 -108q-43 -43 -115 -43q-61 0 -97 32t-47 87 q-25 -26 -54 -47.5t-63 -39.5q-34 -17 -73.5 -26.5t-85.5 -9.5q-140 0 -261.5 52t-213.5 144t-144.5 213.5t-52.5 261.5zM489 1627q0 43 15.5 78.5t42.5 61.5q27 27 63 42t79 15q41 0 78 -15t63 -42q27 -27 43 -62t16 -78t-16 -78t-43 -61q-27 -27 -63.5 -41.5t-77.5 -14.5 q-43 0 -79.5 14.5t-62.5 41.5q-27 27 -42.5 61.5t-15.5 77.5z" />
<glyph unicode="&#x121;" horiz-adv-x="1225" d="M67 496q0 105 34 198.5t97 164.5q61 71 147.5 111.5t194.5 40.5q77 0 155 -24t146 -74q7 18 21.5 36.5t33.5 31.5t41 21.5t44 8.5q30 0 52 -10.5t37 -28.5q14 -18 21.5 -43.5t7.5 -54.5v-778q0 -145 -43.5 -245t-112.5 -161q-69 -62 -152.5 -90t-164.5 -28 q-170 0 -247.5 53.5t-77.5 161.5q0 33 12.5 60.5t33.5 48.5q22 20 50.5 31t60.5 11q18 0 35 -3.5t35 -6.5q18 -4 41 -7t55 -3q20 0 39.5 12.5t34.5 31.5q14 19 21.5 43t4.5 46q-8 -13 -25.5 -26t-42.5 -23t-55 -16t-61 -6q-108 0 -194.5 40t-147.5 111q-62 71 -96.5 164 t-34.5 201zM397 1295q0 43 15.5 78.5t42.5 62.5t63 41.5t79 14.5q41 0 78 -15t63 -41q27 -27 43 -62.5t16 -78.5t-16 -77.5t-43 -61.5t-63.5 -41.5t-77.5 -14.5q-43 0 -79.5 14.5t-62.5 41.5q-27 27 -42.5 61.5t-15.5 77.5zM468 496q0 -25 8 -47.5t24 -39.5 q15 -17 35.5 -27.5t45.5 -10.5t46 10t37 28q15 17 24 39.5t9 47.5t-9 46.5t-24 39.5q-15 17 -37 26.5t-46 9.5q-25 0 -45.5 -9.5t-35.5 -26.5q-32 -35 -32 -86z" />
<glyph unicode="&#x122;" horiz-adv-x="1398" d="M63 651q0 139 52.5 260t144.5 214q92 92 213.5 144.5t261.5 52.5q78 0 144.5 -14t125.5 -40q58 -28 108 -68t99 -95q27 -32 42.5 -65t15.5 -76q0 -55 -27.5 -100t-73.5 -70q-43 -24 -91 -27.5t-94 19.5q-38 18 -60 43q-25 24 -49.5 45.5t-56.5 36.5q-34 14 -83 15 q-56 0 -105 -22t-86 -61t-58 -90t-21 -106q0 -65 22 -116.5t61 -88.5t90 -57t110 -20h23q-32 24 -50 57t-18 64q0 27 13 55t37 52t56.5 37.5t73.5 13.5h277q33 0 61 -8.5t49 -30.5q20 -22 31.5 -56.5t11.5 -86.5v-327q0 -66 -43 -108q-43 -43 -115 -43q-61 0 -97 32t-47 87 q-25 -26 -54 -47.5t-63 -39.5q-34 -17 -73.5 -26.5t-85.5 -9.5q-140 0 -261.5 52t-213.5 144t-144.5 213.5t-52.5 261.5zM508 -318q0 41 15.5 76.5t42.5 62.5t63.5 41t79.5 14q36 0 71.5 -13.5t64.5 -37.5q29 -26 46.5 -61.5t17.5 -81.5q0 -65 -25.5 -124.5t-68.5 -107.5 t-94.5 -77.5t-104.5 -32.5q-43 0 -64.5 35.5t-31.5 90.5q-10 52 -11 110.5t-1 105.5z" />
<glyph unicode="&#x123;" horiz-adv-x="1225" d="M67 496q0 105 34 198.5t97 164.5q61 71 147.5 111.5t194.5 40.5q77 0 155 -24t146 -74q7 18 21.5 36.5t33.5 31.5t41 21.5t44 8.5q30 0 52 -10.5t37 -28.5q14 -18 21.5 -43.5t7.5 -54.5v-778q0 -145 -43.5 -245t-112.5 -161q-69 -62 -152.5 -90t-164.5 -28 q-170 0 -247.5 53.5t-77.5 161.5q0 33 12.5 60.5t33.5 48.5q22 20 50.5 31t60.5 11q18 0 35 -3.5t35 -6.5q18 -4 41 -7t55 -3q20 0 39.5 12.5t34.5 31.5q14 19 21.5 43t4.5 46q-8 -13 -25.5 -26t-42.5 -23t-55 -16t-61 -6q-108 0 -194.5 40t-147.5 111q-62 71 -96.5 164 t-34.5 201zM338 1321q0 65 25.5 124.5t68.5 107.5t95 77.5t104 32.5q43 0 64.5 -36t31.5 -91q10 -52 11 -110.5t1 -104.5q0 -41 -15 -76.5t-42 -61.5q-28 -27 -64 -42t-79 -15q-36 0 -72 13.5t-65 39.5q-29 25 -46.5 60.5t-17.5 81.5zM468 496q0 -25 8 -47.5t24 -39.5 q15 -17 35.5 -27.5t45.5 -10.5t46 10t37 28q15 17 24 39.5t9 47.5t-9 46.5t-24 39.5q-15 17 -37 26.5t-46 9.5q-25 0 -45.5 -9.5t-35.5 -26.5q-32 -35 -32 -86z" />
<glyph unicode="&#x124;" horiz-adv-x="1441" d="M127 1239q0 18 5.5 33.5t20.5 26.5q14 11 38 17t63 6q56 0 108.5 -7.5t93.5 -29.5q40 -22 64.5 -60.5t24.5 -103.5v-294h383v280q-1 33 -9 68q-8 36 -9 64q0 18 5.5 33.5t19.5 26.5t38 17t63 6q55 0 107 -7t94 -29t66.5 -61t24.5 -104v-941q0 -43 -15.5 -78.5 t-41.5 -62.5q-28 -28 -64.5 -43.5t-79.5 -15.5t-79 15.5t-63 43.5q-27 27 -42 62.5t-15 78.5v247h-383v-247q0 -43 -15.5 -78.5t-42.5 -62.5q-27 -28 -63 -43.5t-79 -15.5t-79.5 15.5t-62.5 43.5q-27 27 -42.5 62.5t-15.5 78.5v927q-1 16 -3.5 33t-6.5 35q-8 36 -8 64z M344 1538q0 24 9 45.5t26 38.5l181 179q34 34 77.5 36t79.5 -22l194 -193q34 -37 34 -85q0 -49 -34 -86q-38 -38 -86 -36q-24 0 -46 9.5t-40 26.5l-95 93l-92 -93q-36 -36 -86 -36q-24 0 -46.5 9t-40.5 27t-26.5 40.5t-8.5 46.5z" />
<glyph unicode="&#x125;" horiz-adv-x="1245" d="M2 1500q0 24 9 45.5t26 38.5l181 179q34 34 77.5 36t79.5 -22l194 -193q34 -37 34 -85q0 -49 -34 -86q-38 -38 -86 -36q-24 0 -46 9.5t-40 26.5l-95 93l-92 -93q-36 -36 -86 -36q-24 0 -46.5 9t-40.5 27t-26.5 41t-8.5 46zM106 180v957q0 41 15.5 77.5t43.5 63.5 q27 27 63 42.5t79 15.5q41 0 78 -15.5t65 -42.5q27 -27 42.5 -63.5t15.5 -77.5v-199q13 17 34.5 31.5t46.5 25.5t51 16.5t49 5.5q108 0 191.5 -40.5t141.5 -111.5t88.5 -164.5t30.5 -198.5v-322q0 -40 -16 -76t-43 -64q-28 -28 -63.5 -44t-78.5 -16q-49 0 -86.5 18.5 t-61.5 50.5q-26 32 -39 73t-13 87v293q0 51 -31 86q-15 17 -36.5 27t-45.5 10q-25 0 -46.5 -11t-37.5 -29t-25.5 -41.5t-9.5 -47.5v-316q0 -43 -16 -79t-42 -63q-28 -28 -65 -43t-78 -15q-43 0 -79.5 15t-62.5 43q-28 27 -43.5 63t-15.5 79z" />
<glyph unicode="&#x126;" horiz-adv-x="1440" d="M11 1010q0 56 38 92q37 37 92 37h1q-2 8 -3.5 17t-3.5 19q-8 36 -8 64q0 18 5.5 33.5t20.5 26.5q14 11 38 17t63 6q56 0 108.5 -7.5t93.5 -29.5q37 -20 61 -55t27 -91h381q-2 17 -6 36q-8 36 -9 64q0 18 5.5 33.5t19.5 26.5t38 17t63 6q55 0 107 -7t94 -29q39 -20 63 -55 t28 -92q50 -2 85 -37q17 -17 27.5 -40.5t10.5 -51.5q0 -27 -10 -50.5t-28 -40.5q-35 -35 -85 -38v-701q0 -43 -15.5 -78.5t-41.5 -62.5q-28 -28 -64.5 -43.5t-79.5 -15.5t-79 15.5t-63 43.5q-27 27 -42 62.5t-15 78.5v247h-383v-247q0 -43 -15.5 -78.5t-42.5 -62.5 q-27 -28 -63 -43.5t-79 -15.5t-79.5 15.5t-62.5 43.5q-27 27 -42.5 62.5t-15.5 78.5v701h-4q-28 0 -51 10t-41 28q-38 36 -38 91zM545 827h383v54h-383v-54z" />
<glyph unicode="&#x127;" horiz-adv-x="1244" d="M-87 1203q0 54 37 93q37 37 91 37h230q17 3 36 3q18 0 35 -3h219q55 0 92 -37q17 -18 27.5 -41.5t10.5 -51.5q0 -27 -10 -50.5t-28 -40.5q-17 -17 -40.5 -27.5t-51.5 -10.5h-53v-136q13 17 34.5 31.5t46.5 25.5t51 16.5t49 5.5q108 0 191.5 -40.5t141.5 -111.5 t88.5 -164.5t30.5 -198.5v-322q0 -40 -16 -76t-43 -64q-28 -28 -63.5 -44t-78.5 -16q-49 0 -86.5 18.5t-61.5 50.5q-26 32 -39 73t-13 87v293q0 51 -31 86q-15 17 -36.5 27t-45.5 10q-25 0 -46.5 -11t-37.5 -29t-25.5 -41.5t-9.5 -47.5v-316q0 -43 -16 -79t-42 -63 q-28 -28 -65 -43t-78 -15q-43 0 -79.5 15t-62.5 43q-28 27 -43.5 63t-15.5 79v894h-65q-27 0 -50.5 10.5t-40.5 27.5q-37 37 -37 91z" />
<glyph unicode="&#x128;" horiz-adv-x="673" d="M1 1625q0 85 55 141q27 29 67.5 46t86.5 17q43 0 71.5 -15t51.5 -32q23 -18 43.5 -33.5t48.5 -15.5q22 0 30 14t16 33q8 17 23 31.5t51 14.5q15 0 32.5 -5t31.5 -18t23 -34t9 -53q0 -34 -15.5 -68t-43.5 -62q-29 -28 -68.5 -44.5t-88.5 -16.5q-43 0 -69 15t-47 34 q-20 17 -41 32.5t-53 15.5q-20 0 -28.5 -11.5t-14.5 -26.5t-15.5 -30t-31.5 -21q-11 -4 -30 -4q-47 0 -70.5 28.5t-23.5 67.5zM127 1239q0 18 5.5 33.5t20.5 26.5q14 11 38 17t63 6q58 0 109.5 -7.5t90.5 -29.5q39 -23 63 -62t28 -104v-939q0 -43 -15.5 -78.5t-42.5 -62.5 q-27 -28 -63 -43.5t-79 -15.5t-79.5 15.5t-62.5 43.5q-27 27 -42.5 62.5t-15.5 78.5v927q-1 16 -3.5 33t-6.5 35q-8 36 -8 64z" />
<glyph unicode="&#x129;" horiz-adv-x="613" d="M-7 1267q0 85 55 141q27 29 67.5 45.5t86.5 16.5q43 0 71.5 -14.5t51.5 -32.5t43.5 -33.5t48.5 -15.5q22 0 30 14.5t16 32.5q8 17 23 31.5t51 14.5q15 0 32.5 -5t31.5 -17q14 -13 23 -34t9 -53q0 -34 -15.5 -68.5t-44.5 -61.5q-29 -28 -68 -45t-88 -17q-43 0 -69 15.5 t-47 33.5q-20 17 -41 33t-53 16q-20 0 -28.5 -11.5t-14.5 -26.5t-15.5 -30t-31.5 -21q-11 -4 -30 -5q-47 0 -70.5 29t-23.5 68zM106 181v633q0 41 15.5 78t42.5 63q27 27 63 43t79 16q41 0 78 -16t65 -43q27 -27 42.5 -63.5t15.5 -77.5v-633q0 -43 -16 -79t-42 -63 q-28 -28 -65 -43t-78 -15q-43 0 -79.5 15t-62.5 43q-27 27 -42.5 63t-15.5 79z" />
<glyph unicode="&#x12a;" horiz-adv-x="673" d="M-62 1576q0 54 36 93q38 37 92 37h520q55 0 92 -37q17 -18 27.5 -41.5t10.5 -51.5q0 -27 -10.5 -50.5t-27.5 -40.5t-41 -27.5t-51 -10.5h-520q-27 0 -50.5 10t-41.5 28q-37 37 -36 91zM127 1239q0 18 5.5 33.5t20.5 26.5q14 11 38 17t63 6q58 0 109.5 -7.5t90.5 -29.5 q39 -23 63 -62t28 -104v-939q0 -43 -15.5 -78.5t-42.5 -62.5q-27 -28 -63 -43.5t-79 -15.5t-79.5 15.5t-62.5 43.5q-27 27 -42.5 62.5t-15.5 78.5v927q-1 16 -3.5 33t-6.5 35q-8 36 -8 64z" />
<glyph unicode="&#x12b;" horiz-adv-x="613" d="M-79 1189q0 54 37 93q37 37 91 37h520q55 0 93 -37q17 -18 27 -41.5t10 -51.5q0 -27 -10 -50.5t-27 -40.5t-41 -27.5t-52 -10.5h-520q-27 0 -50.5 10t-40.5 28q-37 37 -37 91zM106 181v633q0 41 15.5 78t42.5 63q27 27 63 43t79 16q41 0 78 -16t65 -43q27 -27 42.5 -63.5 t15.5 -77.5v-633q0 -43 -16 -79t-42 -63q-28 -28 -65 -43t-78 -15q-43 0 -79.5 15t-62.5 43q-27 27 -42.5 63t-15.5 79z" />
<glyph unicode="&#x12c;" horiz-adv-x="673" d="M78 1721q0 25 9.5 46t27.5 37q17 15 38.5 24.5t46.5 9.5q31 0 46.5 -9.5t23.5 -24.5q4 -7 6.5 -15t4.5 -16q3 -17 7.5 -32t14.5 -24q10 -10 33 -10q22 0 32 9.5t15 24.5q5 16 8 32q2 17 10 31.5t24 24.5q17 9 47 9q26 0 48 -9t38 -25t26 -37.5t10 -45.5q0 -46 -21 -87.5 t-57 -72.5q-36 -32 -82 -51t-98 -19t-97.5 19t-81.5 51t-57.5 73t-21.5 87zM127 1239q0 18 5.5 33.5t20.5 26.5q14 11 38 17t63 6q58 0 109.5 -7.5t90.5 -29.5q39 -23 63 -62t28 -104v-939q0 -43 -15.5 -78.5t-42.5 -62.5q-27 -28 -63 -43.5t-79 -15.5t-79.5 15.5 t-62.5 43.5q-27 27 -42.5 62.5t-15.5 78.5v927q-1 16 -3.5 33t-6.5 35q-8 36 -8 64z" />
<glyph unicode="&#x12d;" horiz-adv-x="613" d="M37 1382q0 25 9.5 46t27.5 37q17 15 38.5 24.5t46.5 9.5q31 0 46.5 -9.5t23.5 -24.5q4 -7 6.5 -15t4.5 -16q3 -17 7.5 -31.5t14.5 -24.5t33 -10q22 0 32 10t15 24q5 16 8 32q2 17 10 31.5t24 24.5q17 9 47 9q26 0 48 -9t38 -25t26 -37.5t10 -45.5q0 -46 -21 -87.5 t-57 -72.5q-36 -32 -82 -51t-98 -19t-97.5 19t-81.5 51t-57.5 73t-21.5 87zM106 180v633q0 41 15.5 78t42.5 63q27 27 63 43t79 16q41 0 78 -16t65 -43q27 -27 42.5 -63.5t15.5 -77.5v-633q0 -43 -16 -79t-42 -63q-28 -28 -65 -43t-78 -15q-43 0 -79.5 15t-62.5 43 q-27 27 -42.5 63t-15.5 79z" />
<glyph unicode="&#x12e;" horiz-adv-x="673" d="M66 -181q0 46 17 85t53 81q12 14 27 29.5t33 31.5q-24 27 -37.5 61t-13.5 73v927q-1 16 -3.5 33t-6.5 35q-8 36 -8 64q0 18 5.5 33.5t20.5 26.5q14 11 38 17t63 6q58 0 109.5 -7.5t90.5 -29.5q39 -23 63 -62t28 -104v-939q0 -43 -15.5 -78.5t-42.5 -62.5q-8 -9 -21 -20 l-71 -63q-52 -47 -78 -75q-26 -30 -25 -55q0 -24 11.5 -39.5t39.5 -15.5q19 0 29.5 9.5t16.5 23.5q3 7 6 15.5t6 16.5q5 17 16 31t29 24q18 9 52 10q15 0 31.5 -6t29.5 -17t22 -26t9 -33q0 -55 -20 -102t-56 -82t-82.5 -54t-101.5 -19t-103.5 19.5t-84.5 53.5 q-36 35 -56 81.5t-20 102.5z" />
<glyph unicode="&#x12f;" horiz-adv-x="613" d="M39 -170q0 46 17.5 85t53.5 81q10 12 21.5 24.5t25.5 25.5q-24 27 -37.5 61t-13.5 73v633q0 41 15.5 78t42.5 63q27 27 63 43t79 16q41 0 78 -16t65 -43q27 -27 42.5 -63.5t15.5 -77.5v-633q0 -43 -16 -79t-42 -63q-6 -6 -12.5 -11t-12.5 -11l-55 -49q-52 -47 -78 -75 q-26 -30 -26 -55q0 -24 12 -39.5t39 -15.5q19 0 29.5 9.5t16.5 24.5q3 7 6.5 15t6.5 16q5 17 15.5 31t29.5 25q18 9 51 9q15 0 31.5 -6t29.5 -17t22 -26t9 -33q0 -55 -20 -101.5t-56 -81.5t-82.5 -54.5t-101.5 -19.5t-103 19.5t-84 54.5t-56.5 81.5t-20.5 101.5zM101 1294 q0 41 15.5 77t43.5 63q27 27 63 41.5t79 14.5q41 0 78 -15t64 -41q27 -27 43 -63t16 -77q0 -43 -16 -78t-43 -62q-28 -27 -64.5 -41.5t-77.5 -14.5q-43 0 -79 14.5t-63 41.5q-28 27 -43.5 62t-15.5 78z" />
<glyph unicode="&#x130;" horiz-adv-x="673" d="M118 1661q0 43 15 78.5t42 61.5q27 27 63 42t79 15q41 0 78 -15t64 -42t42.5 -62t15.5 -78t-16 -78t-42 -61q-27 -27 -64 -42t-78 -15q-43 0 -79 15t-63 42t-42 61.5t-15 77.5zM127 1239q0 18 5.5 33.5t20.5 26.5q14 11 38 17t63 6q58 0 109.5 -7.5t90.5 -29.5 q39 -23 63 -62t28 -104v-939q0 -43 -15.5 -78.5t-42.5 -62.5q-27 -28 -63 -43.5t-79 -15.5t-79.5 15.5t-62.5 43.5q-27 27 -42.5 62.5t-15.5 78.5v927q-1 16 -3.5 33t-6.5 35q-8 36 -8 64z" />
<glyph unicode="&#x131;" horiz-adv-x="613" d="M106 180v633q0 41 15.5 78t42.5 63q27 27 63 43t79 16q41 0 78 -16t65 -43q27 -27 42.5 -63.5t15.5 -77.5v-633q0 -43 -16 -79t-42 -63q-28 -28 -65 -43t-78 -15q-43 0 -79.5 15t-62.5 43q-27 27 -42.5 63t-15.5 79z" />
<glyph unicode="&#x132;" horiz-adv-x="1315" d="M127 1239q0 18 5.5 33.5t20.5 26.5q14 11 38 17t63 6q58 0 109.5 -7.5t90.5 -29.5q39 -23 63 -62t28 -104v-939q0 -43 -15.5 -78.5t-42.5 -62.5q-27 -28 -63 -43.5t-79 -15.5t-79.5 15.5t-62.5 43.5q-27 27 -42.5 62.5t-15.5 78.5v927q-1 16 -3.5 33t-6.5 35q-8 36 -8 64 zM538 -145q0 41 15 77t43 64q27 27 63 42t79 15q34 0 50 32.5t16 84.5v953q0 29 -8 59q-8 28 -9 57q0 18 6 33.5t20 26.5t38.5 17t61.5 6q55 0 107 -7t94 -29t66.5 -61t24.5 -104v-951q0 -121 -34.5 -215.5t-96.5 -162.5t-147.5 -103t-188.5 -35q-43 0 -79 15.5t-63 42.5 q-28 27 -43 63.5t-15 79.5z" />
<glyph unicode="&#x133;" horiz-adv-x="1244" d="M101 1294q0 41 15.5 77t43.5 63q27 27 63 41.5t79 14.5q41 0 78 -15t64 -41q27 -27 43 -63t16 -77q0 -43 -16 -78t-43 -62q-28 -27 -64.5 -41.5t-77.5 -14.5q-43 0 -79.5 14.5t-62.5 41.5q-28 27 -43.5 62t-15.5 78zM106 180v633q0 41 15.5 78t42.5 63q27 27 63 43t79 16 q41 0 78 -16t65 -43q27 -27 42.5 -63.5t15.5 -77.5v-633q0 -43 -16 -79t-42 -63q-28 -28 -65 -43t-78 -15q-43 0 -79.5 15t-62.5 43q-27 27 -42.5 63t-15.5 79zM426 -200q0 55 26 101t72 71q27 14 58 20q30 3 54 11.5t41 32.5q15 24 15 80v695q0 41 16 77.5t44 63.5 q27 27 62.5 43t78.5 16q41 0 78 -16t64 -43q27 -28 43 -64t16 -77v-695q0 -118 -34.5 -212.5t-95.5 -162.5t-147 -104.5t-190 -36.5q-43 0 -79 15t-63 42q-28 27 -43.5 63.5t-15.5 79.5zM692 1292q0 41 15.5 77t43.5 63q27 27 63 41.5t79 14.5q41 0 78 -15t64 -41 q27 -27 43 -63t16 -77q0 -43 -16 -78t-43 -62q-28 -27 -64.5 -41.5t-77.5 -14.5q-43 0 -79.5 14.5t-62.5 41.5q-28 27 -43.5 62t-15.5 78z" />
<glyph unicode="&#x134;" horiz-adv-x="657" d="M-121 -145q0 41 15.5 77t43.5 64q27 27 63 42t79 15q34 0 49.5 32.5t15.5 84.5v953q0 29 -8 59q-8 28 -8 57q0 18 5.5 33.5t20.5 26.5q14 11 38 17t62 6q55 0 107 -7t94 -29t66.5 -61t24.5 -104v-951q0 -121 -35 -215.5t-96 -162.5q-62 -68 -148 -103t-188 -35 q-43 0 -79.5 15.5t-62.5 42.5q-28 27 -43.5 63.5t-15.5 79.5zM18 1514q0 24 9 45.5t26 38.5l181 180q34 34 77.5 36t79.5 -23l195 -193q34 -37 34 -85q0 -49 -34 -86q-38 -38 -86 -35q-24 0 -46.5 9t-39.5 26l-96 94l-92 -94q-36 -36 -86 -35q-24 0 -46 8.5t-41 26.5 q-18 18 -26.5 41t-8.5 46z" />
<glyph unicode="&#x135;" horiz-adv-x="614" d="M-160 -200q0 55 26 101t73 71q27 14 57 20q30 3 54.5 11.5t40.5 32.5q15 24 15 80v695q0 41 16 77.5t44 63.5q27 27 62.5 43t78.5 16q41 0 78 -16t65 -43q27 -28 42.5 -64t15.5 -77v-695q0 -118 -34.5 -212.5t-95.5 -162.5t-147 -104.5t-190 -36.5q-43 0 -79 15t-62 42 q-28 27 -44 63.5t-16 79.5zM23 1254q0 24 8.5 45.5t25.5 38.5l182 180q34 34 77 35.5t79 -22.5l195 -193q34 -37 34 -85q0 -49 -34 -86q-38 -38 -86 -35q-24 0 -46.5 9t-39.5 26l-95 94l-93 -94q-36 -36 -86 -35q-24 0 -46 8.5t-41 26.5q-18 18 -26 41t-8 46z" />
<glyph unicode="&#x136;" horiz-adv-x="1289" d="M127 1253q0 18 5.5 34t20.5 27q14 11 38 16.5t63 5.5q52 0 103.5 -5.5t93.5 -25.5t68 -60.5t26 -107.5l1 -198l359 334q39 36 92.5 45.5t105.5 -9.5q15 -5 31.5 -14t31.5 -20q15 -12 27.5 -26.5t19.5 -30.5q13 -33 18.5 -67.5t0.5 -67.5t-21 -62t-44 -50l-271 -212 l312 -474q32 -47 32 -99q0 -51 -25.5 -98t-70.5 -78q-44 -31 -109 -30q-50 0 -94 24.5t-74 73.5l-270 452l-54 -45l2 -305q0 -43 -15.5 -78.5t-42.5 -62.5q-27 -28 -63 -43.5t-79 -15.5t-79.5 15.5t-62.5 43.5q-27 27 -42.5 62.5t-15.5 78.5v941q-1 17 -3.5 34t-6.5 35 q-8 36 -8 63zM457 -331q0 41 15 77t43 63q27 27 63 41t79 14q36 0 72 -13.5t65 -37.5q29 -26 46.5 -62t17.5 -82q0 -65 -25.5 -124t-68.5 -107t-95 -78t-104 -33q-43 0 -64.5 36t-31.5 91q-10 52 -11 110.5t-1 104.5z" />
<glyph unicode="&#x137;" horiz-adv-x="1176" d="M106 180v957q0 41 15.5 77.5t43.5 63.5q27 27 63 42.5t79 15.5q41 0 78 -15.5t65 -42.5q27 -27 42.5 -63.5t15.5 -77.5v-381l292 213q46 32 99 39q24 3 46.5 -1.5t45.5 -13.5q35 -14 63.5 -40t45.5 -62q17 -37 17 -78q0 -47 -22 -88t-59 -68l-126 -92l177 -262 q28 -31 39 -66t9 -71q-3 -36 -18 -69.5t-41 -58.5q-26 -26 -60 -41t-74 -15q-43 0 -84 20.5t-72 58.5l-184 281l-46 -34q-8 -6 -14.5 -10.5t-12.5 -7.5q-5 -3 -8.5 -5t-5.5 -3q-2 -2 -3.5 -3t-3.5 -3v-96q0 -43 -16 -79t-42 -63q-28 -28 -65 -43t-78 -15q-43 0 -79.5 15 t-62.5 43q-28 27 -43.5 63t-15.5 79zM482 -254q0 41 15.5 77t43.5 62q27 27 63 41.5t79 14.5q36 0 72 -13.5t64 -38.5q29 -26 47 -61.5t18 -81.5q0 -65 -25.5 -124t-68.5 -107t-95 -78t-104 -33q-43 0 -64.5 36t-31.5 91q-10 52 -11.5 110.5t-1.5 104.5z" />
<glyph unicode="&#x138;" horiz-adv-x="1176" d="M106 180v625q0 41 15.5 78t43.5 63q27 27 63 43t79 16q41 0 78 -16t65 -43q27 -27 42.5 -63.5t15.5 -77.5v-49l292 213q46 32 99 39q24 3 46.5 -1.5t45.5 -13.5q35 -14 63.5 -40t45.5 -62q17 -37 17 -78q0 -47 -22 -88t-59 -68l-126 -92l177 -262q24 -31 36 -62.5 t12 -68.5q0 -39 -15 -72.5t-42 -60.5t-62 -42t-74 -15q-43 0 -84 20.5t-72 58.5l-184 281l-46 -34q-8 -6 -14.5 -10.5t-12.5 -7.5q-5 -3 -8.5 -5t-5.5 -3q-2 -2 -3.5 -3t-3.5 -3v-96q0 -43 -16 -79t-42 -63q-28 -28 -65 -43t-78 -15q-43 0 -79.5 15t-62.5 43 q-28 27 -43.5 63t-15.5 79z" />
<glyph unicode="&#x139;" horiz-adv-x="1138" d="M127 1260q0 18 5.5 33.5t20.5 26.5q14 11 38 16.5t63 5.5q56 0 108.5 -7.5t93.5 -28.5q40 -22 64.5 -61t24.5 -103v-741h344q41 0 77 -15.5t64 -42.5q27 -28 43 -64.5t16 -77.5q0 -43 -14 -79t-39 -63q-25 -28 -58.5 -43.5t-74.5 -15.5h-567q-84 5 -136 60 q-26 27 -40.5 62.5t-14.5 78.5v926q-1 16 -3.5 33.5t-6.5 34.5q-8 36 -8 65zM152 1556q0 29 24.5 67t62.5 73q38 34 82.5 57.5t84.5 23.5q33 0 62.5 -15.5t50.5 -42.5q20 -27 29 -59.5t0 -66.5q-8 -28 -36.5 -57t-67.5 -52q-39 -25 -82 -41t-79 -16q-39 0 -74.5 22t-49.5 60 q-5 11 -6 23t-1 24z" />
<glyph unicode="&#x13a;" horiz-adv-x="614" d="M106 180v957q0 41 15.5 77.5t43.5 63.5q27 27 63 42.5t79 15.5q41 0 78 -15.5t65 -42.5q27 -27 42.5 -63.5t15.5 -77.5v-957q0 -43 -16 -79t-42 -63q-28 -28 -65 -43t-78 -15q-43 0 -79.5 15t-62.5 43q-28 27 -43.5 63t-15.5 79zM254 1551q0 29 24.5 67t62.5 73 q38 34 82.5 57.5t84.5 23.5q33 0 62.5 -15.5t51.5 -42.5q20 -27 28.5 -59.5t-0.5 -66.5q-8 -28 -36 -57t-67 -52q-39 -25 -82 -41t-80 -16q-39 0 -74.5 22t-49.5 60q-5 11 -6 23t-1 24z" />
<glyph unicode="&#x13b;" horiz-adv-x="1138" d="M127 1260q0 18 5.5 33.5t20.5 26.5q14 11 38 16.5t63 5.5q56 0 108.5 -7.5t93.5 -28.5q40 -22 64.5 -61t24.5 -103v-741h344q41 0 77 -15.5t64 -42.5q27 -28 43 -64.5t16 -77.5q0 -43 -14 -79t-39 -63q-25 -28 -58.5 -43.5t-74.5 -15.5h-567q-84 5 -136 60 q-26 27 -40.5 62.5t-14.5 78.5v926q-1 16 -3.5 33.5t-6.5 34.5q-8 36 -8 65zM426 -303q0 41 15.5 77t42.5 62q27 27 63.5 41t79.5 14q36 0 71.5 -13t64.5 -38q29 -26 46.5 -61.5t17.5 -81.5q0 -65 -25.5 -124t-68.5 -108q-43 -48 -94.5 -77.5t-103.5 -32.5q-43 0 -64.5 36 t-32.5 91q-10 52 -11 110.5t-1 104.5z" />
<glyph unicode="&#x13c;" horiz-adv-x="614" d="M106 180v957q0 41 15.5 77.5t43.5 63.5q27 27 63 42.5t79 15.5q41 0 78 -15.5t65 -42.5q27 -27 42.5 -63.5t15.5 -77.5v-957q0 -43 -16 -79t-42 -63q-28 -28 -65 -43t-78 -15q-43 0 -79.5 15t-62.5 43q-28 27 -43.5 63t-15.5 79zM116 -352q0 41 15 76.5t43 62.5 q27 27 63 41t79 14q36 0 72 -13t65 -38q29 -26 46.5 -61.5t17.5 -81.5q0 -65 -25.5 -124.5t-68.5 -107.5t-95 -77.5t-104 -32.5q-43 0 -64.5 35.5t-31.5 91.5q-10 52 -11 110.5t-1 104.5z" />
<glyph unicode="&#x13d;" horiz-adv-x="1138" d="M10 1690q0 24 8.5 45.5t26.5 40.5q18 18 41 26.5t46 8.5q50 0 86 -35l92 -94l96 94q17 17 39.5 26t46.5 10q24 0 45.5 -9t40.5 -27q34 -37 33 -86q0 -48 -33 -85l-195 -193q-36 -25 -79.5 -23t-77.5 36l-181 180q-17 17 -26 39t-9 46zM127 1260q0 18 5.5 33.5t20.5 26.5 q14 11 38 16.5t63 5.5q56 0 108.5 -7.5t93.5 -28.5q40 -22 64.5 -61t24.5 -103v-741h344q41 0 77 -15.5t64 -42.5q27 -28 43 -64.5t16 -77.5q0 -43 -14 -79t-39 -63q-25 -28 -58.5 -43.5t-74.5 -15.5h-567q-84 5 -136 60q-26 27 -40.5 62.5t-14.5 78.5v926q-1 16 -3.5 33.5 t-6.5 34.5q-8 36 -8 65z" />
<glyph unicode="&#x13e;" horiz-adv-x="614" d="M106 180v957q0 41 15.5 77.5t43.5 63.5q27 27 63 42.5t79 15.5q41 0 78 -15.5t65 -42.5q27 -27 42.5 -63.5t15.5 -77.5v-957q0 -43 -16 -79t-42 -63q-28 -28 -65 -43t-78 -15q-43 0 -79.5 15t-62.5 43q-28 27 -43.5 63t-15.5 79zM522 1313q0 68 18.5 136.5t52.5 125.5 t80.5 92.5t104.5 35.5q36 0 68 -11t57 -29q53 -40 72 -98q13 -44 6.5 -87t-28.5 -82q-46 -81 -131 -131q-42 -25 -87 -39t-88 -14q-37 0 -61 7t-38 20q-14 12 -20 31t-6 43z" />
<glyph unicode="&#x13f;" horiz-adv-x="1138" d="M127 1260q0 18 5.5 33.5t20.5 26.5q14 11 38 16.5t63 5.5q56 0 108.5 -7.5t93.5 -28.5q40 -22 64.5 -61t24.5 -103v-741h344q41 0 77 -15.5t64 -42.5q27 -28 43 -64.5t16 -77.5q0 -43 -14 -79t-39 -63q-25 -28 -58.5 -43.5t-74.5 -15.5h-567q-84 5 -136 60 q-26 27 -40.5 62.5t-14.5 78.5v926q-1 16 -3.5 33.5t-6.5 34.5q-8 36 -8 65zM684 708q0 41 15.5 76.5t42.5 62.5t63.5 41.5t79.5 14.5q41 0 77.5 -15t64.5 -41q27 -27 42.5 -62.5t15.5 -76.5q0 -43 -15.5 -78.5t-42.5 -62.5q-28 -27 -64.5 -41.5t-77.5 -14.5q-43 0 -79.5 15 t-63.5 41q-28 27 -43 62.5t-15 78.5z" />
<glyph unicode="&#x140;" horiz-adv-x="936" d="M106 180v957q0 41 15.5 77.5t43.5 63.5q27 27 63 42.5t79 15.5q41 0 78 -15.5t65 -42.5q27 -27 42.5 -63.5t15.5 -77.5v-957q0 -43 -16 -79t-42 -63q-28 -28 -65 -43t-78 -15q-43 0 -79.5 15t-62.5 43q-28 27 -43.5 63t-15.5 79zM590 674q0 41 15.5 76.5t42.5 62.5 t63.5 41.5t79.5 14.5q41 0 77.5 -14.5t64.5 -41.5q27 -27 42.5 -62.5t15.5 -76.5q0 -43 -16 -78.5t-42 -61.5q-28 -27 -65 -42t-77 -15q-43 0 -79.5 15t-63.5 42q-28 27 -43 62t-15 78z" />
<glyph unicode="&#x141;" horiz-adv-x="1140" d="M-70.5 599.5q-2.5 39.5 11.5 75.5q12 36 38 66t64 49l102 50v287q-1 16 -3.5 33.5t-6.5 34.5q-8 36 -8 65q0 18 5.5 33.5t20.5 26.5q14 11 38 16.5t63 5.5q56 0 108.5 -7.5t93.5 -28.5q40 -22 64.5 -61t24.5 -103v-130q34 0 63 -11q36 -12 66.5 -38t48.5 -64 q18 -37 19.5 -77t-10.5 -76q-12 -37 -37.5 -66.5t-62.5 -47.5l-87 -43v-188h344q41 0 77 -15.5t64 -42.5q27 -28 43 -64.5t16 -77.5q0 -43 -14 -79t-39 -63q-25 -28 -58.5 -43.5t-74.5 -15.5h-567q-84 5 -136 60q-26 27 -40.5 62.5t-14.5 78.5v209q-41 -3 -80 11 q-36 12 -66.5 38t-48.5 63q-18 38 -20.5 77.5z" />
<glyph unicode="&#x142;" horiz-adv-x="629" d="M-52 502q-2 25 5 49q14 49 63 75l90 46v465q0 41 15.5 77.5t43.5 63.5q27 27 63 42.5t79 15.5q41 0 78 -15.5t65 -42.5q27 -27 42.5 -63.5t15.5 -77.5v-260q43 11 83.5 -6.5t61.5 -60.5q12 -24 14.5 -49.5t-4.5 -48.5q-14 -52 -65 -77l-90 -47v-408q0 -43 -16 -79 t-42 -63q-28 -28 -65 -43t-78 -15q-43 0 -79.5 15t-62.5 43q-28 27 -43.5 63t-15.5 79v205q-43 -11 -82.5 7.5t-60.5 59.5q-13 25 -15 50z" />
<glyph unicode="&#x143;" horiz-adv-x="1446" d="M127 1239q0 18 5.5 33.5t20.5 26.5q14 11 38 17t63 6q46 0 80 -1.5t62 -9.5t53.5 -24.5t55.5 -47.5l416 -501l-2 362q0 35 -9 72q-9 36 -9 67q0 24 5.5 39.5t24.5 26.5q17 9 50 13t88 4q50 0 95.5 -6.5t80.5 -27.5q34 -22 54 -60.5t20 -106.5v-918q0 -46 -14 -86t-39 -71 q-26 -31 -63 -48.5t-83 -17.5q-40 0 -78 15.5t-68 49.5l-431 520v-96t-1 -96t-1 -96.5v-96.5q0 -43 -14.5 -80t-41.5 -63q-27 -27 -62 -42t-78 -15t-79.5 15t-62.5 43q-27 27 -42.5 63t-15.5 79v927q-1 16 -3.5 33t-6.5 35q-8 36 -8 64zM586 1477q0 29 24.5 66.5t62.5 72.5 q38 34 82.5 57.5t84.5 23.5q33 0 62.5 -15.5t50.5 -42.5q20 -27 29 -59.5t0 -66.5q-8 -28 -36 -57t-67 -52q-39 -25 -82 -40.5t-80 -15.5q-39 0 -74.5 22t-49.5 60q-5 11 -6 22.5t-1 24.5z" />
<glyph unicode="&#x144;" horiz-adv-x="1247" d="M106 180v720q0 111 112 111q52 0 85 -25t58 -76q52 38 101.5 58.5t92.5 29.5t77 11t57 2q108 0 191.5 -40.5t141.5 -111.5t88.5 -164.5t30.5 -198.5v-318q0 -41 -16 -76.5t-43 -62.5q-27 -28 -63 -43.5t-77 -15.5q-43 0 -79 15.5t-63 43.5q-28 27 -44 62.5t-16 76.5v318 q0 51 -31 86q-15 17 -36.5 26.5t-45.5 9.5q-25 0 -46 -9.5t-37 -24.5q-34 -34 -36 -83v-321q0 -43 -16 -79t-42 -63q-28 -28 -65 -43t-78 -15q-43 0 -79.5 15t-62.5 43q-28 27 -43.5 63t-15.5 79zM572 1275q0 29 25 66.5t62 72.5q38 34 82.5 57.5t84.5 23.5q33 0 63 -15.5 t51 -41.5q20 -27 29 -59.5t0 -66.5q-8 -28 -36.5 -57t-67.5 -53q-39 -25 -82 -40.5t-80 -15.5q-39 0 -74 22t-49 60q-5 11 -6.5 23t-1.5 24z" />
<glyph unicode="&#x145;" horiz-adv-x="1446" d="M127 1239q0 18 5.5 33.5t20.5 26.5q14 11 38 17t63 6q46 0 80 -1.5t62 -9.5t53.5 -24.5t55.5 -47.5l416 -501l-2 362q0 35 -9 72q-9 36 -9 67q0 24 5.5 39.5t24.5 26.5q17 9 50 13t88 4q50 0 95.5 -6.5t80.5 -27.5q34 -22 54 -60.5t20 -106.5v-918q0 -46 -14 -86t-39 -71 q-26 -31 -63 -48.5t-83 -17.5q-40 0 -78 15.5t-68 49.5l-431 520v-96t-1 -96t-1 -96.5v-96.5q0 -43 -14.5 -80t-41.5 -63q-27 -27 -62 -42t-78 -15t-79.5 15t-62.5 43q-27 27 -42.5 63t-15.5 79v927q-1 16 -3.5 33t-6.5 35q-8 36 -8 64zM591 -313q0 41 15.5 76.5t42.5 62.5 t63.5 41t79.5 14q36 0 71.5 -13t64.5 -38q29 -26 46.5 -61.5t17.5 -81.5q0 -65 -25.5 -124.5t-68.5 -107.5t-94.5 -77.5t-104.5 -32.5q-43 0 -64.5 35.5t-31.5 91.5q-10 52 -11 110.5t-1 104.5z" />
<glyph unicode="&#x146;" horiz-adv-x="1247" d="M106 180v720q0 111 112 111q52 0 85 -25t58 -76q52 38 101.5 58.5t92.5 29.5t77 11t57 2q108 0 191.5 -40.5t141.5 -111.5t88.5 -164.5t30.5 -198.5v-318q0 -41 -16 -76.5t-43 -62.5q-27 -28 -63 -43.5t-77 -15.5q-43 0 -79 15.5t-63 43.5q-28 27 -44 62.5t-16 76.5v318 q0 51 -31 86q-15 17 -36.5 26.5t-45.5 9.5q-25 0 -46 -9.5t-37 -24.5q-34 -34 -36 -83v-321q0 -43 -16 -79t-42 -63q-28 -28 -65 -43t-78 -15q-43 0 -79.5 15t-62.5 43q-28 27 -43.5 63t-15.5 79zM482 -287q0 41 15.5 77t43.5 63q27 27 63 41t79 14q36 0 72 -13.5t64 -37.5 q29 -26 47 -62t18 -82q0 -65 -25.5 -124t-68.5 -107t-95 -78t-104 -33q-43 0 -64.5 36t-31.5 91q-10 52 -11.5 110.5t-1.5 104.5z" />
<glyph unicode="&#x147;" horiz-adv-x="1446" d="M127 1239q0 18 5.5 33.5t20.5 26.5q14 11 38 17t63 6q46 0 80 -1.5t62 -9.5t53.5 -24.5t55.5 -47.5l416 -501l-2 362q0 35 -9 72q-9 36 -9 67q0 24 5.5 39.5t24.5 26.5q17 9 50 13t88 4q50 0 95.5 -6.5t80.5 -27.5q34 -22 54 -60.5t20 -106.5v-918q0 -46 -14 -86t-39 -71 q-26 -31 -63 -48.5t-83 -17.5q-40 0 -78 15.5t-68 49.5l-431 520v-96t-1 -96t-1 -96.5v-96.5q0 -43 -14.5 -80t-41.5 -63q-27 -27 -62 -42t-78 -15t-79.5 15t-62.5 43q-27 27 -42.5 63t-15.5 79v927q-1 16 -3.5 33t-6.5 35q-8 36 -8 64zM413 1688q0 24 8 45.5t26 40.5 q18 18 41 26.5t47 8.5q50 0 86 -35l92 -94l95 94q17 17 39.5 26t46.5 10q24 0 46 -9t40 -27q34 -37 34 -86q0 -48 -34 -85l-195 -193q-36 -25 -79 -23t-77 36l-182 180q-17 17 -25.5 39t-8.5 46z" />
<glyph unicode="&#x148;" horiz-adv-x="1247" d="M106 180v720q0 111 112 111q52 0 85 -25t58 -76q52 38 101.5 58.5t92.5 29.5t77 11t57 2q108 0 191.5 -40.5t141.5 -111.5t88.5 -164.5t30.5 -198.5v-318q0 -41 -16 -76.5t-43 -62.5q-27 -28 -63 -43.5t-77 -15.5q-43 0 -79 15.5t-63 43.5q-28 27 -44 62.5t-16 76.5v318 q0 51 -31 86q-15 17 -36.5 26.5t-45.5 9.5q-25 0 -46 -9.5t-37 -24.5q-34 -34 -36 -83v-321q0 -43 -16 -79t-42 -63q-28 -28 -65 -43t-78 -15q-43 0 -79.5 15t-62.5 43q-28 27 -43.5 63t-15.5 79zM370 1413q0 24 8 46t26 40t41 27t47 9q50 0 86 -36l92 -93l95 93 q17 17 39.5 26.5t46.5 10.5q24 0 46 -9t40 -28q34 -37 34 -86q0 -48 -34 -85l-195 -192q-36 -25 -79 -23t-77 36l-182 179q-17 17 -25.5 39.5t-8.5 45.5z" />
<glyph unicode="&#x149;" horiz-adv-x="1247" d="M50 1108q0 46 13 94.5t36 88.5q24 40 57 65t73 25q26 0 48 -7.5t40 -20.5q36 -27 51 -69q9 -31 4.5 -61t-20.5 -57q-15 -28 -39 -51t-53 -41q-29 -17 -60.5 -27t-62.5 -10q-50 0 -68 19q-18 15 -19 52zM106 180v720q0 111 112 111q52 0 85 -25t58 -76q52 38 101.5 58.5 t92.5 29.5t77 11t57 2q108 0 191.5 -40.5t141.5 -111.5t88.5 -164.5t30.5 -198.5v-318q0 -41 -16 -76.5t-43 -62.5q-27 -28 -63 -43.5t-77 -15.5q-43 0 -79 15.5t-63 43.5q-28 27 -44 62.5t-16 76.5v318q0 51 -31 86q-15 17 -36.5 26.5t-45.5 9.5q-25 0 -46 -9.5t-37 -24.5 q-34 -34 -36 -83v-321q0 -43 -16 -79t-42 -63q-28 -28 -65 -43t-78 -15q-43 0 -79.5 15t-62.5 43q-28 27 -43.5 63t-15.5 79z" />
<glyph unicode="&#x14a;" horiz-adv-x="1446" d="M127 1219q0 18 5.5 33.5t20.5 26.5q14 11 38 17t63 6q46 0 80 -2t62 -10t53.5 -24.5t55.5 -46.5l416 -501l-2 361q0 35 -9 73q-9 36 -9 67q0 24 5.5 39.5t24.5 25.5q17 9 50 13.5t88 4.5q50 0 95.5 -7t80.5 -27q34 -22 54 -60.5t20 -106.5v-919v-12q0 -71 -12.5 -132 t-34.5 -114q-55 -129 -165 -199q-110 -71 -255 -71q-43 0 -79.5 15.5t-62.5 42.5q-28 27 -43.5 63.5t-15.5 79.5q0 41 15.5 77t43.5 64q27 27 63 42t79 15q40 0 57 49l-366 443v-96.5t-1 -96.5t-1 -96v-96q0 -43 -14.5 -80t-41.5 -64t-62 -42t-78 -15t-79.5 15.5t-62.5 42.5 q-27 27 -42.5 63.5t-15.5 79.5v926q-1 16 -3.5 33.5t-6.5 34.5q-8 36 -8 65z" />
<glyph unicode="&#x14b;" horiz-adv-x="1289" d="M127 180v720q0 111 112 111q52 0 84.5 -25t58.5 -76q52 38 101 58.5t92 29.5t77 11t58 2q108 0 191 -40.5t141 -111.5t88.5 -164.5t30.5 -198.5v-318v-63q0 -118 -34 -213t-96 -162q-61 -68 -146.5 -104.5t-190.5 -36.5q-43 0 -78.5 15t-62.5 42q-28 27 -43.5 63.5 t-15.5 79.5q0 55 26 100.5t72 71.5q18 10 37.5 15t39.5 8q18 3 35 8t29 18q12 12 20 34.5t8 60.5v381q0 51 -32 86q-15 17 -36 26.5t-46 9.5t-45.5 -9.5t-37.5 -24.5q-34 -34 -36 -83v-321q0 -43 -15.5 -79t-42.5 -63q-28 -28 -64.5 -43t-77.5 -15q-43 0 -79.5 15t-63.5 43 q-28 27 -43 63t-15 79z" />
<glyph unicode="&#x14c;" horiz-adv-x="1470" d="M63 651q0 139 52.5 260t144.5 214q92 92 213.5 144.5t261.5 52.5q93 0 178 -24t160 -68t136 -105t105 -136t68 -160t24 -178q0 -140 -52 -261.5t-145 -213.5t-214 -144t-260 -52q-140 0 -261.5 52t-213.5 144t-144.5 213.5t-52.5 261.5zM346 1542q0 54 37 93q37 37 91 37 h520q55 0 92 -37q17 -18 27.5 -41.5t10.5 -51.5q0 -27 -10 -50.5t-28 -40.5q-17 -17 -40.5 -27.5t-51.5 -10.5h-520q-27 0 -50.5 10.5t-40.5 27.5q-37 37 -37 91zM465 647q0 -55 21 -104t58 -88t86 -61.5t105 -22.5q55 0 104.5 23t86.5 62t58.5 89t21.5 106q0 55 -21.5 105 t-58.5 88q-37 37 -86 59.5t-105 22.5t-105 -22t-86 -61t-58 -90t-21 -106z" />
<glyph unicode="&#x14d;" d="M63 496q0 105 41 198.5t112 164.5t163.5 111.5t200.5 40.5t200.5 -40.5t163.5 -111.5t111.5 -164.5t40.5 -198.5q0 -108 -40.5 -201t-111.5 -164t-164 -111t-200 -40q-108 0 -200.5 40t-163.5 111t-112 164t-41 201zM187 1189q0 54 37 93q37 37 91 37h521q55 0 92 -37 q17 -18 27.5 -41.5t10.5 -51.5q0 -27 -10.5 -50.5t-27.5 -40.5t-41 -27.5t-51 -10.5h-521q-27 0 -50 10t-41 28q-37 37 -37 91zM465 496q0 -25 8.5 -47.5t24.5 -39.5q15 -17 36 -27.5t46 -10.5t45.5 10t36.5 28q15 17 23.5 39.5t8.5 47.5t-8.5 46.5t-23.5 39.5 q-15 17 -36.5 26.5t-45.5 9.5q-25 0 -46 -9.5t-36 -26.5t-24 -39t-9 -47z" />
<glyph unicode="&#x14e;" horiz-adv-x="1470" d="M63 651q0 139 52.5 260t144.5 214q92 92 213.5 144.5t261.5 52.5q93 0 178 -24t160 -68t136 -105t105 -136t68 -160t24 -178q0 -140 -52 -261.5t-145 -213.5t-214 -144t-260 -52q-140 0 -261.5 52t-213.5 144t-144.5 213.5t-52.5 261.5zM465 647q0 -55 21 -104t58 -88 t86 -61.5t105 -22.5q55 0 104.5 23t86.5 62t58.5 89t21.5 106q0 55 -21.5 105t-58.5 88q-37 37 -86 59.5t-105 22.5t-105 -22t-86 -61t-58 -90t-21 -106zM481 1648q0 25 10 45.5t27 37.5q17 15 39 24t46 9q31 0 47 -9.5t24 -23.5q4 -7 6 -15.5t4 -16.5q3 -17 7.5 -31.5 t15.5 -23.5q10 -10 32 -11q22 0 32 10t15 24q5 16 9 32q2 17 9.5 31.5t23.5 24.5q17 9 48 9q26 0 47.5 -9t38.5 -24q16 -16 25.5 -38t9.5 -45q0 -46 -21 -87.5t-56 -73.5q-36 -32 -82.5 -51t-98.5 -19t-97.5 19t-81.5 51t-57.5 73.5t-21.5 87.5z" />
<glyph unicode="&#x14f;" d="M63 496q0 105 41 198.5t112 164.5t163.5 111.5t200.5 40.5t200.5 -40.5t163.5 -111.5t111.5 -164.5t40.5 -198.5q0 -108 -40.5 -201t-111.5 -164t-164 -111t-200 -40q-108 0 -200.5 40t-163.5 111t-112 164t-41 201zM322 1323q0 25 9.5 46t26.5 37q17 15 39 24.5t46 9.5 q31 0 47 -10t24 -24q4 -7 6 -15.5t4 -16.5q3 -17 8 -31.5t15 -23.5q10 -10 33 -10q22 0 32 9.5t15 23.5q5 16 8 32q2 17 9.5 31.5t24.5 25.5q17 9 47 9q26 0 47.5 -9.5t38.5 -24.5q16 -16 26 -37.5t10 -45.5q0 -46 -21 -87.5t-57 -73.5t-82 -50.5t-98 -18.5t-98 18.5 t-82 50.5t-57 73.5t-21 87.5zM465 496q0 -25 8.5 -47.5t24.5 -39.5q15 -17 36 -27.5t46 -10.5t45.5 10t36.5 28q15 17 23.5 39.5t8.5 47.5t-8.5 46.5t-23.5 39.5q-15 17 -36.5 26.5t-45.5 9.5q-25 0 -46 -9.5t-36 -26.5t-24 -39t-9 -47z" />
<glyph unicode="&#x150;" horiz-adv-x="1470" d="M63 651q0 139 52.5 260t144.5 214q92 92 213.5 144.5t261.5 52.5q93 0 178 -24t160 -68t136 -105t105 -136t68 -160t24 -178q0 -140 -52 -261.5t-145 -213.5t-214 -144t-260 -52q-140 0 -261.5 52t-213.5 144t-144.5 213.5t-52.5 261.5zM293 1532q0 29 24.5 66.5 t62.5 72.5q38 34 82.5 57.5t84.5 23.5q33 0 62.5 -15.5t50.5 -41.5q20 -27 29 -59.5t0 -66.5q-8 -28 -36 -57t-67 -53q-39 -25 -82 -40.5t-80 -15.5q-39 0 -74.5 22t-49.5 60q-5 11 -6 23t-1 24zM465 647q0 -55 21 -104t58 -88t86 -61.5t105 -22.5q55 0 104.5 23t86.5 62 t58.5 89t21.5 106q0 55 -21.5 105t-58.5 88q-37 37 -86 59.5t-105 22.5t-105 -22t-86 -61t-58 -90t-21 -106zM807 1532q0 29 24.5 66.5t62.5 72.5q38 34 82.5 57.5t84.5 23.5q33 0 62.5 -15.5t51.5 -41.5q20 -27 28.5 -59.5t-0.5 -66.5q-8 -28 -36 -57t-67 -53 q-39 -25 -82 -40.5t-80 -15.5q-39 0 -74.5 22t-49.5 60q-5 11 -6 23t-1 24z" />
<glyph unicode="&#x151;" d="M63 496q0 105 41 198.5t112 164.5t163.5 111.5t200.5 40.5t200.5 -40.5t163.5 -111.5t111.5 -164.5t40.5 -198.5q0 -108 -40.5 -201t-111.5 -164t-164 -111t-200 -40q-108 0 -200.5 40t-163.5 111t-112 164t-41 201zM170 1193q0 29 24.5 66.5t62.5 72.5q38 34 82.5 57.5 t84.5 23.5q33 0 62.5 -15.5t51.5 -41.5q20 -27 28.5 -59.5t-0.5 -66.5q-8 -28 -36 -57t-67 -53q-39 -25 -82 -40.5t-80 -15.5q-39 0 -74.5 22t-49.5 60q-5 11 -6 23t-1 24zM465 496q0 -25 8.5 -47.5t24.5 -39.5q15 -17 36 -27.5t46 -10.5t45.5 10t36.5 28q15 17 23.5 39.5 t8.5 47.5t-8.5 46.5t-23.5 39.5q-15 17 -36.5 26.5t-45.5 9.5q-25 0 -46 -9.5t-36 -26.5t-24 -39t-9 -47zM684 1193q0 29 24.5 66.5t62.5 72.5q38 34 82.5 57.5t84.5 23.5q33 0 62.5 -15.5t51.5 -41.5q20 -27 29 -59.5t-1 -66.5q-8 -28 -36 -57t-67 -53q-39 -25 -82 -40.5 t-80 -15.5q-39 0 -74 22t-50 60q-5 11 -6 23t-1 24z" />
<glyph unicode="&#x152;" horiz-adv-x="2130" d="M63 651q0 139 52.5 260t144.5 214q92 92 213.5 144.5t261.5 52.5q80 0 155.5 -18.5t142.5 -52.5q3 31 25 48q14 11 38 17t63 6h709q65 0 107 -27.5t65 -70.5q22 -43 22 -92t-20 -92q-22 -43 -65.5 -70.5t-108.5 -27.5h-418v-108h290q46 0 86 -23.5t65 -59.5 q25 -37 31.5 -82t-13.5 -91q-24 -52 -67.5 -81.5t-101.5 -29.5h-290v-86h418q43 0 79 -15t64 -42q27 -27 42 -64t15 -80t-15 -79t-42 -63q-28 -28 -64 -43t-79 -15h-618q-43 0 -79 15t-63 42q-18 18 -30 38q-76 -46 -162.5 -70.5t-180.5 -24.5q-140 0 -261.5 52t-213.5 144 t-144.5 213.5t-52.5 261.5zM465 647q0 -55 21 -104t58 -88t86 -61.5t105 -22.5q55 0 104.5 23t86.5 62t58.5 89t21.5 106q0 55 -21.5 105t-58.5 88q-37 37 -86 59.5t-105 22.5t-105 -22t-86 -61t-58 -90t-21 -106z" />
<glyph unicode="&#x153;" horiz-adv-x="1789" d="M61 496q0 105 41 198.5t112 164.5t163.5 111.5t200.5 40.5q90 0 170 -29t146 -81q66 52 146 81t170 29q108 0 201 -36.5t164 -101.5t111 -153.5t40 -196.5q0 -40 -12.5 -65.5t-35.5 -39.5t-54 -20t-69 -6h-451q5 -30 37 -58q14 -14 32.5 -23t38.5 -9q24 0 42.5 6.5 t38.5 16.5q23 10 52 14t60 0t60 -15t53 -30t37 -47t14 -64q1 -59 -33 -98t-86 -62q-53 -24 -116.5 -33.5t-123.5 -9.5q-90 0 -170.5 28.5t-145.5 80.5q-66 -52 -146 -80.5t-170 -28.5q-108 0 -200.5 40t-163.5 111t-112 164t-41 201zM463 496q0 -25 8.5 -47.5t24.5 -39.5 q15 -17 36 -27.5t46 -10.5t45.5 10.5t35.5 27.5t24 39.5t9 47.5t-8.5 46.5t-24.5 39.5q-15 17 -36 26.5t-45 9.5q-25 0 -46 -9.5t-36 -26.5t-24 -39.5t-9 -46.5zM1098 616h225q-2 17 -14 32t-29 25q-17 9 -35.5 14.5t-34.5 5.5q-17 0 -35.5 -5.5t-33.5 -14.5 q-16 -10 -27.5 -24.5t-15.5 -32.5z" />
<glyph unicode="&#x154;" horiz-adv-x="1256" d="M127 1253q0 18 5.5 34t20.5 27q14 11 38 16.5t63 5.5h426q105 0 200.5 -37.5t169.5 -105.5t116.5 -158t42.5 -195q0 -112 -50.5 -205.5t-134.5 -161.5l154 -174q28 -31 39 -67.5t7 -73.5q-4 -38 -22.5 -73t-51.5 -60q-33 -26 -70 -37t-73 -6q-37 4 -70.5 22t-58.5 49 l-221 301h-112v-174q0 -43 -15.5 -79t-42.5 -63q-28 -28 -63.5 -43t-78.5 -15t-79.5 15t-62.5 43q-27 27 -42.5 63t-15.5 79v941q-1 17 -3.5 34t-6.5 35q-8 36 -8 63zM442 1583q0 29 25 67t62 72q38 34 82.5 57.5t84.5 23.5q33 0 62.5 -15t51.5 -42q20 -27 29 -59.5t0 -66.5 q-8 -28 -36.5 -57t-67.5 -53q-39 -25 -82 -40.5t-80 -15.5q-39 0 -74 22t-49 60q-5 11 -6.5 23t-1.5 24zM537 693h143q29 0 54 10.5t43 28.5q18 17 29 41.5t11 53.5t-10.5 56.5t-29.5 49.5q-18 22 -43 35t-54 13h-143v-288z" />
<glyph unicode="&#x155;" horiz-adv-x="953" d="M106 180v720q0 111 112 111q50 0 83.5 -24t57.5 -74q58 46 125 72t139 26q49 0 99 -11.5t92 -35.5q42 -26 68 -67t26 -99q0 -39 -15.5 -74t-41.5 -60q-52 -55 -132 -56q-20 0 -41 3q-22 3 -43 6t-41 3q-22 0 -39 -6.5t-26 -17.5t-13 -26.5t-6 -33.5q-1 -10 -1.5 -20 t-0.5 -20v-316q0 -43 -16 -79t-42 -63q-28 -28 -65 -43t-78 -15q-43 0 -79.5 15t-62.5 43q-28 27 -43.5 63t-15.5 79zM300 1234q0 29 24.5 66.5t62.5 72.5q38 34 82.5 57.5t84.5 23.5q33 0 62.5 -15.5t51.5 -41.5q20 -27 29 -59.5t-1 -66.5q-8 -28 -36 -57t-67 -53 q-39 -25 -82 -40.5t-80 -15.5q-39 0 -74 22t-50 60q-5 11 -6 23t-1 24z" />
<glyph unicode="&#x156;" horiz-adv-x="1256" d="M127 1253q0 18 5.5 34t20.5 27q14 11 38 16.5t63 5.5h426q105 0 200.5 -37.5t169.5 -105.5t116.5 -158t42.5 -195q0 -112 -50.5 -205.5t-134.5 -161.5l154 -174q28 -31 39 -67.5t7 -73.5q-4 -38 -22.5 -73t-51.5 -60q-33 -26 -70 -37t-73 -6q-37 4 -70.5 22t-58.5 49 l-221 301h-112v-174q0 -43 -15.5 -79t-42.5 -63q-28 -28 -63.5 -43t-78.5 -15t-79.5 15t-62.5 43q-27 27 -42.5 63t-15.5 79v941q-1 17 -3.5 34t-6.5 35q-8 36 -8 63zM499 -308q0 41 15 76.5t43 62.5q27 27 63 41t79 14q36 0 72 -13t65 -38q29 -26 46.5 -61.5t17.5 -81.5 q0 -65 -25.5 -124.5t-68.5 -107.5t-95 -77.5t-104 -32.5q-43 0 -64.5 35.5t-31.5 91.5q-10 52 -11 110.5t-1 104.5zM537 693h143q29 0 54 10.5t43 28.5q18 17 29 41.5t11 53.5t-10.5 56.5t-29.5 49.5q-18 22 -43 35t-54 13h-143v-288z" />
<glyph unicode="&#x157;" horiz-adv-x="953" d="M106 180v720q0 111 112 111q50 0 83.5 -24t57.5 -74q58 46 125 72t139 26q49 0 99 -11.5t92 -35.5q42 -26 68 -67t26 -99q0 -39 -15.5 -74t-41.5 -60q-52 -55 -132 -56q-20 0 -41 3q-22 3 -43 6t-41 3q-22 0 -39 -6.5t-26 -17.5t-13 -26.5t-6 -33.5q-1 -10 -1.5 -20 t-0.5 -20v-316q0 -43 -16 -79t-42 -63q-28 -28 -65 -43t-78 -15q-43 0 -79.5 15t-62.5 43q-28 27 -43.5 63t-15.5 79zM155 -266q0 41 15 76.5t43 62.5q27 27 63 41t79 14q36 0 72 -13t65 -38q29 -26 46.5 -61.5t17.5 -81.5q0 -65 -25.5 -124.5t-68.5 -107.5t-95 -77.5 t-104 -32.5q-43 0 -64.5 35.5t-31.5 91.5q-10 52 -11 110.5t-1 104.5z" />
<glyph unicode="&#x158;" horiz-adv-x="1256" d="M127 1253q0 18 5.5 34t20.5 27q14 11 38 16.5t63 5.5h426q105 0 200.5 -37.5t169.5 -105.5t116.5 -158t42.5 -195q0 -112 -50.5 -205.5t-134.5 -161.5l154 -174q28 -31 39 -67.5t7 -73.5q-4 -38 -22.5 -73t-51.5 -60q-33 -26 -70 -37t-73 -6q-37 4 -70.5 22t-58.5 49 l-221 301h-112v-174q0 -43 -15.5 -79t-42.5 -63q-28 -28 -63.5 -43t-78.5 -15t-79.5 15t-62.5 43q-27 27 -42.5 63t-15.5 79v941q-1 17 -3.5 34t-6.5 35q-8 36 -8 63zM306 1704q0 24 8.5 46t26.5 40t40.5 27t46.5 9q50 0 86 -36l92 -93l95 93q17 17 40 26.5t46 10.5 q24 0 46 -9.5t40 -27.5q34 -37 34 -86q0 -48 -34 -85l-194 -193q-36 -25 -79.5 -22.5t-77.5 36.5l-181 179q-17 17 -26 39t-9 46zM537 693h143q29 0 54 10.5t43 28.5q18 17 29 41.5t11 53.5t-10.5 56.5t-29.5 49.5q-18 22 -43 35t-54 13h-143v-288z" />
<glyph unicode="&#x159;" horiz-adv-x="953" d="M106 180v720q0 111 112 111q50 0 83.5 -24t57.5 -74q58 46 125 72t139 26q49 0 99 -11.5t92 -35.5q42 -26 68 -67t26 -99q0 -39 -15.5 -74t-41.5 -60q-52 -55 -132 -56q-20 0 -41 3q-22 3 -43 6t-41 3q-22 0 -39 -6.5t-26 -17.5t-13 -26.5t-6 -33.5q-1 -10 -1.5 -20 t-0.5 -20v-316q0 -43 -16 -79t-42 -63q-28 -28 -65 -43t-78 -15q-43 0 -79.5 15t-62.5 43q-28 27 -43.5 63t-15.5 79zM216 1427q0 24 8 46t27 40q18 18 40.5 27t46.5 9q50 0 86 -36l92 -93l95 93q17 17 40 26.5t46 10.5q24 0 46 -9t40 -28q34 -37 34 -86q0 -48 -34 -85 l-194 -192q-36 -25 -79.5 -23t-77.5 36l-181 179q-17 17 -26 39.5t-9 45.5z" />
<glyph unicode="&#x15a;" horiz-adv-x="1084" d="M33 301q0 38 12.5 71.5t36.5 56.5q24 24 56 37.5t71 13.5q43 0 85.5 -22t94.5 -61q14 -11 33.5 -19t40.5 -13q20 -5 37 -8t28 -3q27 0 50 8.5t23 31.5q0 17 -39 38q-20 9 -44.5 20.5t-54.5 24.5q-60 27 -129 62t-129 88q-59 52 -99 123.5t-40 169.5q0 90 32 163.5 t95 126.5q62 53 152.5 82.5t208.5 29.5q40 0 88 -9.5t97 -28.5q49 -18 94.5 -45t80.5 -61q36 -35 56.5 -76.5t20.5 -90.5q0 -44 -13.5 -75t-39.5 -49q-26 -19 -61.5 -27.5t-79.5 -8.5q-20 0 -40 1.5t-40 8.5q-20 6 -43 19t-49 36q-33 29 -58.5 48.5t-46.5 19.5 q-11 0 -23.5 -1.5t-23.5 -6.5t-17.5 -12.5t-6.5 -16.5q0 -20 25 -40t66 -42q20 -11 43 -23t50 -24q52 -25 107 -55t107 -67t93 -82.5t67 -100.5q25 -55 24 -124q0 -72 -23 -130t-62 -104t-90 -79.5t-107 -55.5q-56 -23 -112.5 -33t-109.5 -10q-134 0 -227.5 31t-153.5 79 q-59 48 -86 105t-27 109zM375 1606q0 29 24.5 66.5t62.5 72.5q38 34 82.5 57.5t84.5 23.5q33 0 62.5 -15.5t50.5 -42.5q20 -27 29 -59.5t0 -66.5q-8 -28 -36 -57t-67 -52q-39 -25 -82 -40.5t-80 -15.5q-39 0 -74.5 22t-49.5 60q-5 11 -6 22.5t-1 24.5z" />
<glyph unicode="&#x15b;" horiz-adv-x="1056" d="M63 271q0 34 13 64.5t36 53.5q22 24 51.5 36.5t63.5 12.5q38 0 74 -13.5t69 -33.5q16 -10 31.5 -20t30.5 -20q31 -23 57 -36q10 -5 27.5 -11.5t34.5 -8.5q17 -3 29 2.5t12 25.5q0 12 -24 26q-24 12 -60.5 26.5t-84.5 32.5q-48 17 -95 38.5t-90 51.5t-72 67.5t-40 86.5 t3.5 102.5t43.5 99.5q28 46 75.5 83t117.5 60q71 24 162 24q87 0 165 -16t137 -48t95 -77.5t36 -105.5q0 -44 -17 -74.5t-43 -51.5q-26 -20 -56 -29.5t-57 -9.5q-25 0 -48.5 9t-45.5 21q-23 12 -41.5 26t-34.5 25q-32 22 -58 19q-14 -2 -23 -10t-9 -21q0 -5 13 -13 q25 -15 73 -32q12 -5 24.5 -9t26.5 -10l60 -21q35 -12 71.5 -29.5t71.5 -42.5q36 -26 63.5 -59.5t45.5 -79.5q16 -45 16 -106q0 -80 -40 -135.5t-105 -91.5q-66 -36 -150 -52.5t-174 -16.5q-46 0 -97 9t-103 26t-99 42.5t-83 58.5t-57.5 71t-21.5 84zM397 1225 q0 29 24.5 66.5t62.5 72.5q38 34 82.5 57.5t84.5 23.5q33 0 62.5 -15.5t51.5 -41.5q20 -27 29 -60t0 -66q-8 -28 -36.5 -57t-67.5 -53q-39 -25 -82 -40.5t-80 -15.5q-39 0 -74 22t-50 60q-5 11 -6 22.5t-1 24.5z" />
<glyph unicode="&#x15c;" horiz-adv-x="1084" d="M33 301q0 38 12.5 71.5t36.5 56.5q24 24 56 37.5t71 13.5q43 0 85.5 -22t94.5 -61q14 -11 33.5 -19t40.5 -13q20 -5 37 -8t28 -3q27 0 50 8.5t23 31.5q0 17 -39 38q-20 9 -44.5 20.5t-54.5 24.5q-60 27 -129 62t-129 88q-59 52 -99 123.5t-40 169.5q0 90 32 163.5 t95 126.5q62 53 152.5 82.5t208.5 29.5q40 0 88 -9.5t97 -28.5q49 -18 94.5 -45t80.5 -61q36 -35 56.5 -76.5t20.5 -90.5q0 -44 -13.5 -75t-39.5 -49q-26 -19 -61.5 -27.5t-79.5 -8.5q-20 0 -40 1.5t-40 8.5q-20 6 -43 19t-49 36q-33 29 -58.5 48.5t-46.5 19.5 q-11 0 -23.5 -1.5t-23.5 -6.5t-17.5 -12.5t-6.5 -16.5q0 -20 25 -40t66 -42q20 -11 43 -23t50 -24q52 -25 107 -55t107 -67t93 -82.5t67 -100.5q25 -55 24 -124q0 -72 -23 -130t-62 -104t-90 -79.5t-107 -55.5q-56 -23 -112.5 -33t-109.5 -10q-134 0 -227.5 31t-153.5 79 q-59 48 -86 105t-27 109zM252 1509q0 24 9 45.5t26 38.5l181 180q34 34 77.5 35.5t79.5 -22.5l194 -193q34 -37 34 -85q0 -49 -34 -86q-38 -38 -86 -36q-24 0 -46 9.5t-40 26.5l-95 94l-92 -94q-36 -36 -86 -36q-24 0 -46.5 9t-40.5 27t-26.5 41t-8.5 46z" />
<glyph unicode="&#x15d;" horiz-adv-x="1056" d="M63 271q0 34 13 64.5t36 53.5q22 24 51.5 36.5t63.5 12.5q38 0 74 -13.5t69 -33.5q16 -10 31.5 -20t30.5 -20q31 -23 57 -36q10 -5 27.5 -11.5t34.5 -8.5q17 -3 29 2.5t12 25.5q0 12 -24 26q-24 12 -60.5 26.5t-84.5 32.5q-48 17 -95 38.5t-90 51.5t-72 67.5t-40 86.5 t3.5 102.5t43.5 99.5q28 46 75.5 83t117.5 60q71 24 162 24q87 0 165 -16t137 -48t95 -77.5t36 -105.5q0 -44 -17 -74.5t-43 -51.5q-26 -20 -56 -29.5t-57 -9.5q-25 0 -48.5 9t-45.5 21q-23 12 -41.5 26t-34.5 25q-32 22 -58 19q-14 -2 -23 -10t-9 -21q0 -5 13 -13 q25 -15 73 -32q12 -5 24.5 -9t26.5 -10l60 -21q35 -12 71.5 -29.5t71.5 -42.5q36 -26 63.5 -59.5t45.5 -79.5q16 -45 16 -106q0 -80 -40 -135.5t-105 -91.5q-66 -36 -150 -52.5t-174 -16.5q-46 0 -97 9t-103 26t-99 42.5t-83 58.5t-57.5 71t-21.5 84zM229 1202q0 24 9 45.5 t26 38.5l181 179q34 34 77.5 36t79.5 -22l195 -193q34 -37 33 -85q0 -49 -33 -86q-38 -38 -86 -36q-24 0 -46.5 9.5t-39.5 26.5l-96 93l-92 -93q-36 -36 -86 -36q-24 0 -46 9t-41 27q-18 18 -26.5 41t-8.5 46z" />
<glyph unicode="&#x15e;" horiz-adv-x="1084" d="M33 301q0 38 12.5 71.5t36.5 56.5q24 24 56 37.5t71 13.5q43 0 85.5 -22t94.5 -61q14 -11 33.5 -19t40.5 -13q20 -5 37 -8t28 -3q27 0 50 8.5t23 31.5q0 17 -39 38q-20 9 -44.5 20.5t-54.5 24.5q-60 27 -129 62t-129 88q-59 52 -99 123.5t-40 169.5q0 90 32 163.5 t95 126.5q62 53 152.5 82.5t208.5 29.5q40 0 88 -9.5t97 -28.5q49 -18 94.5 -45t80.5 -61q36 -35 56.5 -76.5t20.5 -90.5q0 -44 -13.5 -75t-39.5 -49q-26 -19 -61.5 -27.5t-79.5 -8.5q-20 0 -40 1.5t-40 8.5q-20 6 -43 19t-49 36q-33 29 -58.5 48.5t-46.5 19.5 q-11 0 -23.5 -1.5t-23.5 -6.5t-17.5 -12.5t-6.5 -16.5q0 -20 25 -40t66 -42q20 -11 43 -23t50 -24q52 -25 107 -55t107 -67t93 -82.5t67 -100.5q25 -55 24 -124q0 -72 -23 -130t-62 -104t-90 -79.5t-107 -55.5q-73 -29 -150 -37q0 -5 2 -14q1 -3 2 -6.5t3 -8.5 q6 -17 17.5 -32t36.5 -26q59 -25 91 -65.5t46 -85.5q13 -45 11.5 -87.5t-8.5 -71.5q-23 -89 -89 -143.5t-162 -66.5q-46 -5 -86.5 5.5t-76.5 30.5t-63 45.5t-42 52.5q-12 23 -16 50.5t5 53.5q8 26 31 43t63 18q32 1 50.5 -13.5t34.5 -32.5q15 -17 30 -32.5t38 -15.5 q12 0 27 3.5t28 14.5q12 9 20.5 26t7.5 41q-1 25 -17 44t-39 35q-11 8 -24 15.5t-26 15.5q-28 15 -51 33t-39 40q-16 23 -16 54l-1 85q-79 13 -138.5 39t-102.5 60q-59 48 -86 105t-27 109z" />
<glyph unicode="&#x15f;" horiz-adv-x="1056" d="M63 271q0 34 13 64.5t36 53.5q22 24 51.5 36.5t63.5 12.5q38 0 74 -13.5t69 -33.5q16 -10 31.5 -20t30.5 -20q31 -23 57 -36q10 -5 27.5 -11.5t34.5 -8.5q17 -3 29 2.5t12 25.5q0 12 -24 26q-24 12 -60.5 26.5t-84.5 32.5q-48 17 -95 38.5t-90 51.5t-72 67.5t-40 86.5 t3.5 102.5t43.5 99.5q28 46 75.5 83t117.5 60q71 24 162 24q87 0 165 -16t137 -48t95 -77.5t36 -105.5q0 -44 -17 -74.5t-43 -51.5q-26 -20 -56 -29.5t-57 -9.5q-25 0 -48.5 9t-45.5 21q-23 12 -41.5 26t-34.5 25q-32 22 -58 19q-14 -2 -23 -10t-9 -21q0 -5 13 -13 q25 -15 73 -32l51 -19q13 -5 28 -10t32 -11q35 -12 71.5 -29.5t71.5 -42.5q36 -26 64 -59.5t45 -79.5q16 -45 16 -106q0 -80 -40 -135.5t-105 -91.5q-48 -27 -106.5 -42.5t-123.5 -21.5q1 -3 2 -8q0 -6 2 -14q1 -3 2 -6.5t3 -8.5q6 -17 17 -32t37 -27q59 -25 91 -65t45 -85 t11.5 -87.5t-8.5 -71.5q-23 -89 -88.5 -143.5t-162.5 -66.5q-46 -5 -86.5 5.5t-75.5 30.5q-36 20 -63.5 45.5t-42.5 51.5q-12 23 -15.5 51t5.5 54q8 26 30.5 43t62.5 18q32 1 51 -13.5t34 -32.5q15 -17 30 -32.5t39 -15.5q12 0 27 3.5t28 13.5q12 9 20.5 26t7.5 42t-17 43.5 t-40 35.5q-11 8 -24 15t-26 16q-28 15 -51 33t-38 40q-16 23 -16 54l-1 96q-20 5 -42 10t-42 12q-52 17 -99 42.5t-83 58.5t-57.5 71t-21.5 84z" />
<glyph unicode="&#x160;" horiz-adv-x="1084" d="M33 301q0 38 12.5 71.5t36.5 56.5q24 24 56 37.5t71 13.5q43 0 85.5 -22t94.5 -61q14 -11 33.5 -19t40.5 -13q20 -5 37 -8t28 -3q27 0 50 8.5t23 31.5q0 17 -39 38q-20 9 -44.5 20.5t-54.5 24.5q-60 27 -129 62t-129 88q-59 52 -99 123.5t-40 169.5q0 90 32 163.5 t95 126.5q62 53 152.5 82.5t208.5 29.5q40 0 88 -9.5t97 -28.5q49 -18 94.5 -45t80.5 -61q36 -35 56.5 -76.5t20.5 -90.5q0 -44 -13.5 -75t-39.5 -49q-26 -19 -61.5 -27.5t-79.5 -8.5q-20 0 -40 1.5t-40 8.5q-20 6 -43 19t-49 36q-33 29 -58.5 48.5t-46.5 19.5 q-11 0 -23.5 -1.5t-23.5 -6.5t-17.5 -12.5t-6.5 -16.5q0 -20 25 -40t66 -42q20 -11 43 -23t50 -24q52 -25 107 -55t107 -67t93 -82.5t67 -100.5q25 -55 24 -124q0 -72 -23 -130t-62 -104t-90 -79.5t-107 -55.5q-56 -23 -112.5 -33t-109.5 -10q-134 0 -227.5 31t-153.5 79 q-59 48 -86 105t-27 109zM201 1734q0 24 8 45.5t27 40.5q18 18 40.5 26.5t46.5 8.5q50 0 86 -35l92 -94l95 94q17 17 39.5 26t46.5 11q24 0 46 -9.5t40 -27.5q34 -37 34 -86q0 -48 -34 -85l-195 -193q-36 -25 -79 -23t-77 36l-181 180q-17 17 -26 39t-9 46z" />
<glyph unicode="&#x161;" horiz-adv-x="1056" d="M63 271q0 34 13 64.5t36 53.5q22 24 51.5 36.5t63.5 12.5q38 0 74 -13.5t69 -33.5q16 -10 31.5 -20t30.5 -20q31 -23 57 -36q10 -5 27.5 -11.5t34.5 -8.5q17 -3 29 2.5t12 25.5q0 12 -24 26q-24 12 -60.5 26.5t-84.5 32.5q-48 17 -95 38.5t-90 51.5t-72 67.5t-40 86.5 t3.5 102.5t43.5 99.5q28 46 75.5 83t117.5 60q71 24 162 24q87 0 165 -16t137 -48t95 -77.5t36 -105.5q0 -44 -17 -74.5t-43 -51.5q-26 -20 -56 -29.5t-57 -9.5q-25 0 -48.5 9t-45.5 21q-23 12 -41.5 26t-34.5 25q-32 22 -58 19q-14 -2 -23 -10t-9 -21q0 -5 13 -13 q25 -15 73 -32q12 -5 24.5 -9t26.5 -10l60 -21q35 -12 71.5 -29.5t71.5 -42.5q36 -26 63.5 -59.5t45.5 -79.5q16 -45 16 -106q0 -80 -40 -135.5t-105 -91.5q-66 -36 -150 -52.5t-174 -16.5q-46 0 -97 9t-103 26t-99 42.5t-83 58.5t-57.5 71t-21.5 84zM243 1399q0 24 8 45.5 t27 40.5q18 18 40.5 27t46.5 9q50 0 86 -36l92 -93l95 93q17 17 39.5 26.5t46.5 10.5q24 0 46 -9.5t40 -27.5q34 -37 34 -86q0 -48 -34 -85l-195 -193q-36 -25 -79 -22.5t-77 36.5l-181 179q-17 17 -26 39t-9 46z" />
<glyph unicode="&#x162;" horiz-adv-x="1248" d="M33 1121q0 43 15 79.5t43 64.5q27 27 62 42t78 15h785q41 0 77 -16t64 -42q28 -28 44 -64t16 -79t-16 -78.5t-44 -62.5t-64 -42.5t-77 -15.5h-189l-5 -742q0 -43 -14 -79t-41 -63q-27 -28 -62 -43t-78 -15t-79 15.5t-63 43.5q-27 27 -41 62.5t-14 78.5l-4 742h-195 q-43 0 -78 15t-62 42q-28 27 -43 63t-15 79zM455 -303q0 41 15 77t43 62q27 27 63 41t79 14q36 0 72 -13t65 -38q29 -26 46.5 -61.5t17.5 -81.5q0 -65 -25.5 -124t-68.5 -108q-43 -48 -95 -77.5t-104 -32.5q-43 0 -64.5 36t-31.5 91q-10 52 -11 110.5t-1 104.5z" />
<glyph unicode="&#x163;" horiz-adv-x="894" d="M33 817q0 41 14.5 77t41.5 62q27 27 61 42t77 15h19v124q0 41 15 77.5t42 63.5t63 42.5t79 15.5q41 0 78 -15.5t64 -42.5t42.5 -63.5t15.5 -77.5v-124h23q41 0 76 -15t62 -42t42 -62.5t15 -76.5q0 -40 -15 -75t-42 -62t-62 -42t-76 -15h-23v-443q0 -43 -16 -79t-42 -63 q-27 -28 -64 -43t-78 -15q-43 0 -79 15t-63 43q-27 27 -42 63t-15 79v443h-19q-43 0 -77 15t-61 42t-41.5 62t-14.5 75zM268 -274q0 41 15.5 76.5t43.5 62.5q27 27 63 41t79 14q36 0 72 -13t64 -38q29 -26 47 -61.5t18 -81.5q0 -65 -26 -124.5t-69 -107.5t-94.5 -77.5 t-103.5 -32.5q-43 0 -64.5 35.5t-31.5 91.5q-10 52 -11.5 110t-1.5 105z" />
<glyph unicode="&#x164;" horiz-adv-x="1248" d="M33 1121q0 43 15 79.5t43 64.5q27 27 62 42t78 15h785q41 0 77 -16t64 -42q28 -28 44 -64t16 -79t-16 -78.5t-44 -62.5t-64 -42.5t-77 -15.5h-189l-5 -742q0 -43 -14 -79t-41 -63q-27 -28 -62 -43t-78 -15t-79 15.5t-63 43.5q-27 27 -41 62.5t-14 78.5l-4 742h-195 q-43 0 -78 15t-62 42q-28 27 -43 63t-15 79zM336 1726q0 24 8 46t27 40q18 18 40.5 27t46.5 9q50 0 86 -36l92 -93l95 93q17 17 40 26.5t46 10.5q24 0 46 -9t40 -28q34 -37 34 -86q0 -48 -34 -85l-194 -192q-36 -25 -79.5 -23t-77.5 36l-181 179q-17 17 -26 39.5t-9 45.5z " />
<glyph unicode="&#x165;" horiz-adv-x="894" d="M33 817q0 41 14.5 77t41.5 62q27 27 61 42t77 15h19v124q0 41 15 77.5t42 63.5t63 42.5t79 15.5q41 0 78 -15.5t64 -42.5t42.5 -63.5t15.5 -77.5v-124h23q41 0 76 -15t62 -42t42 -62.5t15 -76.5q0 -40 -15 -75t-42 -62t-62 -42t-76 -15h-23v-443q0 -43 -16 -79t-42 -63 q-27 -28 -64 -43t-78 -15q-43 0 -79 15t-63 43q-27 27 -42 63t-15 79v443h-19q-43 0 -77 15t-61 42t-41.5 62t-14.5 75zM732 1130q0 68 18.5 136.5t52.5 126.5q34 57 80.5 92.5t104.5 35.5q36 0 67.5 -11t57.5 -29q53 -40 72 -99q13 -44 6.5 -87t-28.5 -82 q-46 -81 -131 -131q-42 -25 -87 -38.5t-88 -13.5q-37 0 -61 6.5t-38 20.5q-14 12 -20 31t-6 42z" />
<glyph unicode="&#x166;" horiz-adv-x="1248" d="M33 1121q0 43 15 79.5t43 64.5q27 27 62 42t78 15h785q41 0 77 -15.5t64 -42.5q28 -28 44 -64t16 -79t-16 -78.5t-44 -62.5t-64 -42.5t-77 -15.5h-189l-1 -170h59q55 0 92 -37q17 -18 27.5 -42t10.5 -51t-10.5 -50.5t-27.5 -41.5q-17 -17 -41 -27t-51 -10h-61l-2 -313 q0 -43 -14 -79t-41 -63q-27 -28 -62 -43t-78 -15t-79 15.5t-63 43.5q-27 27 -41 62.5t-14 78.5l-2 313h-63q-27 0 -50.5 10t-41.5 27q-37 37 -36 92q0 54 36 93q37 37 92 37h62l-1 170h-195q-43 0 -78 15t-62 42q-28 27 -43 63t-15 79z" />
<glyph unicode="&#x167;" horiz-adv-x="894" d="M33 817q0 41 14.5 77t41.5 62q27 27 61 42t77 15h19v124q0 41 15 77.5t42 63.5t63 42.5t79 15.5q41 0 78 -15.5t64 -42.5t42.5 -63.5t15.5 -77.5v-124h23q41 0 76 -15t62 -42t42 -62.5t15 -76.5q0 -40 -15 -75t-42 -62t-62 -42t-76 -15h-23v-79h62q55 0 92 -37 q17 -18 27.5 -42t10.5 -51t-10.5 -50.5t-27.5 -40.5t-41 -27.5t-51 -10.5h-62v-105q0 -43 -16 -79t-42 -63q-27 -28 -64 -43t-78 -15q-43 0 -79 15t-63 43q-27 27 -42 63t-15 79v105h-60q-27 0 -50 10t-41 28q-37 37 -37 91t37 93q37 37 91 37h60v79h-19q-43 0 -77 15 t-61 42t-41.5 62t-14.5 75z" />
<glyph unicode="&#x168;" horiz-adv-x="1307" d="M27 1239q0 18 5.5 33.5t19.5 26.5t38.5 17t63.5 6q56 0 107.5 -6.5t91.5 -28.5q39 -22 63.5 -61t27.5 -105v-591q0 -37 15 -70.5t43 -59.5t66 -40.5t85 -14.5q40 0 77.5 15t67.5 40q30 26 47 60t17 70l-2 577q-1 33 -9 68q-8 36 -8 64q0 18 5.5 33.5t19.5 26.5t38.5 17 t62.5 6q52 0 103 -6.5t94 -27.5q43 -22 69 -60.5t26 -106.5l2 -590q-2 -80 -25.5 -154t-65.5 -138q-42 -66 -97.5 -119t-123.5 -92t-143 -60.5t-155 -21.5q-81 0 -157.5 21t-144.5 59t-124 91t-97 119q-41 65 -63.5 139.5t-22.5 155.5l1 576q-1 16 -3.5 33t-6.5 35 q-8 36 -8 64zM341 1546q0 85 55 142q27 29 67.5 45.5t86.5 16.5q43 0 71.5 -15t51.5 -32q23 -18 43.5 -33.5t48.5 -15.5q22 0 30 14t16 33q8 17 23 31.5t51 14.5q15 0 32.5 -5t31.5 -18t23 -34t9 -53q0 -34 -15.5 -68t-43.5 -62q-29 -28 -68.5 -44.5t-88.5 -16.5 q-43 0 -69 15.5t-47 33.5q-20 17 -41 32.5t-53 15.5q-20 0 -28.5 -11t-14.5 -27q-6 -15 -15.5 -30t-31.5 -21q-11 -4 -30 -4q-47 0 -70.5 28.5t-23.5 67.5z" />
<glyph unicode="&#x169;" horiz-adv-x="1247" d="M106 496v317q0 41 16 77t44 62q27 27 62.5 43t76.5 16t78 -16t64 -43q28 -27 44.5 -62.5t16.5 -76.5v-317q0 -25 8 -47.5t24 -39.5q15 -17 35.5 -27.5t45.5 -10.5t46.5 10t38.5 28q16 17 25 39.5t9 47.5v315q0 43 16 79t43 63t62.5 42.5t78.5 15.5t79.5 -15.5t63.5 -42.5 q27 -28 42.5 -63.5t15.5 -78.5v-721q0 -111 -111 -110q-50 0 -84.5 24.5t-59.5 73.5q-52 -37 -101 -57t-92 -29t-77 -10.5t-57 -1.5q-108 0 -191 40t-142 111q-58 71 -89 164t-31 201zM301 1238q0 85 55 141q27 29 67.5 46t86.5 17q43 0 71.5 -15t51.5 -32 q23 -18 43.5 -33.5t48.5 -15.5q22 0 30 14t16 33q8 17 23 31.5t51 14.5q15 0 32.5 -5.5t31.5 -17.5q14 -13 23 -34t9 -53q0 -34 -15.5 -68t-43.5 -62q-29 -28 -68.5 -44.5t-88.5 -16.5q-43 0 -69 15t-47 34q-20 17 -41 32.5t-53 15.5q-20 0 -28.5 -11.5t-14.5 -26.5 t-15.5 -30t-31.5 -21q-11 -4 -30 -4q-47 0 -70.5 28.5t-23.5 67.5z" />
<glyph unicode="&#x16a;" horiz-adv-x="1307" d="M27 1239q0 18 5.5 33.5t19.5 26.5t38.5 17t63.5 6q56 0 107.5 -6.5t91.5 -28.5q39 -22 63.5 -61t27.5 -105v-591q0 -37 15 -70.5t43 -59.5t66 -40.5t85 -14.5q40 0 77.5 15t67.5 40q30 26 47 60t17 70l-2 577q-1 33 -9 68q-8 36 -8 64q0 18 5.5 33.5t19.5 26.5t38.5 17 t62.5 6q52 0 103 -6.5t94 -27.5q43 -22 69 -60.5t26 -106.5l2 -590q-2 -80 -25.5 -154t-65.5 -138q-42 -66 -97.5 -119t-123.5 -92t-143 -60.5t-155 -21.5q-81 0 -157.5 21t-144.5 59t-124 91t-97 119q-41 65 -63.5 139.5t-22.5 155.5l1 576q-1 16 -3.5 33t-6.5 35 q-8 36 -8 64zM269 1554q0 54 37 94q37 36 91 36h521q55 0 92 -36q17 -18 27.5 -42t10.5 -52q0 -27 -10.5 -50t-27.5 -41q-17 -17 -41 -27.5t-51 -10.5h-521q-27 0 -50 10.5t-41 27.5q-37 37 -37 91z" />
<glyph unicode="&#x16b;" horiz-adv-x="1246" d="M106 496v317q0 41 16 77t44 62q27 27 62.5 43t76.5 16t78 -16t64 -43q28 -27 44.5 -62.5t16.5 -76.5v-317q0 -25 8 -47.5t24 -39.5q15 -17 35.5 -27.5t45.5 -10.5t46.5 10t38.5 28q16 17 25 39.5t9 47.5v315q0 43 16 79t43 63t62.5 42.5t78.5 15.5t79.5 -15.5t63.5 -42.5 q27 -28 42.5 -63.5t15.5 -78.5v-721q0 -111 -111 -110q-50 0 -84.5 24.5t-59.5 73.5q-52 -37 -101 -57t-92 -29t-77 -10.5t-57 -1.5q-108 0 -191 40t-142 111q-58 71 -89 164t-31 201zM230 1203q0 54 37 93q37 37 91 37h521q55 0 92 -37q17 -18 27.5 -41.5t10.5 -51.5 q0 -27 -10.5 -50.5t-27.5 -40.5t-41 -27.5t-51 -10.5h-521q-27 0 -50 10.5t-41 27.5q-37 37 -37 91z" />
<glyph unicode="&#x16c;" horiz-adv-x="1307" d="M27 1239q0 18 5.5 33.5t19.5 26.5t38.5 17t63.5 6q56 0 107.5 -6.5t91.5 -28.5q39 -22 63.5 -61t27.5 -105v-591q0 -37 15 -70.5t43 -59.5t66 -40.5t85 -14.5q40 0 77.5 15t67.5 40q30 26 47 60t17 70l-2 577q-1 33 -9 68q-8 36 -8 64q0 18 5.5 33.5t19.5 26.5t38.5 17 t62.5 6q52 0 103 -6.5t94 -27.5q43 -22 69 -60.5t26 -106.5l2 -590q-2 -80 -25.5 -154t-65.5 -138q-42 -66 -97.5 -119t-123.5 -92t-143 -60.5t-155 -21.5q-81 0 -157.5 21t-144.5 59t-124 91t-97 119q-41 65 -63.5 139.5t-22.5 155.5l1 576q-1 16 -3.5 33t-6.5 35 q-8 36 -8 64zM387 1636q0 25 10 46t27 37q17 15 38.5 24.5t46.5 9.5q31 0 46.5 -9.5t24.5 -24.5q4 -7 6 -15l4 -16q3 -17 7.5 -32t14.5 -24q10 -10 33 -10q22 0 32 9.5t15 24.5q5 16 8 32q2 17 10 31.5t24 24.5q17 9 47 9q26 0 48 -9t38 -25t26 -37.5t10 -45.5 q0 -46 -21 -87.5t-57 -72.5q-36 -32 -82 -51t-98 -19t-97.5 19t-81.5 51t-57.5 73t-21.5 87z" />
<glyph unicode="&#x16d;" horiz-adv-x="1246" d="M106 496v317q0 41 16 77t44 62q27 27 62.5 43t76.5 16t78 -16t64 -43q28 -27 44.5 -62.5t16.5 -76.5v-317q0 -25 8 -47.5t24 -39.5q15 -17 35.5 -27.5t45.5 -10.5t46.5 10t38.5 28q16 17 25 39.5t9 47.5v315q0 43 16 79t43 63t62.5 42.5t78.5 15.5t79.5 -15.5t63.5 -42.5 q27 -28 42.5 -63.5t15.5 -78.5v-721q0 -111 -111 -110q-50 0 -84.5 24.5t-59.5 73.5q-52 -37 -101 -57t-92 -29t-77 -10.5t-57 -1.5q-108 0 -191 40t-142 111q-58 71 -89 164t-31 201zM357 1329q0 25 10 46t27 37q17 15 39 24.5t46 9.5q31 0 47 -10t24 -24q4 -7 6 -15t4 -17 q3 -17 7.5 -31.5t15.5 -23.5q10 -10 32 -10t32 9.5t16 24.5q5 16 8 31q2 17 9.5 31.5t24.5 25.5q17 9 47 9q26 0 47.5 -9.5t38.5 -24.5q16 -16 25.5 -37.5t9.5 -45.5q0 -46 -21 -87.5t-56 -73.5q-36 -32 -82.5 -50.5t-98.5 -18.5t-97.5 19t-81.5 50q-36 32 -57.5 73.5 t-21.5 87.5z" />
<glyph unicode="&#x16e;" horiz-adv-x="1307" d="M27 1239q0 18 5.5 33.5t19.5 26.5t38.5 17t63.5 6q56 0 107.5 -6.5t91.5 -28.5q39 -22 63.5 -61t27.5 -105v-591q0 -37 15 -70.5t43 -59.5t66 -40.5t85 -14.5q40 0 77.5 15t67.5 40q30 26 47 60t17 70l-2 577q-1 33 -9 68q-8 36 -8 64q0 18 5.5 33.5t19.5 26.5t38.5 17 t62.5 6q52 0 103 -6.5t94 -27.5q43 -22 69 -60.5t26 -106.5l2 -590q-2 -80 -25.5 -154t-65.5 -138q-42 -66 -97.5 -119t-123.5 -92t-143 -60.5t-155 -21.5q-81 0 -157.5 21t-144.5 59t-124 91t-97 119q-41 65 -63.5 139.5t-22.5 155.5l1 576q-1 16 -3.5 33t-6.5 35 q-8 36 -8 64zM476 1531q0 37 14 69t38 57t56 38.5t69 13.5t69.5 -14t56.5 -38q24 -25 37.5 -57t13.5 -69t-13.5 -69t-37.5 -56q-25 -25 -57 -38.5t-69 -13.5t-69 13.5t-56 38.5q-25 24 -38.5 56t-13.5 69zM608 1531q0 -19 13 -33t33 -14q18 0 31 13.5t13 33.5 q0 19 -12.5 33.5t-31.5 14.5q-20 0 -33 -14.5t-13 -33.5z" />
<glyph unicode="&#x16f;" horiz-adv-x="1247" d="M106 496v317q0 41 16 77t44 62q27 27 62.5 43t76.5 16t78 -16t64 -43q28 -27 44.5 -62.5t16.5 -76.5v-317q0 -25 8 -47.5t24 -39.5q15 -17 35.5 -27.5t45.5 -10.5t46.5 10t38.5 28q16 17 25 39.5t9 47.5v315q0 43 16 79t43 63t62.5 42.5t78.5 15.5t79.5 -15.5t63.5 -42.5 q27 -28 42.5 -63.5t15.5 -78.5v-721q0 -111 -111 -110q-50 0 -84.5 24.5t-59.5 73.5q-52 -37 -101 -57t-92 -29t-77 -10.5t-57 -1.5q-108 0 -191 40t-142 111q-58 71 -89 164t-31 201zM434 1281q0 37 14 69t38 57t56 38.5t69 13.5t69.5 -13.5t56.5 -38.5t37.5 -57t13.5 -69 t-13.5 -69t-37.5 -56q-25 -25 -57 -38.5t-69 -13.5t-69 14t-56 38q-25 24 -38.5 56t-13.5 69zM566 1281q0 -19 13 -33t33 -14q18 0 31 14t13 33t-12.5 33.5t-31.5 14.5q-20 0 -33 -14.5t-13 -33.5z" />
<glyph unicode="&#x170;" horiz-adv-x="1307" d="M27 1239q0 18 5.5 33.5t19.5 26.5t38.5 17t63.5 6q56 0 107.5 -6.5t91.5 -28.5q39 -22 63.5 -61t27.5 -105v-591q0 -37 15 -70.5t43 -59.5t66 -40.5t85 -14.5q40 0 77.5 15t67.5 40q30 26 47 60t17 70l-2 577q-1 33 -9 68q-8 36 -8 64q0 18 5.5 33.5t19.5 26.5t38.5 17 t62.5 6q52 0 103 -6.5t94 -27.5q43 -22 69 -60.5t26 -106.5l2 -590q-2 -80 -25.5 -154t-65.5 -138q-42 -66 -97.5 -119t-123.5 -92t-143 -60.5t-155 -21.5q-81 0 -157.5 21t-144.5 59t-124 91t-97 119q-41 65 -63.5 139.5t-22.5 155.5l1 576q-1 16 -3.5 33t-6.5 35 q-8 36 -8 64zM194 1526q0 29 24.5 66.5t62.5 72.5q38 34 82 57.5t84 23.5q33 0 63 -15.5t51 -41.5q20 -27 29 -60t0 -66q-8 -28 -36.5 -57t-67.5 -53q-39 -25 -82 -40.5t-79 -15.5q-39 0 -74.5 22t-49.5 60q-5 11 -6 22.5t-1 24.5zM708 1526q0 29 24.5 66.5t62.5 72.5 q38 34 82.5 57.5t84.5 23.5q33 0 62.5 -15.5t50.5 -41.5q20 -27 29 -60t0 -66q-8 -28 -36.5 -57t-67.5 -53q-39 -25 -81.5 -40.5t-79.5 -15.5q-39 0 -74.5 22t-49.5 60q-5 11 -6 22.5t-1 24.5z" />
<glyph unicode="&#x171;" horiz-adv-x="1246" d="M106 496v317q0 41 16 77t44 62q27 27 62.5 43t76.5 16t78 -16t64 -43q28 -27 44.5 -62.5t16.5 -76.5v-317q0 -25 8 -47.5t24 -39.5q15 -17 35.5 -27.5t45.5 -10.5t46.5 10t38.5 28q16 17 25 39.5t9 47.5v315q0 43 16 79t43 63t62.5 42.5t78.5 15.5t79.5 -15.5t63.5 -42.5 q27 -28 42.5 -63.5t15.5 -78.5v-721q0 -111 -111 -110q-50 0 -84.5 24.5t-59.5 73.5q-52 -37 -101 -57t-92 -29t-77 -10.5t-57 -1.5q-108 0 -191 40t-142 111q-58 71 -89 164t-31 201zM209 1233q0 29 24.5 66.5t62.5 72.5q38 34 82.5 57.5t84.5 23.5q33 0 62.5 -15.5 t51.5 -41.5q20 -27 28.5 -59.5t-0.5 -66.5q-8 -28 -36 -57t-67 -53q-39 -25 -82 -40.5t-80 -15.5q-39 0 -74.5 22t-49.5 60q-5 11 -6 23t-1 24zM723 1233q0 29 24.5 66.5t62.5 72.5q38 34 82.5 57.5t84.5 23.5q33 0 62.5 -15.5t51.5 -41.5q20 -27 28.5 -59.5t-0.5 -66.5 q-8 -28 -36 -57t-67 -53q-39 -25 -82 -40.5t-80 -15.5q-39 0 -74.5 22t-49.5 60q-5 11 -6 23t-1 24z" />
<glyph unicode="&#x172;" horiz-adv-x="1307" d="M27 1239q0 18 5.5 33.5t19.5 26.5t38.5 17t63.5 6q56 0 107.5 -6.5t91.5 -28.5q39 -22 63.5 -61t27.5 -105v-591q0 -37 15 -70.5t43 -59.5t66 -40.5t85 -14.5q40 0 77.5 15t67.5 40q30 26 47 60t17 70l-2 577q-1 33 -9 68q-8 36 -8 64q0 18 5.5 33.5t19.5 26.5t38.5 17 t62.5 6q52 0 103 -6.5t94 -27.5q43 -22 69 -60.5t26 -106.5l2 -590q-2 -80 -25.5 -154t-65.5 -138q-54 -84 -130 -148l-1 -1l-84 -76q-52 -47 -77 -74q-26 -30 -26 -56q0 -24 12 -39.5t39 -15.5q19 0 29.5 9.5t16.5 24.5q3 7 6.5 15t6.5 17q5 17 15.5 31t29.5 24q18 9 51 9 q15 0 31.5 -5.5t29.5 -16.5t22 -26t9 -34q0 -55 -20 -101.5t-56 -81.5t-82.5 -54.5t-101.5 -19.5t-103.5 19.5t-83.5 54.5q-36 35 -56.5 81.5t-20.5 101.5q0 35 11 69q-77 2 -150 23t-138 57q-68 38 -124 91t-97 119q-41 65 -63.5 140t-22.5 155l1 576q-1 16 -3.5 33 t-6.5 35q-8 36 -8 64z" />
<glyph unicode="&#x173;" horiz-adv-x="1246" d="M106 496v317q0 41 16 77t44 62q27 27 62.5 43t76.5 16t78 -16t64 -43q28 -27 44.5 -62.5t16.5 -76.5v-317q0 -25 8 -47.5t24 -39.5q15 -17 35.5 -27.5t45.5 -10.5t46.5 10t38.5 28q16 17 25 39.5t9 47.5v315q0 43 16 79t43 63t62.5 42.5t78.5 15.5t79.5 -15.5t63.5 -42.5 q27 -28 42.5 -63.5t15.5 -78.5v-721q0 -30 -7 -48q-5 -23 -26 -42l-84 -76q-52 -47 -78 -75q-26 -30 -25 -55q0 -24 11.5 -39.5t39.5 -15.5q19 0 29.5 9.5t16.5 24.5q3 7 6 15l6 16q5 17 16 31t29 25q18 9 51 9q15 0 32 -6t30 -17t22 -26t9 -33q0 -55 -20 -101.5t-56 -81.5 t-82.5 -54.5t-102.5 -19.5q-55 0 -103 19.5t-84 54.5t-56.5 81.5t-20.5 101.5q0 46 17.5 85t53.5 81q24 27 54 56.5t69 63.5q0 1 -2 5q-52 -37 -101 -57t-92 -29t-77 -10.5t-57 -1.5q-108 0 -191 40t-142 111q-58 71 -89 164t-31 201z" />
<glyph unicode="&#x174;" horiz-adv-x="1811" d="M32.5 1126.5q0.5 39.5 15.5 75.5q14 36 42 63.5t67 43.5q39 15 80 15q83 0 141 -56q27 -27 41 -68l205 -599l116 329q11 33 34 56t52 36l9 4q34 13 68.5 12.5t65.5 -12.5q31 -13 55 -36.5t36 -57.5l125 -338l208 606q17 52 60 84t95 39q53 6 99 -12t74 -45 q56 -58 59 -140q-1 -42 -17 -79l-386 -945q-26 -59 -75.5 -91.5t-107.5 -33.5h-16q-6 0 -8 1q-55 5 -99.5 37t-68.5 87l-99 308l-95 -308q-24 -55 -68.5 -86.5t-99.5 -37.5q-3 -1 -15 -1h-9q-58 0 -107.5 33t-75.5 92l-385 945q-16 40 -15.5 79.5zM604 1433q0 24 9 45.5 t26 38.5l181 179q34 34 77.5 36t79.5 -23l194 -192q34 -37 34 -85q0 -49 -34 -86q-38 -38 -86 -36q-24 0 -46 9t-40 27l-95 93l-92 -93q-36 -36 -86 -36q-24 0 -46.5 8.5t-40.5 27.5q-18 18 -26.5 40.5t-8.5 46.5z" />
<glyph unicode="&#x175;" horiz-adv-x="1713" d="M33.5 830q3.5 52 31.5 96q27 43 71 64.5t84 24.5q81 6 144 -45q30 -27 49 -64l127 -347l133 343q15 43 52 70t83 39q34 8 67.5 5t64.5 -18q31 -14 56.5 -37t41.5 -55l122 -347l138 343q15 38 44.5 64t66.5 39q37 11 78 9t80 -21q49 -24 79 -66.5t34 -95.5q2 -26 -2.5 -52 t-16.5 -52l-322 -635q-20 -43 -53 -69t-73 -37q-33 -9 -69.5 -7.5t-70.5 14.5q-35 13 -62.5 37t-39.5 60l-118 326l-127 -324q-12 -31 -34.5 -54t-50.5 -37q-29 -14 -60 -20t-62 -1q-52 5 -94.5 31.5t-67.5 78.5l-301 633q-26 55 -22.5 107zM556 1245q0 24 9 45.5t26 38.5 l181 179q34 34 77.5 36t79.5 -22l194 -193q34 -37 34 -85q0 -49 -34 -86q-38 -38 -86 -36q-24 0 -46 9.5t-40 26.5l-95 93l-92 -93q-36 -36 -86 -36q-24 0 -46.5 9t-40.5 27t-26.5 41t-8.5 46z" />
<glyph unicode="&#x176;" horiz-adv-x="1291" d="M20 1119q-1 38 13.5 74t44.5 67q30 30 67.5 45.5t77.5 16.5q39 1 75 -14t62 -48l287 -363l286 363q26 33 62 48t76 14q39 -1 77.5 -17t68.5 -45q29 -30 43 -66.5t14 -74.5t-15 -74.5t-42 -68.5l-371 -419v-378q0 -43 -16 -79.5t-43 -62.5q-28 -28 -63.5 -43.5 t-78.5 -15.5t-79.5 15.5t-62.5 43.5q-27 27 -42.5 63t-15.5 79v376l-367 421q-28 32 -43 68.5t-15 74.5zM327 1497q0 24 8.5 45.5t25.5 38.5l182 179q34 34 77.5 36t78.5 -22l195 -193q34 -37 34 -85q0 -49 -34 -86q-38 -38 -86 -36q-24 0 -46.5 9.5t-39.5 26.5l-95 93 l-92 -93q-36 -36 -86 -36q-24 0 -46.5 9t-41.5 27q-18 18 -26 41t-8 46z" />
<glyph unicode="&#x177;" horiz-adv-x="1147" d="M56.5 812q-1.5 40 11.5 76q26 75 100 110q38 17 80 20t80 -8q37 -11 66.5 -37.5t42.5 -65.5l147 -433q35 99 59 172.5t41 126.5l28 86q11 34 23.5 62t41.5 54q61 52 145 46q40 -3 68.5 -17.5t55.5 -35.5q27 -23 44 -57t20 -81t-25 -105l-405 -853q-23 -47 -62.5 -81.5 t-89.5 -56.5q-49 -23 -103.5 -34t-107.5 -11q-52 0 -92.5 14.5t-68.5 41.5q-58 53 -59 142q0 59 25.5 91t62.5 47q37 14 77 15t68 1l48 93q-1 1 -4 7.5t-10 20.5q-13 27 -35 69t-49 97q-14 27 -27.5 54t-28.5 54l-149 296q-17 40 -18.5 80zM314 1191q0 24 9 45.5t26 38.5 l181 179q34 34 77.5 36t79.5 -23l195 -192q34 -37 33 -85q0 -49 -33 -86q-38 -38 -86 -36q-24 0 -46.5 9t-39.5 27l-96 93l-92 -93q-36 -36 -86 -36q-24 0 -46 8.5t-41 27.5q-18 18 -26.5 40.5t-8.5 46.5z" />
<glyph unicode="&#x178;" horiz-adv-x="1290" d="M19 1119q-1 38 13.5 74t44.5 67q30 30 67.5 45.5t77.5 16.5q39 1 75 -14t62 -48l287 -363l286 363q26 33 62 48t76 14q39 -1 77.5 -17t67.5 -45q29 -30 43.5 -66.5t14.5 -74.5t-15 -74.5t-43 -68.5l-370 -419v-378q0 -43 -16 -79.5t-43 -62.5q-28 -28 -63.5 -43.5 t-78.5 -15.5t-79.5 15.5t-62.5 43.5q-27 27 -42.5 63t-15.5 79v376l-367 421q-28 32 -43 68.5t-15 74.5zM283 1554q0 34 12.5 63.5t34.5 51.5t51.5 34.5t62.5 12.5t63 -12.5t52 -34.5q22 -23 34.5 -52t12.5 -63t-12.5 -63.5t-34.5 -50.5q-23 -22 -52.5 -34.5t-62.5 -12.5 q-34 0 -63.5 12.5t-50.5 34.5q-22 22 -34.5 51t-12.5 63zM678 1554q0 34 12.5 63.5t35.5 51.5q22 22 51 34.5t62 12.5q34 0 63.5 -12.5t50.5 -34.5q22 -23 34.5 -52t12.5 -63t-12.5 -63.5t-34.5 -50.5q-22 -22 -51.5 -34.5t-62.5 -12.5t-62 12.5t-51 34.5q-23 22 -35.5 51 t-12.5 63z" />
<glyph unicode="&#x179;" horiz-adv-x="1245" d="M65.5 201.5q8.5 64.5 49.5 126.5q58 75 115.5 148.5t115.5 148.5q58 74 115.5 148t116.5 149h-293q-43 0 -79 15t-63 42q-28 27 -43.5 63t-15.5 79t16 79.5t43 64.5q27 27 63 42t79 15h680q41 0 77 -16t64 -42q28 -28 43.5 -64t15.5 -79q0 -39 -14.5 -77t-40.5 -71 l-465 -597h353q99 0 154 -53t55 -143q0 -43 -15.5 -78.5t-43.5 -62.5q-28 -28 -64 -43.5t-77 -15.5h-743q-53 0 -99 28t-73 74q-35 55 -26.5 119.5zM472 1549q0 29 24.5 67t62.5 73q38 34 82.5 57t84.5 23q33 0 62.5 -15t51.5 -42q20 -27 29 -59.5t-1 -66.5q-8 -28 -36 -57 t-67 -52q-39 -25 -82 -41t-80 -16q-39 0 -74 22t-50 60q-5 11 -6 23t-1 24z" />
<glyph unicode="&#x17a;" horiz-adv-x="1157" d="M51 218q2 35 14.5 66.5t37.5 53.5l354 294h-153q-43 0 -80 10.5t-66 32.5q-30 22 -47.5 53t-17.5 74t16 77t44 60q27 25 62.5 38.5t78.5 13.5h524q41 0 77.5 -16t63.5 -42q28 -27 44 -63.5t16 -77.5q0 -39 -20 -80.5t-58 -78.5l-286 -279h196q99 0 159 -43t60 -132 q0 -43 -16 -76.5t-42 -59.5q-28 -26 -64.5 -39.5t-77.5 -13.5h-617q-55 0 -100 28t-72 74q-15 25 -23.5 58t-6.5 68zM480 1270q0 29 24.5 66.5t62.5 72.5q38 34 82.5 57.5t84.5 23.5q33 0 62.5 -15.5t51.5 -41.5q20 -27 29 -60t0 -66q-8 -28 -36.5 -57t-67.5 -53 q-39 -25 -82 -40.5t-80 -15.5q-39 0 -74 22t-50 60q-5 11 -6 22.5t-1 24.5z" />
<glyph unicode="&#x17b;" horiz-adv-x="1245" d="M65.5 201.5q8.5 64.5 49.5 126.5q58 75 115.5 148.5t115.5 148.5q58 74 115.5 148t116.5 149h-293q-43 0 -79 15t-63 42q-28 27 -43.5 63t-15.5 79t16 79.5t43 64.5q27 27 63 42t79 15h680q41 0 77 -16t64 -42q28 -28 43.5 -64t15.5 -79q0 -39 -14.5 -77t-40.5 -71 l-465 -597h353q99 0 154 -53t55 -143q0 -43 -15.5 -78.5t-43.5 -62.5q-28 -28 -64 -43.5t-77 -15.5h-743q-53 0 -99 28t-73 74q-35 55 -26.5 119.5zM421 1590q0 43 15.5 78.5t41.5 62.5q27 27 63.5 41.5t79.5 14.5q41 0 77.5 -15t63.5 -41q27 -27 42.5 -62.5t15.5 -78.5 t-16 -77.5t-42 -61.5q-27 -27 -63.5 -41.5t-77.5 -14.5q-43 0 -79.5 14.5t-63.5 41.5t-42 61.5t-15 77.5z" />
<glyph unicode="&#x17c;" horiz-adv-x="1157" d="M51 218q2 35 14.5 66.5t37.5 53.5l354 294h-153q-43 0 -80 10.5t-66 32.5q-30 22 -47.5 53t-17.5 74t16 77t44 60q27 25 62.5 38.5t78.5 13.5h524q41 0 77.5 -16t63.5 -42q28 -27 44 -63.5t16 -77.5q0 -39 -20 -80.5t-58 -78.5l-286 -279h196q99 0 159 -43t60 -132 q0 -43 -16 -76.5t-42 -59.5q-28 -26 -64.5 -39.5t-77.5 -13.5h-617q-55 0 -100 28t-72 74q-15 25 -23.5 58t-6.5 68zM428 1336q0 43 15.5 78.5t41.5 62.5q27 27 63.5 41.5t79.5 14.5q41 0 77.5 -15t63.5 -41q27 -27 42.5 -62.5t15.5 -78.5t-15.5 -77.5t-42.5 -61.5 t-63.5 -41.5t-77.5 -14.5q-43 0 -79.5 14.5t-63.5 41.5t-42 61.5t-15 77.5z" />
</font>
</defs>
</svg>
