<?xml version="1.0" standalone="no"?>
<!DOCTYPE svg PUBLIC "-//W3C//DTD SVG 1.1//EN" "http://www.w3.org/Graphics/SVG/1.1/DTD/svg11.dtd" >
<svg xmlns="http://www.w3.org/2000/svg" xmlns:xlink="http://www.w3.org/1999/xlink" version="1.1">
<metadata></metadata>
<defs>
<font id="bubbleboddy_neue_trialXBd" horiz-adv-x="1159" >
<font-face units-per-em="2048" ascent="1638" descent="-410" />
<missing-glyph horiz-adv-x="479" />
<glyph horiz-adv-x="0" />
<glyph unicode="&#xd;" horiz-adv-x="479" />
<glyph horiz-adv-x="0" />
<glyph horiz-adv-x="0" />
<glyph unicode=" "  horiz-adv-x="479" />
<glyph unicode="&#x09;" horiz-adv-x="479" />
<glyph unicode="&#xa0;" horiz-adv-x="479" />
<glyph unicode="!" horiz-adv-x="614" d="M106 -20q0 42 15.5 78t42.5 62t64 41t79 15q41 0 78 -15t64 -41t43 -62t16 -78t-16 -78t-43 -62t-64 -41.5t-78 -15.5q-42 0 -79 15.5t-64 41.5t-42.5 62t-15.5 78zM106 463v755q0 41 15.5 77.5t42.5 63.5t64 43t79 16t79 -16t64 -43t42.5 -64t15.5 -77v-755 q0 -41 -16 -77.5t-43 -64t-64 -43.5t-78 -16q-42 0 -78 16t-63.5 43.5t-43.5 64t-16 77.5z" />
<glyph unicode="&#x22;" horiz-adv-x="1029" d="M74 1156q0 40 17 73.5t45 57t64.5 36.5t75.5 13q38 0 74.5 -13.5t65 -37.5t46 -56t17.5 -69l-22 -167q-6 -40 -19.5 -76t-35 -63.5t-53 -43.5t-73.5 -16q-44 0 -74.5 16.5t-51 44.5t-33 63.5t-19.5 74.5zM567 1153q0 39 16 73t43 58.5t63.5 38t77.5 13.5q38 0 74.5 -13.5 t65 -37.5t46 -56t17.5 -69l-24 -167q-6 -40 -19 -76t-34.5 -63.5t-52 -43.5t-73.5 -16q-44 0 -74.5 14.5t-51.5 42t-33.5 63.5t-19.5 79z" />
<glyph unicode="#" horiz-adv-x="1538" d="M51 438q0 42 15.5 78.5t42.5 63.5t64 42.5t79 15.5h963q42 0 79 -15.5t64 -42.5t43 -63.5t16 -78.5t-16 -78.5t-43 -64t-64 -43t-79 -15.5h-963q-42 0 -79 15.5t-64 43t-42.5 64t-15.5 78.5zM147 900q0 42 15.5 78.5t42 63.5t63.5 42.5t80 15.5h964q42 0 78 -15.5 t63.5 -42.5t43 -63.5t15.5 -78.5t-15.5 -79t-43 -64t-63.5 -43t-78 -16h-964q-43 0 -80 16t-63.5 43t-42 64t-15.5 79zM212 151q-6 39 4 80l217 967q10 41 35 73.5t58 52t72.5 26.5t80.5 -3q41 -12 72.5 -37t51 -58t26 -73t-4.5 -82l-216 -967q-11 -41 -35.5 -72t-58 -50.5 t-73.5 -26t-81 3.5q-40 11 -71.5 36t-51 58t-25.5 72zM723.5 158.5q-4.5 39.5 7.5 79.5l216 973q12 40 37.5 71t59 48.5t73 22t79.5 -7.5t70.5 -38t48.5 -60t22 -73t-8 -79l-213 -974q-12 -40 -38 -70.5t-60 -47.5t-73.5 -22t-79.5 7q-41 12 -71 37.5t-48 59.5t-22.5 73.5z " />
<glyph unicode="$" horiz-adv-x="1084" d="M109 281q0 31 12.5 63.5t36.5 56.5q25 27 60.5 43t84.5 16q43 0 84.5 -19t77.5 -64q24 -30 50 -36.5t48 -6.5q27 0 49.5 10.5t22.5 34.5t-22 43t-58.5 38t-82.5 39t-94 44.5t-94 54.5t-82.5 69t-58.5 88.5t-22 112.5q0 90 30.5 169t91 138t150 93t206.5 34 q47 0 108 -14.5t120.5 -42.5t110 -69t77.5 -95q10 -20 15.5 -42.5t5.5 -48.5q0 -89 -53 -135t-141 -46q-20 0 -40 2.5t-40 11t-41 24.5t-43 43q-13 15 -23 31.5t-20.5 30t-24.5 22t-35 8.5q-27 0 -44 -13t-17 -32q0 -11 4.5 -25.5t27.5 -27.5q121 -70 217.5 -131.5 t163.5 -122t103 -124.5t36 -137q0 -72 -23 -131t-60.5 -104.5t-86 -78.5t-100 -55.5t-102 -32.5t-91.5 -10q-133 0 -227 30.5t-153.5 78.5t-86.5 105t-27 110zM389 1122v159q0 43 16 80.5t43.5 65.5t64.5 44t79 16q52 0 90.5 -19t64 -52t38.5 -76.5t13 -92.5v-133zM396 35 v110l399 -8v-102q0 -42 -16 -78.5t-43 -63.5t-64 -42.5t-78 -15.5q-42 0 -78 15.5t-62.5 42.5t-42 63.5t-15.5 78.5z" />
<glyph unicode="%" horiz-adv-x="1620" d="M41 1030q0 60 22.5 113.5t61.5 93t91.5 62.5t113.5 23q60 0 113.5 -23t93.5 -62.5t63 -92.5t23 -114q0 -60 -23 -113.5t-63 -92.5t-93.5 -61.5t-113.5 -22.5t-113 22.5t-92 61.5t-61.5 92.5t-22.5 113.5zM284 1030q0 -30 10 -42.5t34 -12.5q27 0 38.5 12.5t11.5 42.5 q0 55 -50 55q-44 0 -44 -55zM434 138q-6 32 6 68q30 90 52.5 158.5t41.5 124t34.5 101t30 89t30 89.5t34.5 101.5t42.5 124t53.5 158.5q8 33 25.5 61.5t39.5 50.5q22 20 50.5 34t60.5 20q43 7 81.5 -3.5t67.5 -32t48.5 -52t24.5 -62.5q3 -19 2 -37.5t-5 -36.5l-53 -159 t-41.5 -124t-33.5 -101t-30 -89.5t-30.5 -89.5t-34.5 -101t-42 -123.5t-52 -159.5q-19 -67 -61.5 -111t-103.5 -53q-41 -6 -81 3t-73 30t-55.5 52.5t-28.5 69.5zM973 292q0 60 22.5 113.5t61.5 93t91.5 62.5t113.5 23q60 0 113 -23t93 -62.5t63 -93t23 -113.5t-23 -113.5 t-63 -92.5t-93 -61.5t-113 -22.5t-113 22.5t-92 61.5t-61.5 92.5t-22.5 113.5zM1215 292q0 -30 10.5 -42.5t34.5 -12.5q27 0 38.5 12.5t11.5 42.5q0 55 -50 55q-45 0 -45 -55z" />
<glyph unicode="&#x26;" horiz-adv-x="1250" d="M74 455q0 90 29.5 162.5t81.5 128.5q-42 87 -42 186q0 37 7 73q12 71 47.5 131t88.5 104.5t119.5 70t141.5 25.5q77 0 110 -45t33 -119q0 -39 -11 -75.5t-38 -66.5q-24 -26 -46 -34t-39 -13t-27.5 -14.5t-10.5 -36.5q0 -34 29 -34h14t21.5 0.5t21 0.5h12.5l10 -373h-79 q-30 0 -51 -20.5t-21 -50.5q0 -31 21 -52.5t51 -21.5h103v5l387 -280q-22 -58 -72.5 -92t-114.5 -34h-246q-102 0 -191 25t-158.5 75t-115.5 126.5t-61 178.5q-3 17 -3.5 34.5t-0.5 35.5zM396 713q0 40 19.5 74t51 58.5t70.5 39t79 14.5q108 0 214.5 0.5t213.5 0.5 q39 0 73.5 -14.5t59.5 -39.5t40 -59t15 -74q0 -39 -15 -73t-40 -59t-59.5 -40t-73.5 -15h-418q-40 0 -81 15t-74.5 40t-54 59t-20.5 73zM650 180v699q0 41 15.5 77.5t42 64t63.5 43t79 15.5t78.5 -15.5t63.5 -43t43 -64t16 -77.5v-699q0 -42 -16 -78.5t-43 -64t-63.5 -42.5 t-78.5 -15t-79 15t-63.5 42.5t-42 64t-15.5 78.5z" />
<glyph unicode="'" horiz-adv-x="534" d="M66 993v144q0 41 15 77.5t42.5 63.5t64 42.5t78.5 15.5t79 -15.5t64 -42.5t42.5 -63.5t15.5 -77.5v-144q0 -42 -15.5 -78t-42.5 -63t-64 -42.5t-79 -15.5t-78.5 15.5t-64 42.5t-42.5 63t-15 78z" />
<glyph unicode="(" horiz-adv-x="764" d="M106 89v827q2 86 36.5 162t92 133t133.5 89.5t162 32.5q55 0 101 -22q46 -24 73 -67t27 -98q0 -42 -16 -80.5t-43 -68.5t-63.5 -48t-78.5 -18q-23 0 -22 -24v-818q0 -23 22 -22q41 0 77.5 -18t64 -48.5t43.5 -69t16 -79.5q0 -42 -16 -77t-43 -59.5t-63.5 -38.5t-78.5 -14 q-88 0 -164.5 34t-134.5 91.5t-91.5 135t-33.5 165.5z" />
<glyph unicode=")" horiz-adv-x="760" d="M31 -141q0 28 8.5 60t30 62t58 53.5t91.5 33.5q1 0 7 1.5t13 4.5t12 7.5t5 10.5v818q0 11 -6.5 17.5t-18.5 6.5q-41 0 -77 18t-64 48t-43.5 68.5t-15.5 80.5q0 56 27.5 98t72.5 67q48 23 100 22q86 0 162.5 -32.5t134 -89.5t91.5 -132.5t36 -161.5v-828q0 -88 -33 -165.5 t-90.5 -135t-135 -91.5t-165.5 -34q-40 0 -76 14.5t-64 40t-44 61t-16 77.5z" />
<glyph unicode="*" horiz-adv-x="917" d="M34 839q-6 33 0.5 65t24.5 60t47 48l31 21l-15 11q-30 20 -48 48.5t-23.5 61t1.5 65.5t28 63q18 26 42 42.5t52 24.5t56.5 6t56.5 -15q17 47 57.5 77t93.5 30t94 -30.5t59 -77.5q27 9 55 10t54.5 -8t49.5 -26t40 -41q20 -31 26 -64.5t-0.5 -66t-25 -61t-48.5 -48.5l-7 -5 l28 -19q29 -20 47 -48.5t24.5 -61t0 -65.5t-26.5 -63q-18 -27 -43.5 -43.5t-53.5 -24.5t-57.5 -6t-57.5 15q-6 -28 -20.5 -50.5t-35.5 -39.5t-47 -26t-55 -9q-60 0 -103 36t-54 93q-30 -15 -61.5 -18.5t-60.5 4.5t-54.5 27t-44.5 46q-20 30 -26 63z" />
<glyph unicode="+" horiz-adv-x="972" d="M96 537q0 28 10 51t27.5 41t41 28t49.5 10h520q28 0 51.5 -10t41 -28t27.5 -41.5t10 -50.5t-10 -50.5t-27.5 -41t-41 -27.5t-51.5 -10h-520q-27 0 -50 10t-40.5 27.5t-27.5 41t-10 50.5zM354 280v520q0 27 10.5 50t28 40.5t41 27.5t49.5 10q28 0 51.5 -10t41.5 -27.5 t27.5 -41t9.5 -49.5v-520q0 -28 -9.5 -51.5t-27.5 -41t-41.5 -27.5t-51.5 -10q-27 0 -50 10t-40.5 27.5t-28 41t-10.5 51.5z" />
<glyph unicode="," horiz-adv-x="609" d="M104 176q0 41 15.5 77t42.5 62t64 41t79 15q36 0 72 -13.5t64.5 -38.5t46.5 -61.5t18 -81.5q0 -63 -26 -123.5t-68 -108t-94.5 -77.5t-104.5 -33q-42 0 -64 36.5t-32 90.5q-10 52 -11.5 111t-1.5 104z" />
<glyph unicode="-" horiz-adv-x="969" d="M96 454q0 28 10 51t27.5 41t41 28t49.5 10h520q28 0 51.5 -10t41 -28t27.5 -41.5t10 -50.5t-10 -50.5t-27.5 -41t-41 -27.5t-51.5 -10h-520q-27 0 -50 10t-40.5 27.5t-27.5 41t-10 50.5z" />
<glyph unicode="." horiz-adv-x="520" d="M59 176q0 41 15.5 77t42.5 62t64 41t79 15q41 0 78 -15t64 -41t43 -62t16 -77q0 -42 -16 -78.5t-43 -62.5t-64 -40.5t-78 -14.5q-42 0 -79 14.5t-64 40.5t-42.5 62.5t-15.5 78.5z" />
<glyph unicode="/" horiz-adv-x="1218" d="M56.5 -256.5q-10.5 46.5 15.5 94.5q176 336 351.5 671.5t352.5 672.5q14 30 35.5 55t46.5 42q55 37 118 37q44 0 80.5 -16.5t62 -42.5t39 -59t13.5 -65q0 -19 -4 -37.5t-10 -35.5q-177 -338 -351.5 -671.5t-350.5 -671.5q-31 -62 -79 -99t-112 -37q-44 0 -89 22t-76.5 58 t-42 82.5z" />
<glyph unicode="0" horiz-adv-x="3575" d="M125 166q0 6 1 12t3 12t4.5 12.5t5.5 12.5q3 5 6 9t9 9q8 8 20 15q11 7 23 10q6 2 12 3t12 1q11 0 20.5 -2.5t18.5 -5.5q8 -5 15.5 -9.5t13.5 -11.5q0 -2 -1 -2t-3 -2l-2 -2q-2 -2 -3 -2h-1h-7h-4t-4 2q-5 3 -9.5 6t-10.5 5q-5 2 -11 2h-12q-8 0 -15 -1t-15 -3 q-12 -7 -21 -17q-6 -5 -9.5 -10.5t-6.5 -13.5q-6 -12 -7 -29v-9t3 -10q2 -10 8 -18q3 -5 6 -8t6 -8q6 -6 14 -11q5 -3 9.5 -4.5t9.5 -3.5t9.5 -2h10.5h12.5t12.5 2t11 4.5l11 5.5v39h-14q-2 0 -4 1t-4 1q-2 2 -3 2t-3 3q0 2 -1 3t-1 3q-2 2 -2 6v2h51v-72q-3 -5 -6 -7t-9 -5 q-3 -2 -6 -3t-8 -1q-5 -2 -9 -3t-9 -1h-21h-12t-12 2q-11 3 -23 10q-12 6 -20 14q-9 9 -15 21q-7 10 -10 21q-2 7 -3 13.5t-1 12.5zM125 -274q0 4 1 7.5t1 6.5q2 3 2 6t2 6l6 12q4 3 8 11l129 174h-141v51h215v-25v-14q-2 -3 -3 -6t-3 -6l-145 -193q2 0 4 2q2 0 4 2h4h139 v-51h-223v17zM133 326v784h1223q0 81 30 154q32 73 84 125q54 51 125 81q71 31 150 31q87 0 156 -33q71 -34 122 -86q51 -54 82 -125t31 -147h1221v-784h-3224zM301 459h29v76h45q6 0 12 1t12 3q12 6 21 14q8 8 14 20q2 6 3 12.5t1 12.5q0 8 -1 14t-3 13q-3 5 -6 9t-8 9 t-9.5 8.5t-11.5 5.5q-12 6 -24 7h-74v-205zM330 561v74h45q3 0 6 -1t8 -3q3 0 5.5 -2t4.5 -4q4 -4 9 -13q2 -4 2 -14v-7t-2 -7q-4 -8 -9 -11q-4 -5 -10 -8q-5 -2 -8 -3t-6 -1h-45zM336 74v186h113v-22h-93v-60h74v-20h-74v-64h93v-20h-113zM385 0h186v-51h-133v-68h107v-51 h-107v-70h133v-51h-186v291zM459 459h127v26h-99v62h80v28h-80v60h99v29h-127v-205zM471 238v22h141v-22h-59v-164h-23v164h-59zM582 0h223v-51h-86v-240h-53v240h-84v51zM629 459h28v84h31l53 -72q3 -7 11 -10q2 -2 6.5 -2h9.5h18l-65 88q5 2 9 3t7 5q8 3 15 12q5 6 8 17 q2 5 2 9v8q0 8 -0.5 14t-3.5 12q-2 5 -5.5 9t-7.5 9q-9 9 -18 12q-12 6 -25 7h-73v-205zM657 571v64h45q4 0 13 -4q7 0 10 -6q3 -2 4.5 -4.5t3.5 -4.5q0 -3 1 -6.5t1 -8.5q0 -2 -1 -5t-1 -6q-2 -2 -3.5 -4.5t-4.5 -5.5q-2 -2 -10 -7q-4 -2 -13 -2h-45zM729 74v186h113v-22 h-92v-64h77v-20h-77v-80h-21zM760 -291l127 291h49l125 -291h-33q-11 0 -20 6q-5 3 -8.5 7.5t-6.5 8.5l-16 40h-131l-19 -40q0 -3 -4 -7q-2 -3 -4 -5l-4 -4q-3 -2 -5 -3t-5 -1q-3 -2 -5.5 -2h-4.5h-35zM795 496q2 -2 2 -3t2 -1q0 -2 1 -3.5t1 -3.5q4 -4 5 -6q4 -5 7 -5 q9 -10 20 -13.5t25 -3.5q8 0 14.5 0.5t14.5 3.5q11 3 20 13q12 10 17 20q6 12 6 24q0 29 -23 45q-2 2 -4 3t-4 3q-3 2 -5 2t-5 2q-2 2 -4 2t-6 3q-2 0 -11 4q-5 2 -9 3t-7 3q-5 2 -7 3t-5 3q-4 4 -6 7q-1 3 -1 11q0 6 1 11q2 2 3.5 4t4.5 4q2 0 10 4q4 2 12 2q3 0 5.5 -1 t4.5 -1q3 -2 7 -3t6 -3q8 -4 12 -4q8 0 14 6l7 4q-2 3 -5 5t-6 5t-6 5t-6 5q-3 2 -7 3t-9 4q-8 4 -17 4q-6 0 -11 -1t-11 -3t-11 -5l-10 -6q-3 -3 -6 -7t-6 -9q-6 -9 -6 -23q0 -8 1.5 -12.5t4.5 -9.5q3 -10 12 -17q7 -7 19 -10q5 -3 9.5 -5t10.5 -5q3 -2 6 -2.5t8 -1.5 q3 -2 7 -3t6 -3q3 -3 5.5 -5t4.5 -6q2 -3 3 -6t1 -8q0 -6 -4 -14q-3 -7 -10 -10q-2 -3 -5.5 -5t-7.5 -4q-5 0 -8 -1t-8 -1q-3 0 -7 1t-7 1q-8 4 -11 9l-4 2q-6 6 -16 6q-7 0 -10 -4zM868 -176h86l-39 88q-2 3 -2 5.5t-2 4.5v8q0 -4 -2 -8q0 -2 -1 -4.5t-1 -5.5zM879 145v115 h20v-115q0 -6 0.5 -10.5t3.5 -9.5q2 -6 4.5 -9.5t5.5 -9.5q5 -3 9 -5.5t10 -4.5q5 -3 9.5 -3.5t10.5 -0.5t11 0.5t10 3.5q11 4 16 10q5 5 7 9l5 10q2 5 3.5 9.5t1.5 10.5v115h20v-115q0 -16 -6 -28q-3 -8 -6 -14t-8 -11q-6 -5 -12.5 -9t-12.5 -7q-6 -2 -13 -3t-16 -1 q-8 0 -15 1t-13 3q-13 5 -25 16q-5 5 -9 11t-6 14q-4 6 -4.5 13t-0.5 15zM952 559q0 -9 1.5 -19.5t7.5 -19.5q5 -11 10.5 -18.5t11.5 -16.5q8 -6 16 -11.5t17 -8.5q19 -8 41 -8h14t14 2q6 3 12.5 5t12.5 7q10 5 23 14q3 5 7 11t7 12q5 6 7 12t5 12q2 8 2 14v13v15.5t-2 13.5 q-3 8 -5 14t-7 12q-3 5 -7 10.5t-7 10.5q-6 5 -11.5 8t-11.5 8q-6 3 -12 5.5t-13 5.5q-8 2 -14 3t-14 1q-6 0 -13.5 -1t-13.5 -3q-8 -2 -14 -5l-12 -6q-5 -5 -10.5 -8t-10.5 -8t-9 -10t-7 -11l-6 -12t-5 -14q-2 -6 -3 -13.5t-1 -15.5zM981 559q0 18 6 31q3 8 6.5 13.5 t10.5 10.5q5 6 10.5 10t13.5 7q13 6 29 6q15 0 30 -6q6 -3 12.5 -7t12.5 -10q11 -11 16 -24q6 -12 7 -31q0 -13 -7 -29q-3 -6 -7 -12t-9 -12q-6 -5 -12 -9t-13 -8q-15 -6 -30 -6t-29 6q-13 5 -24 17q-6 6 -10 12t-7 12q-6 15 -6 29zM1065 74v186h22v-166h82v-20h-104z M1073 0h187v-51h-134v-74h111v-51h-111v-115h-53v291zM1194 74v186h20v-166h82v-20h-102zM1200 459h29v172v-4q2 -2 2 -3v-1q0 -2 1 -3q0 -1 1 -2l117 -159h24v205h-28v-160q0 5 -1.5 8t-3.5 6l-100 137q-4 4 -8 7q-3 0 -6 1t-6 1h-21v-205zM1278 -145q0 9 0.5 19t3.5 20 q3 9 6 17.5t8 16.5q5 9 11 16t14 15q13 13 29 23q9 4 17 8.5t17 7.5q11 2 20.5 3t20.5 1t20.5 -1t18.5 -3q9 -3 18 -7.5l17 -8.5q9 -5 17 -11t14 -12q6 -8 11.5 -15t10.5 -16q5 -8 9 -16.5t6 -17.5q6 -18 6 -39q0 -20 -6 -39q-2 -9 -5.5 -18.5t-9.5 -18.5q-9 -15 -22 -29 q-6 -6 -14 -11.5t-17 -10.5q-8 -6 -16.5 -10t-18.5 -7q-9 -2 -18 -3t-21 -1q-15 0 -30 2.5t-27 7.5q-14 6 -26 14t-21 19q-22 22 -33 47q-6 14 -8 27.5t-2 30.5zM1329 -145q0 -9 2.5 -18.5t5.5 -18.5q10 -20 21 -31q6 -6 13.5 -10.5t17.5 -9.5q15 -6 36 -7q18 0 37 7 q7 5 15 9.5t16 10.5q6 6 10.5 14t9.5 17q6 18 7 37q0 18 -7 36q-5 9 -9.5 16t-10.5 15q-8 6 -16 10.5t-15 8.5q-16 8 -37 8q-24 0 -36 -8q-9 -4 -17 -8.5t-14 -10.5q-6 -8 -11 -14.5t-10 -16.5q-3 -9 -5.5 -18t-2.5 -18zM1386 260h11q3 0 5 -1t5 -3q2 -2 4 -3.5t2 -4.5 l62 -139q0 -2 1 -3.5t1 -3.5v-6v6q2 2 2 7q8 17 15 34.5t15 34.5q8 18 15.5 35t15.5 35q2 4 6 8q8 4 10 4h13q-11 -24 -21.5 -47.5t-19.5 -46.5q-11 -24 -20.5 -46.5t-20.5 -45.5h-21zM1386 1108q0 -71 29 -137q14 -33 32.5 -61.5t43.5 -53.5q46 -49 113 -78q65 -31 141 -30 q73 0 139 28q65 28 115 78q25 24 43.5 52t34.5 61q27 66 26 141q0 34 -4.5 64.5t-15.5 58.5q-9 27 -24 53t-34 49q-18 22 -38.5 40.5t-44.5 35.5q-25 14 -50.5 25.5t-52.5 19.5q-22 8 -44.5 11t-49.5 3q-76 0 -143 -30q-33 -14 -61 -34t-52 -44q-25 -25 -43.5 -53.5 t-32.5 -61.5q-12 -33 -19.5 -66.5t-7.5 -70.5zM1393 459h16q8 0 11 2q7 5 10 10l14 33h104l15 -33q4 -8 8 -10q2 -2 5.5 -2h6.5h16l-88 205h-28zM1423 1108q0 58 19 111q8 27 21.5 49.5t31.5 46.5h428l-420 -424q-20 24 -35 48.5t-24 51.5q-11 27 -16 56.5t-5 60.5z M1456 532l37 86q2 2 2 5q0 2 1 4t1 4q0 -10 2 -13l37 -86h-80zM1528 866h434q-24 -18 -48.5 -33.5t-51.5 -26.5q-27 -10 -56.5 -16t-60.5 -6q-32 0 -61 6t-56 16q-28 11 -52.5 26.5t-47.5 33.5zM1528 1350q22 20 46.5 35t50.5 26q54 20 120 21q31 0 60.5 -5t56.5 -16 q55 -25 98 -61h-432zM1565 901l422 426q80 -104 79 -219q0 -30 -4 -57t-14 -54q-9 -27 -22.5 -49.5t-30.5 -46.5h-430zM1583 74v186h115v-22h-92v-60h73v-20h-73v-64h92v-20h-115zM1612 0h47q8 0 16 -4t11 -9q15 -20 30.5 -42t30.5 -43q15 -22 30 -43t29 -41q6 -6 6 -13 q2 -3 2.5 -5.5t0.5 -4.5v205h53v-291h-49l-138 195q-4 4 -4 6q-2 4 -6 8q0 2 -4 6q0 2 -1 3t-1 3v-221h-53v291zM1620 459h117v26h-88v179h-29v-205zM1741 74v186h67q5 0 10.5 -1t10.5 -3q5 -3 9 -6t7 -6t6 -7.5t7 -9.5q2 -5 3 -10t1 -10t-1 -9t-3 -10q-2 -10 -9 -16 l-12 -12q-5 -2 -8 -3t-8 -3l59 -80h-12q-8 0 -11 2q-6 2 -10 8l-53 70h-31v-80h-22zM1763 174h45q8 0 13 2q3 2 5 3t5 3q2 3 3 5t3 4q2 4 3 7.5t1 8.5q0 4 -4 12q-2 3 -3 5t-3 5q-3 2 -5 3t-5 4q-4 2 -13 2h-45v-64zM1853 539q0 -6 0.5 -12t3.5 -11q1 -6 3 -10.5t4 -9.5 q3 -5 6 -9.5t8 -7.5q3 -3 7 -6t9 -6t10.5 -4.5t10.5 -3.5t10 -3t10 -1q6 0 12.5 1t11.5 3q12 3 19 8q5 3 8.5 6t8.5 6q3 3 6 7t6 10q5 7 8 20q2 5 3 10.5t1 12.5v125h-28v-125q0 -6 -1 -11.5t-3 -11.5q-3 -5 -5.5 -9t-7.5 -7q-3 -5 -7 -7.5t-8 -5.5q-7 -2 -12 -3t-12 -1 q-5 0 -10 1t-10 3q-5 3 -9 5.5t-8 7.5q-9 6 -12 16q-2 6 -3 11t-1 12v125h-29v-125zM1892 0h224v-51h-84v-240h-54v240h-86v51zM1896 104l5 2l1 2q1 0 1.5 0.5t1.5 0.5h4q8 0 12 -5q3 -5 7 -6.5t7 -3.5q5 -2 8.5 -2h8.5h6t8 2q6 0 12 6q7 3 11 11q4 10 4 14q0 9 -4 15 q-3 6 -9 10q-4 4 -12 8q-4 0 -14 4q-6 2 -11 4l-10 4q-9 3 -16 10q-3 2 -5.5 5.5t-3.5 5.5q-2 5 -3.5 10.5t-1.5 11.5q0 11 6 20q3 8 12 15q7 7 16 10q5 2 11 3t11 1q2 0 6 -1t7 -1q5 -2 8 -3t7 -3q3 -3 5.5 -4.5t4.5 -3.5l8 -8l-4 -5q-4 -4 -10 -4q-8 0 -11 2q-2 2 -3 2 t-3 3q-2 0 -2 1t-2 1t-3 1t-3 1h-5h-8t-7 -2q-3 0 -5.5 -1t-5.5 -4q-2 -3 -4 -5t-2 -5q-4 -4 -4 -10q0 -8 2 -10q2 -4 6 -8q5 -4 13 -7q3 -2 7 -3t9 -3q3 -2 5 -2t5 -2q4 0 8 -4q3 0 5.5 -1t5.5 -3q2 0 6 -4l8 -8t7 -8q1 -7 2 -12t1 -13q0 -6 -1 -11t-2 -12q-4 -5 -7 -9.5 t-8 -6.5q-7 -7 -21 -10q-5 -3 -10.5 -3.5t-11.5 -0.5q-27 0 -41 14q-2 2 -5 4.5t-5 5.5q-4 4 -5 8zM2048 496q0 -2 1 -3q0 -1 1 -1q2 -2 2 -3.5t2 -3.5q4 -4 4 -6q4 -5 8 -5q9 -10 20 -13.5t25 -3.5q8 0 14.5 0.5t11.5 3.5q15 3 24 13q11 10 16 20q3 6 3.5 12t0.5 12 q0 31 -20 45q-4 2 -9 6q-3 2 -5 2t-5 2q-4 2 -5.5 2t-4.5 3q-3 0 -5 1t-5 3q-5 2 -9.5 3t-7.5 3q-9 3 -12 6q-6 3 -6 7q-2 3 -2 11q0 6 2 11q2 2 3.5 4t4.5 4q2 0 10 4q4 2 13 2q3 0 5 -1t5 -1l12 -6q8 -4 12 -4q6 0 13 6l8 4q-2 3 -4.5 5t-5.5 5t-6.5 5t-6.5 5q-3 2 -7 3 t-9 4q-5 2 -8 3t-8 1q-6 0 -12 -1t-11 -3q-6 -2 -10.5 -5t-9.5 -6l-7 -7t-6 -9q-6 -9 -6 -23q0 -8 1.5 -12.5t3.5 -9.5q5 -11 14 -17q7 -7 16 -10q6 -3 11 -5t12 -5q3 -2 6 -2.5t8 -1.5l12 -6q3 -3 5.5 -5t4.5 -6q2 -3 3 -6t1 -8q0 -6 -4 -14q-3 -7 -10 -10q-5 -5 -14 -9 q-3 0 -7 -1t-8 -1q-5 0 -8 1t-6 1q-10 3 -12 9l-2 2q-6 6 -17 6q-8 0 -10 -4zM2054 74v186h23v-186h-23zM2120 166q0 6 1 12t3 12t3.5 12.5t4.5 12.5q4 5 7.5 9t8.5 9t9.5 8.5t9.5 6.5q10 7 21 10q7 2 13.5 3t14.5 1q6 0 12 -1t11 -3q12 -3 24 -10q12 -6 21 -15q5 -5 8 -9 t6 -9q3 -6 5.5 -12t4.5 -13q2 -6 2 -12v-12q0 -20 -6 -37q-8 -17 -20 -31q-16 -14 -31 -20q-20 -6 -37 -6q-23 0 -39 6q-17 6 -29 20q-6 6 -11.5 14t-8.5 17q-5 8 -6.5 18t-1.5 19zM2120 -229q2 0 6 4q4 0 8 4q2 0 4 1t4 1t4 0.5t4 0.5q6 0 13 -3q5 0 8 -1t6 -3q7 -7 16 -11 q5 -2 11 -3t12 -1h7t9 2q3 2 7.5 3.5t7.5 3.5q9 6 12 13q6 7 6 17q0 5 -1 8.5t-3 6.5q-3 3 -6 5.5t-6 4.5q-8 5 -17 8q-8 1 -18 8q-8 2 -15.5 4.5t-15.5 5.5t-14 7.5t-12 9.5q-10 10 -17 22q-8 13 -8 33q0 10 2.5 18.5t5.5 16.5q10 16 21 25q6 4 13 8.5t14 7.5q8 2 17 3 t17 1q6 0 12.5 -1t12.5 -3q13 -3 22 -11q6 -2 11 -6.5t10 -9.5q5 -3 8 -7t6 -9l-10 -8l-6 -4t-9 -4q-5 -2 -8 -3t-6 -1h-4h-4q-3 2 -5 3t-5 3q-2 2 -5 2t-4 2q-2 0 -3.5 1t-4.5 1q-2 2 -8 2h-6t-8 -2q-6 0 -10 -4q-3 -2 -6.5 -5t-4.5 -4q-2 -4 -2 -12t2 -10q1 -3 4 -5t7 -5 q3 -2 7 -3t9 -3t10.5 -4.5t13.5 -4.5l9 -4q9 -3 15.5 -6t14.5 -8q15 -8 23 -19q9 -9 12 -22q6 -12 6 -29q0 -11 -2.5 -19.5t-5.5 -17.5q-5 -9 -10.5 -16.5t-11.5 -14.5q-15 -11 -35 -18q-20 -6 -37 -6q-23 0 -41 6q-9 5 -17 10t-16 13q-5 5 -8 9t-6 9q-5 8 -8 17zM2140 166 q0 -5 1 -9t3 -10t3 -9.5t3 -8.5q3 -5 6.5 -8t6.5 -8q6 -6 14 -11q7 -5 18 -8q5 -2 10 -2h11h9t9 2q4 2 9 3.5t10 4.5q5 2 8 5l6 6q5 5 7 8t5 8q6 8 9 18q2 5 2 9.5v9.5q0 16 -6 29q-3 8 -7 13.5t-10 10.5q-10 10 -22 17q-6 2 -13.5 3t-15.5 1t-15.5 -1t-15.5 -3 q-12 -6 -22 -17q-5 -5 -9.5 -10.5t-7.5 -13.5q-6 -12 -6 -29zM2218 459h127v26h-100v62h79v28h-79v60h100v29h-127v-205zM2333 -262q0 3 1 6.5t1 5.5q4 8 7 10q4 6 11 7q8 4 12 4t13 -4q7 -1 10 -7q5 -3 5 -10q2 -2 3.5 -5.5t1.5 -6.5q0 -5 -5 -12q0 -5 -5 -11q-2 -2 -10 -6 q-4 -2 -13 -2q-8 0 -12 2q-8 4 -11 6q-2 3 -3.5 5t-3.5 6q0 3 -1 6t-1 6zM2345 74v186h14q13 0 17 -8l96 -135q2 -1 2 -2.5t2 -3.5v-5v154h23v-186h-21l-108 153l-3 2v2q0 2 -2 5v-162h-20zM2417 -145q0 20 6 39q2 9 5.5 17.5t8.5 16.5q5 9 11 16t12 15q8 6 14.5 11.5 t15.5 11.5l17 8.5t18 7.5q11 2 20.5 3t18.5 1t17 -0.5t16 -3.5q13 -3 31 -11q12 -5 26 -16q6 -5 12.5 -10.5t12.5 -11.5l-13 -14q-4 -3 -12 -7q-5 -2 -16 -2q-9 0 -19 6q-6 2 -12 6t-14 7q-6 2 -13.5 3t-15.5 1q-9 0 -18 -1.5t-17 -6.5q-9 -4 -16.5 -8.5t-13.5 -10.5 q-8 -8 -13 -14.5t-8 -16.5q-8 -16 -8 -36t8 -37q6 -19 21 -31q6 -6 13.5 -10.5t16.5 -9.5q15 -6 35 -7q8 0 15.5 1t13.5 3q14 3 26 13q2 2 4.5 2t4.5 2q3 1 5.5 1h4.5q8 0 16 -3q8 -4 12 -8l13 -11q-6 -6 -12.5 -11.5t-12.5 -10.5t-13 -9t-13 -8q-8 -5 -15.5 -6.5 t-15.5 -3.5q-8 -3 -16 -3.5t-17 -0.5q-14 0 -28.5 2.5t-28.5 7.5q-26 11 -47 33q-9 11 -17 22t-14 25q-12 28 -12 58zM2462 559q0 -9 1.5 -19.5t6.5 -19.5q3 -11 8.5 -18.5t11.5 -16.5q8 -6 17 -11.5t18 -8.5q16 -8 41 -8h13.5t13.5 2q8 3 14 5t12 7q5 3 10.5 6t10.5 8 q10 10 16 23q3 6 5.5 12t4.5 12l3.5 14t1.5 13q0 8 -1 15.5t-4 13.5q-2 8 -4.5 14t-5.5 12q-3 5 -7 10.5t-9 10.5t-10 8t-11 8q-6 3 -12 5.5t-14 5.5q-6 2 -13.5 3t-13.5 1q-8 0 -14.5 -1t-14.5 -3q-6 -2 -12 -5l-12 -6q-6 -5 -11 -8t-12 -8q-5 -5 -8 -10t-8 -11 q-3 -6 -5 -12t-5 -14q-2 -6 -2 -13.5v-15.5zM2488 559q0 18 6 31q3 8 7.5 13.5t9.5 10.5q6 6 12 10t12 7q8 3 15 4.5t16 1.5q16 0 29 -6q8 -3 13.5 -7t10.5 -10q6 -5 10 -10.5t7 -13.5q6 -12 6 -31q0 -13 -6 -29q-3 -6 -6.5 -12t-10.5 -12q-5 -5 -10.5 -9t-13.5 -8 q-12 -6 -29 -6q-9 0 -15.5 1.5t-15.5 4.5q-6 3 -12 7.5t-12 9.5q-5 6 -9 12l-8 12q-6 15 -6 29zM2634 74v186h114v-22h-94v-64h78v-20h-78v-80h-20zM2697 -145q0 20 6 39q3 9 6.5 17.5t8.5 16.5q5 9 10.5 16t13.5 15q13 13 29 23q9 4 17.5 8.5t17.5 7.5q11 2 20 3t21 1 q9 0 19 -1t20 -3q9 -3 17.5 -7.5t16.5 -8.5q9 -5 16 -11t15 -12q6 -8 12 -15t11 -16q5 -8 8.5 -16.5t5.5 -17.5q6 -18 6 -39q0 -20 -6 -39q-2 -9 -5.5 -18.5t-8.5 -18.5q-9 -15 -23 -29q-8 -6 -14.5 -11.5t-16.5 -10.5q-8 -6 -16.5 -10t-17.5 -7q-9 -2 -19.5 -3t-19.5 -1 q-15 0 -30 2.5t-30 7.5q-12 6 -24 14t-21 19q-22 22 -32 47q-7 14 -10 27.5t-3 30.5zM2707 459h29v172q2 -2 2 -3v-1q0 -4 2 -4q0 -4 2 -5l117 -159h23v205h-29v-160q0 5 -1 8t-3 6l-101 137q-4 4 -8 7q-2 0 -4.5 1t-7.5 1h-21v-205zM2750 -145q0 -9 2 -18.5t7 -18.5 q3 -9 8.5 -17t11.5 -14t14 -10.5t17 -9.5q15 -6 37 -7q18 0 37 7q8 5 15 9.5t15 10.5q6 6 11 14t10 17q6 18 6 37q0 18 -6 36q-5 9 -10 16t-11 15q-8 6 -15 10.5t-15 8.5q-16 8 -37 8q-24 0 -37 -8q-9 -4 -17 -8.5t-14 -10.5q-6 -8 -11.5 -14.5t-8.5 -16.5q-5 -9 -7 -18 t-2 -18zM2771 74v186h65q6 0 11 -1t10 -3q6 -3 9.5 -6t6.5 -6q9 -6 13 -17q2 -5 3 -10t1 -10v-9t-2 -10q-4 -9 -11 -16q-3 -6 -12 -12q-3 -2 -7.5 -3t-8.5 -3l61 -80h-12q-10 0 -14 2q-2 2 -4.5 3.5t-4.5 4.5l-51 70h-33v-80h-20zM2791 174h45q9 0 13 2q8 4 10 6q6 6 6 9 q2 4 3 7.5t1 8.5q0 4 -4 12q0 4 -6 10q-2 2 -10 7q-4 2 -13 2h-45v-64zM2929 166q0 6 1 12t3 12t3.5 12.5t6.5 12.5q2 5 5.5 9t7.5 9t9.5 8.5t10.5 6.5l11 5.5t11 4.5t12.5 3t12.5 1q8 0 14 -1t12 -3q11 -3 23 -10q12 -6 20 -15q5 -5 8.5 -9t6.5 -9l4 -12t4 -13 q3 -6 3.5 -12t0.5 -12q0 -9 -2 -19t-7 -18q-5 -18 -18 -31q-16 -14 -30 -20q-18 -6 -39 -6q-18 0 -37 6q-15 6 -30 20q-13 11 -19 31q-5 8 -6.5 18t-1.5 19zM2933 459h116v26h-90v179h-26v-205zM2949 166q0 -5 1 -9t1 -10q2 -6 4 -9.5t4 -8.5q3 -5 6.5 -8t6.5 -8 q6 -6 14 -11q5 -3 9 -4.5t9 -3.5t9.5 -2h9.5h10.5t9.5 2t9.5 3.5t9.5 4.5q5 2 8 5l6 6q5 5 7 8t5 8q6 8 9 18q2 5 2 9.5v9.5q0 16 -7 29q-3 8 -6.5 13.5t-9.5 10.5q-10 10 -22 17q-8 2 -15.5 3t-15.5 1q-6 0 -13.5 -1t-15.5 -3q-12 -6 -22 -17q-5 -5 -9.5 -10.5t-7.5 -13.5 q-6 -12 -6 -29zM3021 664l74 -101l1 -1q0 -1 0.5 -1.5t0.5 -1.5q2 -2 2 -3t2 -1v-5v-5v-86h28v86q0 2 1 3t1 2v2q0 1 2 3v1q0 1 2 3q0 4 5 4l71 101h-18q-10 0 -15 -5q-3 -2 -5.5 -5t-4.5 -5l-49 -65q-1 0 -2 -1v-1q0 -1 -0.5 -1.5t-0.5 -1.5l-1 -1v4v1l-2 1l-47 65 q-3 2 -5.5 5t-4.5 5q-5 2 -8.5 3.5t-8.5 1.5h-18zM3031 0h53q3 0 6.5 -1t6.5 -1q2 -2 4 -2t4 -2q3 -2 4.5 -4.5t3.5 -3.5q2 -2 3 -4t3 -5q9 -24 17.5 -45t17.5 -43q9 -24 18 -45t17 -43q2 -2 2 -6q0 -2 1 -3t1 -3v-7v-1l2 1v7q0 4 2 6v6l10 21l62 155q0 5 6 9q3 5 8 8 q2 2 5 2t5 2q2 0 4.5 1t5.5 1h54v-291h-54v213q-2 -3 -3 -6t-1 -8q-2 -5 -3 -8t-3 -6l-37 -93q-9 -24 -18 -46t-21 -46h-47l-75 185q-2 3 -3.5 6t-3.5 8q0 4 -4 12v-211h-53v291zM3160 74v186h16q4 0 9 -4q6 -3 6 -8l65 -144v-4q2 -2 2 -3v-1v4.5t2 5.5t2 5.5t1 5.5l61 131 q0 5 6 8q4 4 8 4h19v-186h-21v153h-2v-4v-2q0 -1 -1 -2h-1q-5 -11 -9 -21.5t-7 -19.5q-5 -11 -9.5 -19t-7.5 -19q-5 -8 -9 -16.5t-7 -17.5t-7 -16.5t-7 -15.5h-23q-8 17 -15 35t-16 36t-16.5 37t-15.5 37q-2 0 -2 4v4v-153h-21z" />
<glyph unicode="1" horiz-adv-x="3575" d="M125 166q0 6 1 12t3 12t4.5 12.5t5.5 12.5q3 5 6 9t9 9q8 8 20 15q11 7 23 10q6 2 12 3t12 1q11 0 20.5 -2.5t18.5 -5.5q8 -5 15.5 -9.5t13.5 -11.5q0 -2 -1 -2t-3 -2l-2 -2q-2 -2 -3 -2h-1h-7h-4t-4 2q-5 3 -9.5 6t-10.5 5q-5 2 -11 2h-12q-8 0 -15 -1t-15 -3 q-12 -7 -21 -17q-6 -5 -9.5 -10.5t-6.5 -13.5q-6 -12 -7 -29v-9t3 -10q2 -10 8 -18q3 -5 6 -8t6 -8q6 -6 14 -11q5 -3 9.5 -4.5t9.5 -3.5t9.5 -2h10.5h12.5t12.5 2t11 4.5l11 5.5v39h-14q-2 0 -4 1t-4 1q-2 2 -3 2t-3 3q0 2 -1 3t-1 3q-2 2 -2 6v2h51v-72q-3 -5 -6 -7t-9 -5 q-3 -2 -6 -3t-8 -1q-5 -2 -9 -3t-9 -1h-21h-12t-12 2q-11 3 -23 10q-12 6 -20 14q-9 9 -15 21q-7 10 -10 21q-2 7 -3 13.5t-1 12.5zM125 -274q0 4 1 7.5t1 6.5q2 3 2 6t2 6l6 12q4 3 8 11l129 174h-141v51h215v-25v-14q-2 -3 -3 -6t-3 -6l-145 -193q2 0 4 2q2 0 4 2h4h139 v-51h-223v17zM133 326v784h1223q0 81 30 154q32 73 84 125q54 51 125 81q71 31 150 31q87 0 156 -33q71 -34 122 -86q51 -54 82 -125t31 -147h1221v-784h-3224zM301 459h29v76h45q6 0 12 1t12 3q12 6 21 14q8 8 14 20q2 6 3 12.5t1 12.5q0 8 -1 14t-3 13q-3 5 -6 9t-8 9 t-9.5 8.5t-11.5 5.5q-12 6 -24 7h-74v-205zM330 561v74h45q3 0 6 -1t8 -3q3 0 5.5 -2t4.5 -4q4 -4 9 -13q2 -4 2 -14v-7t-2 -7q-4 -8 -9 -11q-4 -5 -10 -8q-5 -2 -8 -3t-6 -1h-45zM336 74v186h113v-22h-93v-60h74v-20h-74v-64h93v-20h-113zM385 0h186v-51h-133v-68h107v-51 h-107v-70h133v-51h-186v291zM459 459h127v26h-99v62h80v28h-80v60h99v29h-127v-205zM471 238v22h141v-22h-59v-164h-23v164h-59zM582 0h223v-51h-86v-240h-53v240h-84v51zM629 459h28v84h31l53 -72q3 -7 11 -10q2 -2 6.5 -2h9.5h18l-65 88q5 2 9 3t7 5q8 3 15 12q5 6 8 17 q2 5 2 9v8q0 8 -0.5 14t-3.5 12q-2 5 -5.5 9t-7.5 9q-9 9 -18 12q-12 6 -25 7h-73v-205zM657 571v64h45q4 0 13 -4q7 0 10 -6q3 -2 4.5 -4.5t3.5 -4.5q0 -3 1 -6.5t1 -8.5q0 -2 -1 -5t-1 -6q-2 -2 -3.5 -4.5t-4.5 -5.5q-2 -2 -10 -7q-4 -2 -13 -2h-45zM729 74v186h113v-22 h-92v-64h77v-20h-77v-80h-21zM760 -291l127 291h49l125 -291h-33q-11 0 -20 6q-5 3 -8.5 7.5t-6.5 8.5l-16 40h-131l-19 -40q0 -3 -4 -7q-2 -3 -4 -5l-4 -4q-3 -2 -5 -3t-5 -1q-3 -2 -5.5 -2h-4.5h-35zM795 496q2 -2 2 -3t2 -1q0 -2 1 -3.5t1 -3.5q4 -4 5 -6q4 -5 7 -5 q9 -10 20 -13.5t25 -3.5q8 0 14.5 0.5t14.5 3.5q11 3 20 13q12 10 17 20q6 12 6 24q0 29 -23 45q-2 2 -4 3t-4 3q-3 2 -5 2t-5 2q-2 2 -4 2t-6 3q-2 0 -11 4q-5 2 -9 3t-7 3q-5 2 -7 3t-5 3q-4 4 -6 7q-1 3 -1 11q0 6 1 11q2 2 3.5 4t4.5 4q2 0 10 4q4 2 12 2q3 0 5.5 -1 t4.5 -1q3 -2 7 -3t6 -3q8 -4 12 -4q8 0 14 6l7 4q-2 3 -5 5t-6 5t-6 5t-6 5q-3 2 -7 3t-9 4q-8 4 -17 4q-6 0 -11 -1t-11 -3t-11 -5l-10 -6q-3 -3 -6 -7t-6 -9q-6 -9 -6 -23q0 -8 1.5 -12.5t4.5 -9.5q3 -10 12 -17q7 -7 19 -10q5 -3 9.5 -5t10.5 -5q3 -2 6 -2.5t8 -1.5 q3 -2 7 -3t6 -3q3 -3 5.5 -5t4.5 -6q2 -3 3 -6t1 -8q0 -6 -4 -14q-3 -7 -10 -10q-2 -3 -5.5 -5t-7.5 -4q-5 0 -8 -1t-8 -1q-3 0 -7 1t-7 1q-8 4 -11 9l-4 2q-6 6 -16 6q-7 0 -10 -4zM868 -176h86l-39 88q-2 3 -2 5.5t-2 4.5v8q0 -4 -2 -8q0 -2 -1 -4.5t-1 -5.5zM879 145v115 h20v-115q0 -6 0.5 -10.5t3.5 -9.5q2 -6 4.5 -9.5t5.5 -9.5q5 -3 9 -5.5t10 -4.5q5 -3 9.5 -3.5t10.5 -0.5t11 0.5t10 3.5q11 4 16 10q5 5 7 9l5 10q2 5 3.5 9.5t1.5 10.5v115h20v-115q0 -16 -6 -28q-3 -8 -6 -14t-8 -11q-6 -5 -12.5 -9t-12.5 -7q-6 -2 -13 -3t-16 -1 q-8 0 -15 1t-13 3q-13 5 -25 16q-5 5 -9 11t-6 14q-4 6 -4.5 13t-0.5 15zM952 559q0 -9 1.5 -19.5t7.5 -19.5q5 -11 10.5 -18.5t11.5 -16.5q8 -6 16 -11.5t17 -8.5q19 -8 41 -8h14t14 2q6 3 12.5 5t12.5 7q10 5 23 14q3 5 7 11t7 12q5 6 7 12t5 12q2 8 2 14v13v15.5t-2 13.5 q-3 8 -5 14t-7 12q-3 5 -7 10.5t-7 10.5q-6 5 -11.5 8t-11.5 8q-6 3 -12 5.5t-13 5.5q-8 2 -14 3t-14 1q-6 0 -13.5 -1t-13.5 -3q-8 -2 -14 -5l-12 -6q-5 -5 -10.5 -8t-10.5 -8t-9 -10t-7 -11l-6 -12t-5 -14q-2 -6 -3 -13.5t-1 -15.5zM981 559q0 18 6 31q3 8 6.5 13.5 t10.5 10.5q5 6 10.5 10t13.5 7q13 6 29 6q15 0 30 -6q6 -3 12.5 -7t12.5 -10q11 -11 16 -24q6 -12 7 -31q0 -13 -7 -29q-3 -6 -7 -12t-9 -12q-6 -5 -12 -9t-13 -8q-15 -6 -30 -6t-29 6q-13 5 -24 17q-6 6 -10 12t-7 12q-6 15 -6 29zM1065 74v186h22v-166h82v-20h-104z M1073 0h187v-51h-134v-74h111v-51h-111v-115h-53v291zM1194 74v186h20v-166h82v-20h-102zM1200 459h29v172v-4q2 -2 2 -3v-1q0 -2 1 -3q0 -1 1 -2l117 -159h24v205h-28v-160q0 5 -1.5 8t-3.5 6l-100 137q-4 4 -8 7q-3 0 -6 1t-6 1h-21v-205zM1278 -145q0 9 0.5 19t3.5 20 q3 9 6 17.5t8 16.5q5 9 11 16t14 15q13 13 29 23q9 4 17 8.5t17 7.5q11 2 20.5 3t20.5 1t20.5 -1t18.5 -3q9 -3 18 -7.5l17 -8.5q9 -5 17 -11t14 -12q6 -8 11.5 -15t10.5 -16q5 -8 9 -16.5t6 -17.5q6 -18 6 -39q0 -20 -6 -39q-2 -9 -5.5 -18.5t-9.5 -18.5q-9 -15 -22 -29 q-6 -6 -14 -11.5t-17 -10.5q-8 -6 -16.5 -10t-18.5 -7q-9 -2 -18 -3t-21 -1q-15 0 -30 2.5t-27 7.5q-14 6 -26 14t-21 19q-22 22 -33 47q-6 14 -8 27.5t-2 30.5zM1329 -145q0 -9 2.5 -18.5t5.5 -18.5q10 -20 21 -31q6 -6 13.5 -10.5t17.5 -9.5q15 -6 36 -7q18 0 37 7 q7 5 15 9.5t16 10.5q6 6 10.5 14t9.5 17q6 18 7 37q0 18 -7 36q-5 9 -9.5 16t-10.5 15q-8 6 -16 10.5t-15 8.5q-16 8 -37 8q-24 0 -36 -8q-9 -4 -17 -8.5t-14 -10.5q-6 -8 -11 -14.5t-10 -16.5q-3 -9 -5.5 -18t-2.5 -18zM1386 260h11q3 0 5 -1t5 -3q2 -2 4 -3.5t2 -4.5 l62 -139q0 -2 1 -3.5t1 -3.5v-6v6q2 2 2 7q8 17 15 34.5t15 34.5q8 18 15.5 35t15.5 35q2 4 6 8q8 4 10 4h13q-11 -24 -21.5 -47.5t-19.5 -46.5q-11 -24 -20.5 -46.5t-20.5 -45.5h-21zM1386 1108q0 -71 29 -137q14 -33 32.5 -61.5t43.5 -53.5q46 -49 113 -78q65 -31 141 -30 q73 0 139 28q65 28 115 78q25 24 43.5 52t34.5 61q27 66 26 141q0 34 -4.5 64.5t-15.5 58.5q-9 27 -24 53t-34 49q-18 22 -38.5 40.5t-44.5 35.5q-25 14 -50.5 25.5t-52.5 19.5q-22 8 -44.5 11t-49.5 3q-76 0 -143 -30q-33 -14 -61 -34t-52 -44q-25 -25 -43.5 -53.5 t-32.5 -61.5q-12 -33 -19.5 -66.5t-7.5 -70.5zM1393 459h16q8 0 11 2q7 5 10 10l14 33h104l15 -33q4 -8 8 -10q2 -2 5.5 -2h6.5h16l-88 205h-28zM1423 1108q0 58 19 111q8 27 21.5 49.5t31.5 46.5h428l-420 -424q-20 24 -35 48.5t-24 51.5q-11 27 -16 56.5t-5 60.5z M1456 532l37 86q2 2 2 5q0 2 1 4t1 4q0 -10 2 -13l37 -86h-80zM1528 866h434q-24 -18 -48.5 -33.5t-51.5 -26.5q-27 -10 -56.5 -16t-60.5 -6q-32 0 -61 6t-56 16q-28 11 -52.5 26.5t-47.5 33.5zM1528 1350q22 20 46.5 35t50.5 26q54 20 120 21q31 0 60.5 -5t56.5 -16 q55 -25 98 -61h-432zM1565 901l422 426q80 -104 79 -219q0 -30 -4 -57t-14 -54q-9 -27 -22.5 -49.5t-30.5 -46.5h-430zM1583 74v186h115v-22h-92v-60h73v-20h-73v-64h92v-20h-115zM1612 0h47q8 0 16 -4t11 -9q15 -20 30.5 -42t30.5 -43q15 -22 30 -43t29 -41q6 -6 6 -13 q2 -3 2.5 -5.5t0.5 -4.5v205h53v-291h-49l-138 195q-4 4 -4 6q-2 4 -6 8q0 2 -4 6q0 2 -1 3t-1 3v-221h-53v291zM1620 459h117v26h-88v179h-29v-205zM1741 74v186h67q5 0 10.5 -1t10.5 -3q5 -3 9 -6t7 -6t6 -7.5t7 -9.5q2 -5 3 -10t1 -10t-1 -9t-3 -10q-2 -10 -9 -16 l-12 -12q-5 -2 -8 -3t-8 -3l59 -80h-12q-8 0 -11 2q-6 2 -10 8l-53 70h-31v-80h-22zM1763 174h45q8 0 13 2q3 2 5 3t5 3q2 3 3 5t3 4q2 4 3 7.5t1 8.5q0 4 -4 12q-2 3 -3 5t-3 5q-3 2 -5 3t-5 4q-4 2 -13 2h-45v-64zM1853 539q0 -6 0.5 -12t3.5 -11q1 -6 3 -10.5t4 -9.5 q3 -5 6 -9.5t8 -7.5q3 -3 7 -6t9 -6t10.5 -4.5t10.5 -3.5t10 -3t10 -1q6 0 12.5 1t11.5 3q12 3 19 8q5 3 8.5 6t8.5 6q3 3 6 7t6 10q5 7 8 20q2 5 3 10.5t1 12.5v125h-28v-125q0 -6 -1 -11.5t-3 -11.5q-3 -5 -5.5 -9t-7.5 -7q-3 -5 -7 -7.5t-8 -5.5q-7 -2 -12 -3t-12 -1 q-5 0 -10 1t-10 3q-5 3 -9 5.5t-8 7.5q-9 6 -12 16q-2 6 -3 11t-1 12v125h-29v-125zM1892 0h224v-51h-84v-240h-54v240h-86v51zM1896 104l5 2l1 2q1 0 1.5 0.5t1.5 0.5h4q8 0 12 -5q3 -5 7 -6.5t7 -3.5q5 -2 8.5 -2h8.5h6t8 2q6 0 12 6q7 3 11 11q4 10 4 14q0 9 -4 15 q-3 6 -9 10q-4 4 -12 8q-4 0 -14 4q-6 2 -11 4l-10 4q-9 3 -16 10q-3 2 -5.5 5.5t-3.5 5.5q-2 5 -3.5 10.5t-1.5 11.5q0 11 6 20q3 8 12 15q7 7 16 10q5 2 11 3t11 1q2 0 6 -1t7 -1q5 -2 8 -3t7 -3q3 -3 5.5 -4.5t4.5 -3.5l8 -8l-4 -5q-4 -4 -10 -4q-8 0 -11 2q-2 2 -3 2 t-3 3q-2 0 -2 1t-2 1t-3 1t-3 1h-5h-8t-7 -2q-3 0 -5.5 -1t-5.5 -4q-2 -3 -4 -5t-2 -5q-4 -4 -4 -10q0 -8 2 -10q2 -4 6 -8q5 -4 13 -7q3 -2 7 -3t9 -3q3 -2 5 -2t5 -2q4 0 8 -4q3 0 5.5 -1t5.5 -3q2 0 6 -4l8 -8t7 -8q1 -7 2 -12t1 -13q0 -6 -1 -11t-2 -12q-4 -5 -7 -9.5 t-8 -6.5q-7 -7 -21 -10q-5 -3 -10.5 -3.5t-11.5 -0.5q-27 0 -41 14q-2 2 -5 4.5t-5 5.5q-4 4 -5 8zM2048 496q0 -2 1 -3q0 -1 1 -1q2 -2 2 -3.5t2 -3.5q4 -4 4 -6q4 -5 8 -5q9 -10 20 -13.5t25 -3.5q8 0 14.5 0.5t11.5 3.5q15 3 24 13q11 10 16 20q3 6 3.5 12t0.5 12 q0 31 -20 45q-4 2 -9 6q-3 2 -5 2t-5 2q-4 2 -5.5 2t-4.5 3q-3 0 -5 1t-5 3q-5 2 -9.5 3t-7.5 3q-9 3 -12 6q-6 3 -6 7q-2 3 -2 11q0 6 2 11q2 2 3.5 4t4.5 4q2 0 10 4q4 2 13 2q3 0 5 -1t5 -1l12 -6q8 -4 12 -4q6 0 13 6l8 4q-2 3 -4.5 5t-5.5 5t-6.5 5t-6.5 5q-3 2 -7 3 t-9 4q-5 2 -8 3t-8 1q-6 0 -12 -1t-11 -3q-6 -2 -10.5 -5t-9.5 -6l-7 -7t-6 -9q-6 -9 -6 -23q0 -8 1.5 -12.5t3.5 -9.5q5 -11 14 -17q7 -7 16 -10q6 -3 11 -5t12 -5q3 -2 6 -2.5t8 -1.5l12 -6q3 -3 5.5 -5t4.5 -6q2 -3 3 -6t1 -8q0 -6 -4 -14q-3 -7 -10 -10q-5 -5 -14 -9 q-3 0 -7 -1t-8 -1q-5 0 -8 1t-6 1q-10 3 -12 9l-2 2q-6 6 -17 6q-8 0 -10 -4zM2054 74v186h23v-186h-23zM2120 166q0 6 1 12t3 12t3.5 12.5t4.5 12.5q4 5 7.5 9t8.5 9t9.5 8.5t9.5 6.5q10 7 21 10q7 2 13.5 3t14.5 1q6 0 12 -1t11 -3q12 -3 24 -10q12 -6 21 -15q5 -5 8 -9 t6 -9q3 -6 5.5 -12t4.5 -13q2 -6 2 -12v-12q0 -20 -6 -37q-8 -17 -20 -31q-16 -14 -31 -20q-20 -6 -37 -6q-23 0 -39 6q-17 6 -29 20q-6 6 -11.5 14t-8.5 17q-5 8 -6.5 18t-1.5 19zM2120 -229q2 0 6 4q4 0 8 4q2 0 4 1t4 1t4 0.5t4 0.5q6 0 13 -3q5 0 8 -1t6 -3q7 -7 16 -11 q5 -2 11 -3t12 -1h7t9 2q3 2 7.5 3.5t7.5 3.5q9 6 12 13q6 7 6 17q0 5 -1 8.5t-3 6.5q-3 3 -6 5.5t-6 4.5q-8 5 -17 8q-8 1 -18 8q-8 2 -15.5 4.5t-15.5 5.5t-14 7.5t-12 9.5q-10 10 -17 22q-8 13 -8 33q0 10 2.5 18.5t5.5 16.5q10 16 21 25q6 4 13 8.5t14 7.5q8 2 17 3 t17 1q6 0 12.5 -1t12.5 -3q13 -3 22 -11q6 -2 11 -6.5t10 -9.5q5 -3 8 -7t6 -9l-10 -8l-6 -4t-9 -4q-5 -2 -8 -3t-6 -1h-4h-4q-3 2 -5 3t-5 3q-2 2 -5 2t-4 2q-2 0 -3.5 1t-4.5 1q-2 2 -8 2h-6t-8 -2q-6 0 -10 -4q-3 -2 -6.5 -5t-4.5 -4q-2 -4 -2 -12t2 -10q1 -3 4 -5t7 -5 q3 -2 7 -3t9 -3t10.5 -4.5t13.5 -4.5l9 -4q9 -3 15.5 -6t14.5 -8q15 -8 23 -19q9 -9 12 -22q6 -12 6 -29q0 -11 -2.5 -19.5t-5.5 -17.5q-5 -9 -10.5 -16.5t-11.5 -14.5q-15 -11 -35 -18q-20 -6 -37 -6q-23 0 -41 6q-9 5 -17 10t-16 13q-5 5 -8 9t-6 9q-5 8 -8 17zM2140 166 q0 -5 1 -9t3 -10t3 -9.5t3 -8.5q3 -5 6.5 -8t6.5 -8q6 -6 14 -11q7 -5 18 -8q5 -2 10 -2h11h9t9 2q4 2 9 3.5t10 4.5q5 2 8 5l6 6q5 5 7 8t5 8q6 8 9 18q2 5 2 9.5v9.5q0 16 -6 29q-3 8 -7 13.5t-10 10.5q-10 10 -22 17q-6 2 -13.5 3t-15.5 1t-15.5 -1t-15.5 -3 q-12 -6 -22 -17q-5 -5 -9.5 -10.5t-7.5 -13.5q-6 -12 -6 -29zM2218 459h127v26h-100v62h79v28h-79v60h100v29h-127v-205zM2333 -262q0 3 1 6.5t1 5.5q4 8 7 10q4 6 11 7q8 4 12 4t13 -4q7 -1 10 -7q5 -3 5 -10q2 -2 3.5 -5.5t1.5 -6.5q0 -5 -5 -12q0 -5 -5 -11q-2 -2 -10 -6 q-4 -2 -13 -2q-8 0 -12 2q-8 4 -11 6q-2 3 -3.5 5t-3.5 6q0 3 -1 6t-1 6zM2345 74v186h14q13 0 17 -8l96 -135q2 -1 2 -2.5t2 -3.5v-5v154h23v-186h-21l-108 153l-3 2v2q0 2 -2 5v-162h-20zM2417 -145q0 20 6 39q2 9 5.5 17.5t8.5 16.5q5 9 11 16t12 15q8 6 14.5 11.5 t15.5 11.5l17 8.5t18 7.5q11 2 20.5 3t18.5 1t17 -0.5t16 -3.5q13 -3 31 -11q12 -5 26 -16q6 -5 12.5 -10.5t12.5 -11.5l-13 -14q-4 -3 -12 -7q-5 -2 -16 -2q-9 0 -19 6q-6 2 -12 6t-14 7q-6 2 -13.5 3t-15.5 1q-9 0 -18 -1.5t-17 -6.5q-9 -4 -16.5 -8.5t-13.5 -10.5 q-8 -8 -13 -14.5t-8 -16.5q-8 -16 -8 -36t8 -37q6 -19 21 -31q6 -6 13.5 -10.5t16.5 -9.5q15 -6 35 -7q8 0 15.5 1t13.5 3q14 3 26 13q2 2 4.5 2t4.5 2q3 1 5.5 1h4.5q8 0 16 -3q8 -4 12 -8l13 -11q-6 -6 -12.5 -11.5t-12.5 -10.5t-13 -9t-13 -8q-8 -5 -15.5 -6.5 t-15.5 -3.5q-8 -3 -16 -3.5t-17 -0.5q-14 0 -28.5 2.5t-28.5 7.5q-26 11 -47 33q-9 11 -17 22t-14 25q-12 28 -12 58zM2462 559q0 -9 1.5 -19.5t6.5 -19.5q3 -11 8.5 -18.5t11.5 -16.5q8 -6 17 -11.5t18 -8.5q16 -8 41 -8h13.5t13.5 2q8 3 14 5t12 7q5 3 10.5 6t10.5 8 q10 10 16 23q3 6 5.5 12t4.5 12l3.5 14t1.5 13q0 8 -1 15.5t-4 13.5q-2 8 -4.5 14t-5.5 12q-3 5 -7 10.5t-9 10.5t-10 8t-11 8q-6 3 -12 5.5t-14 5.5q-6 2 -13.5 3t-13.5 1q-8 0 -14.5 -1t-14.5 -3q-6 -2 -12 -5l-12 -6q-6 -5 -11 -8t-12 -8q-5 -5 -8 -10t-8 -11 q-3 -6 -5 -12t-5 -14q-2 -6 -2 -13.5v-15.5zM2488 559q0 18 6 31q3 8 7.5 13.5t9.5 10.5q6 6 12 10t12 7q8 3 15 4.5t16 1.5q16 0 29 -6q8 -3 13.5 -7t10.5 -10q6 -5 10 -10.5t7 -13.5q6 -12 6 -31q0 -13 -6 -29q-3 -6 -6.5 -12t-10.5 -12q-5 -5 -10.5 -9t-13.5 -8 q-12 -6 -29 -6q-9 0 -15.5 1.5t-15.5 4.5q-6 3 -12 7.5t-12 9.5q-5 6 -9 12l-8 12q-6 15 -6 29zM2634 74v186h114v-22h-94v-64h78v-20h-78v-80h-20zM2697 -145q0 20 6 39q3 9 6.5 17.5t8.5 16.5q5 9 10.5 16t13.5 15q13 13 29 23q9 4 17.5 8.5t17.5 7.5q11 2 20 3t21 1 q9 0 19 -1t20 -3q9 -3 17.5 -7.5t16.5 -8.5q9 -5 16 -11t15 -12q6 -8 12 -15t11 -16q5 -8 8.5 -16.5t5.5 -17.5q6 -18 6 -39q0 -20 -6 -39q-2 -9 -5.5 -18.5t-8.5 -18.5q-9 -15 -23 -29q-8 -6 -14.5 -11.5t-16.5 -10.5q-8 -6 -16.5 -10t-17.5 -7q-9 -2 -19.5 -3t-19.5 -1 q-15 0 -30 2.5t-30 7.5q-12 6 -24 14t-21 19q-22 22 -32 47q-7 14 -10 27.5t-3 30.5zM2707 459h29v172q2 -2 2 -3v-1q0 -4 2 -4q0 -4 2 -5l117 -159h23v205h-29v-160q0 5 -1 8t-3 6l-101 137q-4 4 -8 7q-2 0 -4.5 1t-7.5 1h-21v-205zM2750 -145q0 -9 2 -18.5t7 -18.5 q3 -9 8.5 -17t11.5 -14t14 -10.5t17 -9.5q15 -6 37 -7q18 0 37 7q8 5 15 9.5t15 10.5q6 6 11 14t10 17q6 18 6 37q0 18 -6 36q-5 9 -10 16t-11 15q-8 6 -15 10.5t-15 8.5q-16 8 -37 8q-24 0 -37 -8q-9 -4 -17 -8.5t-14 -10.5q-6 -8 -11.5 -14.5t-8.5 -16.5q-5 -9 -7 -18 t-2 -18zM2771 74v186h65q6 0 11 -1t10 -3q6 -3 9.5 -6t6.5 -6q9 -6 13 -17q2 -5 3 -10t1 -10v-9t-2 -10q-4 -9 -11 -16q-3 -6 -12 -12q-3 -2 -7.5 -3t-8.5 -3l61 -80h-12q-10 0 -14 2q-2 2 -4.5 3.5t-4.5 4.5l-51 70h-33v-80h-20zM2791 174h45q9 0 13 2q8 4 10 6q6 6 6 9 q2 4 3 7.5t1 8.5q0 4 -4 12q0 4 -6 10q-2 2 -10 7q-4 2 -13 2h-45v-64zM2929 166q0 6 1 12t3 12t3.5 12.5t6.5 12.5q2 5 5.5 9t7.5 9t9.5 8.5t10.5 6.5l11 5.5t11 4.5t12.5 3t12.5 1q8 0 14 -1t12 -3q11 -3 23 -10q12 -6 20 -15q5 -5 8.5 -9t6.5 -9l4 -12t4 -13 q3 -6 3.5 -12t0.5 -12q0 -9 -2 -19t-7 -18q-5 -18 -18 -31q-16 -14 -30 -20q-18 -6 -39 -6q-18 0 -37 6q-15 6 -30 20q-13 11 -19 31q-5 8 -6.5 18t-1.5 19zM2933 459h116v26h-90v179h-26v-205zM2949 166q0 -5 1 -9t1 -10q2 -6 4 -9.5t4 -8.5q3 -5 6.5 -8t6.5 -8 q6 -6 14 -11q5 -3 9 -4.5t9 -3.5t9.5 -2h9.5h10.5t9.5 2t9.5 3.5t9.5 4.5q5 2 8 5l6 6q5 5 7 8t5 8q6 8 9 18q2 5 2 9.5v9.5q0 16 -7 29q-3 8 -6.5 13.5t-9.5 10.5q-10 10 -22 17q-8 2 -15.5 3t-15.5 1q-6 0 -13.5 -1t-15.5 -3q-12 -6 -22 -17q-5 -5 -9.5 -10.5t-7.5 -13.5 q-6 -12 -6 -29zM3021 664l74 -101l1 -1q0 -1 0.5 -1.5t0.5 -1.5q2 -2 2 -3t2 -1v-5v-5v-86h28v86q0 2 1 3t1 2v2q0 1 2 3v1q0 1 2 3q0 4 5 4l71 101h-18q-10 0 -15 -5q-3 -2 -5.5 -5t-4.5 -5l-49 -65q-1 0 -2 -1v-1q0 -1 -0.5 -1.5t-0.5 -1.5l-1 -1v4v1l-2 1l-47 65 q-3 2 -5.5 5t-4.5 5q-5 2 -8.5 3.5t-8.5 1.5h-18zM3031 0h53q3 0 6.5 -1t6.5 -1q2 -2 4 -2t4 -2q3 -2 4.5 -4.5t3.5 -3.5q2 -2 3 -4t3 -5q9 -24 17.5 -45t17.5 -43q9 -24 18 -45t17 -43q2 -2 2 -6q0 -2 1 -3t1 -3v-7v-1l2 1v7q0 4 2 6v6l10 21l62 155q0 5 6 9q3 5 8 8 q2 2 5 2t5 2q2 0 4.5 1t5.5 1h54v-291h-54v213q-2 -3 -3 -6t-1 -8q-2 -5 -3 -8t-3 -6l-37 -93q-9 -24 -18 -46t-21 -46h-47l-75 185q-2 3 -3.5 6t-3.5 8q0 4 -4 12v-211h-53v291zM3160 74v186h16q4 0 9 -4q6 -3 6 -8l65 -144v-4q2 -2 2 -3v-1v4.5t2 5.5t2 5.5t1 5.5l61 131 q0 5 6 8q4 4 8 4h19v-186h-21v153h-2v-4v-2q0 -1 -1 -2h-1q-5 -11 -9 -21.5t-7 -19.5q-5 -11 -9.5 -19t-7.5 -19q-5 -8 -9 -16.5t-7 -17.5t-7 -16.5t-7 -15.5h-23q-8 17 -15 35t-16 36t-16.5 37t-15.5 37q-2 0 -2 4v4v-153h-21z" />
<glyph unicode="2" horiz-adv-x="3575" d="M125 166q0 6 1 12t3 12t4.5 12.5t5.5 12.5q3 5 6 9t9 9q8 8 20 15q11 7 23 10q6 2 12 3t12 1q11 0 20.5 -2.5t18.5 -5.5q8 -5 15.5 -9.5t13.5 -11.5q0 -2 -1 -2t-3 -2l-2 -2q-2 -2 -3 -2h-1h-7h-4t-4 2q-5 3 -9.5 6t-10.5 5q-5 2 -11 2h-12q-8 0 -15 -1t-15 -3 q-12 -7 -21 -17q-6 -5 -9.5 -10.5t-6.5 -13.5q-6 -12 -7 -29v-9t3 -10q2 -10 8 -18q3 -5 6 -8t6 -8q6 -6 14 -11q5 -3 9.5 -4.5t9.5 -3.5t9.5 -2h10.5h12.5t12.5 2t11 4.5l11 5.5v39h-14q-2 0 -4 1t-4 1q-2 2 -3 2t-3 3q0 2 -1 3t-1 3q-2 2 -2 6v2h51v-72q-3 -5 -6 -7t-9 -5 q-3 -2 -6 -3t-8 -1q-5 -2 -9 -3t-9 -1h-21h-12t-12 2q-11 3 -23 10q-12 6 -20 14q-9 9 -15 21q-7 10 -10 21q-2 7 -3 13.5t-1 12.5zM125 -274q0 4 1 7.5t1 6.5q2 3 2 6t2 6l6 12q4 3 8 11l129 174h-141v51h215v-25v-14q-2 -3 -3 -6t-3 -6l-145 -193q2 0 4 2q2 0 4 2h4h139 v-51h-223v17zM133 326v784h1223q0 81 30 154q32 73 84 125q54 51 125 81q71 31 150 31q87 0 156 -33q71 -34 122 -86q51 -54 82 -125t31 -147h1221v-784h-3224zM301 459h29v76h45q6 0 12 1t12 3q12 6 21 14q8 8 14 20q2 6 3 12.5t1 12.5q0 8 -1 14t-3 13q-3 5 -6 9t-8 9 t-9.5 8.5t-11.5 5.5q-12 6 -24 7h-74v-205zM330 561v74h45q3 0 6 -1t8 -3q3 0 5.5 -2t4.5 -4q4 -4 9 -13q2 -4 2 -14v-7t-2 -7q-4 -8 -9 -11q-4 -5 -10 -8q-5 -2 -8 -3t-6 -1h-45zM336 74v186h113v-22h-93v-60h74v-20h-74v-64h93v-20h-113zM385 0h186v-51h-133v-68h107v-51 h-107v-70h133v-51h-186v291zM459 459h127v26h-99v62h80v28h-80v60h99v29h-127v-205zM471 238v22h141v-22h-59v-164h-23v164h-59zM582 0h223v-51h-86v-240h-53v240h-84v51zM629 459h28v84h31l53 -72q3 -7 11 -10q2 -2 6.5 -2h9.5h18l-65 88q5 2 9 3t7 5q8 3 15 12q5 6 8 17 q2 5 2 9v8q0 8 -0.5 14t-3.5 12q-2 5 -5.5 9t-7.5 9q-9 9 -18 12q-12 6 -25 7h-73v-205zM657 571v64h45q4 0 13 -4q7 0 10 -6q3 -2 4.5 -4.5t3.5 -4.5q0 -3 1 -6.5t1 -8.5q0 -2 -1 -5t-1 -6q-2 -2 -3.5 -4.5t-4.5 -5.5q-2 -2 -10 -7q-4 -2 -13 -2h-45zM729 74v186h113v-22 h-92v-64h77v-20h-77v-80h-21zM760 -291l127 291h49l125 -291h-33q-11 0 -20 6q-5 3 -8.5 7.5t-6.5 8.5l-16 40h-131l-19 -40q0 -3 -4 -7q-2 -3 -4 -5l-4 -4q-3 -2 -5 -3t-5 -1q-3 -2 -5.5 -2h-4.5h-35zM795 496q2 -2 2 -3t2 -1q0 -2 1 -3.5t1 -3.5q4 -4 5 -6q4 -5 7 -5 q9 -10 20 -13.5t25 -3.5q8 0 14.5 0.5t14.5 3.5q11 3 20 13q12 10 17 20q6 12 6 24q0 29 -23 45q-2 2 -4 3t-4 3q-3 2 -5 2t-5 2q-2 2 -4 2t-6 3q-2 0 -11 4q-5 2 -9 3t-7 3q-5 2 -7 3t-5 3q-4 4 -6 7q-1 3 -1 11q0 6 1 11q2 2 3.5 4t4.5 4q2 0 10 4q4 2 12 2q3 0 5.5 -1 t4.5 -1q3 -2 7 -3t6 -3q8 -4 12 -4q8 0 14 6l7 4q-2 3 -5 5t-6 5t-6 5t-6 5q-3 2 -7 3t-9 4q-8 4 -17 4q-6 0 -11 -1t-11 -3t-11 -5l-10 -6q-3 -3 -6 -7t-6 -9q-6 -9 -6 -23q0 -8 1.5 -12.5t4.5 -9.5q3 -10 12 -17q7 -7 19 -10q5 -3 9.5 -5t10.5 -5q3 -2 6 -2.5t8 -1.5 q3 -2 7 -3t6 -3q3 -3 5.5 -5t4.5 -6q2 -3 3 -6t1 -8q0 -6 -4 -14q-3 -7 -10 -10q-2 -3 -5.5 -5t-7.5 -4q-5 0 -8 -1t-8 -1q-3 0 -7 1t-7 1q-8 4 -11 9l-4 2q-6 6 -16 6q-7 0 -10 -4zM868 -176h86l-39 88q-2 3 -2 5.5t-2 4.5v8q0 -4 -2 -8q0 -2 -1 -4.5t-1 -5.5zM879 145v115 h20v-115q0 -6 0.5 -10.5t3.5 -9.5q2 -6 4.5 -9.5t5.5 -9.5q5 -3 9 -5.5t10 -4.5q5 -3 9.5 -3.5t10.5 -0.5t11 0.5t10 3.5q11 4 16 10q5 5 7 9l5 10q2 5 3.5 9.5t1.5 10.5v115h20v-115q0 -16 -6 -28q-3 -8 -6 -14t-8 -11q-6 -5 -12.5 -9t-12.5 -7q-6 -2 -13 -3t-16 -1 q-8 0 -15 1t-13 3q-13 5 -25 16q-5 5 -9 11t-6 14q-4 6 -4.5 13t-0.5 15zM952 559q0 -9 1.5 -19.5t7.5 -19.5q5 -11 10.5 -18.5t11.5 -16.5q8 -6 16 -11.5t17 -8.5q19 -8 41 -8h14t14 2q6 3 12.5 5t12.5 7q10 5 23 14q3 5 7 11t7 12q5 6 7 12t5 12q2 8 2 14v13v15.5t-2 13.5 q-3 8 -5 14t-7 12q-3 5 -7 10.5t-7 10.5q-6 5 -11.5 8t-11.5 8q-6 3 -12 5.5t-13 5.5q-8 2 -14 3t-14 1q-6 0 -13.5 -1t-13.5 -3q-8 -2 -14 -5l-12 -6q-5 -5 -10.5 -8t-10.5 -8t-9 -10t-7 -11l-6 -12t-5 -14q-2 -6 -3 -13.5t-1 -15.5zM981 559q0 18 6 31q3 8 6.5 13.5 t10.5 10.5q5 6 10.5 10t13.5 7q13 6 29 6q15 0 30 -6q6 -3 12.5 -7t12.5 -10q11 -11 16 -24q6 -12 7 -31q0 -13 -7 -29q-3 -6 -7 -12t-9 -12q-6 -5 -12 -9t-13 -8q-15 -6 -30 -6t-29 6q-13 5 -24 17q-6 6 -10 12t-7 12q-6 15 -6 29zM1065 74v186h22v-166h82v-20h-104z M1073 0h187v-51h-134v-74h111v-51h-111v-115h-53v291zM1194 74v186h20v-166h82v-20h-102zM1200 459h29v172v-4q2 -2 2 -3v-1q0 -2 1 -3q0 -1 1 -2l117 -159h24v205h-28v-160q0 5 -1.5 8t-3.5 6l-100 137q-4 4 -8 7q-3 0 -6 1t-6 1h-21v-205zM1278 -145q0 9 0.5 19t3.5 20 q3 9 6 17.5t8 16.5q5 9 11 16t14 15q13 13 29 23q9 4 17 8.5t17 7.5q11 2 20.5 3t20.5 1t20.5 -1t18.5 -3q9 -3 18 -7.5l17 -8.5q9 -5 17 -11t14 -12q6 -8 11.5 -15t10.5 -16q5 -8 9 -16.5t6 -17.5q6 -18 6 -39q0 -20 -6 -39q-2 -9 -5.5 -18.5t-9.5 -18.5q-9 -15 -22 -29 q-6 -6 -14 -11.5t-17 -10.5q-8 -6 -16.5 -10t-18.5 -7q-9 -2 -18 -3t-21 -1q-15 0 -30 2.5t-27 7.5q-14 6 -26 14t-21 19q-22 22 -33 47q-6 14 -8 27.5t-2 30.5zM1329 -145q0 -9 2.5 -18.5t5.5 -18.5q10 -20 21 -31q6 -6 13.5 -10.5t17.5 -9.5q15 -6 36 -7q18 0 37 7 q7 5 15 9.5t16 10.5q6 6 10.5 14t9.5 17q6 18 7 37q0 18 -7 36q-5 9 -9.5 16t-10.5 15q-8 6 -16 10.5t-15 8.5q-16 8 -37 8q-24 0 -36 -8q-9 -4 -17 -8.5t-14 -10.5q-6 -8 -11 -14.5t-10 -16.5q-3 -9 -5.5 -18t-2.5 -18zM1386 260h11q3 0 5 -1t5 -3q2 -2 4 -3.5t2 -4.5 l62 -139q0 -2 1 -3.5t1 -3.5v-6v6q2 2 2 7q8 17 15 34.5t15 34.5q8 18 15.5 35t15.5 35q2 4 6 8q8 4 10 4h13q-11 -24 -21.5 -47.5t-19.5 -46.5q-11 -24 -20.5 -46.5t-20.5 -45.5h-21zM1386 1108q0 -71 29 -137q14 -33 32.5 -61.5t43.5 -53.5q46 -49 113 -78q65 -31 141 -30 q73 0 139 28q65 28 115 78q25 24 43.5 52t34.5 61q27 66 26 141q0 34 -4.5 64.5t-15.5 58.5q-9 27 -24 53t-34 49q-18 22 -38.5 40.5t-44.5 35.5q-25 14 -50.5 25.5t-52.5 19.5q-22 8 -44.5 11t-49.5 3q-76 0 -143 -30q-33 -14 -61 -34t-52 -44q-25 -25 -43.5 -53.5 t-32.5 -61.5q-12 -33 -19.5 -66.5t-7.5 -70.5zM1393 459h16q8 0 11 2q7 5 10 10l14 33h104l15 -33q4 -8 8 -10q2 -2 5.5 -2h6.5h16l-88 205h-28zM1423 1108q0 58 19 111q8 27 21.5 49.5t31.5 46.5h428l-420 -424q-20 24 -35 48.5t-24 51.5q-11 27 -16 56.5t-5 60.5z M1456 532l37 86q2 2 2 5q0 2 1 4t1 4q0 -10 2 -13l37 -86h-80zM1528 866h434q-24 -18 -48.5 -33.5t-51.5 -26.5q-27 -10 -56.5 -16t-60.5 -6q-32 0 -61 6t-56 16q-28 11 -52.5 26.5t-47.5 33.5zM1528 1350q22 20 46.5 35t50.5 26q54 20 120 21q31 0 60.5 -5t56.5 -16 q55 -25 98 -61h-432zM1565 901l422 426q80 -104 79 -219q0 -30 -4 -57t-14 -54q-9 -27 -22.5 -49.5t-30.5 -46.5h-430zM1583 74v186h115v-22h-92v-60h73v-20h-73v-64h92v-20h-115zM1612 0h47q8 0 16 -4t11 -9q15 -20 30.5 -42t30.5 -43q15 -22 30 -43t29 -41q6 -6 6 -13 q2 -3 2.5 -5.5t0.5 -4.5v205h53v-291h-49l-138 195q-4 4 -4 6q-2 4 -6 8q0 2 -4 6q0 2 -1 3t-1 3v-221h-53v291zM1620 459h117v26h-88v179h-29v-205zM1741 74v186h67q5 0 10.5 -1t10.5 -3q5 -3 9 -6t7 -6t6 -7.5t7 -9.5q2 -5 3 -10t1 -10t-1 -9t-3 -10q-2 -10 -9 -16 l-12 -12q-5 -2 -8 -3t-8 -3l59 -80h-12q-8 0 -11 2q-6 2 -10 8l-53 70h-31v-80h-22zM1763 174h45q8 0 13 2q3 2 5 3t5 3q2 3 3 5t3 4q2 4 3 7.5t1 8.5q0 4 -4 12q-2 3 -3 5t-3 5q-3 2 -5 3t-5 4q-4 2 -13 2h-45v-64zM1853 539q0 -6 0.5 -12t3.5 -11q1 -6 3 -10.5t4 -9.5 q3 -5 6 -9.5t8 -7.5q3 -3 7 -6t9 -6t10.5 -4.5t10.5 -3.5t10 -3t10 -1q6 0 12.5 1t11.5 3q12 3 19 8q5 3 8.5 6t8.5 6q3 3 6 7t6 10q5 7 8 20q2 5 3 10.5t1 12.5v125h-28v-125q0 -6 -1 -11.5t-3 -11.5q-3 -5 -5.5 -9t-7.5 -7q-3 -5 -7 -7.5t-8 -5.5q-7 -2 -12 -3t-12 -1 q-5 0 -10 1t-10 3q-5 3 -9 5.5t-8 7.5q-9 6 -12 16q-2 6 -3 11t-1 12v125h-29v-125zM1892 0h224v-51h-84v-240h-54v240h-86v51zM1896 104l5 2l1 2q1 0 1.5 0.5t1.5 0.5h4q8 0 12 -5q3 -5 7 -6.5t7 -3.5q5 -2 8.5 -2h8.5h6t8 2q6 0 12 6q7 3 11 11q4 10 4 14q0 9 -4 15 q-3 6 -9 10q-4 4 -12 8q-4 0 -14 4q-6 2 -11 4l-10 4q-9 3 -16 10q-3 2 -5.5 5.5t-3.5 5.5q-2 5 -3.5 10.5t-1.5 11.5q0 11 6 20q3 8 12 15q7 7 16 10q5 2 11 3t11 1q2 0 6 -1t7 -1q5 -2 8 -3t7 -3q3 -3 5.5 -4.5t4.5 -3.5l8 -8l-4 -5q-4 -4 -10 -4q-8 0 -11 2q-2 2 -3 2 t-3 3q-2 0 -2 1t-2 1t-3 1t-3 1h-5h-8t-7 -2q-3 0 -5.5 -1t-5.5 -4q-2 -3 -4 -5t-2 -5q-4 -4 -4 -10q0 -8 2 -10q2 -4 6 -8q5 -4 13 -7q3 -2 7 -3t9 -3q3 -2 5 -2t5 -2q4 0 8 -4q3 0 5.5 -1t5.5 -3q2 0 6 -4l8 -8t7 -8q1 -7 2 -12t1 -13q0 -6 -1 -11t-2 -12q-4 -5 -7 -9.5 t-8 -6.5q-7 -7 -21 -10q-5 -3 -10.5 -3.5t-11.5 -0.5q-27 0 -41 14q-2 2 -5 4.5t-5 5.5q-4 4 -5 8zM2048 496q0 -2 1 -3q0 -1 1 -1q2 -2 2 -3.5t2 -3.5q4 -4 4 -6q4 -5 8 -5q9 -10 20 -13.5t25 -3.5q8 0 14.5 0.5t11.5 3.5q15 3 24 13q11 10 16 20q3 6 3.5 12t0.5 12 q0 31 -20 45q-4 2 -9 6q-3 2 -5 2t-5 2q-4 2 -5.5 2t-4.5 3q-3 0 -5 1t-5 3q-5 2 -9.5 3t-7.5 3q-9 3 -12 6q-6 3 -6 7q-2 3 -2 11q0 6 2 11q2 2 3.5 4t4.5 4q2 0 10 4q4 2 13 2q3 0 5 -1t5 -1l12 -6q8 -4 12 -4q6 0 13 6l8 4q-2 3 -4.5 5t-5.5 5t-6.5 5t-6.5 5q-3 2 -7 3 t-9 4q-5 2 -8 3t-8 1q-6 0 -12 -1t-11 -3q-6 -2 -10.5 -5t-9.5 -6l-7 -7t-6 -9q-6 -9 -6 -23q0 -8 1.5 -12.5t3.5 -9.5q5 -11 14 -17q7 -7 16 -10q6 -3 11 -5t12 -5q3 -2 6 -2.5t8 -1.5l12 -6q3 -3 5.5 -5t4.5 -6q2 -3 3 -6t1 -8q0 -6 -4 -14q-3 -7 -10 -10q-5 -5 -14 -9 q-3 0 -7 -1t-8 -1q-5 0 -8 1t-6 1q-10 3 -12 9l-2 2q-6 6 -17 6q-8 0 -10 -4zM2054 74v186h23v-186h-23zM2120 166q0 6 1 12t3 12t3.5 12.5t4.5 12.5q4 5 7.5 9t8.5 9t9.5 8.5t9.5 6.5q10 7 21 10q7 2 13.5 3t14.5 1q6 0 12 -1t11 -3q12 -3 24 -10q12 -6 21 -15q5 -5 8 -9 t6 -9q3 -6 5.5 -12t4.5 -13q2 -6 2 -12v-12q0 -20 -6 -37q-8 -17 -20 -31q-16 -14 -31 -20q-20 -6 -37 -6q-23 0 -39 6q-17 6 -29 20q-6 6 -11.5 14t-8.5 17q-5 8 -6.5 18t-1.5 19zM2120 -229q2 0 6 4q4 0 8 4q2 0 4 1t4 1t4 0.5t4 0.5q6 0 13 -3q5 0 8 -1t6 -3q7 -7 16 -11 q5 -2 11 -3t12 -1h7t9 2q3 2 7.5 3.5t7.5 3.5q9 6 12 13q6 7 6 17q0 5 -1 8.5t-3 6.5q-3 3 -6 5.5t-6 4.5q-8 5 -17 8q-8 1 -18 8q-8 2 -15.5 4.5t-15.5 5.5t-14 7.5t-12 9.5q-10 10 -17 22q-8 13 -8 33q0 10 2.5 18.5t5.5 16.5q10 16 21 25q6 4 13 8.5t14 7.5q8 2 17 3 t17 1q6 0 12.5 -1t12.5 -3q13 -3 22 -11q6 -2 11 -6.5t10 -9.5q5 -3 8 -7t6 -9l-10 -8l-6 -4t-9 -4q-5 -2 -8 -3t-6 -1h-4h-4q-3 2 -5 3t-5 3q-2 2 -5 2t-4 2q-2 0 -3.5 1t-4.5 1q-2 2 -8 2h-6t-8 -2q-6 0 -10 -4q-3 -2 -6.5 -5t-4.5 -4q-2 -4 -2 -12t2 -10q1 -3 4 -5t7 -5 q3 -2 7 -3t9 -3t10.5 -4.5t13.5 -4.5l9 -4q9 -3 15.5 -6t14.5 -8q15 -8 23 -19q9 -9 12 -22q6 -12 6 -29q0 -11 -2.5 -19.5t-5.5 -17.5q-5 -9 -10.5 -16.5t-11.5 -14.5q-15 -11 -35 -18q-20 -6 -37 -6q-23 0 -41 6q-9 5 -17 10t-16 13q-5 5 -8 9t-6 9q-5 8 -8 17zM2140 166 q0 -5 1 -9t3 -10t3 -9.5t3 -8.5q3 -5 6.5 -8t6.5 -8q6 -6 14 -11q7 -5 18 -8q5 -2 10 -2h11h9t9 2q4 2 9 3.5t10 4.5q5 2 8 5l6 6q5 5 7 8t5 8q6 8 9 18q2 5 2 9.5v9.5q0 16 -6 29q-3 8 -7 13.5t-10 10.5q-10 10 -22 17q-6 2 -13.5 3t-15.5 1t-15.5 -1t-15.5 -3 q-12 -6 -22 -17q-5 -5 -9.5 -10.5t-7.5 -13.5q-6 -12 -6 -29zM2218 459h127v26h-100v62h79v28h-79v60h100v29h-127v-205zM2333 -262q0 3 1 6.5t1 5.5q4 8 7 10q4 6 11 7q8 4 12 4t13 -4q7 -1 10 -7q5 -3 5 -10q2 -2 3.5 -5.5t1.5 -6.5q0 -5 -5 -12q0 -5 -5 -11q-2 -2 -10 -6 q-4 -2 -13 -2q-8 0 -12 2q-8 4 -11 6q-2 3 -3.5 5t-3.5 6q0 3 -1 6t-1 6zM2345 74v186h14q13 0 17 -8l96 -135q2 -1 2 -2.5t2 -3.5v-5v154h23v-186h-21l-108 153l-3 2v2q0 2 -2 5v-162h-20zM2417 -145q0 20 6 39q2 9 5.5 17.5t8.5 16.5q5 9 11 16t12 15q8 6 14.5 11.5 t15.5 11.5l17 8.5t18 7.5q11 2 20.5 3t18.5 1t17 -0.5t16 -3.5q13 -3 31 -11q12 -5 26 -16q6 -5 12.5 -10.5t12.5 -11.5l-13 -14q-4 -3 -12 -7q-5 -2 -16 -2q-9 0 -19 6q-6 2 -12 6t-14 7q-6 2 -13.5 3t-15.5 1q-9 0 -18 -1.5t-17 -6.5q-9 -4 -16.5 -8.5t-13.5 -10.5 q-8 -8 -13 -14.5t-8 -16.5q-8 -16 -8 -36t8 -37q6 -19 21 -31q6 -6 13.5 -10.5t16.5 -9.5q15 -6 35 -7q8 0 15.5 1t13.5 3q14 3 26 13q2 2 4.5 2t4.5 2q3 1 5.5 1h4.5q8 0 16 -3q8 -4 12 -8l13 -11q-6 -6 -12.5 -11.5t-12.5 -10.5t-13 -9t-13 -8q-8 -5 -15.5 -6.5 t-15.5 -3.5q-8 -3 -16 -3.5t-17 -0.5q-14 0 -28.5 2.5t-28.5 7.5q-26 11 -47 33q-9 11 -17 22t-14 25q-12 28 -12 58zM2462 559q0 -9 1.5 -19.5t6.5 -19.5q3 -11 8.5 -18.5t11.5 -16.5q8 -6 17 -11.5t18 -8.5q16 -8 41 -8h13.5t13.5 2q8 3 14 5t12 7q5 3 10.5 6t10.5 8 q10 10 16 23q3 6 5.5 12t4.5 12l3.5 14t1.5 13q0 8 -1 15.5t-4 13.5q-2 8 -4.5 14t-5.5 12q-3 5 -7 10.5t-9 10.5t-10 8t-11 8q-6 3 -12 5.5t-14 5.5q-6 2 -13.5 3t-13.5 1q-8 0 -14.5 -1t-14.5 -3q-6 -2 -12 -5l-12 -6q-6 -5 -11 -8t-12 -8q-5 -5 -8 -10t-8 -11 q-3 -6 -5 -12t-5 -14q-2 -6 -2 -13.5v-15.5zM2488 559q0 18 6 31q3 8 7.5 13.5t9.5 10.5q6 6 12 10t12 7q8 3 15 4.5t16 1.5q16 0 29 -6q8 -3 13.5 -7t10.5 -10q6 -5 10 -10.5t7 -13.5q6 -12 6 -31q0 -13 -6 -29q-3 -6 -6.5 -12t-10.5 -12q-5 -5 -10.5 -9t-13.5 -8 q-12 -6 -29 -6q-9 0 -15.5 1.5t-15.5 4.5q-6 3 -12 7.5t-12 9.5q-5 6 -9 12l-8 12q-6 15 -6 29zM2634 74v186h114v-22h-94v-64h78v-20h-78v-80h-20zM2697 -145q0 20 6 39q3 9 6.5 17.5t8.5 16.5q5 9 10.5 16t13.5 15q13 13 29 23q9 4 17.5 8.5t17.5 7.5q11 2 20 3t21 1 q9 0 19 -1t20 -3q9 -3 17.5 -7.5t16.5 -8.5q9 -5 16 -11t15 -12q6 -8 12 -15t11 -16q5 -8 8.5 -16.5t5.5 -17.5q6 -18 6 -39q0 -20 -6 -39q-2 -9 -5.5 -18.5t-8.5 -18.5q-9 -15 -23 -29q-8 -6 -14.5 -11.5t-16.5 -10.5q-8 -6 -16.5 -10t-17.5 -7q-9 -2 -19.5 -3t-19.5 -1 q-15 0 -30 2.5t-30 7.5q-12 6 -24 14t-21 19q-22 22 -32 47q-7 14 -10 27.5t-3 30.5zM2707 459h29v172q2 -2 2 -3v-1q0 -4 2 -4q0 -4 2 -5l117 -159h23v205h-29v-160q0 5 -1 8t-3 6l-101 137q-4 4 -8 7q-2 0 -4.5 1t-7.5 1h-21v-205zM2750 -145q0 -9 2 -18.5t7 -18.5 q3 -9 8.5 -17t11.5 -14t14 -10.5t17 -9.5q15 -6 37 -7q18 0 37 7q8 5 15 9.5t15 10.5q6 6 11 14t10 17q6 18 6 37q0 18 -6 36q-5 9 -10 16t-11 15q-8 6 -15 10.5t-15 8.5q-16 8 -37 8q-24 0 -37 -8q-9 -4 -17 -8.5t-14 -10.5q-6 -8 -11.5 -14.5t-8.5 -16.5q-5 -9 -7 -18 t-2 -18zM2771 74v186h65q6 0 11 -1t10 -3q6 -3 9.5 -6t6.5 -6q9 -6 13 -17q2 -5 3 -10t1 -10v-9t-2 -10q-4 -9 -11 -16q-3 -6 -12 -12q-3 -2 -7.5 -3t-8.5 -3l61 -80h-12q-10 0 -14 2q-2 2 -4.5 3.5t-4.5 4.5l-51 70h-33v-80h-20zM2791 174h45q9 0 13 2q8 4 10 6q6 6 6 9 q2 4 3 7.5t1 8.5q0 4 -4 12q0 4 -6 10q-2 2 -10 7q-4 2 -13 2h-45v-64zM2929 166q0 6 1 12t3 12t3.5 12.5t6.5 12.5q2 5 5.5 9t7.5 9t9.5 8.5t10.5 6.5l11 5.5t11 4.5t12.5 3t12.5 1q8 0 14 -1t12 -3q11 -3 23 -10q12 -6 20 -15q5 -5 8.5 -9t6.5 -9l4 -12t4 -13 q3 -6 3.5 -12t0.5 -12q0 -9 -2 -19t-7 -18q-5 -18 -18 -31q-16 -14 -30 -20q-18 -6 -39 -6q-18 0 -37 6q-15 6 -30 20q-13 11 -19 31q-5 8 -6.5 18t-1.5 19zM2933 459h116v26h-90v179h-26v-205zM2949 166q0 -5 1 -9t1 -10q2 -6 4 -9.5t4 -8.5q3 -5 6.5 -8t6.5 -8 q6 -6 14 -11q5 -3 9 -4.5t9 -3.5t9.5 -2h9.5h10.5t9.5 2t9.5 3.5t9.5 4.5q5 2 8 5l6 6q5 5 7 8t5 8q6 8 9 18q2 5 2 9.5v9.5q0 16 -7 29q-3 8 -6.5 13.5t-9.5 10.5q-10 10 -22 17q-8 2 -15.5 3t-15.5 1q-6 0 -13.5 -1t-15.5 -3q-12 -6 -22 -17q-5 -5 -9.5 -10.5t-7.5 -13.5 q-6 -12 -6 -29zM3021 664l74 -101l1 -1q0 -1 0.5 -1.5t0.5 -1.5q2 -2 2 -3t2 -1v-5v-5v-86h28v86q0 2 1 3t1 2v2q0 1 2 3v1q0 1 2 3q0 4 5 4l71 101h-18q-10 0 -15 -5q-3 -2 -5.5 -5t-4.5 -5l-49 -65q-1 0 -2 -1v-1q0 -1 -0.5 -1.5t-0.5 -1.5l-1 -1v4v1l-2 1l-47 65 q-3 2 -5.5 5t-4.5 5q-5 2 -8.5 3.5t-8.5 1.5h-18zM3031 0h53q3 0 6.5 -1t6.5 -1q2 -2 4 -2t4 -2q3 -2 4.5 -4.5t3.5 -3.5q2 -2 3 -4t3 -5q9 -24 17.5 -45t17.5 -43q9 -24 18 -45t17 -43q2 -2 2 -6q0 -2 1 -3t1 -3v-7v-1l2 1v7q0 4 2 6v6l10 21l62 155q0 5 6 9q3 5 8 8 q2 2 5 2t5 2q2 0 4.5 1t5.5 1h54v-291h-54v213q-2 -3 -3 -6t-1 -8q-2 -5 -3 -8t-3 -6l-37 -93q-9 -24 -18 -46t-21 -46h-47l-75 185q-2 3 -3.5 6t-3.5 8q0 4 -4 12v-211h-53v291zM3160 74v186h16q4 0 9 -4q6 -3 6 -8l65 -144v-4q2 -2 2 -3v-1v4.5t2 5.5t2 5.5t1 5.5l61 131 q0 5 6 8q4 4 8 4h19v-186h-21v153h-2v-4v-2q0 -1 -1 -2h-1q-5 -11 -9 -21.5t-7 -19.5q-5 -11 -9.5 -19t-7.5 -19q-5 -8 -9 -16.5t-7 -17.5t-7 -16.5t-7 -15.5h-23q-8 17 -15 35t-16 36t-16.5 37t-15.5 37q-2 0 -2 4v4v-153h-21z" />
<glyph unicode="3" horiz-adv-x="3575" d="M125 166q0 6 1 12t3 12t4.5 12.5t5.5 12.5q3 5 6 9t9 9q8 8 20 15q11 7 23 10q6 2 12 3t12 1q11 0 20.5 -2.5t18.5 -5.5q8 -5 15.5 -9.5t13.5 -11.5q0 -2 -1 -2t-3 -2l-2 -2q-2 -2 -3 -2h-1h-7h-4t-4 2q-5 3 -9.5 6t-10.5 5q-5 2 -11 2h-12q-8 0 -15 -1t-15 -3 q-12 -7 -21 -17q-6 -5 -9.5 -10.5t-6.5 -13.5q-6 -12 -7 -29v-9t3 -10q2 -10 8 -18q3 -5 6 -8t6 -8q6 -6 14 -11q5 -3 9.5 -4.5t9.5 -3.5t9.5 -2h10.5h12.5t12.5 2t11 4.5l11 5.5v39h-14q-2 0 -4 1t-4 1q-2 2 -3 2t-3 3q0 2 -1 3t-1 3q-2 2 -2 6v2h51v-72q-3 -5 -6 -7t-9 -5 q-3 -2 -6 -3t-8 -1q-5 -2 -9 -3t-9 -1h-21h-12t-12 2q-11 3 -23 10q-12 6 -20 14q-9 9 -15 21q-7 10 -10 21q-2 7 -3 13.5t-1 12.5zM125 -274q0 4 1 7.5t1 6.5q2 3 2 6t2 6l6 12q4 3 8 11l129 174h-141v51h215v-25v-14q-2 -3 -3 -6t-3 -6l-145 -193q2 0 4 2q2 0 4 2h4h139 v-51h-223v17zM133 326v784h1223q0 81 30 154q32 73 84 125q54 51 125 81q71 31 150 31q87 0 156 -33q71 -34 122 -86q51 -54 82 -125t31 -147h1221v-784h-3224zM301 459h29v76h45q6 0 12 1t12 3q12 6 21 14q8 8 14 20q2 6 3 12.5t1 12.5q0 8 -1 14t-3 13q-3 5 -6 9t-8 9 t-9.5 8.5t-11.5 5.5q-12 6 -24 7h-74v-205zM330 561v74h45q3 0 6 -1t8 -3q3 0 5.5 -2t4.5 -4q4 -4 9 -13q2 -4 2 -14v-7t-2 -7q-4 -8 -9 -11q-4 -5 -10 -8q-5 -2 -8 -3t-6 -1h-45zM336 74v186h113v-22h-93v-60h74v-20h-74v-64h93v-20h-113zM385 0h186v-51h-133v-68h107v-51 h-107v-70h133v-51h-186v291zM459 459h127v26h-99v62h80v28h-80v60h99v29h-127v-205zM471 238v22h141v-22h-59v-164h-23v164h-59zM582 0h223v-51h-86v-240h-53v240h-84v51zM629 459h28v84h31l53 -72q3 -7 11 -10q2 -2 6.5 -2h9.5h18l-65 88q5 2 9 3t7 5q8 3 15 12q5 6 8 17 q2 5 2 9v8q0 8 -0.5 14t-3.5 12q-2 5 -5.5 9t-7.5 9q-9 9 -18 12q-12 6 -25 7h-73v-205zM657 571v64h45q4 0 13 -4q7 0 10 -6q3 -2 4.5 -4.5t3.5 -4.5q0 -3 1 -6.5t1 -8.5q0 -2 -1 -5t-1 -6q-2 -2 -3.5 -4.5t-4.5 -5.5q-2 -2 -10 -7q-4 -2 -13 -2h-45zM729 74v186h113v-22 h-92v-64h77v-20h-77v-80h-21zM760 -291l127 291h49l125 -291h-33q-11 0 -20 6q-5 3 -8.5 7.5t-6.5 8.5l-16 40h-131l-19 -40q0 -3 -4 -7q-2 -3 -4 -5l-4 -4q-3 -2 -5 -3t-5 -1q-3 -2 -5.5 -2h-4.5h-35zM795 496q2 -2 2 -3t2 -1q0 -2 1 -3.5t1 -3.5q4 -4 5 -6q4 -5 7 -5 q9 -10 20 -13.5t25 -3.5q8 0 14.5 0.5t14.5 3.5q11 3 20 13q12 10 17 20q6 12 6 24q0 29 -23 45q-2 2 -4 3t-4 3q-3 2 -5 2t-5 2q-2 2 -4 2t-6 3q-2 0 -11 4q-5 2 -9 3t-7 3q-5 2 -7 3t-5 3q-4 4 -6 7q-1 3 -1 11q0 6 1 11q2 2 3.5 4t4.5 4q2 0 10 4q4 2 12 2q3 0 5.5 -1 t4.5 -1q3 -2 7 -3t6 -3q8 -4 12 -4q8 0 14 6l7 4q-2 3 -5 5t-6 5t-6 5t-6 5q-3 2 -7 3t-9 4q-8 4 -17 4q-6 0 -11 -1t-11 -3t-11 -5l-10 -6q-3 -3 -6 -7t-6 -9q-6 -9 -6 -23q0 -8 1.5 -12.5t4.5 -9.5q3 -10 12 -17q7 -7 19 -10q5 -3 9.5 -5t10.5 -5q3 -2 6 -2.5t8 -1.5 q3 -2 7 -3t6 -3q3 -3 5.5 -5t4.5 -6q2 -3 3 -6t1 -8q0 -6 -4 -14q-3 -7 -10 -10q-2 -3 -5.5 -5t-7.5 -4q-5 0 -8 -1t-8 -1q-3 0 -7 1t-7 1q-8 4 -11 9l-4 2q-6 6 -16 6q-7 0 -10 -4zM868 -176h86l-39 88q-2 3 -2 5.5t-2 4.5v8q0 -4 -2 -8q0 -2 -1 -4.5t-1 -5.5zM879 145v115 h20v-115q0 -6 0.5 -10.5t3.5 -9.5q2 -6 4.5 -9.5t5.5 -9.5q5 -3 9 -5.5t10 -4.5q5 -3 9.5 -3.5t10.5 -0.5t11 0.5t10 3.5q11 4 16 10q5 5 7 9l5 10q2 5 3.5 9.5t1.5 10.5v115h20v-115q0 -16 -6 -28q-3 -8 -6 -14t-8 -11q-6 -5 -12.5 -9t-12.5 -7q-6 -2 -13 -3t-16 -1 q-8 0 -15 1t-13 3q-13 5 -25 16q-5 5 -9 11t-6 14q-4 6 -4.5 13t-0.5 15zM952 559q0 -9 1.5 -19.5t7.5 -19.5q5 -11 10.5 -18.5t11.5 -16.5q8 -6 16 -11.5t17 -8.5q19 -8 41 -8h14t14 2q6 3 12.5 5t12.5 7q10 5 23 14q3 5 7 11t7 12q5 6 7 12t5 12q2 8 2 14v13v15.5t-2 13.5 q-3 8 -5 14t-7 12q-3 5 -7 10.5t-7 10.5q-6 5 -11.5 8t-11.5 8q-6 3 -12 5.5t-13 5.5q-8 2 -14 3t-14 1q-6 0 -13.5 -1t-13.5 -3q-8 -2 -14 -5l-12 -6q-5 -5 -10.5 -8t-10.5 -8t-9 -10t-7 -11l-6 -12t-5 -14q-2 -6 -3 -13.5t-1 -15.5zM981 559q0 18 6 31q3 8 6.5 13.5 t10.5 10.5q5 6 10.5 10t13.5 7q13 6 29 6q15 0 30 -6q6 -3 12.5 -7t12.5 -10q11 -11 16 -24q6 -12 7 -31q0 -13 -7 -29q-3 -6 -7 -12t-9 -12q-6 -5 -12 -9t-13 -8q-15 -6 -30 -6t-29 6q-13 5 -24 17q-6 6 -10 12t-7 12q-6 15 -6 29zM1065 74v186h22v-166h82v-20h-104z M1073 0h187v-51h-134v-74h111v-51h-111v-115h-53v291zM1194 74v186h20v-166h82v-20h-102zM1200 459h29v172v-4q2 -2 2 -3v-1q0 -2 1 -3q0 -1 1 -2l117 -159h24v205h-28v-160q0 5 -1.5 8t-3.5 6l-100 137q-4 4 -8 7q-3 0 -6 1t-6 1h-21v-205zM1278 -145q0 9 0.5 19t3.5 20 q3 9 6 17.5t8 16.5q5 9 11 16t14 15q13 13 29 23q9 4 17 8.5t17 7.5q11 2 20.5 3t20.5 1t20.5 -1t18.5 -3q9 -3 18 -7.5l17 -8.5q9 -5 17 -11t14 -12q6 -8 11.5 -15t10.5 -16q5 -8 9 -16.5t6 -17.5q6 -18 6 -39q0 -20 -6 -39q-2 -9 -5.5 -18.5t-9.5 -18.5q-9 -15 -22 -29 q-6 -6 -14 -11.5t-17 -10.5q-8 -6 -16.5 -10t-18.5 -7q-9 -2 -18 -3t-21 -1q-15 0 -30 2.5t-27 7.5q-14 6 -26 14t-21 19q-22 22 -33 47q-6 14 -8 27.5t-2 30.5zM1329 -145q0 -9 2.5 -18.5t5.5 -18.5q10 -20 21 -31q6 -6 13.5 -10.5t17.5 -9.5q15 -6 36 -7q18 0 37 7 q7 5 15 9.5t16 10.5q6 6 10.5 14t9.5 17q6 18 7 37q0 18 -7 36q-5 9 -9.5 16t-10.5 15q-8 6 -16 10.5t-15 8.5q-16 8 -37 8q-24 0 -36 -8q-9 -4 -17 -8.5t-14 -10.5q-6 -8 -11 -14.5t-10 -16.5q-3 -9 -5.5 -18t-2.5 -18zM1386 260h11q3 0 5 -1t5 -3q2 -2 4 -3.5t2 -4.5 l62 -139q0 -2 1 -3.5t1 -3.5v-6v6q2 2 2 7q8 17 15 34.5t15 34.5q8 18 15.5 35t15.5 35q2 4 6 8q8 4 10 4h13q-11 -24 -21.5 -47.5t-19.5 -46.5q-11 -24 -20.5 -46.5t-20.5 -45.5h-21zM1386 1108q0 -71 29 -137q14 -33 32.5 -61.5t43.5 -53.5q46 -49 113 -78q65 -31 141 -30 q73 0 139 28q65 28 115 78q25 24 43.5 52t34.5 61q27 66 26 141q0 34 -4.5 64.5t-15.5 58.5q-9 27 -24 53t-34 49q-18 22 -38.5 40.5t-44.5 35.5q-25 14 -50.5 25.5t-52.5 19.5q-22 8 -44.5 11t-49.5 3q-76 0 -143 -30q-33 -14 -61 -34t-52 -44q-25 -25 -43.5 -53.5 t-32.5 -61.5q-12 -33 -19.5 -66.5t-7.5 -70.5zM1393 459h16q8 0 11 2q7 5 10 10l14 33h104l15 -33q4 -8 8 -10q2 -2 5.5 -2h6.5h16l-88 205h-28zM1423 1108q0 58 19 111q8 27 21.5 49.5t31.5 46.5h428l-420 -424q-20 24 -35 48.5t-24 51.5q-11 27 -16 56.5t-5 60.5z M1456 532l37 86q2 2 2 5q0 2 1 4t1 4q0 -10 2 -13l37 -86h-80zM1528 866h434q-24 -18 -48.5 -33.5t-51.5 -26.5q-27 -10 -56.5 -16t-60.5 -6q-32 0 -61 6t-56 16q-28 11 -52.5 26.5t-47.5 33.5zM1528 1350q22 20 46.5 35t50.5 26q54 20 120 21q31 0 60.5 -5t56.5 -16 q55 -25 98 -61h-432zM1565 901l422 426q80 -104 79 -219q0 -30 -4 -57t-14 -54q-9 -27 -22.5 -49.5t-30.5 -46.5h-430zM1583 74v186h115v-22h-92v-60h73v-20h-73v-64h92v-20h-115zM1612 0h47q8 0 16 -4t11 -9q15 -20 30.5 -42t30.5 -43q15 -22 30 -43t29 -41q6 -6 6 -13 q2 -3 2.5 -5.5t0.5 -4.5v205h53v-291h-49l-138 195q-4 4 -4 6q-2 4 -6 8q0 2 -4 6q0 2 -1 3t-1 3v-221h-53v291zM1620 459h117v26h-88v179h-29v-205zM1741 74v186h67q5 0 10.5 -1t10.5 -3q5 -3 9 -6t7 -6t6 -7.5t7 -9.5q2 -5 3 -10t1 -10t-1 -9t-3 -10q-2 -10 -9 -16 l-12 -12q-5 -2 -8 -3t-8 -3l59 -80h-12q-8 0 -11 2q-6 2 -10 8l-53 70h-31v-80h-22zM1763 174h45q8 0 13 2q3 2 5 3t5 3q2 3 3 5t3 4q2 4 3 7.5t1 8.5q0 4 -4 12q-2 3 -3 5t-3 5q-3 2 -5 3t-5 4q-4 2 -13 2h-45v-64zM1853 539q0 -6 0.5 -12t3.5 -11q1 -6 3 -10.5t4 -9.5 q3 -5 6 -9.5t8 -7.5q3 -3 7 -6t9 -6t10.5 -4.5t10.5 -3.5t10 -3t10 -1q6 0 12.5 1t11.5 3q12 3 19 8q5 3 8.5 6t8.5 6q3 3 6 7t6 10q5 7 8 20q2 5 3 10.5t1 12.5v125h-28v-125q0 -6 -1 -11.5t-3 -11.5q-3 -5 -5.5 -9t-7.5 -7q-3 -5 -7 -7.5t-8 -5.5q-7 -2 -12 -3t-12 -1 q-5 0 -10 1t-10 3q-5 3 -9 5.5t-8 7.5q-9 6 -12 16q-2 6 -3 11t-1 12v125h-29v-125zM1892 0h224v-51h-84v-240h-54v240h-86v51zM1896 104l5 2l1 2q1 0 1.5 0.5t1.5 0.5h4q8 0 12 -5q3 -5 7 -6.5t7 -3.5q5 -2 8.5 -2h8.5h6t8 2q6 0 12 6q7 3 11 11q4 10 4 14q0 9 -4 15 q-3 6 -9 10q-4 4 -12 8q-4 0 -14 4q-6 2 -11 4l-10 4q-9 3 -16 10q-3 2 -5.5 5.5t-3.5 5.5q-2 5 -3.5 10.5t-1.5 11.5q0 11 6 20q3 8 12 15q7 7 16 10q5 2 11 3t11 1q2 0 6 -1t7 -1q5 -2 8 -3t7 -3q3 -3 5.5 -4.5t4.5 -3.5l8 -8l-4 -5q-4 -4 -10 -4q-8 0 -11 2q-2 2 -3 2 t-3 3q-2 0 -2 1t-2 1t-3 1t-3 1h-5h-8t-7 -2q-3 0 -5.5 -1t-5.5 -4q-2 -3 -4 -5t-2 -5q-4 -4 -4 -10q0 -8 2 -10q2 -4 6 -8q5 -4 13 -7q3 -2 7 -3t9 -3q3 -2 5 -2t5 -2q4 0 8 -4q3 0 5.5 -1t5.5 -3q2 0 6 -4l8 -8t7 -8q1 -7 2 -12t1 -13q0 -6 -1 -11t-2 -12q-4 -5 -7 -9.5 t-8 -6.5q-7 -7 -21 -10q-5 -3 -10.5 -3.5t-11.5 -0.5q-27 0 -41 14q-2 2 -5 4.5t-5 5.5q-4 4 -5 8zM2048 496q0 -2 1 -3q0 -1 1 -1q2 -2 2 -3.5t2 -3.5q4 -4 4 -6q4 -5 8 -5q9 -10 20 -13.5t25 -3.5q8 0 14.5 0.5t11.5 3.5q15 3 24 13q11 10 16 20q3 6 3.5 12t0.5 12 q0 31 -20 45q-4 2 -9 6q-3 2 -5 2t-5 2q-4 2 -5.5 2t-4.5 3q-3 0 -5 1t-5 3q-5 2 -9.5 3t-7.5 3q-9 3 -12 6q-6 3 -6 7q-2 3 -2 11q0 6 2 11q2 2 3.5 4t4.5 4q2 0 10 4q4 2 13 2q3 0 5 -1t5 -1l12 -6q8 -4 12 -4q6 0 13 6l8 4q-2 3 -4.5 5t-5.5 5t-6.5 5t-6.5 5q-3 2 -7 3 t-9 4q-5 2 -8 3t-8 1q-6 0 -12 -1t-11 -3q-6 -2 -10.5 -5t-9.5 -6l-7 -7t-6 -9q-6 -9 -6 -23q0 -8 1.5 -12.5t3.5 -9.5q5 -11 14 -17q7 -7 16 -10q6 -3 11 -5t12 -5q3 -2 6 -2.5t8 -1.5l12 -6q3 -3 5.5 -5t4.5 -6q2 -3 3 -6t1 -8q0 -6 -4 -14q-3 -7 -10 -10q-5 -5 -14 -9 q-3 0 -7 -1t-8 -1q-5 0 -8 1t-6 1q-10 3 -12 9l-2 2q-6 6 -17 6q-8 0 -10 -4zM2054 74v186h23v-186h-23zM2120 166q0 6 1 12t3 12t3.5 12.5t4.5 12.5q4 5 7.5 9t8.5 9t9.5 8.5t9.5 6.5q10 7 21 10q7 2 13.5 3t14.5 1q6 0 12 -1t11 -3q12 -3 24 -10q12 -6 21 -15q5 -5 8 -9 t6 -9q3 -6 5.5 -12t4.5 -13q2 -6 2 -12v-12q0 -20 -6 -37q-8 -17 -20 -31q-16 -14 -31 -20q-20 -6 -37 -6q-23 0 -39 6q-17 6 -29 20q-6 6 -11.5 14t-8.5 17q-5 8 -6.5 18t-1.5 19zM2120 -229q2 0 6 4q4 0 8 4q2 0 4 1t4 1t4 0.5t4 0.5q6 0 13 -3q5 0 8 -1t6 -3q7 -7 16 -11 q5 -2 11 -3t12 -1h7t9 2q3 2 7.5 3.5t7.5 3.5q9 6 12 13q6 7 6 17q0 5 -1 8.5t-3 6.5q-3 3 -6 5.5t-6 4.5q-8 5 -17 8q-8 1 -18 8q-8 2 -15.5 4.5t-15.5 5.5t-14 7.5t-12 9.5q-10 10 -17 22q-8 13 -8 33q0 10 2.5 18.5t5.5 16.5q10 16 21 25q6 4 13 8.5t14 7.5q8 2 17 3 t17 1q6 0 12.5 -1t12.5 -3q13 -3 22 -11q6 -2 11 -6.5t10 -9.5q5 -3 8 -7t6 -9l-10 -8l-6 -4t-9 -4q-5 -2 -8 -3t-6 -1h-4h-4q-3 2 -5 3t-5 3q-2 2 -5 2t-4 2q-2 0 -3.5 1t-4.5 1q-2 2 -8 2h-6t-8 -2q-6 0 -10 -4q-3 -2 -6.5 -5t-4.5 -4q-2 -4 -2 -12t2 -10q1 -3 4 -5t7 -5 q3 -2 7 -3t9 -3t10.5 -4.5t13.5 -4.5l9 -4q9 -3 15.5 -6t14.5 -8q15 -8 23 -19q9 -9 12 -22q6 -12 6 -29q0 -11 -2.5 -19.5t-5.5 -17.5q-5 -9 -10.5 -16.5t-11.5 -14.5q-15 -11 -35 -18q-20 -6 -37 -6q-23 0 -41 6q-9 5 -17 10t-16 13q-5 5 -8 9t-6 9q-5 8 -8 17zM2140 166 q0 -5 1 -9t3 -10t3 -9.5t3 -8.5q3 -5 6.5 -8t6.5 -8q6 -6 14 -11q7 -5 18 -8q5 -2 10 -2h11h9t9 2q4 2 9 3.5t10 4.5q5 2 8 5l6 6q5 5 7 8t5 8q6 8 9 18q2 5 2 9.5v9.5q0 16 -6 29q-3 8 -7 13.5t-10 10.5q-10 10 -22 17q-6 2 -13.5 3t-15.5 1t-15.5 -1t-15.5 -3 q-12 -6 -22 -17q-5 -5 -9.5 -10.5t-7.5 -13.5q-6 -12 -6 -29zM2218 459h127v26h-100v62h79v28h-79v60h100v29h-127v-205zM2333 -262q0 3 1 6.5t1 5.5q4 8 7 10q4 6 11 7q8 4 12 4t13 -4q7 -1 10 -7q5 -3 5 -10q2 -2 3.5 -5.5t1.5 -6.5q0 -5 -5 -12q0 -5 -5 -11q-2 -2 -10 -6 q-4 -2 -13 -2q-8 0 -12 2q-8 4 -11 6q-2 3 -3.5 5t-3.5 6q0 3 -1 6t-1 6zM2345 74v186h14q13 0 17 -8l96 -135q2 -1 2 -2.5t2 -3.5v-5v154h23v-186h-21l-108 153l-3 2v2q0 2 -2 5v-162h-20zM2417 -145q0 20 6 39q2 9 5.5 17.5t8.5 16.5q5 9 11 16t12 15q8 6 14.5 11.5 t15.5 11.5l17 8.5t18 7.5q11 2 20.5 3t18.5 1t17 -0.5t16 -3.5q13 -3 31 -11q12 -5 26 -16q6 -5 12.5 -10.5t12.5 -11.5l-13 -14q-4 -3 -12 -7q-5 -2 -16 -2q-9 0 -19 6q-6 2 -12 6t-14 7q-6 2 -13.5 3t-15.5 1q-9 0 -18 -1.5t-17 -6.5q-9 -4 -16.5 -8.5t-13.5 -10.5 q-8 -8 -13 -14.5t-8 -16.5q-8 -16 -8 -36t8 -37q6 -19 21 -31q6 -6 13.5 -10.5t16.5 -9.5q15 -6 35 -7q8 0 15.5 1t13.5 3q14 3 26 13q2 2 4.5 2t4.5 2q3 1 5.5 1h4.5q8 0 16 -3q8 -4 12 -8l13 -11q-6 -6 -12.5 -11.5t-12.5 -10.5t-13 -9t-13 -8q-8 -5 -15.5 -6.5 t-15.5 -3.5q-8 -3 -16 -3.5t-17 -0.5q-14 0 -28.5 2.5t-28.5 7.5q-26 11 -47 33q-9 11 -17 22t-14 25q-12 28 -12 58zM2462 559q0 -9 1.5 -19.5t6.5 -19.5q3 -11 8.5 -18.5t11.5 -16.5q8 -6 17 -11.5t18 -8.5q16 -8 41 -8h13.5t13.5 2q8 3 14 5t12 7q5 3 10.5 6t10.5 8 q10 10 16 23q3 6 5.5 12t4.5 12l3.5 14t1.5 13q0 8 -1 15.5t-4 13.5q-2 8 -4.5 14t-5.5 12q-3 5 -7 10.5t-9 10.5t-10 8t-11 8q-6 3 -12 5.5t-14 5.5q-6 2 -13.5 3t-13.5 1q-8 0 -14.5 -1t-14.5 -3q-6 -2 -12 -5l-12 -6q-6 -5 -11 -8t-12 -8q-5 -5 -8 -10t-8 -11 q-3 -6 -5 -12t-5 -14q-2 -6 -2 -13.5v-15.5zM2488 559q0 18 6 31q3 8 7.5 13.5t9.5 10.5q6 6 12 10t12 7q8 3 15 4.5t16 1.5q16 0 29 -6q8 -3 13.5 -7t10.5 -10q6 -5 10 -10.5t7 -13.5q6 -12 6 -31q0 -13 -6 -29q-3 -6 -6.5 -12t-10.5 -12q-5 -5 -10.5 -9t-13.5 -8 q-12 -6 -29 -6q-9 0 -15.5 1.5t-15.5 4.5q-6 3 -12 7.5t-12 9.5q-5 6 -9 12l-8 12q-6 15 -6 29zM2634 74v186h114v-22h-94v-64h78v-20h-78v-80h-20zM2697 -145q0 20 6 39q3 9 6.5 17.5t8.5 16.5q5 9 10.5 16t13.5 15q13 13 29 23q9 4 17.5 8.5t17.5 7.5q11 2 20 3t21 1 q9 0 19 -1t20 -3q9 -3 17.5 -7.5t16.5 -8.5q9 -5 16 -11t15 -12q6 -8 12 -15t11 -16q5 -8 8.5 -16.5t5.5 -17.5q6 -18 6 -39q0 -20 -6 -39q-2 -9 -5.5 -18.5t-8.5 -18.5q-9 -15 -23 -29q-8 -6 -14.5 -11.5t-16.5 -10.5q-8 -6 -16.5 -10t-17.5 -7q-9 -2 -19.5 -3t-19.5 -1 q-15 0 -30 2.5t-30 7.5q-12 6 -24 14t-21 19q-22 22 -32 47q-7 14 -10 27.5t-3 30.5zM2707 459h29v172q2 -2 2 -3v-1q0 -4 2 -4q0 -4 2 -5l117 -159h23v205h-29v-160q0 5 -1 8t-3 6l-101 137q-4 4 -8 7q-2 0 -4.5 1t-7.5 1h-21v-205zM2750 -145q0 -9 2 -18.5t7 -18.5 q3 -9 8.5 -17t11.5 -14t14 -10.5t17 -9.5q15 -6 37 -7q18 0 37 7q8 5 15 9.5t15 10.5q6 6 11 14t10 17q6 18 6 37q0 18 -6 36q-5 9 -10 16t-11 15q-8 6 -15 10.5t-15 8.5q-16 8 -37 8q-24 0 -37 -8q-9 -4 -17 -8.5t-14 -10.5q-6 -8 -11.5 -14.5t-8.5 -16.5q-5 -9 -7 -18 t-2 -18zM2771 74v186h65q6 0 11 -1t10 -3q6 -3 9.5 -6t6.5 -6q9 -6 13 -17q2 -5 3 -10t1 -10v-9t-2 -10q-4 -9 -11 -16q-3 -6 -12 -12q-3 -2 -7.5 -3t-8.5 -3l61 -80h-12q-10 0 -14 2q-2 2 -4.5 3.5t-4.5 4.5l-51 70h-33v-80h-20zM2791 174h45q9 0 13 2q8 4 10 6q6 6 6 9 q2 4 3 7.5t1 8.5q0 4 -4 12q0 4 -6 10q-2 2 -10 7q-4 2 -13 2h-45v-64zM2929 166q0 6 1 12t3 12t3.5 12.5t6.5 12.5q2 5 5.5 9t7.5 9t9.5 8.5t10.5 6.5l11 5.5t11 4.5t12.5 3t12.5 1q8 0 14 -1t12 -3q11 -3 23 -10q12 -6 20 -15q5 -5 8.5 -9t6.5 -9l4 -12t4 -13 q3 -6 3.5 -12t0.5 -12q0 -9 -2 -19t-7 -18q-5 -18 -18 -31q-16 -14 -30 -20q-18 -6 -39 -6q-18 0 -37 6q-15 6 -30 20q-13 11 -19 31q-5 8 -6.5 18t-1.5 19zM2933 459h116v26h-90v179h-26v-205zM2949 166q0 -5 1 -9t1 -10q2 -6 4 -9.5t4 -8.5q3 -5 6.5 -8t6.5 -8 q6 -6 14 -11q5 -3 9 -4.5t9 -3.5t9.5 -2h9.5h10.5t9.5 2t9.5 3.5t9.5 4.5q5 2 8 5l6 6q5 5 7 8t5 8q6 8 9 18q2 5 2 9.5v9.5q0 16 -7 29q-3 8 -6.5 13.5t-9.5 10.5q-10 10 -22 17q-8 2 -15.5 3t-15.5 1q-6 0 -13.5 -1t-15.5 -3q-12 -6 -22 -17q-5 -5 -9.5 -10.5t-7.5 -13.5 q-6 -12 -6 -29zM3021 664l74 -101l1 -1q0 -1 0.5 -1.5t0.5 -1.5q2 -2 2 -3t2 -1v-5v-5v-86h28v86q0 2 1 3t1 2v2q0 1 2 3v1q0 1 2 3q0 4 5 4l71 101h-18q-10 0 -15 -5q-3 -2 -5.5 -5t-4.5 -5l-49 -65q-1 0 -2 -1v-1q0 -1 -0.5 -1.5t-0.5 -1.5l-1 -1v4v1l-2 1l-47 65 q-3 2 -5.5 5t-4.5 5q-5 2 -8.5 3.5t-8.5 1.5h-18zM3031 0h53q3 0 6.5 -1t6.5 -1q2 -2 4 -2t4 -2q3 -2 4.5 -4.5t3.5 -3.5q2 -2 3 -4t3 -5q9 -24 17.5 -45t17.5 -43q9 -24 18 -45t17 -43q2 -2 2 -6q0 -2 1 -3t1 -3v-7v-1l2 1v7q0 4 2 6v6l10 21l62 155q0 5 6 9q3 5 8 8 q2 2 5 2t5 2q2 0 4.5 1t5.5 1h54v-291h-54v213q-2 -3 -3 -6t-1 -8q-2 -5 -3 -8t-3 -6l-37 -93q-9 -24 -18 -46t-21 -46h-47l-75 185q-2 3 -3.5 6t-3.5 8q0 4 -4 12v-211h-53v291zM3160 74v186h16q4 0 9 -4q6 -3 6 -8l65 -144v-4q2 -2 2 -3v-1v4.5t2 5.5t2 5.5t1 5.5l61 131 q0 5 6 8q4 4 8 4h19v-186h-21v153h-2v-4v-2q0 -1 -1 -2h-1q-5 -11 -9 -21.5t-7 -19.5q-5 -11 -9.5 -19t-7.5 -19q-5 -8 -9 -16.5t-7 -17.5t-7 -16.5t-7 -15.5h-23q-8 17 -15 35t-16 36t-16.5 37t-15.5 37q-2 0 -2 4v4v-153h-21z" />
<glyph unicode="4" horiz-adv-x="3575" d="M125 166q0 6 1 12t3 12t4.5 12.5t5.5 12.5q3 5 6 9t9 9q8 8 20 15q11 7 23 10q6 2 12 3t12 1q11 0 20.5 -2.5t18.5 -5.5q8 -5 15.5 -9.5t13.5 -11.5q0 -2 -1 -2t-3 -2l-2 -2q-2 -2 -3 -2h-1h-7h-4t-4 2q-5 3 -9.5 6t-10.5 5q-5 2 -11 2h-12q-8 0 -15 -1t-15 -3 q-12 -7 -21 -17q-6 -5 -9.5 -10.5t-6.5 -13.5q-6 -12 -7 -29v-9t3 -10q2 -10 8 -18q3 -5 6 -8t6 -8q6 -6 14 -11q5 -3 9.5 -4.5t9.5 -3.5t9.5 -2h10.5h12.5t12.5 2t11 4.5l11 5.5v39h-14q-2 0 -4 1t-4 1q-2 2 -3 2t-3 3q0 2 -1 3t-1 3q-2 2 -2 6v2h51v-72q-3 -5 -6 -7t-9 -5 q-3 -2 -6 -3t-8 -1q-5 -2 -9 -3t-9 -1h-21h-12t-12 2q-11 3 -23 10q-12 6 -20 14q-9 9 -15 21q-7 10 -10 21q-2 7 -3 13.5t-1 12.5zM125 -274q0 4 1 7.5t1 6.5q2 3 2 6t2 6l6 12q4 3 8 11l129 174h-141v51h215v-25v-14q-2 -3 -3 -6t-3 -6l-145 -193q2 0 4 2q2 0 4 2h4h139 v-51h-223v17zM133 326v784h1223q0 81 30 154q32 73 84 125q54 51 125 81q71 31 150 31q87 0 156 -33q71 -34 122 -86q51 -54 82 -125t31 -147h1221v-784h-3224zM301 459h29v76h45q6 0 12 1t12 3q12 6 21 14q8 8 14 20q2 6 3 12.5t1 12.5q0 8 -1 14t-3 13q-3 5 -6 9t-8 9 t-9.5 8.5t-11.5 5.5q-12 6 -24 7h-74v-205zM330 561v74h45q3 0 6 -1t8 -3q3 0 5.5 -2t4.5 -4q4 -4 9 -13q2 -4 2 -14v-7t-2 -7q-4 -8 -9 -11q-4 -5 -10 -8q-5 -2 -8 -3t-6 -1h-45zM336 74v186h113v-22h-93v-60h74v-20h-74v-64h93v-20h-113zM385 0h186v-51h-133v-68h107v-51 h-107v-70h133v-51h-186v291zM459 459h127v26h-99v62h80v28h-80v60h99v29h-127v-205zM471 238v22h141v-22h-59v-164h-23v164h-59zM582 0h223v-51h-86v-240h-53v240h-84v51zM629 459h28v84h31l53 -72q3 -7 11 -10q2 -2 6.5 -2h9.5h18l-65 88q5 2 9 3t7 5q8 3 15 12q5 6 8 17 q2 5 2 9v8q0 8 -0.5 14t-3.5 12q-2 5 -5.5 9t-7.5 9q-9 9 -18 12q-12 6 -25 7h-73v-205zM657 571v64h45q4 0 13 -4q7 0 10 -6q3 -2 4.5 -4.5t3.5 -4.5q0 -3 1 -6.5t1 -8.5q0 -2 -1 -5t-1 -6q-2 -2 -3.5 -4.5t-4.5 -5.5q-2 -2 -10 -7q-4 -2 -13 -2h-45zM729 74v186h113v-22 h-92v-64h77v-20h-77v-80h-21zM760 -291l127 291h49l125 -291h-33q-11 0 -20 6q-5 3 -8.5 7.5t-6.5 8.5l-16 40h-131l-19 -40q0 -3 -4 -7q-2 -3 -4 -5l-4 -4q-3 -2 -5 -3t-5 -1q-3 -2 -5.5 -2h-4.5h-35zM795 496q2 -2 2 -3t2 -1q0 -2 1 -3.5t1 -3.5q4 -4 5 -6q4 -5 7 -5 q9 -10 20 -13.5t25 -3.5q8 0 14.5 0.5t14.5 3.5q11 3 20 13q12 10 17 20q6 12 6 24q0 29 -23 45q-2 2 -4 3t-4 3q-3 2 -5 2t-5 2q-2 2 -4 2t-6 3q-2 0 -11 4q-5 2 -9 3t-7 3q-5 2 -7 3t-5 3q-4 4 -6 7q-1 3 -1 11q0 6 1 11q2 2 3.5 4t4.5 4q2 0 10 4q4 2 12 2q3 0 5.5 -1 t4.5 -1q3 -2 7 -3t6 -3q8 -4 12 -4q8 0 14 6l7 4q-2 3 -5 5t-6 5t-6 5t-6 5q-3 2 -7 3t-9 4q-8 4 -17 4q-6 0 -11 -1t-11 -3t-11 -5l-10 -6q-3 -3 -6 -7t-6 -9q-6 -9 -6 -23q0 -8 1.5 -12.5t4.5 -9.5q3 -10 12 -17q7 -7 19 -10q5 -3 9.5 -5t10.5 -5q3 -2 6 -2.5t8 -1.5 q3 -2 7 -3t6 -3q3 -3 5.5 -5t4.5 -6q2 -3 3 -6t1 -8q0 -6 -4 -14q-3 -7 -10 -10q-2 -3 -5.5 -5t-7.5 -4q-5 0 -8 -1t-8 -1q-3 0 -7 1t-7 1q-8 4 -11 9l-4 2q-6 6 -16 6q-7 0 -10 -4zM868 -176h86l-39 88q-2 3 -2 5.5t-2 4.5v8q0 -4 -2 -8q0 -2 -1 -4.5t-1 -5.5zM879 145v115 h20v-115q0 -6 0.5 -10.5t3.5 -9.5q2 -6 4.5 -9.5t5.5 -9.5q5 -3 9 -5.5t10 -4.5q5 -3 9.5 -3.5t10.5 -0.5t11 0.5t10 3.5q11 4 16 10q5 5 7 9l5 10q2 5 3.5 9.5t1.5 10.5v115h20v-115q0 -16 -6 -28q-3 -8 -6 -14t-8 -11q-6 -5 -12.5 -9t-12.5 -7q-6 -2 -13 -3t-16 -1 q-8 0 -15 1t-13 3q-13 5 -25 16q-5 5 -9 11t-6 14q-4 6 -4.5 13t-0.5 15zM952 559q0 -9 1.5 -19.5t7.5 -19.5q5 -11 10.5 -18.5t11.5 -16.5q8 -6 16 -11.5t17 -8.5q19 -8 41 -8h14t14 2q6 3 12.5 5t12.5 7q10 5 23 14q3 5 7 11t7 12q5 6 7 12t5 12q2 8 2 14v13v15.5t-2 13.5 q-3 8 -5 14t-7 12q-3 5 -7 10.5t-7 10.5q-6 5 -11.5 8t-11.5 8q-6 3 -12 5.5t-13 5.5q-8 2 -14 3t-14 1q-6 0 -13.5 -1t-13.5 -3q-8 -2 -14 -5l-12 -6q-5 -5 -10.5 -8t-10.5 -8t-9 -10t-7 -11l-6 -12t-5 -14q-2 -6 -3 -13.5t-1 -15.5zM981 559q0 18 6 31q3 8 6.5 13.5 t10.5 10.5q5 6 10.5 10t13.5 7q13 6 29 6q15 0 30 -6q6 -3 12.5 -7t12.5 -10q11 -11 16 -24q6 -12 7 -31q0 -13 -7 -29q-3 -6 -7 -12t-9 -12q-6 -5 -12 -9t-13 -8q-15 -6 -30 -6t-29 6q-13 5 -24 17q-6 6 -10 12t-7 12q-6 15 -6 29zM1065 74v186h22v-166h82v-20h-104z M1073 0h187v-51h-134v-74h111v-51h-111v-115h-53v291zM1194 74v186h20v-166h82v-20h-102zM1200 459h29v172v-4q2 -2 2 -3v-1q0 -2 1 -3q0 -1 1 -2l117 -159h24v205h-28v-160q0 5 -1.5 8t-3.5 6l-100 137q-4 4 -8 7q-3 0 -6 1t-6 1h-21v-205zM1278 -145q0 9 0.5 19t3.5 20 q3 9 6 17.5t8 16.5q5 9 11 16t14 15q13 13 29 23q9 4 17 8.5t17 7.5q11 2 20.5 3t20.5 1t20.5 -1t18.5 -3q9 -3 18 -7.5l17 -8.5q9 -5 17 -11t14 -12q6 -8 11.5 -15t10.5 -16q5 -8 9 -16.5t6 -17.5q6 -18 6 -39q0 -20 -6 -39q-2 -9 -5.5 -18.5t-9.5 -18.5q-9 -15 -22 -29 q-6 -6 -14 -11.5t-17 -10.5q-8 -6 -16.5 -10t-18.5 -7q-9 -2 -18 -3t-21 -1q-15 0 -30 2.5t-27 7.5q-14 6 -26 14t-21 19q-22 22 -33 47q-6 14 -8 27.5t-2 30.5zM1329 -145q0 -9 2.5 -18.5t5.5 -18.5q10 -20 21 -31q6 -6 13.5 -10.5t17.5 -9.5q15 -6 36 -7q18 0 37 7 q7 5 15 9.5t16 10.5q6 6 10.5 14t9.5 17q6 18 7 37q0 18 -7 36q-5 9 -9.5 16t-10.5 15q-8 6 -16 10.5t-15 8.5q-16 8 -37 8q-24 0 -36 -8q-9 -4 -17 -8.5t-14 -10.5q-6 -8 -11 -14.5t-10 -16.5q-3 -9 -5.5 -18t-2.5 -18zM1386 260h11q3 0 5 -1t5 -3q2 -2 4 -3.5t2 -4.5 l62 -139q0 -2 1 -3.5t1 -3.5v-6v6q2 2 2 7q8 17 15 34.5t15 34.5q8 18 15.5 35t15.5 35q2 4 6 8q8 4 10 4h13q-11 -24 -21.5 -47.5t-19.5 -46.5q-11 -24 -20.5 -46.5t-20.5 -45.5h-21zM1386 1108q0 -71 29 -137q14 -33 32.5 -61.5t43.5 -53.5q46 -49 113 -78q65 -31 141 -30 q73 0 139 28q65 28 115 78q25 24 43.5 52t34.5 61q27 66 26 141q0 34 -4.5 64.5t-15.5 58.5q-9 27 -24 53t-34 49q-18 22 -38.5 40.5t-44.5 35.5q-25 14 -50.5 25.5t-52.5 19.5q-22 8 -44.5 11t-49.5 3q-76 0 -143 -30q-33 -14 -61 -34t-52 -44q-25 -25 -43.5 -53.5 t-32.5 -61.5q-12 -33 -19.5 -66.5t-7.5 -70.5zM1393 459h16q8 0 11 2q7 5 10 10l14 33h104l15 -33q4 -8 8 -10q2 -2 5.5 -2h6.5h16l-88 205h-28zM1423 1108q0 58 19 111q8 27 21.5 49.5t31.5 46.5h428l-420 -424q-20 24 -35 48.5t-24 51.5q-11 27 -16 56.5t-5 60.5z M1456 532l37 86q2 2 2 5q0 2 1 4t1 4q0 -10 2 -13l37 -86h-80zM1528 866h434q-24 -18 -48.5 -33.5t-51.5 -26.5q-27 -10 -56.5 -16t-60.5 -6q-32 0 -61 6t-56 16q-28 11 -52.5 26.5t-47.5 33.5zM1528 1350q22 20 46.5 35t50.5 26q54 20 120 21q31 0 60.5 -5t56.5 -16 q55 -25 98 -61h-432zM1565 901l422 426q80 -104 79 -219q0 -30 -4 -57t-14 -54q-9 -27 -22.5 -49.5t-30.5 -46.5h-430zM1583 74v186h115v-22h-92v-60h73v-20h-73v-64h92v-20h-115zM1612 0h47q8 0 16 -4t11 -9q15 -20 30.5 -42t30.5 -43q15 -22 30 -43t29 -41q6 -6 6 -13 q2 -3 2.5 -5.5t0.5 -4.5v205h53v-291h-49l-138 195q-4 4 -4 6q-2 4 -6 8q0 2 -4 6q0 2 -1 3t-1 3v-221h-53v291zM1620 459h117v26h-88v179h-29v-205zM1741 74v186h67q5 0 10.5 -1t10.5 -3q5 -3 9 -6t7 -6t6 -7.5t7 -9.5q2 -5 3 -10t1 -10t-1 -9t-3 -10q-2 -10 -9 -16 l-12 -12q-5 -2 -8 -3t-8 -3l59 -80h-12q-8 0 -11 2q-6 2 -10 8l-53 70h-31v-80h-22zM1763 174h45q8 0 13 2q3 2 5 3t5 3q2 3 3 5t3 4q2 4 3 7.5t1 8.5q0 4 -4 12q-2 3 -3 5t-3 5q-3 2 -5 3t-5 4q-4 2 -13 2h-45v-64zM1853 539q0 -6 0.5 -12t3.5 -11q1 -6 3 -10.5t4 -9.5 q3 -5 6 -9.5t8 -7.5q3 -3 7 -6t9 -6t10.5 -4.5t10.5 -3.5t10 -3t10 -1q6 0 12.5 1t11.5 3q12 3 19 8q5 3 8.5 6t8.5 6q3 3 6 7t6 10q5 7 8 20q2 5 3 10.5t1 12.5v125h-28v-125q0 -6 -1 -11.5t-3 -11.5q-3 -5 -5.5 -9t-7.5 -7q-3 -5 -7 -7.5t-8 -5.5q-7 -2 -12 -3t-12 -1 q-5 0 -10 1t-10 3q-5 3 -9 5.5t-8 7.5q-9 6 -12 16q-2 6 -3 11t-1 12v125h-29v-125zM1892 0h224v-51h-84v-240h-54v240h-86v51zM1896 104l5 2l1 2q1 0 1.5 0.5t1.5 0.5h4q8 0 12 -5q3 -5 7 -6.5t7 -3.5q5 -2 8.5 -2h8.5h6t8 2q6 0 12 6q7 3 11 11q4 10 4 14q0 9 -4 15 q-3 6 -9 10q-4 4 -12 8q-4 0 -14 4q-6 2 -11 4l-10 4q-9 3 -16 10q-3 2 -5.5 5.5t-3.5 5.5q-2 5 -3.5 10.5t-1.5 11.5q0 11 6 20q3 8 12 15q7 7 16 10q5 2 11 3t11 1q2 0 6 -1t7 -1q5 -2 8 -3t7 -3q3 -3 5.5 -4.5t4.5 -3.5l8 -8l-4 -5q-4 -4 -10 -4q-8 0 -11 2q-2 2 -3 2 t-3 3q-2 0 -2 1t-2 1t-3 1t-3 1h-5h-8t-7 -2q-3 0 -5.5 -1t-5.5 -4q-2 -3 -4 -5t-2 -5q-4 -4 -4 -10q0 -8 2 -10q2 -4 6 -8q5 -4 13 -7q3 -2 7 -3t9 -3q3 -2 5 -2t5 -2q4 0 8 -4q3 0 5.5 -1t5.5 -3q2 0 6 -4l8 -8t7 -8q1 -7 2 -12t1 -13q0 -6 -1 -11t-2 -12q-4 -5 -7 -9.5 t-8 -6.5q-7 -7 -21 -10q-5 -3 -10.5 -3.5t-11.5 -0.5q-27 0 -41 14q-2 2 -5 4.5t-5 5.5q-4 4 -5 8zM2048 496q0 -2 1 -3q0 -1 1 -1q2 -2 2 -3.5t2 -3.5q4 -4 4 -6q4 -5 8 -5q9 -10 20 -13.5t25 -3.5q8 0 14.5 0.5t11.5 3.5q15 3 24 13q11 10 16 20q3 6 3.5 12t0.5 12 q0 31 -20 45q-4 2 -9 6q-3 2 -5 2t-5 2q-4 2 -5.5 2t-4.5 3q-3 0 -5 1t-5 3q-5 2 -9.5 3t-7.5 3q-9 3 -12 6q-6 3 -6 7q-2 3 -2 11q0 6 2 11q2 2 3.5 4t4.5 4q2 0 10 4q4 2 13 2q3 0 5 -1t5 -1l12 -6q8 -4 12 -4q6 0 13 6l8 4q-2 3 -4.5 5t-5.5 5t-6.5 5t-6.5 5q-3 2 -7 3 t-9 4q-5 2 -8 3t-8 1q-6 0 -12 -1t-11 -3q-6 -2 -10.5 -5t-9.5 -6l-7 -7t-6 -9q-6 -9 -6 -23q0 -8 1.5 -12.5t3.5 -9.5q5 -11 14 -17q7 -7 16 -10q6 -3 11 -5t12 -5q3 -2 6 -2.5t8 -1.5l12 -6q3 -3 5.5 -5t4.5 -6q2 -3 3 -6t1 -8q0 -6 -4 -14q-3 -7 -10 -10q-5 -5 -14 -9 q-3 0 -7 -1t-8 -1q-5 0 -8 1t-6 1q-10 3 -12 9l-2 2q-6 6 -17 6q-8 0 -10 -4zM2054 74v186h23v-186h-23zM2120 166q0 6 1 12t3 12t3.5 12.5t4.5 12.5q4 5 7.5 9t8.5 9t9.5 8.5t9.5 6.5q10 7 21 10q7 2 13.5 3t14.5 1q6 0 12 -1t11 -3q12 -3 24 -10q12 -6 21 -15q5 -5 8 -9 t6 -9q3 -6 5.5 -12t4.5 -13q2 -6 2 -12v-12q0 -20 -6 -37q-8 -17 -20 -31q-16 -14 -31 -20q-20 -6 -37 -6q-23 0 -39 6q-17 6 -29 20q-6 6 -11.5 14t-8.5 17q-5 8 -6.5 18t-1.5 19zM2120 -229q2 0 6 4q4 0 8 4q2 0 4 1t4 1t4 0.5t4 0.5q6 0 13 -3q5 0 8 -1t6 -3q7 -7 16 -11 q5 -2 11 -3t12 -1h7t9 2q3 2 7.5 3.5t7.5 3.5q9 6 12 13q6 7 6 17q0 5 -1 8.5t-3 6.5q-3 3 -6 5.5t-6 4.5q-8 5 -17 8q-8 1 -18 8q-8 2 -15.5 4.5t-15.5 5.5t-14 7.5t-12 9.5q-10 10 -17 22q-8 13 -8 33q0 10 2.5 18.5t5.5 16.5q10 16 21 25q6 4 13 8.5t14 7.5q8 2 17 3 t17 1q6 0 12.5 -1t12.5 -3q13 -3 22 -11q6 -2 11 -6.5t10 -9.5q5 -3 8 -7t6 -9l-10 -8l-6 -4t-9 -4q-5 -2 -8 -3t-6 -1h-4h-4q-3 2 -5 3t-5 3q-2 2 -5 2t-4 2q-2 0 -3.5 1t-4.5 1q-2 2 -8 2h-6t-8 -2q-6 0 -10 -4q-3 -2 -6.5 -5t-4.5 -4q-2 -4 -2 -12t2 -10q1 -3 4 -5t7 -5 q3 -2 7 -3t9 -3t10.5 -4.5t13.5 -4.5l9 -4q9 -3 15.5 -6t14.5 -8q15 -8 23 -19q9 -9 12 -22q6 -12 6 -29q0 -11 -2.5 -19.5t-5.5 -17.5q-5 -9 -10.5 -16.5t-11.5 -14.5q-15 -11 -35 -18q-20 -6 -37 -6q-23 0 -41 6q-9 5 -17 10t-16 13q-5 5 -8 9t-6 9q-5 8 -8 17zM2140 166 q0 -5 1 -9t3 -10t3 -9.5t3 -8.5q3 -5 6.5 -8t6.5 -8q6 -6 14 -11q7 -5 18 -8q5 -2 10 -2h11h9t9 2q4 2 9 3.5t10 4.5q5 2 8 5l6 6q5 5 7 8t5 8q6 8 9 18q2 5 2 9.5v9.5q0 16 -6 29q-3 8 -7 13.5t-10 10.5q-10 10 -22 17q-6 2 -13.5 3t-15.5 1t-15.5 -1t-15.5 -3 q-12 -6 -22 -17q-5 -5 -9.5 -10.5t-7.5 -13.5q-6 -12 -6 -29zM2218 459h127v26h-100v62h79v28h-79v60h100v29h-127v-205zM2333 -262q0 3 1 6.5t1 5.5q4 8 7 10q4 6 11 7q8 4 12 4t13 -4q7 -1 10 -7q5 -3 5 -10q2 -2 3.5 -5.5t1.5 -6.5q0 -5 -5 -12q0 -5 -5 -11q-2 -2 -10 -6 q-4 -2 -13 -2q-8 0 -12 2q-8 4 -11 6q-2 3 -3.5 5t-3.5 6q0 3 -1 6t-1 6zM2345 74v186h14q13 0 17 -8l96 -135q2 -1 2 -2.5t2 -3.5v-5v154h23v-186h-21l-108 153l-3 2v2q0 2 -2 5v-162h-20zM2417 -145q0 20 6 39q2 9 5.5 17.5t8.5 16.5q5 9 11 16t12 15q8 6 14.5 11.5 t15.5 11.5l17 8.5t18 7.5q11 2 20.5 3t18.5 1t17 -0.5t16 -3.5q13 -3 31 -11q12 -5 26 -16q6 -5 12.5 -10.5t12.5 -11.5l-13 -14q-4 -3 -12 -7q-5 -2 -16 -2q-9 0 -19 6q-6 2 -12 6t-14 7q-6 2 -13.5 3t-15.5 1q-9 0 -18 -1.5t-17 -6.5q-9 -4 -16.5 -8.5t-13.5 -10.5 q-8 -8 -13 -14.5t-8 -16.5q-8 -16 -8 -36t8 -37q6 -19 21 -31q6 -6 13.5 -10.5t16.5 -9.5q15 -6 35 -7q8 0 15.5 1t13.5 3q14 3 26 13q2 2 4.5 2t4.5 2q3 1 5.5 1h4.5q8 0 16 -3q8 -4 12 -8l13 -11q-6 -6 -12.5 -11.5t-12.5 -10.5t-13 -9t-13 -8q-8 -5 -15.5 -6.5 t-15.5 -3.5q-8 -3 -16 -3.5t-17 -0.5q-14 0 -28.5 2.5t-28.5 7.5q-26 11 -47 33q-9 11 -17 22t-14 25q-12 28 -12 58zM2462 559q0 -9 1.5 -19.5t6.5 -19.5q3 -11 8.5 -18.5t11.5 -16.5q8 -6 17 -11.5t18 -8.5q16 -8 41 -8h13.5t13.5 2q8 3 14 5t12 7q5 3 10.5 6t10.5 8 q10 10 16 23q3 6 5.5 12t4.5 12l3.5 14t1.5 13q0 8 -1 15.5t-4 13.5q-2 8 -4.5 14t-5.5 12q-3 5 -7 10.5t-9 10.5t-10 8t-11 8q-6 3 -12 5.5t-14 5.5q-6 2 -13.5 3t-13.5 1q-8 0 -14.5 -1t-14.5 -3q-6 -2 -12 -5l-12 -6q-6 -5 -11 -8t-12 -8q-5 -5 -8 -10t-8 -11 q-3 -6 -5 -12t-5 -14q-2 -6 -2 -13.5v-15.5zM2488 559q0 18 6 31q3 8 7.5 13.5t9.5 10.5q6 6 12 10t12 7q8 3 15 4.5t16 1.5q16 0 29 -6q8 -3 13.5 -7t10.5 -10q6 -5 10 -10.5t7 -13.5q6 -12 6 -31q0 -13 -6 -29q-3 -6 -6.5 -12t-10.5 -12q-5 -5 -10.5 -9t-13.5 -8 q-12 -6 -29 -6q-9 0 -15.5 1.5t-15.5 4.5q-6 3 -12 7.5t-12 9.5q-5 6 -9 12l-8 12q-6 15 -6 29zM2634 74v186h114v-22h-94v-64h78v-20h-78v-80h-20zM2697 -145q0 20 6 39q3 9 6.5 17.5t8.5 16.5q5 9 10.5 16t13.5 15q13 13 29 23q9 4 17.5 8.5t17.5 7.5q11 2 20 3t21 1 q9 0 19 -1t20 -3q9 -3 17.5 -7.5t16.5 -8.5q9 -5 16 -11t15 -12q6 -8 12 -15t11 -16q5 -8 8.5 -16.5t5.5 -17.5q6 -18 6 -39q0 -20 -6 -39q-2 -9 -5.5 -18.5t-8.5 -18.5q-9 -15 -23 -29q-8 -6 -14.5 -11.5t-16.5 -10.5q-8 -6 -16.5 -10t-17.5 -7q-9 -2 -19.5 -3t-19.5 -1 q-15 0 -30 2.5t-30 7.5q-12 6 -24 14t-21 19q-22 22 -32 47q-7 14 -10 27.5t-3 30.5zM2707 459h29v172q2 -2 2 -3v-1q0 -4 2 -4q0 -4 2 -5l117 -159h23v205h-29v-160q0 5 -1 8t-3 6l-101 137q-4 4 -8 7q-2 0 -4.5 1t-7.5 1h-21v-205zM2750 -145q0 -9 2 -18.5t7 -18.5 q3 -9 8.5 -17t11.5 -14t14 -10.5t17 -9.5q15 -6 37 -7q18 0 37 7q8 5 15 9.5t15 10.5q6 6 11 14t10 17q6 18 6 37q0 18 -6 36q-5 9 -10 16t-11 15q-8 6 -15 10.5t-15 8.5q-16 8 -37 8q-24 0 -37 -8q-9 -4 -17 -8.5t-14 -10.5q-6 -8 -11.5 -14.5t-8.5 -16.5q-5 -9 -7 -18 t-2 -18zM2771 74v186h65q6 0 11 -1t10 -3q6 -3 9.5 -6t6.5 -6q9 -6 13 -17q2 -5 3 -10t1 -10v-9t-2 -10q-4 -9 -11 -16q-3 -6 -12 -12q-3 -2 -7.5 -3t-8.5 -3l61 -80h-12q-10 0 -14 2q-2 2 -4.5 3.5t-4.5 4.5l-51 70h-33v-80h-20zM2791 174h45q9 0 13 2q8 4 10 6q6 6 6 9 q2 4 3 7.5t1 8.5q0 4 -4 12q0 4 -6 10q-2 2 -10 7q-4 2 -13 2h-45v-64zM2929 166q0 6 1 12t3 12t3.5 12.5t6.5 12.5q2 5 5.5 9t7.5 9t9.5 8.5t10.5 6.5l11 5.5t11 4.5t12.5 3t12.5 1q8 0 14 -1t12 -3q11 -3 23 -10q12 -6 20 -15q5 -5 8.5 -9t6.5 -9l4 -12t4 -13 q3 -6 3.5 -12t0.5 -12q0 -9 -2 -19t-7 -18q-5 -18 -18 -31q-16 -14 -30 -20q-18 -6 -39 -6q-18 0 -37 6q-15 6 -30 20q-13 11 -19 31q-5 8 -6.5 18t-1.5 19zM2933 459h116v26h-90v179h-26v-205zM2949 166q0 -5 1 -9t1 -10q2 -6 4 -9.5t4 -8.5q3 -5 6.5 -8t6.5 -8 q6 -6 14 -11q5 -3 9 -4.5t9 -3.5t9.5 -2h9.5h10.5t9.5 2t9.5 3.5t9.5 4.5q5 2 8 5l6 6q5 5 7 8t5 8q6 8 9 18q2 5 2 9.5v9.5q0 16 -7 29q-3 8 -6.5 13.5t-9.5 10.5q-10 10 -22 17q-8 2 -15.5 3t-15.5 1q-6 0 -13.5 -1t-15.5 -3q-12 -6 -22 -17q-5 -5 -9.5 -10.5t-7.5 -13.5 q-6 -12 -6 -29zM3021 664l74 -101l1 -1q0 -1 0.5 -1.5t0.5 -1.5q2 -2 2 -3t2 -1v-5v-5v-86h28v86q0 2 1 3t1 2v2q0 1 2 3v1q0 1 2 3q0 4 5 4l71 101h-18q-10 0 -15 -5q-3 -2 -5.5 -5t-4.5 -5l-49 -65q-1 0 -2 -1v-1q0 -1 -0.5 -1.5t-0.5 -1.5l-1 -1v4v1l-2 1l-47 65 q-3 2 -5.5 5t-4.5 5q-5 2 -8.5 3.5t-8.5 1.5h-18zM3031 0h53q3 0 6.5 -1t6.5 -1q2 -2 4 -2t4 -2q3 -2 4.5 -4.5t3.5 -3.5q2 -2 3 -4t3 -5q9 -24 17.5 -45t17.5 -43q9 -24 18 -45t17 -43q2 -2 2 -6q0 -2 1 -3t1 -3v-7v-1l2 1v7q0 4 2 6v6l10 21l62 155q0 5 6 9q3 5 8 8 q2 2 5 2t5 2q2 0 4.5 1t5.5 1h54v-291h-54v213q-2 -3 -3 -6t-1 -8q-2 -5 -3 -8t-3 -6l-37 -93q-9 -24 -18 -46t-21 -46h-47l-75 185q-2 3 -3.5 6t-3.5 8q0 4 -4 12v-211h-53v291zM3160 74v186h16q4 0 9 -4q6 -3 6 -8l65 -144v-4q2 -2 2 -3v-1v4.5t2 5.5t2 5.5t1 5.5l61 131 q0 5 6 8q4 4 8 4h19v-186h-21v153h-2v-4v-2q0 -1 -1 -2h-1q-5 -11 -9 -21.5t-7 -19.5q-5 -11 -9.5 -19t-7.5 -19q-5 -8 -9 -16.5t-7 -17.5t-7 -16.5t-7 -15.5h-23q-8 17 -15 35t-16 36t-16.5 37t-15.5 37q-2 0 -2 4v4v-153h-21z" />
<glyph unicode="5" horiz-adv-x="3575" d="M125 166q0 6 1 12t3 12t4.5 12.5t5.5 12.5q3 5 6 9t9 9q8 8 20 15q11 7 23 10q6 2 12 3t12 1q11 0 20.5 -2.5t18.5 -5.5q8 -5 15.5 -9.5t13.5 -11.5q0 -2 -1 -2t-3 -2l-2 -2q-2 -2 -3 -2h-1h-7h-4t-4 2q-5 3 -9.5 6t-10.5 5q-5 2 -11 2h-12q-8 0 -15 -1t-15 -3 q-12 -7 -21 -17q-6 -5 -9.5 -10.5t-6.5 -13.5q-6 -12 -7 -29v-9t3 -10q2 -10 8 -18q3 -5 6 -8t6 -8q6 -6 14 -11q5 -3 9.5 -4.5t9.5 -3.5t9.5 -2h10.5h12.5t12.5 2t11 4.5l11 5.5v39h-14q-2 0 -4 1t-4 1q-2 2 -3 2t-3 3q0 2 -1 3t-1 3q-2 2 -2 6v2h51v-72q-3 -5 -6 -7t-9 -5 q-3 -2 -6 -3t-8 -1q-5 -2 -9 -3t-9 -1h-21h-12t-12 2q-11 3 -23 10q-12 6 -20 14q-9 9 -15 21q-7 10 -10 21q-2 7 -3 13.5t-1 12.5zM125 -274q0 4 1 7.5t1 6.5q2 3 2 6t2 6l6 12q4 3 8 11l129 174h-141v51h215v-25v-14q-2 -3 -3 -6t-3 -6l-145 -193q2 0 4 2q2 0 4 2h4h139 v-51h-223v17zM133 326v784h1223q0 81 30 154q32 73 84 125q54 51 125 81q71 31 150 31q87 0 156 -33q71 -34 122 -86q51 -54 82 -125t31 -147h1221v-784h-3224zM301 459h29v76h45q6 0 12 1t12 3q12 6 21 14q8 8 14 20q2 6 3 12.5t1 12.5q0 8 -1 14t-3 13q-3 5 -6 9t-8 9 t-9.5 8.5t-11.5 5.5q-12 6 -24 7h-74v-205zM330 561v74h45q3 0 6 -1t8 -3q3 0 5.5 -2t4.5 -4q4 -4 9 -13q2 -4 2 -14v-7t-2 -7q-4 -8 -9 -11q-4 -5 -10 -8q-5 -2 -8 -3t-6 -1h-45zM336 74v186h113v-22h-93v-60h74v-20h-74v-64h93v-20h-113zM385 0h186v-51h-133v-68h107v-51 h-107v-70h133v-51h-186v291zM459 459h127v26h-99v62h80v28h-80v60h99v29h-127v-205zM471 238v22h141v-22h-59v-164h-23v164h-59zM582 0h223v-51h-86v-240h-53v240h-84v51zM629 459h28v84h31l53 -72q3 -7 11 -10q2 -2 6.5 -2h9.5h18l-65 88q5 2 9 3t7 5q8 3 15 12q5 6 8 17 q2 5 2 9v8q0 8 -0.5 14t-3.5 12q-2 5 -5.5 9t-7.5 9q-9 9 -18 12q-12 6 -25 7h-73v-205zM657 571v64h45q4 0 13 -4q7 0 10 -6q3 -2 4.5 -4.5t3.5 -4.5q0 -3 1 -6.5t1 -8.5q0 -2 -1 -5t-1 -6q-2 -2 -3.5 -4.5t-4.5 -5.5q-2 -2 -10 -7q-4 -2 -13 -2h-45zM729 74v186h113v-22 h-92v-64h77v-20h-77v-80h-21zM760 -291l127 291h49l125 -291h-33q-11 0 -20 6q-5 3 -8.5 7.5t-6.5 8.5l-16 40h-131l-19 -40q0 -3 -4 -7q-2 -3 -4 -5l-4 -4q-3 -2 -5 -3t-5 -1q-3 -2 -5.5 -2h-4.5h-35zM795 496q2 -2 2 -3t2 -1q0 -2 1 -3.5t1 -3.5q4 -4 5 -6q4 -5 7 -5 q9 -10 20 -13.5t25 -3.5q8 0 14.5 0.5t14.5 3.5q11 3 20 13q12 10 17 20q6 12 6 24q0 29 -23 45q-2 2 -4 3t-4 3q-3 2 -5 2t-5 2q-2 2 -4 2t-6 3q-2 0 -11 4q-5 2 -9 3t-7 3q-5 2 -7 3t-5 3q-4 4 -6 7q-1 3 -1 11q0 6 1 11q2 2 3.5 4t4.5 4q2 0 10 4q4 2 12 2q3 0 5.5 -1 t4.5 -1q3 -2 7 -3t6 -3q8 -4 12 -4q8 0 14 6l7 4q-2 3 -5 5t-6 5t-6 5t-6 5q-3 2 -7 3t-9 4q-8 4 -17 4q-6 0 -11 -1t-11 -3t-11 -5l-10 -6q-3 -3 -6 -7t-6 -9q-6 -9 -6 -23q0 -8 1.5 -12.5t4.5 -9.5q3 -10 12 -17q7 -7 19 -10q5 -3 9.5 -5t10.5 -5q3 -2 6 -2.5t8 -1.5 q3 -2 7 -3t6 -3q3 -3 5.5 -5t4.5 -6q2 -3 3 -6t1 -8q0 -6 -4 -14q-3 -7 -10 -10q-2 -3 -5.5 -5t-7.5 -4q-5 0 -8 -1t-8 -1q-3 0 -7 1t-7 1q-8 4 -11 9l-4 2q-6 6 -16 6q-7 0 -10 -4zM868 -176h86l-39 88q-2 3 -2 5.5t-2 4.5v8q0 -4 -2 -8q0 -2 -1 -4.5t-1 -5.5zM879 145v115 h20v-115q0 -6 0.5 -10.5t3.5 -9.5q2 -6 4.5 -9.5t5.5 -9.5q5 -3 9 -5.5t10 -4.5q5 -3 9.5 -3.5t10.5 -0.5t11 0.5t10 3.5q11 4 16 10q5 5 7 9l5 10q2 5 3.5 9.5t1.5 10.5v115h20v-115q0 -16 -6 -28q-3 -8 -6 -14t-8 -11q-6 -5 -12.5 -9t-12.5 -7q-6 -2 -13 -3t-16 -1 q-8 0 -15 1t-13 3q-13 5 -25 16q-5 5 -9 11t-6 14q-4 6 -4.5 13t-0.5 15zM952 559q0 -9 1.5 -19.5t7.5 -19.5q5 -11 10.5 -18.5t11.5 -16.5q8 -6 16 -11.5t17 -8.5q19 -8 41 -8h14t14 2q6 3 12.5 5t12.5 7q10 5 23 14q3 5 7 11t7 12q5 6 7 12t5 12q2 8 2 14v13v15.5t-2 13.5 q-3 8 -5 14t-7 12q-3 5 -7 10.5t-7 10.5q-6 5 -11.5 8t-11.5 8q-6 3 -12 5.5t-13 5.5q-8 2 -14 3t-14 1q-6 0 -13.5 -1t-13.5 -3q-8 -2 -14 -5l-12 -6q-5 -5 -10.5 -8t-10.5 -8t-9 -10t-7 -11l-6 -12t-5 -14q-2 -6 -3 -13.5t-1 -15.5zM981 559q0 18 6 31q3 8 6.5 13.5 t10.5 10.5q5 6 10.5 10t13.5 7q13 6 29 6q15 0 30 -6q6 -3 12.5 -7t12.5 -10q11 -11 16 -24q6 -12 7 -31q0 -13 -7 -29q-3 -6 -7 -12t-9 -12q-6 -5 -12 -9t-13 -8q-15 -6 -30 -6t-29 6q-13 5 -24 17q-6 6 -10 12t-7 12q-6 15 -6 29zM1065 74v186h22v-166h82v-20h-104z M1073 0h187v-51h-134v-74h111v-51h-111v-115h-53v291zM1194 74v186h20v-166h82v-20h-102zM1200 459h29v172v-4q2 -2 2 -3v-1q0 -2 1 -3q0 -1 1 -2l117 -159h24v205h-28v-160q0 5 -1.5 8t-3.5 6l-100 137q-4 4 -8 7q-3 0 -6 1t-6 1h-21v-205zM1278 -145q0 9 0.5 19t3.5 20 q3 9 6 17.5t8 16.5q5 9 11 16t14 15q13 13 29 23q9 4 17 8.5t17 7.5q11 2 20.5 3t20.5 1t20.5 -1t18.5 -3q9 -3 18 -7.5l17 -8.5q9 -5 17 -11t14 -12q6 -8 11.5 -15t10.5 -16q5 -8 9 -16.5t6 -17.5q6 -18 6 -39q0 -20 -6 -39q-2 -9 -5.5 -18.5t-9.5 -18.5q-9 -15 -22 -29 q-6 -6 -14 -11.5t-17 -10.5q-8 -6 -16.5 -10t-18.5 -7q-9 -2 -18 -3t-21 -1q-15 0 -30 2.5t-27 7.5q-14 6 -26 14t-21 19q-22 22 -33 47q-6 14 -8 27.5t-2 30.5zM1329 -145q0 -9 2.5 -18.5t5.5 -18.5q10 -20 21 -31q6 -6 13.5 -10.5t17.5 -9.5q15 -6 36 -7q18 0 37 7 q7 5 15 9.5t16 10.5q6 6 10.5 14t9.5 17q6 18 7 37q0 18 -7 36q-5 9 -9.5 16t-10.5 15q-8 6 -16 10.5t-15 8.5q-16 8 -37 8q-24 0 -36 -8q-9 -4 -17 -8.5t-14 -10.5q-6 -8 -11 -14.5t-10 -16.5q-3 -9 -5.5 -18t-2.5 -18zM1386 260h11q3 0 5 -1t5 -3q2 -2 4 -3.5t2 -4.5 l62 -139q0 -2 1 -3.5t1 -3.5v-6v6q2 2 2 7q8 17 15 34.5t15 34.5q8 18 15.5 35t15.5 35q2 4 6 8q8 4 10 4h13q-11 -24 -21.5 -47.5t-19.5 -46.5q-11 -24 -20.5 -46.5t-20.5 -45.5h-21zM1386 1108q0 -71 29 -137q14 -33 32.5 -61.5t43.5 -53.5q46 -49 113 -78q65 -31 141 -30 q73 0 139 28q65 28 115 78q25 24 43.5 52t34.5 61q27 66 26 141q0 34 -4.5 64.5t-15.5 58.5q-9 27 -24 53t-34 49q-18 22 -38.5 40.5t-44.5 35.5q-25 14 -50.5 25.5t-52.5 19.5q-22 8 -44.5 11t-49.5 3q-76 0 -143 -30q-33 -14 -61 -34t-52 -44q-25 -25 -43.5 -53.5 t-32.5 -61.5q-12 -33 -19.5 -66.5t-7.5 -70.5zM1393 459h16q8 0 11 2q7 5 10 10l14 33h104l15 -33q4 -8 8 -10q2 -2 5.5 -2h6.5h16l-88 205h-28zM1423 1108q0 58 19 111q8 27 21.5 49.5t31.5 46.5h428l-420 -424q-20 24 -35 48.5t-24 51.5q-11 27 -16 56.5t-5 60.5z M1456 532l37 86q2 2 2 5q0 2 1 4t1 4q0 -10 2 -13l37 -86h-80zM1528 866h434q-24 -18 -48.5 -33.5t-51.5 -26.5q-27 -10 -56.5 -16t-60.5 -6q-32 0 -61 6t-56 16q-28 11 -52.5 26.5t-47.5 33.5zM1528 1350q22 20 46.5 35t50.5 26q54 20 120 21q31 0 60.5 -5t56.5 -16 q55 -25 98 -61h-432zM1565 901l422 426q80 -104 79 -219q0 -30 -4 -57t-14 -54q-9 -27 -22.5 -49.5t-30.5 -46.5h-430zM1583 74v186h115v-22h-92v-60h73v-20h-73v-64h92v-20h-115zM1612 0h47q8 0 16 -4t11 -9q15 -20 30.5 -42t30.5 -43q15 -22 30 -43t29 -41q6 -6 6 -13 q2 -3 2.5 -5.5t0.5 -4.5v205h53v-291h-49l-138 195q-4 4 -4 6q-2 4 -6 8q0 2 -4 6q0 2 -1 3t-1 3v-221h-53v291zM1620 459h117v26h-88v179h-29v-205zM1741 74v186h67q5 0 10.5 -1t10.5 -3q5 -3 9 -6t7 -6t6 -7.5t7 -9.5q2 -5 3 -10t1 -10t-1 -9t-3 -10q-2 -10 -9 -16 l-12 -12q-5 -2 -8 -3t-8 -3l59 -80h-12q-8 0 -11 2q-6 2 -10 8l-53 70h-31v-80h-22zM1763 174h45q8 0 13 2q3 2 5 3t5 3q2 3 3 5t3 4q2 4 3 7.5t1 8.5q0 4 -4 12q-2 3 -3 5t-3 5q-3 2 -5 3t-5 4q-4 2 -13 2h-45v-64zM1853 539q0 -6 0.5 -12t3.5 -11q1 -6 3 -10.5t4 -9.5 q3 -5 6 -9.5t8 -7.5q3 -3 7 -6t9 -6t10.5 -4.5t10.5 -3.5t10 -3t10 -1q6 0 12.5 1t11.5 3q12 3 19 8q5 3 8.5 6t8.5 6q3 3 6 7t6 10q5 7 8 20q2 5 3 10.5t1 12.5v125h-28v-125q0 -6 -1 -11.5t-3 -11.5q-3 -5 -5.5 -9t-7.5 -7q-3 -5 -7 -7.5t-8 -5.5q-7 -2 -12 -3t-12 -1 q-5 0 -10 1t-10 3q-5 3 -9 5.5t-8 7.5q-9 6 -12 16q-2 6 -3 11t-1 12v125h-29v-125zM1892 0h224v-51h-84v-240h-54v240h-86v51zM1896 104l5 2l1 2q1 0 1.5 0.5t1.5 0.5h4q8 0 12 -5q3 -5 7 -6.5t7 -3.5q5 -2 8.5 -2h8.5h6t8 2q6 0 12 6q7 3 11 11q4 10 4 14q0 9 -4 15 q-3 6 -9 10q-4 4 -12 8q-4 0 -14 4q-6 2 -11 4l-10 4q-9 3 -16 10q-3 2 -5.5 5.5t-3.5 5.5q-2 5 -3.5 10.5t-1.5 11.5q0 11 6 20q3 8 12 15q7 7 16 10q5 2 11 3t11 1q2 0 6 -1t7 -1q5 -2 8 -3t7 -3q3 -3 5.5 -4.5t4.5 -3.5l8 -8l-4 -5q-4 -4 -10 -4q-8 0 -11 2q-2 2 -3 2 t-3 3q-2 0 -2 1t-2 1t-3 1t-3 1h-5h-8t-7 -2q-3 0 -5.5 -1t-5.5 -4q-2 -3 -4 -5t-2 -5q-4 -4 -4 -10q0 -8 2 -10q2 -4 6 -8q5 -4 13 -7q3 -2 7 -3t9 -3q3 -2 5 -2t5 -2q4 0 8 -4q3 0 5.5 -1t5.5 -3q2 0 6 -4l8 -8t7 -8q1 -7 2 -12t1 -13q0 -6 -1 -11t-2 -12q-4 -5 -7 -9.5 t-8 -6.5q-7 -7 -21 -10q-5 -3 -10.5 -3.5t-11.5 -0.5q-27 0 -41 14q-2 2 -5 4.5t-5 5.5q-4 4 -5 8zM2048 496q0 -2 1 -3q0 -1 1 -1q2 -2 2 -3.5t2 -3.5q4 -4 4 -6q4 -5 8 -5q9 -10 20 -13.5t25 -3.5q8 0 14.5 0.5t11.5 3.5q15 3 24 13q11 10 16 20q3 6 3.5 12t0.5 12 q0 31 -20 45q-4 2 -9 6q-3 2 -5 2t-5 2q-4 2 -5.5 2t-4.5 3q-3 0 -5 1t-5 3q-5 2 -9.5 3t-7.5 3q-9 3 -12 6q-6 3 -6 7q-2 3 -2 11q0 6 2 11q2 2 3.5 4t4.5 4q2 0 10 4q4 2 13 2q3 0 5 -1t5 -1l12 -6q8 -4 12 -4q6 0 13 6l8 4q-2 3 -4.5 5t-5.5 5t-6.5 5t-6.5 5q-3 2 -7 3 t-9 4q-5 2 -8 3t-8 1q-6 0 -12 -1t-11 -3q-6 -2 -10.5 -5t-9.5 -6l-7 -7t-6 -9q-6 -9 -6 -23q0 -8 1.5 -12.5t3.5 -9.5q5 -11 14 -17q7 -7 16 -10q6 -3 11 -5t12 -5q3 -2 6 -2.5t8 -1.5l12 -6q3 -3 5.5 -5t4.5 -6q2 -3 3 -6t1 -8q0 -6 -4 -14q-3 -7 -10 -10q-5 -5 -14 -9 q-3 0 -7 -1t-8 -1q-5 0 -8 1t-6 1q-10 3 -12 9l-2 2q-6 6 -17 6q-8 0 -10 -4zM2054 74v186h23v-186h-23zM2120 166q0 6 1 12t3 12t3.5 12.5t4.5 12.5q4 5 7.5 9t8.5 9t9.5 8.5t9.5 6.5q10 7 21 10q7 2 13.5 3t14.5 1q6 0 12 -1t11 -3q12 -3 24 -10q12 -6 21 -15q5 -5 8 -9 t6 -9q3 -6 5.5 -12t4.5 -13q2 -6 2 -12v-12q0 -20 -6 -37q-8 -17 -20 -31q-16 -14 -31 -20q-20 -6 -37 -6q-23 0 -39 6q-17 6 -29 20q-6 6 -11.5 14t-8.5 17q-5 8 -6.5 18t-1.5 19zM2120 -229q2 0 6 4q4 0 8 4q2 0 4 1t4 1t4 0.5t4 0.5q6 0 13 -3q5 0 8 -1t6 -3q7 -7 16 -11 q5 -2 11 -3t12 -1h7t9 2q3 2 7.5 3.5t7.5 3.5q9 6 12 13q6 7 6 17q0 5 -1 8.5t-3 6.5q-3 3 -6 5.5t-6 4.5q-8 5 -17 8q-8 1 -18 8q-8 2 -15.5 4.5t-15.5 5.5t-14 7.5t-12 9.5q-10 10 -17 22q-8 13 -8 33q0 10 2.5 18.5t5.5 16.5q10 16 21 25q6 4 13 8.5t14 7.5q8 2 17 3 t17 1q6 0 12.5 -1t12.5 -3q13 -3 22 -11q6 -2 11 -6.5t10 -9.5q5 -3 8 -7t6 -9l-10 -8l-6 -4t-9 -4q-5 -2 -8 -3t-6 -1h-4h-4q-3 2 -5 3t-5 3q-2 2 -5 2t-4 2q-2 0 -3.5 1t-4.5 1q-2 2 -8 2h-6t-8 -2q-6 0 -10 -4q-3 -2 -6.5 -5t-4.5 -4q-2 -4 -2 -12t2 -10q1 -3 4 -5t7 -5 q3 -2 7 -3t9 -3t10.5 -4.5t13.5 -4.5l9 -4q9 -3 15.5 -6t14.5 -8q15 -8 23 -19q9 -9 12 -22q6 -12 6 -29q0 -11 -2.5 -19.5t-5.5 -17.5q-5 -9 -10.5 -16.5t-11.5 -14.5q-15 -11 -35 -18q-20 -6 -37 -6q-23 0 -41 6q-9 5 -17 10t-16 13q-5 5 -8 9t-6 9q-5 8 -8 17zM2140 166 q0 -5 1 -9t3 -10t3 -9.5t3 -8.5q3 -5 6.5 -8t6.5 -8q6 -6 14 -11q7 -5 18 -8q5 -2 10 -2h11h9t9 2q4 2 9 3.5t10 4.5q5 2 8 5l6 6q5 5 7 8t5 8q6 8 9 18q2 5 2 9.5v9.5q0 16 -6 29q-3 8 -7 13.5t-10 10.5q-10 10 -22 17q-6 2 -13.5 3t-15.5 1t-15.5 -1t-15.5 -3 q-12 -6 -22 -17q-5 -5 -9.5 -10.5t-7.5 -13.5q-6 -12 -6 -29zM2218 459h127v26h-100v62h79v28h-79v60h100v29h-127v-205zM2333 -262q0 3 1 6.5t1 5.5q4 8 7 10q4 6 11 7q8 4 12 4t13 -4q7 -1 10 -7q5 -3 5 -10q2 -2 3.5 -5.5t1.5 -6.5q0 -5 -5 -12q0 -5 -5 -11q-2 -2 -10 -6 q-4 -2 -13 -2q-8 0 -12 2q-8 4 -11 6q-2 3 -3.5 5t-3.5 6q0 3 -1 6t-1 6zM2345 74v186h14q13 0 17 -8l96 -135q2 -1 2 -2.5t2 -3.5v-5v154h23v-186h-21l-108 153l-3 2v2q0 2 -2 5v-162h-20zM2417 -145q0 20 6 39q2 9 5.5 17.5t8.5 16.5q5 9 11 16t12 15q8 6 14.5 11.5 t15.5 11.5l17 8.5t18 7.5q11 2 20.5 3t18.5 1t17 -0.5t16 -3.5q13 -3 31 -11q12 -5 26 -16q6 -5 12.5 -10.5t12.5 -11.5l-13 -14q-4 -3 -12 -7q-5 -2 -16 -2q-9 0 -19 6q-6 2 -12 6t-14 7q-6 2 -13.5 3t-15.5 1q-9 0 -18 -1.5t-17 -6.5q-9 -4 -16.5 -8.5t-13.5 -10.5 q-8 -8 -13 -14.5t-8 -16.5q-8 -16 -8 -36t8 -37q6 -19 21 -31q6 -6 13.5 -10.5t16.5 -9.5q15 -6 35 -7q8 0 15.5 1t13.5 3q14 3 26 13q2 2 4.5 2t4.5 2q3 1 5.5 1h4.5q8 0 16 -3q8 -4 12 -8l13 -11q-6 -6 -12.5 -11.5t-12.5 -10.5t-13 -9t-13 -8q-8 -5 -15.5 -6.5 t-15.5 -3.5q-8 -3 -16 -3.5t-17 -0.5q-14 0 -28.5 2.5t-28.5 7.5q-26 11 -47 33q-9 11 -17 22t-14 25q-12 28 -12 58zM2462 559q0 -9 1.5 -19.5t6.5 -19.5q3 -11 8.5 -18.5t11.5 -16.5q8 -6 17 -11.5t18 -8.5q16 -8 41 -8h13.5t13.5 2q8 3 14 5t12 7q5 3 10.5 6t10.5 8 q10 10 16 23q3 6 5.5 12t4.5 12l3.5 14t1.5 13q0 8 -1 15.5t-4 13.5q-2 8 -4.5 14t-5.5 12q-3 5 -7 10.5t-9 10.5t-10 8t-11 8q-6 3 -12 5.5t-14 5.5q-6 2 -13.5 3t-13.5 1q-8 0 -14.5 -1t-14.5 -3q-6 -2 -12 -5l-12 -6q-6 -5 -11 -8t-12 -8q-5 -5 -8 -10t-8 -11 q-3 -6 -5 -12t-5 -14q-2 -6 -2 -13.5v-15.5zM2488 559q0 18 6 31q3 8 7.5 13.5t9.5 10.5q6 6 12 10t12 7q8 3 15 4.5t16 1.5q16 0 29 -6q8 -3 13.5 -7t10.5 -10q6 -5 10 -10.5t7 -13.5q6 -12 6 -31q0 -13 -6 -29q-3 -6 -6.5 -12t-10.5 -12q-5 -5 -10.5 -9t-13.5 -8 q-12 -6 -29 -6q-9 0 -15.5 1.5t-15.5 4.5q-6 3 -12 7.5t-12 9.5q-5 6 -9 12l-8 12q-6 15 -6 29zM2634 74v186h114v-22h-94v-64h78v-20h-78v-80h-20zM2697 -145q0 20 6 39q3 9 6.5 17.5t8.5 16.5q5 9 10.5 16t13.5 15q13 13 29 23q9 4 17.5 8.5t17.5 7.5q11 2 20 3t21 1 q9 0 19 -1t20 -3q9 -3 17.5 -7.5t16.5 -8.5q9 -5 16 -11t15 -12q6 -8 12 -15t11 -16q5 -8 8.5 -16.5t5.5 -17.5q6 -18 6 -39q0 -20 -6 -39q-2 -9 -5.5 -18.5t-8.5 -18.5q-9 -15 -23 -29q-8 -6 -14.5 -11.5t-16.5 -10.5q-8 -6 -16.5 -10t-17.5 -7q-9 -2 -19.5 -3t-19.5 -1 q-15 0 -30 2.5t-30 7.5q-12 6 -24 14t-21 19q-22 22 -32 47q-7 14 -10 27.5t-3 30.5zM2707 459h29v172q2 -2 2 -3v-1q0 -4 2 -4q0 -4 2 -5l117 -159h23v205h-29v-160q0 5 -1 8t-3 6l-101 137q-4 4 -8 7q-2 0 -4.5 1t-7.5 1h-21v-205zM2750 -145q0 -9 2 -18.5t7 -18.5 q3 -9 8.5 -17t11.5 -14t14 -10.5t17 -9.5q15 -6 37 -7q18 0 37 7q8 5 15 9.5t15 10.5q6 6 11 14t10 17q6 18 6 37q0 18 -6 36q-5 9 -10 16t-11 15q-8 6 -15 10.5t-15 8.5q-16 8 -37 8q-24 0 -37 -8q-9 -4 -17 -8.5t-14 -10.5q-6 -8 -11.5 -14.5t-8.5 -16.5q-5 -9 -7 -18 t-2 -18zM2771 74v186h65q6 0 11 -1t10 -3q6 -3 9.5 -6t6.5 -6q9 -6 13 -17q2 -5 3 -10t1 -10v-9t-2 -10q-4 -9 -11 -16q-3 -6 -12 -12q-3 -2 -7.5 -3t-8.5 -3l61 -80h-12q-10 0 -14 2q-2 2 -4.5 3.5t-4.5 4.5l-51 70h-33v-80h-20zM2791 174h45q9 0 13 2q8 4 10 6q6 6 6 9 q2 4 3 7.5t1 8.5q0 4 -4 12q0 4 -6 10q-2 2 -10 7q-4 2 -13 2h-45v-64zM2929 166q0 6 1 12t3 12t3.5 12.5t6.5 12.5q2 5 5.5 9t7.5 9t9.5 8.5t10.5 6.5l11 5.5t11 4.5t12.5 3t12.5 1q8 0 14 -1t12 -3q11 -3 23 -10q12 -6 20 -15q5 -5 8.5 -9t6.5 -9l4 -12t4 -13 q3 -6 3.5 -12t0.5 -12q0 -9 -2 -19t-7 -18q-5 -18 -18 -31q-16 -14 -30 -20q-18 -6 -39 -6q-18 0 -37 6q-15 6 -30 20q-13 11 -19 31q-5 8 -6.5 18t-1.5 19zM2933 459h116v26h-90v179h-26v-205zM2949 166q0 -5 1 -9t1 -10q2 -6 4 -9.5t4 -8.5q3 -5 6.5 -8t6.5 -8 q6 -6 14 -11q5 -3 9 -4.5t9 -3.5t9.5 -2h9.5h10.5t9.5 2t9.5 3.5t9.5 4.5q5 2 8 5l6 6q5 5 7 8t5 8q6 8 9 18q2 5 2 9.5v9.5q0 16 -7 29q-3 8 -6.5 13.5t-9.5 10.5q-10 10 -22 17q-8 2 -15.5 3t-15.5 1q-6 0 -13.5 -1t-15.5 -3q-12 -6 -22 -17q-5 -5 -9.5 -10.5t-7.5 -13.5 q-6 -12 -6 -29zM3021 664l74 -101l1 -1q0 -1 0.5 -1.5t0.5 -1.5q2 -2 2 -3t2 -1v-5v-5v-86h28v86q0 2 1 3t1 2v2q0 1 2 3v1q0 1 2 3q0 4 5 4l71 101h-18q-10 0 -15 -5q-3 -2 -5.5 -5t-4.5 -5l-49 -65q-1 0 -2 -1v-1q0 -1 -0.5 -1.5t-0.5 -1.5l-1 -1v4v1l-2 1l-47 65 q-3 2 -5.5 5t-4.5 5q-5 2 -8.5 3.5t-8.5 1.5h-18zM3031 0h53q3 0 6.5 -1t6.5 -1q2 -2 4 -2t4 -2q3 -2 4.5 -4.5t3.5 -3.5q2 -2 3 -4t3 -5q9 -24 17.5 -45t17.5 -43q9 -24 18 -45t17 -43q2 -2 2 -6q0 -2 1 -3t1 -3v-7v-1l2 1v7q0 4 2 6v6l10 21l62 155q0 5 6 9q3 5 8 8 q2 2 5 2t5 2q2 0 4.5 1t5.5 1h54v-291h-54v213q-2 -3 -3 -6t-1 -8q-2 -5 -3 -8t-3 -6l-37 -93q-9 -24 -18 -46t-21 -46h-47l-75 185q-2 3 -3.5 6t-3.5 8q0 4 -4 12v-211h-53v291zM3160 74v186h16q4 0 9 -4q6 -3 6 -8l65 -144v-4q2 -2 2 -3v-1v4.5t2 5.5t2 5.5t1 5.5l61 131 q0 5 6 8q4 4 8 4h19v-186h-21v153h-2v-4v-2q0 -1 -1 -2h-1q-5 -11 -9 -21.5t-7 -19.5q-5 -11 -9.5 -19t-7.5 -19q-5 -8 -9 -16.5t-7 -17.5t-7 -16.5t-7 -15.5h-23q-8 17 -15 35t-16 36t-16.5 37t-15.5 37q-2 0 -2 4v4v-153h-21z" />
<glyph unicode="6" horiz-adv-x="3575" d="M125 166q0 6 1 12t3 12t4.5 12.5t5.5 12.5q3 5 6 9t9 9q8 8 20 15q11 7 23 10q6 2 12 3t12 1q11 0 20.5 -2.5t18.5 -5.5q8 -5 15.5 -9.5t13.5 -11.5q0 -2 -1 -2t-3 -2l-2 -2q-2 -2 -3 -2h-1h-7h-4t-4 2q-5 3 -9.5 6t-10.5 5q-5 2 -11 2h-12q-8 0 -15 -1t-15 -3 q-12 -7 -21 -17q-6 -5 -9.5 -10.5t-6.5 -13.5q-6 -12 -7 -29v-9t3 -10q2 -10 8 -18q3 -5 6 -8t6 -8q6 -6 14 -11q5 -3 9.5 -4.5t9.5 -3.5t9.5 -2h10.5h12.5t12.5 2t11 4.5l11 5.5v39h-14q-2 0 -4 1t-4 1q-2 2 -3 2t-3 3q0 2 -1 3t-1 3q-2 2 -2 6v2h51v-72q-3 -5 -6 -7t-9 -5 q-3 -2 -6 -3t-8 -1q-5 -2 -9 -3t-9 -1h-21h-12t-12 2q-11 3 -23 10q-12 6 -20 14q-9 9 -15 21q-7 10 -10 21q-2 7 -3 13.5t-1 12.5zM125 -274q0 4 1 7.5t1 6.5q2 3 2 6t2 6l6 12q4 3 8 11l129 174h-141v51h215v-25v-14q-2 -3 -3 -6t-3 -6l-145 -193q2 0 4 2q2 0 4 2h4h139 v-51h-223v17zM133 326v784h1223q0 81 30 154q32 73 84 125q54 51 125 81q71 31 150 31q87 0 156 -33q71 -34 122 -86q51 -54 82 -125t31 -147h1221v-784h-3224zM301 459h29v76h45q6 0 12 1t12 3q12 6 21 14q8 8 14 20q2 6 3 12.5t1 12.5q0 8 -1 14t-3 13q-3 5 -6 9t-8 9 t-9.5 8.5t-11.5 5.5q-12 6 -24 7h-74v-205zM330 561v74h45q3 0 6 -1t8 -3q3 0 5.5 -2t4.5 -4q4 -4 9 -13q2 -4 2 -14v-7t-2 -7q-4 -8 -9 -11q-4 -5 -10 -8q-5 -2 -8 -3t-6 -1h-45zM336 74v186h113v-22h-93v-60h74v-20h-74v-64h93v-20h-113zM385 0h186v-51h-133v-68h107v-51 h-107v-70h133v-51h-186v291zM459 459h127v26h-99v62h80v28h-80v60h99v29h-127v-205zM471 238v22h141v-22h-59v-164h-23v164h-59zM582 0h223v-51h-86v-240h-53v240h-84v51zM629 459h28v84h31l53 -72q3 -7 11 -10q2 -2 6.5 -2h9.5h18l-65 88q5 2 9 3t7 5q8 3 15 12q5 6 8 17 q2 5 2 9v8q0 8 -0.5 14t-3.5 12q-2 5 -5.5 9t-7.5 9q-9 9 -18 12q-12 6 -25 7h-73v-205zM657 571v64h45q4 0 13 -4q7 0 10 -6q3 -2 4.5 -4.5t3.5 -4.5q0 -3 1 -6.5t1 -8.5q0 -2 -1 -5t-1 -6q-2 -2 -3.5 -4.5t-4.5 -5.5q-2 -2 -10 -7q-4 -2 -13 -2h-45zM729 74v186h113v-22 h-92v-64h77v-20h-77v-80h-21zM760 -291l127 291h49l125 -291h-33q-11 0 -20 6q-5 3 -8.5 7.5t-6.5 8.5l-16 40h-131l-19 -40q0 -3 -4 -7q-2 -3 -4 -5l-4 -4q-3 -2 -5 -3t-5 -1q-3 -2 -5.5 -2h-4.5h-35zM795 496q2 -2 2 -3t2 -1q0 -2 1 -3.5t1 -3.5q4 -4 5 -6q4 -5 7 -5 q9 -10 20 -13.5t25 -3.5q8 0 14.5 0.5t14.5 3.5q11 3 20 13q12 10 17 20q6 12 6 24q0 29 -23 45q-2 2 -4 3t-4 3q-3 2 -5 2t-5 2q-2 2 -4 2t-6 3q-2 0 -11 4q-5 2 -9 3t-7 3q-5 2 -7 3t-5 3q-4 4 -6 7q-1 3 -1 11q0 6 1 11q2 2 3.5 4t4.5 4q2 0 10 4q4 2 12 2q3 0 5.5 -1 t4.5 -1q3 -2 7 -3t6 -3q8 -4 12 -4q8 0 14 6l7 4q-2 3 -5 5t-6 5t-6 5t-6 5q-3 2 -7 3t-9 4q-8 4 -17 4q-6 0 -11 -1t-11 -3t-11 -5l-10 -6q-3 -3 -6 -7t-6 -9q-6 -9 -6 -23q0 -8 1.5 -12.5t4.5 -9.5q3 -10 12 -17q7 -7 19 -10q5 -3 9.5 -5t10.5 -5q3 -2 6 -2.5t8 -1.5 q3 -2 7 -3t6 -3q3 -3 5.5 -5t4.5 -6q2 -3 3 -6t1 -8q0 -6 -4 -14q-3 -7 -10 -10q-2 -3 -5.5 -5t-7.5 -4q-5 0 -8 -1t-8 -1q-3 0 -7 1t-7 1q-8 4 -11 9l-4 2q-6 6 -16 6q-7 0 -10 -4zM868 -176h86l-39 88q-2 3 -2 5.5t-2 4.5v8q0 -4 -2 -8q0 -2 -1 -4.5t-1 -5.5zM879 145v115 h20v-115q0 -6 0.5 -10.5t3.5 -9.5q2 -6 4.5 -9.5t5.5 -9.5q5 -3 9 -5.5t10 -4.5q5 -3 9.5 -3.5t10.5 -0.5t11 0.5t10 3.5q11 4 16 10q5 5 7 9l5 10q2 5 3.5 9.5t1.5 10.5v115h20v-115q0 -16 -6 -28q-3 -8 -6 -14t-8 -11q-6 -5 -12.5 -9t-12.5 -7q-6 -2 -13 -3t-16 -1 q-8 0 -15 1t-13 3q-13 5 -25 16q-5 5 -9 11t-6 14q-4 6 -4.5 13t-0.5 15zM952 559q0 -9 1.5 -19.5t7.5 -19.5q5 -11 10.5 -18.5t11.5 -16.5q8 -6 16 -11.5t17 -8.5q19 -8 41 -8h14t14 2q6 3 12.5 5t12.5 7q10 5 23 14q3 5 7 11t7 12q5 6 7 12t5 12q2 8 2 14v13v15.5t-2 13.5 q-3 8 -5 14t-7 12q-3 5 -7 10.5t-7 10.5q-6 5 -11.5 8t-11.5 8q-6 3 -12 5.5t-13 5.5q-8 2 -14 3t-14 1q-6 0 -13.5 -1t-13.5 -3q-8 -2 -14 -5l-12 -6q-5 -5 -10.5 -8t-10.5 -8t-9 -10t-7 -11l-6 -12t-5 -14q-2 -6 -3 -13.5t-1 -15.5zM981 559q0 18 6 31q3 8 6.5 13.5 t10.5 10.5q5 6 10.5 10t13.5 7q13 6 29 6q15 0 30 -6q6 -3 12.5 -7t12.5 -10q11 -11 16 -24q6 -12 7 -31q0 -13 -7 -29q-3 -6 -7 -12t-9 -12q-6 -5 -12 -9t-13 -8q-15 -6 -30 -6t-29 6q-13 5 -24 17q-6 6 -10 12t-7 12q-6 15 -6 29zM1065 74v186h22v-166h82v-20h-104z M1073 0h187v-51h-134v-74h111v-51h-111v-115h-53v291zM1194 74v186h20v-166h82v-20h-102zM1200 459h29v172v-4q2 -2 2 -3v-1q0 -2 1 -3q0 -1 1 -2l117 -159h24v205h-28v-160q0 5 -1.5 8t-3.5 6l-100 137q-4 4 -8 7q-3 0 -6 1t-6 1h-21v-205zM1278 -145q0 9 0.5 19t3.5 20 q3 9 6 17.5t8 16.5q5 9 11 16t14 15q13 13 29 23q9 4 17 8.5t17 7.5q11 2 20.5 3t20.5 1t20.5 -1t18.5 -3q9 -3 18 -7.5l17 -8.5q9 -5 17 -11t14 -12q6 -8 11.5 -15t10.5 -16q5 -8 9 -16.5t6 -17.5q6 -18 6 -39q0 -20 -6 -39q-2 -9 -5.5 -18.5t-9.5 -18.5q-9 -15 -22 -29 q-6 -6 -14 -11.5t-17 -10.5q-8 -6 -16.5 -10t-18.5 -7q-9 -2 -18 -3t-21 -1q-15 0 -30 2.5t-27 7.5q-14 6 -26 14t-21 19q-22 22 -33 47q-6 14 -8 27.5t-2 30.5zM1329 -145q0 -9 2.5 -18.5t5.5 -18.5q10 -20 21 -31q6 -6 13.5 -10.5t17.5 -9.5q15 -6 36 -7q18 0 37 7 q7 5 15 9.5t16 10.5q6 6 10.5 14t9.5 17q6 18 7 37q0 18 -7 36q-5 9 -9.5 16t-10.5 15q-8 6 -16 10.5t-15 8.5q-16 8 -37 8q-24 0 -36 -8q-9 -4 -17 -8.5t-14 -10.5q-6 -8 -11 -14.5t-10 -16.5q-3 -9 -5.5 -18t-2.5 -18zM1386 260h11q3 0 5 -1t5 -3q2 -2 4 -3.5t2 -4.5 l62 -139q0 -2 1 -3.5t1 -3.5v-6v6q2 2 2 7q8 17 15 34.5t15 34.5q8 18 15.5 35t15.5 35q2 4 6 8q8 4 10 4h13q-11 -24 -21.5 -47.5t-19.5 -46.5q-11 -24 -20.5 -46.5t-20.5 -45.5h-21zM1386 1108q0 -71 29 -137q14 -33 32.5 -61.5t43.5 -53.5q46 -49 113 -78q65 -31 141 -30 q73 0 139 28q65 28 115 78q25 24 43.5 52t34.5 61q27 66 26 141q0 34 -4.5 64.5t-15.5 58.5q-9 27 -24 53t-34 49q-18 22 -38.5 40.5t-44.5 35.5q-25 14 -50.5 25.5t-52.5 19.5q-22 8 -44.5 11t-49.5 3q-76 0 -143 -30q-33 -14 -61 -34t-52 -44q-25 -25 -43.5 -53.5 t-32.5 -61.5q-12 -33 -19.5 -66.5t-7.5 -70.5zM1393 459h16q8 0 11 2q7 5 10 10l14 33h104l15 -33q4 -8 8 -10q2 -2 5.5 -2h6.5h16l-88 205h-28zM1423 1108q0 58 19 111q8 27 21.5 49.5t31.5 46.5h428l-420 -424q-20 24 -35 48.5t-24 51.5q-11 27 -16 56.5t-5 60.5z M1456 532l37 86q2 2 2 5q0 2 1 4t1 4q0 -10 2 -13l37 -86h-80zM1528 866h434q-24 -18 -48.5 -33.5t-51.5 -26.5q-27 -10 -56.5 -16t-60.5 -6q-32 0 -61 6t-56 16q-28 11 -52.5 26.5t-47.5 33.5zM1528 1350q22 20 46.5 35t50.5 26q54 20 120 21q31 0 60.5 -5t56.5 -16 q55 -25 98 -61h-432zM1565 901l422 426q80 -104 79 -219q0 -30 -4 -57t-14 -54q-9 -27 -22.5 -49.5t-30.5 -46.5h-430zM1583 74v186h115v-22h-92v-60h73v-20h-73v-64h92v-20h-115zM1612 0h47q8 0 16 -4t11 -9q15 -20 30.5 -42t30.5 -43q15 -22 30 -43t29 -41q6 -6 6 -13 q2 -3 2.5 -5.5t0.5 -4.5v205h53v-291h-49l-138 195q-4 4 -4 6q-2 4 -6 8q0 2 -4 6q0 2 -1 3t-1 3v-221h-53v291zM1620 459h117v26h-88v179h-29v-205zM1741 74v186h67q5 0 10.5 -1t10.5 -3q5 -3 9 -6t7 -6t6 -7.5t7 -9.5q2 -5 3 -10t1 -10t-1 -9t-3 -10q-2 -10 -9 -16 l-12 -12q-5 -2 -8 -3t-8 -3l59 -80h-12q-8 0 -11 2q-6 2 -10 8l-53 70h-31v-80h-22zM1763 174h45q8 0 13 2q3 2 5 3t5 3q2 3 3 5t3 4q2 4 3 7.5t1 8.5q0 4 -4 12q-2 3 -3 5t-3 5q-3 2 -5 3t-5 4q-4 2 -13 2h-45v-64zM1853 539q0 -6 0.5 -12t3.5 -11q1 -6 3 -10.5t4 -9.5 q3 -5 6 -9.5t8 -7.5q3 -3 7 -6t9 -6t10.5 -4.5t10.5 -3.5t10 -3t10 -1q6 0 12.5 1t11.5 3q12 3 19 8q5 3 8.5 6t8.5 6q3 3 6 7t6 10q5 7 8 20q2 5 3 10.5t1 12.5v125h-28v-125q0 -6 -1 -11.5t-3 -11.5q-3 -5 -5.5 -9t-7.5 -7q-3 -5 -7 -7.5t-8 -5.5q-7 -2 -12 -3t-12 -1 q-5 0 -10 1t-10 3q-5 3 -9 5.5t-8 7.5q-9 6 -12 16q-2 6 -3 11t-1 12v125h-29v-125zM1892 0h224v-51h-84v-240h-54v240h-86v51zM1896 104l5 2l1 2q1 0 1.5 0.5t1.5 0.5h4q8 0 12 -5q3 -5 7 -6.5t7 -3.5q5 -2 8.5 -2h8.5h6t8 2q6 0 12 6q7 3 11 11q4 10 4 14q0 9 -4 15 q-3 6 -9 10q-4 4 -12 8q-4 0 -14 4q-6 2 -11 4l-10 4q-9 3 -16 10q-3 2 -5.5 5.5t-3.5 5.5q-2 5 -3.5 10.5t-1.5 11.5q0 11 6 20q3 8 12 15q7 7 16 10q5 2 11 3t11 1q2 0 6 -1t7 -1q5 -2 8 -3t7 -3q3 -3 5.5 -4.5t4.5 -3.5l8 -8l-4 -5q-4 -4 -10 -4q-8 0 -11 2q-2 2 -3 2 t-3 3q-2 0 -2 1t-2 1t-3 1t-3 1h-5h-8t-7 -2q-3 0 -5.5 -1t-5.5 -4q-2 -3 -4 -5t-2 -5q-4 -4 -4 -10q0 -8 2 -10q2 -4 6 -8q5 -4 13 -7q3 -2 7 -3t9 -3q3 -2 5 -2t5 -2q4 0 8 -4q3 0 5.5 -1t5.5 -3q2 0 6 -4l8 -8t7 -8q1 -7 2 -12t1 -13q0 -6 -1 -11t-2 -12q-4 -5 -7 -9.5 t-8 -6.5q-7 -7 -21 -10q-5 -3 -10.5 -3.5t-11.5 -0.5q-27 0 -41 14q-2 2 -5 4.5t-5 5.5q-4 4 -5 8zM2048 496q0 -2 1 -3q0 -1 1 -1q2 -2 2 -3.5t2 -3.5q4 -4 4 -6q4 -5 8 -5q9 -10 20 -13.5t25 -3.5q8 0 14.5 0.5t11.5 3.5q15 3 24 13q11 10 16 20q3 6 3.5 12t0.5 12 q0 31 -20 45q-4 2 -9 6q-3 2 -5 2t-5 2q-4 2 -5.5 2t-4.5 3q-3 0 -5 1t-5 3q-5 2 -9.5 3t-7.5 3q-9 3 -12 6q-6 3 -6 7q-2 3 -2 11q0 6 2 11q2 2 3.5 4t4.5 4q2 0 10 4q4 2 13 2q3 0 5 -1t5 -1l12 -6q8 -4 12 -4q6 0 13 6l8 4q-2 3 -4.5 5t-5.5 5t-6.5 5t-6.5 5q-3 2 -7 3 t-9 4q-5 2 -8 3t-8 1q-6 0 -12 -1t-11 -3q-6 -2 -10.5 -5t-9.5 -6l-7 -7t-6 -9q-6 -9 -6 -23q0 -8 1.5 -12.5t3.5 -9.5q5 -11 14 -17q7 -7 16 -10q6 -3 11 -5t12 -5q3 -2 6 -2.5t8 -1.5l12 -6q3 -3 5.5 -5t4.5 -6q2 -3 3 -6t1 -8q0 -6 -4 -14q-3 -7 -10 -10q-5 -5 -14 -9 q-3 0 -7 -1t-8 -1q-5 0 -8 1t-6 1q-10 3 -12 9l-2 2q-6 6 -17 6q-8 0 -10 -4zM2054 74v186h23v-186h-23zM2120 166q0 6 1 12t3 12t3.5 12.5t4.5 12.5q4 5 7.5 9t8.5 9t9.5 8.5t9.5 6.5q10 7 21 10q7 2 13.5 3t14.5 1q6 0 12 -1t11 -3q12 -3 24 -10q12 -6 21 -15q5 -5 8 -9 t6 -9q3 -6 5.5 -12t4.5 -13q2 -6 2 -12v-12q0 -20 -6 -37q-8 -17 -20 -31q-16 -14 -31 -20q-20 -6 -37 -6q-23 0 -39 6q-17 6 -29 20q-6 6 -11.5 14t-8.5 17q-5 8 -6.5 18t-1.5 19zM2120 -229q2 0 6 4q4 0 8 4q2 0 4 1t4 1t4 0.5t4 0.5q6 0 13 -3q5 0 8 -1t6 -3q7 -7 16 -11 q5 -2 11 -3t12 -1h7t9 2q3 2 7.5 3.5t7.5 3.5q9 6 12 13q6 7 6 17q0 5 -1 8.5t-3 6.5q-3 3 -6 5.5t-6 4.5q-8 5 -17 8q-8 1 -18 8q-8 2 -15.5 4.5t-15.5 5.5t-14 7.5t-12 9.5q-10 10 -17 22q-8 13 -8 33q0 10 2.5 18.5t5.5 16.5q10 16 21 25q6 4 13 8.5t14 7.5q8 2 17 3 t17 1q6 0 12.5 -1t12.5 -3q13 -3 22 -11q6 -2 11 -6.5t10 -9.5q5 -3 8 -7t6 -9l-10 -8l-6 -4t-9 -4q-5 -2 -8 -3t-6 -1h-4h-4q-3 2 -5 3t-5 3q-2 2 -5 2t-4 2q-2 0 -3.5 1t-4.5 1q-2 2 -8 2h-6t-8 -2q-6 0 -10 -4q-3 -2 -6.5 -5t-4.5 -4q-2 -4 -2 -12t2 -10q1 -3 4 -5t7 -5 q3 -2 7 -3t9 -3t10.5 -4.5t13.5 -4.5l9 -4q9 -3 15.5 -6t14.5 -8q15 -8 23 -19q9 -9 12 -22q6 -12 6 -29q0 -11 -2.5 -19.5t-5.5 -17.5q-5 -9 -10.5 -16.5t-11.5 -14.5q-15 -11 -35 -18q-20 -6 -37 -6q-23 0 -41 6q-9 5 -17 10t-16 13q-5 5 -8 9t-6 9q-5 8 -8 17zM2140 166 q0 -5 1 -9t3 -10t3 -9.5t3 -8.5q3 -5 6.5 -8t6.5 -8q6 -6 14 -11q7 -5 18 -8q5 -2 10 -2h11h9t9 2q4 2 9 3.5t10 4.5q5 2 8 5l6 6q5 5 7 8t5 8q6 8 9 18q2 5 2 9.5v9.5q0 16 -6 29q-3 8 -7 13.5t-10 10.5q-10 10 -22 17q-6 2 -13.5 3t-15.5 1t-15.5 -1t-15.5 -3 q-12 -6 -22 -17q-5 -5 -9.5 -10.5t-7.5 -13.5q-6 -12 -6 -29zM2218 459h127v26h-100v62h79v28h-79v60h100v29h-127v-205zM2333 -262q0 3 1 6.5t1 5.5q4 8 7 10q4 6 11 7q8 4 12 4t13 -4q7 -1 10 -7q5 -3 5 -10q2 -2 3.5 -5.5t1.5 -6.5q0 -5 -5 -12q0 -5 -5 -11q-2 -2 -10 -6 q-4 -2 -13 -2q-8 0 -12 2q-8 4 -11 6q-2 3 -3.5 5t-3.5 6q0 3 -1 6t-1 6zM2345 74v186h14q13 0 17 -8l96 -135q2 -1 2 -2.5t2 -3.5v-5v154h23v-186h-21l-108 153l-3 2v2q0 2 -2 5v-162h-20zM2417 -145q0 20 6 39q2 9 5.5 17.5t8.5 16.5q5 9 11 16t12 15q8 6 14.5 11.5 t15.5 11.5l17 8.5t18 7.5q11 2 20.5 3t18.5 1t17 -0.5t16 -3.5q13 -3 31 -11q12 -5 26 -16q6 -5 12.5 -10.5t12.5 -11.5l-13 -14q-4 -3 -12 -7q-5 -2 -16 -2q-9 0 -19 6q-6 2 -12 6t-14 7q-6 2 -13.5 3t-15.5 1q-9 0 -18 -1.5t-17 -6.5q-9 -4 -16.5 -8.5t-13.5 -10.5 q-8 -8 -13 -14.5t-8 -16.5q-8 -16 -8 -36t8 -37q6 -19 21 -31q6 -6 13.5 -10.5t16.5 -9.5q15 -6 35 -7q8 0 15.5 1t13.5 3q14 3 26 13q2 2 4.5 2t4.5 2q3 1 5.5 1h4.5q8 0 16 -3q8 -4 12 -8l13 -11q-6 -6 -12.5 -11.5t-12.5 -10.5t-13 -9t-13 -8q-8 -5 -15.5 -6.5 t-15.5 -3.5q-8 -3 -16 -3.5t-17 -0.5q-14 0 -28.5 2.5t-28.5 7.5q-26 11 -47 33q-9 11 -17 22t-14 25q-12 28 -12 58zM2462 559q0 -9 1.5 -19.5t6.5 -19.5q3 -11 8.5 -18.5t11.5 -16.5q8 -6 17 -11.5t18 -8.5q16 -8 41 -8h13.5t13.5 2q8 3 14 5t12 7q5 3 10.5 6t10.5 8 q10 10 16 23q3 6 5.5 12t4.5 12l3.5 14t1.5 13q0 8 -1 15.5t-4 13.5q-2 8 -4.5 14t-5.5 12q-3 5 -7 10.5t-9 10.5t-10 8t-11 8q-6 3 -12 5.5t-14 5.5q-6 2 -13.5 3t-13.5 1q-8 0 -14.5 -1t-14.5 -3q-6 -2 -12 -5l-12 -6q-6 -5 -11 -8t-12 -8q-5 -5 -8 -10t-8 -11 q-3 -6 -5 -12t-5 -14q-2 -6 -2 -13.5v-15.5zM2488 559q0 18 6 31q3 8 7.5 13.5t9.5 10.5q6 6 12 10t12 7q8 3 15 4.5t16 1.5q16 0 29 -6q8 -3 13.5 -7t10.5 -10q6 -5 10 -10.5t7 -13.5q6 -12 6 -31q0 -13 -6 -29q-3 -6 -6.5 -12t-10.5 -12q-5 -5 -10.5 -9t-13.5 -8 q-12 -6 -29 -6q-9 0 -15.5 1.5t-15.5 4.5q-6 3 -12 7.5t-12 9.5q-5 6 -9 12l-8 12q-6 15 -6 29zM2634 74v186h114v-22h-94v-64h78v-20h-78v-80h-20zM2697 -145q0 20 6 39q3 9 6.5 17.5t8.5 16.5q5 9 10.5 16t13.5 15q13 13 29 23q9 4 17.5 8.5t17.5 7.5q11 2 20 3t21 1 q9 0 19 -1t20 -3q9 -3 17.5 -7.5t16.5 -8.5q9 -5 16 -11t15 -12q6 -8 12 -15t11 -16q5 -8 8.5 -16.5t5.5 -17.5q6 -18 6 -39q0 -20 -6 -39q-2 -9 -5.5 -18.5t-8.5 -18.5q-9 -15 -23 -29q-8 -6 -14.5 -11.5t-16.5 -10.5q-8 -6 -16.5 -10t-17.5 -7q-9 -2 -19.5 -3t-19.5 -1 q-15 0 -30 2.5t-30 7.5q-12 6 -24 14t-21 19q-22 22 -32 47q-7 14 -10 27.5t-3 30.5zM2707 459h29v172q2 -2 2 -3v-1q0 -4 2 -4q0 -4 2 -5l117 -159h23v205h-29v-160q0 5 -1 8t-3 6l-101 137q-4 4 -8 7q-2 0 -4.5 1t-7.5 1h-21v-205zM2750 -145q0 -9 2 -18.5t7 -18.5 q3 -9 8.5 -17t11.5 -14t14 -10.5t17 -9.5q15 -6 37 -7q18 0 37 7q8 5 15 9.5t15 10.5q6 6 11 14t10 17q6 18 6 37q0 18 -6 36q-5 9 -10 16t-11 15q-8 6 -15 10.5t-15 8.5q-16 8 -37 8q-24 0 -37 -8q-9 -4 -17 -8.5t-14 -10.5q-6 -8 -11.5 -14.5t-8.5 -16.5q-5 -9 -7 -18 t-2 -18zM2771 74v186h65q6 0 11 -1t10 -3q6 -3 9.5 -6t6.5 -6q9 -6 13 -17q2 -5 3 -10t1 -10v-9t-2 -10q-4 -9 -11 -16q-3 -6 -12 -12q-3 -2 -7.5 -3t-8.5 -3l61 -80h-12q-10 0 -14 2q-2 2 -4.5 3.5t-4.5 4.5l-51 70h-33v-80h-20zM2791 174h45q9 0 13 2q8 4 10 6q6 6 6 9 q2 4 3 7.5t1 8.5q0 4 -4 12q0 4 -6 10q-2 2 -10 7q-4 2 -13 2h-45v-64zM2929 166q0 6 1 12t3 12t3.5 12.5t6.5 12.5q2 5 5.5 9t7.5 9t9.5 8.5t10.5 6.5l11 5.5t11 4.5t12.5 3t12.5 1q8 0 14 -1t12 -3q11 -3 23 -10q12 -6 20 -15q5 -5 8.5 -9t6.5 -9l4 -12t4 -13 q3 -6 3.5 -12t0.5 -12q0 -9 -2 -19t-7 -18q-5 -18 -18 -31q-16 -14 -30 -20q-18 -6 -39 -6q-18 0 -37 6q-15 6 -30 20q-13 11 -19 31q-5 8 -6.5 18t-1.5 19zM2933 459h116v26h-90v179h-26v-205zM2949 166q0 -5 1 -9t1 -10q2 -6 4 -9.5t4 -8.5q3 -5 6.5 -8t6.5 -8 q6 -6 14 -11q5 -3 9 -4.5t9 -3.5t9.5 -2h9.5h10.5t9.5 2t9.5 3.5t9.5 4.5q5 2 8 5l6 6q5 5 7 8t5 8q6 8 9 18q2 5 2 9.5v9.5q0 16 -7 29q-3 8 -6.5 13.5t-9.5 10.5q-10 10 -22 17q-8 2 -15.5 3t-15.5 1q-6 0 -13.5 -1t-15.5 -3q-12 -6 -22 -17q-5 -5 -9.5 -10.5t-7.5 -13.5 q-6 -12 -6 -29zM3021 664l74 -101l1 -1q0 -1 0.5 -1.5t0.5 -1.5q2 -2 2 -3t2 -1v-5v-5v-86h28v86q0 2 1 3t1 2v2q0 1 2 3v1q0 1 2 3q0 4 5 4l71 101h-18q-10 0 -15 -5q-3 -2 -5.5 -5t-4.5 -5l-49 -65q-1 0 -2 -1v-1q0 -1 -0.5 -1.5t-0.5 -1.5l-1 -1v4v1l-2 1l-47 65 q-3 2 -5.5 5t-4.5 5q-5 2 -8.5 3.5t-8.5 1.5h-18zM3031 0h53q3 0 6.5 -1t6.5 -1q2 -2 4 -2t4 -2q3 -2 4.5 -4.5t3.5 -3.5q2 -2 3 -4t3 -5q9 -24 17.5 -45t17.5 -43q9 -24 18 -45t17 -43q2 -2 2 -6q0 -2 1 -3t1 -3v-7v-1l2 1v7q0 4 2 6v6l10 21l62 155q0 5 6 9q3 5 8 8 q2 2 5 2t5 2q2 0 4.5 1t5.5 1h54v-291h-54v213q-2 -3 -3 -6t-1 -8q-2 -5 -3 -8t-3 -6l-37 -93q-9 -24 -18 -46t-21 -46h-47l-75 185q-2 3 -3.5 6t-3.5 8q0 4 -4 12v-211h-53v291zM3160 74v186h16q4 0 9 -4q6 -3 6 -8l65 -144v-4q2 -2 2 -3v-1v4.5t2 5.5t2 5.5t1 5.5l61 131 q0 5 6 8q4 4 8 4h19v-186h-21v153h-2v-4v-2q0 -1 -1 -2h-1q-5 -11 -9 -21.5t-7 -19.5q-5 -11 -9.5 -19t-7.5 -19q-5 -8 -9 -16.5t-7 -17.5t-7 -16.5t-7 -15.5h-23q-8 17 -15 35t-16 36t-16.5 37t-15.5 37q-2 0 -2 4v4v-153h-21z" />
<glyph unicode="7" horiz-adv-x="3575" d="M125 166q0 6 1 12t3 12t4.5 12.5t5.5 12.5q3 5 6 9t9 9q8 8 20 15q11 7 23 10q6 2 12 3t12 1q11 0 20.5 -2.5t18.5 -5.5q8 -5 15.5 -9.5t13.5 -11.5q0 -2 -1 -2t-3 -2l-2 -2q-2 -2 -3 -2h-1h-7h-4t-4 2q-5 3 -9.5 6t-10.5 5q-5 2 -11 2h-12q-8 0 -15 -1t-15 -3 q-12 -7 -21 -17q-6 -5 -9.5 -10.5t-6.5 -13.5q-6 -12 -7 -29v-9t3 -10q2 -10 8 -18q3 -5 6 -8t6 -8q6 -6 14 -11q5 -3 9.5 -4.5t9.5 -3.5t9.5 -2h10.5h12.5t12.5 2t11 4.5l11 5.5v39h-14q-2 0 -4 1t-4 1q-2 2 -3 2t-3 3q0 2 -1 3t-1 3q-2 2 -2 6v2h51v-72q-3 -5 -6 -7t-9 -5 q-3 -2 -6 -3t-8 -1q-5 -2 -9 -3t-9 -1h-21h-12t-12 2q-11 3 -23 10q-12 6 -20 14q-9 9 -15 21q-7 10 -10 21q-2 7 -3 13.5t-1 12.5zM125 -274q0 4 1 7.5t1 6.5q2 3 2 6t2 6l6 12q4 3 8 11l129 174h-141v51h215v-25v-14q-2 -3 -3 -6t-3 -6l-145 -193q2 0 4 2q2 0 4 2h4h139 v-51h-223v17zM133 326v784h1223q0 81 30 154q32 73 84 125q54 51 125 81q71 31 150 31q87 0 156 -33q71 -34 122 -86q51 -54 82 -125t31 -147h1221v-784h-3224zM301 459h29v76h45q6 0 12 1t12 3q12 6 21 14q8 8 14 20q2 6 3 12.5t1 12.5q0 8 -1 14t-3 13q-3 5 -6 9t-8 9 t-9.5 8.5t-11.5 5.5q-12 6 -24 7h-74v-205zM330 561v74h45q3 0 6 -1t8 -3q3 0 5.5 -2t4.5 -4q4 -4 9 -13q2 -4 2 -14v-7t-2 -7q-4 -8 -9 -11q-4 -5 -10 -8q-5 -2 -8 -3t-6 -1h-45zM336 74v186h113v-22h-93v-60h74v-20h-74v-64h93v-20h-113zM385 0h186v-51h-133v-68h107v-51 h-107v-70h133v-51h-186v291zM459 459h127v26h-99v62h80v28h-80v60h99v29h-127v-205zM471 238v22h141v-22h-59v-164h-23v164h-59zM582 0h223v-51h-86v-240h-53v240h-84v51zM629 459h28v84h31l53 -72q3 -7 11 -10q2 -2 6.5 -2h9.5h18l-65 88q5 2 9 3t7 5q8 3 15 12q5 6 8 17 q2 5 2 9v8q0 8 -0.5 14t-3.5 12q-2 5 -5.5 9t-7.5 9q-9 9 -18 12q-12 6 -25 7h-73v-205zM657 571v64h45q4 0 13 -4q7 0 10 -6q3 -2 4.5 -4.5t3.5 -4.5q0 -3 1 -6.5t1 -8.5q0 -2 -1 -5t-1 -6q-2 -2 -3.5 -4.5t-4.5 -5.5q-2 -2 -10 -7q-4 -2 -13 -2h-45zM729 74v186h113v-22 h-92v-64h77v-20h-77v-80h-21zM760 -291l127 291h49l125 -291h-33q-11 0 -20 6q-5 3 -8.5 7.5t-6.5 8.5l-16 40h-131l-19 -40q0 -3 -4 -7q-2 -3 -4 -5l-4 -4q-3 -2 -5 -3t-5 -1q-3 -2 -5.5 -2h-4.5h-35zM795 496q2 -2 2 -3t2 -1q0 -2 1 -3.5t1 -3.5q4 -4 5 -6q4 -5 7 -5 q9 -10 20 -13.5t25 -3.5q8 0 14.5 0.5t14.5 3.5q11 3 20 13q12 10 17 20q6 12 6 24q0 29 -23 45q-2 2 -4 3t-4 3q-3 2 -5 2t-5 2q-2 2 -4 2t-6 3q-2 0 -11 4q-5 2 -9 3t-7 3q-5 2 -7 3t-5 3q-4 4 -6 7q-1 3 -1 11q0 6 1 11q2 2 3.5 4t4.5 4q2 0 10 4q4 2 12 2q3 0 5.5 -1 t4.5 -1q3 -2 7 -3t6 -3q8 -4 12 -4q8 0 14 6l7 4q-2 3 -5 5t-6 5t-6 5t-6 5q-3 2 -7 3t-9 4q-8 4 -17 4q-6 0 -11 -1t-11 -3t-11 -5l-10 -6q-3 -3 -6 -7t-6 -9q-6 -9 -6 -23q0 -8 1.5 -12.5t4.5 -9.5q3 -10 12 -17q7 -7 19 -10q5 -3 9.5 -5t10.5 -5q3 -2 6 -2.5t8 -1.5 q3 -2 7 -3t6 -3q3 -3 5.5 -5t4.5 -6q2 -3 3 -6t1 -8q0 -6 -4 -14q-3 -7 -10 -10q-2 -3 -5.5 -5t-7.5 -4q-5 0 -8 -1t-8 -1q-3 0 -7 1t-7 1q-8 4 -11 9l-4 2q-6 6 -16 6q-7 0 -10 -4zM868 -176h86l-39 88q-2 3 -2 5.5t-2 4.5v8q0 -4 -2 -8q0 -2 -1 -4.5t-1 -5.5zM879 145v115 h20v-115q0 -6 0.5 -10.5t3.5 -9.5q2 -6 4.5 -9.5t5.5 -9.5q5 -3 9 -5.5t10 -4.5q5 -3 9.5 -3.5t10.5 -0.5t11 0.5t10 3.5q11 4 16 10q5 5 7 9l5 10q2 5 3.5 9.5t1.5 10.5v115h20v-115q0 -16 -6 -28q-3 -8 -6 -14t-8 -11q-6 -5 -12.5 -9t-12.5 -7q-6 -2 -13 -3t-16 -1 q-8 0 -15 1t-13 3q-13 5 -25 16q-5 5 -9 11t-6 14q-4 6 -4.5 13t-0.5 15zM952 559q0 -9 1.5 -19.5t7.5 -19.5q5 -11 10.5 -18.5t11.5 -16.5q8 -6 16 -11.5t17 -8.5q19 -8 41 -8h14t14 2q6 3 12.5 5t12.5 7q10 5 23 14q3 5 7 11t7 12q5 6 7 12t5 12q2 8 2 14v13v15.5t-2 13.5 q-3 8 -5 14t-7 12q-3 5 -7 10.5t-7 10.5q-6 5 -11.5 8t-11.5 8q-6 3 -12 5.5t-13 5.5q-8 2 -14 3t-14 1q-6 0 -13.5 -1t-13.5 -3q-8 -2 -14 -5l-12 -6q-5 -5 -10.5 -8t-10.5 -8t-9 -10t-7 -11l-6 -12t-5 -14q-2 -6 -3 -13.5t-1 -15.5zM981 559q0 18 6 31q3 8 6.5 13.5 t10.5 10.5q5 6 10.5 10t13.5 7q13 6 29 6q15 0 30 -6q6 -3 12.5 -7t12.5 -10q11 -11 16 -24q6 -12 7 -31q0 -13 -7 -29q-3 -6 -7 -12t-9 -12q-6 -5 -12 -9t-13 -8q-15 -6 -30 -6t-29 6q-13 5 -24 17q-6 6 -10 12t-7 12q-6 15 -6 29zM1065 74v186h22v-166h82v-20h-104z M1073 0h187v-51h-134v-74h111v-51h-111v-115h-53v291zM1194 74v186h20v-166h82v-20h-102zM1200 459h29v172v-4q2 -2 2 -3v-1q0 -2 1 -3q0 -1 1 -2l117 -159h24v205h-28v-160q0 5 -1.5 8t-3.5 6l-100 137q-4 4 -8 7q-3 0 -6 1t-6 1h-21v-205zM1278 -145q0 9 0.5 19t3.5 20 q3 9 6 17.5t8 16.5q5 9 11 16t14 15q13 13 29 23q9 4 17 8.5t17 7.5q11 2 20.5 3t20.5 1t20.5 -1t18.5 -3q9 -3 18 -7.5l17 -8.5q9 -5 17 -11t14 -12q6 -8 11.5 -15t10.5 -16q5 -8 9 -16.5t6 -17.5q6 -18 6 -39q0 -20 -6 -39q-2 -9 -5.5 -18.5t-9.5 -18.5q-9 -15 -22 -29 q-6 -6 -14 -11.5t-17 -10.5q-8 -6 -16.5 -10t-18.5 -7q-9 -2 -18 -3t-21 -1q-15 0 -30 2.5t-27 7.5q-14 6 -26 14t-21 19q-22 22 -33 47q-6 14 -8 27.5t-2 30.5zM1329 -145q0 -9 2.5 -18.5t5.5 -18.5q10 -20 21 -31q6 -6 13.5 -10.5t17.5 -9.5q15 -6 36 -7q18 0 37 7 q7 5 15 9.5t16 10.5q6 6 10.5 14t9.5 17q6 18 7 37q0 18 -7 36q-5 9 -9.5 16t-10.5 15q-8 6 -16 10.5t-15 8.5q-16 8 -37 8q-24 0 -36 -8q-9 -4 -17 -8.5t-14 -10.5q-6 -8 -11 -14.5t-10 -16.5q-3 -9 -5.5 -18t-2.5 -18zM1386 260h11q3 0 5 -1t5 -3q2 -2 4 -3.5t2 -4.5 l62 -139q0 -2 1 -3.5t1 -3.5v-6v6q2 2 2 7q8 17 15 34.5t15 34.5q8 18 15.5 35t15.5 35q2 4 6 8q8 4 10 4h13q-11 -24 -21.5 -47.5t-19.5 -46.5q-11 -24 -20.5 -46.5t-20.5 -45.5h-21zM1386 1108q0 -71 29 -137q14 -33 32.5 -61.5t43.5 -53.5q46 -49 113 -78q65 -31 141 -30 q73 0 139 28q65 28 115 78q25 24 43.5 52t34.5 61q27 66 26 141q0 34 -4.5 64.5t-15.5 58.5q-9 27 -24 53t-34 49q-18 22 -38.5 40.5t-44.5 35.5q-25 14 -50.5 25.5t-52.5 19.5q-22 8 -44.5 11t-49.5 3q-76 0 -143 -30q-33 -14 -61 -34t-52 -44q-25 -25 -43.5 -53.5 t-32.5 -61.5q-12 -33 -19.5 -66.5t-7.5 -70.5zM1393 459h16q8 0 11 2q7 5 10 10l14 33h104l15 -33q4 -8 8 -10q2 -2 5.5 -2h6.5h16l-88 205h-28zM1423 1108q0 58 19 111q8 27 21.5 49.5t31.5 46.5h428l-420 -424q-20 24 -35 48.5t-24 51.5q-11 27 -16 56.5t-5 60.5z M1456 532l37 86q2 2 2 5q0 2 1 4t1 4q0 -10 2 -13l37 -86h-80zM1528 866h434q-24 -18 -48.5 -33.5t-51.5 -26.5q-27 -10 -56.5 -16t-60.5 -6q-32 0 -61 6t-56 16q-28 11 -52.5 26.5t-47.5 33.5zM1528 1350q22 20 46.5 35t50.5 26q54 20 120 21q31 0 60.5 -5t56.5 -16 q55 -25 98 -61h-432zM1565 901l422 426q80 -104 79 -219q0 -30 -4 -57t-14 -54q-9 -27 -22.5 -49.5t-30.5 -46.5h-430zM1583 74v186h115v-22h-92v-60h73v-20h-73v-64h92v-20h-115zM1612 0h47q8 0 16 -4t11 -9q15 -20 30.5 -42t30.5 -43q15 -22 30 -43t29 -41q6 -6 6 -13 q2 -3 2.5 -5.5t0.5 -4.5v205h53v-291h-49l-138 195q-4 4 -4 6q-2 4 -6 8q0 2 -4 6q0 2 -1 3t-1 3v-221h-53v291zM1620 459h117v26h-88v179h-29v-205zM1741 74v186h67q5 0 10.5 -1t10.5 -3q5 -3 9 -6t7 -6t6 -7.5t7 -9.5q2 -5 3 -10t1 -10t-1 -9t-3 -10q-2 -10 -9 -16 l-12 -12q-5 -2 -8 -3t-8 -3l59 -80h-12q-8 0 -11 2q-6 2 -10 8l-53 70h-31v-80h-22zM1763 174h45q8 0 13 2q3 2 5 3t5 3q2 3 3 5t3 4q2 4 3 7.5t1 8.5q0 4 -4 12q-2 3 -3 5t-3 5q-3 2 -5 3t-5 4q-4 2 -13 2h-45v-64zM1853 539q0 -6 0.5 -12t3.5 -11q1 -6 3 -10.5t4 -9.5 q3 -5 6 -9.5t8 -7.5q3 -3 7 -6t9 -6t10.5 -4.5t10.5 -3.5t10 -3t10 -1q6 0 12.5 1t11.5 3q12 3 19 8q5 3 8.5 6t8.5 6q3 3 6 7t6 10q5 7 8 20q2 5 3 10.5t1 12.5v125h-28v-125q0 -6 -1 -11.5t-3 -11.5q-3 -5 -5.5 -9t-7.5 -7q-3 -5 -7 -7.5t-8 -5.5q-7 -2 -12 -3t-12 -1 q-5 0 -10 1t-10 3q-5 3 -9 5.5t-8 7.5q-9 6 -12 16q-2 6 -3 11t-1 12v125h-29v-125zM1892 0h224v-51h-84v-240h-54v240h-86v51zM1896 104l5 2l1 2q1 0 1.5 0.5t1.5 0.5h4q8 0 12 -5q3 -5 7 -6.5t7 -3.5q5 -2 8.5 -2h8.5h6t8 2q6 0 12 6q7 3 11 11q4 10 4 14q0 9 -4 15 q-3 6 -9 10q-4 4 -12 8q-4 0 -14 4q-6 2 -11 4l-10 4q-9 3 -16 10q-3 2 -5.5 5.5t-3.5 5.5q-2 5 -3.5 10.5t-1.5 11.5q0 11 6 20q3 8 12 15q7 7 16 10q5 2 11 3t11 1q2 0 6 -1t7 -1q5 -2 8 -3t7 -3q3 -3 5.5 -4.5t4.5 -3.5l8 -8l-4 -5q-4 -4 -10 -4q-8 0 -11 2q-2 2 -3 2 t-3 3q-2 0 -2 1t-2 1t-3 1t-3 1h-5h-8t-7 -2q-3 0 -5.5 -1t-5.5 -4q-2 -3 -4 -5t-2 -5q-4 -4 -4 -10q0 -8 2 -10q2 -4 6 -8q5 -4 13 -7q3 -2 7 -3t9 -3q3 -2 5 -2t5 -2q4 0 8 -4q3 0 5.5 -1t5.5 -3q2 0 6 -4l8 -8t7 -8q1 -7 2 -12t1 -13q0 -6 -1 -11t-2 -12q-4 -5 -7 -9.5 t-8 -6.5q-7 -7 -21 -10q-5 -3 -10.5 -3.5t-11.5 -0.5q-27 0 -41 14q-2 2 -5 4.5t-5 5.5q-4 4 -5 8zM2048 496q0 -2 1 -3q0 -1 1 -1q2 -2 2 -3.5t2 -3.5q4 -4 4 -6q4 -5 8 -5q9 -10 20 -13.5t25 -3.5q8 0 14.5 0.5t11.5 3.5q15 3 24 13q11 10 16 20q3 6 3.5 12t0.5 12 q0 31 -20 45q-4 2 -9 6q-3 2 -5 2t-5 2q-4 2 -5.5 2t-4.5 3q-3 0 -5 1t-5 3q-5 2 -9.5 3t-7.5 3q-9 3 -12 6q-6 3 -6 7q-2 3 -2 11q0 6 2 11q2 2 3.5 4t4.5 4q2 0 10 4q4 2 13 2q3 0 5 -1t5 -1l12 -6q8 -4 12 -4q6 0 13 6l8 4q-2 3 -4.5 5t-5.5 5t-6.5 5t-6.5 5q-3 2 -7 3 t-9 4q-5 2 -8 3t-8 1q-6 0 -12 -1t-11 -3q-6 -2 -10.5 -5t-9.5 -6l-7 -7t-6 -9q-6 -9 -6 -23q0 -8 1.5 -12.5t3.5 -9.5q5 -11 14 -17q7 -7 16 -10q6 -3 11 -5t12 -5q3 -2 6 -2.5t8 -1.5l12 -6q3 -3 5.5 -5t4.5 -6q2 -3 3 -6t1 -8q0 -6 -4 -14q-3 -7 -10 -10q-5 -5 -14 -9 q-3 0 -7 -1t-8 -1q-5 0 -8 1t-6 1q-10 3 -12 9l-2 2q-6 6 -17 6q-8 0 -10 -4zM2054 74v186h23v-186h-23zM2120 166q0 6 1 12t3 12t3.5 12.5t4.5 12.5q4 5 7.5 9t8.5 9t9.5 8.5t9.5 6.5q10 7 21 10q7 2 13.5 3t14.5 1q6 0 12 -1t11 -3q12 -3 24 -10q12 -6 21 -15q5 -5 8 -9 t6 -9q3 -6 5.5 -12t4.5 -13q2 -6 2 -12v-12q0 -20 -6 -37q-8 -17 -20 -31q-16 -14 -31 -20q-20 -6 -37 -6q-23 0 -39 6q-17 6 -29 20q-6 6 -11.5 14t-8.5 17q-5 8 -6.5 18t-1.5 19zM2120 -229q2 0 6 4q4 0 8 4q2 0 4 1t4 1t4 0.5t4 0.5q6 0 13 -3q5 0 8 -1t6 -3q7 -7 16 -11 q5 -2 11 -3t12 -1h7t9 2q3 2 7.5 3.5t7.5 3.5q9 6 12 13q6 7 6 17q0 5 -1 8.5t-3 6.5q-3 3 -6 5.5t-6 4.5q-8 5 -17 8q-8 1 -18 8q-8 2 -15.5 4.5t-15.5 5.5t-14 7.5t-12 9.5q-10 10 -17 22q-8 13 -8 33q0 10 2.5 18.5t5.5 16.5q10 16 21 25q6 4 13 8.5t14 7.5q8 2 17 3 t17 1q6 0 12.5 -1t12.5 -3q13 -3 22 -11q6 -2 11 -6.5t10 -9.5q5 -3 8 -7t6 -9l-10 -8l-6 -4t-9 -4q-5 -2 -8 -3t-6 -1h-4h-4q-3 2 -5 3t-5 3q-2 2 -5 2t-4 2q-2 0 -3.5 1t-4.5 1q-2 2 -8 2h-6t-8 -2q-6 0 -10 -4q-3 -2 -6.5 -5t-4.5 -4q-2 -4 -2 -12t2 -10q1 -3 4 -5t7 -5 q3 -2 7 -3t9 -3t10.5 -4.5t13.5 -4.5l9 -4q9 -3 15.5 -6t14.5 -8q15 -8 23 -19q9 -9 12 -22q6 -12 6 -29q0 -11 -2.5 -19.5t-5.5 -17.5q-5 -9 -10.5 -16.5t-11.5 -14.5q-15 -11 -35 -18q-20 -6 -37 -6q-23 0 -41 6q-9 5 -17 10t-16 13q-5 5 -8 9t-6 9q-5 8 -8 17zM2140 166 q0 -5 1 -9t3 -10t3 -9.5t3 -8.5q3 -5 6.5 -8t6.5 -8q6 -6 14 -11q7 -5 18 -8q5 -2 10 -2h11h9t9 2q4 2 9 3.5t10 4.5q5 2 8 5l6 6q5 5 7 8t5 8q6 8 9 18q2 5 2 9.5v9.5q0 16 -6 29q-3 8 -7 13.5t-10 10.5q-10 10 -22 17q-6 2 -13.5 3t-15.5 1t-15.5 -1t-15.5 -3 q-12 -6 -22 -17q-5 -5 -9.5 -10.5t-7.5 -13.5q-6 -12 -6 -29zM2218 459h127v26h-100v62h79v28h-79v60h100v29h-127v-205zM2333 -262q0 3 1 6.5t1 5.5q4 8 7 10q4 6 11 7q8 4 12 4t13 -4q7 -1 10 -7q5 -3 5 -10q2 -2 3.5 -5.5t1.5 -6.5q0 -5 -5 -12q0 -5 -5 -11q-2 -2 -10 -6 q-4 -2 -13 -2q-8 0 -12 2q-8 4 -11 6q-2 3 -3.5 5t-3.5 6q0 3 -1 6t-1 6zM2345 74v186h14q13 0 17 -8l96 -135q2 -1 2 -2.5t2 -3.5v-5v154h23v-186h-21l-108 153l-3 2v2q0 2 -2 5v-162h-20zM2417 -145q0 20 6 39q2 9 5.5 17.5t8.5 16.5q5 9 11 16t12 15q8 6 14.5 11.5 t15.5 11.5l17 8.5t18 7.5q11 2 20.5 3t18.5 1t17 -0.5t16 -3.5q13 -3 31 -11q12 -5 26 -16q6 -5 12.5 -10.5t12.5 -11.5l-13 -14q-4 -3 -12 -7q-5 -2 -16 -2q-9 0 -19 6q-6 2 -12 6t-14 7q-6 2 -13.5 3t-15.5 1q-9 0 -18 -1.5t-17 -6.5q-9 -4 -16.5 -8.5t-13.5 -10.5 q-8 -8 -13 -14.5t-8 -16.5q-8 -16 -8 -36t8 -37q6 -19 21 -31q6 -6 13.5 -10.5t16.5 -9.5q15 -6 35 -7q8 0 15.5 1t13.5 3q14 3 26 13q2 2 4.5 2t4.5 2q3 1 5.5 1h4.5q8 0 16 -3q8 -4 12 -8l13 -11q-6 -6 -12.5 -11.5t-12.5 -10.5t-13 -9t-13 -8q-8 -5 -15.5 -6.5 t-15.5 -3.5q-8 -3 -16 -3.5t-17 -0.5q-14 0 -28.5 2.5t-28.5 7.5q-26 11 -47 33q-9 11 -17 22t-14 25q-12 28 -12 58zM2462 559q0 -9 1.5 -19.5t6.5 -19.5q3 -11 8.5 -18.5t11.5 -16.5q8 -6 17 -11.5t18 -8.5q16 -8 41 -8h13.5t13.5 2q8 3 14 5t12 7q5 3 10.5 6t10.5 8 q10 10 16 23q3 6 5.5 12t4.5 12l3.5 14t1.5 13q0 8 -1 15.5t-4 13.5q-2 8 -4.5 14t-5.5 12q-3 5 -7 10.5t-9 10.5t-10 8t-11 8q-6 3 -12 5.5t-14 5.5q-6 2 -13.5 3t-13.5 1q-8 0 -14.5 -1t-14.5 -3q-6 -2 -12 -5l-12 -6q-6 -5 -11 -8t-12 -8q-5 -5 -8 -10t-8 -11 q-3 -6 -5 -12t-5 -14q-2 -6 -2 -13.5v-15.5zM2488 559q0 18 6 31q3 8 7.5 13.5t9.5 10.5q6 6 12 10t12 7q8 3 15 4.5t16 1.5q16 0 29 -6q8 -3 13.5 -7t10.5 -10q6 -5 10 -10.5t7 -13.5q6 -12 6 -31q0 -13 -6 -29q-3 -6 -6.5 -12t-10.5 -12q-5 -5 -10.5 -9t-13.5 -8 q-12 -6 -29 -6q-9 0 -15.5 1.5t-15.5 4.5q-6 3 -12 7.5t-12 9.5q-5 6 -9 12l-8 12q-6 15 -6 29zM2634 74v186h114v-22h-94v-64h78v-20h-78v-80h-20zM2697 -145q0 20 6 39q3 9 6.5 17.5t8.5 16.5q5 9 10.5 16t13.5 15q13 13 29 23q9 4 17.5 8.5t17.5 7.5q11 2 20 3t21 1 q9 0 19 -1t20 -3q9 -3 17.5 -7.5t16.5 -8.5q9 -5 16 -11t15 -12q6 -8 12 -15t11 -16q5 -8 8.5 -16.5t5.5 -17.5q6 -18 6 -39q0 -20 -6 -39q-2 -9 -5.5 -18.5t-8.5 -18.5q-9 -15 -23 -29q-8 -6 -14.5 -11.5t-16.5 -10.5q-8 -6 -16.5 -10t-17.5 -7q-9 -2 -19.5 -3t-19.5 -1 q-15 0 -30 2.5t-30 7.5q-12 6 -24 14t-21 19q-22 22 -32 47q-7 14 -10 27.5t-3 30.5zM2707 459h29v172q2 -2 2 -3v-1q0 -4 2 -4q0 -4 2 -5l117 -159h23v205h-29v-160q0 5 -1 8t-3 6l-101 137q-4 4 -8 7q-2 0 -4.5 1t-7.5 1h-21v-205zM2750 -145q0 -9 2 -18.5t7 -18.5 q3 -9 8.5 -17t11.5 -14t14 -10.5t17 -9.5q15 -6 37 -7q18 0 37 7q8 5 15 9.5t15 10.5q6 6 11 14t10 17q6 18 6 37q0 18 -6 36q-5 9 -10 16t-11 15q-8 6 -15 10.5t-15 8.5q-16 8 -37 8q-24 0 -37 -8q-9 -4 -17 -8.5t-14 -10.5q-6 -8 -11.5 -14.5t-8.5 -16.5q-5 -9 -7 -18 t-2 -18zM2771 74v186h65q6 0 11 -1t10 -3q6 -3 9.5 -6t6.5 -6q9 -6 13 -17q2 -5 3 -10t1 -10v-9t-2 -10q-4 -9 -11 -16q-3 -6 -12 -12q-3 -2 -7.5 -3t-8.5 -3l61 -80h-12q-10 0 -14 2q-2 2 -4.5 3.5t-4.5 4.5l-51 70h-33v-80h-20zM2791 174h45q9 0 13 2q8 4 10 6q6 6 6 9 q2 4 3 7.5t1 8.5q0 4 -4 12q0 4 -6 10q-2 2 -10 7q-4 2 -13 2h-45v-64zM2929 166q0 6 1 12t3 12t3.5 12.5t6.5 12.5q2 5 5.5 9t7.5 9t9.5 8.5t10.5 6.5l11 5.5t11 4.5t12.5 3t12.5 1q8 0 14 -1t12 -3q11 -3 23 -10q12 -6 20 -15q5 -5 8.5 -9t6.5 -9l4 -12t4 -13 q3 -6 3.5 -12t0.5 -12q0 -9 -2 -19t-7 -18q-5 -18 -18 -31q-16 -14 -30 -20q-18 -6 -39 -6q-18 0 -37 6q-15 6 -30 20q-13 11 -19 31q-5 8 -6.5 18t-1.5 19zM2933 459h116v26h-90v179h-26v-205zM2949 166q0 -5 1 -9t1 -10q2 -6 4 -9.5t4 -8.5q3 -5 6.5 -8t6.5 -8 q6 -6 14 -11q5 -3 9 -4.5t9 -3.5t9.5 -2h9.5h10.5t9.5 2t9.5 3.5t9.5 4.5q5 2 8 5l6 6q5 5 7 8t5 8q6 8 9 18q2 5 2 9.5v9.5q0 16 -7 29q-3 8 -6.5 13.5t-9.5 10.5q-10 10 -22 17q-8 2 -15.5 3t-15.5 1q-6 0 -13.5 -1t-15.5 -3q-12 -6 -22 -17q-5 -5 -9.5 -10.5t-7.5 -13.5 q-6 -12 -6 -29zM3021 664l74 -101l1 -1q0 -1 0.5 -1.5t0.5 -1.5q2 -2 2 -3t2 -1v-5v-5v-86h28v86q0 2 1 3t1 2v2q0 1 2 3v1q0 1 2 3q0 4 5 4l71 101h-18q-10 0 -15 -5q-3 -2 -5.5 -5t-4.5 -5l-49 -65q-1 0 -2 -1v-1q0 -1 -0.5 -1.5t-0.5 -1.5l-1 -1v4v1l-2 1l-47 65 q-3 2 -5.5 5t-4.5 5q-5 2 -8.5 3.5t-8.5 1.5h-18zM3031 0h53q3 0 6.5 -1t6.5 -1q2 -2 4 -2t4 -2q3 -2 4.5 -4.5t3.5 -3.5q2 -2 3 -4t3 -5q9 -24 17.5 -45t17.5 -43q9 -24 18 -45t17 -43q2 -2 2 -6q0 -2 1 -3t1 -3v-7v-1l2 1v7q0 4 2 6v6l10 21l62 155q0 5 6 9q3 5 8 8 q2 2 5 2t5 2q2 0 4.5 1t5.5 1h54v-291h-54v213q-2 -3 -3 -6t-1 -8q-2 -5 -3 -8t-3 -6l-37 -93q-9 -24 -18 -46t-21 -46h-47l-75 185q-2 3 -3.5 6t-3.5 8q0 4 -4 12v-211h-53v291zM3160 74v186h16q4 0 9 -4q6 -3 6 -8l65 -144v-4q2 -2 2 -3v-1v4.5t2 5.5t2 5.5t1 5.5l61 131 q0 5 6 8q4 4 8 4h19v-186h-21v153h-2v-4v-2q0 -1 -1 -2h-1q-5 -11 -9 -21.5t-7 -19.5q-5 -11 -9.5 -19t-7.5 -19q-5 -8 -9 -16.5t-7 -17.5t-7 -16.5t-7 -15.5h-23q-8 17 -15 35t-16 36t-16.5 37t-15.5 37q-2 0 -2 4v4v-153h-21z" />
<glyph unicode="8" horiz-adv-x="3575" d="M125 166q0 6 1 12t3 12t4.5 12.5t5.5 12.5q3 5 6 9t9 9q8 8 20 15q11 7 23 10q6 2 12 3t12 1q11 0 20.5 -2.5t18.5 -5.5q8 -5 15.5 -9.5t13.5 -11.5q0 -2 -1 -2t-3 -2l-2 -2q-2 -2 -3 -2h-1h-7h-4t-4 2q-5 3 -9.5 6t-10.5 5q-5 2 -11 2h-12q-8 0 -15 -1t-15 -3 q-12 -7 -21 -17q-6 -5 -9.5 -10.5t-6.5 -13.5q-6 -12 -7 -29v-9t3 -10q2 -10 8 -18q3 -5 6 -8t6 -8q6 -6 14 -11q5 -3 9.5 -4.5t9.5 -3.5t9.5 -2h10.5h12.5t12.5 2t11 4.5l11 5.5v39h-14q-2 0 -4 1t-4 1q-2 2 -3 2t-3 3q0 2 -1 3t-1 3q-2 2 -2 6v2h51v-72q-3 -5 -6 -7t-9 -5 q-3 -2 -6 -3t-8 -1q-5 -2 -9 -3t-9 -1h-21h-12t-12 2q-11 3 -23 10q-12 6 -20 14q-9 9 -15 21q-7 10 -10 21q-2 7 -3 13.5t-1 12.5zM125 -274q0 4 1 7.5t1 6.5q2 3 2 6t2 6l6 12q4 3 8 11l129 174h-141v51h215v-25v-14q-2 -3 -3 -6t-3 -6l-145 -193q2 0 4 2q2 0 4 2h4h139 v-51h-223v17zM133 326v784h1223q0 81 30 154q32 73 84 125q54 51 125 81q71 31 150 31q87 0 156 -33q71 -34 122 -86q51 -54 82 -125t31 -147h1221v-784h-3224zM301 459h29v76h45q6 0 12 1t12 3q12 6 21 14q8 8 14 20q2 6 3 12.5t1 12.5q0 8 -1 14t-3 13q-3 5 -6 9t-8 9 t-9.5 8.5t-11.5 5.5q-12 6 -24 7h-74v-205zM330 561v74h45q3 0 6 -1t8 -3q3 0 5.5 -2t4.5 -4q4 -4 9 -13q2 -4 2 -14v-7t-2 -7q-4 -8 -9 -11q-4 -5 -10 -8q-5 -2 -8 -3t-6 -1h-45zM336 74v186h113v-22h-93v-60h74v-20h-74v-64h93v-20h-113zM385 0h186v-51h-133v-68h107v-51 h-107v-70h133v-51h-186v291zM459 459h127v26h-99v62h80v28h-80v60h99v29h-127v-205zM471 238v22h141v-22h-59v-164h-23v164h-59zM582 0h223v-51h-86v-240h-53v240h-84v51zM629 459h28v84h31l53 -72q3 -7 11 -10q2 -2 6.5 -2h9.5h18l-65 88q5 2 9 3t7 5q8 3 15 12q5 6 8 17 q2 5 2 9v8q0 8 -0.5 14t-3.5 12q-2 5 -5.5 9t-7.5 9q-9 9 -18 12q-12 6 -25 7h-73v-205zM657 571v64h45q4 0 13 -4q7 0 10 -6q3 -2 4.5 -4.5t3.5 -4.5q0 -3 1 -6.5t1 -8.5q0 -2 -1 -5t-1 -6q-2 -2 -3.5 -4.5t-4.5 -5.5q-2 -2 -10 -7q-4 -2 -13 -2h-45zM729 74v186h113v-22 h-92v-64h77v-20h-77v-80h-21zM760 -291l127 291h49l125 -291h-33q-11 0 -20 6q-5 3 -8.5 7.5t-6.5 8.5l-16 40h-131l-19 -40q0 -3 -4 -7q-2 -3 -4 -5l-4 -4q-3 -2 -5 -3t-5 -1q-3 -2 -5.5 -2h-4.5h-35zM795 496q2 -2 2 -3t2 -1q0 -2 1 -3.5t1 -3.5q4 -4 5 -6q4 -5 7 -5 q9 -10 20 -13.5t25 -3.5q8 0 14.5 0.5t14.5 3.5q11 3 20 13q12 10 17 20q6 12 6 24q0 29 -23 45q-2 2 -4 3t-4 3q-3 2 -5 2t-5 2q-2 2 -4 2t-6 3q-2 0 -11 4q-5 2 -9 3t-7 3q-5 2 -7 3t-5 3q-4 4 -6 7q-1 3 -1 11q0 6 1 11q2 2 3.5 4t4.5 4q2 0 10 4q4 2 12 2q3 0 5.5 -1 t4.5 -1q3 -2 7 -3t6 -3q8 -4 12 -4q8 0 14 6l7 4q-2 3 -5 5t-6 5t-6 5t-6 5q-3 2 -7 3t-9 4q-8 4 -17 4q-6 0 -11 -1t-11 -3t-11 -5l-10 -6q-3 -3 -6 -7t-6 -9q-6 -9 -6 -23q0 -8 1.5 -12.5t4.5 -9.5q3 -10 12 -17q7 -7 19 -10q5 -3 9.5 -5t10.5 -5q3 -2 6 -2.5t8 -1.5 q3 -2 7 -3t6 -3q3 -3 5.5 -5t4.5 -6q2 -3 3 -6t1 -8q0 -6 -4 -14q-3 -7 -10 -10q-2 -3 -5.5 -5t-7.5 -4q-5 0 -8 -1t-8 -1q-3 0 -7 1t-7 1q-8 4 -11 9l-4 2q-6 6 -16 6q-7 0 -10 -4zM868 -176h86l-39 88q-2 3 -2 5.5t-2 4.5v8q0 -4 -2 -8q0 -2 -1 -4.5t-1 -5.5zM879 145v115 h20v-115q0 -6 0.5 -10.5t3.5 -9.5q2 -6 4.5 -9.5t5.5 -9.5q5 -3 9 -5.5t10 -4.5q5 -3 9.5 -3.5t10.5 -0.5t11 0.5t10 3.5q11 4 16 10q5 5 7 9l5 10q2 5 3.5 9.5t1.5 10.5v115h20v-115q0 -16 -6 -28q-3 -8 -6 -14t-8 -11q-6 -5 -12.5 -9t-12.5 -7q-6 -2 -13 -3t-16 -1 q-8 0 -15 1t-13 3q-13 5 -25 16q-5 5 -9 11t-6 14q-4 6 -4.5 13t-0.5 15zM952 559q0 -9 1.5 -19.5t7.5 -19.5q5 -11 10.5 -18.5t11.5 -16.5q8 -6 16 -11.5t17 -8.5q19 -8 41 -8h14t14 2q6 3 12.5 5t12.5 7q10 5 23 14q3 5 7 11t7 12q5 6 7 12t5 12q2 8 2 14v13v15.5t-2 13.5 q-3 8 -5 14t-7 12q-3 5 -7 10.5t-7 10.5q-6 5 -11.5 8t-11.5 8q-6 3 -12 5.5t-13 5.5q-8 2 -14 3t-14 1q-6 0 -13.5 -1t-13.5 -3q-8 -2 -14 -5l-12 -6q-5 -5 -10.5 -8t-10.5 -8t-9 -10t-7 -11l-6 -12t-5 -14q-2 -6 -3 -13.5t-1 -15.5zM981 559q0 18 6 31q3 8 6.5 13.5 t10.5 10.5q5 6 10.5 10t13.5 7q13 6 29 6q15 0 30 -6q6 -3 12.5 -7t12.5 -10q11 -11 16 -24q6 -12 7 -31q0 -13 -7 -29q-3 -6 -7 -12t-9 -12q-6 -5 -12 -9t-13 -8q-15 -6 -30 -6t-29 6q-13 5 -24 17q-6 6 -10 12t-7 12q-6 15 -6 29zM1065 74v186h22v-166h82v-20h-104z M1073 0h187v-51h-134v-74h111v-51h-111v-115h-53v291zM1194 74v186h20v-166h82v-20h-102zM1200 459h29v172v-4q2 -2 2 -3v-1q0 -2 1 -3q0 -1 1 -2l117 -159h24v205h-28v-160q0 5 -1.5 8t-3.5 6l-100 137q-4 4 -8 7q-3 0 -6 1t-6 1h-21v-205zM1278 -145q0 9 0.5 19t3.5 20 q3 9 6 17.5t8 16.5q5 9 11 16t14 15q13 13 29 23q9 4 17 8.5t17 7.5q11 2 20.5 3t20.5 1t20.5 -1t18.5 -3q9 -3 18 -7.5l17 -8.5q9 -5 17 -11t14 -12q6 -8 11.5 -15t10.5 -16q5 -8 9 -16.5t6 -17.5q6 -18 6 -39q0 -20 -6 -39q-2 -9 -5.5 -18.5t-9.5 -18.5q-9 -15 -22 -29 q-6 -6 -14 -11.5t-17 -10.5q-8 -6 -16.5 -10t-18.5 -7q-9 -2 -18 -3t-21 -1q-15 0 -30 2.5t-27 7.5q-14 6 -26 14t-21 19q-22 22 -33 47q-6 14 -8 27.5t-2 30.5zM1329 -145q0 -9 2.5 -18.5t5.5 -18.5q10 -20 21 -31q6 -6 13.5 -10.5t17.5 -9.5q15 -6 36 -7q18 0 37 7 q7 5 15 9.5t16 10.5q6 6 10.5 14t9.5 17q6 18 7 37q0 18 -7 36q-5 9 -9.5 16t-10.5 15q-8 6 -16 10.5t-15 8.5q-16 8 -37 8q-24 0 -36 -8q-9 -4 -17 -8.5t-14 -10.5q-6 -8 -11 -14.5t-10 -16.5q-3 -9 -5.5 -18t-2.5 -18zM1386 260h11q3 0 5 -1t5 -3q2 -2 4 -3.5t2 -4.5 l62 -139q0 -2 1 -3.5t1 -3.5v-6v6q2 2 2 7q8 17 15 34.5t15 34.5q8 18 15.5 35t15.5 35q2 4 6 8q8 4 10 4h13q-11 -24 -21.5 -47.5t-19.5 -46.5q-11 -24 -20.5 -46.5t-20.5 -45.5h-21zM1386 1108q0 -71 29 -137q14 -33 32.5 -61.5t43.5 -53.5q46 -49 113 -78q65 -31 141 -30 q73 0 139 28q65 28 115 78q25 24 43.5 52t34.5 61q27 66 26 141q0 34 -4.5 64.5t-15.5 58.5q-9 27 -24 53t-34 49q-18 22 -38.5 40.5t-44.5 35.5q-25 14 -50.5 25.5t-52.5 19.5q-22 8 -44.5 11t-49.5 3q-76 0 -143 -30q-33 -14 -61 -34t-52 -44q-25 -25 -43.5 -53.5 t-32.5 -61.5q-12 -33 -19.5 -66.5t-7.5 -70.5zM1393 459h16q8 0 11 2q7 5 10 10l14 33h104l15 -33q4 -8 8 -10q2 -2 5.5 -2h6.5h16l-88 205h-28zM1423 1108q0 58 19 111q8 27 21.5 49.5t31.5 46.5h428l-420 -424q-20 24 -35 48.5t-24 51.5q-11 27 -16 56.5t-5 60.5z M1456 532l37 86q2 2 2 5q0 2 1 4t1 4q0 -10 2 -13l37 -86h-80zM1528 866h434q-24 -18 -48.5 -33.5t-51.5 -26.5q-27 -10 -56.5 -16t-60.5 -6q-32 0 -61 6t-56 16q-28 11 -52.5 26.5t-47.5 33.5zM1528 1350q22 20 46.5 35t50.5 26q54 20 120 21q31 0 60.5 -5t56.5 -16 q55 -25 98 -61h-432zM1565 901l422 426q80 -104 79 -219q0 -30 -4 -57t-14 -54q-9 -27 -22.5 -49.5t-30.5 -46.5h-430zM1583 74v186h115v-22h-92v-60h73v-20h-73v-64h92v-20h-115zM1612 0h47q8 0 16 -4t11 -9q15 -20 30.5 -42t30.5 -43q15 -22 30 -43t29 -41q6 -6 6 -13 q2 -3 2.5 -5.5t0.5 -4.5v205h53v-291h-49l-138 195q-4 4 -4 6q-2 4 -6 8q0 2 -4 6q0 2 -1 3t-1 3v-221h-53v291zM1620 459h117v26h-88v179h-29v-205zM1741 74v186h67q5 0 10.5 -1t10.5 -3q5 -3 9 -6t7 -6t6 -7.5t7 -9.5q2 -5 3 -10t1 -10t-1 -9t-3 -10q-2 -10 -9 -16 l-12 -12q-5 -2 -8 -3t-8 -3l59 -80h-12q-8 0 -11 2q-6 2 -10 8l-53 70h-31v-80h-22zM1763 174h45q8 0 13 2q3 2 5 3t5 3q2 3 3 5t3 4q2 4 3 7.5t1 8.5q0 4 -4 12q-2 3 -3 5t-3 5q-3 2 -5 3t-5 4q-4 2 -13 2h-45v-64zM1853 539q0 -6 0.5 -12t3.5 -11q1 -6 3 -10.5t4 -9.5 q3 -5 6 -9.5t8 -7.5q3 -3 7 -6t9 -6t10.5 -4.5t10.5 -3.5t10 -3t10 -1q6 0 12.5 1t11.5 3q12 3 19 8q5 3 8.5 6t8.5 6q3 3 6 7t6 10q5 7 8 20q2 5 3 10.5t1 12.5v125h-28v-125q0 -6 -1 -11.5t-3 -11.5q-3 -5 -5.5 -9t-7.5 -7q-3 -5 -7 -7.5t-8 -5.5q-7 -2 -12 -3t-12 -1 q-5 0 -10 1t-10 3q-5 3 -9 5.5t-8 7.5q-9 6 -12 16q-2 6 -3 11t-1 12v125h-29v-125zM1892 0h224v-51h-84v-240h-54v240h-86v51zM1896 104l5 2l1 2q1 0 1.5 0.5t1.5 0.5h4q8 0 12 -5q3 -5 7 -6.5t7 -3.5q5 -2 8.5 -2h8.5h6t8 2q6 0 12 6q7 3 11 11q4 10 4 14q0 9 -4 15 q-3 6 -9 10q-4 4 -12 8q-4 0 -14 4q-6 2 -11 4l-10 4q-9 3 -16 10q-3 2 -5.5 5.5t-3.5 5.5q-2 5 -3.5 10.5t-1.5 11.5q0 11 6 20q3 8 12 15q7 7 16 10q5 2 11 3t11 1q2 0 6 -1t7 -1q5 -2 8 -3t7 -3q3 -3 5.5 -4.5t4.5 -3.5l8 -8l-4 -5q-4 -4 -10 -4q-8 0 -11 2q-2 2 -3 2 t-3 3q-2 0 -2 1t-2 1t-3 1t-3 1h-5h-8t-7 -2q-3 0 -5.5 -1t-5.5 -4q-2 -3 -4 -5t-2 -5q-4 -4 -4 -10q0 -8 2 -10q2 -4 6 -8q5 -4 13 -7q3 -2 7 -3t9 -3q3 -2 5 -2t5 -2q4 0 8 -4q3 0 5.5 -1t5.5 -3q2 0 6 -4l8 -8t7 -8q1 -7 2 -12t1 -13q0 -6 -1 -11t-2 -12q-4 -5 -7 -9.5 t-8 -6.5q-7 -7 -21 -10q-5 -3 -10.5 -3.5t-11.5 -0.5q-27 0 -41 14q-2 2 -5 4.5t-5 5.5q-4 4 -5 8zM2048 496q0 -2 1 -3q0 -1 1 -1q2 -2 2 -3.5t2 -3.5q4 -4 4 -6q4 -5 8 -5q9 -10 20 -13.5t25 -3.5q8 0 14.5 0.5t11.5 3.5q15 3 24 13q11 10 16 20q3 6 3.5 12t0.5 12 q0 31 -20 45q-4 2 -9 6q-3 2 -5 2t-5 2q-4 2 -5.5 2t-4.5 3q-3 0 -5 1t-5 3q-5 2 -9.5 3t-7.5 3q-9 3 -12 6q-6 3 -6 7q-2 3 -2 11q0 6 2 11q2 2 3.5 4t4.5 4q2 0 10 4q4 2 13 2q3 0 5 -1t5 -1l12 -6q8 -4 12 -4q6 0 13 6l8 4q-2 3 -4.5 5t-5.5 5t-6.5 5t-6.5 5q-3 2 -7 3 t-9 4q-5 2 -8 3t-8 1q-6 0 -12 -1t-11 -3q-6 -2 -10.5 -5t-9.5 -6l-7 -7t-6 -9q-6 -9 -6 -23q0 -8 1.5 -12.5t3.5 -9.5q5 -11 14 -17q7 -7 16 -10q6 -3 11 -5t12 -5q3 -2 6 -2.5t8 -1.5l12 -6q3 -3 5.5 -5t4.5 -6q2 -3 3 -6t1 -8q0 -6 -4 -14q-3 -7 -10 -10q-5 -5 -14 -9 q-3 0 -7 -1t-8 -1q-5 0 -8 1t-6 1q-10 3 -12 9l-2 2q-6 6 -17 6q-8 0 -10 -4zM2054 74v186h23v-186h-23zM2120 166q0 6 1 12t3 12t3.5 12.5t4.5 12.5q4 5 7.5 9t8.5 9t9.5 8.5t9.5 6.5q10 7 21 10q7 2 13.5 3t14.5 1q6 0 12 -1t11 -3q12 -3 24 -10q12 -6 21 -15q5 -5 8 -9 t6 -9q3 -6 5.5 -12t4.5 -13q2 -6 2 -12v-12q0 -20 -6 -37q-8 -17 -20 -31q-16 -14 -31 -20q-20 -6 -37 -6q-23 0 -39 6q-17 6 -29 20q-6 6 -11.5 14t-8.5 17q-5 8 -6.5 18t-1.5 19zM2120 -229q2 0 6 4q4 0 8 4q2 0 4 1t4 1t4 0.5t4 0.5q6 0 13 -3q5 0 8 -1t6 -3q7 -7 16 -11 q5 -2 11 -3t12 -1h7t9 2q3 2 7.5 3.5t7.5 3.5q9 6 12 13q6 7 6 17q0 5 -1 8.5t-3 6.5q-3 3 -6 5.5t-6 4.5q-8 5 -17 8q-8 1 -18 8q-8 2 -15.5 4.5t-15.5 5.5t-14 7.5t-12 9.5q-10 10 -17 22q-8 13 -8 33q0 10 2.5 18.5t5.5 16.5q10 16 21 25q6 4 13 8.5t14 7.5q8 2 17 3 t17 1q6 0 12.5 -1t12.5 -3q13 -3 22 -11q6 -2 11 -6.5t10 -9.5q5 -3 8 -7t6 -9l-10 -8l-6 -4t-9 -4q-5 -2 -8 -3t-6 -1h-4h-4q-3 2 -5 3t-5 3q-2 2 -5 2t-4 2q-2 0 -3.5 1t-4.5 1q-2 2 -8 2h-6t-8 -2q-6 0 -10 -4q-3 -2 -6.5 -5t-4.5 -4q-2 -4 -2 -12t2 -10q1 -3 4 -5t7 -5 q3 -2 7 -3t9 -3t10.5 -4.5t13.5 -4.5l9 -4q9 -3 15.5 -6t14.5 -8q15 -8 23 -19q9 -9 12 -22q6 -12 6 -29q0 -11 -2.5 -19.5t-5.5 -17.5q-5 -9 -10.5 -16.5t-11.5 -14.5q-15 -11 -35 -18q-20 -6 -37 -6q-23 0 -41 6q-9 5 -17 10t-16 13q-5 5 -8 9t-6 9q-5 8 -8 17zM2140 166 q0 -5 1 -9t3 -10t3 -9.5t3 -8.5q3 -5 6.5 -8t6.5 -8q6 -6 14 -11q7 -5 18 -8q5 -2 10 -2h11h9t9 2q4 2 9 3.5t10 4.5q5 2 8 5l6 6q5 5 7 8t5 8q6 8 9 18q2 5 2 9.5v9.5q0 16 -6 29q-3 8 -7 13.5t-10 10.5q-10 10 -22 17q-6 2 -13.5 3t-15.5 1t-15.5 -1t-15.5 -3 q-12 -6 -22 -17q-5 -5 -9.5 -10.5t-7.5 -13.5q-6 -12 -6 -29zM2218 459h127v26h-100v62h79v28h-79v60h100v29h-127v-205zM2333 -262q0 3 1 6.5t1 5.5q4 8 7 10q4 6 11 7q8 4 12 4t13 -4q7 -1 10 -7q5 -3 5 -10q2 -2 3.5 -5.5t1.5 -6.5q0 -5 -5 -12q0 -5 -5 -11q-2 -2 -10 -6 q-4 -2 -13 -2q-8 0 -12 2q-8 4 -11 6q-2 3 -3.5 5t-3.5 6q0 3 -1 6t-1 6zM2345 74v186h14q13 0 17 -8l96 -135q2 -1 2 -2.5t2 -3.5v-5v154h23v-186h-21l-108 153l-3 2v2q0 2 -2 5v-162h-20zM2417 -145q0 20 6 39q2 9 5.5 17.5t8.5 16.5q5 9 11 16t12 15q8 6 14.5 11.5 t15.5 11.5l17 8.5t18 7.5q11 2 20.5 3t18.5 1t17 -0.5t16 -3.5q13 -3 31 -11q12 -5 26 -16q6 -5 12.5 -10.5t12.5 -11.5l-13 -14q-4 -3 -12 -7q-5 -2 -16 -2q-9 0 -19 6q-6 2 -12 6t-14 7q-6 2 -13.5 3t-15.5 1q-9 0 -18 -1.5t-17 -6.5q-9 -4 -16.5 -8.5t-13.5 -10.5 q-8 -8 -13 -14.5t-8 -16.5q-8 -16 -8 -36t8 -37q6 -19 21 -31q6 -6 13.5 -10.5t16.5 -9.5q15 -6 35 -7q8 0 15.5 1t13.5 3q14 3 26 13q2 2 4.5 2t4.5 2q3 1 5.5 1h4.5q8 0 16 -3q8 -4 12 -8l13 -11q-6 -6 -12.5 -11.5t-12.5 -10.5t-13 -9t-13 -8q-8 -5 -15.5 -6.5 t-15.5 -3.5q-8 -3 -16 -3.5t-17 -0.5q-14 0 -28.5 2.5t-28.5 7.5q-26 11 -47 33q-9 11 -17 22t-14 25q-12 28 -12 58zM2462 559q0 -9 1.5 -19.5t6.5 -19.5q3 -11 8.5 -18.5t11.5 -16.5q8 -6 17 -11.5t18 -8.5q16 -8 41 -8h13.5t13.5 2q8 3 14 5t12 7q5 3 10.5 6t10.5 8 q10 10 16 23q3 6 5.5 12t4.5 12l3.5 14t1.5 13q0 8 -1 15.5t-4 13.5q-2 8 -4.5 14t-5.5 12q-3 5 -7 10.5t-9 10.5t-10 8t-11 8q-6 3 -12 5.5t-14 5.5q-6 2 -13.5 3t-13.5 1q-8 0 -14.5 -1t-14.5 -3q-6 -2 -12 -5l-12 -6q-6 -5 -11 -8t-12 -8q-5 -5 -8 -10t-8 -11 q-3 -6 -5 -12t-5 -14q-2 -6 -2 -13.5v-15.5zM2488 559q0 18 6 31q3 8 7.5 13.5t9.5 10.5q6 6 12 10t12 7q8 3 15 4.5t16 1.5q16 0 29 -6q8 -3 13.5 -7t10.5 -10q6 -5 10 -10.5t7 -13.5q6 -12 6 -31q0 -13 -6 -29q-3 -6 -6.5 -12t-10.5 -12q-5 -5 -10.5 -9t-13.5 -8 q-12 -6 -29 -6q-9 0 -15.5 1.5t-15.5 4.5q-6 3 -12 7.5t-12 9.5q-5 6 -9 12l-8 12q-6 15 -6 29zM2634 74v186h114v-22h-94v-64h78v-20h-78v-80h-20zM2697 -145q0 20 6 39q3 9 6.5 17.5t8.5 16.5q5 9 10.5 16t13.5 15q13 13 29 23q9 4 17.5 8.5t17.5 7.5q11 2 20 3t21 1 q9 0 19 -1t20 -3q9 -3 17.5 -7.5t16.5 -8.5q9 -5 16 -11t15 -12q6 -8 12 -15t11 -16q5 -8 8.5 -16.5t5.5 -17.5q6 -18 6 -39q0 -20 -6 -39q-2 -9 -5.5 -18.5t-8.5 -18.5q-9 -15 -23 -29q-8 -6 -14.5 -11.5t-16.5 -10.5q-8 -6 -16.5 -10t-17.5 -7q-9 -2 -19.5 -3t-19.5 -1 q-15 0 -30 2.5t-30 7.5q-12 6 -24 14t-21 19q-22 22 -32 47q-7 14 -10 27.5t-3 30.5zM2707 459h29v172q2 -2 2 -3v-1q0 -4 2 -4q0 -4 2 -5l117 -159h23v205h-29v-160q0 5 -1 8t-3 6l-101 137q-4 4 -8 7q-2 0 -4.5 1t-7.5 1h-21v-205zM2750 -145q0 -9 2 -18.5t7 -18.5 q3 -9 8.5 -17t11.5 -14t14 -10.5t17 -9.5q15 -6 37 -7q18 0 37 7q8 5 15 9.5t15 10.5q6 6 11 14t10 17q6 18 6 37q0 18 -6 36q-5 9 -10 16t-11 15q-8 6 -15 10.5t-15 8.5q-16 8 -37 8q-24 0 -37 -8q-9 -4 -17 -8.5t-14 -10.5q-6 -8 -11.5 -14.5t-8.5 -16.5q-5 -9 -7 -18 t-2 -18zM2771 74v186h65q6 0 11 -1t10 -3q6 -3 9.5 -6t6.5 -6q9 -6 13 -17q2 -5 3 -10t1 -10v-9t-2 -10q-4 -9 -11 -16q-3 -6 -12 -12q-3 -2 -7.5 -3t-8.5 -3l61 -80h-12q-10 0 -14 2q-2 2 -4.5 3.5t-4.5 4.5l-51 70h-33v-80h-20zM2791 174h45q9 0 13 2q8 4 10 6q6 6 6 9 q2 4 3 7.5t1 8.5q0 4 -4 12q0 4 -6 10q-2 2 -10 7q-4 2 -13 2h-45v-64zM2929 166q0 6 1 12t3 12t3.5 12.5t6.5 12.5q2 5 5.5 9t7.5 9t9.5 8.5t10.5 6.5l11 5.5t11 4.5t12.5 3t12.5 1q8 0 14 -1t12 -3q11 -3 23 -10q12 -6 20 -15q5 -5 8.5 -9t6.5 -9l4 -12t4 -13 q3 -6 3.5 -12t0.5 -12q0 -9 -2 -19t-7 -18q-5 -18 -18 -31q-16 -14 -30 -20q-18 -6 -39 -6q-18 0 -37 6q-15 6 -30 20q-13 11 -19 31q-5 8 -6.5 18t-1.5 19zM2933 459h116v26h-90v179h-26v-205zM2949 166q0 -5 1 -9t1 -10q2 -6 4 -9.5t4 -8.5q3 -5 6.5 -8t6.5 -8 q6 -6 14 -11q5 -3 9 -4.5t9 -3.5t9.5 -2h9.5h10.5t9.5 2t9.5 3.5t9.5 4.5q5 2 8 5l6 6q5 5 7 8t5 8q6 8 9 18q2 5 2 9.5v9.5q0 16 -7 29q-3 8 -6.5 13.5t-9.5 10.5q-10 10 -22 17q-8 2 -15.5 3t-15.5 1q-6 0 -13.5 -1t-15.5 -3q-12 -6 -22 -17q-5 -5 -9.5 -10.5t-7.5 -13.5 q-6 -12 -6 -29zM3021 664l74 -101l1 -1q0 -1 0.5 -1.5t0.5 -1.5q2 -2 2 -3t2 -1v-5v-5v-86h28v86q0 2 1 3t1 2v2q0 1 2 3v1q0 1 2 3q0 4 5 4l71 101h-18q-10 0 -15 -5q-3 -2 -5.5 -5t-4.5 -5l-49 -65q-1 0 -2 -1v-1q0 -1 -0.5 -1.5t-0.5 -1.5l-1 -1v4v1l-2 1l-47 65 q-3 2 -5.5 5t-4.5 5q-5 2 -8.5 3.5t-8.5 1.5h-18zM3031 0h53q3 0 6.5 -1t6.5 -1q2 -2 4 -2t4 -2q3 -2 4.5 -4.5t3.5 -3.5q2 -2 3 -4t3 -5q9 -24 17.5 -45t17.5 -43q9 -24 18 -45t17 -43q2 -2 2 -6q0 -2 1 -3t1 -3v-7v-1l2 1v7q0 4 2 6v6l10 21l62 155q0 5 6 9q3 5 8 8 q2 2 5 2t5 2q2 0 4.5 1t5.5 1h54v-291h-54v213q-2 -3 -3 -6t-1 -8q-2 -5 -3 -8t-3 -6l-37 -93q-9 -24 -18 -46t-21 -46h-47l-75 185q-2 3 -3.5 6t-3.5 8q0 4 -4 12v-211h-53v291zM3160 74v186h16q4 0 9 -4q6 -3 6 -8l65 -144v-4q2 -2 2 -3v-1v4.5t2 5.5t2 5.5t1 5.5l61 131 q0 5 6 8q4 4 8 4h19v-186h-21v153h-2v-4v-2q0 -1 -1 -2h-1q-5 -11 -9 -21.5t-7 -19.5q-5 -11 -9.5 -19t-7.5 -19q-5 -8 -9 -16.5t-7 -17.5t-7 -16.5t-7 -15.5h-23q-8 17 -15 35t-16 36t-16.5 37t-15.5 37q-2 0 -2 4v4v-153h-21z" />
<glyph unicode="9" horiz-adv-x="3575" d="M125 166q0 6 1 12t3 12t4.5 12.5t5.5 12.5q3 5 6 9t9 9q8 8 20 15q11 7 23 10q6 2 12 3t12 1q11 0 20.5 -2.5t18.5 -5.5q8 -5 15.5 -9.5t13.5 -11.5q0 -2 -1 -2t-3 -2l-2 -2q-2 -2 -3 -2h-1h-7h-4t-4 2q-5 3 -9.5 6t-10.5 5q-5 2 -11 2h-12q-8 0 -15 -1t-15 -3 q-12 -7 -21 -17q-6 -5 -9.5 -10.5t-6.5 -13.5q-6 -12 -7 -29v-9t3 -10q2 -10 8 -18q3 -5 6 -8t6 -8q6 -6 14 -11q5 -3 9.5 -4.5t9.5 -3.5t9.5 -2h10.5h12.5t12.5 2t11 4.5l11 5.5v39h-14q-2 0 -4 1t-4 1q-2 2 -3 2t-3 3q0 2 -1 3t-1 3q-2 2 -2 6v2h51v-72q-3 -5 -6 -7t-9 -5 q-3 -2 -6 -3t-8 -1q-5 -2 -9 -3t-9 -1h-21h-12t-12 2q-11 3 -23 10q-12 6 -20 14q-9 9 -15 21q-7 10 -10 21q-2 7 -3 13.5t-1 12.5zM125 -274q0 4 1 7.5t1 6.5q2 3 2 6t2 6l6 12q4 3 8 11l129 174h-141v51h215v-25v-14q-2 -3 -3 -6t-3 -6l-145 -193q2 0 4 2q2 0 4 2h4h139 v-51h-223v17zM133 326v784h1223q0 81 30 154q32 73 84 125q54 51 125 81q71 31 150 31q87 0 156 -33q71 -34 122 -86q51 -54 82 -125t31 -147h1221v-784h-3224zM301 459h29v76h45q6 0 12 1t12 3q12 6 21 14q8 8 14 20q2 6 3 12.5t1 12.5q0 8 -1 14t-3 13q-3 5 -6 9t-8 9 t-9.5 8.5t-11.5 5.5q-12 6 -24 7h-74v-205zM330 561v74h45q3 0 6 -1t8 -3q3 0 5.5 -2t4.5 -4q4 -4 9 -13q2 -4 2 -14v-7t-2 -7q-4 -8 -9 -11q-4 -5 -10 -8q-5 -2 -8 -3t-6 -1h-45zM336 74v186h113v-22h-93v-60h74v-20h-74v-64h93v-20h-113zM385 0h186v-51h-133v-68h107v-51 h-107v-70h133v-51h-186v291zM459 459h127v26h-99v62h80v28h-80v60h99v29h-127v-205zM471 238v22h141v-22h-59v-164h-23v164h-59zM582 0h223v-51h-86v-240h-53v240h-84v51zM629 459h28v84h31l53 -72q3 -7 11 -10q2 -2 6.5 -2h9.5h18l-65 88q5 2 9 3t7 5q8 3 15 12q5 6 8 17 q2 5 2 9v8q0 8 -0.5 14t-3.5 12q-2 5 -5.5 9t-7.5 9q-9 9 -18 12q-12 6 -25 7h-73v-205zM657 571v64h45q4 0 13 -4q7 0 10 -6q3 -2 4.5 -4.5t3.5 -4.5q0 -3 1 -6.5t1 -8.5q0 -2 -1 -5t-1 -6q-2 -2 -3.5 -4.5t-4.5 -5.5q-2 -2 -10 -7q-4 -2 -13 -2h-45zM729 74v186h113v-22 h-92v-64h77v-20h-77v-80h-21zM760 -291l127 291h49l125 -291h-33q-11 0 -20 6q-5 3 -8.5 7.5t-6.5 8.5l-16 40h-131l-19 -40q0 -3 -4 -7q-2 -3 -4 -5l-4 -4q-3 -2 -5 -3t-5 -1q-3 -2 -5.5 -2h-4.5h-35zM795 496q2 -2 2 -3t2 -1q0 -2 1 -3.5t1 -3.5q4 -4 5 -6q4 -5 7 -5 q9 -10 20 -13.5t25 -3.5q8 0 14.5 0.5t14.5 3.5q11 3 20 13q12 10 17 20q6 12 6 24q0 29 -23 45q-2 2 -4 3t-4 3q-3 2 -5 2t-5 2q-2 2 -4 2t-6 3q-2 0 -11 4q-5 2 -9 3t-7 3q-5 2 -7 3t-5 3q-4 4 -6 7q-1 3 -1 11q0 6 1 11q2 2 3.5 4t4.5 4q2 0 10 4q4 2 12 2q3 0 5.5 -1 t4.5 -1q3 -2 7 -3t6 -3q8 -4 12 -4q8 0 14 6l7 4q-2 3 -5 5t-6 5t-6 5t-6 5q-3 2 -7 3t-9 4q-8 4 -17 4q-6 0 -11 -1t-11 -3t-11 -5l-10 -6q-3 -3 -6 -7t-6 -9q-6 -9 -6 -23q0 -8 1.5 -12.5t4.5 -9.5q3 -10 12 -17q7 -7 19 -10q5 -3 9.5 -5t10.5 -5q3 -2 6 -2.5t8 -1.5 q3 -2 7 -3t6 -3q3 -3 5.5 -5t4.5 -6q2 -3 3 -6t1 -8q0 -6 -4 -14q-3 -7 -10 -10q-2 -3 -5.5 -5t-7.5 -4q-5 0 -8 -1t-8 -1q-3 0 -7 1t-7 1q-8 4 -11 9l-4 2q-6 6 -16 6q-7 0 -10 -4zM868 -176h86l-39 88q-2 3 -2 5.5t-2 4.5v8q0 -4 -2 -8q0 -2 -1 -4.5t-1 -5.5zM879 145v115 h20v-115q0 -6 0.5 -10.5t3.5 -9.5q2 -6 4.5 -9.5t5.5 -9.5q5 -3 9 -5.5t10 -4.5q5 -3 9.5 -3.5t10.5 -0.5t11 0.5t10 3.5q11 4 16 10q5 5 7 9l5 10q2 5 3.5 9.5t1.5 10.5v115h20v-115q0 -16 -6 -28q-3 -8 -6 -14t-8 -11q-6 -5 -12.5 -9t-12.5 -7q-6 -2 -13 -3t-16 -1 q-8 0 -15 1t-13 3q-13 5 -25 16q-5 5 -9 11t-6 14q-4 6 -4.5 13t-0.5 15zM952 559q0 -9 1.5 -19.5t7.5 -19.5q5 -11 10.5 -18.5t11.5 -16.5q8 -6 16 -11.5t17 -8.5q19 -8 41 -8h14t14 2q6 3 12.5 5t12.5 7q10 5 23 14q3 5 7 11t7 12q5 6 7 12t5 12q2 8 2 14v13v15.5t-2 13.5 q-3 8 -5 14t-7 12q-3 5 -7 10.5t-7 10.5q-6 5 -11.5 8t-11.5 8q-6 3 -12 5.5t-13 5.5q-8 2 -14 3t-14 1q-6 0 -13.5 -1t-13.5 -3q-8 -2 -14 -5l-12 -6q-5 -5 -10.5 -8t-10.5 -8t-9 -10t-7 -11l-6 -12t-5 -14q-2 -6 -3 -13.5t-1 -15.5zM981 559q0 18 6 31q3 8 6.5 13.5 t10.5 10.5q5 6 10.5 10t13.5 7q13 6 29 6q15 0 30 -6q6 -3 12.5 -7t12.5 -10q11 -11 16 -24q6 -12 7 -31q0 -13 -7 -29q-3 -6 -7 -12t-9 -12q-6 -5 -12 -9t-13 -8q-15 -6 -30 -6t-29 6q-13 5 -24 17q-6 6 -10 12t-7 12q-6 15 -6 29zM1065 74v186h22v-166h82v-20h-104z M1073 0h187v-51h-134v-74h111v-51h-111v-115h-53v291zM1194 74v186h20v-166h82v-20h-102zM1200 459h29v172v-4q2 -2 2 -3v-1q0 -2 1 -3q0 -1 1 -2l117 -159h24v205h-28v-160q0 5 -1.5 8t-3.5 6l-100 137q-4 4 -8 7q-3 0 -6 1t-6 1h-21v-205zM1278 -145q0 9 0.5 19t3.5 20 q3 9 6 17.5t8 16.5q5 9 11 16t14 15q13 13 29 23q9 4 17 8.5t17 7.5q11 2 20.5 3t20.5 1t20.5 -1t18.5 -3q9 -3 18 -7.5l17 -8.5q9 -5 17 -11t14 -12q6 -8 11.5 -15t10.5 -16q5 -8 9 -16.5t6 -17.5q6 -18 6 -39q0 -20 -6 -39q-2 -9 -5.5 -18.5t-9.5 -18.5q-9 -15 -22 -29 q-6 -6 -14 -11.5t-17 -10.5q-8 -6 -16.5 -10t-18.5 -7q-9 -2 -18 -3t-21 -1q-15 0 -30 2.5t-27 7.5q-14 6 -26 14t-21 19q-22 22 -33 47q-6 14 -8 27.5t-2 30.5zM1329 -145q0 -9 2.5 -18.5t5.5 -18.5q10 -20 21 -31q6 -6 13.5 -10.5t17.5 -9.5q15 -6 36 -7q18 0 37 7 q7 5 15 9.5t16 10.5q6 6 10.5 14t9.5 17q6 18 7 37q0 18 -7 36q-5 9 -9.5 16t-10.5 15q-8 6 -16 10.5t-15 8.5q-16 8 -37 8q-24 0 -36 -8q-9 -4 -17 -8.5t-14 -10.5q-6 -8 -11 -14.5t-10 -16.5q-3 -9 -5.5 -18t-2.5 -18zM1386 260h11q3 0 5 -1t5 -3q2 -2 4 -3.5t2 -4.5 l62 -139q0 -2 1 -3.5t1 -3.5v-6v6q2 2 2 7q8 17 15 34.5t15 34.5q8 18 15.5 35t15.5 35q2 4 6 8q8 4 10 4h13q-11 -24 -21.5 -47.5t-19.5 -46.5q-11 -24 -20.5 -46.5t-20.5 -45.5h-21zM1386 1108q0 -71 29 -137q14 -33 32.5 -61.5t43.5 -53.5q46 -49 113 -78q65 -31 141 -30 q73 0 139 28q65 28 115 78q25 24 43.5 52t34.5 61q27 66 26 141q0 34 -4.5 64.5t-15.5 58.5q-9 27 -24 53t-34 49q-18 22 -38.5 40.5t-44.5 35.5q-25 14 -50.5 25.5t-52.5 19.5q-22 8 -44.5 11t-49.5 3q-76 0 -143 -30q-33 -14 -61 -34t-52 -44q-25 -25 -43.5 -53.5 t-32.5 -61.5q-12 -33 -19.5 -66.5t-7.5 -70.5zM1393 459h16q8 0 11 2q7 5 10 10l14 33h104l15 -33q4 -8 8 -10q2 -2 5.5 -2h6.5h16l-88 205h-28zM1423 1108q0 58 19 111q8 27 21.5 49.5t31.5 46.5h428l-420 -424q-20 24 -35 48.5t-24 51.5q-11 27 -16 56.5t-5 60.5z M1456 532l37 86q2 2 2 5q0 2 1 4t1 4q0 -10 2 -13l37 -86h-80zM1528 866h434q-24 -18 -48.5 -33.5t-51.5 -26.5q-27 -10 -56.5 -16t-60.5 -6q-32 0 -61 6t-56 16q-28 11 -52.5 26.5t-47.5 33.5zM1528 1350q22 20 46.5 35t50.5 26q54 20 120 21q31 0 60.5 -5t56.5 -16 q55 -25 98 -61h-432zM1565 901l422 426q80 -104 79 -219q0 -30 -4 -57t-14 -54q-9 -27 -22.5 -49.5t-30.5 -46.5h-430zM1583 74v186h115v-22h-92v-60h73v-20h-73v-64h92v-20h-115zM1612 0h47q8 0 16 -4t11 -9q15 -20 30.5 -42t30.5 -43q15 -22 30 -43t29 -41q6 -6 6 -13 q2 -3 2.5 -5.5t0.5 -4.5v205h53v-291h-49l-138 195q-4 4 -4 6q-2 4 -6 8q0 2 -4 6q0 2 -1 3t-1 3v-221h-53v291zM1620 459h117v26h-88v179h-29v-205zM1741 74v186h67q5 0 10.5 -1t10.5 -3q5 -3 9 -6t7 -6t6 -7.5t7 -9.5q2 -5 3 -10t1 -10t-1 -9t-3 -10q-2 -10 -9 -16 l-12 -12q-5 -2 -8 -3t-8 -3l59 -80h-12q-8 0 -11 2q-6 2 -10 8l-53 70h-31v-80h-22zM1763 174h45q8 0 13 2q3 2 5 3t5 3q2 3 3 5t3 4q2 4 3 7.5t1 8.5q0 4 -4 12q-2 3 -3 5t-3 5q-3 2 -5 3t-5 4q-4 2 -13 2h-45v-64zM1853 539q0 -6 0.5 -12t3.5 -11q1 -6 3 -10.5t4 -9.5 q3 -5 6 -9.5t8 -7.5q3 -3 7 -6t9 -6t10.5 -4.5t10.5 -3.5t10 -3t10 -1q6 0 12.5 1t11.5 3q12 3 19 8q5 3 8.5 6t8.5 6q3 3 6 7t6 10q5 7 8 20q2 5 3 10.5t1 12.5v125h-28v-125q0 -6 -1 -11.5t-3 -11.5q-3 -5 -5.5 -9t-7.5 -7q-3 -5 -7 -7.5t-8 -5.5q-7 -2 -12 -3t-12 -1 q-5 0 -10 1t-10 3q-5 3 -9 5.5t-8 7.5q-9 6 -12 16q-2 6 -3 11t-1 12v125h-29v-125zM1892 0h224v-51h-84v-240h-54v240h-86v51zM1896 104l5 2l1 2q1 0 1.5 0.5t1.5 0.5h4q8 0 12 -5q3 -5 7 -6.5t7 -3.5q5 -2 8.5 -2h8.5h6t8 2q6 0 12 6q7 3 11 11q4 10 4 14q0 9 -4 15 q-3 6 -9 10q-4 4 -12 8q-4 0 -14 4q-6 2 -11 4l-10 4q-9 3 -16 10q-3 2 -5.5 5.5t-3.5 5.5q-2 5 -3.5 10.5t-1.5 11.5q0 11 6 20q3 8 12 15q7 7 16 10q5 2 11 3t11 1q2 0 6 -1t7 -1q5 -2 8 -3t7 -3q3 -3 5.5 -4.5t4.5 -3.5l8 -8l-4 -5q-4 -4 -10 -4q-8 0 -11 2q-2 2 -3 2 t-3 3q-2 0 -2 1t-2 1t-3 1t-3 1h-5h-8t-7 -2q-3 0 -5.5 -1t-5.5 -4q-2 -3 -4 -5t-2 -5q-4 -4 -4 -10q0 -8 2 -10q2 -4 6 -8q5 -4 13 -7q3 -2 7 -3t9 -3q3 -2 5 -2t5 -2q4 0 8 -4q3 0 5.5 -1t5.5 -3q2 0 6 -4l8 -8t7 -8q1 -7 2 -12t1 -13q0 -6 -1 -11t-2 -12q-4 -5 -7 -9.5 t-8 -6.5q-7 -7 -21 -10q-5 -3 -10.5 -3.5t-11.5 -0.5q-27 0 -41 14q-2 2 -5 4.5t-5 5.5q-4 4 -5 8zM2048 496q0 -2 1 -3q0 -1 1 -1q2 -2 2 -3.5t2 -3.5q4 -4 4 -6q4 -5 8 -5q9 -10 20 -13.5t25 -3.5q8 0 14.5 0.5t11.5 3.5q15 3 24 13q11 10 16 20q3 6 3.5 12t0.5 12 q0 31 -20 45q-4 2 -9 6q-3 2 -5 2t-5 2q-4 2 -5.5 2t-4.5 3q-3 0 -5 1t-5 3q-5 2 -9.5 3t-7.5 3q-9 3 -12 6q-6 3 -6 7q-2 3 -2 11q0 6 2 11q2 2 3.5 4t4.5 4q2 0 10 4q4 2 13 2q3 0 5 -1t5 -1l12 -6q8 -4 12 -4q6 0 13 6l8 4q-2 3 -4.5 5t-5.5 5t-6.5 5t-6.5 5q-3 2 -7 3 t-9 4q-5 2 -8 3t-8 1q-6 0 -12 -1t-11 -3q-6 -2 -10.5 -5t-9.5 -6l-7 -7t-6 -9q-6 -9 -6 -23q0 -8 1.5 -12.5t3.5 -9.5q5 -11 14 -17q7 -7 16 -10q6 -3 11 -5t12 -5q3 -2 6 -2.5t8 -1.5l12 -6q3 -3 5.5 -5t4.5 -6q2 -3 3 -6t1 -8q0 -6 -4 -14q-3 -7 -10 -10q-5 -5 -14 -9 q-3 0 -7 -1t-8 -1q-5 0 -8 1t-6 1q-10 3 -12 9l-2 2q-6 6 -17 6q-8 0 -10 -4zM2054 74v186h23v-186h-23zM2120 166q0 6 1 12t3 12t3.5 12.5t4.5 12.5q4 5 7.5 9t8.5 9t9.5 8.5t9.5 6.5q10 7 21 10q7 2 13.5 3t14.5 1q6 0 12 -1t11 -3q12 -3 24 -10q12 -6 21 -15q5 -5 8 -9 t6 -9q3 -6 5.5 -12t4.5 -13q2 -6 2 -12v-12q0 -20 -6 -37q-8 -17 -20 -31q-16 -14 -31 -20q-20 -6 -37 -6q-23 0 -39 6q-17 6 -29 20q-6 6 -11.5 14t-8.5 17q-5 8 -6.5 18t-1.5 19zM2120 -229q2 0 6 4q4 0 8 4q2 0 4 1t4 1t4 0.5t4 0.5q6 0 13 -3q5 0 8 -1t6 -3q7 -7 16 -11 q5 -2 11 -3t12 -1h7t9 2q3 2 7.5 3.5t7.5 3.5q9 6 12 13q6 7 6 17q0 5 -1 8.5t-3 6.5q-3 3 -6 5.5t-6 4.5q-8 5 -17 8q-8 1 -18 8q-8 2 -15.5 4.5t-15.5 5.5t-14 7.5t-12 9.5q-10 10 -17 22q-8 13 -8 33q0 10 2.5 18.5t5.5 16.5q10 16 21 25q6 4 13 8.5t14 7.5q8 2 17 3 t17 1q6 0 12.5 -1t12.5 -3q13 -3 22 -11q6 -2 11 -6.5t10 -9.5q5 -3 8 -7t6 -9l-10 -8l-6 -4t-9 -4q-5 -2 -8 -3t-6 -1h-4h-4q-3 2 -5 3t-5 3q-2 2 -5 2t-4 2q-2 0 -3.5 1t-4.5 1q-2 2 -8 2h-6t-8 -2q-6 0 -10 -4q-3 -2 -6.5 -5t-4.5 -4q-2 -4 -2 -12t2 -10q1 -3 4 -5t7 -5 q3 -2 7 -3t9 -3t10.5 -4.5t13.5 -4.5l9 -4q9 -3 15.5 -6t14.5 -8q15 -8 23 -19q9 -9 12 -22q6 -12 6 -29q0 -11 -2.5 -19.5t-5.5 -17.5q-5 -9 -10.5 -16.5t-11.5 -14.5q-15 -11 -35 -18q-20 -6 -37 -6q-23 0 -41 6q-9 5 -17 10t-16 13q-5 5 -8 9t-6 9q-5 8 -8 17zM2140 166 q0 -5 1 -9t3 -10t3 -9.5t3 -8.5q3 -5 6.5 -8t6.5 -8q6 -6 14 -11q7 -5 18 -8q5 -2 10 -2h11h9t9 2q4 2 9 3.5t10 4.5q5 2 8 5l6 6q5 5 7 8t5 8q6 8 9 18q2 5 2 9.5v9.5q0 16 -6 29q-3 8 -7 13.5t-10 10.5q-10 10 -22 17q-6 2 -13.5 3t-15.5 1t-15.5 -1t-15.5 -3 q-12 -6 -22 -17q-5 -5 -9.5 -10.5t-7.5 -13.5q-6 -12 -6 -29zM2218 459h127v26h-100v62h79v28h-79v60h100v29h-127v-205zM2333 -262q0 3 1 6.5t1 5.5q4 8 7 10q4 6 11 7q8 4 12 4t13 -4q7 -1 10 -7q5 -3 5 -10q2 -2 3.5 -5.5t1.5 -6.5q0 -5 -5 -12q0 -5 -5 -11q-2 -2 -10 -6 q-4 -2 -13 -2q-8 0 -12 2q-8 4 -11 6q-2 3 -3.5 5t-3.5 6q0 3 -1 6t-1 6zM2345 74v186h14q13 0 17 -8l96 -135q2 -1 2 -2.5t2 -3.5v-5v154h23v-186h-21l-108 153l-3 2v2q0 2 -2 5v-162h-20zM2417 -145q0 20 6 39q2 9 5.5 17.5t8.5 16.5q5 9 11 16t12 15q8 6 14.5 11.5 t15.5 11.5l17 8.5t18 7.5q11 2 20.5 3t18.5 1t17 -0.5t16 -3.5q13 -3 31 -11q12 -5 26 -16q6 -5 12.5 -10.5t12.5 -11.5l-13 -14q-4 -3 -12 -7q-5 -2 -16 -2q-9 0 -19 6q-6 2 -12 6t-14 7q-6 2 -13.5 3t-15.5 1q-9 0 -18 -1.5t-17 -6.5q-9 -4 -16.5 -8.5t-13.5 -10.5 q-8 -8 -13 -14.5t-8 -16.5q-8 -16 -8 -36t8 -37q6 -19 21 -31q6 -6 13.5 -10.5t16.5 -9.5q15 -6 35 -7q8 0 15.5 1t13.5 3q14 3 26 13q2 2 4.5 2t4.5 2q3 1 5.5 1h4.5q8 0 16 -3q8 -4 12 -8l13 -11q-6 -6 -12.5 -11.5t-12.5 -10.5t-13 -9t-13 -8q-8 -5 -15.5 -6.5 t-15.5 -3.5q-8 -3 -16 -3.5t-17 -0.5q-14 0 -28.5 2.5t-28.5 7.5q-26 11 -47 33q-9 11 -17 22t-14 25q-12 28 -12 58zM2462 559q0 -9 1.5 -19.5t6.5 -19.5q3 -11 8.5 -18.5t11.5 -16.5q8 -6 17 -11.5t18 -8.5q16 -8 41 -8h13.5t13.5 2q8 3 14 5t12 7q5 3 10.5 6t10.5 8 q10 10 16 23q3 6 5.5 12t4.5 12l3.5 14t1.5 13q0 8 -1 15.5t-4 13.5q-2 8 -4.5 14t-5.5 12q-3 5 -7 10.5t-9 10.5t-10 8t-11 8q-6 3 -12 5.5t-14 5.5q-6 2 -13.5 3t-13.5 1q-8 0 -14.5 -1t-14.5 -3q-6 -2 -12 -5l-12 -6q-6 -5 -11 -8t-12 -8q-5 -5 -8 -10t-8 -11 q-3 -6 -5 -12t-5 -14q-2 -6 -2 -13.5v-15.5zM2488 559q0 18 6 31q3 8 7.5 13.5t9.5 10.5q6 6 12 10t12 7q8 3 15 4.5t16 1.5q16 0 29 -6q8 -3 13.5 -7t10.5 -10q6 -5 10 -10.5t7 -13.5q6 -12 6 -31q0 -13 -6 -29q-3 -6 -6.5 -12t-10.5 -12q-5 -5 -10.5 -9t-13.5 -8 q-12 -6 -29 -6q-9 0 -15.5 1.5t-15.5 4.5q-6 3 -12 7.5t-12 9.5q-5 6 -9 12l-8 12q-6 15 -6 29zM2634 74v186h114v-22h-94v-64h78v-20h-78v-80h-20zM2697 -145q0 20 6 39q3 9 6.5 17.5t8.5 16.5q5 9 10.5 16t13.5 15q13 13 29 23q9 4 17.5 8.5t17.5 7.5q11 2 20 3t21 1 q9 0 19 -1t20 -3q9 -3 17.5 -7.5t16.5 -8.5q9 -5 16 -11t15 -12q6 -8 12 -15t11 -16q5 -8 8.5 -16.5t5.5 -17.5q6 -18 6 -39q0 -20 -6 -39q-2 -9 -5.5 -18.5t-8.5 -18.5q-9 -15 -23 -29q-8 -6 -14.5 -11.5t-16.5 -10.5q-8 -6 -16.5 -10t-17.5 -7q-9 -2 -19.5 -3t-19.5 -1 q-15 0 -30 2.5t-30 7.5q-12 6 -24 14t-21 19q-22 22 -32 47q-7 14 -10 27.5t-3 30.5zM2707 459h29v172q2 -2 2 -3v-1q0 -4 2 -4q0 -4 2 -5l117 -159h23v205h-29v-160q0 5 -1 8t-3 6l-101 137q-4 4 -8 7q-2 0 -4.5 1t-7.5 1h-21v-205zM2750 -145q0 -9 2 -18.5t7 -18.5 q3 -9 8.5 -17t11.5 -14t14 -10.5t17 -9.5q15 -6 37 -7q18 0 37 7q8 5 15 9.5t15 10.5q6 6 11 14t10 17q6 18 6 37q0 18 -6 36q-5 9 -10 16t-11 15q-8 6 -15 10.5t-15 8.5q-16 8 -37 8q-24 0 -37 -8q-9 -4 -17 -8.5t-14 -10.5q-6 -8 -11.5 -14.5t-8.5 -16.5q-5 -9 -7 -18 t-2 -18zM2771 74v186h65q6 0 11 -1t10 -3q6 -3 9.5 -6t6.5 -6q9 -6 13 -17q2 -5 3 -10t1 -10v-9t-2 -10q-4 -9 -11 -16q-3 -6 -12 -12q-3 -2 -7.5 -3t-8.5 -3l61 -80h-12q-10 0 -14 2q-2 2 -4.5 3.5t-4.5 4.5l-51 70h-33v-80h-20zM2791 174h45q9 0 13 2q8 4 10 6q6 6 6 9 q2 4 3 7.5t1 8.5q0 4 -4 12q0 4 -6 10q-2 2 -10 7q-4 2 -13 2h-45v-64zM2929 166q0 6 1 12t3 12t3.5 12.5t6.5 12.5q2 5 5.5 9t7.5 9t9.5 8.5t10.5 6.5l11 5.5t11 4.5t12.5 3t12.5 1q8 0 14 -1t12 -3q11 -3 23 -10q12 -6 20 -15q5 -5 8.5 -9t6.5 -9l4 -12t4 -13 q3 -6 3.5 -12t0.5 -12q0 -9 -2 -19t-7 -18q-5 -18 -18 -31q-16 -14 -30 -20q-18 -6 -39 -6q-18 0 -37 6q-15 6 -30 20q-13 11 -19 31q-5 8 -6.5 18t-1.5 19zM2933 459h116v26h-90v179h-26v-205zM2949 166q0 -5 1 -9t1 -10q2 -6 4 -9.5t4 -8.5q3 -5 6.5 -8t6.5 -8 q6 -6 14 -11q5 -3 9 -4.5t9 -3.5t9.5 -2h9.5h10.5t9.5 2t9.5 3.5t9.5 4.5q5 2 8 5l6 6q5 5 7 8t5 8q6 8 9 18q2 5 2 9.5v9.5q0 16 -7 29q-3 8 -6.5 13.5t-9.5 10.5q-10 10 -22 17q-8 2 -15.5 3t-15.5 1q-6 0 -13.5 -1t-15.5 -3q-12 -6 -22 -17q-5 -5 -9.5 -10.5t-7.5 -13.5 q-6 -12 -6 -29zM3021 664l74 -101l1 -1q0 -1 0.5 -1.5t0.5 -1.5q2 -2 2 -3t2 -1v-5v-5v-86h28v86q0 2 1 3t1 2v2q0 1 2 3v1q0 1 2 3q0 4 5 4l71 101h-18q-10 0 -15 -5q-3 -2 -5.5 -5t-4.5 -5l-49 -65q-1 0 -2 -1v-1q0 -1 -0.5 -1.5t-0.5 -1.5l-1 -1v4v1l-2 1l-47 65 q-3 2 -5.5 5t-4.5 5q-5 2 -8.5 3.5t-8.5 1.5h-18zM3031 0h53q3 0 6.5 -1t6.5 -1q2 -2 4 -2t4 -2q3 -2 4.5 -4.5t3.5 -3.5q2 -2 3 -4t3 -5q9 -24 17.5 -45t17.5 -43q9 -24 18 -45t17 -43q2 -2 2 -6q0 -2 1 -3t1 -3v-7v-1l2 1v7q0 4 2 6v6l10 21l62 155q0 5 6 9q3 5 8 8 q2 2 5 2t5 2q2 0 4.5 1t5.5 1h54v-291h-54v213q-2 -3 -3 -6t-1 -8q-2 -5 -3 -8t-3 -6l-37 -93q-9 -24 -18 -46t-21 -46h-47l-75 185q-2 3 -3.5 6t-3.5 8q0 4 -4 12v-211h-53v291zM3160 74v186h16q4 0 9 -4q6 -3 6 -8l65 -144v-4q2 -2 2 -3v-1v4.5t2 5.5t2 5.5t1 5.5l61 131 q0 5 6 8q4 4 8 4h19v-186h-21v153h-2v-4v-2q0 -1 -1 -2h-1q-5 -11 -9 -21.5t-7 -19.5q-5 -11 -9.5 -19t-7.5 -19q-5 -8 -9 -16.5t-7 -17.5t-7 -16.5t-7 -15.5h-23q-8 17 -15 35t-16 36t-16.5 37t-15.5 37q-2 0 -2 4v4v-153h-21z" />
<glyph unicode=":" horiz-adv-x="528" d="M63 180q0 41 16 78t43.5 64t63.5 43t78 16q41 0 78 -16t64 -43t43 -64t16 -78q0 -42 -16 -78t-43 -63.5t-64 -43t-78 -15.5q-42 0 -78 15.5t-63.5 43t-43.5 63.5t-16 78zM63 811q0 41 16 78t43.5 63.5t63.5 42.5t78 16q41 0 78 -16t64 -42.5t43 -63.5t16 -78 q0 -42 -16 -78.5t-43 -63.5t-64 -43t-78 -16q-42 0 -78 16t-63.5 43t-43.5 63.5t-16 78.5z" />
<glyph unicode=";" horiz-adv-x="522" d="M59 176q0 41 15.5 77t42.5 62t64 41t79 15q40 0 76.5 -15t64 -41t44 -61.5t16.5 -77.5q0 -63 -26 -123.5t-68 -108t-94.5 -77.5t-104.5 -33q-42 0 -64 36.5t-32 90.5q-10 52 -11.5 111t-1.5 104zM59 815q0 41 15.5 77t42.5 62.5t64 41.5t79 15q41 0 78 -15t64 -41.5 t43 -62.5t16 -77q0 -42 -16 -78.5t-43 -62.5t-64 -41t-78 -15q-42 0 -79 15t-64 41t-42.5 62.5t-15.5 78.5z" />
<glyph unicode="&#x3c;" horiz-adv-x="806" d="M59 589q0 38 15.5 75.5t42.5 64.5l289 286q31 30 64.5 45t74.5 15q38 0 74 -15.5t65 -43t46.5 -65t17.5 -81.5q0 -39 -14.5 -75.5t-45.5 -63.5l-185 -144l185 -143q31 -27 45.5 -63.5t14.5 -75.5q0 -71 -40 -123q-29 -39 -72.5 -60.5t-90.5 -21.5q-12 1 -24.5 1.5 t-26.5 4.5q-24 7 -46.5 20.5t-41.5 33.5l-289 286q-30 29 -44 66.5t-14 76.5z" />
<glyph unicode="=" horiz-adv-x="954" d="M74 330q0 42 15 78t42.5 63.5t64 42.5t78.5 15h406q41 0 78 -15.5t64 -42.5t43 -63.5t16 -77.5q0 -42 -16 -78.5t-43 -63.5t-64 -43t-78 -16h-406q-42 0 -78.5 15.5t-64 42.5t-42.5 63.5t-15 79.5zM74 796q0 43 15 79t42.5 63t64 42t78.5 15h406q41 0 78 -15t64 -42.5 t43 -63.5t16 -78t-16 -78.5t-43 -63.5t-64 -42.5t-78 -15.5h-406q-42 0 -78.5 15.5t-64 42t-42.5 63t-15 79.5z" />
<glyph unicode="&#x3e;" horiz-adv-x="806" d="M59 305q0 39 14.5 76t45.5 63l186 143l-186 144q-31 27 -45.5 63.5t-14.5 75.5q0 15 3 31.5t8 30.5q9 31 28 56.5t44 44.5t55 30t63 12q83 0 143 -60l287 -286q29 -30 41.5 -65t16.5 -75q0 -39 -14.5 -76.5t-43.5 -66.5l-287 -286q-23 -20 -47 -35t-51 -21 q-57 -11 -112.5 10t-92.5 70q-41 52 -41 121z" />
<glyph unicode="?" horiz-adv-x="1173" d="M105 933q-7 44 14 96q62 156 187 239t306 83q99 0 188.5 -38t156.5 -101.5t106 -147t39 -175.5q0 -45 -5.5 -83.5t-21.5 -77t-46 -79t-77 -88.5q-26 -26 -62 -44.5t-72.5 -40.5t-67.5 -51t-44 -74q-8 -27 -24 -44.5t-35 -29t-38 -16t-32 -4.5q-28 0 -59.5 7t-57.5 26 t-43 51.5t-17 82.5q0 37 4 64.5t17 53.5t38.5 54t70.5 64q18 15 48.5 32.5t59 40.5t49.5 52t21 69q0 25 -9.5 45.5t-25 35t-36 23t-42.5 8.5q-32 0 -53 -9t-35.5 -22.5t-24 -30.5t-16.5 -34q-11 -31 -33.5 -51t-51 -32t-59.5 -15t-59 2q-37 7 -71 28t-57 54t-30 77zM367 31 q0 41 15.5 77.5t43 64t63.5 43t78 15.5q41 0 78 -15.5t63.5 -43t42.5 -64t16 -77.5q0 -42 -16 -78.5t-42.5 -63.5t-63.5 -43t-78 -16q-42 0 -78 16t-63.5 43t-43 63.5t-15.5 78.5z" />
<glyph unicode="@" horiz-adv-x="1892" d="M60 536q0 115 30.5 221.5t85 200.5t131.5 170.5t170 131.5t200.5 85t223.5 30q115 0 222 -30t200.5 -85t170.5 -131.5t131.5 -170.5t85 -201t30.5 -221q0 -89 -23 -177.5t-69 -158.5t-115.5 -113.5t-161.5 -43.5q-82 0 -139 29.5t-93.5 78t-53.5 109.5t-17 124v154 l266 -1v-79q0 -40 1.5 -63.5t6 -35.5t11.5 -15.5t18 -3.5q27 0 34 45.5t7 152.5q0 104 -40.5 198t-110 166t-162.5 114.5t-199 42.5t-199.5 -43t-163 -116t-109.5 -169t-40 -202q0 -103 40 -197.5t109.5 -167.5t163 -116t199.5 -43q31 0 58 7t52 16.5t47 16.5t43 7 q36 0 61.5 -11t42 -29.5t24 -41.5t7.5 -48q0 -54 -23.5 -92t-59.5 -63t-78 -39.5t-79.5 -21.5t-64 -9t-30.5 -2q-116 0 -223.5 30t-200.5 85t-170 131.5t-131.5 170t-85 201t-30.5 223.5zM467 536q0 89 34.5 167.5t93 138t138 94t169.5 34.5q89 0 168 -34.5t138.5 -94 t93.5 -138t34 -167.5t-34 -168.5t-93.5 -139t-138.5 -94t-168 -34.5q-90 0 -169.5 34.5t-138 93.5t-93 138.5t-34.5 169.5zM827 532q0 -30 22 -52.5t52 -22.5t52 23t22 54q0 14 -6 27.5t-16 24t-23.5 16.5t-28.5 6q-30 0 -52 -23t-22 -53zM1069 282v57q0 24 4 58t13.5 71 t25.5 74t40.5 66t58 47.5t77.5 18.5q18 0 28.5 -22.5t15 -55.5t4.5 -71.5v-69.5l-1 -87z" />
<glyph unicode="A" horiz-adv-x="1264" d="M40 216q3 17 10 36l359 874q8 22 12.5 44.5t9.5 43.5q6 22 16.5 42t31 34.5t55 23t88.5 8.5q36 0 64.5 -12t52 -32t41.5 -46.5t32 -56.5l380 -923q7 -17 9.5 -35.5t3.5 -36.5q0 -39 -14 -74t-42 -65q-37 -39 -85 -53q-29 -8 -58 -8q-19 0 -39 4q-48 10 -89 41t-61 84 l-25 56h-341l-26 -56q-25 -57 -73 -94q-45 -35 -106 -35h-7q-49 0 -89 20t-68 54q-26 34 -38 76q-7 25 -7 50q0 18 3 36zM523 469h195l-96 251z" />
<glyph unicode="B" horiz-adv-x="1298" d="M127 1239q0 18 5 33.5t18 26.5t35.5 17t58.5 6h516q69 0 133 -17.5t119 -52t96.5 -85.5t65.5 -118q11 -33 17 -70t6 -79q0 -47 -12.5 -83.5t-26.5 -62.5q-17 -31 -38 -54q36 -27 65 -65q25 -33 45 -82t20 -117q0 -72 -17 -133q-22 -77 -66 -137.5t-103.5 -101.5 t-131 -62.5t-147.5 -21.5h-440q-48 0 -85.5 17.5t-62.5 46.5t-38.5 64.5t-13.5 71.5v927q-1 13 -3 26l-4 26l-2 11q-4 17 -6.5 35t-2.5 34zM136 1170l2 -11q-1 3 -1 5.5t-1 5.5zM539 346h223q13 0 29.5 4.5t30.5 15t23 27.5t9 41q0 26 -8.5 43t-22 27.5t-30 15t-31.5 4.5 h-223v-178zM539 825h209q13 0 25.5 6.5t22.5 16.5t15.5 24.5t5.5 29.5q0 34 -23 54.5t-49 20.5h-206v-152z" />
<glyph unicode="C" horiz-adv-x="1340" d="M63 651q0 138 53 260t144 214t213.5 144.5t261.5 52.5q78 0 143 -12t121 -37t105.5 -64.5t97.5 -93.5q27 -31 41 -65t17 -75v-8q0 -30 -12 -63q-14 -38 -46 -68q-23 -23 -52.5 -39t-63.5 -19q-7 -1 -15 -1q-28 0 -58 9q-38 11 -78 42q-17 13 -34.5 30.5t-40 32t-53 25 t-72.5 10.5q-56 0 -105 -22.5t-86 -61t-58 -89.5t-21 -106t21.5 -105t58.5 -88t86 -60.5t104 -22.5q46 0 77.5 12.5t57.5 31.5t51 41t59 42q26 14 57.5 21.5t63.5 6t62.5 -13.5t55.5 -37q57 -57 57 -139q0 -39 -13.5 -75t-43.5 -66q-47 -57 -99 -98t-111 -67t-127 -38 t-147 -12q-139 0 -261.5 52.5t-213.5 143.5t-144 213.5t-53 261.5z" />
<glyph unicode="D" horiz-adv-x="1389" d="M127 1239q0 18 5.5 33.5t19.5 26.5t38.5 17t63.5 6h400q92 0 178 -24t160.5 -68t135.5 -105t105 -136t68 -160.5t24 -177.5q0 -139 -52.5 -261.5t-144.5 -213.5t-213.5 -143.5t-260.5 -52.5h-309q-37 0 -69.5 11.5t-58.5 33t-43 50.5t-24 63q-2 10 -3.5 20.5t-1.5 21.5 v927q-2 33 -10 67t-8 65zM545 374h109q55 3 104.5 24t86.5 56.5t58.5 85.5t21.5 111q0 69 -21.5 122.5t-58.5 91t-86 58.5t-105 24h-109v-573z" />
<glyph unicode="E" horiz-adv-x="1226" d="M127 1239q0 18 5.5 33.5t19.5 26.5t38.5 17t63.5 6h709q63 0 106 -28t65 -70q23 -43 23 -94q0 -49 -21 -90q-21 -42 -64.5 -70t-108.5 -28h-418v-108h290q46 0 86 -23.5t65 -60.5q26 -36 32 -82q2 -11 1 -22q0 -34 -15 -68q-24 -52 -68 -81.5t-101 -29.5h-290v-86h418 q42 0 78.5 -15.5t64 -42t42.5 -63.5t15 -80q0 -42 -15 -78.5t-42.5 -64t-64 -42.5t-78.5 -15h-618q-43 0 -79.5 15t-63 41.5t-42 63.5t-15.5 80v927q-2 33 -10 67t-8 65z" />
<glyph unicode="F" horiz-adv-x="1192" d="M127 1239q0 18 5.5 33.5t19.5 26.5t38.5 17t63.5 6h698q31 0 65.5 -9t63.5 -29.5t48.5 -55t21.5 -84.5v-6q-1 -34 -11 -68q-12 -36 -36 -64.5t-61.5 -46t-90.5 -17.5h-407v-130h256q43 0 79 -13.5t63.5 -38.5t42.5 -60t15 -78q0 -42 -15 -79t-42.5 -63.5t-63.5 -42 t-79 -15.5h-256v-242q0 -42 -15.5 -78t-42 -63.5t-63 -43t-79.5 -15.5t-79.5 15.5t-63 43t-42 63.5t-15.5 78v927q-2 33 -10 67t-8 65z" />
<glyph unicode="G" horiz-adv-x="1398" d="M63 651q0 138 53 260t144 214t213.5 144.5t261.5 52.5q78 0 144.5 -14t124.5 -41t109 -67.5t99 -94.5q27 -32 42.5 -65.5t15.5 -75.5q0 -55 -27.5 -100t-73.5 -70q-42 -24 -91 -28h-12q-42 0 -82 20q-37 18 -61 42.5t-48.5 46t-56.5 36.5t-83 15q-56 0 -105 -22.5 t-86 -61t-58 -89.5t-21 -106q0 -63 22 -115.5t60.5 -89t90 -57t110.5 -20.5q12 0 31.5 1.5t40 7.5t39.5 16.5t30 29.5q68 43 123 52q23 5 44 5q28 0 51 -8q40 -13 63 -43q24 -33 24 -72q0 -34 -20 -70q-22 -38 -70 -65q-29 -41 -63.5 -83.5t-78.5 -77t-100 -56.5t-127 -22 q-139 0 -261.5 52.5t-213.5 143.5t-144 213.5t-53 261.5zM703 486q0 27 13 55t36.5 51t56.5 37.5t74 14.5h277q33 0 61 -8.5t48.5 -30t32 -56.5t11.5 -87v-327q0 -33 -11.5 -60.5t-32 -48t-49.5 -31.5t-65 -11q-75 0 -111.5 46.5t-36.5 123.5v181h-24h-122q-35 0 -64 14.5 t-49.5 37t-32.5 49t-12 50.5z" />
<glyph unicode="H" horiz-adv-x="1441" d="M127 1239q0 18 5.5 33.5t19.5 26.5t38.5 17t63.5 6q56 0 108.5 -7.5t93 -29t65 -61t24.5 -103.5v-294h383v280q-2 33 -10 67t-8 65q0 18 5.5 33.5t19.5 26.5t38 17t63 6q54 0 106.5 -7t94 -28.5t66.5 -61t25 -104.5v-941q0 -42 -15.5 -78t-42.5 -63.5t-63.5 -43 t-79.5 -15.5q-42 0 -78.5 15.5t-63.5 43t-42 63.5t-15 78v247h-383v-247q0 -42 -15.5 -78t-42 -63.5t-63 -43t-79.5 -15.5t-79.5 15.5t-63 43t-42 63.5t-15.5 78v927q-2 33 -10 67t-8 65z" />
<glyph unicode="I" horiz-adv-x="673" d="M127 1239q0 18 5.5 33.5t19.5 26.5t38.5 17t63.5 6q58 0 109.5 -7.5t90.5 -29.5t63 -61.5t28 -104.5v-939q0 -42 -15.5 -78t-42 -63.5t-63 -43t-79.5 -15.5t-79.5 15.5t-63 43t-42 63.5t-15.5 78v927q-2 33 -10 67t-8 65z" />
<glyph unicode="J" horiz-adv-x="657" d="M-121 -145q0 41 15.5 77t42.5 63.5t64 42.5t79 15q34 0 49.5 32.5t15.5 84.5v953q0 31 -8 58t-8 58q0 18 5.5 33.5t19.5 26.5t38.5 17t62.5 6q54 0 106.5 -7t94 -28.5t66.5 -61t25 -104.5v-951q0 -120 -35 -215.5t-97 -162.5t-147.5 -102.5t-187.5 -35.5q-42 0 -79 15.5 t-64 42.5t-42.5 63.5t-15.5 79.5z" />
<glyph unicode="K" horiz-adv-x="1289" d="M127 1253q0 18 5.5 34t19.5 26.5t38.5 16.5t63.5 6q51 0 103 -5.5t93.5 -26t68 -60.5t26.5 -107l1 -198l359 334q39 35 93 45q18 3 35 4q35 0 70 -13q15 -5 31.5 -14t32 -20.5t27.5 -26t19 -30.5q13 -34 19 -68q3 -18 2 -35q0 -15 -2 -31q-5 -32 -21 -62t-44 -51 l-271 -212l312 -474q32 -48 32 -99t-28 -100q-25 -45 -69 -75.5t-108 -30.5q-50 0 -94 24.5t-74 73.5l-270 452l-54 -45l2 -305q0 -42 -15.5 -78t-42 -63.5t-63 -43t-79.5 -15.5t-79.5 15.5t-63 43t-42 63.5t-15.5 78v941q-2 34 -10 68.5t-8 63.5z" />
<glyph unicode="L" horiz-adv-x="1138" d="M127 1260q0 18 5.5 33.5t19.5 26t38.5 16.5t63.5 6q56 0 108.5 -7.5t93 -29t65 -61t24.5 -102.5v-741h344q41 0 77 -15.5t63.5 -43t43.5 -64t16 -77.5q0 -42 -14 -78.5t-38.5 -63.5t-58.5 -43t-75 -16h-567q-41 2 -76 18t-60.5 42.5t-40 62.5t-14.5 78v926 q-2 33 -10 67.5t-8 65.5z" />
<glyph unicode="M" horiz-adv-x="1592" d="M104 1239q0 18 6 33.5t19.5 26.5t38.5 17t63 6q51 0 86.5 -1t62 -7.5t48 -20.5t45.5 -40l332 -365q91 93 150 159.5t94 110t50.5 67.5t20.5 32q8 13 19 25t29.5 21t46 14t69.5 5q58 0 96.5 -17t61.5 -44t33.5 -61.5t14.5 -68.5q3 -26 2 -51v-14q-1 -31 -1 -51v-835 q0 -42 -15.5 -78t-42.5 -63.5t-63.5 -43t-78.5 -15.5q-28 0 -62 10.5t-64 34.5t-50 62.5t-20 92.5v543l-139 -176q-41 -49 -74 -79t-71 -30q-20 0 -36 7.5t-32.5 21t-34.5 33.5t-42 47l-146 176q0 -106 0.5 -183t0.5 -137.5t0.5 -112.5t0.5 -110q0 -42 -15 -78t-42 -63.5 t-63 -43t-79 -15.5t-79.5 15.5t-63 43t-42 63.5t-15.5 78q-1 232 1 464q0 77 1 155q0 154 -2 308q0 33 -9.5 65.5t-9.5 66.5z" />
<glyph unicode="N" horiz-adv-x="1446" d="M127 1239q0 18 5.5 33.5t19.5 26.5t38.5 17t63.5 6q46 0 80 -1.5t62 -9.5t53.5 -24.5t55.5 -47.5l416 -501l-2 362q0 37 -9 72.5t-9 66.5q0 24 5.5 39.5t23.5 25.5t51 14t88 4q50 0 95.5 -6.5t80 -27.5t54.5 -60.5t20 -106.5v-918q0 -45 -14 -85.5t-39.5 -71.5 t-62.5 -48.5t-83 -17.5q-40 0 -78 15.5t-68 49.5l-431 520q0 -96 -1 -192.5t-1 -192.5q0 -43 -15 -80t-41 -63.5t-62 -41.5t-78 -15q-43 0 -79.5 15t-63 42.5t-42 64t-15.5 78.5v927q-2 33 -10 67t-8 65z" />
<glyph unicode="O" horiz-adv-x="1470" d="M63 651q0 138 53 260t144 214t213.5 144.5t261.5 52.5q92 0 177.5 -24t160.5 -68t136 -105t105 -136t68 -160.5t24 -177.5q0 -139 -53 -261.5t-144.5 -213.5t-213.5 -143.5t-260 -52.5q-139 0 -261.5 52.5t-213.5 143.5t-144 213.5t-53 261.5zM465 647q0 -54 21 -104 t58 -88.5t86 -61t105 -22.5q55 0 104.5 23t86.5 61.5t58.5 89t21.5 106.5q0 55 -21.5 105t-58.5 87.5t-86 60t-105 22.5t-105 -22.5t-86 -61t-58 -89.5t-21 -106z" />
<glyph unicode="P" horiz-adv-x="1262" d="M127 1253q0 18 5.5 34t19.5 26.5t38.5 16.5t63.5 6h426q104 0 200 -38t169 -105.5t116.5 -158t43.5 -194.5q0 -69 -20 -131.5t-55.5 -116.5t-85 -97.5t-108 -75t-124.5 -48.5t-136 -17h-135v-174q0 -42 -15.5 -78.5t-42.5 -64t-63.5 -42.5t-78.5 -15q-43 0 -79.5 15 t-63 42.5t-42 64t-15.5 78.5v941q-2 34 -10 68.5t-8 63.5zM537 693h143q29 0 54 10.5t43.5 28.5t29 42t10.5 53t-10.5 56.5t-29 49t-43.5 35t-54 13.5h-143v-288z" />
<glyph unicode="Q" horiz-adv-x="1470" d="M63 651q0 138 53 260t144 214t213.5 144.5t261.5 52.5q92 0 177.5 -24t160.5 -68t136 -105t105 -136t68 -160.5t24 -177.5q0 -114 -35.5 -216t-98 -186t-149.5 -145.5t-189 -93.5l-18 -155q-10 -91 -52.5 -142t-124.5 -51q-43 0 -74 14.5t-53 40t-35.5 61t-18.5 77.5 l-19 153q-103 32 -190.5 93.5t-150.5 145.5t-99 187t-36 217zM475 651q0 -56 19.5 -106.5t54.5 -89t82.5 -61.5t103.5 -23t104 23t82.5 61.5t54 89t19.5 106.5q0 55 -19.5 105t-54 87.5t-82 60t-104.5 22.5q-55 0 -102.5 -22.5t-82.5 -60t-55 -87.5t-20 -105z" />
<glyph unicode="R" horiz-adv-x="1256" d="M127 1253q0 18 5.5 34t19.5 26.5t38.5 16.5t63.5 6h426q104 0 200 -38t169 -105.5t116.5 -158t43.5 -194.5q0 -69 -20 -131.5t-55.5 -116.5t-85 -97.5t-108 -75t-124.5 -48.5t-136 -17h-135v-174q0 -42 -15.5 -78.5t-42.5 -64t-63.5 -42.5t-78.5 -15q-43 0 -79.5 15 t-63 42.5t-42 64t-15.5 78.5v941q-2 34 -10 68.5t-8 63.5zM537 693h143q29 0 54 10.5t43.5 28.5t29 42t10.5 53t-10.5 56.5t-29 49t-43.5 35t-54 13.5h-143v-288zM591 446l322 153l265 -300q28 -31 39 -67q8 -27 8 -55q0 -9 -1 -19q-4 -38 -22.5 -73t-51.5 -60 q-33 -26 -70 -37q-26 -8 -52 -8q-12 0 -22 2q-36 4 -69.5 22t-58.5 49z" />
<glyph unicode="S" horiz-adv-x="1084" d="M33 301q0 38 12.5 71.5t36 57t56 37t71.5 13.5q43 0 86 -22t94 -61q14 -11 33.5 -19t39.5 -13.5t37.5 -8t28.5 -2.5q27 0 50 8.5t23 31.5q0 18 -39.5 37.5t-99.5 45.5t-129 61.5t-129 88t-99 124t-39 169.5q0 90 32 163.5t94.5 127t153.5 82.5t208 29q40 0 88 -9.5 t96.5 -28t94.5 -45.5t81 -61.5t56 -76.5t21 -90q0 -44 -13.5 -75t-39.5 -50t-61.5 -27t-79.5 -8q-20 0 -40 1.5t-40.5 8t-43 19.5t-48.5 36q-33 29 -58.5 48.5t-46.5 19.5q-11 0 -24 -2t-23.5 -6.5t-17 -12t-6.5 -16.5q0 -20 25 -40t66 -42t93 -46.5t107 -55t107 -67.5 t93 -82.5t66 -100.5t25 -124q0 -72 -23 -130.5t-62 -104t-90 -79t-107.5 -55.5t-113 -32.5t-108.5 -10.5q-133 0 -227 31t-153.5 78.5t-86.5 105t-27 109.5z" />
<glyph unicode="T" horiz-adv-x="1248" d="M33 1121q0 43 15 79.5t42.5 63.5t63 42.5t77.5 15.5h785q41 0 77 -16t64 -43t44 -63.5t16 -78.5t-16 -78t-44 -63t-64 -42.5t-77 -15.5h-189l-5 -742q0 -42 -14.5 -78.5t-41 -64t-62 -42.5t-77.5 -15q-43 0 -79.5 15.5t-62.5 43t-40.5 63.5t-14.5 78l-4 742h-195 q-42 0 -77.5 15t-63 42t-42.5 63.5t-15 78.5z" />
<glyph unicode="U" horiz-adv-x="1307" d="M27 1239q0 18 5.5 33.5t19.5 26.5t38.5 17t63.5 6q56 0 107.5 -6.5t91 -28t64 -61t27.5 -105.5v-591q0 -37 15 -70.5t42.5 -59t66 -40.5t85.5 -15q40 0 77.5 15t66.5 40.5t47 59.5t18 70l-2 577q-2 33 -9.5 67t-7.5 65q0 18 5.5 33.5t19.5 26.5t38.5 17t62.5 6 q52 0 103.5 -6.5t93.5 -27.5t68.5 -60.5t26.5 -106.5l2 -590q-2 -80 -26 -154t-65.5 -139t-97.5 -118.5t-123 -92t-143 -60t-155 -21.5q-81 0 -157.5 21t-144 58.5t-124 91t-97.5 118.5t-63.5 140.5t-22.5 155.5l1 576q-2 33 -10 67t-8 65z" />
<glyph unicode="V" horiz-adv-x="1242" d="M48 1202q14 36 42 63.5t67 43.5q38 15 76 15h3q40 0 75 -15t63 -42.5t45 -66.5l336 -921l51 -23q15 -38 15 -76v-4q-1 -40 -16 -75.5t-43.5 -64t-66.5 -44.5q-39 -15 -78 -15t-74.5 15t-64 43t-45.5 67l-385 945q-16 39 -16 77q1 41 16 78zM420 178q0 39 15 78l51 23 l337 921q12 40 40 67.5t64.5 42t77.5 14.5t80 -15q38 -15 66.5 -43.5t42.5 -63.5q16 -36 16 -76v-2q0 -39 -16 -77l-386 -945q-16 -39 -44.5 -67t-63.5 -43q-35 -16 -75 -16h-2q-39 0 -77 16q-39 16 -66.5 44.5t-43.5 63.5q-16 36 -16 78z" />
<glyph unicode="W" horiz-adv-x="1811" d="M48 1202q14 36 42 63.5t67 43.5q39 15 80 15t76.5 -14.5t64 -42t41.5 -67.5l315 -921l72 -23q15 -38 15 -76v-4q-1 -40 -16 -75.5t-43.5 -64t-66.5 -44.5q-39 -15 -78 -15t-74.5 15t-64 43t-45.5 67l-385 945q-16 39 -16 77q1 41 16 78zM420 178q0 39 15 78l74 23 l231 651q11 34 35.5 58t55.5 36t66 12q1 0 3 1q34 0 66 -13q33 -13 51 -38q19 -24 25 -55q4 -17 3 -35q-1 -14 -3 -30q-6 -34 -18 -68l-216 -696q-16 -39 -44.5 -67t-63.5 -43q-35 -16 -75 -16h-2q-39 0 -77 16q-39 16 -66.5 44.5t-43.5 63.5q-16 36 -16 78zM758 867 q-2 15 -2 30q0 18 3 35q6 31 24.5 55.5t51.5 38.5q33 13 66 13q1 -1 3 -1q34 0 64.5 -12.5t55 -36t36.5 -57.5l243 -653l72 -23q16 -39 16 -78q-1 -42 -17 -78q-16 -35 -43.5 -63.5t-65.5 -44.5q-39 -15 -78.5 -15t-75 15t-64 43t-45.5 67l-225 698q-14 33 -19 67zM989 180 q0 38 16 76l72 23l316 921q17 52 60 84t95 39q12 1 25 1q41 0 82 -15q38 -15 66 -43.5t43 -63.5q16 -36 16 -76v-3q0 -39 -17 -76l-386 -945q-16 -39 -44 -67t-63 -43q-36 -16 -76 -16h-2q-39 0 -77 16q-39 16 -67 44q-26 29 -42 64q-16 37 -17 80z" />
<glyph unicode="X" horiz-adv-x="1394" d="M46 180q0 38 15 75t44 68l463 479q19 20 33 24.5t25 -1.5t19.5 -21.5t19 -35t23 -42.5t32.5 -42q30 -30 44 -64q12 -30 12 -61v-9q-2 -36 -19 -71t-47 -65l-322 -375q-27 -32 -63 -47t-75 -15t-77 16t-68 46t-44.5 66.5t-14.5 74.5zM51 1118.5q0 38.5 14.5 75.5t44.5 67 q30 31 67.5 46t76.5 15q1 0 2 1q38 1 74 -15t63 -47l325 -370q31 -31 47 -67q17 -38 17 -77q0 -33 -13 -67q-14 -36 -45 -66q-29 -30 -43 -61t-26.5 -50.5t-28 -20.5t-45.5 30l-471 465q-30 29 -44.5 66t-14.5 75.5zM594 548v12q0 32 12 60q14 34 44 64q28 30 44 62 t29.5 53.5t30.5 24t47 -27.5l464 -473q29 -30 43.5 -67t14.5 -75.5t-14.5 -75t-43.5 -66.5q-30 -30 -68 -46t-77 -16t-75 15t-63 47l-319 372q-31 31 -49 66t-20 71zM612 828q16 36 45 67l329 366q29 31 65 45.5t74.5 14.5t76 -15.5t67.5 -44.5q29 -30 44 -67t15 -75.5 t-15 -75t-44 -66.5l-472 -465q-31 -31 -46.5 -30t-27 20.5t-26 51t-43.5 60.5q-31 30 -45 66q-14 35 -14 71q1 40 17 77z" />
<glyph unicode="Y" horiz-adv-x="1292" d="M19 1122q0 36 15 71q14 36 44 67q30 30 67.5 45.5t76.5 16.5h5q37 0 71 -14q37 -16 62 -48l312 -394q31 -31 47 -66t18 -72v-9q0 -32 -11 -61q-13 -35 -44 -65q-29 -30 -46.5 -64.5t-32 -58.5t-32.5 -28.5t-49 26.5l-444 508q-28 32 -43 68q-16 38 -16 78zM445 179v493 q0 41 15.5 77.5t42 63.5t63.5 42.5t79 15.5t78.5 -15.5t63.5 -42.5t43 -63.5t16 -77.5v-493q0 -42 -16 -79t-43 -64t-63.5 -42.5t-78.5 -15.5t-79 15.5t-63.5 42.5t-42 64t-15.5 79zM556 728q2 37 19 72.5t48 65.5l310 394q26 33 62 48q34 14 71 14h4q40 -1 78.5 -17 t68.5 -45q29 -30 43 -66.5t14 -74.5t-15 -74.5t-42 -68.5l-448 -506q-20 -20 -34.5 -24.5t-26 2.5t-20.5 23t-20 36.5t-24 42.5t-32 43q-31 30 -44 65q-12 30 -12 61v9z" />
<glyph unicode="Z" horiz-adv-x="1261" d="M66 202q8 65 49 126q115 148 231.5 296t231.5 298h-293q-42 0 -78.5 15t-63.5 42t-43 63.5t-16 78.5q0 43 16 79.5t43 63.5t63.5 42.5t78.5 15.5h680q41 0 77 -16t64 -43t43.5 -63.5t15.5 -78.5q0 -39 -14.5 -77t-40.5 -71l-465 -597h353q99 0 154 -53t55 -143 q0 -42 -15.5 -78t-43.5 -63.5t-64 -43t-77 -15.5h-743q-53 0 -99 28.5t-73 73.5q-28 44 -28 95q0 12 2 25z" />
<glyph unicode="[" horiz-adv-x="787" d="M106 -162v1300q0 38 16 70.5t44 56.5t64 37.5t77 13.5h258q41 0 77.5 -14t64 -38.5t43.5 -59.5t16 -78q0 -42 -16 -79.5t-43 -67t-64 -47t-78 -17.5h-57v-868h57q41 0 78 -17.5t64 -46.5t43 -67.5t16 -79.5q0 -42 -16 -76.5t-43 -60t-64 -39.5t-78 -14h-258 q-42 0 -78 14.5t-63.5 41t-43.5 61t-16 75.5z" />
<glyph unicode="\" horiz-adv-x="1230" d="M55 1140q10 65 55 110q31 32 68 47.5t75 16t72.5 -11.5t58.5 -34q14 -14 27 -28.5t21 -32.5q42 -76 90.5 -166.5t101 -188t106 -200t105.5 -201t99.5 -189t87.5 -166.5t70.5 -132.5t48.5 -87.5q35 -60 25 -123.5t-56 -108.5q-34 -33 -80 -48t-91.5 -11t-85 27.5 t-61.5 69.5q-178 348 -360.5 688t-348.5 659q-15 30 -24 55.5t-4 55.5z" />
<glyph unicode="]" horiz-adv-x="788" d="M2 -164q0 42 16 80.5t43 67.5t63.5 46t78.5 17h57v868h-57q-42 0 -78.5 17.5t-63.5 47t-43 67t-16 79.5q0 43 16 78t43 59.5t63.5 38.5t78.5 14h258q40 0 76 -13.5t63.5 -37t43.5 -56t16 -71.5v-1300q-2 -41 -17.5 -75.5t-42 -61t-62 -41t-77.5 -14.5h-258 q-39 0 -75.5 14t-64 39.5t-44.5 60t-17 76.5z" />
<glyph unicode="^" horiz-adv-x="1161" d="M127 864q0 39 14.5 72.5t40.5 59.5l268 270q26 26 60.5 39.5t71.5 13.5t71.5 -14t60.5 -39l264 -270q55 -55 55 -132q0 -45 -20.5 -84t-56.5 -65q-46 -35 -108 -35q-37 0 -72 13.5t-60 39.5l-136 174l-133 -174q-26 -27 -60.5 -40t-71.5 -13q-15 0 -30 1.5t-29 6.5 q-28 9 -51.5 26.5t-41 40.5t-27 51t-9.5 58z" />
<glyph unicode="_" horiz-adv-x="1255" d="M127 160q0 42 16 78.5t43 64t63.5 42.5t78.5 15h599q41 0 77 -15.5t64 -43t43.5 -64t15.5 -77.5q0 -42 -15.5 -78.5t-43.5 -63.5t-64 -43t-77 -16h-599q-42 0 -78.5 15.5t-63.5 42.5t-43 64t-16 79z" />
<glyph unicode="`" horiz-adv-x="485" d="M67.5 1340.5q8.5 32.5 29 58.5t50.5 42t63 16q40 0 84.5 -23.5t82.5 -58t62.5 -72t24.5 -66.5q0 -12 -1 -24t-6 -23q-14 -38 -51 -61q-34 -22 -73 -21q-37 0 -80 16t-81.5 40t-67.5 53t-36 57q-9 34 -0.5 66.5z" />
<glyph unicode="a" horiz-adv-x="1225" d="M67 496q0 105 40.5 199.5t111 164t164 110.5t200.5 41q106 0 184 -41t129 -110.5t75.5 -164t24.5 -199.5q0 -106 -24.5 -200.5t-75.5 -165t-129 -110.5t-184 -40t-200 40t-164.5 110.5t-111 164.5t-40.5 201zM468 496q0 -25 8.5 -48t24 -40t36.5 -27t46 -10t45.5 10 t36 27t24 40t8.5 48t-8.5 46.5t-24 38.5t-36.5 27t-45 10q-25 0 -46 -10t-36.5 -27t-24 -39t-8.5 -46zM697 271v225q0 42 16 78t43 63.5t63.5 42.5t78.5 15t79 -15t64 -42.5t42.5 -63.5t15.5 -78v-406q0 -54 -28 -82t-83 -28t-91.5 31.5t-59.5 82.5l-88 187zM697 498v223 l52 -8l88 185q25 52 60.5 83.5t90.5 31.5q111 0 111 -111v-404q0 -42 -15.5 -79t-42.5 -64t-64 -42.5t-79 -15.5t-78.5 15.5t-63.5 42.5t-43 64t-16 79z" />
<glyph unicode="b" horiz-adv-x="1222" d="M127 90v1049q0 42 15.5 78.5t42.5 64t64 42.5t79 15q41 0 77.5 -15t64 -42.5t43 -64t15.5 -78.5v-543l-51 -315l-88 -187q-24 -51 -59.5 -82.5t-90.5 -31.5q-56 0 -84 28t-28 82zM233 496q0 105 37.5 199.5t100.5 164t144.5 110.5t170.5 41q106 0 193.5 -41t150 -110.5 t96 -164t33.5 -199.5q0 -106 -33.5 -200.5t-96 -165t-149.5 -110.5t-194 -40q-106 0 -190 40t-142.5 110.5t-89.5 165t-31 200.5zM528 496q0 -25 9 -48t24.5 -40t36 -27t45.5 -10t46.5 10t36.5 27t24 40t9 48t-9 46.5t-24 38.5t-36.5 27t-46.5 10t-45.5 -10t-36 -27 t-24.5 -38.5t-9 -46.5z" />
<glyph unicode="c" horiz-adv-x="1095" d="M63 496q0 105 40.5 199.5t111 164t163.5 110.5t200 41q59 0 115.5 -12.5t107 -34t92.5 -50.5t72 -63q31 -33 48.5 -69.5t17.5 -72.5q0 -37 -12.5 -70.5t-37 -58t-58 -39.5t-75.5 -15q-25 0 -46.5 7t-41.5 17.5t-39.5 22.5t-40.5 23q-34 14 -72 18q-9 1 -18 0 q-27 0 -51 -8q-32 -10 -53 -36.5t-21 -73.5q0 -46 19.5 -74t50.5 -39q23 -8 49 -8q10 0 20 1q38 4 76 19q23 9 42 22t39 23q41 20 91 23h10q44 0 84 -21q40 -24 62.5 -64t22.5 -95q0 -60 -32 -115t-91 -96.5t-143 -66.5t-187 -25q-106 0 -199.5 40t-164 110.5t-111 164.5 t-40.5 201z" />
<glyph unicode="d" horiz-adv-x="1222" d="M63 496q0 105 34.5 199.5t96.5 164t149 110.5t194 41q48 0 98.5 -18.5t98 -52.5t90.5 -81t75 -104.5t50.5 -122.5t18.5 -136q0 -106 -28 -200.5t-82 -165t-134.5 -110.5t-186.5 -40t-193.5 40t-149.5 110.5t-96.5 164.5t-34.5 201zM465 496q0 -25 8.5 -48t24 -40 t36.5 -27t46 -10t45.5 10t36 27t24 40t8.5 48t-8.5 46.5t-24 38.5t-36.5 27t-45 10q-25 0 -46 -10t-36.5 -27t-24 -39t-8.5 -46zM694 271v868q0 42 16 78.5t43 64t63.5 42.5t78.5 15t79 -15t64 -42.5t42.5 -64t15.5 -78.5v-1049q0 -54 -28 -82t-84 -28q-55 0 -91 31.5 t-59 82.5l-89 187z" />
<glyph unicode="e" d="M63 496q0 105 41 199.5t111.5 164t164 110.5t200.5 41q106 0 199.5 -36.5t164 -101t111.5 -154t41 -196.5q0 -40 -13 -65.5t-35.5 -40t-53.5 -20t-69 -5.5h-452q2 -14 12 -29.5t24.5 -29.5t33 -22.5t39.5 -8.5q24 0 42 6.5t39 16.5q23 10 51.5 14t59.5 0t60 -15t52 -30.5 t37 -47.5q15 -30 15 -66q0 -57 -33 -95q-34 -39 -86.5 -62.5t-116 -33t-122.5 -9.5q-106 0 -200 40t-164.5 110.5t-111.5 164.5t-41 201zM467 616h225q-2 17 -14 32t-29 24.5t-35.5 15t-33.5 5.5q-17 0 -36 -5.5t-34.5 -15t-27 -24t-15.5 -32.5z" />
<glyph unicode="f" horiz-adv-x="944" d="M48 746q0 38 14 71t38 57t56 38t70 14h469q37 0 70 -14t57 -38t38 -57t14 -71q0 -37 -14 -69t-38 -56.5t-57 -39t-70 -14.5h-469q-38 0 -70 14.5t-56 39t-38 57t-14 68.5zM232 180v701q0 117 35 212t97 162.5t147.5 104.5t187.5 37q42 0 78.5 -15.5t63.5 -42.5t43 -64 t16 -79q0 -56 -26.5 -101t-71.5 -71q-18 -10 -37.5 -14t-38 -8t-35.5 -9t-29.5 -17.5t-20 -35t-7.5 -59.5v-701q0 -41 -16 -77t-43 -64t-64 -43.5t-78 -15.5q-42 0 -78.5 15.5t-63.5 43.5t-43 64t-16 77z" />
<glyph unicode="g" horiz-adv-x="1225" d="M67 496q0 105 34 199.5t96 164t149 110.5t194 41q77 0 155.5 -24.5t145.5 -73.5q7 18 21.5 36.5t33.5 31.5t41 21.5t44 8.5q30 0 52 -10.5t36.5 -29t22 -43.5t7.5 -54v-778q0 -145 -43.5 -245t-112.5 -162t-152.5 -89.5t-164.5 -27.5q-170 0 -247.5 53.5t-77.5 161.5 q0 33 12.5 60.5t34 47.5t50 31.5t60.5 11.5q18 0 35 -3.5t35.5 -7t41 -6.5t54.5 -3q20 0 39.5 12.5t34.5 32t22 43t4 45.5q-8 -13 -25.5 -26t-42 -23t-55 -16t-61.5 -6q-106 0 -193.5 40t-149.5 110.5t-96 164.5t-34 201zM468 496q0 -25 8 -48t23.5 -40t36 -27t45.5 -10 t46 10t36.5 27t24.5 40t9 48t-9 46.5t-24.5 38.5t-37 27t-45.5 10q-25 0 -45.5 -10t-36 -27t-23.5 -38.5t-8 -46.5z" />
<glyph unicode="h" horiz-adv-x="1244" d="M106 180v957q0 41 15.5 77.5t42.5 63.5t64 42.5t79 15.5q41 0 78 -15.5t64 -42.5t43 -63.5t16 -77.5v-957q0 -42 -16 -78.5t-43 -64t-64 -42.5t-78 -15q-42 0 -79 15t-64 42.5t-42.5 64t-15.5 78.5zM490 908q7 23 29 43t50 34t59.5 23t60.5 9q106 0 190.5 -41t142 -110.5 t88.5 -164t31 -199.5v-289l-401 72v217q0 25 -8 46.5t-23.5 38.5t-36.5 27.5t-45 10.5q-25 0 -46.5 -11t-38 -29.5t-25.5 -41.5t-9 -47zM740 209v117l401 -18v-128q0 -40 -16 -76t-43 -64t-63.5 -44t-78.5 -16q-49 0 -86.5 18.5t-62.5 50.5t-38 73.5t-13 86.5z" />
<glyph unicode="i" horiz-adv-x="613" d="M101 1294q0 41 15.5 77t42.5 62.5t64 41.5t79 15q41 0 78 -15t64 -41.5t43 -62.5t16 -77q0 -42 -16 -78t-43 -62.5t-64 -41t-78 -14.5q-42 0 -79 14.5t-64 41t-42.5 62.5t-15.5 78zM106 180v633q0 41 15.5 78t42 63.5t63.5 42.5t79 16q41 0 78 -16t64 -42.5t43 -63.5 t16 -78v-633q0 -42 -16 -78.5t-43 -64t-64 -42.5t-78 -15q-42 0 -79 15t-63.5 42.5t-42 64t-15.5 78.5z" />
<glyph unicode="j" horiz-adv-x="614" d="M-160 -200q0 55 26 101t73 71q28 15 57.5 19t54 12.5t40 32t15.5 80.5v695q0 41 16 77.5t43.5 63.5t63.5 43t78 16q41 0 78 -16t64 -43t43 -63.5t16 -77.5v-695q0 -117 -34.5 -212t-96 -163t-147.5 -104.5t-189 -36.5q-42 0 -78.5 15t-63.5 42t-43 63.5t-16 79.5z M106 1292q0 41 15.5 77t42.5 62.5t64 41.5t79 15q41 0 78 -15t64 -41.5t43 -62.5t16 -77q0 -42 -16 -78t-43 -62.5t-64 -41t-78 -14.5q-42 0 -79 14.5t-64 41t-42.5 62.5t-15.5 78z" />
<glyph unicode="k" horiz-adv-x="1176" d="M106 180v957q0 41 15.5 77.5t42.5 63.5t64 42.5t79 15.5q41 0 78 -15.5t64 -42.5t43 -63.5t16 -77.5v-957q0 -42 -16 -78.5t-43 -64t-64 -42.5t-78 -15q-42 0 -79 15t-64 42.5t-42.5 64t-15.5 78.5zM508 276v480l292 213q44 31 99 39q24 3 46.5 -1.5t45.5 -13.5 q35 -14 63.5 -40t45.5 -62q8 -17 12.5 -37t4.5 -41q0 -47 -22 -88t-59 -68l-126 -92l177 -262q28 -31 39 -66q9 -29 9 -58q-1 -7 -1 -13q-2 -36 -17 -69.5t-40.5 -59t-60 -40.5t-74.5 -15q-43 0 -84 20.5t-72 58.5l-184 281q-30 -22 -46.5 -34t-26.5 -18t-14 -8.5t-7 -5.5z " />
<glyph unicode="l" horiz-adv-x="614" d="M106 180v957q0 41 15.5 77.5t42.5 63.5t64 42.5t79 15.5q41 0 78 -15.5t64 -42.5t43 -63.5t16 -77.5v-957q0 -42 -16 -78.5t-43 -64t-64 -42.5t-78 -15q-42 0 -79 15t-64 42.5t-42.5 64t-15.5 78.5z" />
<glyph unicode="m" horiz-adv-x="1704" d="M106 180v720q0 111 112 111q55 0 91 -32t60 -83l88 -185l51 8v-539q0 -42 -16 -78.5t-43 -64t-64 -42.5t-78 -15q-42 0 -79 15t-64 42.5t-42.5 64t-15.5 78.5zM313 889q17 18 51 39.5t76.5 39.5t90 30.5t92.5 12.5q106 0 186.5 -37.5t134.5 -103.5t82 -156.5t28 -197.5 v-338q0 -41 -16 -76.5t-43 -63t-63 -43t-77 -15.5q-42 0 -78.5 15.5t-64 43t-43.5 63t-16 76.5v332q0 51 -20.5 77.5t-49.5 26.5q-30 0 -52.5 -26.5t-22.5 -77.5zM860 889q17 18 50.5 39.5t76 39.5t89.5 30.5t92 12.5q106 0 187 -41t135 -110.5t81 -164t27 -199.5v-318 q0 -41 -15.5 -76.5t-42.5 -63t-62.5 -43t-76.5 -15.5q-42 0 -79 15.5t-64.5 43t-43.5 63t-16 76.5v332q0 51 -20 77.5t-50 26.5q-31 0 -52.5 -26.5t-21.5 -77.5z" />
<glyph unicode="n" horiz-adv-x="1247" d="M106 180v720q0 111 112 111q55 0 89.5 -28.5t61.5 -86.5l88 -185l51 8v-539q0 -42 -16 -78.5t-43 -64t-64 -42.5t-78 -15q-42 0 -79 15t-64 42.5t-42.5 64t-15.5 78.5zM334 889q56 46 109.5 70.5t99.5 36t84 13.5t62 2q106 0 190.5 -41t142 -110.5t88.5 -164t31 -199.5 v-318q0 -41 -16 -76.5t-42.5 -63t-63 -43t-77.5 -15.5q-42 0 -78.5 15.5t-64 43t-43.5 63t-16 76.5v318q0 25 -8 46.5t-23.5 38.5t-36.5 27t-45 10q-25 0 -46.5 -10t-38 -27t-25.5 -39t-9 -46z" />
<glyph unicode="o" d="M63 496q0 105 41 199.5t111.5 164t164 110.5t200.5 41q106 0 199.5 -41t164 -110.5t111.5 -164t41 -199.5q0 -106 -41 -200.5t-111.5 -165t-164 -110.5t-199.5 -40t-200 40t-164.5 110.5t-111.5 165t-41 200.5zM465 496q0 -25 8.5 -48t24 -40t36.5 -27t46 -10t45.5 10 t36 27t24 40t8.5 48t-8.5 46.5t-24 38.5t-36.5 27t-45 10q-25 0 -46 -10t-36.5 -27t-24 -38.5t-8.5 -46.5z" />
<glyph unicode="p" horiz-adv-x="1202" d="M106 -147v1047q0 111 112 111q55 0 91 -32t60 -83l88 -185l51 8v-866q0 -43 -16 -80t-43 -63.5t-64 -42t-78 -15.5q-42 0 -79 15.5t-64 42t-42.5 63.5t-15.5 80zM218 496q0 105 30.5 199.5t87.5 164t140 110.5t190 41q106 0 193 -41t149.5 -110.5t96.5 -164t34 -199.5 q0 -106 -34 -200.5t-96.5 -165t-149.5 -110.5t-193 -40q-82 0 -162 40t-143.5 110.5t-103 165t-39.5 200.5zM508 496q0 -25 8.5 -48t24 -40t36.5 -27t46 -10t46 10t36.5 27t24 40t8.5 48t-8.5 46.5t-24 38.5t-37 27t-45.5 10q-25 0 -46 -10t-36.5 -27t-24 -38.5t-8.5 -46.5z " />
<glyph unicode="q" horiz-adv-x="1202" d="M63 496q0 105 34.5 199.5t96.5 164t149 110.5t194 41q106 0 186.5 -41t134.5 -110.5t82 -164t28 -199.5q0 -106 -35.5 -200.5t-95 -165t-137 -110.5t-163.5 -40q-106 0 -193.5 40t-149.5 110.5t-96.5 164.5t-34.5 201zM465 496q0 -25 8.5 -48t24 -40t36.5 -27t46 -10 t45.5 10t36 27t24 40t8.5 48t-8.5 46.5t-24 38.5t-36.5 27t-45 10q-25 0 -46 -10t-36.5 -27t-24 -39t-8.5 -46zM694 -147v866l51 -8l89 185q24 51 59.5 83t90.5 32q112 0 112 -111v-1047q0 -43 -15.5 -80t-42.5 -63.5t-64 -42t-79 -15.5t-78.5 15.5t-63.5 42t-43 63.5 t-16 80z" />
<glyph unicode="r" horiz-adv-x="953" d="M106 180v720q0 111 112 111q55 0 89.5 -28.5t61.5 -86.5l88 -185l51 8v-539q0 -42 -16 -78.5t-43 -64t-64 -42.5t-78 -15q-42 0 -79 15t-64 42.5t-42.5 64t-15.5 78.5zM348 904q59 50 129 78.5t146 28.5q48 0 98.5 -11.5t92 -36.5t68 -66t26.5 -99q0 -39 -15.5 -74 t-41.5 -60q-26 -27 -59.5 -41.5t-72.5 -14.5q-20 0 -41.5 3t-42.5 6t-42 3t-41 -7q-14 -6 -23 -17t-13.5 -26.5t-6 -34.5t-1.5 -39z" />
<glyph unicode="s" horiz-adv-x="1056" d="M63 271q0 34 13 64.5t35 53.5t52 36t64 13q38 0 74 -13.5t68 -33t62.5 -40.5t57.5 -36q10 -5 27.5 -11.5t34 -9t29 3t12.5 25.5q0 13 -23.5 25.5t-61 27t-85 31.5t-94.5 39t-90 51t-72.5 67.5t-39.5 87.5q-4 19 -5 39q0 34 11 73q12 44 40.5 89.5t76 83t116.5 61 t163 22.5q86 0 164.5 -15.5t138 -47t95 -77.5t35.5 -106q0 -44 -17 -75t-42.5 -51t-56 -29.5t-57.5 -9.5q-25 0 -48.5 9t-45.5 21t-41 26t-35 25q-14 10 -29.5 15t-29 3.5t-22.5 -9.5t-9 -21q0 -6 12 -13.5t31 -15.5t43.5 -16.5t50.5 -18.5q26 -9 60.5 -21t71 -29.5 t71.5 -42.5t63 -59.5t45 -80t17 -105.5q0 -79 -40 -135t-105.5 -92t-150 -52.5t-173.5 -16.5q-46 0 -97.5 9t-103 26t-98.5 42.5t-83 57.5t-57.5 71.5t-21.5 84.5z" />
<glyph unicode="t" horiz-adv-x="894" d="M33 817q0 41 14.5 77t41 62.5t61.5 41.5t77 15h441q41 0 76 -15t62 -41.5t42 -62.5t15 -77q0 -40 -15 -75t-42 -62t-62 -42t-76 -15h-441q-42 0 -77 15t-61.5 42t-41 62t-14.5 75zM246 180v957q0 41 15 77.5t42 63.5t63 42.5t79 15.5q41 0 78 -15.5t63.5 -42.5 t42.5 -63.5t16 -77.5v-957q0 -42 -16 -78.5t-42.5 -64t-63.5 -42.5t-78 -15q-43 0 -79 15t-63 42.5t-42 64t-15 78.5z" />
<glyph unicode="u" horiz-adv-x="1246" d="M106 496v317q0 41 16 77t43.5 62.5t63 42.5t76.5 16t78 -16t64.5 -42.5t44 -62.5t16.5 -77v-317q0 -25 8 -48t23.5 -40t36 -27t45.5 -10t46.5 10t38 27t25.5 40t9 48l175 -396q-57 -45 -110 -69.5t-100 -35.5t-84 -13t-62 -2q-106 0 -190 40t-142.5 110.5t-89.5 164.5 t-31 201zM740 271v540q0 42 16 78.5t42.5 63.5t63 42.5t78.5 15.5q43 0 79.5 -15.5t63.5 -42.5t42.5 -63.5t15.5 -78.5v-721q0 -54 -27.5 -82t-83.5 -28q-54 0 -89.5 28.5t-61.5 85.5l-87 187z" />
<glyph unicode="v" horiz-adv-x="1118" d="M34 801q0 7 -1 14q-1 33 9 63q12 36 37 66.5t62 48.5q38 19 78 22q8 1 16 1q31 0 61 -10q36 -12 66 -37t50 -63l146 -365l147 361q15 38 45 64q28 26 66 38q31 10 65 11q7 -1 14 -1q41 -2 79 -21q38 -16 64 -45.5t39 -65.5q11 -31 11 -64v-13q-2 -40 -21 -78l-322 -635 q-31 -61 -87 -90q-45 -23 -95 -23q-12 0 -24 1q-49 3 -92.5 32t-69.5 78l-322 633q-19 38 -21 78z" />
<glyph unicode="w" horiz-adv-x="1713" d="M34 827q3 54 30 98t78 68q38 17 78 21q9 1 18 1q30 -1 58 -9q36 -12 66.5 -37t50.5 -63l127 -347l133 343q15 43 52.5 70t82.5 39q24 6 47 6q11 1 21 -1q34 -4 64.5 -18t56 -37t41.5 -55l122 -347l138 343q15 38 44.5 64t66.5 38q32 10 66 10h12q41 -2 80 -21 q49 -24 79 -66.5t34 -95.5q2 -26 -2.5 -52t-16.5 -52l-322 -635q-20 -42 -53 -68.5t-73 -37.5q-28 -8 -59 -8h-10q-36 2 -71 15t-62.5 37t-39.5 60l-118 326l-127 -324q-12 -31 -34.5 -54t-51 -37t-59.5 -20t-62 -1q-51 5 -94 31.5t-68 78.5l-301 633q-23 47 -23 91 q0 6 1 13z" />
<glyph unicode="x" horiz-adv-x="1097" d="M48 892q15 34 40 57q27 25 61.5 43t74.5 20h8q36 0 72 -16q42 -18 82 -63q14 -17 30 -35q13 -15 28.5 -32.5t29.5 -32.5l73 -82l184 204q14 15 42.5 32t65.5 22q12 2 24 2q27 0 55 -8q42 -11 83 -50q26 -25 43 -58q18 -33 20 -71v-11q0 -32 -12 -65q-14 -39 -46 -74 q-20 -18 -41 -37q-17 -15 -37.5 -32.5t-35.5 -31.5l-87 -77l94 -85q15 -14 33 -30.5t35 -31.5q18 -17 38 -33q33 -31 46.5 -62t15 -60.5t-6 -55t-17.5 -46t-19.5 -33.5t-12.5 -16q-17 -19 -48 -37t-69 -24q-14 -2 -28 -3q-24 -1 -52 7q-42 12 -86 52q-20 23 -40 44 q-17 18 -35 38t-30 35l-76 83l-79 -90q-14 -16 -30 -33.5t-28 -31.5q-15 -17 -29 -34q-23 -25 -55.5 -44t-71.5 -25q-12 -2 -25 -1q-27 0 -57 8q-42 12 -82 50q-22 20 -38 54.5t-18 74.5q0 6 -1 12q1 34 13 70q14 42 55 76l11 10q10 9 25.5 23.5t33.5 30t34 30.5l87 78 l-107 94q-15 13 -31 27.5t-28 25.5q-15 13 -29 26q-37 35 -51 73q-14 37 -14 74q0 40 16 76z" />
<glyph unicode="y" horiz-adv-x="1147" d="M56 812v9q0 35 12 67q12 36 37.5 64.5t62.5 45.5q38 17 80 20q9 1 17 1q33 0 63 -9q37 -12 66.5 -38t42.5 -65l147 -433q35 98 59 172t40.5 126.5t27.5 86.5t19 52q17 38 47 63.5t67 37.5q30 10 61 10q8 0 17 -1q40 -3 78 -23q18 -9 44.5 -31t44.5 -56t21 -81v-9 q0 -44 -25 -96l-405 -853q-23 -47 -62.5 -81.5t-89 -57t-104 -33.5t-107.5 -11q-52 0 -92.5 14.5t-69 41t-43.5 62.5t-15 80q0 59 25.5 91t62.5 46t77 15.5t68 1.5l48 93q-1 1 -14.5 27.5t-35 69t-49 96.5t-55.5 109q-67 131 -149 296q-17 40 -19 80z" />
<glyph unicode="z" horiz-adv-x="1156" d="M50 218q2 35 14.5 66.5t37.5 53.5l354 294h-153q-42 0 -80 10.5t-67 32t-46.5 53.5t-17.5 74t16 76.5t43 60t63.5 39t78.5 13.5h524q41 0 77.5 -16t64 -42.5t43.5 -63t16 -77.5q0 -39 -20 -80.5t-58 -78.5l-286 -279h196q99 0 159 -43t60 -132q0 -42 -16 -76t-43 -60 t-63.5 -39.5t-77.5 -13.5h-617q-55 0 -100.5 28.5t-71.5 73.5q-16 25 -24 58q-7 27 -6 55v13z" />
<glyph unicode="{" horiz-adv-x="871" d="M55 502q0 27 10.5 43.5t25 28.5t32.5 21t33 22.5t25 32.5t10 50v92l402 -314v-384v-5q2 -19 22 -19h2q41 0 77.5 -18t63.5 -48.5t42.5 -68.5t15.5 -78q0 -45 -16.5 -80.5t-45 -60t-66.5 -37.5t-81 -13q-3 0 -6.5 0.5t-6.5 0.5q-85 5 -158.5 40.5t-127.5 93t-85.5 132 t-31.5 159.5v215q0 24 -10 39t-25 27.5t-33 23.5t-32.5 24.5t-25 32.5t-10.5 48zM191 743v162q0 84 31.5 159.5t85.5 132.5t127.5 92.5t158.5 40.5q3 0 6.5 0.5t6.5 0.5q43 0 81 -13t66.5 -38t45 -60t16.5 -79q0 -40 -15.5 -78.5t-42.5 -68.5t-63.5 -48t-77.5 -18h-2 q-23 0 -22 -20v-457z" />
<glyph unicode="|" horiz-adv-x="613" d="M106 -105v1249q0 41 15.5 77.5t42 64t63 43.5t78.5 16t78.5 -16t63.5 -43.5t43 -64t16 -77.5v-1249q0 -42 -16 -78.5t-43 -63t-63.5 -42t-78.5 -15.5t-78.5 15.5t-63 42t-42 63t-15.5 78.5z" />
<glyph unicode="}" horiz-adv-x="871" d="M55 -143q0 40 15.5 78t42.5 68.5t63 48.5t78 18h2q20 0 23 19v5v384l401 314v-92q0 -32 10 -50.5t25 -32t33 -22.5t33 -21t25 -29t10 -43q0 -29 -10 -48t-25 -32.5t-33 -24.5t-33 -23.5t-25 -27.5t-10 -39v-215q0 -85 -31.5 -159.5t-85.5 -132t-128 -93t-157 -40.5 q-3 0 -7 -0.5t-7 -0.5q-43 0 -81 13t-66.5 37.5t-45 60t-16.5 80.5zM55 1141q0 44 16.5 79t45 60t66.5 38t81 13q3 0 6.5 -0.5t7.5 -0.5q84 -5 157.5 -40.5t127.5 -92.5t85.5 -132.5t31.5 -159.5v-162l-401 -292v457q0 19 -23 20h-2q-42 0 -78 18t-63 48t-42.5 68.5 t-15.5 78.5z" />
<glyph unicode="~" horiz-adv-x="1421" d="M76 463q0 88 35.5 158t96.5 119.5t140.5 76t167.5 26.5q50 0 107 -17.5t109.5 -50t95.5 -80t67 -106.5q5 -13 15 -22.5t28 -9.5q19 0 32.5 11.5t16.5 35.5q5 38 23 72.5t45.5 60t62.5 40.5t75 15q52 0 90 -25t57 -67q19 -45 20 -96q0 -86 -35 -156t-94.5 -119.5 t-136.5 -76.5t-163 -27q-58 0 -116 16t-110 47t-94.5 78t-69.5 107q-8 18 -19 27.5t-28 9.5q-18 0 -28.5 -13.5t-15.5 -33.5q-9 -38 -28.5 -71.5t-46 -58.5t-60 -39.5t-73.5 -14.5q-39 0 -70 14t-52.5 38.5t-32.5 58.5t-11 73z" />
<glyph unicode="&#xa1;" horiz-adv-x="522" d="M68 -160q0 -41 15.5 -77.5t42.5 -63.5t64 -43t79 -16t79 16t64 43t42.5 64t15.5 77v755q0 41 -16 77.5t-43 64t-64 43.5t-78 16q-42 0 -78 -16t-63.5 -43.5t-43.5 -64t-16 -77.5v-755zM68 1078q0 -42 15.5 -78t42.5 -62t64 -41t79 -15q41 0 78 15t64 41t43 62t16 78 t-16 78t-43 62t-64 41.5t-78 15.5q-42 0 -79 -15.5t-64 -41.5t-42.5 -62t-15.5 -78z" />
<glyph unicode="&#xa2;" horiz-adv-x="1095" d="M23 496q0 105 40 199.5t110.5 164t163.5 110.5t200 41q59 0 115.5 -12.5t107 -34t92.5 -50.5t72 -63q31 -33 48.5 -69.5t17.5 -72.5q0 -37 -12.5 -70.5t-37 -58t-58 -39.5t-75.5 -15q-25 0 -46.5 7t-41.5 17.5t-39.5 22.5t-40.5 23q-34 14 -71.5 17.5t-69.5 -7t-53 -37 t-21 -73.5q0 -46 19.5 -74t50.5 -39t69.5 -7t75.5 19q23 9 42 22t39 23q41 20 90.5 23t94.5 -21q40 -24 62.5 -64t22.5 -95q0 -60 -32 -115t-91 -96.5t-143 -66.5t-187 -25q-106 0 -199.5 40t-164 110.5t-110.5 164.5t-40 201zM367 -126v254h358v-254q0 -38 -14.5 -70 t-39 -56t-57 -38t-70.5 -14t-70.5 14t-56.5 38t-37 56t-13 70zM367 888v245q0 37 13 69.5t37 57t56.5 39t70.5 14.5q37 0 69.5 -14t57.5 -38.5t39.5 -57.5t14.5 -70v-194v-144z" />
<glyph unicode="&#xa3;" horiz-adv-x="1105" d="M-85 675q0 38 14 70.5t38 56.5t56 38t70 14h469q37 0 70 -14t57 -38t38 -56.5t14 -70.5q0 -37 -14 -69.5t-38 -57t-57 -38.5t-70 -14h-469q-38 0 -70 14t-56 38.5t-38 57t-14 69.5zM99 178v652l403 94v-545h344q41 0 77 -16t64 -43t44 -63.5t16 -78.5t-14 -78.5 t-38.5 -63.5t-59 -43t-75.5 -16h-569q-40 2 -75.5 18t-61 42t-40.5 62t-15 79zM99 732v118q0 117 35 212t97 162.5t147.5 104.5t187.5 37q42 0 78.5 -15.5t63.5 -42.5t43 -64t16 -79q0 -56 -26.5 -101t-71.5 -71q-18 -10 -37.5 -14t-38.5 -7.5t-35.5 -9t-29 -18t-20 -35 t-7.5 -59.5v-183z" />
<glyph unicode="&#xa4;" d="M208.5 439.5q7.5 42.5 45.5 80.5l159 156l227 -232l-155 -155q-37 -37 -78.5 -44.5t-80 5t-69 42.5t-43.5 67.5t-5.5 80zM214 1031q9 40 38 72.5t78 45.5q40 11 81 0.5t72 -42.5l146 -146l-227 -229l-146 148q-31 30 -41 70.5t-1 80.5zM250 689q0 87 33 163.5t90 133.5 t133.5 90.5t163.5 33.5q86 0 162.5 -33.5t133.5 -90.5t90.5 -133.5t33.5 -163.5q0 -86 -33.5 -162.5t-90.5 -133.5t-133.5 -90.5t-162.5 -33.5q-87 0 -163.5 33.5t-133.5 90.5t-90 133.5t-33 162.5zM575 689q0 -20 7.5 -38t20 -32t29.5 -22t38 -8q20 0 37 8t29.5 22t19.5 32 t7 38q0 41 -26 71.5t-67 30.5q-20 0 -37.5 -8.5t-30 -22.5t-20 -32.5t-7.5 -38.5zM679 935l167 167q30 31 71 41.5t82 2t74.5 -38t46.5 -79.5q11 -41 0.5 -82.5t-43.5 -74.5l-169 -168zM697 434l230 229l145 -144q31 -31 41 -71.5t1 -80.5t-38 -73t-79 -46q-41 -11 -82.5 0 t-72.5 43z" />
<glyph unicode="&#xa5;" horiz-adv-x="1403" d="M32 1098q0 38 15 74.5t45 67.5q30 30 67 44.5t74.5 14.5t74.5 -14.5t67 -44.5l362 -362q31 -31 46 -68t15 -75.5t-15 -74.5t-46 -66q-29 -30 -46 -64.5t-32 -58.5t-33 -28.5t-48 26.5l-486 487q-30 30 -45 67t-15 75zM319 272q0 28 10 51.5t27.5 41t41 27t51.5 9.5h520 q28 0 51 -9.5t40.5 -27t28 -41t10.5 -51.5t-10.5 -51t-28 -40.5t-41 -28t-50.5 -10.5h-520q-28 0 -51.5 10.5t-41 28t-27.5 41t-10 50.5zM319 584q0 28 10 51t27.5 40.5t41 27.5t51.5 10h520q28 0 51 -10t40.5 -27.5t28 -41t10.5 -50.5q0 -28 -10.5 -51.5t-28 -41t-41 -27.5 t-50.5 -10h-520q-28 0 -51.5 10t-41 27.5t-27.5 41t-10 51.5zM501 160v513q0 41 15 77.5t42 63.5t63.5 42.5t78.5 15.5t78.5 -15.5t63.5 -42.5t43 -63.5t16 -77.5v-513q0 -42 -16 -79t-43 -64t-63.5 -42.5t-78.5 -15.5t-78.5 15.5t-63.5 42.5t-42 64t-15 79zM606 734.5 q0 38.5 15.5 75.5t46.5 68l361 362q30 30 67 44.5t75 14.5t75 -14.5t67 -44.5q29 -30 44 -66.5t15 -75t-15 -75.5t-44 -67l-489 -485q-20 -20 -34.5 -24.5t-25.5 3t-20.5 23t-20 36t-24 42.5t-31.5 43q-31 30 -46.5 66t-15.5 74.5z" />
<glyph unicode="&#xa6;" horiz-adv-x="611" d="M105 -133v385q0 41 15.5 78t42.5 64t63 43t78 16q41 0 77.5 -16t64 -43.5t43.5 -64t16 -77.5v-385q0 -42 -16 -78.5t-43 -63.5t-63.5 -43t-78.5 -16t-78.5 15.5t-63 42.5t-42 64t-15.5 79zM105 740v397q0 41 15.5 77.5t42.5 63.5t63 42.5t78 15.5q41 0 77.5 -15.5t64 -43 t43.5 -63.5t16 -77v-397q0 -42 -16 -78t-43 -63.5t-63.5 -42.5t-78.5 -15t-78.5 15t-63 42t-42 63t-15.5 79z" />
<glyph unicode="&#xa7;" horiz-adv-x="1056" d="M63 271q0 34 13 64.5t35 53.5t52 36t64 13q38 0 74 -13.5t68 -33t62.5 -40.5t57.5 -36q10 -5 27.5 -11.5t34 -9t29 3t12.5 25.5q0 8 -23.5 18t-61 23t-85 30.5t-94.5 40.5t-90 53.5t-72.5 70.5t-40 90t6.5 113q12 44 40.5 88t76 80t116.5 58.5t163 22.5q61 0 119 -8 t108 -24q53 -17 96 -53t70.5 -80.5t37.5 -91.5t-2.5 -86t-49.5 -64t-102 -25q-13 0 -16.5 7t-2 18.5t5 26t2 28.5t-11 25.5t-31.5 17.5q-34 9 -59.5 17t-46.5 13t-38 7t-33 1q-46 -4 -58 -18t-12 -33q0 -10 4.5 -20t20.5 -18t46.5 -14t81.5 -9q29 -2 65 -12t73.5 -29.5 t72.5 -48t63 -67t45 -87t17 -108.5q0 -79 -40 -135t-105.5 -92t-150 -52.5t-173.5 -16.5q-46 0 -97.5 9t-103 26t-98.5 42.5t-83 57.5t-57.5 71.5t-21.5 84.5zM138.5 1045.5q-13.5 50.5 3.5 114.5q12 44 40.5 88t76 80t116 58.5t163.5 22.5q86 0 164.5 -16t138 -47.5 t95 -77.5t35.5 -106q0 -44 -17 -76.5t-42.5 -54t-56 -32t-57.5 -10.5q-25 0 -49 10t-45.5 23.5t-41 29.5t-34.5 27q-14 10 -29.5 16t-29.5 6.5t-22.5 -5t-8.5 -19.5q0 -6 11.5 -13.5t31 -16t44 -17t50.5 -17.5q27 -9 61 -21t70.5 -30t71.5 -42.5t63 -59.5t44.5 -81 t16.5 -105q0 -79 -39.5 -135.5t-105 -92t-150 -52t-173.5 -16.5q-27 0 -50.5 8t-46.5 20.5t-47.5 26.5t-54.5 27q-53 22 -93.5 50.5t-64 59.5t-28.5 64t12.5 63t59 55.5t111.5 43.5q22 -8 29.5 -26.5t15 -40t21.5 -43.5t47 -38q28 -12 68.5 -21t77.5 -7t62.5 16t25.5 47 q0 23 -27 41t-70.5 35.5t-98 36.5t-109.5 41.5t-104.5 52t-83.5 67.5t-47.5 88.5z" />
<glyph unicode="&#xa8;" horiz-adv-x="1020" d="M31 1505q0 34 12.5 63t34 51t51.5 35t64 13q33 0 62.5 -13t51.5 -35t34.5 -51t12.5 -63t-12.5 -63.5t-34.5 -51t-52 -34.5t-62 -13q-34 0 -64 13t-51.5 34.5t-34 51t-12.5 63.5zM426 1505q0 34 13 63t35 51t51 35t62 13q34 0 63.5 -13t51 -35t34.5 -51t13 -63t-13 -63.5 t-34.5 -51t-51 -34.5t-63.5 -13q-33 0 -62 13t-51 34.5t-35 51t-13 63.5z" />
<glyph unicode="&#xa9;" horiz-adv-x="1466" d="M37 651q0 92 25.5 177.5t71.5 160.5t110.5 136t141.5 105t164 68t179 24t179 -24t164 -68t141.5 -105t110.5 -136t71.5 -160.5t25.5 -177.5t-25.5 -178t-71.5 -160.5t-110.5 -136t-141.5 -105t-164 -67.5t-179 -24t-179 24t-164 67.5t-141.5 105t-110.5 136t-71.5 160 t-25.5 178.5zM291 647q0 -81 37 -154.5t98 -130.5t140 -90.5t163 -33.5t163 33.5t140.5 91t98 132t36.5 157.5q0 82 -36.5 156t-98 129.5t-140.5 88.5t-163 33t-163 -33.5t-140 -90t-98 -131.5t-37 -157zM388 651q0 71 26.5 133.5t73.5 108.5t109 72.5t133 26.5 q79 0 135 -23.5t106 -80.5q27 -29 26 -72q1 -14 -5.5 -34t-20.5 -37q-12 -10 -28 -17.5t-33.5 -9.5t-37.5 3t-39 20q-9 7 -18 16.5t-21 17t-27 13t-37 5.5q-30 0 -54.5 -12t-43 -31.5t-28.5 -45.5t-10 -55q0 -26 10.5 -50.5t29 -43.5t43 -31t53.5 -12q24 0 40 6.5t29 16.5 t26.5 21t30.5 22q27 14 61 14t61 -24q29 -33 29 -71q0 -17 -7.5 -37.5t-21.5 -37.5q-49 -56 -108.5 -81t-139.5 -25q-71 0 -133 27t-109 72.5t-73.5 106.5t-26.5 129z" />
<glyph unicode="&#xaa;" horiz-adv-x="1176" d="M135 476q0 105 40.5 199.5t111 164t164 110.5t200.5 41q106 0 184 -41t129 -110.5t75.5 -164t24.5 -199.5q0 -106 -24.5 -200.5t-75.5 -165t-129 -110.5t-184 -40t-200 40t-164.5 110.5t-111 164.5t-40.5 201zM536 476q0 -25 8.5 -48t24 -40t36.5 -27t46 -10t45.5 10 t36 27t24 40t8.5 48t-8.5 46.5t-24 38.5t-36.5 27t-45 10q-25 0 -46 -10t-36.5 -27t-24 -39t-8.5 -46zM765 251v225q0 42 16 78t43 63.5t63.5 42.5t78.5 15t79 -15t64 -42.5t42.5 -63.5t15.5 -78v-406q0 -54 -28 -82t-83 -28t-91.5 31.5t-59.5 82.5l-88 187zM765 478v223 l52 -8l88 185q25 52 60.5 83.5t90.5 31.5q111 0 111 -111v-404q0 -42 -15.5 -79t-42.5 -64t-64 -42.5t-79 -15.5t-78.5 15.5t-63.5 42.5t-43 64t-16 79z" />
<glyph unicode="&#xab;" horiz-adv-x="1596" d="M57 492q0 39 14 75.5t44 66.5l319 315q37 37 84.5 50t93.5 4t86 -39t63 -79q12 -27 15 -56t-2 -58t-19.5 -56t-38.5 -49l-217 -170l217 -179q32 -27 46.5 -62t13.5 -73t-16 -74.5t-41 -65.5t-63 -47t-81 -18q-39 0 -74.5 14.5t-66.5 45.5l-319 313q-33 30 -45.5 65 t-12.5 77zM743 492q0 39 14 75.5t44 66.5l319 315q37 37 84.5 50t94 4t86 -39t62.5 -79q12 -27 15 -56t-2 -58t-19.5 -56t-38.5 -49l-217 -170l217 -179q32 -27 46.5 -62t13.5 -73t-15.5 -74.5t-41 -65.5t-63 -47t-80.5 -18q-39 0 -75 14.5t-67 45.5l-319 313 q-33 30 -45.5 65t-12.5 77z" />
<glyph unicode="&#xad;" horiz-adv-x="973" d="M72 621q0 42 15 78.5t42.5 64t64 42.5t78.5 15h428q42 0 78.5 -15.5t63.5 -43t43 -64t16 -77.5q0 -42 -16 -78.5t-43 -63.5t-63.5 -43t-78.5 -16h-428q-42 0 -78.5 15.5t-64 42.5t-42.5 64t-15 79z" />
<glyph unicode="&#xae;" horiz-adv-x="1587" d="M37 651q0 92 25.5 177.5t71.5 160.5t110.5 136t141.5 105t164 68t179 24t179 -24t164 -68t141.5 -105t110.5 -136t71.5 -160.5t25.5 -177.5t-25.5 -178t-71.5 -160.5t-110.5 -136t-141.5 -105t-164 -67.5t-179 -24t-179 24t-164 67.5t-141.5 105t-110.5 136t-71.5 160 t-25.5 178.5zM301 647q0 -80 36 -153.5t96 -129.5t137 -89t159 -33t159 33t136.5 89.5t96 131t36.5 156.5q0 81 -36.5 154t-96 128t-136.5 88t-159 33t-159 -33.5t-137 -89t-96 -130t-36 -155.5zM504 488v336q0 33 16 57.5t54 24.5q27 0 52.5 -18t35.5 -41q45 36 81.5 47.5 t69.5 11.5q52 0 89 -14t60 -38q14 -17 21 -35t7 -42q0 -23 -8.5 -44t-25.5 -38q-15 -15 -38 -23.5t-44 -8.5q-15 0 -33.5 2.5t-49.5 2.5q-15 0 -24 -6.5t-13.5 -16t-6.5 -23t-2 -28.5q0 -27 -1.5 -53t-1.5 -53q-4 -53 -37 -87t-81 -34q-53 0 -86.5 34t-33.5 87z" />
<glyph unicode="&#xaf;" horiz-adv-x="973" d="M96 434q0 28 10 51t27.5 41t41 28t49.5 10h520q28 0 51.5 -10t41 -28t27.5 -41.5t10 -50.5t-10 -50.5t-27.5 -41t-41 -27.5t-51.5 -10h-520q-27 0 -50 10t-40.5 27.5t-27.5 41t-10 50.5z" />
<glyph unicode="&#xb0;" horiz-adv-x="535" d="M62 1039q0 37 14 69t38 56.5t56 38.5t69 14t69.5 -14t56.5 -38.5t37.5 -56.5t13.5 -69t-13.5 -69.5t-37.5 -56.5t-56.5 -37.5t-69.5 -13.5t-69 13.5t-56 37.5t-38 56.5t-14 69.5zM194 1039q0 -19 13 -33t33 -14q18 0 31 13.5t13 33.5q0 19 -12.5 33.5t-31.5 14.5 q-20 0 -33 -14.5t-13 -33.5z" />
<glyph unicode="&#xb1;" horiz-adv-x="969" d="M96 131q0 28 10 51.5t27.5 41.5t41 27.5t49.5 9.5h520q28 0 51.5 -9.5t41 -27.5t27.5 -41.5t10 -51.5q0 -27 -10 -50.5t-27.5 -40.5t-41 -27.5t-51.5 -10.5h-520q-27 0 -50 10.5t-40.5 27.5t-27.5 40.5t-10 50.5zM96 746q0 28 10 51.5t27.5 41.5t41 28t49.5 10h520 q28 0 51.5 -10t41 -28t27.5 -41.5t10 -51.5q0 -27 -10 -50t-27.5 -40.5t-41 -28t-51.5 -10.5h-520q-27 0 -50 10.5t-40.5 28t-27.5 41t-10 49.5zM354 489v521q0 27 10.5 50t28 40.5t41 27.5t49.5 10q28 0 51.5 -10t41.5 -27.5t27.5 -41t9.5 -49.5v-521q0 -28 -9.5 -51 t-27.5 -40.5t-41.5 -28t-51.5 -10.5q-27 0 -50 10.5t-40.5 28t-28 41t-10.5 50.5z" />
<glyph unicode="&#xb2;" horiz-adv-x="654" d="M94 586q0 26 18 49.5t45 46.5t58.5 43t58.5 38t45 33.5t18 27.5q0 8 -4 11.5t-9.5 2.5t-12 -4.5t-10.5 -7.5q-6 -5 -11.5 -11t-10.5 -12q-15 -20 -39 -32.5t-47 -11.5q-33 2 -57 23q-33 28 -33 74q0 28 15.5 55.5t46 49.5t75 36t102.5 14q65 0 108 -13.5t69 -35t36.5 -48 t10.5 -52.5q0 -34 -15.5 -61t-39 -48.5t-50.5 -38.5t-49 -30q8 -2 13 -2q26 0 52.5 -1.5t48.5 -10t35.5 -28t13.5 -55.5q0 -43 -28.5 -72.5t-70.5 -29.5h-281q-20 0 -38.5 8t-32 21.5t-22 31.5t-8.5 40z" />
<glyph unicode="&#xb3;" horiz-adv-x="454" d="M15 649q0 24 12.5 40.5t28.5 24.5q10 5 23.5 4.5t24.5 -3.5q13 -5 24.5 -15.5t22.5 -21.5t23.5 -19.5t30.5 -8.5t32 14t14 34t-12.5 35t-32.5 15q-26 0 -40.5 -7.5t-29.5 -7.5q-31 0 -48 15.5t-17 34.5q0 23 10.5 36.5t25.5 22t31.5 14.5t27.5 15h-62l36 153h166 q15 0 29.5 -7t25.5 -19.5t17 -28t6 -30.5q0 -32 -27 -52q-18 -15 -28.5 -23.5t-14 -12t-3.5 -4.5t1 -1q43 -17 67 -60.5t24 -92.5q0 -43 -16 -78t-44 -60.5t-63 -39.5t-72 -14q-38 0 -73 14t-61.5 36t-42.5 48.5t-16 49.5zM16 947q0 34 24.5 55.5t57.5 21.5h60l-30 -153h-26 q-34 0 -60 20.5t-26 55.5z" />
<glyph unicode="&#xb4;" horiz-adv-x="913" d="M43 1237q0 29 24.5 66.5t62.5 72t82.5 58t84.5 23.5q33 0 62.5 -16t50.5 -42t30 -58.5t-1 -66.5q-8 -28 -36.5 -57t-67 -53t-81.5 -40t-80 -16q-39 0 -73 21q-37 23 -51 61q-5 11 -6 23t-1 24z" />
<glyph unicode="&#xb5;" horiz-adv-x="1266" d="M106 -159v957q0 42 15.5 78.5t42.5 64t64 42.5t79 15q41 0 78 -15t64 -42.5t43 -64t16 -78.5v-957q0 -42 -16 -78t-43 -63t-64 -42.5t-78 -15.5q-42 0 -79 15.5t-64 42.5t-42.5 63t-15.5 78zM506 29l2 453q0 -25 9 -47t25.5 -39t38 -27t46.5 -10t45.5 10t36 27t23.5 39.5 t8 46.5v211l401 72v-283q0 -106 -31 -200t-88.5 -163.5t-141.5 -110.5t-191 -41q-29 0 -58 5.5t-54.5 14.5t-44.5 19.5t-26 22.5zM740 652v117q0 45 13 86.5t38 73.5t62.5 50.5t86.5 18.5q42 0 78.5 -16t63.5 -44t43 -64t16 -76v-128z" />
</font>
</defs>
</svg>
