<?xml version="1.0" standalone="no"?>
<!DOCTYPE svg PUBLIC "-//W3C//DTD SVG 1.1//EN" "http://www.w3.org/Graphics/SVG/1.1/DTD/svg11.dtd" >
<svg xmlns="http://www.w3.org/2000/svg" xmlns:xlink="http://www.w3.org/1999/xlink" version="1.1">
<metadata></metadata>
<defs>
<font id="nokia_sans_s60regular" horiz-adv-x="1138" >
<font-face units-per-em="2048" ascent="1597" descent="-451" />
<missing-glyph horiz-adv-x="548" />
<glyph horiz-adv-x="0" />
<glyph horiz-adv-x="682" />
<glyph unicode=" "  horiz-adv-x="548" />
<glyph unicode="&#x09;" horiz-adv-x="548" />
<glyph unicode="&#xa0;" horiz-adv-x="548" />
<glyph unicode="!" horiz-adv-x="684" d="M195 1343q0 63 43 103q41 37 104 37t104 -39q43 -39 43 -101v-788q0 -61 -43 -100q-41 -39 -104 -39t-104 37q-43 39 -43 102v788zM229 23q-47 47 -47 112q0 66 47 113t113 47t113 -47t47 -113t-47 -112q-47 -47 -113 -48q-66 1 -113 48z" />
<glyph unicode="&#x22;" horiz-adv-x="909" d="M518 1360q0 123 123 123t123 -123v-348q0 -123 -123 -123t-123 123v348zM145 1360q0 123 123 123t123 -123v-348q0 -123 -123 -123t-123 123v348z" />
<glyph unicode="#" horiz-adv-x="1228" d="M336 846h-176q-98 0 -99 98q0 98 99 98h205l45 330q14 98 102 98q39 0 66 -22q29 -25 28 -59q0 -16 -4 -50l-41 -297h197l45 330q14 98 102 98q39 0 66 -22q29 -25 28 -59q0 -16 -4 -50l-41 -297h176q98 0 99 -98q0 -98 -99 -98h-204l-33 -234h176q98 0 98 -98t-98 -98 h-205l-45 -330q-14 -98 -102 -98q-39 0 -66 22q-29 25 -28 60q0 16 4 49l41 297h-197l-45 -330q-14 -98 -102 -98q-39 0 -66 22q-29 25 -29 60q0 16 4 49l41 297h-176q-98 0 -98 98t98 98h205zM502 612h194l33 234h-194z" />
<glyph unicode="$" horiz-adv-x="1099" d="M596 281q133 31 133 165q0 88 -133 134v-299zM485 1180q-109 -29 -108 -125q0 -68 108 -109v234zM485 614q-221 66 -292 113q-147 98 -148 291q0 190 129 319q123 121 311 142v63q0 51 7 70q12 27 49 26q37 0 49 -26q6 -18 6 -70v-63q125 -4 225 -47q133 -55 133 -154 q0 -61 -36 -107q-39 -45 -101 -45q-37 0 -102 25q-74 27 -119 31v-273q219 -63 307 -127q158 -115 158 -331q0 -199 -137 -330q-129 -123 -328 -139v-66q0 -96 -55 -96t-56 96v64q-168 4 -284 49q-162 59 -162 176q0 61 37 102q39 43 100 43q45 0 143 -35q106 -37 166 -43 v342z" />
<glyph unicode="%" horiz-adv-x="1478" d="M485 1151q0 51 -28 86q-29 37 -78 37t-78 -37q-29 -35 -29 -86q0 -121 107 -121q106 0 106 121zM983 1430q35 66 94 65q49 0 84 -33q37 -35 37 -82q0 -31 -16 -61l-688 -1288q-49 -68 -93 -68q-41 0 -77 33q-39 35 -39 80q0 35 20 76zM154 920q-90 96 -91 231 q0 135 91 233q90 98 225 99q135 0 225 -99q90 -98 90 -233t-90 -231q-90 -98 -225 -99q-135 1 -225 99zM874 74q-90 96 -90 231t90 234q90 98 226 98q135 0 225 -98t90 -234q0 -135 -90 -231q-90 -98 -225 -99q-136 1 -226 99zM1206 305q0 51 -28 86q-29 37 -78 37t-78 -37 q-29 -35 -29 -86q0 -121 107 -121q106 0 106 121z" />
<glyph unicode="&#x26;" horiz-adv-x="1441" d="M520 694q-176 -113 -176 -248q0 -94 59 -149q57 -51 154 -51q135 0 260 119zM1026 565l80 92q82 94 156 95q45 0 77 -35q35 -37 35 -94q0 -76 -112 -195l-52 -55l140 -158q45 -51 45 -102q0 -53 -43 -95q-43 -43 -101 -43q-63 0 -108 48l-142 147q-221 -195 -450 -195 q-215 0 -354 115q-147 121 -148 328q0 274 309 444q-135 135 -135 277q0 164 135 260q121 84 295 84q158 0 279 -80q139 -90 139 -242q0 -225 -260 -358zM653 1249q-43 0 -82 -28q-41 -31 -41 -74q0 -70 109 -176q150 76 149 159q0 119 -135 119z" />
<glyph unicode="'" horiz-adv-x="491" d="M123 1360q0 123 123 123t123 -123v-348q0 -123 -123 -123t-123 123v348z" />
<glyph unicode="(" horiz-adv-x="493" d="M442 1450q41 -35 41 -86q0 -8 -39 -135q-106 -319 -106 -645q0 -336 94 -607q51 -133 51 -161q0 -57 -37 -95q-35 -37 -94 -36q-61 0 -106 77q-166 289 -166 822q0 193 51 454q61 322 154 418q25 27 67 27q53 0 90 -33z" />
<glyph unicode=")" horiz-adv-x="493" d="M51 -283q-41 35 -41 86q0 8 39 136q106 319 107 645q0 336 -95 606q-51 133 -51 162q0 59 37 94q37 37 94 37q61 0 107 -78q166 -289 166 -821q0 -193 -49 -455q-63 -322 -156 -418q-25 -27 -68 -26q-53 -1 -90 32z" />
<glyph unicode="*" horiz-adv-x="796" d="M502 1376q0 -18 -6 -61l-11 -68q117 84 146 84q45 0 76 -37q31 -35 30 -82q0 -49 -57 -79q-18 -10 -53 -25q-39 -14 -54 -23l54 -22q35 -12 53 -23q57 -31 57 -79q0 -47 -30 -82q-31 -39 -76 -39q-25 0 -146 86l11 -68q6 -43 6 -61q0 -94 -105 -95q-104 0 -104 95 q0 18 6 61l10 68q-125 -86 -147 -86q-45 0 -76 39q-27 35 -27 82q0 49 58 79q18 10 53 23l51 22q-14 8 -51 23q-35 14 -53 25q-57 31 -58 79q0 47 27 82q31 37 76 37q27 0 147 -84l-10 68q-6 43 -6 61q0 94 104 94q105 0 105 -94z" />
<glyph unicode="+" horiz-adv-x="1228" d="M492 938q0 123 122 123q123 0 123 -123v-297h297q123 0 123 -123t-123 -123h-297v-297q0 -123 -123 -123t-122 123v297h-297q-123 0 -123 123t123 123h297v297z" />
<glyph unicode="," horiz-adv-x="548" d="M236 -205q-39 -70 -117 -69q-55 0 -96 41q-43 39 -43 94q0 37 24 82l170 307q39 70 119 69q55 0 98 -38q43 -41 43 -97q0 -37 -26 -82z" />
<glyph unicode="-" horiz-adv-x="796" d="M616 723q117 0 117 -131q0 -127 -117 -127h-436q-117 0 -117 127q0 131 117 131h436z" />
<glyph unicode="." horiz-adv-x="548" d="M162 248q47 47 112 47q66 0 113 -47t47 -113t-47 -112q-47 -47 -113 -48q-66 0 -112 48q-47 47 -47 112q0 66 47 113z" />
<glyph unicode="/" horiz-adv-x="833" d="M582 1407q31 76 114 76q51 0 86 -33t35 -80q0 -14 -18 -57l-545 -1262q-35 -76 -115 -76q-51 0 -86 33q-37 33 -37 80q0 14 19 57z" />
<glyph unicode="0" horiz-adv-x="1175" d="M811 729q0 475 -223 475t-223 -475t223 -475t223 475zM162 227q-117 203 -117 502t117 502q143 252 426 252t426 -252q117 -203 116 -502q0 -299 -116 -502q-143 -252 -426 -252t-426 252z" />
<glyph unicode="1" horiz-adv-x="757" d="M311 1176h-121q-70 0 -106 45q-33 39 -33 96t37 98q39 43 102 43h291q63 0 103 -41q35 -41 34 -104v-1166q0 -76 -43 -118q-43 -41 -110 -41q-68 0 -111 41q-43 43 -43 118v1029z" />
<glyph unicode="2" horiz-adv-x="1175" d="M924 270q160 0 159 -135q0 -135 -147 -135h-684q-160 0 -160 135q0 47 47 105q494 590 510 612q72 104 72 190q0 63 -43 111q-43 47 -105 47q-123 0 -174 -166q-27 -86 -45 -114q-35 -51 -100 -52q-70 0 -111 45q-39 41 -39 105q0 190 146 330q143 135 336 135 q195 0 321 -115q133 -121 133 -311q0 -180 -180 -418q-55 -74 -162 -193q-115 -131 -149 -176h375z" />
<glyph unicode="3" horiz-adv-x="1175" d="M885 1356q106 -111 106 -248q0 -207 -168 -313q250 -115 250 -367q0 -186 -149 -317q-150 -135 -367 -136q-213 0 -358 131q-133 119 -133 254q0 57 51 99q47 39 106 39q57 0 135 -119q76 -121 203 -121q80 0 137 55q55 55 56 136q0 96 -56 137q-35 25 -118 39 q-90 14 -119 30q-55 31 -55 111q0 72 45 104q27 20 100 39q72 18 100 41q45 37 45 113q0 59 -39 98q-41 39 -108 39q-104 0 -174 -100t-133 -101q-59 0 -99 48q-35 43 -34 104q0 121 137 225q141 106 309 107q205 0 330 -127z" />
<glyph unicode="4" horiz-adv-x="1175" d="M176 322q-70 0 -108 40q-35 35 -35 80q0 43 28 90l459 832q66 119 209 119q98 0 162 -62q74 -70 74 -200v-629h34q61 0 103 -37q41 -39 41 -98t-41 -99q-41 -37 -103 -36h-34v-175q0 -160 -148 -159q-147 0 -147 159v175h-494zM670 1163h-4l-277 -571h281v571z" />
<glyph unicode="5" horiz-adv-x="1175" d="M481 958q98 20 154 21q182 0 305 -129q119 -125 119 -307q0 -262 -139 -412q-143 -156 -404 -156q-137 0 -280 70q-170 84 -170 205q0 57 40 98q41 41 99 41q35 0 137 -65q104 -66 180 -66q100 0 162 86q55 76 55 182q0 94 -51 150q-51 57 -145 57q-61 0 -127 -33 q-63 -35 -115 -34q-55 0 -90 34q-31 31 -31 62l6 69l52 433q14 117 49 157q35 37 110 37h494q70 0 110 -37q39 -35 39 -92q0 -154 -143 -153h-385z" />
<glyph unicode="6" horiz-adv-x="1175" d="M213 127q-139 145 -139 356t182 512q154 254 338 424q16 16 65 49q23 14 62 15q45 0 94 -47q51 -49 51 -103q0 -31 -43 -84q-29 -35 -147 -166q-96 -106 -135 -161l4 -4q55 25 129 24q180 0 307 -139q121 -135 121 -320q0 -205 -144 -354q-150 -154 -370 -154 q-230 0 -375 152zM446 635q-53 -59 -53 -152q0 -90 51 -149q55 -63 144 -64q86 0 141 62q53 61 53 151q0 88 -49 148q-53 66 -145 65q-87 0 -142 -61z" />
<glyph unicode="7" horiz-adv-x="1101" d="M707 1176h-525q-152 0 -151 141q0 141 151 141h742q70 0 112 -53q35 -45 35 -94q0 -37 -47 -135l-508 -1033q-47 -94 -74 -120q-33 -35 -98 -35q-78 0 -127 51q-43 43 -43 94q0 31 21 72z" />
<glyph unicode="8" horiz-adv-x="1175" d="M451 608q-49 -57 -50 -145q0 -84 48 -141q51 -63 139 -64q84 0 137 64q49 59 49 141q0 96 -51 151q-49 53 -135 54q-86 -1 -137 -60zM229 106q-147 133 -147 336q0 236 219 355q-156 113 -156 293q0 176 129 286q125 106 314 107q184 0 311 -107q133 -111 133 -286 q0 -193 -158 -293q219 -109 220 -355q0 -209 -150 -340q-145 -127 -356 -127q-216 0 -359 131zM440 1057q0 -156 148 -156q150 0 149 156q0 68 -39 110q-41 45 -110 45q-148 1 -148 -155z" />
<glyph unicode="9" horiz-adv-x="1175" d="M963 1331q139 -145 139 -356t-182 -512q-154 -254 -338 -424q-16 -16 -66 -49q-23 -14 -61 -15q-45 0 -95 48q-51 49 -51 102q0 31 43 84q29 35 148 166q96 106 135 162l-4 4q-55 -25 -129 -25q-180 0 -305 139q-123 135 -123 320q0 205 143 354q150 154 371 154 q230 0 375 -152zM729 823q53 59 53 152q0 90 -51 149q-55 63 -143 64q-86 0 -142 -62q-53 -61 -53 -151q0 -88 49 -148q53 -66 146 -65q86 0 141 61z" />
<glyph unicode=":" horiz-adv-x="548" d="M162 905q47 47 112 47q66 0 113 -47t47 -112q0 -66 -47 -113t-113 -47t-112 47q-47 47 -47 113q0 65 47 112zM162 248q47 47 112 47q66 0 113 -47t47 -113t-47 -112q-47 -47 -113 -48q-66 0 -112 48q-47 47 -47 112q0 66 47 113z" />
<glyph unicode=";" horiz-adv-x="548" d="M391 281q43 -41 43 -97q0 -37 -26 -82l-172 -307q-39 -70 -117 -69q-55 0 -96 41q-43 39 -43 94q0 37 24 82l170 307q39 70 119 69q55 1 98 -38zM162 905q47 47 112 47q66 0 113 -47t47 -112q0 -66 -47 -113t-113 -47t-112 47q-47 47 -47 113q0 65 47 112z" />
<glyph unicode="&#x3c;" horiz-adv-x="1228" d="M1083 233q74 -31 74 -104q0 -129 -98 -129q-39 0 -103 29l-809 372q-76 37 -75 117q0 80 75 117l809 371q68 31 103 30q98 0 98 -129q0 -74 -74 -104l-682 -285z" />
<glyph unicode="=" horiz-adv-x="1228" d="M1034 870q123 0 123 -122q0 -123 -123 -123h-839q-123 0 -123 123t123 122h839zM1034 412q123 0 123 -123t-123 -123h-839q-123 0 -123 123t123 123h839z" />
<glyph unicode="&#x3e;" horiz-adv-x="1228" d="M827 518l-682 285q-74 31 -73 104q0 129 98 129q35 0 102 -30l809 -371q76 -37 76 -117t-76 -117l-809 -372q-63 -29 -102 -29q-98 0 -98 129q0 74 73 104z" />
<glyph unicode="?" horiz-adv-x="985" d="M301 762q0 49 51 74q20 10 115 34q164 45 164 174q0 66 -53 113q-49 43 -117 43q-90 0 -180 -100q-88 -102 -150 -103q-55 0 -90 41q-35 39 -35 107q0 150 158 250q139 88 297 88q207 0 344 -117q145 -123 145 -322q0 -324 -354 -413v-74q0 -61 -41 -100 q-43 -41 -106 -41q-68 0 -109 41q-39 37 -39 100v205zM336 23q-47 47 -47 112q0 66 47 113t113 47t112 -47q47 -47 47 -113t-47 -112q-47 -47 -112 -48q-66 1 -113 48z" />
<glyph unicode="@" horiz-adv-x="1638" d="M883 584q57 66 57 153q0 72 -41 121q-43 53 -115 53q-78 0 -137 -71q-55 -68 -55 -148q0 -70 35 -121q41 -55 108 -55q89 0 148 68zM1339 1296q233 -195 234 -471q0 -258 -225 -409q-164 -109 -301 -109q-141 0 -142 101h-4q-84 -100 -215 -101q-127 0 -217 113 q-86 106 -86 244q0 182 109 315q115 141 290 141q160 0 240 -123h4v25q0 98 115 98q94 0 94 -57q0 -25 -8 -66l-82 -372q-8 -33 -8 -68q0 -43 47 -43q61 0 125 74q80 90 80 237q0 211 -175 346q-162 127 -395 127q-236 0 -403 -165q-166 -166 -166 -404q0 -236 166 -403 q168 -166 403 -166q246 0 426 96q12 6 70 53q45 35 67 35q76 0 76 -76q0 -43 -55 -110q-201 -182 -584 -183q-311 0 -532 222q-221 221 -221 532t221 533q221 221 532 221q297 -1 520 -187z" />
<glyph unicode="A" horiz-adv-x="1290" d="M430 1313q63 170 219 170q160 0 219 -170l402 -1114q16 -43 16 -76q0 -59 -43 -98q-41 -37 -98 -37q-115 0 -150 106l-61 193h-569l-62 -191q-35 -109 -147 -108q-61 0 -107 41q-45 41 -45 102q0 33 14 68zM453 569h389l-191 594h-4z" />
<glyph unicode="B" horiz-adv-x="1175" d="M92 1305q0 154 162 153h393q164 0 273 -98q113 -102 112 -262q0 -211 -190 -301v-4q131 -18 221 -117q90 -98 90 -232q0 -213 -131 -329q-127 -115 -344 -115h-422q-72 0 -117 41q-47 43 -47 115v1149zM399 881h160q166 0 166 161q0 70 -49 109q-45 37 -117 37h-160v-307 zM399 270h242q86 0 137 47q55 47 56 132q0 162 -218 161h-217v-340z" />
<glyph unicode="C" horiz-adv-x="1251" d="M231 1266q199 217 508 217q154 0 277 -47q164 -63 164 -183q0 -57 -35 -96q-37 -41 -92 -41q-31 0 -123 37q-94 35 -191 35q-182 0 -286 -139q-98 -127 -99 -326q0 -193 99 -317q104 -135 286 -136q96 0 197 43q98 43 129 43q61 0 102 -51q33 -43 33 -88 q0 -129 -174 -194q-127 -47 -287 -48q-309 0 -508 218q-197 215 -196 536q-1 324 196 537z" />
<glyph unicode="D" horiz-adv-x="1366" d="M92 1300q0 70 45 115q43 43 113 43h340q340 0 532 -205q188 -199 189 -544q0 -322 -193 -516q-190 -193 -508 -193h-356q-61 0 -107 33q-55 41 -55 121v1146zM399 283h207q190 0 291 129q94 117 94 311q0 207 -96 326q-106 127 -309 127h-187v-893z" />
<glyph unicode="E" horiz-adv-x="948" d="M92 1280q0 178 160 178h508q70 0 110 -43q35 -41 35 -98t-37 -96q-41 -45 -108 -45h-361v-299h336q72 0 113 -43q37 -41 37 -99q0 -57 -37 -96q-43 -45 -113 -45h-336v-311h379q70 0 111 -43q35 -41 35 -99q0 -57 -37 -96q-41 -45 -109 -45h-528q-68 0 -113 43t-45 111 v1126z" />
<glyph unicode="F" horiz-adv-x="909" d="M92 1298q0 66 41 111q45 49 119 49h524q63 0 103 -43q35 -41 34 -98q0 -57 -34 -96q-37 -45 -103 -45h-377v-299h318q70 0 110 -43q37 -39 37 -97q0 -57 -37 -98q-41 -45 -110 -45h-318v-447q0 -76 -43 -118q-43 -41 -110 -41q-68 0 -111 41q-43 43 -43 118v1151z" />
<glyph unicode="G" horiz-adv-x="1441" d="M1227 864q180 0 180 -196q0 -301 -180 -494q-184 -199 -488 -199q-309 0 -508 218q-197 215 -196 536q0 324 196 537q199 217 508 217q227 0 398 -90q166 -88 166 -199q0 -66 -37 -104q-35 -39 -90 -39q-53 0 -170 75q-117 74 -267 74q-182 0 -288 -143 q-96 -129 -97 -328q0 -201 95 -330q104 -141 290 -141q139 0 236 74q113 88 112 250h-208q-63 0 -103 41q-41 39 -41 102t43 102q41 37 101 37h348z" />
<glyph unicode="H" horiz-adv-x="1441" d="M92 1311q0 76 43 119q43 41 111 40q68 0 110 -40q43 -43 43 -119v-434h643v434q0 76 43 119q43 41 111 40q68 0 111 -40q43 -43 43 -119v-1164q0 -76 -43 -118q-43 -41 -111 -41t-111 41q-43 43 -43 118v447h-643v-447q0 -76 -43 -118q-43 -41 -110 -41q-68 0 -111 41 q-43 43 -43 118v1164z" />
<glyph unicode="I" horiz-adv-x="491" d="M92 1311q0 76 43 119q43 41 111 40q68 0 110 -40q43 -43 43 -119v-1164q0 -76 -43 -118q-43 -41 -110 -41q-68 0 -111 41q-43 43 -43 118v1164z" />
<glyph unicode="J" horiz-adv-x="833" d="M754 410q0 -236 -133 -347q-104 -88 -273 -88q-135 0 -242 50q-135 66 -135 184q0 45 33 84q35 41 82 41q39 0 119 -37q80 -39 127 -39q115 0 114 172v881q0 76 43 119q43 41 111 40q68 0 111 -40q43 -43 43 -119v-901z" />
<glyph unicode="K" horiz-adv-x="1251" d="M92 1319q0 63 43 106q43 45 111 45t110 -40q43 -41 43 -111v-442l504 536q53 57 119 57q61 0 104 -40q47 -43 48 -107q0 -63 -101 -164l-387 -381l473 -493q86 -90 86 -156q0 -68 -49 -106q-43 -35 -111 -35q-66 0 -155 96l-531 573v-522q0 -61 -43 -104t-110 -43 q-68 0 -111 41q-43 39 -43 106v1184z" />
<glyph unicode="L" horiz-adv-x="872" d="M92 1311q0 76 43 119q43 41 111 40q68 0 110 -40q43 -43 43 -119v-1028h365q74 0 115 -47q37 -43 32 -101q-2 -53 -41 -92q-41 -43 -106 -43h-512q-160 0 -160 168v1143z" />
<glyph unicode="M" horiz-adv-x="1781" d="M242 1313q10 59 63 106q59 51 137 51q74 0 133 -45q53 -43 72 -102l242 -811h4l242 811q18 59 71 102q59 45 133 45q78 0 138 -51q53 -47 63 -106l191 -1143q2 -12 2 -35q0 -66 -43 -106q-41 -41 -105 -41q-139 0 -160 143l-120 834h-5l-245 -859q-35 -119 -164 -118 q-129 0 -164 118l-246 859h-4l-121 -834q-20 -143 -159 -143q-63 0 -105 41q-43 41 -43 106q0 23 2 35z" />
<glyph unicode="N" horiz-adv-x="1402" d="M80 1311q0 76 43 119q43 41 110 40q80 0 129 -67l650 -866h4v774q0 76 43 119q43 41 110 40q68 0 111 -40q43 -43 43 -119v-1164q0 -76 -43 -118q-43 -41 -111 -41q-76 0 -129 67l-649 856h-4v-764q0 -76 -43 -118q-43 -41 -111 -41t-110 41q-43 43 -43 118v1164z" />
<glyph unicode="O" horiz-adv-x="1478" d="M1030 399q94 129 94 330q0 199 -96 328q-106 143 -289 143q-182 0 -288 -143q-96 -129 -97 -328q0 -201 95 -330q104 -141 290 -141q187 0 291 141zM231 193q-197 215 -196 536q0 324 196 537q199 217 508 217q305 0 506 -221q199 -217 199 -533q0 -322 -195 -536 q-199 -217 -510 -218q-309 1 -508 218z" />
<glyph unicode="P" d="M92 1298q0 160 160 160h362q227 0 375 -135q150 -137 150 -354q0 -219 -152 -355q-143 -131 -360 -131h-228v-336q0 -76 -43 -118q-43 -41 -110 -41q-68 0 -111 41q-43 43 -43 118v1151zM399 754h209q94 0 154 63q57 59 57 154q0 94 -57 155q-59 61 -154 62h-209v-434z " />
<glyph unicode="Q" horiz-adv-x="1478" d="M1100 66q-158 -90 -361 -91q-309 0 -508 218q-197 215 -196 536q0 324 196 537q199 217 508 217q305 0 506 -221q199 -217 199 -533q0 -276 -137 -473l116 -100q72 -63 72 -125q0 -53 -45 -92q-43 -37 -96 -37q-59 0 -137 65zM1075 467q49 111 49 262q0 197 -96 328 q-106 143 -289 143q-182 0 -288 -143q-96 -129 -97 -328q0 -201 95 -330q104 -141 290 -141q59 0 131 14l-73 72q-39 35 -39 82q0 61 39 104t100 43q45 0 78 -26z" />
<glyph unicode="R" d="M92 1298q0 160 158 160h360q510 0 510 -463q0 -162 -110 -266q-102 -94 -269 -121l349 -372q41 -43 40 -91q0 -61 -43 -108q-45 -49 -110 -49q-74 0 -119 53l-455 551h-4v-445q0 -76 -43 -118q-43 -41 -110 -41q-68 0 -111 41q-43 43 -43 118v1151zM399 813h211 q86 0 138 49q53 49 53 133q0 180 -191 181h-211v-363z" />
<glyph unicode="S" horiz-adv-x="1099" d="M797 1442q158 -57 157 -164q0 -61 -36 -107q-39 -45 -101 -45q-37 0 -121 31q-86 31 -151 31q-70 0 -117 -35q-51 -37 -51 -98q0 -68 106 -109q35 -14 111 -37q88 -25 125 -37q342 -119 342 -421q0 -213 -156 -349q-150 -127 -368 -127q-174 0 -308 43q-190 59 -190 187 q0 61 37 102q39 43 100 43q43 0 158 -39q115 -41 186 -41q98 0 156 52q53 47 53 124q0 78 -106 125l-236 74q-158 49 -235 117q-106 94 -107 256q0 209 152 340q145 125 356 125q127 0 244 -41z" />
<glyph unicode="T" horiz-adv-x="983" d="M338 1176h-223q-70 0 -107 45q-33 39 -33 96t37 98q39 43 103 43h753q63 0 103 -43q37 -41 37 -98q0 -141 -140 -141h-223v-1029q0 -76 -43 -118q-43 -41 -110 -41q-68 0 -111 41q-43 43 -43 118v1029z" />
<glyph unicode="U" horiz-adv-x="1402" d="M80 1311q0 76 43 119q43 41 110 40q68 0 111 -40q43 -43 43 -119v-715q0 -145 84 -240q88 -98 231 -98q137 0 228 102q86 96 86 236v715q0 76 43 119q43 41 110 40q68 0 111 -40q43 -43 43 -119v-731q0 -256 -184 -430q-180 -174 -437 -175q-260 0 -440 172 q-182 174 -182 433v731z" />
<glyph unicode="V" horiz-adv-x="1212" d="M6 1247q-14 37 -14 76q0 63 49 107q45 41 109 40q90 0 139 -100l317 -852l318 852q49 100 139 100q63 0 111 -40q47 -43 47 -107q0 -39 -15 -76l-448 -1141q-49 -119 -152 -118q-102 0 -151 118z" />
<glyph unicode="W" horiz-adv-x="1859" d="M25 1266q-8 35 -9 69q0 53 39 92q43 43 107 43q133 0 164 -147l174 -870h4l266 897q37 121 160 120q123 0 160 -120l266 -897h4l174 870q31 147 164 147q63 0 106 -43q39 -39 39 -92q0 -35 -8 -69l-260 -1119q-39 -160 -203 -159q-160 0 -203 149l-237 791h-4l-238 -791 q-43 -150 -203 -149q-164 0 -202 159z" />
<glyph unicode="X" horiz-adv-x="1253" d="M449 780l-332 451q-33 43 -33 90q0 68 45 109q43 41 111 40q80 0 133 -75l254 -361l254 361q53 76 133 75q68 0 110 -40q45 -41 45 -109q0 -47 -32 -90l-332 -451l405 -544q35 -47 35 -105q0 -63 -43 -104q-45 -39 -112 -39q-78 0 -127 67l-336 467l-336 -467 q-49 -68 -127 -67q-68 0 -111 39q-45 41 -45 104q0 57 35 105z" />
<glyph unicode="Y" horiz-adv-x="1097" d="M395 684l-387 545q-29 41 -28 92q0 61 40 106q43 43 107 43q84 0 127 -61l295 -428l295 428q43 61 127 61q63 0 106 -43q41 -45 41 -106q0 -51 -28 -92l-388 -545v-547q0 -150 -153 -149q-154 0 -154 149v547z" />
<glyph unicode="Z" horiz-adv-x="1214" d="M1022 270q147 0 147 -135q0 -57 -45 -96t-102 -39h-805q-80 0 -127 41q-45 41 -45 106q0 61 41 119l659 922h-538q-143 0 -144 131q0 57 43 98q41 41 101 41h749q84 0 131 -47q41 -41 41 -100q0 -72 -45 -131l-655 -910h594z" />
<glyph unicode="[" horiz-adv-x="569" d="M90 1335q0 68 41 109q41 39 109 39h204q109 0 109 -117t-109 -117h-96v-1331h96q109 0 109 -117t-109 -116h-204q-68 0 -109 41q-41 39 -41 106v1503z" />
<glyph unicode="\" horiz-adv-x="833" d="M799 145q18 -43 18 -57q0 -47 -37 -80q-35 -33 -86 -33q-82 0 -112 76l-549 1262q-16 39 -17 57q0 47 35 80t86 33q84 0 115 -76z" />
<glyph unicode="]" horiz-adv-x="569" d="M479 -168q0 -68 -41 -106q-41 -41 -108 -41h-205q-109 0 -109 116q0 117 109 117h96v1331h-96q-109 0 -109 117t109 117h205q68 0 108 -39q41 -41 41 -109v-1503z" />
<glyph unicode="^" horiz-adv-x="1228" d="M358 690q-33 -45 -104 -45q-104 0 -104 82q0 33 26 82l330 600q33 61 108 61q76 0 109 -61l330 -600q27 -49 26 -82q0 -82 -104 -82q-72 0 -105 45l-256 473z" />
<glyph unicode="_" horiz-adv-x="1024" d="M0 -256q-59 0 -59 51t59 51h1024q59 0 59 -51t-59 -51h-1024z" />
<glyph unicode="`" horiz-adv-x="454" d="M422 1456q57 -31 57 -82q0 -55 -30 -102q-33 -47 -78 -47q-29 0 -82 20l-230 90q-84 33 -84 121q0 45 33 84q35 43 78 43q27 0 78 -20z" />
<glyph unicode="a" horiz-adv-x="1087" d="M508 221q223 0 223 221v47q-209 0 -268 -12q-133 -33 -133 -149q0 -107 178 -107zM455 -25q-184 0 -293 91q-115 92 -115 262q0 383 672 383v80q0 78 -129 77q-98 0 -176 -49q-78 -51 -105 -51q-129 0 -129 125q0 86 139 156q131 66 271 65q424 0 424 -330v-639 q0 -66 -39 -110q-41 -47 -105 -47q-113 0 -139 108q-77 -121 -276 -121z" />
<glyph unicode="b" horiz-adv-x="1175" d="M84 1413q0 74 41 119t106 45q66 0 107 -45t41 -119v-401q119 102 280 102q223 0 357 -184q119 -166 119 -400q0 -219 -131 -380q-141 -174 -355 -175q-186 0 -270 136q-29 -123 -148 -123q-66 0 -106 45q-41 45 -41 119v1261zM434 346q63 -100 176 -100q106 0 172 96 q57 86 58 201q0 117 -58 202q-66 98 -172 99q-111 0 -174 -92q-57 -80 -57 -199q0 -121 55 -207z" />
<glyph unicode="c" horiz-adv-x="948" d="M899 834q-33 -47 -82 -48q-35 0 -108 29q-76 29 -125 29q-119 0 -187 -94q-61 -84 -61 -207q0 -117 63 -203q72 -94 185 -94q41 0 125 30q82 31 94 31q51 0 90 -39q37 -37 37 -90q0 -100 -139 -158q-109 -45 -222 -45q-233 0 -383 168q-145 164 -145 400q0 231 147 397 q154 174 381 174q121 0 224 -39q137 -53 137 -147q0 -51 -31 -94z" />
<glyph unicode="d" horiz-adv-x="1175" d="M1092 152q0 -74 -41 -119t-107 -45q-119 0 -147 123q-82 -135 -271 -136q-213 0 -354 175q-131 162 -131 380q0 233 119 400q133 184 356 184q162 0 281 -102v401q0 74 41 119t106 45q66 0 107 -45t41 -119v-1261zM739 752q-63 92 -174 92q-106 0 -172 -99 q-57 -86 -57 -202q0 -115 57 -201q66 -96 172 -96q113 0 176 100q55 86 56 207q-1 119 -58 199z" />
<glyph unicode="e" horiz-adv-x="1099" d="M322 446q14 -104 96 -161q74 -51 182 -52q86 0 195 60q111 59 139 59q47 0 84 -39t37 -88q0 -92 -158 -172q-156 -78 -324 -78q-246 0 -401 162q-152 158 -152 406q0 231 148 397q154 174 381 174t385 -176q145 -162 145 -360q0 -131 -129 -132h-628zM784 643 q-29 225 -235 225q-96 0 -160 -65q-63 -63 -74 -160h469z" />
<glyph unicode="f" horiz-adv-x="606" d="M152 831h-66q-129 0 -129 130q0 55 37 92t92 37h66v151q0 160 88 250q82 86 221 86q205 0 205 -133q0 -125 -121 -125q-49 0 -68 -14q-31 -23 -31 -95v-120h93q150 0 149 -129q0 -129 -149 -130h-93v-679q0 -74 -40 -119q-41 -45 -107 -45t-106 45q-41 45 -41 119v679z " />
<glyph unicode="g" horiz-adv-x="1175" d="M1092 86q0 -258 -158 -399q-150 -133 -410 -133q-133 0 -278 49q-186 66 -187 172q0 43 39 86t80 43q37 0 156 -45q119 -47 213 -47q111 0 178 61q72 63 72 172v70h-4q-94 -139 -297 -140q-219 0 -344 172q-111 156 -111 394q0 231 131 397q139 176 354 176 q188 0 271 -135q29 123 147 123q66 0 107 -45t41 -119v-852zM741 743q-63 100 -176 101q-106 0 -172 -96q-57 -86 -57 -201q0 -127 57 -209q63 -92 172 -92q111 0 174 92q57 80 58 199q-1 120 -56 206z" />
<glyph unicode="h" d="M84 1413q0 74 41 119t106 45q66 0 107 -45t41 -119v-401h4q84 102 268 102q178 0 289 -104q115 -109 115 -293v-565q0 -74 -41 -119t-107 -45t-106 45q-41 45 -41 119v514q0 98 -55 153q-53 49 -138 49q-88 0 -139 -57q-49 -57 -49 -145v-514q0 -74 -41 -119t-107 -45 t-106 45q-41 45 -41 119v1261z" />
<glyph unicode="i" horiz-adv-x="454" d="M80 938q0 74 41 119t106 45q66 0 107 -45t41 -119v-786q0 -74 -41 -119t-107 -45t-106 45q-41 45 -41 119v786zM344 1495q49 -49 49 -113q0 -70 -49 -118q-47 -51 -117 -52q-66 0 -116 52q-49 51 -50 118q0 63 50 113q51 49 116 49q66 0 117 -49z" />
<glyph unicode="j" horiz-adv-x="454" d="M80 938q0 74 41 119t106 45q66 0 107 -45t41 -119v-1221q0 -74 -41 -118q-41 -45 -107 -45t-106 45q-41 45 -41 118v1221zM344 1495q49 -49 49 -113q0 -70 -49 -118q-47 -51 -117 -52q-66 0 -116 52q-49 51 -50 118q0 63 50 113q51 49 116 49q66 0 117 -49z" />
<glyph unicode="k" horiz-adv-x="1024" d="M84 1413q0 74 41 119t106 45q66 0 107 -45t41 -119v-688l323 313q66 63 134 64q53 0 90 -41q35 -41 35 -92q0 -66 -58 -117l-262 -234l346 -405q37 -43 37 -98q0 -57 -41 -99q-39 -41 -98 -41q-68 0 -142 91l-360 444h-4v-358q0 -74 -41 -119t-107 -45t-106 45 q-41 45 -41 119v1261z" />
<glyph unicode="l" horiz-adv-x="454" d="M80 1413q0 74 41 119t106 45q66 0 107 -45t41 -119v-1261q0 -74 -41 -119t-107 -45t-106 45q-41 45 -41 119v1261z" />
<glyph unicode="m" horiz-adv-x="1744" d="M84 938q0 74 41 119t106 45q119 0 136 -111q113 123 274 123q186 0 305 -149q129 150 311 149q184 0 291 -102q113 -104 113 -295v-565q0 -74 -41 -119t-107 -45t-106 45q-41 45 -41 119v514q0 90 -45 145q-47 57 -127 57t-127 -57q-47 -55 -47 -145v-514q0 -74 -41 -119 t-107 -45t-106 45q-41 45 -41 119v514q0 90 -45 145q-47 57 -127 57q-174 0 -174 -202v-514q0 -74 -41 -119t-107 -45t-106 45q-41 45 -41 119v786z" />
<glyph unicode="n" d="M84 938q0 74 41 119t106 45q119 0 136 -109q86 121 284 121q178 0 289 -104q115 -109 115 -293v-565q0 -74 -41 -119t-107 -45t-106 45q-41 45 -41 119v514q0 98 -55 153q-53 49 -138 49q-88 0 -139 -57q-49 -57 -49 -145v-514q0 -74 -41 -119t-107 -45t-106 45 q-41 45 -41 119v786z" />
<glyph unicode="o" d="M950 940q147 -166 148 -397q0 -236 -146 -400q-150 -168 -383 -168t-383 168q-145 164 -145 400q0 231 147 397q154 174 381 174t381 -174zM391 745q-55 -84 -55 -202q0 -117 57 -201q63 -96 176 -96t176 96q57 84 58 201q0 119 -55 202q-66 98 -179 99q-112 -1 -178 -99 z" />
<glyph unicode="p" horiz-adv-x="1175" d="M84 938q0 74 41 119t106 45q119 0 148 -123q84 135 280 135q223 0 357 -184q119 -166 119 -400q0 -219 -131 -380q-141 -174 -355 -175q-152 0 -270 103v-361q0 -74 -41 -118q-41 -45 -107 -45t-106 45q-41 45 -41 118v1221zM434 346q63 -100 176 -100q106 0 172 96 q57 86 58 201q0 117 -58 202q-66 98 -172 99q-111 0 -174 -92q-57 -80 -57 -199q0 -121 55 -207z" />
<glyph unicode="q" horiz-adv-x="1175" d="M1092 -283q0 -74 -41 -118q-41 -45 -107 -45t-106 45q-41 45 -41 118v361q-119 -102 -271 -103q-213 0 -354 175q-131 162 -131 380q0 233 119 400q133 184 356 184q199 0 281 -135q29 123 147 123q66 0 107 -45t41 -119v-1221zM739 752q-63 92 -174 92q-106 0 -172 -99 q-57 -86 -57 -202q0 -115 57 -201q66 -96 172 -96q113 0 176 100q55 86 56 207q-1 119 -58 199z" />
<glyph unicode="r" horiz-adv-x="681" d="M80 954q0 70 49 111q43 37 102 37q143 0 144 -123h4q84 123 207 123q59 0 98 -39q45 -43 45 -119q0 -61 -55 -92q-18 -10 -56 -25l-65 -26q-90 -43 -123 -70q-55 -49 -55 -127v-452q0 -74 -41 -119t-107 -45t-106 45q-41 45 -41 119v802z" />
<glyph unicode="s" horiz-adv-x="872" d="M791 811q-35 -41 -86 -41q-23 0 -117 43t-148 43q-100 0 -100 -82q0 -43 80 -82q27 -12 82 -33l94 -36q256 -109 256 -301q0 -150 -115 -246q-117 -100 -305 -101q-137 0 -268 64q-143 70 -144 164q0 41 33 82q39 49 94 49t144 -49q90 -51 162 -52q117 0 116 84 q0 43 -80 80q-27 12 -81 33q-66 27 -95 37q-256 109 -256 303q0 154 113 250q111 94 287 94q129 0 239 -51q129 -61 129 -162q1 -51 -34 -90z" />
<glyph unicode="t" horiz-adv-x="606" d="M156 831h-66q-129 0 -129 130q0 55 37 92t92 37h66v176q0 74 41 118q41 45 106 46q66 0 107 -46q41 -45 41 -118v-176h84q141 0 141 -129t-141 -130h-84v-679q0 -74 -41 -119t-107 -45t-106 45q-41 45 -41 119v679z" />
<glyph unicode="u" d="M1055 152q0 -74 -41 -119t-107 -45q-119 0 -135 108q-86 -121 -285 -121q-178 0 -288 105q-115 109 -115 293v565q0 74 41 119t106 45q66 0 107 -45t41 -119v-514q0 -98 57 -154q51 -49 135 -49q88 0 140 60q49 55 49 143v514q0 74 41 119t106 45q66 0 107 -45t41 -119 v-786z" />
<glyph unicode="v" horiz-adv-x="946" d="M16 872q-18 47 -18 86q0 68 47 107q43 37 107 37q98 0 131 -105l188 -581h4l189 581q33 104 131 105q63 0 106 -37q47 -39 47 -107q0 -39 -18 -86l-297 -761q-47 -123 -160 -123t-160 123z" />
<glyph unicode="w" horiz-adv-x="1593" d="M45 844q-31 90 -31 139t41 84q43 35 107 35q104 0 139 -117l170 -563h4l172 551q39 129 150 129t149 -129l172 -551h4l170 563q35 117 140 117q147 0 147 -144q0 -31 -29 -110l-252 -711q-53 -150 -178 -149q-127 0 -170 137l-151 475h-4l-152 -475q-43 -137 -170 -137 q-125 0 -178 149z" />
<glyph unicode="x" horiz-adv-x="1024" d="M340 571l-250 281q-45 53 -45 106q0 57 47 101q47 43 105 43q61 0 108 -58l207 -258l207 258q47 57 108 58q57 0 105 -43q47 -43 47 -101q0 -53 -45 -106l-250 -281l299 -340q41 -45 41 -100q0 -63 -41 -104q-39 -39 -104 -39q-68 0 -123 65l-244 299l-244 -299 q-55 -66 -123 -65q-66 0 -104 39q-41 41 -41 104q0 55 41 100z" />
<glyph unicode="y" horiz-adv-x="985" d="M10 899q-14 39 -14 76q0 53 47 92q43 35 92 35q109 0 148 -105l202 -555l217 555q39 104 148 105q49 0 92 -35q47 -39 47 -92q0 -45 -14 -76l-494 -1229q-47 -117 -139 -116q-72 0 -115 38q-39 37 -39 89q0 39 19 86l129 319z" />
<glyph unicode="z" horiz-adv-x="985" d="M512 831h-342q-57 0 -94 35q-39 35 -39 95q0 59 39 96q37 33 94 33h670q96 0 96 -93q0 -47 -31 -88l-465 -651h389q57 0 95 -33q39 -37 39 -96t-39 -94q-37 -35 -95 -35h-686q-121 0 -120 100q0 37 26 80z" />
<glyph unicode="{" horiz-adv-x="681" d="M176 350q0 135 -98 135t-98 99q0 98 98 98t98 135v397q0 268 273 269h126q92 0 93 -92q0 -92 -93 -93h-51q-90 0 -90 -118v-387q0 -188 -221 -207v-4q221 -18 221 -207v-387q0 -119 90 -119h51q92 0 93 -92q0 -92 -93 -92h-126q-272 0 -273 268v397z" />
<glyph unicode="|" horiz-adv-x="454" d="M350 98q0 -123 -123 -123t-123 123v1356q0 123 123 123t123 -123v-1356z" />
<glyph unicode="}" horiz-adv-x="681" d="M506 817q0 -135 98 -135t98 -98t-98 -99q-98 0 -98 -135v-397q0 -268 -273 -268h-127q-92 0 -92 92t92 92h52q90 0 90 119v387q0 188 221 207v4q-221 18 -221 207v387q0 119 -90 118h-52q-92 0 -92 93q0 92 92 92h127q272 0 273 -269v-397z" />
<glyph unicode="~" horiz-adv-x="1228" d="M952 635q66 61 105 61q88 0 88 -100q0 -102 -82 -182q-90 -88 -229 -88q-82 0 -236 69q-152 70 -199 70q-59 0 -123 -62q-66 -63 -104 -63q-88 0 -88 100q0 102 82 183q90 88 229 88q82 0 236 -70q152 -70 198 -70q60 1 123 64z" />
<glyph unicode="&#xa1;" horiz-adv-x="581" d="M365 1098l30 -1190h-262l31 1190h201zM393 1526v-266h-258v266h258z" />
<glyph unicode="&#xa2;" horiz-adv-x="1374" d="M1176 373q-8 -231 -154 -367q-141 -127 -324 -133v-416h-139v418q-209 16 -354 195q-129 162 -129 422t129 421q145 178 354 195v418h139v-418q184 -6 318 -131q137 -129 147 -356h-237q-12 131 -76 204q-63 78 -152 86v-831q90 10 158 84q70 74 74 209h246zM559 909 q-100 -12 -172 -129q-66 -109 -65 -286q0 -170 65 -281q72 -117 172 -133v829z" />
<glyph unicode="&#xa3;" horiz-adv-x="1351" d="M242 768v256q0 260 106 383q121 141 350 141q227 0 349 -141q106 -123 106 -309v-41h-221v43q0 106 -47 176q-57 88 -187 88q-129 0 -188 -88q-47 -66 -47 -201v-307h481v-166h-481v-196q0 -205 -72 -291h762v-207h-1077v201q166 78 166 262v231h-166v166h166z" />
<glyph unicode="&#xa4;" horiz-adv-x="1228" d="M324 317l-117 -120q-20 -25 -60 -25q-45 0 -69 33q-25 35 -25 74q0 18 29 47l119 118q-94 106 -95 285q0 197 95 289l-119 119q-25 25 -29 47q0 45 25 73q25 33 69 33q35 0 60 -24l117 -117q111 90 290 90q180 0 291 -90l117 117q25 25 59 24q45 0 70 -33q25 -35 25 -73 q0 -18 -29 -47l-119 -119q94 -92 94 -289q0 -178 -94 -285l119 -118q29 -29 29 -47q0 -39 -25 -74q-25 -33 -70 -33q-37 0 -59 25l-117 120q-104 -94 -291 -94q-186 0 -290 94zM426 926q-74 -78 -74 -197q0 -117 76 -194q74 -78 186 -78q113 0 187 78q76 78 76 194 q0 119 -74 197q-76 80 -189 80q-112 0 -188 -80z" />
<glyph unicode="&#xa5;" horiz-adv-x="1576" d="M309 1526l408 -686l407 686h260l-475 -758h410v-166h-477v-203h477v-168h-477v-323h-250v323h-477v168h477v203h-477v166h409l-475 758h260z" />
<glyph unicode="&#xa6;" horiz-adv-x="454" d="M104 496q0 123 123 122q123 0 123 -122v-398q0 -123 -123 -123t-123 123v398zM104 1454q0 123 123 123t123 -123v-397q0 -123 -123 -123t-123 123v397z" />
<glyph unicode="&#xa7;" horiz-adv-x="1175" d="M893 1417q186 -84 186 -237q0 -57 -41 -101q-41 -45 -96 -45q-57 0 -154 90q-94 88 -178 88q-61 0 -104 -38q-47 -41 -47 -103q0 -72 104 -119q29 -14 109 -43q80 -31 127 -51q164 -74 231 -131q104 -90 105 -217q0 -215 -217 -365q88 -115 88 -215q0 -172 -132 -278 q-123 -98 -301 -98q-184 0 -344 94q-164 96 -163 215q0 66 49 110q47 43 114 43q49 0 133 -96t175 -96q55 0 100 31q49 33 49 86q0 76 -100 129q-14 8 -221 90q-324 127 -324 370q0 205 182 353q-96 106 -96 215q0 178 133 284q125 100 313 101q175 0 320 -66zM711 319 q104 61 104 150q0 92 -151 154l-226 88q-90 -68 -90 -146q0 -92 105 -137z" />
<glyph unicode="&#xa8;" horiz-adv-x="948" d="M92 1280q0 178 160 178h508q70 0 110 -43q35 -41 35 -98t-37 -96q-41 -45 -108 -45h-361v-299h336q72 0 113 -43q37 -41 37 -99q0 -57 -37 -96q-43 -45 -113 -45h-336v-311h379q70 0 111 -43q35 -41 35 -99q0 -57 -37 -96q-41 -45 -109 -45h-528q-68 0 -113 43t-45 111 v1126zM596 1819q43 43 104 43t105 -43q43 -43 43 -105q0 -61 -43 -104t-105 -43q-61 0 -104 43t-43 104q0 62 43 105zM145 1819q43 43 105 43q61 0 104 -43t43 -105q0 -61 -43 -104t-104 -43t-105 43q-43 43 -43 104q0 62 43 105z" />
<glyph unicode="&#xa9;" horiz-adv-x="1638" d="M987 889q-49 78 -162 78q-186 0 -186 -238t186 -237q113 0 162 77q45 92 111 93q49 -8 65 -33q16 -20 17 -78q0 -78 -97 -156q-111 -88 -258 -88q-186 0 -299 121q-109 117 -108 301q0 184 108 301q113 121 299 121q147 0 258 -88q96 -78 97 -156q0 -57 -17 -78 q-16 -25 -65 -32q-66 0 -111 92zM287 1262q221 221 532 221t533 -221q221 -221 221 -533q0 -311 -221 -532t-533 -222q-311 0 -532 222q-221 221 -221 532q0 312 221 533zM416 326q168 -166 403 -166q238 0 404 166q166 168 166 403q0 238 -166 404t-404 165 q-236 0 -403 -165q-166 -166 -166 -404q0 -235 166 -403z" />
<glyph unicode="&#xaa;" horiz-adv-x="923" d="M750 1057q0 -76 8 -99q16 -51 106 -61l-49 -141q-186 6 -213 108q-47 -98 -229 -102h-13q-141 0 -237 110q-94 109 -94 281q0 168 94 281q96 111 244 110h6q170 0 211 -74v56h166v-469zM545 1327q-55 82 -152 82q-100 0 -153 -82q-41 -61 -41 -170q0 -113 41 -174 q51 -80 153 -80t152 80q41 63 41 174q0 107 -41 170z" />
<glyph unicode="&#xab;" horiz-adv-x="1024" d="M741 979q31 35 88 35q53 0 89 -35q31 -31 30 -78q0 -41 -22 -78l-162 -248l162 -243q23 -33 22 -70q0 -55 -33 -92q-35 -37 -90 -37q-68 0 -102 51l-211 326q-18 27 -18 74q0 45 49 114zM324 979q31 35 88 35q53 0 88 -35q31 -31 30 -78q0 -41 -22 -78l-162 -248 l162 -243q23 -33 22 -70q0 -55 -32 -92q-35 -37 -90 -37q-68 0 -103 51l-211 326q-18 27 -18 74q0 45 49 114z" />
<glyph unicode="&#xac;" horiz-adv-x="1228" d="M1034 870q123 0 123 -122v-465q0 -123 -123 -123t-123 123v342h-716q-123 0 -123 123t123 122h839z" />
<glyph unicode="&#xad;" horiz-adv-x="796" d="M616 723q117 0 117 -131q0 -127 -117 -127h-436q-117 0 -117 127q0 131 117 131h436z" />
<glyph unicode="&#xae;" horiz-adv-x="1638" d="M700 406q0 -98 -92 -99q-92 0 -92 99v632q0 86 94 86h232q305 0 305 -239q0 -215 -205 -226l145 -237q12 -20 13 -43q0 -72 -96 -72q-59 0 -113 99l-129 241h-62v-241zM854 795q109 0 109 90q0 92 -109 92h-154v-182h154zM287 1262q221 221 532 221t533 -221 q221 -221 221 -533q0 -311 -221 -532t-533 -222q-311 0 -532 222q-221 221 -221 532q0 312 221 533zM416 326q168 -166 403 -166q238 0 404 166q166 168 166 403q0 238 -166 404t-404 165q-236 0 -403 -165q-166 -166 -166 -404q0 -235 166 -403z" />
<glyph unicode="&#xaf;" horiz-adv-x="884" d="M-43 1909h934q102 -23 102 -105v-14q-18 -100 -102 -100h-934q-94 0 -109 116q29 103 109 103z" />
<glyph unicode="&#xb0;" horiz-adv-x="819" d="M291 1034q49 -51 119 -51t118 51q51 49 52 119q0 70 -52 119q-49 51 -118 51q-70 0 -119 -51q-51 -49 -51 -119t51 -119zM176 1386q96 96 234 97q137 0 233 -97q96 -96 96 -233t-96 -233t-233 -97q-137 0 -234 97q-96 96 -96 233t96 233z" />
<glyph unicode="&#xb1;" horiz-adv-x="1228" d="M492 938q0 123 122 123q123 0 123 -123v-131h297q123 0 123 -123t-123 -123h-297v-131q0 -123 -123 -123t-122 123v131h-297q-123 0 -123 123t123 123h297v131zM1034 246q123 0 123 -123t-123 -123h-839q-123 0 -123 123t123 123h839z" />
<glyph unicode="&#xb2;" horiz-adv-x="1116" d="M516 1645q121 0 209 -107q47 -70 47 -141q0 -113 -106 -213l-181 -203h228q55 0 67 -61v-7q-10 -61 -69 -61h-381q-63 12 -64 63v3q0 29 45 67l297 344q20 27 21 68q0 84 -82 114q-10 2 -27 2h-6q-74 0 -106 -79q-6 -20 -9 -52q-20 -47 -65 -47h-6q-66 14 -66 62 q0 129 125 211q68 37 129 37z" />
<glyph unicode="&#xb3;" horiz-adv-x="1114" d="M512 1653q104 0 178 -92q41 -55 41 -121v-8q0 -90 -55 -142q86 -66 86 -188q0 -129 -121 -215q-68 -37 -133 -37h-4q-152 0 -236 154q-20 55 -20 98q0 47 69 63q61 0 72 -63q0 -74 74 -115q25 -8 45 -8q68 0 104 76q10 23 11 39v14q0 70 -74 106l-68 15q-37 27 -37 57v2 q0 63 84 64q23 0 54 39q12 25 12 47q0 51 -49 75q-14 10 -35 11q-49 0 -72 -60q-8 -78 -28 -78q-14 -16 -48 -16q-70 14 -69 62v8q0 115 117 184q47 25 102 29z" />
<glyph unicode="&#xb5;" d="M84 938q0 74 41 119t106 45q66 0 107 -45t41 -119v-526q0 -88 59 -142q53 -49 131 -49t133 49q57 53 58 142v526q0 74 41 119t106 45q66 0 107 -45t41 -119v-786q0 -74 -41 -119t-107 -45t-106 39q-41 39 -41 102h-4q-59 -154 -189 -154q-117 0 -184 103h-4v-361 q0 -74 -41 -118q-41 -45 -107 -45t-106 45q-41 45 -41 118v1221z" />
<glyph unicode="&#xb6;" horiz-adv-x="1269" d="M487 743q-221 0 -340 93q-117 92 -116 258q0 205 145 292q119 72 359 72h520q123 0 123 -123v-1646q0 -123 -123 -123t-123 123v1585h-199v-1585q0 -123 -123 -123t-123 123v1054zM733 -311q0 -123 -123 -123t-123 123h246z" />
<glyph unicode="&#xb7;" horiz-adv-x="548" d="M387 688q47 -47 47 -113q0 -68 -47 -112q-47 -47 -113 -47t-112 47q-47 47 -47 112q0 66 47 113t112 47q66 0 113 -47z" />
<glyph unicode="&#xb8;" horiz-adv-x="1099" d="M322 446q14 -104 96 -161q74 -51 182 -52q86 0 195 60q111 59 139 59q47 0 84 -39t37 -88q0 -92 -158 -172q-156 -78 -324 -78q-246 0 -401 162q-152 158 -152 406q0 231 148 397q154 174 381 174t385 -176q145 -162 145 -360q0 -131 -129 -132h-628zM784 643 q-29 225 -235 225q-96 0 -160 -65q-63 -63 -74 -160h469zM672 1440q43 43 104 43t105 -43q43 -43 43 -105q0 -61 -43 -104t-105 -43q-61 0 -104 43t-43 104q0 62 43 105zM221 1440q43 43 105 43q61 0 104 -43t43 -105q0 -61 -43 -104t-104 -43t-105 43q-43 43 -43 104 q0 62 43 105z" />
<glyph unicode="&#xb9;" horiz-adv-x="1116" d="M543 1675h14q63 -14 64 -59v-676q-12 -61 -70 -61h-4q-66 16 -66 59v582q-14 -6 -37 -7q-51 0 -65 60v14q0 47 102 70z" />
<glyph unicode="&#xba;" horiz-adv-x="788" d="M381 1653q139 0 211 -148q35 -109 35 -200v-43q0 -115 -47 -230q-76 -117 -195 -117h-6q-127 0 -199 132q-43 106 -43 235v4q0 135 49 250q78 117 195 117zM266 1292v-18q0 -121 41 -199q33 -41 72 -41h4q94 0 111 166q6 29 8 84q0 100 -33 193q-37 53 -86 53 q-61 0 -90 -72q-27 -86 -27 -166z" />
<glyph unicode="&#xbb;" horiz-adv-x="1024" d="M678 575l-162 240q-23 33 -22 70q0 55 34 92q33 37 88 37q68 0 103 -51l211 -326q18 -27 18 -74q0 -45 -49 -114l-199 -281q-31 -35 -88 -35q-53 0 -86 35q-33 31 -32 78q0 41 22 78zM260 575l-162 240q-23 33 -22 70q0 55 35 92q33 37 88 37q68 0 102 -51l211 -326 q18 -27 18 -74q0 -45 -49 -114l-198 -281q-31 -35 -88 -35q-53 0 -86 35q-33 31 -33 78q0 41 22 78z" />
<glyph unicode="&#xbc;" horiz-adv-x="1615" d="M1239 1542h14q90 0 107 -104v-6q0 -47 -146 -211q-104 -147 -993 -1295q-41 -23 -84 -22q-100 27 -100 96v25q0 33 164 235q895 1167 968 1256q35 26 70 26zM283 1532q49 0 84 -57l-2 -70v-719l2 -41q-23 -68 -80 -67q-51 0 -78 53v725l-37 -8h-35q-53 29 -53 69 q0 76 119 94q0 5 80 21zM1206 866q53 0 82 -65l-2 -43v-434h62q68 0 79 -84q-27 -66 -84 -66h-57v-217q-35 -53 -82 -53q-80 14 -80 73v197h-344q-70 14 -69 68v26q373 481 426 561q28 37 69 37zM1200 653l-252 -329h176v329h76z" />
<glyph unicode="&#xbd;" horiz-adv-x="1640" d="M1223 1534h14q90 0 106 -100v-7q0 -47 -145 -210q-102 -147 -989 -1291q-41 -23 -84 -22q-100 27 -100 94v25q0 35 163 235q893 1163 967 1251q31 25 68 25zM268 1526q51 0 86 -60l-4 -67v-715l4 -41q-23 -70 -82 -70q-49 0 -75 56v721l-37 -9h-35q-53 31 -53 72 q0 74 118 92q0 3 78 21zM1118 850q211 0 301 -225l2 -45v-45q0 -119 -176 -289l-168 -195h258l25 4q76 -25 76 -59v-23q-12 -66 -76 -65h-457q-63 0 -80 72q0 29 209 253q227 250 228 275l4 33v32q-31 129 -140 129q-96 0 -139 -110q0 -84 -63 -105h-23q-53 0 -78 64 q0 195 213 287z" />
<glyph unicode="&#xbe;" horiz-adv-x="1693" d="M334 1538q160 0 239 -162q16 -43 17 -78v-24q0 -102 -70 -170q109 -72 109 -225q0 -211 -240 -291l-63 -4h-11q-207 0 -288 237l-4 62q0 35 55 69h31q72 0 79 -114q39 -106 131 -107h13q98 0 135 123l4 31q0 102 -117 143q-100 0 -100 80q14 72 100 72q55 0 80 92v26 q0 61 -84 91h-18q-70 0 -99 -84v-41q-29 -53 -71 -54h-17q-70 14 -69 68v8q0 172 200 246zM1327 1528h12q88 0 107 -105v-4q0 -45 -141 -211q-106 -145 -988 -1282q-39 -23 -81 -22q-100 27 -101 94v25q0 35 162 235q887 1157 960 1245q35 25 70 25zM1294 858q55 0 82 -63 l-4 -45v-428h64q66 0 77 -86q-27 -63 -81 -64h-60v-215q-31 -53 -82 -53q-76 14 -76 73v195h-342q-72 14 -71 68v26q371 475 424 555q28 37 69 37zM1288 649l-250 -327h176v327h74z" />
<glyph unicode="&#xbf;" horiz-adv-x="1126" d="M670 1098v-51q0 -184 -101 -310q-33 -41 -118 -116q-86 -80 -105 -99q-80 -94 -80 -213q0 -115 68 -178q66 -61 172 -61q131 0 201 98q57 80 57 182v49h244q-6 -207 -111 -346q-133 -182 -383 -182h-10q-203 4 -330 106q-150 121 -154 330v6q0 156 109 289q37 43 117 117 q78 74 102 102q82 92 82 226v51h240zM680 1526v-266h-258v266h258z" />
<glyph unicode="&#xc0;" horiz-adv-x="1290" d="M430 1313q63 170 219 170q160 0 219 -170l402 -1114q16 -43 16 -76q0 -59 -43 -98q-41 -37 -98 -37q-115 0 -150 106l-61 193h-569l-62 -191q-35 -109 -147 -108q-61 0 -107 41q-45 41 -45 102q0 33 14 68zM453 569h389l-191 594h-4z" />
<glyph unicode="&#xc1;" horiz-adv-x="1175" d="M399 270h242q86 0 137 47q55 47 56 132q0 162 -218 161h-217v-340zM1022 115q-127 -115 -344 -115h-422q-72 0 -117 41q-47 43 -47 115v1149q0 154 162 153h610q70 0 111 -43q35 -41 35 -98t-37 -96q-41 -45 -109 -45h-465v-295h242q236 0 367 -103q145 -113 145 -334 q0 -212 -131 -329z" />
<glyph unicode="&#xc2;" horiz-adv-x="1175" d="M92 1305q0 154 162 153h393q164 0 273 -98q113 -102 112 -262q0 -211 -190 -301v-4q131 -18 221 -117q90 -98 90 -232q0 -213 -131 -329q-127 -115 -344 -115h-422q-72 0 -117 41q-47 43 -47 115v1149zM399 881h160q166 0 166 161q0 70 -49 109q-45 37 -117 37h-160v-307 zM399 270h242q86 0 137 47q55 47 56 132q0 162 -218 161h-217v-340z" />
<glyph unicode="&#xc3;" horiz-adv-x="909" d="M92 1298q0 66 41 111q45 49 119 49h524q63 0 103 -43q35 -41 34 -98q0 -57 -34 -96q-37 -45 -103 -45h-377v-1029q0 -76 -43 -118q-43 -41 -110 -41q-68 0 -111 41q-43 43 -43 118v1151z" />
<glyph unicode="&#xc4;" horiz-adv-x="1503" d="M1493 -172q0 -76 -43 -119q-43 -41 -111 -41t-110 41q-43 43 -43 119v172h-869v-172q0 -76 -43 -119q-43 -41 -110 -41q-68 0 -111 41q-43 43 -43 119v283q0 74 45 118q43 41 109 41q45 0 96 252q49 248 49 453v323q0 74 45 119q41 41 109 41h692q68 0 109 -41 q45 -45 45 -119v-1028h30q68 0 109 -41q45 -45 45 -118v-283zM1001 1188h-385v-193q0 -461 -118 -725h503v918z" />
<glyph unicode="&#xc5;" horiz-adv-x="948" d="M92 1280q0 178 160 178h508q70 0 110 -43q35 -41 35 -98t-37 -96q-41 -45 -108 -45h-361v-299h336q72 0 113 -43q37 -41 37 -99q0 -57 -37 -96q-43 -45 -113 -45h-336v-311h379q70 0 111 -43q35 -41 35 -99q0 -57 -37 -96q-41 -45 -109 -45h-528q-68 0 -113 43t-45 111 v1126z" />
<glyph unicode="&#xc6;" horiz-adv-x="2007" d="M1954 23q-43 -35 -111 -35q-66 0 -155 96l-531 573v-522q0 -61 -43 -104t-110 -43q-68 0 -111 41q-43 39 -43 106v522l-531 -573q-90 -96 -155 -96q-68 0 -111 35q-49 39 -49 106q0 66 86 156l473 493l-387 381q-100 100 -100 164q0 63 47 107q43 41 104 40q66 0 119 -57 l504 -536v442q0 63 43 106q43 45 111 45t110 -40q43 -41 43 -111v-442l504 536q53 57 119 57q61 0 104 -40q47 -43 47 -107q0 -63 -100 -164l-387 -381l473 -493q86 -90 86 -156q0 -67 -49 -106z" />
<glyph unicode="&#xc7;" horiz-adv-x="1099" d="M61 319q39 43 101 43q37 0 139 -51q102 -53 207 -53q80 0 137 55q55 55 55 136q0 102 -65 145q-39 25 -139 39q-164 23 -164 133q0 78 59 111q18 8 125 36q127 35 127 150q0 59 -39 98q-41 39 -108 39q-80 0 -172 -43t-127 -43q-61 0 -101 45q-37 45 -37 107 q0 109 168 170q131 47 287 47q211 0 330 -111q106 -100 106 -264q0 -231 -180 -313q117 -31 191 -138q72 -104 71 -229q0 -190 -141 -317q-145 -135 -375 -136q-166 0 -305 50q-186 66 -186 192q-1 61 36 102z" />
<glyph unicode="&#xc8;" horiz-adv-x="1441" d="M1350 147q0 -76 -43 -118q-43 -41 -111 -41t-111 41q-43 43 -43 118v764h-4l-663 -856q-51 -68 -129 -67q-68 0 -111 41q-43 43 -43 118v1164q0 76 43 119q43 41 111 40q68 0 110 -40q43 -43 43 -119v-774h4l664 866q53 68 129 67q68 0 111 -40q43 -43 43 -119v-1164z " />
<glyph unicode="&#xc9;" horiz-adv-x="1441" d="M1350 147q0 -76 -43 -118q-43 -41 -111 -41t-111 41q-43 43 -43 118v764h-4l-663 -856q-51 -68 -129 -67q-68 0 -111 41q-43 43 -43 118v1164q0 76 43 119q43 41 111 40q68 0 110 -40q43 -43 43 -119v-774h4l664 866q53 68 129 67q68 0 111 -40q43 -43 43 -119v-1164z M477 1882q68 0 113 -70q47 -70 135 -69q92 0 143 69q51 70 123 70q37 0 66 -41q27 -39 26 -82q0 -102 -116 -162q-100 -51 -242 -51q-131 0 -225 49q-115 57 -115 164q0 123 92 123z" />
<glyph unicode="&#xca;" horiz-adv-x="1251" d="M92 1319q0 63 43 106q43 45 111 45t110 -40q43 -41 43 -111v-442l504 536q53 57 119 57q61 0 104 -40q47 -43 48 -107q0 -63 -101 -164l-387 -381l473 -493q86 -90 86 -156q0 -68 -49 -106q-43 -35 -111 -35q-66 0 -155 96l-531 573v-522q0 -61 -43 -104t-110 -43 q-68 0 -111 41q-43 39 -43 106v1184z" />
<glyph unicode="&#xcb;" horiz-adv-x="1441" d="M1350 147q0 -76 -43 -118q-43 -41 -111 -41t-111 41q-43 43 -43 118v1041h-405v-459q0 -438 -229 -637q-123 -104 -244 -104q-70 0 -107 45q-33 39 -32 96q0 90 114 143q190 84 191 396v630q0 74 45 119q41 41 108 41h713q68 0 109 -41q45 -45 45 -119v-1151z" />
<glyph unicode="&#xcc;" horiz-adv-x="1781" d="M242 1313q10 59 63 106q59 51 137 51q74 0 133 -45q53 -43 72 -102l242 -811h4l242 811q18 59 71 102q59 45 133 45q78 0 138 -51q53 -47 63 -106l191 -1143q2 -12 2 -35q0 -66 -43 -106q-41 -41 -105 -41q-139 0 -160 143l-120 834h-5l-245 -859q-35 -119 -164 -118 q-129 0 -164 118l-246 859h-4l-121 -834q-20 -143 -159 -143q-63 0 -105 41q-43 41 -43 106q0 23 2 35z" />
<glyph unicode="&#xcd;" horiz-adv-x="1441" d="M92 1311q0 76 43 119q43 41 111 40q68 0 110 -40q43 -43 43 -119v-434h643v434q0 76 43 119q43 41 111 40q68 0 111 -40q43 -43 43 -119v-1164q0 -76 -43 -118q-43 -41 -111 -41t-111 41q-43 43 -43 118v447h-643v-447q0 -76 -43 -118q-43 -41 -110 -41q-68 0 -111 41 q-43 43 -43 118v1164z" />
<glyph unicode="&#xce;" horiz-adv-x="1478" d="M1030 399q94 129 94 330q0 199 -96 328q-106 143 -289 143q-182 0 -288 -143q-96 -129 -97 -328q0 -201 95 -330q104 -141 290 -141q187 0 291 141zM231 193q-197 215 -196 536q0 324 196 537q199 217 508 217q305 0 506 -221q199 -217 199 -533q0 -322 -195 -536 q-199 -217 -510 -218q-309 1 -508 218z" />
<glyph unicode="&#xcf;" horiz-adv-x="1441" d="M1196 1458q68 0 109 -41q45 -45 45 -119v-1151q0 -76 -43 -118q-43 -41 -111 -41t-111 41q-43 43 -43 118v1041h-643v-1041q0 -76 -43 -118q-43 -41 -110 -41q-68 0 -111 41q-43 43 -43 118v1151q0 74 45 119q41 41 109 41h950z" />
<glyph unicode="&#xd0;" d="M92 1298q0 160 160 160h362q227 0 375 -135q150 -137 150 -354q0 -219 -152 -355q-143 -131 -360 -131h-228v-336q0 -76 -43 -118q-43 -41 -110 -41q-68 0 -111 41q-43 43 -43 118v1151zM399 754h209q94 0 154 63q57 59 57 154q0 94 -57 155q-59 61 -154 62h-209v-434z " />
<glyph unicode="&#xd1;" horiz-adv-x="1251" d="M231 1266q199 217 508 217q154 0 277 -47q164 -63 164 -183q0 -57 -35 -96q-37 -41 -92 -41q-31 0 -123 37q-94 35 -191 35q-182 0 -286 -139q-98 -127 -99 -326q0 -193 99 -317q104 -135 286 -136q96 0 197 43q98 43 129 43q61 0 102 -51q33 -43 33 -88 q0 -129 -174 -194q-127 -47 -287 -48q-309 0 -508 218q-197 215 -196 536q-1 324 196 537z" />
<glyph unicode="&#xd2;" horiz-adv-x="983" d="M338 1176h-223q-70 0 -107 45q-33 39 -33 96t37 98q39 43 103 43h753q63 0 103 -43q37 -41 37 -98q0 -141 -140 -141h-223v-1029q0 -76 -43 -118q-43 -41 -110 -41q-68 0 -111 41q-43 43 -43 118v1029z" />
<glyph unicode="&#xd3;" horiz-adv-x="1097" d="M1079 1253l-538 -1175q-43 -90 -131 -90q-63 0 -113 41q-51 43 -51 106q0 31 16 70l119 260l-381 786q-16 33 -16 72q0 61 51 107q49 41 112 40q88 0 132 -90l270 -551l252 551q41 90 135 90q61 0 111 -40q49 -43 49 -107q-1 -31 -17 -70z" />
<glyph unicode="&#xd4;" horiz-adv-x="1710" d="M1530 336q-152 -168 -377 -168q-72 0 -145 20v-41q0 -76 -43 -118q-43 -41 -111 -41t-111 41q-43 43 -43 118v41q-74 -20 -145 -20q-225 0 -375 168q-150 164 -149 399q0 238 145 402q152 168 379 168q57 0 145 -17v23q0 76 43 119q43 41 111 40q68 0 111 -40 q43 -43 43 -119v-23q88 16 145 17q227 0 379 -168q145 -164 145 -402q0 -235 -147 -399zM1274 942q-82 80 -197 80q-31 0 -78 -14v-541q49 -16 78 -16q117 0 197 77q84 80 84 207q0 125 -84 207zM709 1008q-47 14 -78 14q-115 0 -197 -80q-84 -82 -84 -207q0 -127 84 -207 q80 -78 197 -77q29 0 78 16v541z" />
<glyph unicode="&#xd5;" horiz-adv-x="1253" d="M449 780l-332 451q-33 43 -33 90q0 68 45 109q43 41 111 40q80 0 133 -75l254 -361l254 361q53 76 133 75q68 0 110 -40q45 -41 45 -109q0 -47 -32 -90l-332 -451l405 -544q35 -47 35 -105q0 -63 -43 -104q-45 -39 -112 -39q-78 0 -127 67l-336 467l-336 -467 q-49 -68 -127 -67q-68 0 -111 39q-45 41 -45 104q0 57 35 105z" />
<glyph unicode="&#xd6;" horiz-adv-x="1544" d="M1554 -172q0 -76 -43 -119q-43 -41 -110 -41q-68 0 -111 41q-43 43 -43 119v172h-1001q-68 0 -109 41q-45 45 -45 119v1151q0 76 43 119q43 41 111 40q68 0 110 -40q43 -43 43 -119v-1041h643v1041q0 76 43 119q43 41 111 40q68 0 111 -40q43 -43 43 -119v-1041h51 q68 0 108 -41q45 -45 45 -118v-283z" />
<glyph unicode="&#xd7;" horiz-adv-x="1290" d="M891 1311q0 76 43 119q43 41 110 40q68 0 111 -40q43 -43 43 -119v-1164q0 -76 -43 -118q-43 -41 -111 -41t-110 41q-43 43 -43 118v357h-250q-244 0 -405 135q-164 139 -164 356v316q0 76 43 119q43 41 110 40q68 0 111 -40q43 -43 43 -119v-299q0 -102 82 -166 q80 -59 201 -60h229v525z" />
<glyph unicode="&#xd8;" horiz-adv-x="2088" d="M246 0q-68 0 -109 41q-45 45 -45 119v1151q0 76 43 119q43 41 111 40q68 0 110 -40q43 -43 43 -119v-1041h500v1041q0 76 43 119q43 41 111 40q68 0 110 -40q43 -43 43 -119v-1041h500v1041q0 76 43 119q43 41 111 40q68 0 110 -40q43 -43 43 -119v-1151q0 -74 -45 -119 q-41 -41 -108 -41h-1614z" />
<glyph unicode="&#xd9;" horiz-adv-x="2191" d="M2218 -172q0 -76 -43 -119q-43 -41 -111 -41t-110 41q-43 43 -43 119v172h-1665q-68 0 -109 41q-45 45 -45 119v1151q0 76 43 119q43 41 111 40q68 0 110 -40q43 -43 43 -119v-1041h500v1041q0 76 43 119q43 41 111 40q68 0 110 -40q43 -43 43 -119v-1041h500v1041 q0 76 43 119q43 41 111 40q68 0 110 -40q43 -43 43 -119v-1041h51q68 0 109 -41q45 -45 45 -118v-283z" />
<glyph unicode="&#xda;" horiz-adv-x="1484" d="M727 270h201q84 0 137 52q55 53 55 137q0 76 -55 123q-57 49 -162 49h-176v-361zM115 1176q-70 0 -107 45q-33 39 -33 96t37 98q39 43 103 43h458q68 0 111 -41q43 -43 43 -119v-397h201q233 0 366 -108q145 -117 146 -338q0 -213 -131 -336q-129 -119 -344 -119h-381 q-72 0 -117 41q-47 43 -47 115v1020h-305z" />
<glyph unicode="&#xdb;" horiz-adv-x="1689" d="M1290 1311q0 76 43 119q43 41 111 40q68 0 110 -40q43 -43 43 -119v-1164q0 -76 -43 -118q-43 -41 -110 -41q-68 0 -111 41q-43 43 -43 118v1164zM399 270h211q84 0 138 52q55 53 55 137q0 76 -55 123q-57 49 -162 49h-187v-361zM610 901q233 0 367 -108 q145 -117 145 -338q0 -213 -131 -336q-129 -119 -344 -119h-391q-72 0 -117 41q-47 43 -47 115v1155q0 76 43 119q43 41 111 40q68 0 110 -40q43 -43 43 -119v-410h211z" />
<glyph unicode="&#xdc;" d="M399 270h211q84 0 138 52q55 53 55 137q0 76 -55 123q-57 49 -162 49h-187v-361zM610 901q233 0 367 -108q145 -117 145 -338q0 -213 -131 -336q-129 -119 -344 -119h-391q-72 0 -117 41q-47 43 -47 115v1155q0 76 43 119q43 41 111 40q68 0 110 -40q43 -43 43 -119v-410 h211z" />
<glyph unicode="&#xdd;" horiz-adv-x="1251" d="M465 594q-70 0 -111 45q-39 39 -39 96t37 99q41 43 113 43h420q-76 311 -367 311q-96 0 -190 -35q-92 -37 -123 -37q-55 0 -92 41q-35 39 -35 96q0 119 164 183q125 47 276 47q309 0 510 -217q195 -213 195 -537q0 -322 -197 -536q-199 -217 -508 -218q-160 0 -287 48 q-174 66 -174 194q0 45 33 88q41 51 103 51q31 0 129 -43q100 -43 196 -43q147 0 248 92q92 86 125 232h-426z" />
<glyph unicode="&#xde;" horiz-adv-x="2048" d="M1583 1057q-106 143 -289 143q-182 0 -288 -143q-96 -129 -97 -328q0 -201 95 -330q104 -141 290 -141t291 141q94 129 94 330q0 199 -96 328zM399 594v-447q0 -76 -43 -118q-43 -41 -110 -41q-68 0 -111 41q-43 43 -43 118v1164q0 76 43 119q43 41 111 40q68 0 110 -40 q43 -43 43 -119v-434h203q43 268 229 436q190 170 463 170q305 0 506 -221q199 -217 199 -533q0 -322 -195 -536q-199 -217 -510 -218q-274 0 -465 177q-186 170 -229 442h-201z" />
<glyph unicode="&#xdf;" d="M1077 147q0 -76 -43 -118q-43 -41 -110 -41q-68 0 -111 41q-43 43 -43 118v445h-4l-455 -551q-45 -53 -118 -53q-66 0 -111 49q-43 47 -43 108q0 47 41 91l348 372q-166 27 -268 121q-111 104 -111 266q0 463 510 463h361q158 0 157 -160v-1151zM770 1176h-211 q-190 0 -190 -181q0 -84 53 -133q51 -49 137 -49h211v363z" />
<glyph unicode="&#xe0;" horiz-adv-x="1087" d="M508 221q223 0 223 221v47q-209 0 -268 -12q-133 -33 -133 -149q0 -107 178 -107zM455 -25q-184 0 -293 91q-115 92 -115 262q0 383 672 383v80q0 78 -129 77q-98 0 -176 -49q-78 -51 -105 -51q-129 0 -129 125q0 86 139 156q131 66 271 65q424 0 424 -330v-639 q0 -66 -39 -110q-41 -47 -105 -47q-113 0 -139 108q-77 -121 -276 -121z" />
<glyph unicode="&#xe1;" d="M952 137q-150 -162 -383 -162q-371 0 -491 361q-37 111 -37 342q0 403 166 565q170 162 545 191q23 2 69 26q43 23 68 23q57 0 96 -39t39 -86q0 -66 -55 -117q-63 -55 -168 -61q-268 -12 -402 -82q-98 -51 -106 -152l6 -6q100 129 291 129q213 0 362 -166 q145 -164 146 -383q-1 -227 -146 -383zM748 725q-66 94 -179 94t-178 -94q-55 -80 -55 -195q0 -113 57 -192q63 -92 176 -92t176 92q57 80 58 192q0 115 -55 195z" />
<glyph unicode="&#xe2;" horiz-adv-x="1067" d="M84 954q0 55 43 97q41 39 98 39h396q123 0 202 -74q84 -76 84 -197q0 -158 -141 -223v-4q98 -14 166 -86q68 -76 67 -174q0 -158 -98 -246q-96 -86 -258 -86h-418q-57 0 -98 41q-43 39 -43 96v817zM375 657h119q123 0 122 121q0 109 -122 109h-119v-230zM375 203h180 q143 0 143 133q0 121 -161 121h-162v-254z" />
<glyph unicode="&#xe3;" horiz-adv-x="839" d="M74 961q0 53 37 92q37 37 92 37h495q141 0 142 -129q0 -129 -142 -130h-329v-679q0 -74 -41 -119t-107 -45t-106 45q-41 45 -41 119v809z" />
<glyph unicode="&#xe4;" horiz-adv-x="1224" d="M1229 -147q0 -74 -41 -119t-107 -45t-106 45q-41 45 -41 119v147h-631v-147q0 -74 -41 -119t-106 -45q-66 0 -107 45t-41 119v241q0 74 41 119t107 45h16q74 256 74 668q0 164 147 164h525q66 0 106 -46q41 -45 41 -118v-668h16q66 0 107 -45t41 -119v-241zM786 852h-251 q-10 -367 -76 -610h327v610z" />
<glyph unicode="&#xe5;" horiz-adv-x="1099" d="M322 446q14 -104 96 -161q74 -51 182 -52q86 0 195 60q111 59 139 59q47 0 84 -39t37 -88q0 -92 -158 -172q-156 -78 -324 -78q-246 0 -401 162q-152 158 -152 406q0 231 148 397q154 174 381 174t385 -176q145 -162 145 -360q0 -131 -129 -132h-628zM784 643 q-29 225 -235 225q-96 0 -160 -65q-63 -63 -74 -160h469z" />
<glyph unicode="&#xe6;" horiz-adv-x="1593" d="M1550 29q-39 -41 -98 -41q-55 0 -141 90l-361 383h-4v-309q0 -74 -41 -119t-106 -45q-66 0 -107 45t-41 119v309h-4l-360 -383q-86 -90 -142 -90q-57 0 -98 41t-41 98q0 61 37 98l358 346l-274 281q-57 61 -57 117q0 51 34 92q37 41 91 41q78 0 133 -64l323 -370v270 q0 74 41 119t107 45t106 -45q41 -45 41 -119v-270l324 370q55 63 133 64q53 0 90 -41q35 -41 35 -92q0 -55 -58 -117l-274 -281l358 -346q37 -37 37 -98q0 -57 -41 -98z" />
<glyph unicode="&#xe7;" horiz-adv-x="907" d="M754 76q-109 -100 -293 -101q-164 0 -289 64q-131 66 -131 162q0 41 33 82q39 49 94 49t127 -49q74 -49 145 -50q129 0 129 99q0 104 -131 129q-70 10 -92 24q-41 25 -41 86q0 84 111 111t110 102q0 72 -90 72q-53 0 -133 -43t-102 -43q-51 0 -86 41q-35 39 -35 90 q0 98 135 162q115 51 246 51q164 0 258 -88q82 -80 82 -197q0 -168 -133 -235q84 -27 137 -107q51 -78 51 -170q0 -145 -102 -241z" />
<glyph unicode="&#xe8;" d="M1055 152q0 -74 -41 -119t-107 -45t-106 45q-41 45 -41 119v434h-4l-404 -531q-51 -68 -121 -67q-66 0 -106 45q-41 45 -41 119v786q0 74 41 119t106 45q66 0 107 -45t41 -119v-426h4l377 500q70 90 147 90q66 0 107 -45t41 -119v-786z" />
<glyph unicode="&#xe9;" d="M360 1483q63 0 113 -70q49 -70 113 -70q53 0 104 70t121 70q37 0 66 -41q27 -39 26 -82q0 -100 -112 -162q-94 -51 -205 -51q-115 0 -205 49q-113 59 -113 164q0 123 92 123zM1055 152q0 -74 -41 -119t-107 -45t-106 45q-41 45 -41 119v434h-4l-404 -531 q-51 -68 -121 -67q-66 0 -106 45q-41 45 -41 119v786q0 74 41 119t106 45q66 0 107 -45t41 -119v-426h4l377 500q70 90 147 90q66 0 107 -45t41 -119v-786z" />
<glyph unicode="&#xea;" horiz-adv-x="1024" d="M84 938q0 74 41 119t106 45q66 0 107 -45t41 -119v-270l323 370q55 63 134 64q53 0 90 -41q35 -41 35 -92q0 -55 -58 -117l-274 -281l358 -346q37 -37 37 -98q0 -57 -41 -98q-39 -41 -98 -41q-55 0 -142 90l-360 383h-4v-309q0 -74 -41 -119t-107 -45t-106 45 q-41 45 -41 119v786z" />
<glyph unicode="&#xeb;" d="M215 926q0 74 41 118q41 45 106 46h545q66 0 107 -46q41 -45 41 -118v-774q0 -74 -41 -119t-107 -45t-106 45q-41 45 -41 119v679h-250v-305q0 -260 -107 -403q-100 -135 -270 -135q-59 0 -94 41q-35 37 -35 90q0 92 90 121q121 37 121 252v434z" />
<glyph unicode="&#xec;" horiz-adv-x="1478" d="M1389 29q-39 -41 -101 -41q-135 0 -153 131l-76 538h-4l-166 -565q-31 -104 -154 -104q-121 0 -153 104l-164 565h-4l-74 -538q-18 -131 -154 -131q-59 0 -100 41q-39 41 -39 100q0 18 2 29l148 815q8 49 59 86q53 43 125 43q66 0 121 -39q49 -35 63 -82l170 -539h4 l168 539q14 47 64 82q55 39 121 39q72 0 127 -43q51 -37 59 -86l147 -815q2 -10 2 -29q1 -59 -38 -100z" />
<glyph unicode="&#xed;" d="M1055 152q0 -74 -41 -119t-107 -45t-106 45q-41 45 -41 119v286h-381v-286q0 -74 -41 -119t-107 -45t-106 45q-41 45 -41 119v786q0 74 41 119t106 45q66 0 107 -45t41 -119v-242h381v242q0 74 41 119t106 45q66 0 107 -45t41 -119v-786z" />
<glyph unicode="&#xee;" d="M950 940q147 -166 148 -397q0 -236 -146 -400q-150 -168 -383 -168t-383 168q-145 164 -145 400q0 231 147 397q154 174 381 174t381 -174zM391 745q-55 -84 -55 -202q0 -117 57 -201q63 -96 176 -96t176 96q57 84 58 201q0 119 -55 202q-66 98 -179 99q-112 -1 -178 -99 z" />
<glyph unicode="&#xef;" d="M1055 152q0 -74 -41 -119t-107 -45t-106 45q-41 45 -41 119v679h-381v-679q0 -74 -41 -119t-107 -45t-106 45q-41 45 -41 119v774q0 74 41 118q41 45 106 46h676q66 0 107 -46q41 -45 41 -118v-774z" />
<glyph unicode="&#xf0;" horiz-adv-x="1175" d="M84 938q0 74 41 119t106 45q119 0 148 -123q84 135 280 135q223 0 357 -184q119 -166 119 -400q0 -219 -131 -380q-141 -174 -355 -175q-152 0 -270 103v-361q0 -74 -41 -118q-41 -45 -107 -45t-106 45q-41 45 -41 118v1221zM434 346q63 -100 176 -100q106 0 172 96 q57 86 58 201q0 117 -58 202q-66 98 -172 99q-111 0 -174 -92q-57 -80 -57 -199q0 -121 55 -207z" />
<glyph unicode="&#xf1;" horiz-adv-x="948" d="M899 834q-33 -47 -82 -48q-35 0 -108 29q-76 29 -125 29q-119 0 -187 -94q-61 -84 -61 -207q0 -117 63 -203q72 -94 185 -94q41 0 125 30q82 31 94 31q51 0 90 -39q37 -37 37 -90q0 -100 -139 -158q-109 -45 -222 -45q-233 0 -383 168q-145 164 -145 400q0 231 147 397 q154 174 381 174q121 0 224 -39q137 -53 137 -147q0 -51 -31 -94z" />
<glyph unicode="&#xf2;" horiz-adv-x="978" d="M336 831h-207q-129 0 -129 130q0 55 37 92t92 37h709q141 0 141 -129t-141 -130h-207v-679q0 -74 -41 -119t-107 -45t-106 45q-41 45 -41 119v679z" />
<glyph unicode="&#xf3;" horiz-adv-x="985" d="M10 899q-14 39 -14 76q0 53 47 92q43 35 92 35q109 0 148 -105l202 -555l217 555q39 104 148 105q49 0 92 -35q47 -39 47 -92q0 -45 -14 -76l-494 -1229q-47 -117 -139 -116q-72 0 -115 38q-39 37 -39 89q0 39 19 86l129 319z" />
<glyph unicode="&#xf4;" horiz-adv-x="1736" d="M1579 150q-127 -174 -332 -175q-133 0 -233 88v-346q0 -74 -41 -118q-41 -45 -107 -45t-106 45q-41 45 -41 118v346q-100 -88 -234 -88q-203 0 -329 175q-117 158 -117 380q0 238 106 400q119 184 332 184q162 0 242 -108v313q0 74 41 119t106 45q66 0 107 -45t41 -119 v-313q80 109 241 108q213 0 334 -184q104 -162 105 -400q0 -222 -115 -380zM1348 745q-59 98 -158 99q-123 0 -176 -129v-332q53 -137 176 -137q100 0 158 96q51 86 51 201q0 116 -51 202zM719 715q-53 129 -176 129q-100 0 -158 -99q-51 -86 -51 -202q0 -115 51 -201 q57 -96 158 -96q123 0 176 137v332z" />
<glyph unicode="&#xf5;" horiz-adv-x="1024" d="M340 571l-250 281q-45 53 -45 106q0 57 47 101q47 43 105 43q61 0 108 -58l207 -258l207 258q47 57 108 58q57 0 105 -43q47 -43 47 -101q0 -53 -45 -106l-250 -281l299 -340q41 -45 41 -100q0 -63 -41 -104q-39 -39 -104 -39q-68 0 -123 65l-244 299l-244 -299 q-55 -66 -123 -65q-66 0 -104 39q-41 41 -41 104q0 55 41 100z" />
<glyph unicode="&#xf6;" horiz-adv-x="1214" d="M1071 258q66 0 107 -45t41 -119v-241q0 -74 -41 -119t-107 -45t-106 45q-41 45 -41 119v147h-693q-66 0 -106 45q-41 45 -41 119v774q0 74 41 119t106 45q66 0 107 -45t41 -119v-680h381v680q0 74 41 119t106 45q66 0 107 -45t41 -119v-680h16z" />
<glyph unicode="&#xf7;" horiz-adv-x="1067" d="M371 758q0 -123 170 -123h149v303q0 74 41 119t107 45t106 -45q41 -45 41 -119v-786q0 -74 -41 -119t-106 -45q-66 0 -107 45t-41 119v225h-188q-182 0 -303 102q-123 104 -123 266v193q0 74 41 119t106 45q66 0 107 -45t41 -119v-180z" />
<glyph unicode="&#xf8;" horiz-adv-x="1638" d="M231 0q-66 0 -106 45q-41 45 -41 119v774q0 74 41 119t106 45q66 0 107 -45t41 -119v-680h299v680q0 74 41 119t106 45q66 0 107 -45t41 -119v-680h299v680q0 74 41 119t106 45q66 0 107 -45t41 -119v-774q0 -74 -41 -119t-107 -45h-1188z" />
<glyph unicode="&#xf9;" horiz-adv-x="1730" d="M1731 -147q0 -74 -41 -119t-107 -45t-106 45q-41 45 -41 119v147h-1205q-66 0 -106 45q-41 45 -41 119v774q0 74 41 119t106 45q66 0 107 -45t41 -119v-680h299v680q0 74 41 119t106 45q66 0 107 -45t41 -119v-680h299v680q0 74 41 119t106 45q66 0 107 -45t41 -119v-680 h16q66 0 107 -45t41 -119v-241z" />
<glyph unicode="&#xfa;" horiz-adv-x="1275" d="M1133 92q-98 -92 -265 -92h-385q-66 0 -106 45q-41 45 -41 119v667h-207q-129 0 -129 130q0 55 37 92t92 37h354q66 0 107 -46q41 -45 41 -118v-230h209q180 0 284 -84q111 -90 111 -262q0 -164 -102 -258zM813 453h-182v-209h194q115 0 115 110q0 99 -127 99z" />
<glyph unicode="&#xfb;" horiz-adv-x="1499" d="M379 244h194q115 0 115 110q0 98 -127 99h-182v-209zM231 0q-66 0 -106 45q-41 45 -41 119v774q0 74 41 119t106 45q66 0 107 -45t41 -119v-242h209q180 0 284 -84q111 -90 111 -262q0 -164 -102 -258q-98 -92 -265 -92h-385zM1128 938q0 74 41 119t107 45t106 -45 q41 -45 41 -119v-786q0 -74 -41 -119t-106 -45q-66 0 -107 45t-41 119v786z" />
<glyph unicode="&#xfc;" horiz-adv-x="1024" d="M379 244h194q115 0 115 110q0 98 -127 99h-182v-209zM231 0q-66 0 -106 45q-41 45 -41 119v774q0 74 41 119t106 45q66 0 107 -45t41 -119v-242h209q180 0 284 -84q111 -90 111 -262q0 -164 -102 -258q-98 -92 -265 -92h-385z" />
<glyph unicode="&#xfd;" horiz-adv-x="948" d="M381 451q-127 0 -127 116q0 117 127 117h215q-63 160 -223 160q-49 0 -125 -29q-74 -29 -109 -29q-49 0 -82 48q-31 43 -30 94q0 94 137 147q102 39 223 39q227 0 381 -174q147 -166 147 -397q0 -236 -145 -400q-150 -168 -383 -168q-113 0 -219 45q-141 57 -141 158 q0 53 36 90q39 39 91 39q12 0 94 -31q84 -31 125 -30q182 0 235 205h-227z" />
<glyph unicode="&#xfe;" horiz-adv-x="1593" d="M1399 143q-150 -168 -383 -168q-205 0 -348 134q-139 129 -172 329h-117v-286q0 -74 -41 -119t-107 -45t-106 45q-41 45 -41 119v786q0 74 41 119t106 45q66 0 107 -45t41 -119v-242h127q47 182 182 297q141 121 328 121q227 0 381 -174q147 -166 147 -397 q0 -236 -145 -400zM1194 745q-66 98 -178 99q-113 0 -178 -99q-55 -84 -56 -202q0 -117 58 -201q63 -96 176 -96t176 96q57 84 57 201q0 118 -55 202z" />
<glyph unicode="&#xff;" horiz-adv-x="983" d="M608 879h-100q-143 0 -143 -136q0 -135 143 -135h100v271zM315 461q-246 61 -245 282q0 346 381 347h305q66 0 106 -46q41 -45 41 -118v-774q0 -74 -41 -119t-106 -45q-66 0 -107 45t-41 119v262h-4l-313 -379q-39 -47 -107 -47q-59 0 -100 43q-39 43 -39 98q0 45 37 82z " />
<glyph unicode="&#x100;" horiz-adv-x="1183" d="M1141 61q8 -23 9 -36t-7 -20t-26.5 -9t-49.5 -2q-33 0 -51.5 2t-27.5 5t-13 9t-8 15l-113 315h-537l-106 -311q-2 -8 -7 -15.5t-15.5 -11.5t-28 -6t-43.5 -2q-31 0 -49.5 3t-25.5 9t-6 20.5t7 34.5l434 1203q4 12 11.5 18t19.5 10t31.5 6t50.5 2t52.5 -2t33.5 -6t19 -11 t12 -17zM584 1122v0l-224 -645h451zM872 1589q6 0 12.5 -4t10.5 -11t6 -20.5t2 -29.5t-2 -28.5t-6 -22t-10 -13.5t-13 -4h-546q-8 0 -14.5 4t-10.5 13.5t-6 21.5t-2 29q0 16 2 29.5t6 20.5t10 11t15 4h546zM162 1294z" />
<glyph unicode="&#x101;" horiz-adv-x="980" d="M831 25q0 -12 -8 -18.5t-22.5 -9.5t-40.5 -3q-27 0 -42.5 3t-22.5 9t-7 19v90q-57 -63 -130 -98t-155 -35q-70 0 -128 18t-98 53t-62.5 86t-22.5 117q0 76 31 131t89 92t142 56.5t189 19.5h125v70q0 51 -11.5 91t-36 66.5t-63.5 40t-96 13.5q-61 0 -109.5 -14.5 t-85.5 -32t-61.5 -32t-34.5 -14.5q-8 0 -14 4.5t-11.5 12.5t-7.5 20.5t-2 26.5q0 25 4 39t17.5 27.5t46.5 31t76 31.5t94 24.5t102 10.5q98 0 166 -22.5t110 -64.5t61 -105.5t19 -147.5v-606zM668 434h-142q-68 0 -118 -11t-82.5 -33.5t-49 -54.5t-16.5 -73q0 -70 45 -110.5 t125 -40.5q66 0 121 32.5t117 100.5v190zM735 1292q8 0 14.5 -3t10.5 -10t6 -20.5t2 -29.5q0 -18 -2 -29.5t-6 -20t-10.5 -12.5t-14.5 -4h-479q-6 0 -13 4t-11.5 12.5t-6.5 19.5t-2 30q0 16 2 29.5t6.5 20.5t11.5 10t13 3h479zM92 950z" />
<glyph unicode="&#x102;" horiz-adv-x="1183" d="M1141 61q8 -23 9 -36t-7 -20t-26.5 -9t-49.5 -2q-33 0 -51.5 2t-27.5 5t-13 9t-8 15l-113 315h-537l-106 -311q-2 -8 -7 -15.5t-15.5 -11.5t-28 -6t-43.5 -2q-31 0 -49.5 3t-25.5 9t-6 20.5t7 34.5l434 1203q4 12 11.5 18t19.5 10t31.5 6t50.5 2t52.5 -2t33.5 -6t19 -11 t12 -17zM584 1122v0l-224 -645h451zM858 1665q0 -63 -17.5 -113.5t-51 -85t-83 -53t-110.5 -18.5q-68 0 -117 20.5t-80.5 56t-46 85t-14.5 108.5q0 14 11 20.5t46 6.5t50.5 -4.5t15.5 -19.5t8 -50t25.5 -56.5t43 -33.5t60.5 -12q51 0 82 24.5t42 57t12 56t12.5 31t52.5 7.5 q37 0 48 -6.5t11 -20.5zM205 1294z" />
<glyph unicode="&#x103;" horiz-adv-x="980" d="M831 25q0 -12 -8 -18.5t-22.5 -9.5t-40.5 -3q-27 0 -42.5 3t-22.5 9t-7 19v90q-57 -63 -130 -98t-155 -35q-70 0 -128 18t-98 53t-62.5 86t-22.5 117q0 76 31 131t89 92t142 56.5t189 19.5h125v70q0 51 -11.5 91t-36 66.5t-63.5 40t-96 13.5q-61 0 -109.5 -14.5 t-85.5 -32t-61.5 -32t-34.5 -14.5q-8 0 -14 4.5t-11.5 12.5t-7.5 20.5t-2 26.5q0 25 4 39t17.5 27.5t46.5 31t76 31.5t94 24.5t102 10.5q98 0 166 -22.5t110 -64.5t61 -105.5t19 -147.5v-606zM668 434h-142q-68 0 -118 -11t-82.5 -33.5t-49 -54.5t-16.5 -73q0 -70 45 -110.5 t125 -40.5q66 0 121 32.5t117 100.5v190zM635 1366q0 14 12 21.5t45 7.5q20 0 31.5 -1t18 -5.5t9.5 -9.5t3 -13q0 -68 -16.5 -118t-49.5 -84t-82 -51t-112 -17q-68 0 -116 18.5t-80 52t-46 83.5t-14 114q0 16 11 23.5t46 7.5q18 0 29.5 -2t17.5 -5.5t9 -9.5t3 -12 q4 -35 12.5 -63.5t25 -48t42 -31t60.5 -11.5q31 0 55 9.5t42.5 28t30 46t13.5 70.5zM104 950z" />
<glyph unicode="&#x104;" horiz-adv-x="1183" d="M1174 -291q0 -14 -2.5 -24.5t-6.5 -17.5t-11 -11t-26.5 -9t-38 -7t-37 -3.5t-36.5 -1.5q-47 0 -86 8.5t-66.5 26t-43 46t-15.5 69.5q0 14 4 31.5t14.5 38t27.5 44t44 50.5l72 71l-113 320h-537l-106 -311q-4 -8 -8 -15.5t-14.5 -11.5t-28 -6t-43.5 -2q-31 0 -49.5 3 t-25.5 9t-6 20.5t7 34.5l434 1203q4 12 11.5 18t19.5 10t31.5 6t50.5 2t52.5 -2t33.5 -6t19 -10t12 -18l419 -1164q8 -25 12.5 -40t0.5 -29.5t-15.5 -28.5t-33.5 -37l-76 -76q-25 -25 -34 -43t-9 -36q0 -25 19.5 -38.5t66.5 -13.5h90q14 0 20.5 -9t6.5 -40zM584 1122v0 l-224 -645h451z" />
<glyph unicode="&#x105;" horiz-adv-x="980" d="M899 -291q0 -14 -1 -24.5t-5 -16.5t-10 -9t-15 -7q-27 -8 -57.5 -12.5t-71.5 -4.5q-90 0 -141 38t-51 112q0 16 3 33.5t12 37t24.5 41t42.5 46.5l61 61v113h-2q-57 -66 -130 -100.5t-155 -34.5q-70 0 -128 18t-98 53t-62.5 86t-22.5 117q0 76 31 131t89 92t142 56.5 t189 19.5h125v70q0 51 -11.5 91t-36 66.5t-63.5 40t-96 13.5q-61 0 -109.5 -14.5t-85.5 -32t-61.5 -32t-34.5 -14.5q-8 0 -14 4.5t-11.5 12.5t-7.5 20.5t-2 26.5q0 25 4 39t17.5 27.5t46.5 31t76 31.5t94 24.5t102 10.5q98 0 166 -22.5t110 -64.5t61 -105.5t19 -147.5v-598 q0 -27 -6 -48.5t-22 -37.5l-58 -58q-23 -25 -30.5 -43t-7.5 -34q0 -53 69 -54h94q16 0 22.5 -9t6.5 -40zM668 434h-142q-68 0 -118 -11t-82.5 -33.5t-49 -54.5t-16.5 -73q0 -70 45 -110.5t125 -40.5q66 0 121 32.5t117 100.5v190z" />
<glyph unicode="&#x106;" horiz-adv-x="1091" d="M1036 182q0 -14 -1 -26.5t-4 -21.5t-6 -16t-13.5 -17.5t-42 -31t-79.5 -40t-109.5 -32.5t-135.5 -13q-125 0 -226.5 42t-173 123.5t-110.5 202.5t-39 279q0 160 42 285.5t117 214t179.5 134.5t231.5 46q57 0 109 -11.5t97.5 -27t80 -37t49 -34.5t18.5 -20t6 -16.5t3 -23 t1 -31.5t-2 -32.5t-5 -24t-9 -14.5t-15 -5q-14 0 -38.5 19.5t-64.5 43t-96.5 43t-133.5 19.5q-86 0 -157 -33.5t-121 -101.5t-77.5 -164t-27.5 -219q0 -125 26.5 -219t75.5 -157.5t122 -96.5t163 -33q78 0 135 19.5t97 43t66.5 42t41.5 18.5q8 0 12 -2t7 -11t5 -23.5 t2 -39.5zM723 1651q10 14 20.5 20t23.5 10.5t30.5 6.5t44.5 2q29 0 46 -5.5t24.5 -12.5t4 -15t-11.5 -19l-227 -213q-10 -10 -18.5 -15t-19.5 -8t-25.5 -5t-34.5 -2q-25 0 -37.5 3t-17.5 8t-3 13t10 19zM389 1294z" />
<glyph unicode="&#x107;" horiz-adv-x="864" d="M801 162q0 -16 -1 -28.5t-4 -22t-6.5 -15.5t-15.5 -18t-43 -30.5t-67.5 -33t-80.5 -23.5t-91 -9q-98 0 -173 31.5t-125.5 93t-77 150.5t-26.5 208q0 133 33 228t89 155.5t133 90.5t165 30q43 0 84 -8.5t74.5 -20.5t60.5 -29.5t38 -30t16 -19.5t8.5 -16t4.5 -21.5t1 -28.5 q0 -39 -9.5 -54.5t-21.5 -15.5q-16 0 -35.5 16.5t-49.5 36t-73 35.5t-100 16q-119 0 -182.5 -91t-63.5 -265q0 -88 16.5 -152.5t48 -108.5t79 -65.5t106.5 -21.5q57 0 100 17.5t75 39t53.5 39t31.5 17.5q8 0 13.5 -4.5t8.5 -13.5t5 -23.5t2 -34.5zM551 1366q6 10 14 17.5 t19.5 11.5t29 6t39.5 2q29 0 46.5 -4t24.5 -10.5t6 -14.5t-9 -18l-180 -234q-8 -10 -15.5 -15t-15.5 -9t-21.5 -5t-33.5 -1q-23 0 -35 3t-18.5 8t-4.5 12t9 20zM264 950z" />
<glyph unicode="&#x108;" horiz-adv-x="1091" d="M1036 182q0 -14 -1 -26.5t-4 -21.5t-6 -16t-13.5 -17.5t-42 -31t-79.5 -40t-109.5 -32.5t-135.5 -13q-125 0 -226.5 42t-173 123.5t-110.5 202.5t-39 279q0 160 42 285.5t117 214t179.5 134.5t231.5 46q57 0 109 -11.5t97.5 -27t80 -37t49 -34.5t18.5 -20t6 -16.5t3 -23 t1 -31.5t-2 -32.5t-5 -24t-9 -14.5t-15 -5q-14 0 -38.5 19.5t-64.5 43t-96.5 43t-133.5 19.5q-86 0 -157 -33.5t-121 -101.5t-77.5 -164t-27.5 -219q0 -125 26.5 -219t75.5 -157.5t122 -96.5t163 -33q78 0 135 19.5t97 43t66.5 42t41.5 18.5q8 0 12 -2t7 -11t5 -23.5 t2 -39.5zM643 1690q23 0 36 -1t24.5 -5.5t18.5 -9.5t15 -13l215 -227q8 -10 10.5 -17.5t-4 -12.5t-19.5 -7t-36 -2q-31 0 -48 2t-28.5 4t-17.5 6t-12 10l-154 172l-160 -168q-8 -8 -15 -13t-19.5 -8t-31 -4t-44.5 -1q-25 0 -38 3t-19.5 7t-4.5 11t13 18l223 227q8 8 16 13 t19.5 9.5t26 5.5t34.5 1zM178 1294z" />
<glyph unicode="&#x109;" horiz-adv-x="864" d="M801 162q0 -16 -1 -28.5t-4 -22t-6.5 -15.5t-15.5 -18t-43 -30.5t-67.5 -33t-80.5 -23.5t-91 -9q-98 0 -173 31.5t-125.5 93t-77 150.5t-26.5 208q0 133 33 228t89 155.5t133 90.5t165 30q43 0 84 -8.5t74.5 -20.5t60.5 -29.5t38 -30t16 -19.5t8.5 -16t4.5 -21.5t1 -28.5 q0 -39 -9.5 -54.5t-21.5 -15.5q-16 0 -35.5 16.5t-49.5 36t-73 35.5t-100 16q-119 0 -182.5 -91t-63.5 -265q0 -88 16.5 -152.5t48 -108.5t79 -65.5t106.5 -21.5q57 0 100 17.5t75 39t53.5 39t31.5 17.5q8 0 13.5 -4.5t8.5 -13.5t5 -23.5t2 -34.5zM352 1120q-6 -10 -12 -15 t-14.5 -8t-20.5 -4t-33 -1q-27 0 -41 3t-19 9t-1 17.5t16 25.5l164 229q6 8 13.5 12.5t17.5 7.5t25.5 5t37.5 2q20 0 35 -2t25 -5t16 -8.5t10 -11.5l166 -229q10 -14 14.5 -25.5t0.5 -17.5t-19.5 -9t-42.5 -3q-20 0 -32.5 1t-20.5 4t-13.5 9t-11.5 14l-131 180zM78 950z" />
<glyph unicode="&#x10a;" horiz-adv-x="1091" d="M1036 182q0 -14 -1 -26.5t-4 -21.5t-6 -16t-13.5 -17.5t-42 -31t-79.5 -40t-109.5 -32.5t-135.5 -13q-125 0 -226.5 42t-173 123.5t-110.5 202.5t-39 279q0 160 42 285.5t117 214t179.5 134.5t231.5 46q57 0 109 -11.5t97.5 -27t80 -37t49 -34.5t18.5 -20t6 -16.5t3 -23 t1 -31.5t-2 -32.5t-5 -24t-9 -14.5t-15 -5q-14 0 -38.5 19.5t-64.5 43t-96.5 43t-133.5 19.5q-86 0 -157 -33.5t-121 -101.5t-77.5 -164t-27.5 -219q0 -125 26.5 -219t75.5 -157.5t122 -96.5t163 -33q78 0 135 19.5t97 43t66.5 42t41.5 18.5q8 0 12 -2t7 -11t5 -23.5 t2 -39.5zM754 1530q0 -57 -21.5 -77.5t-79.5 -20.5q-55 0 -76.5 20.5t-21.5 75.5q0 53 21.5 74.5t78.5 21.5q55 0 77 -20.5t22 -73.5zM424 1294z" />
<glyph unicode="&#x10b;" horiz-adv-x="864" d="M801 162q0 -16 -1 -28.5t-4 -22t-6.5 -15.5t-15.5 -18t-43 -30.5t-67.5 -33t-80.5 -23.5t-91 -9q-98 0 -173 31.5t-125.5 93t-77 150.5t-26.5 208q0 133 33 228t89 155.5t133 90.5t165 30q43 0 84 -8.5t74.5 -20.5t60.5 -29.5t38 -30t16 -19.5t8.5 -16t4.5 -21.5t1 -28.5 q0 -39 -9.5 -54.5t-21.5 -15.5q-16 0 -35.5 16.5t-49.5 36t-73 35.5t-100 16q-119 0 -182.5 -91t-63.5 -265q0 -88 16.5 -152.5t48 -108.5t79 -65.5t106.5 -21.5q57 0 100 17.5t75 39t53.5 39t31.5 17.5q8 0 13.5 -4.5t8.5 -13.5t5 -23.5t2 -34.5zM590 1233 q0 -57 -22.5 -77.5t-80.5 -20.5q-55 0 -76.5 20.5t-21.5 73.5q0 55 21.5 76.5t78.5 21.5t79 -20.5t22 -73.5zM258 950z" />
<glyph unicode="&#x10c;" horiz-adv-x="1091" d="M1036 182q0 -14 -1 -26.5t-4 -21.5t-6 -16t-13.5 -17.5t-42 -31t-79.5 -40t-109.5 -32.5t-135.5 -13q-125 0 -226.5 42t-173 123.5t-110.5 202.5t-39 279q0 160 42 285.5t117 214t179.5 134.5t231.5 46q57 0 109 -11.5t97.5 -27t80 -37t49 -34.5t18.5 -20t6 -16.5t3 -23 t1 -31.5t-2 -32.5t-5 -24t-9 -14.5t-15 -5q-14 0 -38.5 19.5t-64.5 43t-96.5 43t-133.5 19.5q-86 0 -157 -33.5t-121 -101.5t-77.5 -164t-27.5 -219q0 -125 26.5 -219t75.5 -157.5t122 -96.5t163 -33q78 0 135 19.5t97 43t66.5 42t41.5 18.5q8 0 12 -2t7 -11t5 -23.5 t2 -39.5zM639 1395q-20 0 -34.5 1t-25 4t-17.5 9t-17 14l-213 228q-10 10 -12.5 17t4 12.5t20.5 7.5t37 2q29 0 47 -2t29.5 -4.5t16.5 -7.5l11 -11l156 -172l160 170q6 6 14 12t20.5 9.5t30 4.5t43.5 1q25 0 39.5 -3.5t19.5 -7.5t3 -11t-10 -17l-224 -228q-8 -8 -17 -13 t-20.5 -9t-26 -5t-34.5 -1zM188 1294z" />
<glyph unicode="&#x10d;" horiz-adv-x="864" d="M801 162q0 -16 -1 -28.5t-4 -22t-6.5 -15.5t-15.5 -18t-43 -30.5t-67.5 -33t-80.5 -23.5t-91 -9q-98 0 -173 31.5t-125.5 93t-77 150.5t-26.5 208q0 133 33 228t89 155.5t133 90.5t165 30q43 0 84 -8.5t74.5 -20.5t60.5 -29.5t38 -30t16 -19.5t8.5 -16t4.5 -21.5t1 -28.5 q0 -39 -9.5 -54.5t-21.5 -15.5q-16 0 -35.5 16.5t-49.5 36t-73 35.5t-100 16q-119 0 -182.5 -91t-63.5 -265q0 -88 16.5 -152.5t48 -108.5t79 -65.5t106.5 -21.5q57 0 100 17.5t75 39t53.5 39t31.5 17.5q8 0 13.5 -4.5t8.5 -13.5t5 -23.5t2 -34.5zM621 1372q8 8 13 14.5 t14 9.5t21.5 5t30.5 2q27 0 42.5 -4t19.5 -10.5t0 -16.5t-14 -26l-166 -230q-6 -6 -13.5 -11t-17.5 -8t-24.5 -4t-37.5 -1q-20 0 -34.5 1t-24.5 4t-17 8t-12 11l-165 230q-10 14 -14.5 25t0.5 17.5t19.5 10.5t41.5 4q20 0 32.5 -2t20.5 -5t13 -9.5t11 -14.5l132 -180z M86 950z" />
<glyph unicode="&#x10e;" horiz-adv-x="1259" d="M1167 666q0 -168 -43 -293t-126 -208t-202.5 -124t-285.5 -41h-274q-23 0 -43.5 15.5t-20.5 54.5v1155q0 39 20.5 54t43.5 15h292q168 0 285 -44t194.5 -125t118.5 -197.5t41 -261.5zM985 659q0 104 -25.5 194.5t-81 157t-140.5 103.5t-220 37h-174v-1008h176 q125 0 210 32t142.5 95.5t85 159.5t27.5 229zM602 1395q-20 0 -34.5 1t-25 4t-18.5 9t-16 14l-213 228q-10 10 -12 17t4 12.5t20.5 7.5t34.5 2q31 0 49.5 -2t28.5 -4.5t16 -7.5t13 -11l153 -172l162 170q6 6 14 12t20.5 9.5t30 4.5t43.5 1q25 0 39.5 -3.5t19.5 -7.5t3 -11 t-10 -17l-224 -228q-8 -8 -17 -13t-20.5 -9t-26 -5t-34.5 -1zM152 1294z" />
<glyph unicode="&#x10f;" horiz-adv-x="1163" d="M924 25q0 -8 -3 -14.5t-12.5 -9.5t-23 -5t-33.5 -2t-34.5 2t-24 5t-13.5 9t-4 15v118q-70 -76 -146.5 -118.5t-166.5 -42.5q-100 0 -170 37.5t-114 103t-63.5 155t-19.5 187.5q0 115 24.5 209t74 159.5t122 101.5t166.5 36q80 0 145.5 -35t129.5 -102v524q0 6 4 12t13 10 t24.5 6.5t40.5 2.5t41 -2.5t25 -6.5t13.5 -10t4.5 -12v-1333zM758 657q-68 84 -130.5 127t-129.5 43q-63 0 -107.5 -29.5t-71 -78.5t-40 -110.5t-13.5 -127.5q0 -68 11.5 -132t37 -115.5t68.5 -81t109 -29.5q33 0 63.5 8t62 29.5t66.5 55.5t74 83v358zM1104 1362q2 8 8 15 t16.5 11.5t26.5 6.5t39 2t35 -2t19 -6.5t7 -11.5t-2 -17l-125 -311q-2 -8 -7 -12.5t-13 -7.5t-21.5 -4t-33.5 -1q-16 0 -24.5 2t-12.5 6t-5 10.5t1 14.5zM877 997z" />
<glyph unicode="&#x110;" horiz-adv-x="1277" d="M1186 666q0 -168 -43 -293t-126 -208t-203 -124t-286 -41h-274q-23 0 -43.5 15.5t-20.5 54.5v530h-129q-8 0 -14 4t-11 13.5t-7 22.5t-2 32q0 18 2 32.5t7 22.5t11 12t14 4h129v482q0 39 20.5 54t43.5 15h293q168 0 284.5 -44t195.5 -125t119 -197.5t40 -261.5zM1004 659 q0 104 -26 194.5t-81 157t-140 103.5t-220 37h-175v-408h236q6 0 13 -4t11.5 -12t6.5 -22.5t2 -32.5t-2 -31.5t-6.5 -23t-11.5 -13.5t-13 -4h-236v-457h179q123 0 208 32t141 95.5t85 159.5t29 229z" />
<glyph unicode="&#x111;" horiz-adv-x="1128" d="M1092 1167q0 -16 -2.5 -28.5t-7.5 -20.5t-10 -11t-13 -3h-135v-1079q0 -8 -3 -14.5t-12.5 -9.5t-23 -5t-33.5 -2t-34.5 2t-24 5t-13.5 9t-4 15v118q-70 -76 -146.5 -118.5t-166.5 -42.5q-100 0 -170 37.5t-114 103t-63.5 154t-19.5 188.5q0 115 24.5 208t74 158.5 t122 101.5t166.5 36q80 0 145.5 -35t129.5 -100v270h-246q-6 0 -12 3t-11.5 11t-7.5 20.5t-2 28.5q0 18 2 30.5t7.5 21t11.5 11.5t12 3h246v125q0 6 4 12t13 10t24.5 6.5t42.5 2.5q23 0 39 -2.5t25 -6.5t13.5 -10t4.5 -12v-125h135q8 0 13 -3t10 -11.5t7.5 -21t2.5 -30.5z M758 655q-68 84 -130.5 128t-129.5 44q-63 0 -107.5 -29.5t-71 -78.5t-40 -110.5t-13.5 -127.5q0 -68 11.5 -132t37 -115.5t68.5 -81t109 -29.5q33 0 63.5 8t62 29.5t66.5 55.5t74 83v356z" />
<glyph unicode="&#x112;" horiz-adv-x="999" d="M893 72q0 -18 -2 -31.5t-7 -23t-12.5 -13.5t-15.5 -4h-620q-23 0 -43.5 15.5t-20.5 54.5v1155q0 39 20.5 54t43.5 15h614q8 0 14 -4t10.5 -13t7.5 -22.5t3 -33.5q0 -18 -3 -31.5t-7.5 -22t-10.5 -12.5t-14 -4h-506v-406h434q8 0 14.5 -5t11.5 -12t6 -21.5t1 -32.5 t-1 -31.5t-6 -22t-11.5 -11.5t-14.5 -3h-434v-463h512q8 0 15.5 -4t12.5 -12t7 -22.5t2 -32.5zM807 1589q6 0 12 -4t10.5 -11t6.5 -20.5t2 -29.5t-2 -28.5t-6.5 -22t-10.5 -13.5t-12 -4h-547q-8 0 -14 4t-10.5 13.5t-6.5 21.5t-2 29q0 16 2 29.5t6.5 20.5t10.5 11t14 4h547z M94 1294z" />
<glyph unicode="&#x113;" horiz-adv-x="1017" d="M922 514q0 -39 -19.5 -55.5t-46.5 -16.5h-590q0 -76 15.5 -135t50.5 -102t91 -66.5t136 -23.5q66 0 116 10t86 23.5t59.5 23.5t35.5 10q6 0 12 -3t9.5 -10t4.5 -19.5t1 -30.5q0 -12 -1 -22.5t-2 -17.5t-5.5 -13.5t-9.5 -11.5t-31.5 -17t-69.5 -24.5t-100.5 -21.5 t-120.5 -9q-111 0 -195 30.5t-140 92t-86 152.5t-30 214q0 117 31 209t87 156.5t136 99.5t178 35q106 0 181 -35t123.5 -92.5t71 -134t22.5 -164.5v-31zM756 563q2 129 -58.5 204t-179.5 75q-61 0 -107 -23.5t-77 -61.5t-48.5 -88.5t-19.5 -105.5h490zM758 1292q8 0 14 -3 t9 -10t6.5 -20.5t3.5 -29.5q0 -18 -3.5 -29.5t-6.5 -20t-9 -12.5t-14 -4h-479q-8 0 -14.5 4t-10.5 12.5t-6 19.5t-2 30q0 16 2 29.5t6 20.5t10 10t15 3h479zM115 950z" />
<glyph unicode="&#x114;" horiz-adv-x="999" d="M893 72q0 -18 -2 -31.5t-7 -23t-12.5 -13.5t-15.5 -4h-620q-23 0 -43.5 15.5t-20.5 54.5v1155q0 39 20.5 54t43.5 15h614q8 0 14 -4t10.5 -13t7.5 -22.5t3 -33.5q0 -18 -3 -31.5t-7.5 -22t-10.5 -12.5t-14 -4h-506v-406h434q8 0 14.5 -5t11.5 -12t6 -21.5t1 -32.5 t-1 -31.5t-6 -22t-11.5 -11.5t-14.5 -3h-434v-463h512q8 0 15.5 -4t12.5 -12t7 -22.5t2 -32.5zM782 1665q0 -63 -17 -113.5t-51 -85t-83 -53t-111 -18.5q-68 0 -117 20.5t-80.5 56t-47 85t-15.5 108.5q0 14 12.5 20.5t46.5 6.5q35 0 50.5 -4.5t15.5 -19.5t8 -50t25.5 -56.5 t43 -33.5t60.5 -12q51 0 82 24.5t42 57t12 56t12.5 31t52.5 7.5q37 0 48 -6.5t11 -20.5zM129 1294z" />
<glyph unicode="&#x115;" horiz-adv-x="1017" d="M922 514q0 -39 -19.5 -55.5t-46.5 -16.5h-590q0 -76 15.5 -135t50.5 -102t91 -66.5t136 -23.5q66 0 116 10t86 23.5t59.5 23.5t35.5 10q6 0 12 -3t9.5 -10t4.5 -19.5t1 -30.5q0 -12 -1 -22.5t-2 -17.5t-5.5 -13.5t-9.5 -11.5t-31.5 -17t-69.5 -24.5t-100.5 -21.5 t-120.5 -9q-111 0 -195 30.5t-140 92t-86 152.5t-30 214q0 117 31 209t87 156.5t136 99.5t178 35q106 0 181 -35t123.5 -92.5t71 -134t22.5 -164.5v-31zM756 563q2 129 -58.5 204t-179.5 75q-61 0 -107 -23.5t-77 -61.5t-48.5 -88.5t-19.5 -105.5h490zM649 1366 q0 14 12.5 21.5t47.5 7.5q18 0 29.5 -1t18.5 -5.5t9 -9.5t2 -13q0 -68 -16.5 -118t-49 -84t-81 -51t-111.5 -17q-70 0 -118 18.5t-79.5 52t-46 83.5t-14.5 114q0 16 12 23.5t45 7.5q18 0 29.5 -2t19 -5.5t10.5 -9.5t3 -12q2 -35 10 -63.5t25.5 -48t42 -31t61.5 -11.5 q29 0 54.5 9.5t44 28t28.5 46t12 70.5zM121 950z" />
<glyph unicode="&#x116;" horiz-adv-x="999" d="M893 72q0 -18 -2 -31.5t-7 -23t-12.5 -13.5t-15.5 -4h-620q-23 0 -43.5 15.5t-20.5 54.5v1155q0 39 20.5 54t43.5 15h614q8 0 14 -4t10.5 -13t7.5 -22.5t3 -33.5q0 -18 -3 -31.5t-7.5 -22t-10.5 -12.5t-14 -4h-506v-406h434q8 0 14.5 -5t11.5 -12t6 -21.5t1 -32.5 t-1 -31.5t-6 -22t-11.5 -11.5t-14.5 -3h-434v-463h512q8 0 15.5 -4t12.5 -12t7 -22.5t2 -32.5zM635 1530q0 -57 -21.5 -77.5t-78.5 -20.5t-78 20.5t-21 75.5q0 53 21.5 74.5t79.5 21.5q55 0 76.5 -20.5t21.5 -73.5zM303 1294z" />
<glyph unicode="&#x117;" horiz-adv-x="1017" d="M922 514q0 -39 -19.5 -55.5t-46.5 -16.5h-590q0 -76 15.5 -135t50.5 -102t91 -66.5t136 -23.5q66 0 116 10t86 23.5t59.5 23.5t35.5 10q6 0 12 -3t9.5 -10t4.5 -19.5t1 -30.5q0 -12 -1 -22.5t-2 -17.5t-5.5 -13.5t-9.5 -11.5t-31.5 -17t-69.5 -24.5t-100.5 -21.5 t-120.5 -9q-111 0 -195 30.5t-140 92t-86 152.5t-30 214q0 117 31 209t87 156.5t136 99.5t178 35q106 0 181 -35t123.5 -92.5t71 -134t22.5 -164.5v-31zM756 563q2 129 -58.5 204t-179.5 75q-61 0 -107 -23.5t-77 -61.5t-48.5 -88.5t-19.5 -105.5h490zM621 1233 q0 -57 -21.5 -77.5t-79.5 -20.5q-55 0 -76.5 20.5t-21.5 73.5q0 55 21.5 76.5t78.5 21.5q55 0 77 -20.5t22 -73.5zM291 950z" />
<glyph unicode="&#x118;" horiz-adv-x="999" d="M932 -291q0 -14 -2 -23.5t-5 -16.5t-10.5 -10t-28 -8t-54 -10.5t-74.5 -5.5q-47 0 -84 9.5t-62.5 29t-39 47t-13.5 66.5q0 35 16.5 72t57.5 80l61 61h-458q-23 0 -43.5 15.5t-20.5 54.5v1155q0 39 20.5 54t43.5 15h614q8 0 14 -4t10.5 -13t7.5 -22.5t3 -33.5 q0 -18 -3 -31.5t-7.5 -22t-10.5 -12.5t-14 -4h-506v-406h434q8 0 14.5 -4t11.5 -11t6 -20.5t1 -31.5q0 -20 -1 -33.5t-6 -22t-11.5 -12.5t-14.5 -4h-434v-463h512q18 0 27.5 -16t9.5 -51q0 -14 -1 -26.5t-4 -22t-7 -17.5t-13 -14l-108 -109q-20 -23 -28.5 -40t-8.5 -35 q0 -27 17.5 -40.5t56.5 -13.5h106q8 0 13.5 -2t8.5 -7t5 -14.5t2 -25.5z" />
<glyph unicode="&#x119;" horiz-adv-x="1017" d="M922 514q0 -39 -19.5 -55.5t-46.5 -16.5h-590q0 -76 15.5 -135t50.5 -102t91 -66.5t136 -23.5q66 0 116 10t86 23.5t59.5 23.5t35.5 10q6 0 12 -3t9.5 -10t4.5 -19.5t1 -30.5v-33.5t-3 -24t-7.5 -17.5t-14.5 -15l-135 -138q-27 -27 -34 -46t-7 -31q0 -29 16.5 -42.5 t57.5 -13.5h108q14 0 20.5 -8t6.5 -37q0 -16 -1 -26.5t-5 -17.5t-10.5 -10t-16.5 -5q-33 -10 -66.5 -14.5t-72.5 -4.5q-94 0 -146.5 38t-52.5 112q0 18 4 36.5t13.5 37t25 38t37.5 44.5l53 55q-25 -6 -53.5 -10t-67.5 -4q-106 0 -188 30.5t-137 93t-85 152.5t-30 213 q0 117 31 209t87 156.5t136 99.5t178 35q106 0 181 -35t123.5 -92.5t71 -134t22.5 -164.5v-31zM756 563q2 129 -58.5 204t-179.5 75q-61 0 -107 -23.5t-77 -61.5t-48.5 -88.5t-19.5 -105.5h490z" />
<glyph unicode="&#x11a;" horiz-adv-x="999" d="M893 72q0 -18 -2 -31.5t-7 -23t-12.5 -13.5t-15.5 -4h-620q-23 0 -43.5 15.5t-20.5 54.5v1155q0 39 20.5 54t43.5 15h614q8 0 14 -4t10.5 -13t7.5 -22.5t3 -33.5q0 -18 -3 -31.5t-7.5 -22t-10.5 -12.5t-14 -4h-506v-406h434q8 0 14.5 -5t11.5 -12t6 -21.5t1 -32.5 t-1 -31.5t-6 -22t-11.5 -11.5t-14.5 -3h-434v-463h512q8 0 15.5 -4t12.5 -12t7 -22.5t2 -32.5zM520 1395q-20 0 -34.5 1t-24.5 4t-17.5 9l-17.5 14l-213 228q-8 10 -10 17t4 12.5t19.5 7.5t35.5 2q31 0 48.5 -2t28.5 -4.5t17 -7.5t13 -11l153 -172l160 170q6 6 15.5 12 t20.5 9.5t29.5 4.5t45.5 1q23 0 38 -3.5t19 -7.5t2 -11t-10 -17l-224 -228q-8 -8 -16 -13t-19.5 -9t-25.5 -5t-37 -1zM70 1294z" />
<glyph unicode="&#x11b;" horiz-adv-x="1017" d="M922 514q0 -39 -19.5 -55.5t-46.5 -16.5h-590q0 -76 15.5 -135t50.5 -102t91 -66.5t136 -23.5q66 0 116 10t86 23.5t59.5 23.5t35.5 10q6 0 12 -3t9.5 -10t4.5 -19.5t1 -30.5q0 -12 -1 -22.5t-2 -17.5t-5.5 -13.5t-9.5 -11.5t-31.5 -17t-69.5 -24.5t-100.5 -21.5 t-120.5 -9q-111 0 -195 30.5t-140 92t-86 152.5t-30 214q0 117 31 209t87 156.5t136 99.5t178 35q106 0 181 -35t123.5 -92.5t71 -134t22.5 -164.5v-31zM756 563q2 129 -58.5 204t-179.5 75q-61 0 -107 -23.5t-77 -61.5t-48.5 -88.5t-19.5 -105.5h490zM645 1372 q6 8 12.5 14.5t15.5 9.5t21.5 5t30.5 2q27 0 41 -4t19.5 -10.5t1 -16.5t-16.5 -26l-164 -230q-6 -6 -13 -11t-17.5 -8t-25.5 -4t-38 -1q-20 0 -33.5 1t-25 4t-17.5 8t-10 11l-166 230q-10 14 -14 25t1 17.5t19.5 10.5t38.5 4q23 0 35 -2t20.5 -5t13.5 -9.5t11 -14.5 l129 -180zM111 950z" />
<glyph unicode="&#x11c;" horiz-adv-x="1290" d="M1145 1118q0 -18 -2 -33.5t-6 -24.5t-10.5 -13.5t-14.5 -4.5q-10 0 -39 19.5t-76 42t-112.5 42t-155.5 19.5q-106 0 -191 -39t-143.5 -108.5t-90.5 -163.5t-32 -207q0 -123 35 -219t95.5 -161.5t145.5 -100.5t185 -35q59 0 120.5 15.5t115.5 43.5v377h-299 q-18 0 -26.5 16.5t-8.5 53.5q0 18 2 31.5t6 22.5t10 13.5t17 4.5h409q12 0 22.5 -4.5t19.5 -12.5t14.5 -22.5t5.5 -30.5v-494q0 -27 -9.5 -45t-38 -33.5t-74.5 -32t-95.5 -28.5t-99.5 -18t-99 -6q-150 0 -267.5 47t-199.5 133t-125 205.5t-43 267.5q0 154 47 278.5 t131 212.5t203 137.5t262 49.5q76 0 140.5 -13.5t114.5 -31t85 -38t48.5 -33.5t18.5 -29.5t5 -49.5zM694 1690q20 0 34.5 -1t25 -5.5t17.5 -9.5t17 -13l213 -227q10 -10 12.5 -17.5t-3.5 -12.5t-20.5 -7t-37.5 -2q-29 0 -47 2t-29.5 4t-17.5 6t-10 10l-156 172l-157 -168 q-8 -8 -16.5 -13t-21 -8t-29.5 -4t-44 -1t-40 3t-18.5 7t-3 11t10.5 18l225 227q6 8 15.5 13t19.5 9.5t25.5 5.5t35.5 1zM229 1294z" />
<glyph unicode="&#x11d;" horiz-adv-x="962" d="M905 885q0 -35 -9 -51.5t-26 -16.5h-129q35 -35 49.5 -79t14.5 -91q0 -78 -24.5 -137t-71.5 -101t-110.5 -63.5t-141.5 -21.5q-55 0 -105.5 14t-77.5 37q-18 -18 -29.5 -42t-11.5 -52q0 -35 33 -58.5t86 -25.5l236 -11q68 -2 124 -18t97 -47t63.5 -75t22.5 -103 q0 -61 -25.5 -117.5t-80 -98.5t-137.5 -67t-195 -25q-109 0 -185.5 18.5t-126 50.5t-71 77t-21.5 96q0 33 8.5 63.5t24.5 59.5t41 54.5t55 49.5q-49 25 -72.5 63t-23.5 83q0 59 25.5 107.5t62.5 86.5q-31 37 -49.5 83t-18.5 114q0 76 27 137.5t73 103.5t110.5 64.5 t140.5 22.5q41 0 75.5 -5.5t65.5 -13.5h272q18 0 26.5 -16t8.5 -49zM647 647q0 92 -50 143.5t-144 51.5q-47 0 -83 -15.5t-59.5 -44t-35 -64.5t-11.5 -77q0 -88 50.5 -139t142.5 -51q49 0 85 15t59.5 43t34.5 63.5t11 74.5zM729 -66q0 57 -47 89t-127 34l-233 9 q-33 -25 -53.5 -47.5t-33 -43t-16.5 -41t-4 -40.5q0 -66 65.5 -100t184.5 -34q76 0 126 14.5t80.5 39t44 55t13.5 65.5zM352 1120q-6 -10 -12 -15t-14.5 -8t-20.5 -4t-33 -1q-27 0 -41 3t-19 9t-1 17.5t16 25.5l164 229q6 8 13.5 12.5t17.5 7.5t25.5 5t37.5 2q20 0 35 -2 t25 -5t16 -8.5t10 -11.5l166 -229q10 -14 14.5 -25.5t0.5 -17.5t-19.5 -9t-42.5 -3q-20 0 -32.5 1t-20.5 4t-13.5 9t-11.5 14l-131 180zM78 950z" />
<glyph unicode="&#x11e;" horiz-adv-x="1290" d="M1145 1118q0 -18 -2 -33.5t-6 -24.5t-10.5 -13.5t-14.5 -4.5q-10 0 -39 19.5t-76 42t-112.5 42t-155.5 19.5q-106 0 -191 -39t-143.5 -108.5t-90.5 -163.5t-32 -207q0 -123 35 -219t95.5 -161.5t145.5 -100.5t185 -35q59 0 120.5 15.5t115.5 43.5v377h-299 q-18 0 -26.5 16.5t-8.5 53.5q0 18 2 31.5t6 22.5t10 13.5t17 4.5h409q12 0 22.5 -4.5t19.5 -12.5t14.5 -22.5t5.5 -30.5v-494q0 -27 -9.5 -45t-38 -33.5t-74.5 -32t-95.5 -28.5t-99.5 -18t-99 -6q-150 0 -267.5 47t-199.5 133t-125 205.5t-43 267.5q0 154 47 278.5 t131 212.5t203 137.5t262 49.5q76 0 140.5 -13.5t114.5 -31t85 -38t48.5 -33.5t18.5 -29.5t5 -49.5zM946 1665q0 -63 -17.5 -113.5t-51 -85t-83 -53t-110.5 -18.5q-68 0 -117 20.5t-80.5 56t-46 85t-14.5 108.5q0 14 11.5 20.5t45.5 6.5q35 0 50.5 -4.5t15.5 -19.5t8 -50 t25.5 -56.5t43 -33.5t60.5 -12q51 0 82 24.5t42 57t12 56t12.5 31t52.5 7.5q37 0 48 -6.5t11 -20.5zM293 1294z" />
<glyph unicode="&#x11f;" horiz-adv-x="962" d="M905 885q0 -35 -9 -51.5t-26 -16.5h-129q35 -35 49.5 -79t14.5 -91q0 -78 -24.5 -137t-71.5 -101t-110.5 -63.5t-141.5 -21.5q-55 0 -105.5 14t-77.5 37q-18 -18 -29.5 -42t-11.5 -52q0 -35 33 -58.5t86 -25.5l236 -11q68 -2 124 -18t97 -47t63.5 -75t22.5 -103 q0 -61 -25.5 -117.5t-80 -98.5t-137.5 -67t-195 -25q-109 0 -185.5 18.5t-126 50.5t-71 77t-21.5 96q0 33 8.5 63.5t24.5 59.5t41 54.5t55 49.5q-49 25 -72.5 63t-23.5 83q0 59 25.5 107.5t62.5 86.5q-31 37 -49.5 83t-18.5 114q0 76 27 137.5t73 103.5t110.5 64.5 t140.5 22.5q41 0 75.5 -5.5t65.5 -13.5h272q18 0 26.5 -16t8.5 -49zM647 647q0 92 -50 143.5t-144 51.5q-47 0 -83 -15.5t-59.5 -44t-35 -64.5t-11.5 -77q0 -88 50.5 -139t142.5 -51q49 0 85 15t59.5 43t34.5 63.5t11 74.5zM729 -66q0 57 -47 89t-127 34l-233 9 q-33 -25 -53.5 -47.5t-33 -43t-16.5 -41t-4 -40.5q0 -66 65.5 -100t184.5 -34q76 0 126 14.5t80.5 39t44 55t13.5 65.5zM623 1366q0 14 12 21.5t47 7.5q18 0 29.5 -1t17.5 -5.5t9 -9.5t3 -13q0 -68 -16 -118t-49 -84t-81 -51t-114 -17q-68 0 -116 18.5t-79.5 52t-46 83.5 t-14.5 114q0 16 12.5 23.5t45.5 7.5q18 0 29.5 -2t18.5 -5.5t9 -9.5t2 -12q4 -35 12 -63.5t24.5 -48t42 -31t60.5 -11.5q31 0 55.5 9.5t43 28t30 46t13.5 70.5zM92 950z" />
<glyph unicode="&#x120;" horiz-adv-x="1290" d="M1145 1118q0 -18 -2 -33.5t-6 -24.5t-10.5 -13.5t-14.5 -4.5q-10 0 -39 19.5t-76 42t-112.5 42t-155.5 19.5q-106 0 -191 -39t-143.5 -108.5t-90.5 -163.5t-32 -207q0 -123 35 -219t95.5 -161.5t145.5 -100.5t185 -35q59 0 120.5 15.5t115.5 43.5v377h-299 q-18 0 -26.5 16.5t-8.5 53.5q0 18 2 31.5t6 22.5t10 13.5t17 4.5h409q12 0 22.5 -4.5t19.5 -12.5t14.5 -22.5t5.5 -30.5v-494q0 -27 -9.5 -45t-38 -33.5t-74.5 -32t-95.5 -28.5t-99.5 -18t-99 -6q-150 0 -267.5 47t-199.5 133t-125 205.5t-43 267.5q0 154 47 278.5 t131 212.5t203 137.5t262 49.5q76 0 140.5 -13.5t114.5 -31t85 -38t48.5 -33.5t18.5 -29.5t5 -49.5zM819 1530q0 -57 -22.5 -77.5t-77.5 -20.5q-57 0 -77.5 20.5t-20.5 75.5q0 53 21.5 74.5t78.5 21.5q55 0 76.5 -20.5t21.5 -73.5zM487 1294z" />
<glyph unicode="&#x121;" horiz-adv-x="962" d="M905 885q0 -35 -9 -51.5t-26 -16.5h-129q35 -35 49.5 -79t14.5 -91q0 -78 -24.5 -137t-71.5 -101t-110.5 -63.5t-141.5 -21.5q-55 0 -105.5 14t-77.5 37q-18 -18 -29.5 -42t-11.5 -52q0 -35 33 -58.5t86 -25.5l236 -11q68 -2 124 -18t97 -47t63.5 -75t22.5 -103 q0 -61 -25.5 -117.5t-80 -98.5t-137.5 -67t-195 -25q-109 0 -185.5 18.5t-126 50.5t-71 77t-21.5 96q0 33 8.5 63.5t24.5 59.5t41 54.5t55 49.5q-49 25 -72.5 63t-23.5 83q0 59 25.5 107.5t62.5 86.5q-31 37 -49.5 83t-18.5 114q0 76 27 137.5t73 103.5t110.5 64.5 t140.5 22.5q41 0 75.5 -5.5t65.5 -13.5h272q18 0 26.5 -16t8.5 -49zM647 647q0 92 -50 143.5t-144 51.5q-47 0 -83 -15.5t-59.5 -44t-35 -64.5t-11.5 -77q0 -88 50.5 -139t142.5 -51q49 0 85 15t59.5 43t34.5 63.5t11 74.5zM729 -66q0 57 -47 89t-127 34l-233 9 q-33 -25 -53.5 -47.5t-33 -43t-16.5 -41t-4 -40.5q0 -66 65.5 -100t184.5 -34q76 0 126 14.5t80.5 39t44 55t13.5 65.5zM586 1233q0 -57 -22.5 -77.5t-80.5 -20.5q-55 0 -76.5 20.5t-21.5 73.5q0 55 21.5 76.5t78.5 21.5t79 -20.5t22 -73.5zM254 950z" />
<glyph unicode="&#x122;" horiz-adv-x="1290" d="M1145 1118q0 -18 -2 -33.5t-6 -24.5t-10.5 -13.5t-14.5 -4.5q-10 0 -39 19.5t-76 42t-112.5 42t-155.5 19.5q-106 0 -191 -39t-143.5 -108.5t-90.5 -163.5t-32 -207q0 -123 35 -219t95.5 -161.5t145.5 -100.5t185 -35q59 0 120.5 15.5t115.5 43.5v377h-299 q-18 0 -26.5 16.5t-8.5 53.5q0 18 2 31.5t6 22.5t10 13.5t17 4.5h409q12 0 22.5 -4.5t19.5 -12.5t14.5 -22.5t5.5 -30.5v-494q0 -27 -9.5 -45t-38 -33.5t-74.5 -32t-95.5 -28.5t-99.5 -18t-99 -6q-150 0 -267.5 47t-199.5 133t-125 205.5t-43 267.5q0 154 47 278.5 t131 212.5t203 137.5t262 49.5q76 0 140.5 -13.5t114.5 -31t85 -38t48.5 -33.5t18.5 -29.5t5 -49.5zM600 -121q4 10 10 18.5t17.5 12.5t29 5t43.5 1q25 0 40.5 -3t21.5 -9t6 -15.5t-4 -19.5l-98 -203q-4 -10 -10.5 -16t-15.5 -9t-23.5 -4.5t-32.5 -1.5q-23 0 -33 2.5 t-15.5 7.5t-4.5 13t4 18z" />
<glyph unicode="&#x123;" horiz-adv-x="962" d="M905 885q0 -35 -9 -51.5t-26 -16.5h-129q35 -35 49.5 -79t14.5 -91q0 -78 -24.5 -137t-71.5 -101t-110.5 -63.5t-141.5 -21.5q-55 0 -105.5 14t-77.5 37q-18 -18 -29.5 -42t-11.5 -52q0 -35 33 -58.5t86 -25.5l236 -11q68 -2 124 -18t97 -47t63.5 -75t22.5 -103 q0 -61 -25.5 -117.5t-80 -98.5t-137.5 -67t-195 -25q-109 0 -185.5 18.5t-126 50.5t-71 77t-21.5 96q0 33 8.5 63.5t24.5 59.5t41 54.5t55 49.5q-49 25 -72.5 63t-23.5 83q0 59 25.5 107.5t62.5 86.5q-31 37 -49.5 83t-18.5 114q0 76 27 137.5t73 103.5t110.5 64.5 t140.5 22.5q41 0 75.5 -5.5t65.5 -13.5h272q18 0 26.5 -16t8.5 -49zM647 647q0 92 -50 143.5t-144 51.5q-47 0 -83 -15.5t-59.5 -44t-35 -64.5t-11.5 -77q0 -88 50.5 -139t142.5 -51q49 0 85 15t59.5 43t34.5 63.5t11 74.5zM729 -66q0 57 -47 89t-127 34l-233 9 q-33 -25 -53.5 -47.5t-33 -43t-16.5 -41t-4 -40.5q0 -66 65.5 -100t184.5 -34q76 0 126 14.5t80.5 39t44 55t13.5 65.5zM555 1102q-6 -10 -12 -17.5t-17.5 -11.5t-29 -5t-41.5 -1q-29 0 -44.5 3t-22.5 9t-6 14.5t7 18.5l143 242q6 10 13.5 15t17.5 9t25.5 5t38.5 1 q18 0 29.5 -3t16.5 -8t5 -13t-4 -19zM250 950z" />
<glyph unicode="&#x124;" horiz-adv-x="1275" d="M1104 27q0 -8 -4 -14.5t-14.5 -9.5t-27 -6t-38.5 -3q-27 0 -43 3t-26.5 6t-13.5 9t-3 15v573h-590v-573q0 -8 -4 -14.5t-14.5 -9.5t-26.5 -6t-41 -3t-41 3t-26.5 6t-14.5 9t-4 15v1241q0 8 4 14t14.5 9t26.5 6t41 3t41 -3t26.5 -6t14.5 -9t4 -14v-518h590v518q0 8 3 14 t13.5 9t26.5 6t43 3q23 0 39 -3t26.5 -6t14.5 -9t4 -14v-1241zM643 1690q20 0 34.5 -1t25 -5.5t17.5 -9.5t17 -13l213 -227q10 -10 12.5 -17.5t-4 -12.5t-20.5 -7t-37 -2q-29 0 -47 2t-29.5 4t-17.5 6t-10 10l-156 172l-158 -168q-8 -8 -16 -13t-20.5 -8t-30 -4t-43.5 -1 q-27 0 -40.5 3t-18.5 7t-3 11t11 18l225 227q8 8 16 13t19.5 9.5t26 5.5t34.5 1zM178 1294z" />
<glyph unicode="&#x125;" horiz-adv-x="1075" d="M928 25q0 -8 -4 -13.5t-13.5 -9.5t-25 -6t-39.5 -2q-25 0 -41.5 2t-25.5 6t-12 9t-3 14v528q0 76 -12.5 123t-36 81t-59 52t-85.5 18q-61 0 -123.5 -44t-130.5 -130v-628q0 -8 -4 -13.5t-12 -9.5t-24.5 -6t-40.5 -2q-25 0 -41.5 2t-25.5 6t-12 9t-3 14v1241q0 6 3 12 t12 10t25.5 6t41.5 2t41 -2t24 -6t12 -10t4 -12v-445q72 76 143.5 113t145.5 37q90 0 151.5 -31t99.5 -82t54.5 -119.5t16.5 -165.5v-548zM252 1690q20 0 34.5 -1t25 -5.5t18.5 -9.5t14 -13l215 -227q10 -10 11 -17.5t-5 -12.5t-19.5 -7t-33.5 -2q-31 0 -49.5 2t-28.5 4 t-17 6t-14 10l-151 172l-160 -168q-8 -8 -16 -13t-20.5 -8t-30 -4t-45.5 -1q-23 0 -37.5 3t-20.5 7t-4 11t12 18l226 227q8 8 15 13t18.5 9.5t27 5.5t35.5 1z" />
<glyph unicode="&#x126;" horiz-adv-x="1343" d="M379 915v-202h588v202h-588zM1139 1051h139q8 0 14 -3.5t11.5 -12.5t7.5 -21.5t2 -32.5q0 -16 -2 -29.5t-7.5 -21.5t-11.5 -11.5t-14 -3.5h-139v-890q0 -8 -4.5 -13.5t-14.5 -9.5t-26.5 -6t-40.5 -2q-25 0 -42.5 2t-26.5 6t-13 9t-4 14v544h-588v-544q0 -8 -5 -13.5 t-15.5 -9.5t-26 -6t-39.5 -2q-27 0 -43.5 2t-26.5 6t-13 9t-3 14v890h-141q-8 0 -14.5 3.5t-10.5 11.5t-6 21.5t-2 31.5t2 31.5t6 20.5t10 11.5t15 4.5h141v219q0 6 3 12t13 10t26.5 6t43.5 2q25 0 40 -2t25.5 -6t15.5 -10t5 -12v-219h588v219q0 6 4 12t13 10t26.5 6t42.5 2 t41 -2t26 -6t14.5 -10t4.5 -12v-219z" />
<glyph unicode="&#x127;" horiz-adv-x="1089" d="M942 25q0 -8 -3 -13.5t-12 -9.5t-25.5 -6t-41.5 -2t-40 2t-25.5 6t-13.5 9t-3 14v516q0 78 -11 125t-34.5 80.5t-60.5 51t-84 17.5q-63 0 -125 -44t-129 -128v-618q0 -8 -4 -13.5t-13.5 -9.5t-26 -6t-40.5 -2q-25 0 -40 2t-25.5 6t-13.5 9t-3 14v1079h-141q-8 0 -14.5 3 t-10.5 11t-6 20.5t-2 28.5q0 18 2 30.5t6 21t10 11.5t15 3h141v129q0 8 3 14t13.5 10.5t25.5 6.5t40 2t41 -2t25.5 -6.5t13.5 -10.5t4 -14v-129h237q8 0 14.5 -3t10.5 -11.5t6 -20.5t2 -31q0 -16 -2 -28.5t-6 -20.5t-10 -11t-15 -3h-237v-293q72 76 143.5 111.5t143.5 35.5 q90 0 151.5 -30.5t99 -81.5t54 -119t16.5 -166v-536z" />
<glyph unicode="&#x128;" horiz-adv-x="514" d="M344 27q0 -8 -4 -14.5t-14.5 -9.5t-26.5 -6t-41 -3t-41 3t-26.5 6t-14.5 9t-4 15v1241q0 8 4 14t15.5 9t28 6t38.5 3q25 0 41 -3t26.5 -6t14.5 -9t4 -14v-1241zM479 1614q0 12 14.5 17t49.5 5t46 -7t11 -34q0 -92 -51 -145t-146 -53q-53 0 -92 17.5t-71.5 39t-61 38.5 t-59.5 17q-43 0 -59.5 -24.5t-16.5 -67.5q0 -6 -5 -10t-13.5 -7t-19.5 -3h-25q-35 0 -46.5 7t-11.5 32q0 49 14.5 86t40 62.5t62.5 38.5t80 13q53 0 92 -18.5t70.5 -38.5t60.5 -38.5t61 -18.5q35 0 55.5 20.5t20.5 71.5zM-207 1294z" />
<glyph unicode="&#x129;" horiz-adv-x="468" d="M317 25q0 -8 -4 -13.5t-12 -9.5t-24.5 -6t-40.5 -2q-25 0 -41.5 2t-25.5 6t-12 9t-3 14v901q0 8 3 13t12 9t25.5 6t41.5 2t41 -2t24 -6t12 -9t4 -13v-901zM569 1315q0 -106 -51 -162.5t-141 -56.5q-37 0 -65.5 9t-53.5 24.5t-44 33t-38.5 31.5t-39 24.5t-42.5 10.5 q-39 0 -55 -30t-16 -77q0 -8 -2.5 -13t-8.5 -8t-18 -4t-33 -1q-14 0 -25.5 2t-17.5 6t-9 12t-3 23q0 98 49 157.5t143 59.5q53 0 92 -20.5t71 -45t59.5 -46t60.5 -21.5q35 0 53.5 26.5t18.5 77.5q0 16 10 22.5t47 6.5t48 -8t11 -33zM-223 950z" />
<glyph unicode="&#x12a;" horiz-adv-x="514" d="M344 27q0 -8 -4 -14.5t-14.5 -9.5t-26.5 -6t-41 -3t-41 3t-26.5 6t-14.5 9t-4 15v1241q0 8 4 14t15.5 9t28 6t38.5 3q25 0 41 -3t26.5 -6t14.5 -9t4 -14v-1241zM535 1589q6 0 12 -4t10 -11t6 -20.5t2 -29.5t-2 -28.5t-6 -22t-10 -13.5t-12 -4h-547q-8 0 -14.5 4 t-10.5 13.5t-6 21.5t-2 29q0 16 2 29.5t6 20.5t10.5 11t14.5 4h547zM-176 1294z" />
<glyph unicode="&#x12b;" horiz-adv-x="468" d="M317 25q0 -8 -4 -13.5t-12 -9.5t-24.5 -6t-40.5 -2q-25 0 -41.5 2t-25.5 6t-12 9t-3 14v901q0 8 3 13t12 9t25.5 6t41.5 2t41 -2t24 -6t12 -9t4 -13v-901zM475 1292q8 0 14.5 -3t10.5 -10t6 -20.5t2 -29.5q0 -18 -2 -29.5t-6 -20t-10.5 -12.5t-14.5 -4h-477q-8 0 -15.5 4 t-11.5 12.5t-6 19.5t-2 30q0 16 2 29.5t6 20.5t11.5 10t15.5 3h477zM-168 950z" />
<glyph unicode="&#x12c;" horiz-adv-x="514" d="M344 27q0 -8 -4 -14.5t-14.5 -9.5t-26.5 -6t-41 -3t-41 3t-26.5 6t-14.5 9t-4 15v1241q0 8 4 14t15.5 9t28 6t38.5 3q25 0 41 -3t26.5 -6t14.5 -9t4 -14v-1241zM520 1665q0 -63 -17.5 -113.5t-51 -85t-83 -53t-110.5 -18.5q-68 0 -117 20.5t-80.5 56t-46 85t-14.5 108.5 q0 14 11.5 20.5t45.5 6.5q35 0 50.5 -4.5t15.5 -19.5t8 -50t25.5 -56.5t43 -33.5t60.5 -12q51 0 82 24.5t42 57t12 56t12.5 31t52.5 7.5q37 0 48 -6.5t11 -20.5zM-133 1294z" />
<glyph unicode="&#x12d;" horiz-adv-x="468" d="M317 25q0 -8 -4 -13.5t-12 -9.5t-24.5 -6t-40.5 -2q-25 0 -41.5 2t-25.5 6t-12 9t-3 14v901q0 8 3 13t12 9t25.5 6t41.5 2t41 -2t24 -6t12 -9t4 -13v-901zM377 1366q0 14 12 21.5t45 7.5q20 0 31.5 -1t17.5 -5.5t9.5 -9.5t3.5 -13q0 -68 -16.5 -118t-49.5 -84t-82 -51 t-112 -17q-68 0 -116 18.5t-80 52t-46 83.5t-14 114q0 16 11 23.5t46 7.5q18 0 29.5 -2t17.5 -5.5t9 -9.5t3 -12q4 -35 12.5 -63.5t25 -48t42 -31t60.5 -11.5q31 0 55 9.5t42.5 28t30 46t13.5 70.5zM-154 950z" />
<glyph unicode="&#x12e;" horiz-adv-x="514" d="M412 -291q0 -14 -2 -24.5t-5.5 -16.5t-9.5 -9t-16 -5q-33 -10 -68 -14.5t-75 -4.5q-92 0 -144.5 37t-52.5 113q0 14 2 31.5t10 37t24.5 41t43.5 48.5l61 63q-4 2 -6 6t-2 13v1245q0 6 4 12t15.5 10t28 6t38.5 2q25 0 41 -2t26.5 -6t14.5 -10t4 -12v-1245q0 -16 -4 -28.5 t-16 -25.5l-74 -73q-31 -31 -40 -50.5t-9 -35.5q0 -27 18.5 -40.5t54.5 -13.5h111q14 0 20.5 -9t6.5 -40z" />
<glyph unicode="&#x12f;" horiz-adv-x="468" d="M223 -104q-29 -31 -38 -50.5t-9 -35.5q0 -27 18.5 -40.5t57.5 -13.5h104q8 0 14.5 -2t9.5 -6t4 -14t1 -25q0 -14 -1 -24.5t-4 -16.5t-10.5 -9t-17.5 -5q-31 -10 -65.5 -14.5t-75.5 -4.5q-45 0 -82 10.5t-61.5 29t-38 46t-13.5 64.5q0 16 3.5 33.5t11.5 36t23.5 40 t41.5 48.5l58 57v926q0 6 3 12t12 10t25.5 6t41.5 2t41 -2t24 -6t12 -10t4 -12v-901q0 -12 -5 -30t-13 -28zM338 1229q0 -57 -22.5 -79t-82.5 -22q-57 0 -78.5 20.5t-21.5 78.5q0 57 21.5 78.5t81.5 21.5q59 0 80.5 -20.5t21.5 -77.5z" />
<glyph unicode="&#x130;" horiz-adv-x="514" d="M344 27q0 -8 -4 -14.5t-14.5 -9.5t-26.5 -6t-41 -3t-41 3t-26.5 6t-14.5 9t-4 15v1241q0 8 4 14t15.5 9t28 6t38.5 3q25 0 41 -3t26.5 -6t14.5 -9t4 -14v-1241zM360 1530q0 -57 -21.5 -77.5t-78.5 -20.5q-55 0 -76.5 20.5t-21.5 75.5q0 53 21.5 74.5t78.5 21.5 q55 0 76.5 -20.5t21.5 -73.5zM31 1294z" />
<glyph unicode="&#x132;" horiz-adv-x="1169" d="M344 27q0 -8 -4 -14.5t-14.5 -9.5t-26.5 -6t-41 -3t-41 3t-26.5 6t-14.5 9t-4 15v1241q0 8 4 14t15.5 9t28 6t38.5 3q25 0 41 -3t26.5 -6t14.5 -9t4 -14v-1241zM1001 326q0 -76 -14 -140.5t-48 -109.5t-89 -69.5t-137 -24.5q-29 0 -56.5 5t-50 12t-40 15.5t-22.5 14.5 t-9.5 12t-6.5 14t-3 20.5t-1 30.5q0 23 1 37.5t5.5 22.5t10.5 12t14 4q6 0 19.5 -7t31 -16t40 -17.5t52.5 -8.5q35 0 58.5 9.5t40 32t24.5 63.5t8 104v928q0 6 4.5 12t13.5 10t26.5 6t41.5 2q23 0 40.5 -2t26.5 -6t14 -10t5 -12v-944z" />
<glyph unicode="&#x133;" horiz-adv-x="958" d="M317 25q0 -8 -4 -13.5t-12 -9.5t-24.5 -6t-40.5 -2q-25 0 -41.5 2t-25.5 6t-12 9t-3 14v901q0 6 3 12t12 10t25.5 6t41.5 2t41 -2t24 -6t12 -10t4 -12v-901zM338 1229q0 -57 -22.5 -79t-82.5 -22q-57 0 -78.5 20.5t-21.5 78.5q0 57 21.5 78.5t81.5 21.5q59 0 80.5 -20.5 t21.5 -77.5zM807 -14q0 -100 -15.5 -162t-47 -104t-82 -63.5t-119.5 -21.5q-33 0 -55.5 4.5t-35 9.5t-16.5 11t-6 14.5t-3 17.5t-1 21q0 18 2 31.5t5 22t8 11.5t12 3q6 0 23.5 -2t39.5 -2q35 0 58.5 9t38 31.5t21.5 59.5t7 109v940q0 6 4 12t13.5 10t25.5 6t41 2q23 0 39 -2 t25.5 -6t13.5 -10t4 -12v-940zM825 1229q0 -57 -21.5 -79t-80.5 -22q-57 0 -78.5 20.5t-21.5 78.5q0 57 21.5 78.5t80.5 21.5t79.5 -20.5t20.5 -77.5z" />
<glyph unicode="&#x134;" horiz-adv-x="651" d="M483 326q0 -76 -13 -140.5t-48 -109.5t-90.5 -69.5t-136.5 -24.5q-27 0 -54.5 5t-51 12t-40 15.5t-23 14.5t-9.5 12t-6 14t-4 20.5t-1 30.5q0 23 2 37.5t6 22.5t9.5 12t13.5 4t20.5 -7t29.5 -16t41 -17.5t54 -8.5q33 0 57.5 9.5t41 32t23.5 63.5t7 104v928q0 6 4 12 t14.5 10t27 6t40.5 2q25 0 42.5 -2t26.5 -6t13 -10t4 -12v-944zM379 1690q20 0 33.5 -1t25 -5.5t18.5 -9.5t15 -13l215 -227q8 -10 10 -17.5t-4 -12.5t-19.5 -7t-35.5 -2q-31 0 -48.5 2t-28.5 4t-17 6t-13 10l-153 172l-160 -168q-6 -8 -14 -13t-20.5 -8t-31 -4t-45.5 -1 q-25 0 -38 3t-19 7t-4 11t12 18l224 227q8 8 16 13t19.5 9.5t25.5 5.5t37 1zM-86 1294z" />
<glyph unicode="&#x135;" horiz-adv-x="489" d="M338 -14q0 -100 -15.5 -162t-47 -104t-82 -63.5t-121.5 -21.5q-31 0 -53.5 4.5t-35 9.5t-17.5 11t-7 14.5t-2 17.5v21q0 18 1 31.5t5 22t8 11.5t13 3q6 0 23.5 -2t39.5 -2q33 0 56.5 9t39 31.5t21.5 59.5t6 109v940q0 6 4 12t14.5 10t25.5 6t40 2t40 -2t25.5 -6t14.5 -10 t4 -12v-940zM117 1120q-6 -10 -12.5 -15t-14.5 -8t-20.5 -4t-30.5 -1q-29 0 -43 3t-19.5 9t-1 17.5t16.5 25.5l166 229q4 8 11 12.5t17.5 7.5t25.5 5t38 2q20 0 34.5 -2t24.5 -5t16.5 -8.5t12.5 -11.5l164 -229q10 -14 14 -25.5t0 -17.5t-19.5 -9t-39.5 -3q-23 0 -35 1 t-20.5 4t-12.5 9t-12 14l-129 180zM-158 950z" />
<glyph unicode="&#x136;" horiz-adv-x="1062" d="M1016 29q0 -8 -3 -15.5t-13.5 -10.5t-28 -6t-43.5 -3q-35 0 -56.5 3t-33 11t-19.5 19l-475 647v-647q0 -8 -4 -14.5t-14.5 -9.5t-26.5 -6t-41 -3t-41 3t-26.5 6t-14.5 9t-4 15v1241q0 8 4 14t14.5 9t26.5 6t41 3t41 -3t26.5 -6t14.5 -9t4 -14v-576l459 576q6 10 13 15 t19.5 9t29 6t40.5 2q27 0 43.5 -3t25.5 -7t12 -9t3 -13q0 -12 -6 -25.5t-25 -36.5l-428 -514l461 -612q18 -27 21.5 -36t3.5 -15zM481 -121q4 10 10.5 18.5t16.5 12.5t28.5 5t45.5 1q25 0 40 -3t21 -9t6 -15.5t-6 -19.5l-96 -203q-4 -10 -10.5 -16t-15.5 -9t-23.5 -4.5 t-32.5 -1.5q-23 0 -33 2.5t-15 7.5t-4 13t3 18z" />
<glyph unicode="&#x137;" horiz-adv-x="929" d="M893 27q0 -8 -4 -14.5t-14.5 -10.5t-27 -6t-42.5 -2q-27 0 -44.5 2t-29.5 5t-19 9t-14 17l-381 497v-499q0 -8 -4 -13.5t-12 -9.5t-24.5 -6t-40.5 -2q-25 0 -41.5 2t-25.5 6t-12 9t-3 14v1337q0 6 3 12t12 10.5t25.5 6.5t41.5 2t41 -2t24 -6.5t12 -10.5t4 -12v-815 l340 375q8 10 17.5 16t22 10t29.5 6t42 2t41 -2t27.5 -5t15.5 -8t4 -15q0 -12 -6 -23.5t-23 -28.5l-325 -325l366 -475q12 -18 18.5 -28.5t6.5 -18.5zM406 -121q2 10 8 18.5t17 12.5t28.5 5t44.5 1t41 -3t21 -9t6 -15.5t-5 -19.5l-98 -203q-2 -10 -8 -16t-16.5 -9 t-23.5 -4.5t-34 -1.5q-20 0 -31.5 2.5t-16.5 7.5t-4 13t5 18z" />
<glyph unicode="&#x138;" horiz-adv-x="929" d="M887 27q0 -8 -5 -14.5t-15.5 -10.5t-28 -6t-43.5 -2q-27 0 -44.5 2t-27.5 5t-17.5 9t-13.5 17l-375 462v-464q0 -8 -4 -13.5t-12 -9.5t-24.5 -6t-40.5 -2q-25 0 -41.5 2t-25.5 6t-12 9t-3 14v901q0 8 3 13t12 9t25.5 6t41.5 2t41 -2t24 -6t12 -9t4 -13v-414l359 412 q6 10 13 15t18.5 9t26 6t38.5 2q25 0 41 -2t27.5 -6t16.5 -8t5 -12q0 -6 -2 -13.5t-4 -14.5t-8 -16.5t-17 -19.5l-327 -350l354 -432q8 -10 13.5 -19.5t8.5 -15.5t5 -11t2 -9z" />
<glyph unicode="&#x139;" horiz-adv-x="860" d="M844 76q0 -20 -2 -33.5t-7.5 -24t-11.5 -14.5t-14 -4h-573q-23 0 -43.5 15.5t-20.5 54.5v1198q0 8 4 14t14.5 9t26.5 6t41 3t41 -3t26.5 -6t14.5 -9t4 -14v-1118h465q8 0 14 -5.5t11.5 -13.5t7.5 -22.5t2 -32.5zM463 1651q10 14 20.5 20t23.5 10.5t30.5 6.5t44.5 2 q29 0 46 -5.5t24 -12.5t4 -15t-11 -19l-227 -213q-10 -10 -18.5 -15t-19.5 -8t-25.5 -5t-35.5 -2q-23 0 -36 3t-18 8t-3 13t10 19zM129 1294z" />
<glyph unicode="&#x13a;" horiz-adv-x="468" d="M317 25q0 -8 -4 -13.5t-12 -9.5t-24.5 -6t-40.5 -2q-25 0 -41.5 2t-25.5 6t-12 9t-3 14v1337q0 6 3 12t12 10.5t25.5 6.5t41.5 2t41 -2t24 -6.5t12 -10.5t4 -12v-1337zM375 1735q10 12 21.5 19t23.5 11t30.5 5.5t43.5 1.5q31 0 47 -4.5t23 -11.5t5 -16t-12 -20l-225 -211 q-10 -10 -19.5 -15t-19.5 -9t-24.5 -5t-37.5 -1t-36 2t-18 7t-3 13t12 21zM43 1376z" />
<glyph unicode="&#x13b;" horiz-adv-x="860" d="M844 76q0 -20 -2 -33.5t-7.5 -24t-11.5 -14.5t-14 -4h-573q-23 0 -43.5 15.5t-20.5 54.5v1198q0 8 4 14t14.5 9t26.5 6t41 3t41 -3t26.5 -6t14.5 -9t4 -14v-1118h465q8 0 14 -5.5t11.5 -13.5t7.5 -22.5t2 -32.5zM426 -121q2 10 8 18.5t17.5 12.5t29 5t43.5 1 q27 0 42.5 -3t21.5 -9t6 -15.5t-6 -19.5l-96 -203q-4 -10 -10.5 -16t-15.5 -9t-23.5 -4.5t-34.5 -1.5t-31.5 2.5t-17 7.5t-4.5 13t5 18z" />
<glyph unicode="&#x13c;" horiz-adv-x="468" d="M317 25q0 -8 -4 -13.5t-12 -9.5t-24.5 -6t-40.5 -2q-25 0 -41.5 2t-25.5 6t-12 9t-3 14v1337q0 6 3 12t12 10.5t25.5 6.5t41.5 2t41 -2t24 -6.5t12 -10.5t4 -12v-1337zM145 -121q4 10 10.5 18.5t16.5 12.5t27.5 5t46.5 1q25 0 40 -3t21 -9t6 -15.5t-6 -19.5l-96 -203 q-4 -10 -10 -16t-15.5 -9t-24 -4.5t-32.5 -1.5q-23 0 -33 2.5t-15 7.5t-4 13t3 18z" />
<glyph unicode="&#x13d;" horiz-adv-x="864" d="M844 76q0 -20 -2 -33.5t-7.5 -24t-11.5 -14.5t-14 -4h-573q-23 0 -43.5 15.5t-20.5 54.5v1198q0 8 4 14t14.5 9t26.5 6t41 3t41 -3t26.5 -6t14.5 -9t4 -14v-1118h465q8 0 14 -5.5t11.5 -13.5t7.5 -22.5t2 -32.5zM604 1315q2 10 8 17t16.5 11.5t27 6.5t38.5 2q25 0 37 -2 t18.5 -7.5t7.5 -12.5t-3 -15l-125 -314q-2 -6 -6.5 -11t-13.5 -7t-22.5 -3t-33.5 -1q-14 0 -23.5 2t-13.5 6t-5 9t1 14zM379 950z" />
<glyph unicode="&#x13e;" horiz-adv-x="538" d="M317 25q0 -8 -4 -13.5t-12 -9.5t-24.5 -6t-40.5 -2q-25 0 -41.5 2t-25.5 6t-12 9t-3 14v1337q0 6 3 12t12 10.5t25.5 6.5t41.5 2t41 -2t24 -6.5t12 -10.5t4 -12v-1337zM477 1362q4 8 10.5 15t15.5 11.5t26.5 6.5t39.5 2q23 0 35 -2t19.5 -6.5t7.5 -11.5t-2 -17l-125 -311 q-2 -8 -7 -12.5t-13.5 -7.5t-21.5 -4t-36 -1q-14 0 -23.5 2t-13.5 6t-4 10.5v14.5zM252 997z" />
<glyph unicode="&#x13f;" horiz-adv-x="1116" d="M844 76q0 -20 -2 -33.5t-7.5 -24t-11.5 -14.5t-14 -4h-573q-23 0 -43.5 15.5t-20.5 54.5v1198q0 8 4 14t14.5 9t26.5 6t41 3t41 -3t26.5 -6t14.5 -9t4 -14v-1118h465q8 0 14 -5.5t11.5 -13.5t7.5 -22.5t2 -32.5zM989 670q0 -72 -23.5 -95.5t-84.5 -23.5t-84 23.5 t-23 91.5q0 72 23.5 95t85.5 23q59 0 82.5 -23t23.5 -91z" />
<glyph unicode="&#x140;" horiz-adv-x="763" d="M317 25q0 -8 -4 -13.5t-12 -9.5t-24.5 -6t-40.5 -2q-25 0 -41.5 2t-25.5 6t-12 9t-3 14v1337q0 6 3 12t12 10.5t25.5 6.5t41.5 2t41 -2t24 -6.5t12 -10.5t4 -12v-1337zM715 584q0 -72 -23.5 -94.5t-87.5 -22.5q-59 0 -81.5 22.5t-22.5 92.5t23.5 93t84.5 23q59 0 83 -22 t24 -92z" />
<glyph unicode="&#x141;" horiz-adv-x="878" d="M862 76q0 -20 -2 -33.5t-7 -24t-11 -14.5t-15 -4h-573q-23 0 -43.5 15.5t-20.5 54.5v477l-127 -82q-18 -10 -26 3t-8 56q0 18 1 30.5t4 23t8 16.5t15 12l133 86v578q0 6 4.5 12t14.5 10t26.5 6t40.5 2q25 0 42.5 -2t26.5 -6t13 -10t4 -12v-471l228 141q16 10 25.5 -3 t9.5 -56q0 -18 -2 -30.5t-5.5 -23t-8.5 -16.5t-13 -12l-234 -146v-503h465q8 0 14.5 -5.5t11.5 -13.5t7 -22.5t2 -32.5z" />
<glyph unicode="&#x142;" horiz-adv-x="505" d="M479 954q0 -16 -1 -29.5t-4 -22.5t-8 -16t-15 -14l-115 -71v-776q0 -8 -4 -13.5t-13.5 -9.5t-24.5 -6t-40 -2t-41 2t-25.5 6t-13.5 9t-4 14v671l-109 -67q-16 -10 -24 3t-8 56q0 18 1 30.5t4 23t8 17.5t15 11l113 72v520q0 6 4 12t13.5 10.5t25.5 6.5t41 2t40 -2 t24.5 -6.5t13.5 -10.5t4 -12v-416l108 70q18 8 26.5 -5.5t8.5 -56.5z" />
<glyph unicode="&#x143;" horiz-adv-x="1320" d="M1151 72q0 -20 -7 -34.5t-17.5 -24t-23.5 -12.5t-26 -3h-55q-27 0 -46.5 5t-36.5 19.5t-34.5 39t-38.5 65.5l-407 735q-33 57 -66 119.5t-59 122.5h-2q2 -74 3 -148.5t1 -148.5v-780q0 -8 -4 -14.5t-14.5 -9.5t-26 -6t-37.5 -3q-25 0 -40 3t-24.5 6t-13.5 9t-4 15v1194 q0 39 21.5 56t48.5 17h82q29 0 48 -5t35.5 -16t31 -31.5t30.5 -51.5l313 -569q29 -51 56.5 -101.5t52 -97.5t49.5 -94t49 -95v0q-2 80 -2 165v165v703q0 6 4 12t13.5 10t24.5 6t40 2q23 0 39 -2t25.5 -6t13.5 -10t4 -12v-1194zM793 1651q10 14 20 20t23.5 10.5t32 6.5 t42.5 2q29 0 46.5 -5.5t24.5 -12.5t4 -15t-11 -19l-227 -213q-10 -10 -18.5 -15t-20 -8t-25.5 -5t-35 -2q-23 0 -36 3t-18 8t-3 13t10 19zM459 1294z" />
<glyph unicode="&#x144;" horiz-adv-x="1075" d="M928 25q0 -8 -4 -13.5t-13.5 -9.5t-25 -6t-39.5 -2q-25 0 -41.5 2t-25.5 6t-12 9t-3 14v528q0 76 -12.5 123t-36 81t-59 52t-85.5 18q-61 0 -123.5 -44t-130.5 -130v-628q0 -8 -4 -13.5t-12 -9.5t-24.5 -6t-40.5 -2q-25 0 -41.5 2t-25.5 6t-12 9t-3 14v901q0 8 3 13t11 9 t22.5 6t36.5 2q23 0 37.5 -2t22.5 -6t11 -9t3 -13v-119q78 84 152.5 124t152.5 40q90 0 151.5 -31t99.5 -82t54.5 -119.5t16.5 -165.5v-548zM637 1366q4 10 12 17.5t20.5 11.5t29 6t40.5 2q29 0 46.5 -4t23.5 -10.5t5 -14.5t-7 -18l-182 -234q-8 -10 -14.5 -15t-14.5 -9 t-22.5 -5t-32.5 -1q-23 0 -36 3t-18.5 8t-4.5 12t10 20zM350 950z" />
<glyph unicode="&#x145;" horiz-adv-x="1320" d="M1151 72q0 -20 -7 -34.5t-17.5 -24t-23.5 -12.5t-26 -3h-55q-27 0 -46.5 5t-36.5 19.5t-34.5 39t-38.5 65.5l-407 735q-33 57 -66 119.5t-59 122.5h-2q2 -74 3 -148.5t1 -148.5v-780q0 -8 -4 -14.5t-14.5 -9.5t-26 -6t-37.5 -3q-25 0 -40 3t-24.5 6t-13.5 9t-4 15v1194 q0 39 21.5 56t48.5 17h82q29 0 48 -5t35.5 -16t31 -31.5t30.5 -51.5l313 -569q29 -51 56.5 -101.5t52 -97.5t49.5 -94t49 -95v0q-2 80 -2 165v165v703q0 6 4 12t13.5 10t24.5 6t40 2q23 0 39 -2t25.5 -6t13.5 -10t4 -12v-1194zM555 -121q2 10 8 18.5t17.5 12.5t29 5t43.5 1 q27 0 41.5 -3t21.5 -9t6 -15.5t-5 -19.5l-99 -203q-4 -10 -10 -16t-15 -9t-23.5 -4.5t-32.5 -1.5q-23 0 -33 2.5t-15.5 7.5t-4.5 13t3 18z" />
<glyph unicode="&#x146;" horiz-adv-x="1075" d="M928 25q0 -8 -4 -13.5t-13.5 -9.5t-25 -6t-39.5 -2q-25 0 -41.5 2t-25.5 6t-12 9t-3 14v528q0 76 -12.5 123t-36 81t-59 52t-85.5 18q-61 0 -123.5 -44t-130.5 -130v-628q0 -8 -4 -13.5t-12 -9.5t-24.5 -6t-40.5 -2q-25 0 -41.5 2t-25.5 6t-12 9t-3 14v901q0 8 3 13t11 9 t22.5 6t36.5 2q23 0 37.5 -2t22.5 -6t11 -9t3 -13v-119q78 84 152.5 124t152.5 40q90 0 151.5 -31t99.5 -82t54.5 -119.5t16.5 -165.5v-548zM467 -121q2 10 8 18.5t17.5 12.5t29 5t43.5 1q27 0 41.5 -3t21.5 -9t6 -15.5t-5 -19.5l-99 -203q-4 -10 -10 -16t-15 -9t-22.5 -4.5 t-33.5 -1.5q-23 0 -33 2.5t-15.5 7.5t-4.5 13t3 18z" />
<glyph unicode="&#x147;" horiz-adv-x="1320" d="M1151 72q0 -20 -7 -34.5t-17.5 -24t-23.5 -12.5t-26 -3h-55q-27 0 -46.5 5t-36.5 19.5t-34.5 39t-38.5 65.5l-407 735q-33 57 -66 119.5t-59 122.5h-2q2 -74 3 -148.5t1 -148.5v-780q0 -8 -4 -14.5t-14.5 -9.5t-26 -6t-37.5 -3q-25 0 -40 3t-24.5 6t-13.5 9t-4 15v1194 q0 39 21.5 56t48.5 17h82q29 0 48 -5t35.5 -16t31 -31.5t30.5 -51.5l313 -569q29 -51 56.5 -101.5t52 -97.5t49.5 -94t49 -95v0q-2 80 -2 165v165v703q0 6 4 12t13.5 10t24.5 6t40 2q23 0 39 -2t25.5 -6t13.5 -10t4 -12v-1194zM664 1395q-23 0 -36.5 1t-23.5 4t-18 9t-17 14 l-215 228q-8 10 -10 17t4 12.5t20.5 7.5t34.5 2q31 0 48.5 -2t29 -4.5t17.5 -7.5t12 -11l154 -172l159 170q8 6 16.5 12t19.5 9.5t29.5 4.5t45.5 1q25 0 39 -3.5t19 -7.5t2 -11t-11 -17l-221 -228q-8 -8 -17.5 -13t-20.5 -9t-25.5 -5t-34.5 -1zM213 1294z" />
<glyph unicode="&#x148;" horiz-adv-x="1075" d="M928 25q0 -8 -4 -13.5t-13.5 -9.5t-25 -6t-39.5 -2q-25 0 -41.5 2t-25.5 6t-12 9t-3 14v528q0 76 -12.5 123t-36 81t-59 52t-85.5 18q-61 0 -123.5 -44t-130.5 -130v-628q0 -8 -4 -13.5t-12 -9.5t-24.5 -6t-40.5 -2q-25 0 -41.5 2t-25.5 6t-12 9t-3 14v901q0 8 3 13t11 9 t22.5 6t36.5 2q23 0 37.5 -2t22.5 -6t11 -9t3 -13v-119q78 84 152.5 124t152.5 40q90 0 151.5 -31t99.5 -82t54.5 -119.5t16.5 -165.5v-548zM698 1372q6 8 12.5 14.5t14.5 9.5t21.5 5t31.5 2q27 0 41.5 -4t19.5 -10.5t1 -16.5t-17 -26l-164 -230q-6 -6 -13 -11t-17.5 -8 t-25.5 -4t-38 -1q-20 0 -34.5 1t-24.5 4t-16.5 8t-12.5 11l-164 230q-12 14 -15 25t1 17.5t19.5 10.5t39.5 4q23 0 35.5 -2t20.5 -5t13 -9.5t11 -14.5l129 -180zM164 950z" />
<glyph unicode="&#x149;" horiz-adv-x="1185" d="M1038 25q0 -8 -4 -13.5t-13 -9.5t-24.5 -6t-40.5 -2t-41 2t-25 6t-13.5 9t-4.5 14v528q0 76 -11 123t-34.5 81t-60.5 52t-84 18q-61 0 -123.5 -44t-130.5 -130v-628q0 -8 -4 -13.5t-13.5 -9.5t-24.5 -6t-42 -2q-23 0 -39 2t-25.5 6t-13.5 9t-4 14v901q0 8 3 13t12.5 9 t23.5 6t37 2t37 -2t22.5 -6t11.5 -9t3 -13v-119q76 84 151.5 124t153.5 40q90 0 151.5 -31t99.5 -82t54 -119.5t16 -165.5v-548zM229 1319q0 -33 -3 -57.5t-9 -48t-18.5 -46t-28.5 -47.5l-137 -207q-4 -6 -11.5 -12t-16.5 -9t-21.5 -5t-30.5 -2t-29.5 2t-16.5 5t-5 9t4 14 l133 277v127q0 25 5 41t17.5 25.5t30 12.5t43.5 3q25 0 43.5 -3t29.5 -12.5t16 -25.5t5 -41z" />
<glyph unicode="&#x14a;" horiz-adv-x="1286" d="M1114 -33q0 -76 -13.5 -137t-45 -104t-84.5 -67t-133 -24q-27 0 -49.5 2.5t-41 6.5t-30.5 9t-19.5 11t-10.5 21.5t-3 42.5q0 16 2 29.5t5 20.5t8.5 10t11.5 3q8 0 15 -2t18.5 -6t29 -7t43.5 -3q35 0 58.5 9t39 31.5t21.5 58.5t6 85v43l-459 811q-37 63 -74.5 134 t-74.5 140v0q2 -100 2 -201.5v-201.5v-657q0 -8 -4 -13.5t-13.5 -9.5t-24.5 -6t-40 -2q-23 0 -39 2t-25.5 6t-13.5 9t-4 14v1196q0 39 20.5 56t47.5 17h84q23 0 40 -5t30.5 -14t24.5 -24.5t23 -38.5l326 -573q47 -82 94 -168t90 -168h2q-2 90 -3 186.5t-1 188.5v588 q0 8 4 13t14.5 9t26 6t37.5 2q23 0 39 -2t25.5 -6t13.5 -9t4 -13v-1299z" />
<glyph unicode="&#x14b;" horiz-adv-x="1075" d="M928 10q0 -113 -16.5 -179.5t-51.5 -110.5t-86 -64.5t-123 -20.5q-49 0 -82.5 8.5t-46 17.5t-15.5 24.5t-3 40.5q0 18 2 30.5t5 19.5t8 10t11 3q8 0 17.5 -2t21 -5t26.5 -6t38 -3q29 0 53.5 8t40.5 33.5t26.5 70.5t10.5 138v530q0 76 -12.5 123t-36 81t-59 52t-85.5 18 q-61 0 -123.5 -44t-130.5 -130v-628q0 -8 -4 -13.5t-12 -9.5t-24.5 -6t-40.5 -2q-25 0 -41.5 2t-25.5 6t-12 9t-3 14v901q0 8 3 13t11 9t22.5 6t36.5 2q23 0 37.5 -2t22.5 -6t11 -9t3 -13v-119q78 84 152.5 124t152.5 40q90 0 151.5 -31t99.5 -82t54.5 -119.5t16.5 -165.5 v-563z" />
<glyph unicode="&#x14c;" horiz-adv-x="1355" d="M1255 662q0 -156 -36.5 -282t-110.5 -215t-184.5 -136t-257.5 -47t-254 43t-175.5 125.5t-103.5 205.5t-35 285q0 152 37 276.5t112 213t185.5 135.5t257.5 47q143 0 250 -43t177.5 -125t104 -203.5t33.5 -279.5zM1075 649q0 111 -19.5 205t-65.5 163.5t-121.5 108.5 t-186.5 39q-113 0 -188.5 -42t-123.5 -111.5t-68.5 -162.5t-20.5 -198q0 -113 19 -209t64.5 -165.5t120 -108.5t189.5 -39q113 0 189.5 42t123.5 113.5t67.5 166t20.5 198.5zM956 1589q6 0 12.5 -4t10.5 -11t6 -20.5t2 -29.5t-2 -28.5t-6 -22t-10 -13.5t-13 -4h-546 q-8 0 -14.5 4t-10.5 13.5t-6 21.5t-2 29q0 16 2 29.5t6 20.5t10 11t15 4h546zM246 1294z" />
<glyph unicode="&#x14d;" horiz-adv-x="1079" d="M989 485q0 -111 -28.5 -203t-86 -159.5t-144.5 -104t-200 -36.5q-111 0 -193.5 32.5t-138 95t-82 152.5t-26.5 205q0 111 28.5 203t86 159.5t143.5 104.5t201 37q111 0 193.5 -34t138 -96.5t82 -152.5t26.5 -203zM815 473q0 74 -13.5 139.5t-44 113.5t-83.5 76.5 t-131 28.5q-74 0 -126 -25.5t-86 -73.5t-51.5 -112.5t-17.5 -142.5q0 -74 14.5 -138.5t45 -113.5t84 -76.5t133.5 -27.5q72 0 125 25.5t86.5 72.5t49 111.5t15.5 142.5zM780 1292q8 0 14.5 -3t10.5 -10t6 -20.5t2 -29.5q0 -18 -2 -29.5t-6 -20t-10.5 -12.5t-14.5 -4h-479 q-6 0 -13 4t-11.5 12.5t-6.5 19.5t-2 30q0 16 2 29.5t6.5 20.5t11.5 10t13 3h479zM137 950z" />
<glyph unicode="&#x14e;" horiz-adv-x="1355" d="M1255 662q0 -156 -36.5 -282t-110.5 -215t-184.5 -136t-257.5 -47t-254 43t-175.5 125.5t-103.5 205.5t-35 285q0 152 37 276.5t112 213t185.5 135.5t257.5 47q143 0 250 -43t177.5 -125t104 -203.5t33.5 -279.5zM1075 649q0 111 -19.5 205t-65.5 163.5t-121.5 108.5 t-186.5 39q-113 0 -188.5 -42t-123.5 -111.5t-68.5 -162.5t-20.5 -198q0 -113 19 -209t64.5 -165.5t120 -108.5t189.5 -39q113 0 189.5 42t123.5 113.5t67.5 166t20.5 198.5zM942 1665q0 -63 -17.5 -113.5t-51 -85t-83 -53t-110.5 -18.5q-68 0 -117 20.5t-80.5 56t-46 85 t-14.5 108.5q0 14 11 20.5t46 6.5t50.5 -4.5t15.5 -19.5t8 -50t25.5 -56.5t43 -33.5t60.5 -12q51 0 82 24.5t42 57t12 56t12.5 31t52.5 7.5q37 0 48 -6.5t11 -20.5zM289 1294z" />
<glyph unicode="&#x14f;" horiz-adv-x="1079" d="M989 485q0 -111 -28.5 -203t-86 -159.5t-144.5 -104t-200 -36.5q-111 0 -193.5 32.5t-138 95t-82 152.5t-26.5 205q0 111 28.5 203t86 159.5t143.5 104.5t201 37q111 0 193.5 -34t138 -96.5t82 -152.5t26.5 -203zM815 473q0 74 -13.5 139.5t-44 113.5t-83.5 76.5 t-131 28.5q-74 0 -126 -25.5t-86 -73.5t-51.5 -112.5t-17.5 -142.5q0 -74 14.5 -138.5t45 -113.5t84 -76.5t133.5 -27.5q72 0 125 25.5t86.5 72.5t49 111.5t15.5 142.5zM680 1366q0 14 12.5 21.5t44.5 7.5q20 0 31.5 -1t18 -5.5t9.5 -9.5t3 -13q0 -68 -16.5 -118t-49.5 -84 t-82 -51t-112 -17q-68 0 -116 18.5t-80 52t-46 83.5t-14 114q0 16 11 23.5t46 7.5q18 0 29.5 -2t17.5 -5.5t9 -9.5t3 -12q4 -35 12.5 -63.5t25 -48t42 -31t60.5 -11.5q31 0 55 9.5t42.5 28t30 46t13.5 70.5zM150 950z" />
<glyph unicode="&#x150;" horiz-adv-x="1355" d="M1255 662q0 -156 -36.5 -282t-110.5 -215t-184.5 -136t-257.5 -47t-254 43t-175.5 125.5t-103.5 205.5t-35 285q0 152 37 276.5t112 213t185.5 135.5t257.5 47q143 0 250 -43t177.5 -125t104 -203.5t33.5 -279.5zM1075 649q0 111 -19.5 205t-65.5 163.5t-121.5 108.5 t-186.5 39q-113 0 -188.5 -42t-123.5 -111.5t-68.5 -162.5t-20.5 -198q0 -113 19 -209t64.5 -165.5t120 -108.5t189.5 -39q113 0 189.5 42t123.5 113.5t67.5 166t20.5 198.5zM557 1415q-6 -6 -13 -10t-18.5 -6t-25 -3t-31.5 -1q-33 0 -45 9t-2 26l170 233q6 8 13 13 t19.5 9.5t30 5.5t41.5 1q39 0 61.5 -3t32 -9.5t6.5 -14.5t-16 -20zM938 1417q-6 -8 -13 -12t-17.5 -6t-24 -3t-31.5 -1q-20 0 -32.5 2t-20.5 6t-9.5 10t5.5 14l178 238q6 6 14 11t21.5 9.5t32 5.5t44.5 1q33 0 53.5 -3t30 -9.5t8.5 -13.5t-10 -15zM285 1294z" />
<glyph unicode="&#x151;" horiz-adv-x="1079" d="M989 485q0 -111 -28.5 -203t-86 -159.5t-144.5 -104t-200 -36.5q-111 0 -193.5 32.5t-138 95t-82 152.5t-26.5 205q0 111 28.5 203t86 159.5t143.5 104.5t201 37q111 0 193.5 -34t138 -96.5t82 -152.5t26.5 -203zM815 473q0 74 -13.5 139.5t-44 113.5t-83.5 76.5 t-131 28.5q-74 0 -126 -25.5t-86 -73.5t-51.5 -112.5t-17.5 -142.5q0 -74 14.5 -138.5t45 -113.5t84 -76.5t133.5 -27.5q72 0 125 25.5t86.5 72.5t49 111.5t15.5 142.5zM434 1087q-6 -6 -11 -10t-14.5 -6t-20.5 -3t-30 -1q-18 0 -29.5 1t-17.5 5t-6 10.5t4 14.5l170 258 q6 8 13.5 13t17.5 8t26.5 5t38.5 2q31 0 49.5 -3t26.5 -9t6 -15t-12 -24zM772 1087q-6 -6 -13 -10t-16.5 -6t-20.5 -3t-30 -1q-33 0 -46 7t-5 22l182 262q6 8 12.5 12t17.5 7t27.5 5t43.5 2q29 0 46 -3t24 -9t5 -16t-12 -21zM172 950z" />
<glyph unicode="&#x152;" horiz-adv-x="1773" d="M1665 72q0 -18 -1 -31.5t-6 -23t-12.5 -13.5t-13.5 -4h-616q-18 0 -35.5 10t-22.5 37q-59 -33 -132.5 -49t-159.5 -16q-147 0 -254 43t-175.5 125.5t-103.5 205.5t-35 285q0 154 37 277.5t112 212t185.5 135.5t257.5 47q76 0 145.5 -16.5t122.5 -45.5q6 25 22.5 34 t35.5 9h608q8 0 14.5 -4t10.5 -13t7 -22.5t3 -33.5q0 -18 -3 -31.5t-7 -22t-10.5 -12.5t-14.5 -4h-506v-408h434q8 0 14.5 -4t10.5 -12t6 -22.5t2 -32.5t-2 -31.5t-6 -23t-10 -13.5t-15 -4h-434v-457h514q6 0 13.5 -4t12.5 -12t6 -22.5t1 -32.5zM946 1085 q-55 37 -119.5 58.5t-144.5 21.5q-113 0 -188.5 -41t-123.5 -111.5t-68.5 -163.5t-20.5 -198q0 -113 19 -209t64.5 -165.5t120 -108.5t189.5 -39q86 0 153.5 23.5t118.5 62.5v870z" />
<glyph unicode="&#x153;" horiz-adv-x="1738" d="M1642 514q0 -39 -19 -55.5t-44 -16.5h-592q0 -76 16.5 -135t51.5 -102t90 -66.5t137 -23.5q63 0 113.5 10t87.5 23.5t60.5 23.5t33.5 10q6 0 12 -3t9.5 -10t5.5 -19.5t2 -30.5q0 -12 -1 -21.5t-3.5 -16.5t-5.5 -14.5t-9 -12.5t-32.5 -17t-70.5 -24.5t-99.5 -21.5 t-120.5 -9q-131 0 -224.5 47t-146.5 147q-53 -94 -143.5 -144t-219.5 -50q-111 0 -192.5 32.5t-138 95t-83 152.5t-26.5 207q0 109 28.5 201t86 159.5t143.5 104.5t201 37q131 0 217 -49.5t139 -145.5q55 98 141.5 146.5t200.5 48.5q104 0 179 -35t123 -92.5t70.5 -134 t22.5 -164.5v-31zM1477 563q4 129 -57.5 204t-180.5 75q-61 0 -107.5 -23.5t-77 -61.5t-47 -88.5t-20.5 -105.5h490zM815 471q0 76 -13.5 141.5t-44 113.5t-83.5 76.5t-131 28.5q-74 0 -126 -25.5t-86 -72.5t-51.5 -112.5t-17.5 -143.5q0 -74 14.5 -138.5t45 -113.5 t84 -76.5t133.5 -27.5q72 0 125 25.5t86.5 72.5t49 111.5t15.5 140.5z" />
<glyph unicode="&#x154;" horiz-adv-x="1110" d="M1034 27q0 -8 -3 -14.5t-12 -10.5t-27.5 -6t-49.5 -2q-25 0 -41 2t-26.5 6t-15.5 12.5t-9 20.5l-121 305q-20 51 -42.5 95t-53.5 76t-73 49.5t-101 17.5h-115v-551q0 -8 -4 -14.5t-14.5 -9.5t-26.5 -6t-41 -3t-41 3t-26.5 6t-14.5 9t-4 15v1198q0 39 20.5 54t43.5 15h276 q47 0 80 -3t59 -5q74 -12 132.5 -40.5t97.5 -72t58 -98.5t19 -123q0 -63 -17 -115.5t-51 -91t-79 -68.5t-102 -48q31 -14 57.5 -36t49 -51.5t42 -69.5t39.5 -87l117 -287q12 -35 16 -49t4 -22zM776 936q0 76 -33.5 128t-113.5 75q-27 8 -57.5 11t-82.5 3h-145v-436h168 q68 0 118 16.5t82.5 46t48 69.5t15.5 87zM621 1651q12 14 22 20t23.5 10.5t31 6.5t41.5 2q31 0 48.5 -5.5t23.5 -12.5t4 -15t-10 -19l-227 -213q-10 -10 -18.5 -15t-20 -8t-25.5 -5t-37 -2t-36 3t-17 8t-2 13t10 19zM289 1294z" />
<glyph unicode="&#x155;" horiz-adv-x="712" d="M680 866q0 -23 -1 -38t-4 -23t-8 -12.5t-14 -4.5q-8 0 -19 4.5t-25.5 9.5t-33 8t-38.5 3q-25 0 -48.5 -9t-50 -32.5t-56.5 -61.5t-65 -94v-591q0 -8 -4 -13.5t-12 -9.5t-24.5 -6t-40.5 -2q-25 0 -41.5 2t-25.5 6t-12 9t-3 14v901q0 8 3 13t11 9t22.5 6t36.5 2 q23 0 37.5 -2t22.5 -6t11 -9t3 -13v-131q39 53 70.5 86.5t61.5 53t57.5 28t58.5 8.5q12 0 28.5 -2t35 -6.5t32.5 -9.5t20.5 -10t8.5 -9t3 -11.5t2 -20.5t1 -36zM471 1366q6 10 14.5 17.5t19.5 11.5t28.5 6t41.5 2q27 0 45.5 -4t24.5 -10.5t5 -14.5t-9 -18l-180 -234 q-8 -10 -14.5 -15t-14.5 -9t-22.5 -5t-32.5 -1q-23 0 -36 3t-18.5 8t-4.5 12t10 20zM186 950z" />
<glyph unicode="&#x156;" horiz-adv-x="1110" d="M1034 27q0 -8 -3 -14.5t-12 -10.5t-27.5 -6t-49.5 -2q-25 0 -41 2t-26.5 6t-15.5 12.5t-9 20.5l-121 305q-20 51 -42.5 95t-53.5 76t-73 49.5t-101 17.5h-115v-551q0 -8 -4 -14.5t-14.5 -9.5t-26.5 -6t-41 -3t-41 3t-26.5 6t-14.5 9t-4 15v1198q0 39 20.5 54t43.5 15h276 q47 0 80 -3t59 -5q74 -12 132.5 -40.5t97.5 -72t58 -98.5t19 -123q0 -63 -17 -115.5t-51 -91t-79 -68.5t-102 -48q31 -14 57.5 -36t49 -51.5t42 -69.5t39.5 -87l117 -287q12 -35 16 -49t4 -22zM776 936q0 76 -33.5 128t-113.5 75q-27 8 -57.5 11t-82.5 3h-145v-436h168 q68 0 118 16.5t82.5 46t48 69.5t15.5 87zM492 -121q2 10 8 18.5t17 12.5t28.5 5t44.5 1t41 -3t21 -9t6 -15.5t-5 -19.5l-98 -203q-2 -10 -8 -16t-16.5 -9t-23.5 -4.5t-34 -1.5q-20 0 -31.5 2.5t-16.5 7.5t-4 13t5 18z" />
<glyph unicode="&#x157;" horiz-adv-x="712" d="M680 866q0 -23 -1 -38t-4 -23t-8 -12.5t-14 -4.5q-8 0 -19 4.5t-25.5 9.5t-33 8t-38.5 3q-25 0 -48.5 -9t-50 -32.5t-56.5 -61.5t-65 -94v-591q0 -8 -4 -13.5t-12 -9.5t-24.5 -6t-40.5 -2q-25 0 -41.5 2t-25.5 6t-12 9t-3 14v901q0 8 3 13t11 9t22.5 6t36.5 2 q23 0 37.5 -2t22.5 -6t11 -9t3 -13v-131q39 53 70.5 86.5t61.5 53t57.5 28t58.5 8.5q12 0 28.5 -2t35 -6.5t32.5 -9.5t20.5 -10t8.5 -9t3 -11.5t2 -20.5t1 -36zM180 -121q4 10 10.5 18.5t16.5 12.5t28.5 5t45.5 1q25 0 40 -3t21 -9t6 -15.5t-6 -19.5l-96 -203 q-4 -10 -10.5 -16t-15.5 -9t-23.5 -4.5t-32.5 -1.5q-23 0 -33 2.5t-15 7.5t-4 13t3 18z" />
<glyph unicode="&#x158;" horiz-adv-x="1110" d="M1034 27q0 -8 -3 -14.5t-12 -10.5t-27.5 -6t-49.5 -2q-25 0 -41 2t-26.5 6t-15.5 12.5t-9 20.5l-121 305q-20 51 -42.5 95t-53.5 76t-73 49.5t-101 17.5h-115v-551q0 -8 -4 -14.5t-14.5 -9.5t-26.5 -6t-41 -3t-41 3t-26.5 6t-14.5 9t-4 15v1198q0 39 20.5 54t43.5 15h276 q47 0 80 -3t59 -5q74 -12 132.5 -40.5t97.5 -72t58 -98.5t19 -123q0 -63 -17 -115.5t-51 -91t-79 -68.5t-102 -48q31 -14 57.5 -36t49 -51.5t42 -69.5t39.5 -87l117 -287q12 -35 16 -49t4 -22zM776 936q0 76 -33.5 128t-113.5 75q-27 8 -57.5 11t-82.5 3h-145v-436h168 q68 0 118 16.5t82.5 46t48 69.5t15.5 87zM535 1395q-23 0 -36.5 1t-23.5 4t-18 9t-17 14l-215 228q-8 10 -10 17t4 12.5t20.5 7.5t34.5 2q31 0 49.5 -2t28.5 -4.5t16.5 -7.5t12.5 -11l154 -172l159 170q8 6 16.5 12t19.5 9.5t29.5 4.5t45.5 1q25 0 39 -3.5t19 -7.5t2 -11 t-11 -17l-221 -228q-8 -8 -17.5 -13t-20.5 -9t-25.5 -5t-34.5 -1zM84 1294z" />
<glyph unicode="&#x159;" horiz-adv-x="712" d="M680 866q0 -23 -1 -38t-4 -23t-8 -12.5t-14 -4.5q-8 0 -19 4.5t-25.5 9.5t-33 8t-38.5 3q-25 0 -48.5 -9t-50 -32.5t-56.5 -61.5t-65 -94v-591q0 -8 -4 -13.5t-12 -9.5t-24.5 -6t-40.5 -2q-25 0 -41.5 2t-25.5 6t-12 9t-3 14v901q0 8 3 13t11 9t22.5 6t36.5 2 q23 0 37.5 -2t22.5 -6t11 -9t3 -13v-131q39 53 70.5 86.5t61.5 53t57.5 28t58.5 8.5q12 0 28.5 -2t35 -6.5t32.5 -9.5t20.5 -10t8.5 -9t3 -11.5t2 -20.5t1 -36zM526 1372q8 8 13.5 14.5t14.5 9.5t21.5 5t30.5 2q27 0 42.5 -4t19.5 -10.5t0 -16.5t-15 -26l-166 -230 q-6 -6 -12 -11t-17.5 -8t-25.5 -4t-37 -1q-20 0 -34.5 1t-24.5 4t-17.5 8t-11.5 11l-166 230q-10 14 -14 25t1 17.5t19.5 10.5t40.5 4q20 0 32.5 -2t21 -5t13.5 -9.5t11 -14.5l131 -180zM-6 950z" />
<glyph unicode="&#x15a;" horiz-adv-x="940" d="M866 362q0 -90 -32.5 -161.5t-92 -120.5t-140.5 -73.5t-175 -24.5q-63 0 -118.5 10t-99.5 26.5t-74 34t-41 28.5t-16 29.5t-5 51.5q0 20 2 35.5t6 23.5t9 12.5t13 4.5q14 0 40 -17.5t66 -37t96 -37t130 -17.5q57 0 103.5 14.5t80 42t51 67.5t17.5 91q0 55 -24.5 94 t-65.5 69t-93 54.5t-107.5 50t-107.5 56t-93 72.5t-67 98.5t-26 136.5t30 143.5t82 106.5t125 65.5t157 22.5q43 0 87 -7.5t81.5 -19.5t68.5 -28.5t40 -25.5t12 -14.5t5.5 -14.5t3.5 -20.5t1 -29.5t-2 -32.5t-5.5 -24t-8.5 -14.5t-11 -5q-12 0 -35.5 14.5t-57.5 32t-80 31.5 t-106 14q-53 0 -93 -14t-66.5 -37.5t-38.5 -57.5t-12 -71q0 -53 24.5 -92t66.5 -68.5t94 -55t107.5 -51.5t108.5 -55.5t94 -71.5t66.5 -98.5t25.5 -134.5zM598 1651q10 14 20.5 20t23.5 10.5t30.5 6.5t44.5 2q29 0 46 -5.5t24.5 -12.5t4 -15t-11.5 -19l-227 -213 q-10 -10 -18.5 -15t-19.5 -8t-25.5 -5t-34.5 -2q-25 0 -37 3t-17.5 8t-3.5 13t11 19zM264 1294z" />
<glyph unicode="&#x15b;" horiz-adv-x="800" d="M719 270q0 -70 -25.5 -124t-73 -91t-113 -55t-142.5 -18q-47 0 -91.5 7t-78 18t-58 23.5t-36 22.5t-15.5 28.5t-4 49.5q0 18 2 31.5t4 22t8 11.5t13 3q12 0 33.5 -13.5t52 -30t73.5 -29.5t101 -13q41 0 74.5 9t59 26.5t39 44t13.5 63.5q0 39 -19.5 64.5t-51 46t-71.5 36 t-83 33t-83 39t-73 52t-52.5 73.5t-19.5 102q0 53 20.5 102.5t61.5 85.5t102.5 58.5t143.5 22.5q37 0 73 -6.5t65.5 -15.5t50 -19t30.5 -18.5t13.5 -14.5t5.5 -13t3 -18.5t1 -27.5t-1 -28.5t-5 -21t-9.5 -12.5t-11.5 -4q-8 0 -25.5 11.5t-44 23.5t-63.5 23.5t-84 11.5 q-41 0 -72.5 -9.5t-52 -27t-32 -42t-11.5 -50.5q0 -39 20.5 -65.5t52.5 -47t72.5 -36t83.5 -33t84 -39t74 -51t52.5 -72t19.5 -99.5zM483 1366q6 10 14.5 17.5t19.5 11.5t28.5 6t42.5 2q27 0 44 -4t24.5 -10.5t6.5 -14.5t-10 -18l-180 -234q-8 -10 -14 -15t-15.5 -9 t-22.5 -5t-34 -1q-20 0 -33.5 3t-18.5 8t-4 12t9 20zM199 950z" />
<glyph unicode="&#x15c;" horiz-adv-x="940" d="M866 362q0 -90 -32.5 -161.5t-92 -120.5t-140.5 -73.5t-175 -24.5q-63 0 -118.5 10t-99.5 26.5t-74 34t-41 28.5t-16 29.5t-5 51.5q0 20 2 35.5t6 23.5t9 12.5t13 4.5q14 0 40 -17.5t66 -37t96 -37t130 -17.5q57 0 103.5 14.5t80 42t51 67.5t17.5 91q0 55 -24.5 94 t-65.5 69t-93 54.5t-107.5 50t-107.5 56t-93 72.5t-67 98.5t-26 136.5t30 143.5t82 106.5t125 65.5t157 22.5q43 0 87 -7.5t81.5 -19.5t68.5 -28.5t40 -25.5t12 -14.5t5.5 -14.5t3.5 -20.5t1 -29.5t-2 -32.5t-5.5 -24t-8.5 -14.5t-11 -5q-12 0 -35.5 14.5t-57.5 32t-80 31.5 t-106 14q-53 0 -93 -14t-66.5 -37.5t-38.5 -57.5t-12 -71q0 -53 24.5 -92t66.5 -68.5t94 -55t107.5 -51.5t108.5 -55.5t94 -71.5t66.5 -98.5t25.5 -134.5zM485 1690q23 0 36.5 -1t23.5 -5.5t18 -9.5t17 -13l215 -227q8 -10 10 -17.5t-4 -12.5t-19.5 -7t-36.5 -2q-31 0 -48 2 t-28.5 4t-18.5 6t-11 10l-154 172l-159 -168q-8 -8 -16.5 -13t-19.5 -8t-29.5 -4t-45.5 -1q-25 0 -38 3t-19 7t-4 11t12 18l223 227q8 8 16.5 13t19.5 9.5t25.5 5.5t34.5 1zM20 1294z" />
<glyph unicode="&#x15d;" horiz-adv-x="800" d="M719 270q0 -70 -25.5 -124t-73 -91t-113 -55t-142.5 -18q-47 0 -91.5 7t-78 18t-58 23.5t-36 22.5t-15.5 28.5t-4 49.5q0 18 2 31.5t4 22t8 11.5t13 3q12 0 33.5 -13.5t52 -30t73.5 -29.5t101 -13q41 0 74.5 9t59 26.5t39 44t13.5 63.5q0 39 -19.5 64.5t-51 46t-71.5 36 t-83 33t-83 39t-73 52t-52.5 73.5t-19.5 102q0 53 20.5 102.5t61.5 85.5t102.5 58.5t143.5 22.5q37 0 73 -6.5t65.5 -15.5t50 -19t30.5 -18.5t13.5 -14.5t5.5 -13t3 -18.5t1 -27.5t-1 -28.5t-5 -21t-9.5 -12.5t-11.5 -4q-8 0 -25.5 11.5t-44 23.5t-63.5 23.5t-84 11.5 q-41 0 -72.5 -9.5t-52 -27t-32 -42t-11.5 -50.5q0 -39 20.5 -65.5t52.5 -47t72.5 -36t83.5 -33t84 -39t74 -51t52.5 -72t19.5 -99.5zM272 1120q-6 -10 -12 -15t-14 -8t-20.5 -4t-32.5 -1q-27 0 -41.5 3t-19.5 9t-1 17.5t16 25.5l164 229q6 8 13.5 12.5t17.5 7.5t25.5 5 t38.5 2q20 0 34.5 -2t23.5 -5t16 -8.5t12 -11.5l165 -229q10 -14 14.5 -25.5t0.5 -17.5t-19.5 -9t-42.5 -3q-20 0 -32.5 1t-20.5 4t-13 9t-12 14l-131 180zM-2 950z" />
<glyph unicode="&#x15e;" horiz-adv-x="940" d="M518 -12l27 -62q20 -45 30.5 -74.5t10.5 -56.5q0 -37 -14.5 -66.5t-40 -50t-62.5 -32t-80 -11.5q-35 0 -66.5 4.5t-54 9.5t-31 9t-11.5 10t-5 15.5t-2 23.5q0 31 6 41t23 10h123q33 0 51 14.5t18 41.5q0 12 -7 31.5t-15 41.5l-43 97q-45 4 -86 12t-83 24.5t-72 33 t-41 27.5t-16 29.5t-5 51.5q0 20 2 35.5t6 23.5t9 12.5t13 4.5q14 0 40 -17.5t66 -37t96 -37t130 -17.5q57 0 103.5 14.5t80 42t51 67.5t17.5 91q0 55 -24.5 94t-65.5 69t-93 54.5t-107.5 50t-107.5 56t-93 72.5t-67 98.5t-26 136.5t30 143.5t82 106.5t125 65.5t157 22.5 q43 0 87 -7.5t81.5 -19.5t68.5 -28.5t40 -25.5t12 -14.5t5.5 -14.5t3.5 -20.5t1 -29.5t-2 -32.5t-5.5 -24t-8.5 -14.5t-11 -5q-12 0 -35.5 14.5t-57.5 32t-80 31.5t-106 14q-53 0 -93 -14t-66.5 -37.5t-38.5 -57.5t-12 -71q0 -53 24.5 -92t66.5 -68.5t94 -55t107.5 -51.5 t108.5 -55.5t94 -71.5t66.5 -98.5t25.5 -134.5q0 -90 -35.5 -167.5t-113.5 -133t-199 -73.5z" />
<glyph unicode="&#x15f;" horiz-adv-x="800" d="M483 -6l31 -68q23 -45 32 -74.5t9 -56.5q0 -37 -14.5 -66.5t-40 -50t-61.5 -32t-81 -11.5q-35 0 -66.5 4.5t-54 9.5t-30.5 9t-11 10t-5.5 15.5t-2.5 23.5q0 31 7.5 41t21.5 10h125q31 0 49.5 14.5t18.5 41.5q0 12 -6.5 31.5t-16.5 41.5l-43 95q-63 2 -113.5 15t-83 29.5 t-45 26.5t-16.5 28.5t-4 49.5q0 18 2 31.5t4 22t8 11.5t13 3q12 0 33.5 -13.5t52 -30t73.5 -29.5t101 -13q41 0 74.5 9t59 26.5t39 44t13.5 63.5q0 39 -19.5 64.5t-51 46t-71.5 36t-83 33t-83 39t-73 52t-52.5 73.5t-19.5 102q0 53 20.5 102.5t61.5 85.5t102.5 58.5 t143.5 22.5q37 0 73 -6.5t65.5 -15.5t50 -19t30.5 -18.5t13.5 -14.5t5.5 -13t3 -18.5t1 -27.5t-1 -28.5t-5 -21t-9.5 -12.5t-11.5 -4q-8 0 -25.5 11.5t-44 23.5t-63.5 23.5t-84 11.5q-41 0 -72.5 -9.5t-52 -27t-32 -42t-11.5 -50.5q0 -39 20.5 -65.5t52.5 -47t72.5 -36 t83.5 -33t84 -39t74 -51t52.5 -71.5t19.5 -100q0 -68 -25.5 -123t-78 -95t-132.5 -58z" />
<glyph unicode="&#x160;" horiz-adv-x="940" d="M866 362q0 -90 -32.5 -161.5t-92 -120.5t-140.5 -73.5t-175 -24.5q-63 0 -118.5 10t-99.5 26.5t-74 34t-41 28.5t-16 29.5t-5 51.5q0 20 2 35.5t6 23.5t9 12.5t13 4.5q14 0 40 -17.5t66 -37t96 -37t130 -17.5q57 0 103.5 14.5t80 42t51 67.5t17.5 91q0 55 -24.5 94 t-65.5 69t-93 54.5t-107.5 50t-107.5 56t-93 72.5t-67 98.5t-26 136.5t30 143.5t82 106.5t125 65.5t157 22.5q43 0 87 -7.5t81.5 -19.5t68.5 -28.5t40 -25.5t12 -14.5t5.5 -14.5t3.5 -20.5t1 -29.5t-2 -32.5t-5.5 -24t-8.5 -14.5t-11 -5q-12 0 -35.5 14.5t-57.5 32t-80 31.5 t-106 14q-53 0 -93 -14t-66.5 -37.5t-38.5 -57.5t-12 -71q0 -53 24.5 -92t66.5 -68.5t94 -55t107.5 -51.5t108.5 -55.5t94 -71.5t66.5 -98.5t25.5 -134.5zM475 1395q-20 0 -34.5 1t-24.5 4t-18.5 9t-16.5 14l-213 228q-10 10 -12 17t4 12.5t20.5 7.5t34.5 2q31 0 49.5 -2 t28.5 -4.5t16 -7.5t13 -11l153 -172l162 170q6 6 14 12t19.5 9.5t30 4.5t44.5 1q25 0 39.5 -3.5t19.5 -7.5t3 -11t-10 -17l-224 -228q-8 -8 -17 -13t-20.5 -9t-26 -5t-34.5 -1zM25 1294z" />
<glyph unicode="&#x161;" horiz-adv-x="800" d="M719 270q0 -70 -25.5 -124t-73 -91t-113 -55t-142.5 -18q-47 0 -91.5 7t-78 18t-58 23.5t-36 22.5t-15.5 28.5t-4 49.5q0 18 2 31.5t4 22t8 11.5t13 3q12 0 33.5 -13.5t52 -30t73.5 -29.5t101 -13q41 0 74.5 9t59 26.5t39 44t13.5 63.5q0 39 -19.5 64.5t-51 46t-71.5 36 t-83 33t-83 39t-73 52t-52.5 73.5t-19.5 102q0 53 20.5 102.5t61.5 85.5t102.5 58.5t143.5 22.5q37 0 73 -6.5t65.5 -15.5t50 -19t30.5 -18.5t13.5 -14.5t5.5 -13t3 -18.5t1 -27.5t-1 -28.5t-5 -21t-9.5 -12.5t-11.5 -4q-8 0 -25.5 11.5t-44 23.5t-63.5 23.5t-84 11.5 q-41 0 -72.5 -9.5t-52 -27t-32 -42t-11.5 -50.5q0 -39 20.5 -65.5t52.5 -47t72.5 -36t83.5 -33t84 -39t74 -51t52.5 -72t19.5 -99.5zM530 1372q8 8 13.5 14.5t14.5 9.5t21.5 5t30.5 2q27 0 42.5 -4t19.5 -10.5t0 -16.5t-15 -26l-165 -230q-6 -6 -13.5 -11t-17.5 -8t-24.5 -4 t-37.5 -1q-20 0 -34.5 1t-24.5 4t-17.5 8t-11.5 11l-166 230q-10 14 -14 25t1 17.5t19.5 10.5t41.5 4q20 0 32.5 -2t20.5 -5t13 -9.5t11 -14.5l131 -180zM-2 950z" />
<glyph unicode="&#x162;" horiz-adv-x="997" d="M983 1221q0 -20 -2 -33.5t-6 -23t-11.5 -12.5t-15.5 -3h-362v-1122q0 -8 -4 -14.5t-14.5 -9.5t-27 -6t-40.5 -3q-25 0 -42.5 3t-26.5 6t-13 9t-4 15v1122h-365q-8 0 -14 3t-10.5 12.5t-7.5 22.5t-3 34q0 18 3 32.5t7.5 23.5t10.5 13t14 4h899q8 0 15.5 -4t11.5 -13 t6 -23.5t2 -32.5zM414 -121q2 10 8 18.5t17.5 12.5t28.5 5t44 1t41 -3t21.5 -9t6.5 -15.5t-6 -19.5l-98 -203q-4 -10 -9 -16t-15.5 -9t-23.5 -4.5t-34 -1.5q-20 0 -31.5 2.5t-16.5 7.5t-4 13t3 18z" />
<glyph unicode="&#x163;" horiz-adv-x="684" d="M621 90q0 -29 -4.5 -45t-11.5 -24.5t-23.5 -15.5t-37 -11t-44 -7t-45.5 -3q-70 0 -120 18t-82 55t-46 95.5t-14 136.5v524h-127q-14 0 -23.5 16.5t-9.5 53.5q0 18 3 31.5t6 21.5t10 11t16 3h125v215q0 6 3 12.5t12 11.5t25.5 6t40.5 1q25 0 41.5 -1t24.5 -6t12 -11.5 t4 -12.5v-215h232q8 0 14 -3t10 -11t6.5 -21.5t2.5 -31.5q0 -37 -9.5 -53.5t-23.5 -16.5h-232v-502q0 -92 28 -139t99 -47q23 0 41.5 4t31.5 9t23.5 9.5t18.5 4.5q4 0 9 -2.5t7 -9.5t4.5 -19.5t2.5 -30.5zM319 -121q4 10 10.5 18.5t16.5 12.5t27.5 5t46.5 1q25 0 40 -3 t21 -9t6 -15.5t-6 -19.5l-96 -203q-4 -10 -10 -16t-15.5 -9t-23.5 -4.5t-35 -1.5q-20 0 -31.5 2.5t-15.5 7.5t-3 13t3 18z" />
<glyph unicode="&#x164;" horiz-adv-x="997" d="M983 1221q0 -20 -2 -33.5t-6 -23t-11.5 -12.5t-15.5 -3h-362v-1122q0 -8 -4 -14.5t-14.5 -9.5t-27 -6t-40.5 -3q-25 0 -42.5 3t-26.5 6t-13 9t-4 15v1122h-365q-8 0 -14 3t-10.5 12.5t-7.5 22.5t-3 34q0 18 3 32.5t7.5 23.5t10.5 13t14 4h899q8 0 15.5 -4t11.5 -13 t6 -23.5t2 -32.5zM492 1395q-20 0 -35 1t-25 4t-17 9t-18 14l-213 228q-10 10 -12 17t4 12.5t20.5 7.5t36.5 2q29 0 47.5 -2t30 -4.5t17.5 -7.5t12 -11l154 -172l159 170q6 6 15.5 12t20.5 9.5t28.5 4.5t46.5 1q23 0 37 -3.5t19 -7.5t3 -11t-10 -17l-223 -228 q-8 -8 -17.5 -13t-19.5 -9t-25.5 -5t-35.5 -1zM41 1294z" />
<glyph unicode="&#x165;" horiz-adv-x="706" d="M621 90q0 -29 -4.5 -45t-11.5 -24.5t-23.5 -15.5t-37 -11t-44 -7t-45.5 -3q-70 0 -120 18t-82 55t-46 95.5t-14 136.5v524h-127q-14 0 -23.5 16.5t-9.5 53.5q0 18 3 31.5t6 21.5t10 11t16 3h125v215q0 6 3 12.5t12 11.5t25.5 6t40.5 1q25 0 41.5 -1t24.5 -6t12 -11.5 t4 -12.5v-215h232q8 0 14 -3t10 -11t6.5 -21.5t2.5 -31.5q0 -37 -9.5 -53.5t-23.5 -16.5h-232v-502q0 -92 28 -139t99 -47q23 0 41.5 4t31.5 9t23.5 9.5t18.5 4.5q4 0 9 -2.5t7 -9.5t4.5 -19.5t2.5 -30.5zM573 1440q4 10 10.5 16t15.5 10t25.5 6.5t41.5 2.5q23 0 35 -2.5 t18 -6.5t7 -11t-1 -17l-127 -312q0 -8 -5 -12t-13.5 -6t-21.5 -3t-36 -1q-14 0 -23.5 2t-13.5 5t-5 9t1 15zM348 1075z" />
<glyph unicode="&#x166;" horiz-adv-x="997" d="M586 733h266q6 0 13 -4t11.5 -12t6.5 -21.5t2 -31.5q0 -20 -2 -33t-6.5 -22t-11.5 -13t-13 -4h-266v-567q0 -8 -4 -13.5t-14.5 -9.5t-27 -6t-40.5 -2q-25 0 -42.5 2t-26.5 6t-13 9t-4 14v567h-267q-8 0 -14 4t-10 12t-7 21.5t-3 34.5q0 18 3 31.5t7 21.5t10 12t14 4h267 v416h-365q-8 0 -14 3t-10.5 12.5t-7.5 22.5t-3 34q0 18 3 32.5t7.5 23.5t10.5 13t14 4h899q8 0 15.5 -4t11.5 -13t6 -23.5t2 -32.5q0 -20 -2 -33.5t-6 -23t-11.5 -12.5t-15.5 -3h-362v-416z" />
<glyph unicode="&#x167;" horiz-adv-x="698" d="M72 440q-8 0 -14.5 3t-10.5 11.5t-6 20.5t-2 29q0 18 2 30.5t6 19.5t10 10t15 3h125v252h-125q-8 0 -14.5 3t-10.5 11.5t-6 21.5t-2 30q0 18 2 30.5t6 20.5t10 11t15 3h125v215q0 6 4 12.5t13 11.5t24.5 6t40.5 1t41 -1t25 -6t13 -11.5t4 -12.5v-215h230q8 0 14 -3 t10.5 -11t6.5 -20.5t2 -30.5q0 -16 -2 -29.5t-6.5 -22t-10.5 -11.5t-14 -3h-230v-252h179q8 0 13 -3t10 -10t7 -19.5t2 -30.5q0 -16 -2 -28.5t-7 -21t-10 -11.5t-13 -3h-179v-137q0 -88 28 -135t97 -47q25 0 42.5 4t31.5 9t24.5 9t18.5 4q4 0 8 -2t7.5 -9t4.5 -18.5t1 -29.5 t-1 -31.5t-5.5 -22.5t-10.5 -15.5t-22.5 -13.5t-48 -15t-76.5 -8q-72 0 -121 18t-81 56t-47 95.5t-15 135.5v153h-125z" />
<glyph unicode="&#x168;" horiz-adv-x="1312" d="M1145 477q0 -117 -35 -210t-98.5 -156.5t-155.5 -96t-209 -32.5q-106 0 -194 30.5t-151.5 91t-97.5 151.5t-34 210v803q0 8 4 14t14.5 9t25.5 6t42 3q25 0 41 -3t26.5 -6t14.5 -9t4 -14v-783q0 -90 21.5 -156.5t63.5 -111.5t100.5 -66.5t129.5 -21.5q76 0 134.5 21.5 t99.5 65.5t62.5 108.5t21.5 152.5v791q0 8 3 14t13 9t26.5 6t43.5 3q23 0 39 -3t26.5 -6t14.5 -9t4 -14v-791zM877 1614q0 12 13 17t48 5q37 0 47 -7t10 -34q0 -92 -51 -145t-145 -53q-53 0 -92 17.5t-72 39t-60.5 38.5t-60.5 17q-43 0 -59.5 -24.5t-16.5 -67.5q0 -6 -5 -10 t-12 -7t-19.5 -3h-24.5q-37 0 -48.5 7t-11.5 32q0 49 14.5 86t40 62.5t62.5 38.5t80 13q53 0 92 -18.5t72 -38.5t61.5 -38.5t61.5 -18.5q35 0 55.5 20.5t20.5 71.5zM188 1294z" />
<glyph unicode="&#x169;" horiz-adv-x="1075" d="M924 25q0 -8 -3 -13.5t-12.5 -9.5t-24 -6t-34.5 -2q-25 0 -39 2t-22.5 6t-11.5 9t-3 14v118q-78 -84 -152.5 -122.5t-152.5 -38.5q-88 0 -150.5 29.5t-100.5 80.5t-54.5 120t-16.5 167v547q0 8 4.5 13t13.5 9t25.5 6t40.5 2q25 0 40.5 -2t24.5 -6t13 -9t4 -13v-525 q0 -80 12.5 -127t36 -80.5t59.5 -52t83 -18.5q61 0 122.5 44t131.5 130v629q0 8 4 13t13 9t24.5 6t42.5 2q23 0 39 -2t25 -6t13.5 -9t4.5 -13v-901zM870 1315q0 -106 -51 -162.5t-141 -56.5q-37 0 -65.5 9t-53 24.5t-44 33t-39 31.5t-39 24.5t-42.5 10.5q-39 0 -55 -30 t-16 -77q0 -8 -2.5 -13t-8.5 -8t-18 -4t-33 -1q-14 0 -25.5 2t-17.5 6t-9 12t-3 23q0 98 49 157.5t143 59.5q53 0 92 -20.5t71 -45t59.5 -46t60.5 -21.5q35 0 53.5 26.5t18.5 77.5q0 16 10 22.5t47 6.5t48 -8t11 -33zM78 950z" />
<glyph unicode="&#x16a;" horiz-adv-x="1312" d="M1145 477q0 -117 -35 -210t-98.5 -156.5t-155.5 -96t-209 -32.5q-106 0 -194 30.5t-151.5 91t-97.5 151.5t-34 210v803q0 8 4 14t14.5 9t25.5 6t42 3q25 0 41 -3t26.5 -6t14.5 -9t4 -14v-783q0 -90 21.5 -156.5t63.5 -111.5t100.5 -66.5t129.5 -21.5q76 0 134.5 21.5 t99.5 65.5t62.5 108.5t21.5 152.5v791q0 8 3 14t13 9t26.5 6t43.5 3q23 0 39 -3t26.5 -6t14.5 -9t4 -14v-791zM930 1589q6 0 12 -4t10 -11t6.5 -20.5t2.5 -29.5t-2.5 -28.5t-6.5 -22t-10 -13.5t-12 -4h-547q-8 0 -14.5 4t-10.5 13.5t-6 21.5t-2 29q0 16 2 29.5t6 20.5 t10.5 11t14.5 4h547zM217 1294z" />
<glyph unicode="&#x16b;" horiz-adv-x="1075" d="M924 25q0 -8 -3 -13.5t-12.5 -9.5t-24 -6t-34.5 -2q-25 0 -39 2t-22.5 6t-11.5 9t-3 14v118q-78 -84 -152.5 -122.5t-152.5 -38.5q-88 0 -150.5 29.5t-100.5 80.5t-54.5 120t-16.5 167v547q0 8 4.5 13t13.5 9t25.5 6t40.5 2q25 0 40.5 -2t24.5 -6t13 -9t4 -13v-525 q0 -80 12.5 -127t36 -80.5t59.5 -52t83 -18.5q61 0 122.5 44t131.5 130v629q0 8 4 13t13 9t24.5 6t42.5 2q23 0 39 -2t25 -6t13.5 -9t4.5 -13v-901zM778 1292q8 0 14.5 -3t9.5 -10t6 -20.5t3 -29.5q0 -18 -3 -29.5t-6 -20t-9.5 -12.5t-14.5 -4h-479q-8 0 -14 4t-10.5 12.5 t-6.5 19.5t-2 30q0 16 2 29.5t6.5 20.5t10.5 10t14 3h479zM133 950z" />
<glyph unicode="&#x16c;" horiz-adv-x="1312" d="M1145 477q0 -117 -35 -210t-98.5 -156.5t-155.5 -96t-209 -32.5q-106 0 -194 30.5t-151.5 91t-97.5 151.5t-34 210v803q0 8 4 14t14.5 9t25.5 6t42 3q25 0 41 -3t26.5 -6t14.5 -9t4 -14v-783q0 -90 21.5 -156.5t63.5 -111.5t100.5 -66.5t129.5 -21.5q76 0 134.5 21.5 t99.5 65.5t62.5 108.5t21.5 152.5v791q0 8 3 14t13 9t26.5 6t43.5 3q23 0 39 -3t26.5 -6t14.5 -9t4 -14v-791zM915 1665q0 -63 -17 -113.5t-51 -85t-83 -53t-111 -18.5q-68 0 -117 20.5t-80.5 56t-47 85t-15.5 108.5q0 14 12.5 20.5t47.5 6.5t49 -4.5t15 -19.5t9.5 -50 t25.5 -56.5t43 -33.5t60 -12q51 0 82 24.5t42.5 57t12.5 56t12 31t50 7.5t50 -6.5t11 -20.5zM262 1294z" />
<glyph unicode="&#x16d;" horiz-adv-x="1075" d="M924 25q0 -8 -3 -13.5t-12.5 -9.5t-24 -6t-34.5 -2q-25 0 -39 2t-22.5 6t-11.5 9t-3 14v118q-78 -84 -152.5 -122.5t-152.5 -38.5q-88 0 -150.5 29.5t-100.5 80.5t-54.5 120t-16.5 167v547q0 8 4.5 13t13.5 9t25.5 6t40.5 2q25 0 40.5 -2t24.5 -6t13 -9t4 -13v-525 q0 -80 12.5 -127t36 -80.5t59.5 -52t83 -18.5q61 0 122.5 44t131.5 130v629q0 8 4 13t13 9t24.5 6t42.5 2q23 0 39 -2t25 -6t13.5 -9t4.5 -13v-901zM680 1366q0 14 11 21.5t46 7.5q18 0 29.5 -1t19 -5.5t9.5 -9.5t2 -13q0 -68 -16.5 -118t-49.5 -84t-81 -51t-111 -17 q-70 0 -118 18.5t-80 52t-46 83.5t-14 114q0 16 12 23.5t47 7.5q16 0 28.5 -2t18.5 -5.5t9 -9.5t3 -12q2 -35 11.5 -63.5t26 -48t42 -31t60.5 -11.5q29 0 54 9.5t43.5 28t30 46t13.5 70.5zM150 950z" />
<glyph unicode="&#x16e;" horiz-adv-x="1312" d="M1145 477q0 -117 -35 -210t-98.5 -156.5t-155.5 -96t-209 -32.5q-106 0 -194 30.5t-151.5 91t-97.5 151.5t-34 210v803q0 8 4 14t14.5 9t25.5 6t42 3q25 0 41 -3t26.5 -6t14.5 -9t4 -14v-783q0 -90 21.5 -156.5t63.5 -111.5t100.5 -66.5t129.5 -21.5q76 0 134.5 21.5 t99.5 65.5t62.5 108.5t21.5 152.5v791q0 8 3 14t13 9t26.5 6t43.5 3q23 0 39 -3t26.5 -6t14.5 -9t4 -14v-791zM858 1550q0 -41 -14.5 -75.5t-41 -60t-65.5 -40t-86 -14.5q-51 0 -89 13t-62.5 38t-36.5 58.5t-12 74.5q0 43 13 78t40.5 59.5t65.5 39t87 14.5q98 0 149.5 -49.5 t51.5 -135.5zM748 1544q0 43 -21.5 72t-71.5 29q-47 0 -70.5 -26t-23.5 -69q0 -45 21.5 -72.5t74.5 -27.5q45 0 68 26.5t23 67.5zM319 1294z" />
<glyph unicode="&#x16f;" horiz-adv-x="1075" d="M924 25q0 -8 -3 -13.5t-12.5 -9.5t-24 -6t-34.5 -2q-25 0 -39 2t-22.5 6t-11.5 9t-3 14v118q-78 -84 -152.5 -122.5t-152.5 -38.5q-88 0 -150.5 29.5t-100.5 80.5t-54.5 120t-16.5 167v547q0 8 4.5 13t13.5 9t25.5 6t40.5 2q25 0 40.5 -2t24.5 -6t13 -9t4 -13v-525 q0 -80 12.5 -127t36 -80.5t59.5 -52t83 -18.5q61 0 122.5 44t131.5 130v629q0 8 4 13t13 9t24.5 6t42.5 2q23 0 39 -2t25 -6t13.5 -9t4.5 -13v-901zM735 1257q0 -41 -14 -73.5t-40 -58t-62.5 -39t-83.5 -13.5q-49 0 -86 13.5t-60.5 37t-35 55t-11.5 72.5q0 39 13.5 74 t39 59.5t62.5 37t86 12.5q92 0 142 -47.5t50 -129.5zM629 1251q0 41 -21.5 70t-70.5 29q-43 0 -65.5 -26t-22.5 -67q0 -45 20 -72.5t72 -27.5q43 0 65.5 26.5t22.5 67.5zM211 950z" />
<glyph unicode="&#x170;" horiz-adv-x="1312" d="M1145 477q0 -117 -35 -210t-98.5 -156.5t-155.5 -96t-209 -32.5q-106 0 -194 30.5t-151.5 91t-97.5 151.5t-34 210v803q0 8 4 14t14.5 9t25.5 6t42 3q25 0 41 -3t26.5 -6t14.5 -9t4 -14v-783q0 -90 21.5 -156.5t63.5 -111.5t100.5 -66.5t129.5 -21.5q76 0 134.5 21.5 t99.5 65.5t62.5 108.5t21.5 152.5v791q0 8 3 14t13 9t26.5 6t43.5 3q23 0 39 -3t26.5 -6t14.5 -9t4 -14v-791zM532 1415q-6 -6 -13 -10t-18.5 -6t-24.5 -3t-34 -1q-31 0 -43 9t-2 26l168 233q6 8 14.5 13t20.5 9.5t29.5 5.5t42.5 1q39 0 61.5 -3t30.5 -9.5t6 -14.5t-14 -20z M913 1417q-8 -8 -14 -12t-16.5 -6t-23.5 -3t-34 -1q-18 0 -31.5 2t-20.5 6t-8 10t3 14l180 238q4 6 13.5 11t21.5 9.5t31.5 5.5t46.5 1q33 0 53.5 -3t29.5 -9.5t8 -13.5t-9 -15zM260 1294z" />
<glyph unicode="&#x171;" horiz-adv-x="1075" d="M924 25q0 -8 -3 -13.5t-12.5 -9.5t-24 -6t-34.5 -2q-25 0 -39 2t-22.5 6t-11.5 9t-3 14v118q-78 -84 -152.5 -122.5t-152.5 -38.5q-88 0 -150.5 29.5t-100.5 80.5t-54.5 120t-16.5 167v547q0 8 4.5 13t13.5 9t25.5 6t40.5 2q25 0 40.5 -2t24.5 -6t13 -9t4 -13v-525 q0 -80 12.5 -127t36 -80.5t59.5 -52t83 -18.5q61 0 122.5 44t131.5 130v629q0 8 4 13t13 9t24.5 6t42.5 2q23 0 39 -2t25 -6t13.5 -9t4.5 -13v-901zM428 1087q-4 -6 -10 -10t-15.5 -6t-20.5 -3t-30 -1q-18 0 -29.5 1t-17.5 5t-6 10.5t4 14.5l170 258q6 8 13.5 13t17.5 8 t26.5 5t38.5 2q31 0 50.5 -3t26.5 -9t5 -15t-12 -24zM766 1087q-6 -6 -13.5 -10t-16.5 -6t-20 -3t-30 -1q-33 0 -46 7t-3 22l180 262q6 8 12.5 12t17.5 7t28.5 5t42.5 2q29 0 46 -3t24 -9t5 -16t-12 -21zM166 950z" />
<glyph unicode="&#x172;" horiz-adv-x="1312" d="M1145 477q0 -135 -45 -237.5t-137 -169.5q-16 -12 -28.5 -22.5t-28 -25t-36 -34t-53.5 -51.5l-49 -50q-25 -23 -32 -42t-7 -33q0 -27 18.5 -40.5t55.5 -13.5h112q6 0 11.5 -2t8.5 -7t5 -14t2 -26q0 -14 -2 -24.5t-5 -16.5t-9 -9t-17 -5q-33 -10 -68.5 -14.5t-76.5 -4.5 q-94 0 -146.5 38t-52.5 114q0 12 3 28.5t10.5 36t22.5 41t40 48.5l49 47q-8 -2 -21.5 -4t-29.5 -2q-68 0 -128 13t-112.5 39.5t-95.5 66.5t-71.5 94.5t-45 122t-16.5 147.5v805q0 6 4 12t14.5 10t26.5 6t41 2t41 -2t26.5 -6t14.5 -10t4 -12v-791q0 -86 21.5 -152.5 t63.5 -110.5t100.5 -65.5t129.5 -21.5q76 0 134.5 21.5t99.5 65.5t62.5 108.5t21.5 152.5v793q0 6 3 12t13 10t27.5 6t42.5 2t41 -2t25.5 -6t13.5 -10t4 -12v-793z" />
<glyph unicode="&#x173;" horiz-adv-x="1075" d="M985 -291q0 -14 -1 -24.5t-4 -16.5t-10 -9t-18 -7q-25 -10 -54.5 -13.5t-66.5 -3.5q-49 0 -84.5 10.5t-61.5 29t-38 46t-12 62.5q0 20 3 39.5t12 38t25.5 39t43.5 47.5l59 57v139h-2q-76 -84 -152.5 -122.5t-154.5 -38.5q-88 0 -150.5 29.5t-100.5 80.5t-54.5 120 t-16.5 167v547q0 8 4.5 13t13.5 9t25.5 6t40.5 2q25 0 40.5 -2t24.5 -6t13 -9t4 -13v-525q0 -80 12.5 -127t36 -80.5t59.5 -52t83 -18.5q61 0 123.5 44t130.5 130v629q0 8 4 13t13 9t25.5 6t41.5 2q23 0 39 -2t25 -6t13.5 -9t4.5 -13v-893q0 -12 -1 -22.5t-4.5 -20.5 t-8.5 -20.5t-15 -20.5l-68 -68q-18 -18 -26 -34.5t-8 -36.5q0 -27 17 -40.5t56 -13.5h92q14 0 20.5 -8t6.5 -39z" />
<glyph unicode="&#x174;" horiz-adv-x="1820" d="M1411 39q-4 -14 -12 -23.5t-21.5 -13.5t-34 -6t-51.5 -2t-52 2t-35.5 6t-21.5 13.5t-12 23.5l-270 977h-2l-250 -977q-4 -14 -10 -23.5t-19.5 -13.5t-34 -6t-53.5 -2t-54 2t-35.5 6t-21.5 13.5t-11 23.5l-342 1194q-6 23 -6.5 36t8 20t28 9t49.5 2q31 0 49.5 -2t27.5 -6 t13.5 -10t6.5 -18l291 -1084v0l276 1082q2 12 7 19t15.5 11t29 6t46.5 2q29 0 45.5 -2t26.5 -6t14 -11t9 -19l296 -1082h3l284 1084q2 10 5 17t13.5 11t28 6t45.5 2q29 0 47.5 -3t25.5 -10t7 -19.5t-6 -34.5zM924 1690q20 0 34.5 -1t24.5 -5.5t18.5 -9.5t16.5 -13l215 -227 q8 -10 10 -17.5t-4 -12.5t-20.5 -7t-34.5 -2q-31 0 -49.5 2t-28.5 4t-17.5 6t-11.5 10l-153 172l-160 -168q-8 -8 -16.5 -13t-19.5 -8t-29.5 -4t-45.5 -1q-25 0 -39 3t-19 7t-3 11t10 18l225 227q8 8 16.5 13t19.5 9.5t26 5.5t35 1zM459 1294z" />
<glyph unicode="&#x175;" horiz-adv-x="1462" d="M1411 928q0 -8 -1 -18.5t-7 -24.5l-264 -854q-4 -12 -10.5 -19.5t-17.5 -10.5t-31.5 -5t-51.5 -2t-51.5 2t-32.5 6t-18 11t-11 18l-188 651l-2 10l-2 -10l-174 -651q-4 -12 -10.5 -19.5t-19.5 -10.5t-33.5 -5t-51.5 -2t-50 2t-31.5 6t-18.5 11t-8 18l-265 854 q-4 14 -6 24.5t-2 18.5t4 13t13.5 9t26 5t38.5 1q29 0 45.5 -2t25.5 -5t13 -9t6 -16l217 -742l2 -10l2 10l199 742q2 10 7 16t14.5 9t25 5t39.5 2q25 0 40 -2t24.5 -5t12.5 -9t5 -14l215 -744l2 -10l2 10l213 742q2 10 7 16t14.5 9t26 5t42.5 2q25 0 39.5 -1t22.5 -5t11 -9 t3 -13zM604 1120q-6 -10 -12 -15t-14.5 -8t-20.5 -4t-33 -1q-27 0 -41 3t-19 9t-1 17.5t16 25.5l164 229q6 8 13.5 12.5t17.5 7.5t25.5 5t37.5 2q20 0 34.5 -2t25 -5t16.5 -8.5t10 -11.5l166 -229q10 -14 14.5 -25.5t0 -17.5t-19.5 -9t-42 -3q-20 0 -32.5 1t-20.5 4t-13.5 9 t-11.5 14l-131 180zM330 950z" />
<glyph unicode="&#x176;" horiz-adv-x="997" d="M586 504v-477q0 -8 -4 -14.5t-14.5 -9.5t-28 -6t-39.5 -3q-27 0 -43.5 3t-26.5 6t-14 9t-4 15v477l-367 729q-10 23 -12 36t5 20t26.5 9t52.5 2q31 0 49 -2t29.5 -6t16.5 -10t9 -16l180 -371q25 -53 49.5 -111.5t51.5 -117.5h2q23 57 47 113.5t49 111.5l180 375 q4 10 9.5 16t14.5 10t26.5 6t43.5 2q35 0 55.5 -3t29 -10t6.5 -19.5t-15 -34.5zM504 1690q20 0 34.5 -1t24.5 -5.5t17.5 -9.5t17.5 -13l213 -227q8 -10 10 -17.5t-4 -12.5t-19.5 -7t-35.5 -2q-31 0 -48.5 2t-28.5 4t-17 6t-13 10l-153 172l-160 -168q-6 -8 -14.5 -13 t-20.5 -8t-30.5 -4t-45.5 -1q-25 0 -38 3t-18 7t-4 11t11 18l224 227q8 8 16 13t19.5 9.5t25.5 5.5t37 1zM39 1294z" />
<glyph unicode="&#x177;" horiz-adv-x="925" d="M563 0l-121 -332q-6 -14 -30.5 -23.5t-73.5 -9.5q-27 0 -42 3.5t-24.5 9.5t-10.5 15t5 24l125 313q-8 4 -16 13.5t-13 19.5l-319 860q-8 20 -8 32.5t7 18.5t25.5 9t49.5 3q29 0 46 -2t27.5 -6t14.5 -11t8 -19l258 -723h2l250 727q4 18 13 23t25.5 8t49.5 3q29 0 46 -3 t26.5 -9t9.5 -18.5t-6 -30.5zM334 1120q-6 -10 -12.5 -15t-14.5 -8t-20.5 -4t-30.5 -1q-29 0 -43 3t-19.5 9t-1 17.5t16.5 25.5l166 229q4 8 11 12.5t17.5 7.5t25.5 5t38 2q20 0 34.5 -2t25 -5t16.5 -8.5t12 -11.5l164 -229q10 -14 14 -25.5t0 -17.5t-19.5 -9t-39.5 -3 q-23 0 -35 1t-20.5 4t-13.5 9t-11 14l-129 180zM59 950z" />
<glyph unicode="&#x178;" horiz-adv-x="997" d="M586 504v-477q0 -8 -4 -14.5t-14.5 -9.5t-28 -6t-39.5 -3q-27 0 -43.5 3t-26.5 6t-14 9t-4 15v477l-367 729q-10 23 -12 36t5 20t26.5 9t52.5 2q31 0 49 -2t29.5 -6t16.5 -10t9 -16l180 -371q25 -53 49.5 -111.5t51.5 -117.5h2q23 57 47 113.5t49 111.5l180 375 q4 10 9.5 16t14.5 10t26.5 6t43.5 2q35 0 55.5 -3t29 -10t6.5 -19.5t-15 -34.5zM391 1530q0 -57 -21.5 -77.5t-76.5 -20.5t-75.5 20.5t-20.5 75.5t20.5 75.5t77.5 20.5q55 0 75.5 -20.5t20.5 -73.5zM805 1530q0 -57 -20.5 -77.5t-77.5 -20.5q-55 0 -76 20.5t-21 75.5 t20.5 75.5t76.5 20.5q57 0 77.5 -20.5t20.5 -73.5zM66 1294z" />
<glyph unicode="&#x179;" horiz-adv-x="958" d="M915 72q0 -18 -2 -31.5t-6 -23t-10 -13.5t-16 -4h-764q-27 0 -42.5 16.5t-15.5 51.5v36q0 12 1 23.5t6.5 24t14.5 28t21 35.5l598 936h-589q-10 0 -17.5 3t-11.5 12.5t-6 22.5t-2 32q0 18 2 32.5t6 23.5t11 13t18 4h718q27 0 43.5 -15t16.5 -48v-39q0 -16 -2 -28.5 t-7.5 -26t-14.5 -27.5t-21 -35l-594 -930h631q16 0 25 -17t9 -56zM580 1651q12 14 22 20t23.5 10.5t31 6.5t41.5 2q31 0 48.5 -5.5t23.5 -12.5t4 -15t-10 -19l-227 -213q-10 -10 -18.5 -15t-20 -8t-25.5 -5t-37 -2t-36 3t-17 8t-2 13t10 19zM248 1294z" />
<glyph unicode="&#x17a;" horiz-adv-x="808" d="M727 70q0 -18 -3 -31.5t-7 -23t-11.5 -12.5t-15.5 -3h-553q-20 0 -34.5 14.5t-14.5 46.5v33q0 14 2 25.5t6 23t11.5 23.5t17.5 29l397 616h-385q-16 0 -25.5 17.5t-9.5 54.5q0 16 2 30.5t6.5 22.5t11.5 11t15 3h516q10 0 19.5 -3t14.5 -9t9 -17.5t4 -27.5v-33 q0 -14 -2 -26.5t-6 -23.5t-11 -24.5t-17 -27.5l-396 -619h422q8 0 15.5 -4t11.5 -11t7 -21.5t3 -32.5zM471 1366q6 10 14.5 17.5t19.5 11.5t28.5 6t39.5 2q29 0 46.5 -4t24.5 -10.5t6 -14.5t-9 -18l-180 -234q-8 -10 -15.5 -15t-15.5 -9t-21.5 -5t-33.5 -1q-23 0 -35 3 t-18.5 8t-4.5 12t9 20zM184 950z" />
<glyph unicode="&#x17b;" horiz-adv-x="958" d="M915 72q0 -18 -2 -31.5t-6 -23t-10 -13.5t-16 -4h-764q-27 0 -42.5 16.5t-15.5 51.5v36q0 12 1 23.5t6.5 24t14.5 28t21 35.5l598 936h-589q-10 0 -17.5 3t-11.5 12.5t-6 22.5t-2 32q0 18 2 32.5t6 23.5t11 13t18 4h718q27 0 43.5 -15t16.5 -48v-39q0 -16 -2 -28.5 t-7.5 -26t-14.5 -27.5t-21 -35l-594 -930h631q16 0 25 -17t9 -56zM584 1530q0 -57 -21.5 -77.5t-79.5 -20.5q-57 0 -77.5 20.5t-20.5 75.5q0 53 21.5 74.5t78.5 21.5q55 0 77 -20.5t22 -73.5zM254 1294z" />
<glyph unicode="&#x17c;" horiz-adv-x="808" d="M727 70q0 -18 -3 -31.5t-7 -23t-11.5 -12.5t-15.5 -3h-553q-20 0 -34.5 14.5t-14.5 46.5v33q0 14 2 25.5t6 23t11.5 23.5t17.5 29l397 616h-385q-16 0 -25.5 17.5t-9.5 54.5q0 16 2 30.5t6.5 22.5t11.5 11t15 3h516q10 0 19.5 -3t14.5 -9t9 -17.5t4 -27.5v-33 q0 -14 -2 -26.5t-6 -23.5t-11 -24.5t-17 -27.5l-396 -619h422q8 0 15.5 -4t11.5 -11t7 -21.5t3 -32.5zM514 1233q0 -57 -22.5 -77.5t-77.5 -20.5q-57 0 -78 20.5t-21 73.5q0 55 21.5 76.5t79.5 21.5q55 0 76.5 -20.5t21.5 -73.5zM182 950z" />
<glyph unicode="&#x17d;" horiz-adv-x="958" d="M915 72q0 -18 -2 -31.5t-6 -23t-10 -13.5t-16 -4h-764q-27 0 -42.5 16.5t-15.5 51.5v36q0 12 1 23.5t6.5 24t14.5 28t21 35.5l598 936h-589q-10 0 -17.5 3t-11.5 12.5t-6 22.5t-2 32q0 18 2 32.5t6 23.5t11 13t18 4h718q27 0 43.5 -15t16.5 -48v-39q0 -16 -2 -28.5 t-7.5 -26t-14.5 -27.5t-21 -35l-594 -930h631q16 0 25 -17t9 -56zM477 1395q-20 0 -34.5 1t-24.5 4t-18.5 9t-16.5 14l-213 228q-10 10 -12 17t4 12.5t20.5 7.5t34.5 2q31 0 49.5 -2t28.5 -4.5t16 -7.5t13 -11l153 -172l162 170q6 6 14.5 12t19.5 9.5t29.5 4.5t45.5 1 q25 0 39 -3.5t19 -7.5t3 -11t-10 -17l-224 -228q-8 -8 -17 -13t-20.5 -9t-26 -5t-34.5 -1zM27 1294z" />
<glyph unicode="&#x17e;" horiz-adv-x="808" d="M727 70q0 -18 -3 -31.5t-7 -23t-11.5 -12.5t-15.5 -3h-553q-20 0 -34.5 14.5t-14.5 46.5v33q0 14 2 25.5t6 23t11.5 23.5t17.5 29l397 616h-385q-16 0 -25.5 17.5t-9.5 54.5q0 16 2 30.5t6.5 22.5t11.5 11t15 3h516q10 0 19.5 -3t14.5 -9t9 -17.5t4 -27.5v-33 q0 -14 -2 -26.5t-6 -23.5t-11 -24.5t-17 -27.5l-396 -619h422q8 0 15.5 -4t11.5 -11t7 -21.5t3 -32.5zM541 1372q8 8 13 14.5t14.5 9.5t21.5 5t31 2q27 0 42 -4t19 -10.5t0 -16.5t-14 -26l-166 -230q-6 -6 -13.5 -11t-17.5 -8t-25.5 -4t-35.5 -1q-23 0 -36.5 1t-23.5 4 t-17 8t-11 11l-166 230q-10 14 -14.5 25t0.5 17.5t19.5 10.5t41.5 4q20 0 32.5 -2t20.5 -5t13 -9.5t12 -14.5l131 -180zM6 950z" />
<glyph unicode="&#x17f;" horiz-adv-x="495" d="M580 1303q0 -20 -2.5 -31.5t-5.5 -19t-7 -9.5t-10 -2q-4 0 -13.5 3t-22.5 7t-30.5 7.5t-39.5 3.5q-39 0 -64 -12.5t-40 -39t-21.5 -66.5t-6.5 -95v-1024q0 -8 -4 -13.5t-12 -9.5t-24.5 -6t-40.5 -2q-25 0 -41.5 2t-25.5 6t-12 9t-3 14v1019q0 94 17 162t52 111t87 63.5 t122 20.5q23 0 44.5 -3t38.5 -7.5t30.5 -9.5t18.5 -10t7 -10t4.5 -12.5t3.5 -18.5t1 -27z" />
<glyph unicode="&#x192;" horiz-adv-x="1019" d="M926 1276q0 -25 -3 -39t-8.5 -23.5t-11.5 -12.5t-10 -3q-8 0 -20.5 5t-28 10.5t-34.5 9.5t-42 4q-47 0 -81 -12.5t-57.5 -37t-36.5 -65.5t-22 -98l-32 -240h256q8 0 14 -3t10 -11t6 -21.5t2 -31.5q0 -37 -8 -53.5t-24 -16.5h-275l-133 -956q0 -8 -4 -14.5t-15.5 -10.5 t-27.5 -6t-41 -2q-27 0 -42 2t-24.5 6t-12.5 10t-1 15l131 956h-207q-16 0 -25 16.5t-9 53.5q0 18 3 31.5t7 21.5t10 11t14 3h228l32 250q12 92 42 157.5t75 106.5t104.5 60.5t133.5 19.5q25 0 50.5 -3t45.5 -8t35.5 -12.5t20.5 -12.5t8.5 -9t4.5 -10t2 -15.5t1 -21.5z" />
<glyph unicode="&#x1fa;" horiz-adv-x="1183" d="M1141 61q8 -23 9 -36t-7 -20t-26.5 -9t-49.5 -2q-33 0 -51.5 2t-27.5 5t-13 9t-8 15l-113 315h-537l-106 -311q-2 -8 -7 -15.5t-15.5 -11.5t-28 -6t-43.5 -2q-31 0 -49.5 3t-25.5 9t-6 20.5t7 34.5l434 1203q4 12 11.5 18t19.5 10t31.5 6t50.5 2t52.5 -2t33.5 -6t19 -11 t12 -17zM584 1122v0l-224 -645h451zM602 1917q10 8 21.5 15t22.5 11.5t27.5 5.5t39.5 1q29 0 45 -4t24.5 -10.5t6 -13.5t-12.5 -15l-198 -162q-10 -8 -17.5 -14.5t-18 -9.5t-22.5 -5t-33 -2q-20 0 -33.5 3t-18.5 8.5t-3 12.5t12 17zM768 1518q0 -37 -13.5 -69t-39 -54.5 t-61.5 -35.5t-79 -13q-49 0 -85.5 12t-61.5 33.5t-37 52.5t-12 65q0 37 13.5 69t39 54.5t62 35.5t84.5 13q45 0 80.5 -12t60 -32.5t37 -51t12.5 -67.5zM666 1511q0 16 -6.5 33t-16.5 29t-27.5 19t-42.5 7q-45 0 -67.5 -23.5t-22.5 -59.5q0 -18 5.5 -35t16.5 -29t28.5 -19.5 t41.5 -7.5q23 0 39.5 7.5t27.5 18.5t17.5 26.5t6.5 33.5zM258 1294z" />
<glyph unicode="&#x1fb;" horiz-adv-x="980" d="M831 25q0 -12 -8 -18.5t-22.5 -9.5t-40.5 -3q-27 0 -42.5 3t-22.5 9t-7 19v90q-57 -63 -130 -98t-155 -35q-70 0 -128 18t-98 53t-62.5 86t-22.5 117q0 76 31 131t89 92t142 56.5t189 19.5h125v70q0 51 -11.5 91t-36 66.5t-63.5 40t-96 13.5q-61 0 -109.5 -14.5 t-85.5 -32t-61.5 -32t-34.5 -14.5q-8 0 -14 4.5t-11.5 12.5t-7.5 20.5t-2 26.5q0 25 4 39t17.5 27.5t46.5 31t76 31.5t94 24.5t102 10.5q98 0 166 -22.5t110 -64.5t61 -105.5t19 -147.5v-606zM668 434h-142q-68 0 -118 -11t-82.5 -33.5t-49 -54.5t-16.5 -73q0 -70 45 -110.5 t125 -40.5q66 0 121 32.5t117 100.5v190zM668 1206q0 -35 -13.5 -64.5t-37 -52t-57.5 -35t-77 -12.5q-45 0 -79.5 12.5t-57 33t-35 49t-12.5 61.5q0 37 12.5 65.5t37 50t59 34t79.5 12.5q43 0 77 -11.5t56.5 -32t35 -48t12.5 -62.5zM569 1198q0 18 -5 33.5t-15 28 t-26.5 19.5t-39.5 7q-43 0 -64.5 -23.5t-21.5 -56.5q0 -39 19.5 -63.5t68.5 -24.5q43 0 63.5 24.5t20.5 55.5zM561 1602q10 10 19.5 16t20.5 10t26.5 5t38.5 1q27 0 44 -3t23 -9t4 -13t-12 -16l-176 -143q-10 -8 -18.5 -14t-17.5 -10.5t-22.5 -6.5t-29.5 -2q-25 0 -36 3 t-16.5 8.5t-2 12.5t13.5 17zM178 950z" />
<glyph unicode="&#x1fc;" horiz-adv-x="1562" d="M1452 72q0 -18 -1 -31.5t-6 -23t-11.5 -13.5t-14.5 -4h-620q-25 0 -44.5 15.5t-19.5 54.5v245h-446l-154 -286q-6 -10 -11 -17.5t-17.5 -10.5t-31 -5t-46.5 -2q-20 0 -36 1t-26 3t-14 8t-4 14q0 6 3 16.5t11 24.5l651 1196q6 12 15.5 19.5t22 10.5t31.5 5t48 2h680 q8 0 15.5 -4t11.5 -13t6 -22.5t2 -33.5q0 -18 -2 -31.5t-6 -22t-11.5 -12.5t-15.5 -4h-506v-408h434q10 0 16.5 -4t10.5 -12t6 -22.5t2 -32.5t-2 -31.5t-6 -23t-10 -13.5t-17 -4h-434v-457h514q8 0 14.5 -4t11.5 -12t6 -22.5t1 -32.5zM735 1151h-6l-375 -696h381v696z M997 1651q10 14 20.5 20t24 10.5t32 6.5t42.5 2q31 0 47.5 -5.5t23.5 -12.5t5 -15t-12 -19l-228 -213q-10 -10 -18 -15t-19.5 -8t-26 -5t-34.5 -2q-23 0 -36 3t-18 8t-3 13t12 19zM664 1294z" />
<glyph unicode="&#x1fd;" horiz-adv-x="1581" d="M1485 514q0 -39 -19.5 -55.5t-44.5 -16.5h-590q0 -76 15.5 -135t50.5 -102t91 -66.5t138 -23.5q63 0 112.5 10t86.5 23.5t60.5 23.5t35.5 10q6 0 11.5 -3t9.5 -10t5 -19.5t1 -30.5q0 -12 -1 -22.5t-2 -17.5t-5 -13.5t-9.5 -11.5t-33 -17t-70.5 -24.5t-98 -21.5t-119 -9 q-70 0 -125 10t-100 32.5t-80 53.5t-60 72q-33 -39 -70.5 -71t-80.5 -54.5t-90 -32.5t-101 -10q-70 0 -128 18t-98 53t-62.5 86t-22.5 115q0 78 31 133t89 92t142 56.5t189 19.5h125v70q0 51 -11.5 91t-36 66.5t-63.5 40t-96 13.5q-61 0 -109.5 -14.5t-85.5 -32t-62.5 -32 t-35.5 -14.5q-8 0 -14.5 4.5t-10.5 12.5t-6 20.5t-2 26.5q0 25 4 39t17.5 27.5t46.5 31t76 31.5t94 24.5t102 10.5q66 0 115 -11.5t85 -32t61.5 -48t41.5 -62.5q47 74 129 114t187 40q102 0 177 -35t122 -92.5t69.5 -135t22.5 -163.5v-31zM1321 563q0 66 -14.5 116t-44 87 t-74.5 56.5t-105 19.5q-61 0 -107 -23.5t-78 -61.5t-48 -88.5t-19 -105.5h490zM686 266q-10 35 -15 81t-5 87h-140q-68 0 -118 -11t-82.5 -33.5t-49 -54.5t-16.5 -73q0 -70 45 -110.5t125 -40.5q66 0 127 36.5t129 118.5zM877 1366q6 10 14 17.5t19.5 11.5t28.5 6t42 2 q27 0 44 -4t24.5 -10.5t6.5 -14.5t-9 -18l-181 -234q-8 -10 -14 -15t-15.5 -9t-22.5 -5t-34 -1q-20 0 -33.5 3t-18.5 8t-4 12t7 20zM592 950z" />
<glyph unicode="&#x1fe;" horiz-adv-x="1357" d="M1260 662q0 -156 -37 -282t-113 -215t-186.5 -136t-255.5 -47q-63 0 -115.5 9t-99.5 25l-111 -223q-2 -6 -9 -10t-19.5 -7t-28 -4t-35.5 -1q-25 0 -40 3t-22.5 10t-6.5 16.5t7 21.5l127 258q-55 39 -95 94t-66.5 125t-41 155t-14.5 187q0 152 37 276.5t112 213 t186.5 135.5t258.5 47q61 0 112.5 -9.5t102.5 -27.5l109 221q4 6 10 11t18.5 8.5t27.5 4.5t38 1q25 0 39 -4.5t21.5 -10.5t6.5 -15t-8 -22l-127 -258q55 -41 95.5 -95t68 -123.5t41 -151.5t13.5 -180zM1081 651q0 125 -27.5 227.5t-90.5 174.5l-445 -893q35 -16 73 -23.5 t87 -7.5q113 0 190.5 42t124.5 112.5t67.5 166t20.5 201.5zM842 1137q-33 16 -73 23t-87 7q-115 0 -191.5 -41t-124 -111.5t-67.5 -164.5t-20 -199q0 -129 27.5 -235.5t90.5 -175.5zM684 1651q12 14 22.5 20t23.5 10.5t30.5 6.5t44.5 2q29 0 46 -5.5t24.5 -12.5t4.5 -15 t-12 -19l-227 -213q-10 -10 -18.5 -15t-19.5 -8t-25.5 -5t-34.5 -2q-25 0 -37 3t-17.5 8t-3.5 13t11 19zM352 1294z" />
<glyph unicode="&#x1ff;" horiz-adv-x="1083" d="M993 485q0 -111 -28.5 -203t-87 -159.5t-144.5 -104t-201 -36.5q-43 0 -80.5 5t-66.5 15l-68 -141q-8 -16 -27.5 -21.5t-51.5 -5.5q-45 0 -55.5 10.5t-0.5 32.5l84 174q-47 31 -79.5 75t-54 98.5t-32 115.5t-10.5 127q0 111 28.5 203t86 159.5t144.5 104.5t204 37 q37 0 75 -5t70 -16l66 137q8 14 26.5 20.5t53.5 6.5q45 0 55 -10t-2 -33l-80 -172q45 -29 79 -72t55.5 -96t31.5 -115.5t10 -130.5zM829 475q0 41 -4 80t-14 76t-26.5 66.5t-41.5 54.5l-299 -623q20 -8 46 -12t53 -4q74 0 128 26.5t90 73.5t52 114.5t16 147.5zM641 823 q-20 8 -46 12.5t-54 4.5q-74 0 -128.5 -27t-89 -75t-52 -115.5t-17.5 -147.5q0 -82 19.5 -154.5t66.5 -121.5zM553 1366q4 10 12 17.5t20.5 11.5t29 6t40.5 2q27 0 45.5 -4t24.5 -10.5t5 -14.5t-7 -18l-182 -234q-8 -10 -14.5 -15t-14.5 -9t-22.5 -5t-32.5 -1q-23 0 -36 3 t-18.5 8t-4.5 12t10 20zM266 950z" />
<glyph unicode="&#x218;" horiz-adv-x="940" d="M866 362q0 -90 -32.5 -161.5t-92 -120.5t-140.5 -73.5t-175 -24.5q-63 0 -118.5 10t-99.5 26.5t-74 34t-41 28.5t-16 29.5t-5 51.5q0 20 2 35.5t6 23.5t9 12.5t13 4.5q14 0 40 -17.5t66 -37t96 -37t130 -17.5q57 0 103.5 14.5t80 42t51 67.5t17.5 91q0 55 -24.5 94 t-65.5 69t-93 54.5t-107.5 50t-107.5 56t-93 72.5t-67 98.5t-26 136.5t30 143.5t82 106.5t125 65.5t157 22.5q43 0 87 -7.5t81.5 -19.5t68.5 -28.5t40 -25.5t12 -14.5t5.5 -14.5t3.5 -20.5t1 -29.5t-2 -32.5t-5.5 -24t-8.5 -14.5t-11 -5q-12 0 -35.5 14.5t-57.5 32t-80 31.5 t-106 14q-53 0 -93 -14t-66.5 -37.5t-38.5 -57.5t-12 -71q0 -53 24.5 -92t66.5 -68.5t94 -55t107.5 -51.5t108.5 -55.5t94 -71.5t66.5 -98.5t25.5 -134.5zM373 -121q4 10 9 18.5t16.5 12.5t28.5 5t44 1t42 -3t21.5 -9t6.5 -15.5t-6 -19.5l-97 -203q-4 -10 -10 -16t-15.5 -9 t-23.5 -4.5t-35 -1.5q-20 0 -31.5 2.5t-16.5 7.5t-4 13t5 18z" />
<glyph unicode="&#x219;" horiz-adv-x="800" d="M719 270q0 -70 -25.5 -124t-73 -91t-113 -55t-142.5 -18q-47 0 -91.5 7t-78 18t-58 23.5t-36 22.5t-15.5 28.5t-4 49.5q0 18 2 31.5t4 22t8 11.5t13 3q12 0 33.5 -13.5t52 -30t73.5 -29.5t101 -13q41 0 74.5 9t59 26.5t39 44t13.5 63.5q0 39 -19.5 64.5t-51 46t-71.5 36 t-83 33t-83 39t-73 52t-52.5 73.5t-19.5 102q0 53 20.5 102.5t61.5 85.5t102.5 58.5t143.5 22.5q37 0 73 -6.5t65.5 -15.5t50 -19t30.5 -18.5t13.5 -14.5t5.5 -13t3 -18.5t1 -27.5t-1 -28.5t-5 -21t-9.5 -12.5t-11.5 -4q-8 0 -25.5 11.5t-44 23.5t-63.5 23.5t-84 11.5 q-41 0 -72.5 -9.5t-52 -27t-32 -42t-11.5 -50.5q0 -39 20.5 -65.5t52.5 -47t72.5 -36t83.5 -33t84 -39t74 -51t52.5 -72t19.5 -99.5zM303 -121q2 10 8 18.5t17.5 12.5t29 5t43.5 1q27 0 42.5 -3t21.5 -9t5 -15.5t-5 -19.5l-96 -203q-4 -10 -10.5 -16t-15.5 -9t-23.5 -4.5 t-34.5 -1.5t-31.5 2.5t-17 7.5t-4.5 13t6 18z" />
<glyph unicode="&#x2da;" horiz-adv-x="655" d="M524 1257q0 -41 -13 -73.5t-40 -58t-63.5 -39t-83.5 -13.5q-49 0 -85 13.5t-59.5 37t-36 55t-12.5 72.5q0 39 13.5 74t39 59.5t63.5 37t85 12.5q92 0 142 -47.5t50 -129.5zM420 1251q0 41 -21.5 70t-70.5 29q-45 0 -67.5 -26t-22.5 -67q0 -45 20.5 -72.5t71.5 -27.5 q45 0 67.5 26.5t22.5 67.5zM0 950z" />
<glyph unicode="&#x400;" horiz-adv-x="999" d="M893 72q0 -18 -2 -31.5t-7 -23t-12.5 -13.5t-15.5 -4h-620q-23 0 -43.5 15.5t-20.5 54.5v1155q0 39 20.5 54t43.5 15h614q8 0 14 -4t10.5 -13t7.5 -22.5t3 -33.5q0 -18 -3 -31.5t-7.5 -22t-10.5 -12.5t-14 -4h-506v-406h434q8 0 14.5 -5t11.5 -12t6 -21.5t1 -32.5 t-1 -31.5t-6 -22t-11.5 -11.5t-14.5 -3h-434v-463h512q8 0 15.5 -4t12.5 -12t7 -22.5t2 -32.5zM586 1438q8 -10 10 -18.5t-2 -13.5t-18.5 -8t-36.5 -3q-20 0 -35 2t-25 5t-19 8t-20 15l-225 213q-10 10 -13 18.5t4 15.5t24.5 12.5t48.5 5.5q25 0 42 -2t30.5 -6.5t23.5 -10.5 t22 -20zM70 1294z" />
<glyph unicode="&#x402;" horiz-adv-x="1341" d="M752 672h-107v-525q0 -76 -43 -118q-43 -41 -110 -41q-68 0 -111 41q-43 43 -43 118v1029h-223q-70 0 -107 45q-33 39 -33 96t37 98q39 43 103 43h753q63 0 103 -43q37 -41 37 -98q0 -141 -140 -141h-223v-222h127q244 0 395 -131q154 -135 154 -360q0 -575 -426 -895 q-23 -18 -59 -19q-59 0 -107 35q-51 39 -51 101q0 37 35 88q31 45 104 141q66 86 107 152q84 131 84 340q0 266 -256 266z" />
<glyph unicode="&#x403;" horiz-adv-x="909" d="M545 1894q51 20 78 21q43 0 77 -43q33 -39 33 -84q0 -88 -84 -121l-229 -90q-53 -20 -82 -21q-45 0 -78 48q-31 47 -31 102q0 51 58 82zM92 1298q0 66 41 111q45 49 119 49h524q63 0 103 -43q35 -41 34 -98q0 -57 -34 -96q-37 -45 -103 -45h-377v-1029q0 -76 -43 -118 q-43 -41 -110 -41q-68 0 -111 41q-43 43 -43 118v1151z" />
<glyph unicode="&#x404;" horiz-adv-x="1251" d="M1042 23q-127 -47 -286 -48q-309 0 -508 218q-197 215 -197 536q0 324 197 537q199 217 508 217q154 0 276 -47q164 -63 164 -183q0 -57 -35 -96q-37 -41 -92 -41q-31 0 -123 37q-94 35 -190 35q-291 0 -367 -311h420q72 0 113 -43q37 -41 36 -99q0 -57 -36 -96 q-43 -45 -113 -45h-426q33 -145 125 -232q100 -92 248 -92q96 0 196 43q98 43 129 43q61 0 103 -51q33 -43 33 -88q-1 -128 -175 -194z" />
<glyph unicode="&#x405;" horiz-adv-x="1099" d="M797 1442q158 -57 157 -164q0 -61 -36 -107q-39 -45 -101 -45q-37 0 -121 31q-86 31 -151 31q-70 0 -117 -35q-51 -37 -51 -98q0 -68 106 -109q35 -14 111 -37q88 -25 125 -37q342 -119 342 -421q0 -213 -156 -349q-150 -127 -368 -127q-174 0 -308 43q-190 59 -190 187 q0 61 37 102q39 43 100 43q43 0 158 -39q115 -41 186 -41q98 0 156 52q53 47 53 124q0 78 -106 125l-236 74q-158 49 -235 117q-106 94 -107 256q0 209 152 340q145 125 356 125q127 0 244 -41z" />
<glyph unicode="&#x406;" horiz-adv-x="491" d="M92 1311q0 76 43 119q43 41 111 40q68 0 110 -40q43 -43 43 -119v-1164q0 -76 -43 -118q-43 -41 -110 -41q-68 0 -111 41q-43 43 -43 118v1164z" />
<glyph unicode="&#x407;" horiz-adv-x="491" d="M92 1311q0 76 43 119q43 41 111 40q68 0 110 -40q43 -43 43 -119v-1164q0 -76 -43 -118q-43 -41 -110 -41q-68 0 -111 41q-43 43 -43 118v1164zM367 1819q43 43 104 43t104 -43t43 -105q0 -61 -43 -104t-104 -43t-104 43t-43 104q0 62 43 105zM-84 1819q43 43 104 43 t105 -43q43 -43 43 -105q0 -61 -43 -104t-105 -43q-61 0 -104 43t-43 104q0 62 43 105z" />
<glyph unicode="&#x408;" horiz-adv-x="833" d="M754 410q0 -236 -133 -347q-104 -88 -273 -88q-135 0 -242 50q-135 66 -135 184q0 45 33 84q35 41 82 41q39 0 119 -37q80 -39 127 -39q115 0 114 172v881q0 76 43 119q43 41 111 40q68 0 111 -40q43 -43 43 -119v-901z" />
<glyph unicode="&#x409;" horiz-adv-x="2097" d="M1942 119q-129 -119 -345 -119h-391q-164 0 -164 147v1041h-405v-459q0 -438 -229 -637q-123 -104 -244 -104q-70 0 -107 45q-33 39 -32 96q0 90 114 143q190 84 191 396v630q0 74 45 119q41 41 108 41h713q68 0 111 -41q43 -43 43 -119v-397h211q233 0 366 -108 q145 -117 146 -338q0 -213 -131 -336zM1698 582q-57 49 -162 49h-186v-361h211q84 0 137 52q55 53 55 137q0 76 -55 123z" />
<glyph unicode="&#x40a;" horiz-adv-x="2097" d="M1942 119q-129 -119 -345 -119h-391q-164 0 -164 147v447h-643v-447q0 -76 -43 -118q-43 -41 -110 -41q-68 0 -111 41q-43 43 -43 118v1164q0 76 43 119q43 41 111 40q68 0 110 -40q43 -43 43 -119v-434h643v434q0 76 43 119q43 41 111 40q68 0 111 -40q43 -43 43 -119 v-410h211q233 0 366 -108q145 -117 146 -338q0 -213 -131 -336zM1698 582q-57 49 -162 49h-186v-361h211q84 0 137 52q55 53 55 137q0 76 -55 123z" />
<glyph unicode="&#x40b;" horiz-adv-x="1366" d="M1321 147q0 -76 -43 -118q-43 -41 -111 -41t-110 41q-43 43 -43 118v299q0 104 -72 166q-72 59 -190 60h-107v-525q0 -76 -43 -118q-43 -41 -110 -41q-68 0 -111 41q-43 43 -43 118v1029h-223q-70 0 -107 45q-33 39 -33 96t37 98q39 43 103 43h753q63 0 103 -43 q37 -41 37 -98q0 -141 -140 -141h-223v-222h127q248 0 395 -127q154 -131 154 -364v-316z" />
<glyph unicode="&#x40c;" horiz-adv-x="1251" d="M709 1894q51 20 77 21q43 0 78 -43q33 -39 33 -84q0 -88 -84 -121l-229 -90q-53 -20 -82 -21q-45 0 -78 48q-31 47 -31 102q0 51 58 82zM92 1319q0 63 43 106q43 45 111 45t110 -40q43 -41 43 -111v-442l504 536q53 57 119 57q61 0 104 -40q47 -43 48 -107 q0 -63 -101 -164l-387 -381l473 -493q86 -90 86 -156q0 -68 -49 -106q-43 -35 -111 -35q-66 0 -155 96l-531 573v-522q0 -61 -43 -104t-110 -43q-68 0 -111 41q-43 39 -43 106v1184z" />
<glyph unicode="&#x40d;" horiz-adv-x="1312" d="M1143 25q0 -8 -4 -13.5t-14.5 -9.5t-27 -6t-40.5 -2q-25 0 -42.5 2t-26.5 6t-13 9t-4 14v849q0 31 1 65t3 60h-2q-8 -14 -17.5 -30.5t-20.5 -33.5t-22.5 -34.5t-21.5 -34.5l-559 -841q-6 -8 -12.5 -14.5t-15.5 -9.5t-22.5 -5t-33.5 -2q-23 0 -37 2t-23.5 6t-12.5 10 t-3 17v1241q0 6 4 12t15.5 10t28 6t38.5 2q25 0 41 -2t26.5 -6t14.5 -10t4 -12v-854q0 -29 -1 -59.5t-3 -59.5h2q16 25 37.5 60.5t46.5 70.5l557 844q6 6 12 11t15.5 9t23 6t33.5 2q23 0 37 -2t22.5 -7t12.5 -10t4 -13v-1243zM735 1438q10 -10 12.5 -18.5t-3 -13.5t-18.5 -8 t-36 -3q-20 0 -34.5 2t-26 5t-19.5 8t-18 15l-225 213q-12 10 -14.5 18.5t5 15.5t24.5 12.5t46 5.5q27 0 44 -2t29.5 -6.5t24 -10.5t23.5 -20zM219 1294z" />
<glyph unicode="&#x40e;" horiz-adv-x="1097" d="M293 1882q68 0 113 -70q47 -70 135 -69q92 0 143 69q51 70 123 70q37 0 65 -41q27 -39 27 -82q0 -102 -117 -162q-100 -51 -241 -51q-131 0 -226 49q-115 57 -114 164q0 123 92 123zM1079 1253l-538 -1175q-43 -90 -131 -90q-63 0 -113 41q-51 43 -51 106q0 31 16 70 l119 260l-381 786q-16 33 -16 72q0 61 51 107q49 41 112 40q88 0 132 -90l270 -551l252 551q41 90 135 90q61 0 111 -40q49 -43 49 -107q-1 -31 -17 -70z" />
<glyph unicode="&#x40f;" horiz-adv-x="1441" d="M246 0q-68 0 -109 41q-45 45 -45 119v1151q0 76 43 119q43 41 111 40q68 0 110 -40q43 -43 43 -119v-1041h643v1041q0 76 43 119q43 41 111 40q68 0 111 -40q43 -43 43 -119v-1151q0 -74 -45 -119q-41 -41 -109 -41h-328v-229q0 -76 -43 -119q-43 -41 -110 -41 q-68 0 -111 41q-43 43 -43 119v229h-315z" />
<glyph unicode="&#x450;" horiz-adv-x="1017" d="M922 514q0 -39 -19.5 -55.5t-46.5 -16.5h-590q0 -76 15.5 -135t50.5 -102t91 -66.5t136 -23.5q66 0 116 10t86 23.5t59.5 23.5t35.5 10q6 0 12 -3t9.5 -10t4.5 -19.5t1 -30.5q0 -12 -1 -22.5t-2 -17.5t-5.5 -13.5t-9.5 -11.5t-31.5 -17t-69.5 -24.5t-100.5 -21.5 t-120.5 -9q-111 0 -195 30.5t-140 92t-86 152.5t-30 214q0 117 31 209t87 156.5t136 99.5t178 35q106 0 181 -35t123.5 -92.5t71 -134t22.5 -164.5v-31zM756 563q2 129 -58.5 204t-179.5 75q-61 0 -107 -23.5t-77 -61.5t-48.5 -88.5t-19.5 -105.5h490zM592 1135 q6 -12 8 -19.5t-3 -12.5t-18.5 -8t-33.5 -3t-33.5 1t-23 5t-16.5 9t-13 15l-183 234q-8 10 -9 18t6.5 14.5t24.5 10.5t46 4q25 0 41 -2t27.5 -6t18.5 -11.5t15 -17.5zM135 950z" />
<glyph unicode="&#x452;" horiz-adv-x="1148" d="M608 664q-88 0 -139 -58q-49 -57 -49 -145v-309q0 -74 -41 -119t-107 -45t-106 45q-41 45 -41 119v905h-51q-115 0 -115 117q0 49 33 83q33 33 82 33h51v123q0 74 41 119t106 45q66 0 107 -45t41 -119v-123h354q127 0 127 -116q0 -117 -127 -117h-354v-250h4 q84 102 268 102q182 0 289 -100q115 -111 115 -322q0 -463 -357 -854q-18 -25 -55 -51q-25 -18 -57 -18q-47 0 -92 35q-49 39 -50 86q0 29 35 82q117 168 176 266q104 172 105 368q0 263 -193 263z" />
<glyph unicode="&#x453;" horiz-adv-x="839" d="M496 1563q51 20 77 20q43 0 78 -43q33 -39 33 -84q0 -88 -84 -121l-229 -90q-53 -20 -82 -20q-45 0 -78 47q-31 47 -31 102q0 51 58 82zM74 961q0 53 37 92q37 37 92 37h495q141 0 142 -129q0 -129 -142 -130h-329v-679q0 -74 -41 -119t-107 -45t-106 45q-41 45 -41 119 v809z" />
<glyph unicode="&#x454;" horiz-adv-x="948" d="M784 20q-109 -45 -221 -45q-233 0 -383 168q-145 164 -145 400q0 231 147 397q154 174 381 174q121 0 223 -39q137 -53 138 -147q0 -51 -31 -94q-33 -47 -82 -48q-35 0 -109 29q-76 29 -124 29q-160 0 -224 -160h215q127 0 127 -117t-127 -116h-227q53 -205 236 -205 q41 0 124 30q82 31 95 31q51 0 90 -39q37 -37 37 -90q-1 -101 -140 -158z" />
<glyph unicode="&#x455;" horiz-adv-x="872" d="M791 811q-35 -41 -86 -41q-23 0 -117 43t-148 43q-100 0 -100 -82q0 -43 80 -82q27 -12 82 -33l94 -36q256 -109 256 -301q0 -150 -115 -246q-117 -100 -305 -101q-137 0 -268 64q-143 70 -144 164q0 41 33 82q39 49 94 49t144 -49q90 -51 162 -52q117 0 116 84 q0 43 -80 80q-27 12 -81 33q-66 27 -95 37q-256 109 -256 303q0 154 113 250q111 94 287 94q129 0 239 -51q129 -61 129 -162q1 -51 -34 -90z" />
<glyph unicode="&#x456;" horiz-adv-x="454" d="M80 938q0 74 41 119t106 45q66 0 107 -45t41 -119v-786q0 -74 -41 -119t-107 -45t-106 45q-41 45 -41 119v786zM344 1495q49 -49 49 -113q0 -70 -49 -118q-47 -51 -117 -52q-66 0 -116 52q-49 51 -50 118q0 63 50 113q51 49 116 49q66 0 117 -49z" />
<glyph unicode="&#x457;" horiz-adv-x="454" d="M80 938q0 74 41 119t106 45q66 0 107 -45t41 -119v-786q0 -74 -41 -119t-107 -45t-106 45q-41 45 -41 119v786zM348 1487q43 43 105 43q61 0 104 -43t43 -105q0 -61 -43 -104t-104 -43t-105 43q-43 43 -43 104q0 62 43 105zM-102 1487q43 43 104 43t104 -43t44 -105 q0 -61 -44 -104q-43 -43 -104 -43t-104 43t-43 104q0 62 43 105z" />
<glyph unicode="&#x458;" horiz-adv-x="454" d="M80 938q0 74 41 119t106 45q66 0 107 -45t41 -119v-1221q0 -74 -41 -118q-41 -45 -107 -45t-106 45q-41 45 -41 118v1221zM344 1495q49 -49 49 -113q0 -70 -49 -118q-47 -51 -117 -52q-66 0 -116 52q-49 51 -50 118q0 63 50 113q51 49 116 49q66 0 117 -49z" />
<glyph unicode="&#x459;" horiz-adv-x="1699" d="M1556 92q-98 -92 -264 -92h-385q-66 0 -106 45q-41 45 -41 119v667h-250v-305q0 -260 -107 -403q-100 -135 -270 -135q-59 0 -94 41q-35 37 -35 90q0 92 90 121q121 37 121 252v434q0 74 41 118q41 45 106 46h545q66 0 107 -46q41 -45 41 -118v-230h209q180 0 284 -84 q111 -90 111 -262q-1 -164 -103 -258zM1237 453h-182v-209h194q115 0 115 110q0 99 -127 99z" />
<glyph unicode="&#x45a;" horiz-adv-x="1699" d="M1556 92q-98 -92 -264 -92h-385q-66 0 -106 45q-41 45 -41 119v274h-381v-286q0 -74 -41 -119t-107 -45t-106 45q-41 45 -41 119v786q0 74 41 119t106 45q66 0 107 -45t41 -119v-242h381v242q0 74 41 119t106 45q66 0 107 -45t41 -119v-242h209q180 0 284 -84 q111 -90 111 -262q-1 -164 -103 -258zM1237 453h-182v-209h194q115 0 115 110q0 99 -127 99z" />
<glyph unicode="&#x45b;" horiz-adv-x="1179" d="M1096 152q0 -74 -41 -119t-107 -45t-106 45q-41 45 -41 119v309q0 98 -56 153q-53 49 -137 50q-88 0 -139 -58q-49 -57 -49 -145v-309q0 -74 -41 -119t-107 -45t-106 45q-41 45 -41 119v905h-51q-115 0 -115 117q0 49 33 83q33 33 82 33h51v123q0 74 41 119t106 45 q66 0 107 -45t41 -119v-123h354q127 0 127 -116q0 -117 -127 -117h-354v-250h4q84 102 268 102q178 0 289 -104q115 -109 115 -293v-360z" />
<glyph unicode="&#x45c;" horiz-adv-x="1024" d="M598 1563q51 20 78 20q43 0 78 -43q33 -39 32 -84q0 -88 -84 -121l-229 -90q-53 -20 -82 -20q-45 0 -78 47q-31 47 -30 102q0 51 57 82zM84 938q0 74 41 119t106 45q66 0 107 -45t41 -119v-270l323 370q55 63 134 64q53 0 90 -41q35 -41 35 -92q0 -55 -58 -117l-274 -281 l358 -346q37 -37 37 -98q0 -57 -41 -98q-39 -41 -98 -41q-55 0 -142 90l-360 383h-4v-309q0 -74 -41 -119t-107 -45t-106 45q-41 45 -41 119v786z" />
<glyph unicode="&#x45d;" horiz-adv-x="1105" d="M954 25q0 -8 -4 -14.5t-13 -9.5t-24.5 -5t-40.5 -2t-41 2t-25 5t-13.5 9t-4.5 15v518q0 39 2.5 79t4.5 78q-23 -39 -50.5 -77.5t-56.5 -75.5l-381 -522q-8 -8 -13 -14.5t-13.5 -9.5t-21.5 -5t-32 -2q-23 0 -37 2t-22 5t-11 9t-3 15v901q0 8 3 13t12 9t25.5 6t38.5 2 q49 0 66.5 -8t17.5 -22v-520q0 -39 -2 -78t-4 -76q23 37 46.5 73.5t50.5 71.5l387 529q6 8 12 14t16.5 9t22.5 5t35 2q20 0 34.5 -2t22.5 -6t12 -9t4 -13v-901zM592 1135q6 -12 8 -19.5t-3 -12.5t-18.5 -8t-33.5 -3t-33.5 1t-23 5t-16.5 9t-13 15l-183 234q-8 10 -9 18 t6.5 14.5t24.5 10.5t46 4q25 0 41 -2t27.5 -6t18.5 -11.5t15 -17.5zM135 950z" />
<glyph unicode="&#x45e;" horiz-adv-x="985" d="M274 1483q63 0 113 -70q49 -70 113 -70q53 0 104 70t121 70q37 0 66 -41q27 -39 26 -82q0 -100 -112 -162q-94 -51 -205 -51q-115 0 -205 49q-113 59 -113 164q0 123 92 123zM10 899q-14 39 -14 76q0 53 47 92q43 35 92 35q109 0 148 -105l202 -555l217 555 q39 104 148 105q49 0 92 -35q47 -39 47 -92q0 -45 -14 -76l-494 -1229q-47 -117 -139 -116q-72 0 -115 38q-39 37 -39 89q0 39 19 86l129 319z" />
<glyph unicode="&#x45f;" d="M231 0q-66 0 -106 45q-41 45 -41 119v774q0 74 41 119t106 45q66 0 107 -45t41 -119v-680h381v680q0 74 41 119t106 45q66 0 107 -45t41 -119v-774q0 -74 -41 -119t-107 -45h-188v-233q0 -74 -41 -119t-107 -45t-106 45q-41 45 -41 119v233h-193z" />
<glyph unicode="&#x462;" horiz-adv-x="1282" d="M850 1141q8 0 14 -4t10.5 -13.5t7.5 -23t3 -33.5q0 -18 -3 -31.5t-7.5 -22.5t-10.5 -13.5t-14 -4.5h-342v-252h190q156 0 239 -25.5t138 -72.5t83 -114.5t28 -147.5q0 -90 -32 -161.5t-91 -121t-145.5 -75t-233.5 -25.5h-283q-10 0 -22 3t-21.5 12.5t-15.5 22.5t-6 32 v925h-287q-8 0 -14 5.5t-10.5 14.5t-7.5 22.5t-3 29.5q0 20 3 33.5t7.5 23t10.5 13.5t14 4h287v192q0 8 4 14.5t15.5 10.5t26.5 6t40 2t41 -2t26.5 -6t14.5 -10.5t4 -14.5v-192h342zM1006 369q0 115 -71 177t-253 62h-174v-471h182q109 0 162 17.5t87 47t50.5 73t16.5 94.5z M0 1294z" />
<glyph unicode="&#x463;" horiz-adv-x="1062" d="M399 586q45 2 91.5 3t82.5 1q98 0 173 -17.5t127.5 -54.5t79 -90t26.5 -125t-26.5 -131t-81 -101t-135.5 -64.5t-189 -22.5q-27 0 -60.5 1t-67.5 3t-67 5t-57 7q-16 0 -27.5 6t-18.5 16.5t-10 25.5t-3 38v729h-181q-6 0 -12 4t-10 12.5t-6 20.5t-2 31q0 16 2 29.5t6 21.5 t10 12t14 4h179v215q0 6 3 12.5t13 11.5t26.5 6t38.5 1q25 0 41.5 -1t24.5 -6t12 -11.5t4 -12.5v-215h260q8 0 15.5 -4t10.5 -12t5 -21.5t2 -29.5q0 -18 -2 -30.5t-6 -21t-10 -11.5t-15 -3h-260v-231zM809 293q0 86 -63.5 128t-194.5 42q-39 0 -81 -1t-71 -3v-340 q39 -2 79 -5t77 -3q125 0 189.5 47t64.5 135z" />
<glyph unicode="&#x472;" horiz-adv-x="1355" d="M1255 664q0 -158 -36.5 -284t-110.5 -215t-185.5 -136t-256.5 -47t-252 42t-176.5 125.5t-104.5 206.5t-35 285q0 154 38 278.5t113 212t185.5 134.5t255.5 47q141 0 246.5 -42t177.5 -124t106.5 -203.5t34.5 -279.5zM674 125q106 0 181 35t122 97t70.5 145t27.5 182 h-794q6 -102 28.5 -187.5t68.5 -144.5t119 -93t177 -34zM682 1171q-104 0 -179 -34.5t-122 -95t-71.5 -142.5t-28.5 -176h792q-4 96 -27.5 178t-69.5 142.5t-119 94t-175 33.5z" />
<glyph unicode="&#x473;" horiz-adv-x="1071" d="M983 483q0 -111 -28.5 -203t-86 -158.5t-142.5 -103t-200 -36.5q-111 0 -192.5 34.5t-136 98t-81 154.5t-26.5 200q0 111 28.5 203t85 158.5t141.5 103.5t200 37q109 0 191.5 -35t137 -97.5t82 -152.5t27.5 -203zM537 840q-70 0 -121 -23.5t-85 -64.5t-51.5 -96.5 t-19.5 -114.5h553q-2 59 -18.5 113.5t-49 95.5t-83.5 65.5t-125 24.5zM537 111q63 0 113 20.5t86 59t55.5 96t21.5 133.5h-553q2 -70 19.5 -126t51.5 -97t85 -63.5t121 -22.5z" />
<glyph unicode="&#x474;" horiz-adv-x="1206" d="M1204 1229q0 -43 -5 -64.5t-19 -21.5q-10 0 -21.5 1t-21.5 1q-27 0 -48.5 -12.5t-42 -46t-44 -95t-54.5 -162.5l-250 -798q-2 -12 -9 -19.5t-20.5 -10.5t-34 -5t-46.5 -2q-33 0 -55.5 2t-35 5t-20.5 11t-10 19l-424 1202q-6 23 -7 36t6 20t26.5 9t54.5 2q31 0 48 -2 t27.5 -6t14.5 -10t8 -16l367 -1090h2l184 664q41 143 77 235t74 144.5t82 72t103 19.5q27 0 45.5 -4t28.5 -10.5t13 -11.5t4 -11t2 -17.5t1 -27.5z" />
<glyph unicode="&#x475;" horiz-adv-x="976" d="M956 881q0 -23 -2 -36.5t-6 -20.5t-8 -10t-10 -3q-8 0 -17.5 1t-19.5 1q-18 0 -32.5 -3t-27 -16.5t-24.5 -40t-27 -71.5l-202 -651q-4 -12 -11.5 -19.5t-19.5 -10.5t-32.5 -5t-49.5 -2q-31 0 -52.5 2t-33.5 6t-19.5 11t-11.5 18l-307 854q-4 14 -6 24.5t-2 18.5t4 13 t13 9t24.5 5t40.5 1q29 0 45 -2t26.5 -6t14.5 -9t8 -15l254 -742l4 -24l4 24l160 557q14 57 32.5 101.5t46 72t63.5 42t87 14.5q27 0 49.5 -5.5t29.5 -13.5t11 -22t4 -47z" />
<glyph unicode="&#x490;" horiz-adv-x="909" d="M913 1317q0 -57 -34 -96q-37 -45 -103 -45h-377v-1029q0 -76 -43 -118q-43 -41 -110 -41q-68 0 -111 41q-43 43 -43 118v1151q0 66 41 111q45 49 119 49h366v101q0 74 41 118q41 45 107 45t106 -45q41 -45 41 -118v-242z" />
<glyph unicode="&#x491;" horiz-adv-x="839" d="M840 961q0 -129 -142 -130h-329v-679q0 -74 -41 -119t-107 -45t-106 45q-41 45 -41 119v809q0 53 37 92q37 37 92 37h342v112q0 74 41 119t106 45q66 0 107 -45t41 -119v-241z" />
<glyph unicode="&#x1e80;" horiz-adv-x="1820" d="M1411 39q-4 -14 -12 -23.5t-21.5 -13.5t-34 -6t-51.5 -2t-52 2t-35.5 6t-21.5 13.5t-12 23.5l-270 977h-2l-250 -977q-4 -14 -10 -23.5t-19.5 -13.5t-34 -6t-53.5 -2t-54 2t-35.5 6t-21.5 13.5t-11 23.5l-342 1194q-6 23 -6.5 36t8 20t28 9t49.5 2q31 0 49.5 -2t27.5 -6 t13.5 -10t6.5 -18l291 -1084v0l276 1082q2 12 7 19t15.5 11t29 6t46.5 2q29 0 45.5 -2t26.5 -6t14 -11t9 -19l296 -1082h3l284 1084q2 10 5 17t13.5 11t28 6t45.5 2q29 0 47.5 -3t25.5 -10t7 -19.5t-6 -34.5zM961 1438q8 -10 11 -18.5t-2 -13.5t-18.5 -8t-38.5 -3 q-20 0 -34.5 2t-24.5 5t-19.5 8t-19.5 15l-225 213q-10 10 -13.5 18.5t4 15.5t25 12.5t47.5 5.5q25 0 42.5 -2t30.5 -6.5t24.5 -10.5t21.5 -20zM444 1294z" />
<glyph unicode="&#x1e81;" horiz-adv-x="1462" d="M1411 928q0 -8 -1 -18.5t-7 -24.5l-264 -854q-4 -12 -10.5 -19.5t-17.5 -10.5t-31.5 -5t-51.5 -2t-51.5 2t-32.5 6t-18 11t-11 18l-188 651l-2 10l-2 -10l-174 -651q-4 -12 -10.5 -19.5t-19.5 -10.5t-33.5 -5t-51.5 -2t-50 2t-31.5 6t-18.5 11t-8 18l-265 854 q-4 14 -6 24.5t-2 18.5t4 13t13.5 9t26 5t38.5 1q29 0 45.5 -2t25.5 -5t13 -9t6 -16l217 -742l2 -10l2 10l199 742q2 10 7 16t14.5 9t25 5t39.5 2q25 0 40 -2t24.5 -5t12.5 -9t5 -14l215 -744l2 -10l2 10l213 742q2 10 7 16t14.5 9t26 5t42.5 2q25 0 39.5 -1t22.5 -5t11 -9 t3 -13zM784 1135q8 -12 10.5 -19.5t-4 -12.5t-18.5 -8t-35 -3q-18 0 -31.5 1t-22.5 5t-16.5 9t-15.5 15l-180 234q-8 10 -9 18t6 14.5t24.5 10.5t46.5 4q23 0 40 -2t27 -6t18.5 -11.5t16.5 -17.5zM330 950z" />
<glyph unicode="&#x1e82;" horiz-adv-x="1820" d="M1411 39q-4 -14 -12 -23.5t-21.5 -13.5t-34 -6t-51.5 -2t-52 2t-35.5 6t-21.5 13.5t-12 23.5l-270 977h-2l-250 -977q-4 -14 -10 -23.5t-19.5 -13.5t-34 -6t-53.5 -2t-54 2t-35.5 6t-21.5 13.5t-11 23.5l-342 1194q-6 23 -6.5 36t8 20t28 9t49.5 2q31 0 49.5 -2t27.5 -6 t13.5 -10t6.5 -18l291 -1084v0l276 1082q2 12 7 19t15.5 11t29 6t46.5 2q29 0 45.5 -2t26.5 -6t14 -11t9 -19l296 -1082h3l284 1084q2 10 5 17t13.5 11t28 6t45.5 2q29 0 47.5 -3t25.5 -10t7 -19.5t-6 -34.5zM1030 1651q12 14 22.5 20t24 10.5t30.5 6.5t44 2q29 0 46 -5.5 t24.5 -12.5t4.5 -15t-12 -19l-227 -213q-10 -10 -18 -15t-19.5 -8t-26 -5t-34.5 -2q-25 0 -37 3t-17.5 8t-3 13t10.5 19zM698 1294z" />
<glyph unicode="&#x1e83;" horiz-adv-x="1462" d="M1411 928q0 -8 -1 -18.5t-7 -24.5l-264 -854q-4 -12 -10.5 -19.5t-17.5 -10.5t-31.5 -5t-51.5 -2t-51.5 2t-32.5 6t-18 11t-11 18l-188 651l-2 10l-2 -10l-174 -651q-4 -12 -10.5 -19.5t-19.5 -10.5t-33.5 -5t-51.5 -2t-50 2t-31.5 6t-18.5 11t-8 18l-265 854 q-4 14 -6 24.5t-2 18.5t4 13t13.5 9t26 5t38.5 1q29 0 45.5 -2t25.5 -5t13 -9t6 -16l217 -742l2 -10l2 10l199 742q2 10 7 16t14.5 9t25 5t39.5 2q25 0 40 -2t24.5 -5t12.5 -9t5 -14l215 -744l2 -10l2 10l213 742q2 10 7 16t14.5 9t26 5t42.5 2q25 0 39.5 -1t22.5 -5t11 -9 t3 -13zM813 1366q6 10 14.5 17.5t19.5 11.5t28.5 6t42.5 2q27 0 45 -4t24 -10.5t5 -14.5t-9 -18l-180 -234q-8 -10 -14.5 -15t-14.5 -9t-22.5 -5t-32.5 -1q-23 0 -36 3t-18.5 8t-4 12t9.5 20zM528 950z" />
<glyph unicode="&#x1e84;" horiz-adv-x="1820" d="M1411 39q-4 -14 -12 -23.5t-21.5 -13.5t-34 -6t-51.5 -2t-52 2t-35.5 6t-21.5 13.5t-12 23.5l-270 977h-2l-250 -977q-4 -14 -10 -23.5t-19.5 -13.5t-34 -6t-53.5 -2t-54 2t-35.5 6t-21.5 13.5t-11 23.5l-342 1194q-6 23 -6.5 36t8 20t28 9t49.5 2q31 0 49.5 -2t27.5 -6 t13.5 -10t6.5 -18l291 -1084v0l276 1082q2 12 7 19t15.5 11t29 6t46.5 2q29 0 45.5 -2t26.5 -6t14 -11t9 -19l296 -1082h3l284 1084q2 10 5 17t13.5 11t28 6t45.5 2q29 0 47.5 -3t25.5 -10t7 -19.5t-6 -34.5zM809 1530q0 -57 -21.5 -77.5t-76.5 -20.5q-57 0 -77 20.5 t-20 75.5t20.5 75.5t76.5 20.5q57 0 77.5 -20.5t20.5 -73.5zM1221 1530q0 -57 -20.5 -77.5t-78.5 -20.5q-55 0 -75.5 20.5t-20.5 75.5t21.5 75.5t76.5 20.5q57 0 77 -20.5t20 -73.5zM481 1294z" />
<glyph unicode="&#x1e85;" horiz-adv-x="1462" d="M1411 928q0 -8 -1 -18.5t-7 -24.5l-264 -854q-4 -12 -10.5 -19.5t-17.5 -10.5t-31.5 -5t-51.5 -2t-51.5 2t-32.5 6t-18 11t-11 18l-188 651l-2 10l-2 -10l-174 -651q-4 -12 -10.5 -19.5t-19.5 -10.5t-33.5 -5t-51.5 -2t-50 2t-31.5 6t-18.5 11t-8 18l-265 854 q-4 14 -6 24.5t-2 18.5t4 13t13.5 9t26 5t38.5 1q29 0 45.5 -2t25.5 -5t13 -9t6 -16l217 -742l2 -10l2 10l199 742q2 10 7 16t14.5 9t25 5t39.5 2q25 0 40 -2t24.5 -5t12.5 -9t5 -14l215 -744l2 -10l2 10l213 742q2 10 7 16t14.5 9t26 5t42.5 2q25 0 39.5 -1t22.5 -5t11 -9 t3 -13zM649 1217q0 -55 -19.5 -75t-74.5 -20q-53 0 -71.5 19.5t-18.5 72.5q0 55 19.5 76t72.5 21q55 0 73.5 -20.5t18.5 -73.5zM1004 1217q0 -55 -19.5 -75t-75.5 -20q-53 0 -72.5 19.5t-19.5 72.5q0 55 19.5 76t74.5 21t74 -20.5t19 -73.5zM332 950z" />
<glyph unicode="&#x1ef2;" horiz-adv-x="997" d="M586 504v-477q0 -8 -4 -14.5t-14.5 -9.5t-28 -6t-39.5 -3q-27 0 -43.5 3t-26.5 6t-14 9t-4 15v477l-367 729q-10 23 -12 36t5 20t26.5 9t52.5 2q31 0 49 -2t29.5 -6t16.5 -10t9 -16l180 -371q25 -53 49.5 -111.5t51.5 -117.5h2q23 57 47 113.5t49 111.5l180 375 q4 10 9.5 16t14.5 10t26.5 6t43.5 2q35 0 55.5 -3t29 -10t6.5 -19.5t-15 -34.5zM567 1438q10 -10 12.5 -18.5t-3 -13.5t-18.5 -8t-36 -3q-20 0 -34.5 2t-25.5 5t-19.5 8t-18.5 15l-225 213q-12 10 -14.5 18.5t5 15.5t24.5 12.5t46 5.5q27 0 44.5 -2t29.5 -6.5t23.5 -10.5 t23.5 -20zM51 1294z" />
<glyph unicode="&#x1ef3;" horiz-adv-x="925" d="M563 0l-121 -332q-6 -14 -30.5 -23.5t-73.5 -9.5q-27 0 -42 3.5t-24.5 9.5t-10.5 15t5 24l125 313q-8 4 -16 13.5t-13 19.5l-319 860q-8 20 -8 32.5t7 18.5t25.5 9t49.5 3q29 0 46 -2t27.5 -6t14.5 -11t8 -19l258 -723h2l250 727q4 18 13 23t25.5 8t49.5 3q29 0 46 -3 t26.5 -9t9.5 -18.5t-6 -30.5zM526 1135q6 -12 8.5 -19.5t-3 -12.5t-17.5 -8t-35 -3q-20 0 -33.5 1t-22.5 5t-16.5 9t-13.5 15l-180 234q-8 10 -9 18t5 14.5t24.5 10.5t45.5 4q25 0 41 -2t27 -6t19.5 -11.5t16.5 -17.5zM72 950z" />
<glyph unicode="&#x2000;" horiz-adv-x="975" />
<glyph unicode="&#x2001;" horiz-adv-x="1950" />
<glyph unicode="&#x2002;" horiz-adv-x="975" />
<glyph unicode="&#x2003;" horiz-adv-x="1950" />
<glyph unicode="&#x2004;" horiz-adv-x="650" />
<glyph unicode="&#x2005;" horiz-adv-x="487" />
<glyph unicode="&#x2006;" horiz-adv-x="325" />
<glyph unicode="&#x2007;" horiz-adv-x="325" />
<glyph unicode="&#x2008;" horiz-adv-x="243" />
<glyph unicode="&#x2009;" horiz-adv-x="390" />
<glyph unicode="&#x200a;" horiz-adv-x="108" />
<glyph unicode="&#x2010;" horiz-adv-x="796" d="M616 723q117 0 117 -131q0 -127 -117 -127h-436q-117 0 -117 127q0 131 117 131h436z" />
<glyph unicode="&#x2011;" horiz-adv-x="663" d="M575 729v-203h-489v203h489z" />
<glyph unicode="&#x2012;" horiz-adv-x="796" d="M616 723q117 0 117 -131q0 -127 -117 -127h-436q-117 0 -117 127q0 131 117 131h436z" />
<glyph unicode="&#x2013;" horiz-adv-x="1024" d="M901 717q123 0 123 -123t-123 -123h-778q-123 0 -123 123t123 123h778z" />
<glyph unicode="&#x2014;" horiz-adv-x="2048" d="M2048 717q123 0 123 -123t-123 -123h-2048q-123 0 -123 123t123 123h2048z" />
<glyph unicode="&#x2015;" horiz-adv-x="1853" d="M1706 565q0 -41 -12.5 -56t-26.5 -15h-1479q-16 0 -27 15t-11 56q0 39 10 56.5t28 17.5h1479q16 0 27.5 -17.5t11.5 -56.5z" />
<glyph unicode="&#x2016;" horiz-adv-x="876" d="M688 -174h-156v1640h156v-1640zM344 -174h-156v1640h156v-1640z" />
<glyph unicode="&#x2017;" horiz-adv-x="761" d="M768 -12v-123h-770v123h770zM768 -223v-123h-770v123h770z" />
<glyph unicode="&#x2018;" horiz-adv-x="491" d="M274 958q-39 -70 -116 -69q-55 0 -97 41q-43 39 -43 94q0 37 25 82l170 307q39 70 119 70q55 0 98 -39q43 -41 43 -96q0 -37 -27 -82z" />
<glyph unicode="&#x2019;" horiz-adv-x="491" d="M274 958q-39 -70 -116 -69q-55 0 -97 41q-43 39 -43 94q0 37 25 82l170 307q39 70 119 70q55 0 98 -39q43 -41 43 -96q0 -37 -27 -82z" />
<glyph unicode="&#x201a;" horiz-adv-x="491" d="M274 -205q-39 -70 -116 -69q-55 0 -97 41q-43 39 -43 94q0 37 25 82l170 307q39 70 119 69q55 0 98 -38q43 -41 43 -97q0 -25 -27 -82z" />
<glyph unicode="&#x201b;" horiz-adv-x="442" d="M225 1335q16 -106 131 -188l-73 -72q-94 66 -145.5 158t-51.5 190q0 78 36 127t99 49q57 0 97 -38.5t40 -96.5q0 -55 -36 -91t-97 -38z" />
<glyph unicode="&#x201c;" horiz-adv-x="909" d="M692 958q-39 -70 -117 -69q-55 0 -96 41q-43 39 -43 94q0 37 25 82l170 307q39 70 119 70q55 0 98 -39q43 -41 43 -96q0 -37 -27 -82zM274 958q-39 -70 -116 -69q-55 0 -97 41q-43 39 -43 94q0 37 25 82l170 307q39 70 119 70q55 0 98 -39q43 -41 43 -96q0 -37 -27 -82z " />
<glyph unicode="&#x201d;" horiz-adv-x="909" d="M692 958q-39 -70 -117 -69q-55 0 -96 41q-43 39 -43 94q0 37 25 82l170 307q39 70 119 70q55 0 98 -39q43 -41 43 -96q0 -37 -27 -82zM274 958q-39 -70 -116 -69q-55 0 -97 41q-43 39 -43 94q0 37 25 82l170 307q39 70 119 70q55 0 98 -39q43 -41 43 -96q0 -37 -27 -82z " />
<glyph unicode="&#x201e;" horiz-adv-x="909" d="M692 -205q-39 -70 -117 -69q-55 0 -96 41q-43 39 -43 94q0 37 25 82l170 307q39 70 119 69q55 0 98 -38q43 -41 43 -97q0 -37 -27 -82zM274 -205q-39 -70 -116 -69q-55 0 -97 41q-43 39 -43 94q0 37 25 82l170 307q39 70 119 69q55 0 98 -38q43 -41 43 -97q0 -37 -27 -82 z" />
<glyph unicode="&#x201f;" horiz-adv-x="849" d="M225 1335q16 -106 131 -188l-73 -72q-94 66 -145.5 158t-51.5 190q0 78 36 127t99 49q57 0 97 -38.5t40 -96.5q0 -55 -36 -91t-97 -38zM633 1335q16 -106 131 -188l-74 -72q-94 66 -145 158t-51 190q0 78 35.5 127t99.5 49q57 0 97 -38.5t40 -96.5q0 -55 -36 -91t-97 -38 z" />
<glyph unicode="&#x2020;" horiz-adv-x="1290" d="M504 770h-336q-117 0 -117 129t117 129h336v313q0 141 141 142q141 0 141 -142v-313h336q117 0 117 -129t-117 -129h-336v-1075q0 -141 -141 -141t-141 141v1075z" />
<glyph unicode="&#x2021;" horiz-adv-x="1290" d="M504 12h-336q-117 0 -117 129t117 129h336v500h-336q-117 0 -117 129t117 129h336v313q0 141 141 142q141 0 141 -142v-313h336q117 0 117 -129t-117 -129h-336v-500h336q117 0 117 -129t-117 -129h-336v-317q0 -141 -141 -141t-141 141v317z" />
<glyph unicode="&#x2022;" horiz-adv-x="1024" d="M254 987q109 106 258 107q152 0 258 -107q106 -106 107 -258q0 -150 -107 -258q-106 -106 -258 -106q-150 0 -258 106q-106 109 -107 258q1 152 107 258z" />
<glyph unicode="&#x2023;" horiz-adv-x="716" d="M657 717l-551 -314v629z" />
<glyph unicode="&#x2024;" horiz-adv-x="567" d="M387 0h-205v205h205v-205z" />
<glyph unicode="&#x2025;" d="M956 0h-204v205h204v-205zM387 0h-205v205h205v-205z" />
<glyph unicode="&#x2026;" horiz-adv-x="2048" d="M229 248q47 47 113 47t113 -47t47 -113t-47 -112q-47 -47 -113 -48q-66 0 -113 48q-47 47 -47 112q0 66 47 113zM911 248q47 47 113 47t113 -47t47 -113t-47 -112q-47 -47 -113 -48q-66 0 -113 48q-47 47 -47 112q0 66 47 113zM1593 248q47 47 113 47t113 -47t47 -113 t-47 -112q-47 -47 -113 -48q-66 0 -113 48q-47 47 -47 112q0 66 47 113z" />
<glyph unicode="&#x2027;" horiz-adv-x="567" d="M387 618h-205v205h205v-205z" />
<glyph unicode="&#x2028;" horiz-adv-x="0" />
<glyph unicode="&#x2029;" horiz-adv-x="0" />
<glyph unicode="&#x202f;" horiz-adv-x="390" />
<glyph unicode="&#x2030;" horiz-adv-x="2199" d="M1595 74q-90 96 -90 231t90 234q90 98 226 98q135 0 225 -98t90 -234q0 -135 -90 -231q-90 -98 -225 -99q-136 1 -226 99zM1927 305q0 51 -29 86q-29 37 -77 37q-49 0 -78 -37q-29 -35 -29 -86q0 -121 107 -121q106 0 106 121zM485 1151q0 51 -28 86q-29 37 -78 37 t-78 -37q-29 -35 -29 -86q0 -121 107 -121q106 0 106 121zM983 1430q35 66 94 65q49 0 84 -33q37 -35 37 -82q0 -31 -16 -61l-688 -1288q-49 -68 -93 -68q-41 0 -77 33q-39 35 -39 80q0 35 20 76zM154 920q-90 96 -91 231q0 135 91 233q90 98 225 99q135 0 225 -99 q90 -98 90 -233t-90 -231q-90 -98 -225 -99q-135 1 -225 99zM874 74q-90 96 -90 231t90 234q90 98 226 98q135 0 225 -98t90 -234q0 -135 -90 -231q-90 -98 -225 -99q-136 1 -226 99zM1206 305q0 51 -28 86q-29 37 -78 37t-78 -37q-29 -35 -29 -86q0 -121 107 -121 q106 0 106 121z" />
<glyph unicode="&#x2031;" horiz-adv-x="2723" d="M1053 1491l-598 -1542h-133l600 1542h131zM322 1479q141 0 214.5 -99.5t73.5 -277.5q0 -199 -71.5 -297t-214.5 -98q-139 0 -213 99t-74 292q0 182 73 281.5t212 99.5zM328 834q135 0 135 260q0 262 -139 262q-68 0 -104 -58.5t-36 -205.5q1 -258 144 -258zM1722 717 q141 0 215 -99.5t74 -277.5q0 -199 -71.5 -297t-215.5 -98q-139 0 -212.5 99t-73.5 292q0 180 71.5 280.5t212.5 100.5zM1729 70q135 0 135 260q0 262 -140 262q-66 0 -102.5 -58.5t-36.5 -205.5q1 -258 144 -258zM1049 717q141 0 214.5 -99.5t73.5 -277.5 q0 -199 -71.5 -297t-214.5 -98q-139 0 -213 99t-74 292q0 180 73 280.5t212 100.5zM1055 70q135 0 135 260q0 262 -139 262q-68 0 -104 -58.5t-36 -205.5q1 -258 144 -258zM2394 717q141 0 215 -99.5t74 -277.5q0 -199 -71.5 -297t-215.5 -98q-137 0 -212 99t-75 292 q0 180 73 280.5t212 100.5zM2400 70q135 0 135 260q0 262 -139 262q-66 0 -102.5 -58.5t-36.5 -205.5q0 -258 143 -258z" />
<glyph unicode="&#x2032;" horiz-adv-x="450" d="M133 1583h219l-102 -512h-152z" />
<glyph unicode="&#x2033;" horiz-adv-x="897" d="M541 1583h219l-103 -512h-151zM172 1583h219l-102 -512h-152z" />
<glyph unicode="&#x2034;" horiz-adv-x="1067" d="M1008 1466l-217 -520h-82l106 520h193zM700 1466l-217 -520h-82l107 520h192zM393 1466l-217 -520h-82l107 520h192z" />
<glyph unicode="&#x2035;" horiz-adv-x="421" d="M360 946h-81l-218 520h193z" />
<glyph unicode="&#x2036;" horiz-adv-x="727" d="M668 946h-82l-217 520h192zM360 946h-81l-218 520h193z" />
<glyph unicode="&#x2037;" horiz-adv-x="1034" d="M975 946h-82l-217 520h192zM668 946h-82l-217 520h192zM360 946h-81l-218 520h193z" />
<glyph unicode="&#x2038;" horiz-adv-x="638" d="M578 -358h-103l-156 311l-155 -311h-103l215 424h86z" />
<glyph unicode="&#x2039;" horiz-adv-x="606" d="M508 332q23 -33 22 -70q0 -55 -32 -92q-35 -37 -90 -37q-68 0 -103 51l-211 326q-18 27 -18 74q0 45 49 114l199 281q31 35 88 35q53 0 88 -35q31 -31 30 -78q0 -41 -22 -78l-162 -248z" />
<glyph unicode="&#x203a;" horiz-adv-x="606" d="M260 571l-162 244q-23 33 -22 70q0 55 35 92q33 37 88 37q68 0 102 -51l211 -326q18 -27 18 -74q0 -45 -49 -114l-198 -281q-31 -35 -88 -35q-53 0 -86 35q-33 31 -33 78t22 78z" />
<glyph unicode="&#x203b;" horiz-adv-x="2048" d="M1808 -152l-104 -104l-680 680l-682 -680l-104 104l680 680l-680 680l104 105l680 -680l682 680l104 -105l-682 -680zM1028 1249q47 0 82 -33.5t35 -80.5t-35 -81t-82 -34t-81 33.5t-34 81.5q0 47 34 80.5t81 33.5zM1630 649q47 0 81 -33.5t34 -80.5t-34 -81t-81 -34 t-80.5 33.5t-33.5 81.5q0 47 33.5 80.5t80.5 33.5zM424 643q47 0 81 -34t34 -81t-34 -80.5t-81 -33.5t-81 33.5t-34 80.5t34 81t81 34zM1024 41q47 0 82 -34t35 -81t-35 -80.5t-82 -33.5t-81 33.5t-34 80.5t34 81t81 34z" />
<glyph unicode="&#x203c;" horiz-adv-x="1126" d="M289 -14q-57 0 -97 38.5t-40 96.5q0 55 39.5 96t97.5 41q55 0 95 -40t40 -97t-40 -96t-95 -39zM168 1491h235l-28 -1073h-176zM844 -14q-57 0 -97 38.5t-40 96.5q0 55 39.5 96t97.5 41q55 0 95 -40t40 -97t-40 -96t-95 -39zM723 1491h235l-28 -1073h-176z" />
<glyph unicode="&#x203d;" horiz-adv-x="989" d="M508 633q55 10 99 31.5t73 54.5t44 75t15 95q0 98 -58 160.5t-167 78.5zM338 1376q0 12 3 21.5t14.5 14.5t28.5 7t44 2q29 0 46.5 -2t27.5 -8t14 -14t2 -21l-2 -110q94 -10 168 -42t123 -79t75.5 -109.5t26.5 -134.5q0 -92 -31.5 -161.5t-87 -118t-128 -79t-156.5 -44.5 l-2 -131q0 -8 -3 -14.5t-12.5 -9.5t-23.5 -5t-37 -2q-20 0 -33.5 2t-23 5t-12.5 9t-3 15l-14 761q-51 -8 -88 -20t-61.5 -25.5t-41 -22.5t-22.5 -9t-11 5t-9.5 14t-6.5 22.5t-2 29.5t1 27.5t6.5 21t12.5 15.5t21.5 14t39 19.5t50 19.5t54 14.5t55.5 10.5zM535 102 q0 -33 -4.5 -54t-16.5 -34.5t-32.5 -18.5t-51.5 -5t-51.5 5t-32.5 18.5t-16 35t-4 53.5q0 31 4 53.5t16 35t32.5 17.5t51.5 5t51.5 -5t32.5 -17.5t16.5 -35t4.5 -53.5z" />
<glyph unicode="&#x203e;" horiz-adv-x="759" d="M768 1778v-133h-770v133h770z" />
<glyph unicode="&#x203f;" horiz-adv-x="1933" d="M1927 -100q-184 -141 -439 -228.5t-521 -87.5t-521.5 87t-439.5 229v108q184 -143 439 -232t522 -89q266 0 521 89t439 232v-108z" />
<glyph unicode="&#x2040;" horiz-adv-x="1933" d="M1927 1184q-184 143 -439 232t-521 89t-521.5 -89t-439.5 -232v108q184 141 439 228.5t522 87.5q266 0 521 -87t439 -229v-108z" />
<glyph unicode="&#x2041;" horiz-adv-x="638" d="M578 -358h-103l-156 311l-155 -311h-103l334 657h86l-119 -233z" />
<glyph unicode="&#x2042;" horiz-adv-x="1677" d="M1171 1196q-119 -37 -249 -55q47 -41 174 -189l-121 -86q-59 78 -137 215q-72 -139 -131 -215l-117 86q145 176 166 189q-145 29 -246 55l47 143q182 -68 231 -98q-20 172 -20 250h143q0 -92 -18 -225q-4 -6 -4 -23q94 47 235 96zM1610 324q-119 -37 -250 -56 q47 -41 174 -188l-121 -86q-59 78 -137 215q-74 -139 -131 -215l-117 86q145 176 166 188q-145 29 -246 56l47 143q182 -68 232 -98q-20 174 -21 249h144q0 -92 -19 -225q-4 -6 -4 -22q94 47 236 96zM729 324q-119 -37 -250 -56q47 -41 174 -188l-121 -86q-59 78 -137 215 q-74 -139 -131 -215l-117 86q147 176 166 188q-145 29 -245 56l47 143q182 -68 231 -98q-20 174 -20 249h143q0 -92 -18 -225q-4 -6 -5 -22q94 47 236 96z" />
<glyph unicode="&#x2043;" horiz-adv-x="681" d="M616 379h-550v303h550v-303z" />
<glyph unicode="&#x2044;" horiz-adv-x="688" d="M-35 -8q-4 -8 -11 -13.5t-17.5 -8.5t-23.5 -5t-34 -2q-23 0 -36 4t-18 11.5t-4 16.5t9 21l899 1289q6 8 13.5 13t17.5 8t23.5 5t33.5 2q23 0 36 -4t19.5 -10t4 -16.5t-10.5 -22.5z" />
<glyph unicode="&#x2045;" horiz-adv-x="567" d="M537 -408h-398v1874h398v-149h-218v-746h218v-88h-218v-741h218v-150z" />
<glyph unicode="&#x2046;" horiz-adv-x="567" d="M430 -408h-397v150h217v741h-217v88h217v746h-217v149h397v-1874z" />
<glyph unicode="&#x205f;" horiz-adv-x="487" />
<glyph unicode="&#x20a0;" d="M1120 0h-590v395q-47 -4 -65 -4q-207 0 -315.5 157t-108.5 394q0 264 128 397.5t333 133.5q307 0 393 -277l-172 -39q-55 166 -223 166q-279 0 -279 -381q0 -188 72 -293.5t203 -105.5q4 0 34 2v504h566v-160h-391v-271h352v-155h-352v-309h415v-154z" />
<glyph unicode="&#x20a1;" d="M1075 463q-61 -487 -463 -488q-27 0 -69 5l-29 -109h-106l36 131q-53 18 -77 35l-45 -166h-107l64 235q-174 188 -175 635q0 750 506 750q33 0 49 -2l31 113h107l-37 -132q37 -10 78 -32l45 164h106l-63 -232q98 -104 133 -309l-168 -39q-12 57 -31 113l-274 -1000h24 q254 0 295 373zM616 1331h-8q-156 0 -239.5 -145.5t-83.5 -468.5q0 -242 57 -381zM788 1260q-35 35 -71 51l-301 -1094q31 -35 71 -53z" />
<glyph unicode="&#x20a2;" d="M1092 807l-62 -166q-68 39 -131 39q-100 0 -152.5 -90t-52.5 -254v-186q156 47 199 264l170 -45q-98 -393 -463 -394q-508 0 -508 766q0 750 506 750q387 0 449 -391l-168 -39q-51 270 -283 270q-156 0 -240 -145.5t-84 -468.5q0 -494 242 -570v693h164v-160h4 q86 184 225 184q93 0 185 -57z" />
<glyph unicode="&#x20a3;" horiz-adv-x="935" d="M903 1491v-150h-512v-464h400v-150h-400v-244h275v-147h-275v-336h-215v336h-158v147h158v1008h727z" />
<glyph unicode="&#x20a4;" horiz-adv-x="1017" d="M973 154v-154h-914v135q174 33 174 322v78h-159v147h159v145h-159v148h159v39q0 246 116 369.5t347 123.5q86 0 207 -26v-152q-127 29 -190 29q-147 0 -211 -85t-64 -286v-12h379v-148h-379v-145h379v-147h-379v-43q0 -240 -151 -338h686z" />
<glyph unicode="&#x20a5;" horiz-adv-x="1705" d="M1575 0h-180v670q0 74 -10.5 127t-51.5 93t-129 40q-106 0 -183 -74t-77 -240v-616h-180v297l-189 -442h-106l295 692v143q0 137 -48 188.5t-138 51.5q-115 0 -190 -80t-75 -299v-551h-180v1061h162v-148h4q109 172 317 172q233 0 299 -182l185 432h106l-121 -282 q68 33 160 32q330 0 330 -356v-729z" />
<glyph unicode="&#x20a6;" d="M1096 541h-121v-541h-219l-195 541h-215v-541h-184v541h-119v116h119v168h-119v117h119v531h219l192 -531h218v531h184v-531h121v-117h-121v-168h121v-116zM414 942l-68 186v-186h68zM791 657v168h-177l64 -168h113zM518 657l-59 168h-113v-168h172zM791 348v193h-72z " />
<glyph unicode="&#x20a7;" horiz-adv-x="2357" d="M1624 14q-123 -29 -225 -28q-131 0 -196.5 65.5t-65.5 198.5v774h-136q-2 -236 -130 -360.5t-365 -124.5h-133v-539h-215v1491h395q215 0 320.5 -91t123.5 -282l297 303h56v-258h344v-90q106 106 297 107q147 0 266 -37v-146q-125 43 -244 43q-96 0 -145 -42t-49 -126 t123 -149q139 -72 203.5 -108.5t106.5 -110.5t42 -170q0 -174 -102.5 -261t-309.5 -87q-111 -1 -258 28zM373 1348v-664h121q147 0 215.5 79t68.5 261t-63.5 253t-198.5 71h-143zM1583 141v35q184 -49 285 -49q106 0 160.5 44t54.5 134q0 51 -33 94t-98 78l-221 121 q-123 94 -123 254q0 98 47 172h-305v-739q0 -96 30.5 -126t94.5 -30q49 0 108 12z" />
<glyph unicode="&#x20a8;" horiz-adv-x="2095" d="M1192 1010h-141q-47 -291 -408 -340v-4q84 -39 148.5 -103.5t132.5 -171.5l252 -391h-244q-240 377 -305.5 469t-126 135t-121.5 43h-27v-647h-194v1010h-121v137h121v319h374q150 0 250.5 -24.5t172 -103t92.5 -191.5h145v-137zM840 1147q-51 158 -299 158h-189v-158 h488zM846 1010h-494v-189h180q121 0 205 49.5t109 139.5zM1804 764q-25 174 -233 174q-102 0 -166 -35t-64 -102q0 -63 51.5 -90t198.5 -66q168 -43 251 -75.5t130 -92t47 -166.5q0 -141 -115.5 -238.5t-310.5 -97.5q-401 0 -454 342l178 27q29 -221 274 -221 q117 0 180.5 49t63.5 121q0 49 -28.5 77.5t-71.5 43t-197 51.5q-225 53 -298 131t-73 184q0 131 105.5 218t286.5 87q379 0 421 -297z" />
<glyph unicode="&#x20a9;" horiz-adv-x="1923" d="M1903 532h-256l-148 -532h-186l-148 532h-411l-150 -532h-198l-142 532h-248v136h213l-39 147h-174v135h138l-138 516h199l119 -516h364l148 516h233l146 -516h354l127 516h197l-144 -516h144v-135h-179l-41 -147h220v-136zM1049 950q-78 287 -91 338q-18 -88 -92 -338 h183zM1548 815h-282l41 -147h204zM1128 668l-41 147h-256l-40 -147h337zM662 815h-295l34 -147h220zM1481 532h-142q49 -231 64 -327zM584 532h-154q53 -231 72 -327q35 149 82 327z" />
<glyph unicode="&#x20aa;" horiz-adv-x="1546" d="M1081 193q72 0 95 26q23 33 22 84v858h211v-874q0 -119 -74 -203q-72 -84 -225 -84h-612v743h211v-550h372zM846 860q0 61 -27.5 87t-89.5 26h-373v-973h-211v1163h613q143 0 223 -80q76 -80 76 -206v-457h-211v440z" />
<glyph unicode="&#x20ab;" horiz-adv-x="1097" d="M836 246l-45 143q-106 -160 -308 -160q-186 0 -287.5 128t-101.5 341q0 215 103.5 348.5t289.5 133.5q162 0 252 -103v240h-254v139h254v127h213v-127h121v-139h-121v-1071h-116zM520 1038q-213 0 -213 -331q0 -332 209 -332q229 0 229 334q0 329 -225 329zM952 0h-819 v139h819v-139z" />
<glyph unicode="&#x20ac;" horiz-adv-x="1175" d="M1032 1169q-33 205 -239 205q-264 0 -304 -489h484l-41 -101h-445q-2 -20 -2 -65v-66h394l-41 -100h-349q29 -469 306 -469q207 0 237 203h51l-14 -199q-104 -111 -346 -111q-483 0 -541 576h-145l41 100h90q-2 20 -2 70q0 43 2 61h-131l41 101h98q33 295 156 440 q133 158 391 158q244 0 346 -107l14 -207h-51z" />
<glyph unicode="&#x2122;" horiz-adv-x="2048" d="M340 1274h-162q-92 0 -92 92t92 92h570q92 0 92 -92t-92 -92h-162v-537q0 -123 -123 -123t-123 123v537zM958 1343q0 127 175 127q133 0 182 -127l145 -372l146 372q49 127 182 127q174 0 174 -127v-606q0 -123 -111 -123t-110 123v426h-4l-148 -426q-43 -123 -129 -123 t-129 123l-147 426h-4v-426q0 -123 -111 -123t-111 123v606z" />
<glyph unicode="&#x25fc;" horiz-adv-x="1105" d="M0 1106h1106v-1106h-1106v1106z" />
</font>
</defs>
</svg>
